  0
SECTION
  2
HEADER
  9
$MEASUREMENT
  70
  1
  9
$INSUNITS
  70
  4
  0
ENDSEC
  0
SECTION
  2
TABLES
  0
TABLE
  2
LTYPE
 70
     1
  0
LTYPE
  2
CONTINUOUS
 70
    64
  3
Ausgezogene Linie
 72
    65
 73
     0
 40
0.0
  0
ENDTAB
  0
TABLE
  2
LAYER
 70
     3
  0
LAYER
  2
Contour
 70
    64
 62
     7
  6
CONTINUOUS
  0
LAYER
  2
Engraving
 70
    64
 62
     7
  6
CONTINUOUS
  0
LAYER
  2
Reference_points
 70
    64
 62
     1
  6
CONTINUOUS
  0
ENDTAB
  0
TABLE
  2
STYLE
 70
     1
  0
STYLE
  2
TXT
 70
    64
 40
0.0
 41
1.0
 50
0.0
 71
     0
 42
3.500000
  3
TXT
  0
ENDTAB
  0
ENDSEC
  0
SECTION
  2
BLOCKS
  0
ENDSEC
  0
SECTION
  2
ENTITIES
  0
LINE
  8
Contour
 62
   7
 39
0.100
  6
CONTINUOUS
 10
40.30000
 20
128.40000
 30
 0
 11
0.00000
 21
128.40000
  0
LINE
  8
Contour
 62
   7
 39
0.100
  6
CONTINUOUS
 10
0.00000
 20
128.40000
 30
 0
 11
0.00000
 21
128.40000
  0
LINE
  8
Contour
 62
   7
 39
0.100
  6
CONTINUOUS
 10
0.00000
 20
128.40000
 30
 0
 11
0.00000
 21
0.00000
  0
LINE
  8
Contour
 62
   7
 39
0.100
  6
CONTINUOUS
 10
0.00000
 20
0.00000
 30
 0
 11
0.00000
 21
0.00000
  0
LINE
  8
Contour
 62
   7
 39
0.100
  6
CONTINUOUS
 10
0.00000
 20
0.00000
 30
 0
 11
40.30000
 21
0.00000
  0
LINE
  8
Contour
 62
   7
 39
0.100
  6
CONTINUOUS
 10
40.30000
 20
0.00000
 30
 0
 11
40.30000
 21
0.00000
  0
LINE
  8
Contour
 62
   7
 39
0.100
  6
CONTINUOUS
 10
40.30000
 20
0.00000
 30
 0
 11
40.30000
 21
128.40000
  0
LINE
  8
Contour
 62
   7
 39
0.100
  6
CONTINUOUS
 10
40.30000
 20
128.40000
 30
 0
 11
40.30000
 21
128.40000
  0
LINE
  8
Engraving
 62
   7
 39
0.200
  6
CONTINUOUS
 10
18.69500
 20
126.25900
 30
 0
 11
18.69500
 21
123.71700
  0
LINE
  8
Engraving
 62
   7
 39
0.200
  6
CONTINUOUS
 10
18.69500
 20
123.71700
 30
 0
 11
19.47000
 21
123.71700
  0
ARC
  8
Engraving
 62
   7
 39
0.200
  6
CONTINUOUS
 10
19.35000
 20
124.82700
 30
 0
 40
1.11600
 50
-83.82982
 51
-39.29302
  0
ARC
  8
Engraving
 62
   7
 39
0.200
  6
CONTINUOUS
 10
18.95000
 20
125.00400
 30
 0
 40
1.54200
 50
-34.96768
 51
34.93722
  0
ARC
  8
Engraving
 62
   7
 39
0.200
  6
CONTINUOUS
 10
19.42200
 20
125.23900
 30
 0
 40
1.02300
 50
39.28941
 51
85.57123
  0
LINE
  8
Engraving
 62
   7
 39
0.200
  6
CONTINUOUS
 10
19.50100
 20
126.25900
 30
 0
 11
18.69500
 21
126.25900
  0
LINE
  8
Engraving
 62
   7
 39
0.200
  6
CONTINUOUS
 10
18.69500
 20
126.25900
 30
 0
 11
18.54000
 21
126.35200
  0
LINE
  8
Engraving
 62
   7
 39
0.200
  6
CONTINUOUS
 10
18.54000
 20
126.35200
 30
 0
 11
19.47000
 21
126.35200
  0
ARC
  8
Engraving
 62
   7
 39
0.200
  6
CONTINUOUS
 10
19.43800
 20
125.28100
 30
 0
 40
1.07100
 50
398.55961
 51
88.28859
  0
ARC
  8
Engraving
 62
   7
 39
0.200
  6
CONTINUOUS
 10
19.14300
 20
125.00400
 30
 0
 40
1.47500
 50
320.13976
 51
39.83043
  0
ARC
  8
Engraving
 62
   7
 39
0.200
  6
CONTINUOUS
 10
19.40500
 20
124.71000
 30
 0
 40
1.08800
 50
273.42522
 51
-36.81724
  0
LINE
  8
Engraving
 62
   7
 39
0.200
  6
CONTINUOUS
 10
19.47000
 20
123.62400
 30
 0
 11
18.54000
 21
123.62400
  0
LINE
  8
Engraving
 62
   7
 39
0.200
  6
CONTINUOUS
 10
18.54000
 20
123.62400
 30
 0
 11
18.54000
 21
126.35200
  0
LINE
  8
Engraving
 62
   7
 39
0.200
  6
CONTINUOUS
 10
18.54000
 20
126.35200
 30
 0
 11
18.38500
 21
126.47600
  0
LINE
  8
Engraving
 62
   7
 39
0.200
  6
CONTINUOUS
 10
18.38500
 20
126.47600
 30
 0
 11
19.47000
 21
126.47600
  0
ARC
  8
Engraving
 62
   7
 39
0.200
  6
CONTINUOUS
 10
19.46700
 20
125.25600
 30
 0
 40
1.22000
 50
400.11225
 51
89.85911
  0
ARC
  8
Engraving
 62
   7
 39
0.200
  6
CONTINUOUS
 10
19.13600
 20
124.98800
 30
 0
 40
1.64600
 50
320.17660
 51
39.82340
  0
ARC
  8
Engraving
 62
   7
 39
0.200
  6
CONTINUOUS
 10
19.46700
 20
124.72000
 30
 0
 40
1.22000
 50
270.14089
 51
-40.11225
  0
LINE
  8
Engraving
 62
   7
 39
0.200
  6
CONTINUOUS
 10
19.47000
 20
123.50000
 30
 0
 11
18.38500
 21
123.50000
  0
LINE
  8
Engraving
 62
   7
 39
0.200
  6
CONTINUOUS
 10
18.38500
 20
123.50000
 30
 0
 11
18.38500
 21
126.47600
  0
LINE
  8
Engraving
 62
   7
 39
0.200
  6
CONTINUOUS
 10
18.38500
 20
126.47600
 30
 0
 11
18.85000
 21
126.16600
  0
LINE
  8
Engraving
 62
   7
 39
0.200
  6
CONTINUOUS
 10
18.85000
 20
126.16600
 30
 0
 11
19.47000
 21
126.16600
  0
ARC
  8
Engraving
 62
   7
 39
0.200
  6
CONTINUOUS
 10
19.47000
 20
125.34900
 30
 0
 40
0.81700
 50
378.47930
 51
90.00000
  0
ARC
  8
Engraving
 62
   7
 39
0.200
  6
CONTINUOUS
 10
18.46700
 20
125.00400
 30
 0
 40
1.87800
 50
341.20810
 51
18.76301
  0
ARC
  8
Engraving
 62
   7
 39
0.200
  6
CONTINUOUS
 10
19.44900
 20
124.64200
 30
 0
 40
0.83200
 50
271.44586
 51
-16.97619
  0
LINE
  8
Engraving
 62
   7
 39
0.200
  6
CONTINUOUS
 10
19.47000
 20
123.81000
 30
 0
 11
18.85000
 21
123.81000
  0
LINE
  8
Engraving
 62
   7
 39
0.200
  6
CONTINUOUS
 10
18.85000
 20
123.81000
 30
 0
 11
18.85000
 21
126.16600
  0
ARC
  8
Engraving
 62
   7
 39
0.200
  6
CONTINUOUS
 10
22.40400
 20
124.12400
 30
 0
 40
0.54800
 50
177.17417
 51
-75.73549
  0
LINE
  8
Engraving
 62
   7
 39
0.200
  6
CONTINUOUS
 10
21.85700
 20
124.15100
 30
 0
 11
21.85700
 21
125.45300
  0
LINE
  8
Engraving
 62
   7
 39
0.200
  6
CONTINUOUS
 10
21.85700
 20
125.45300
 30
 0
 11
21.70200
 21
125.45300
  0
LINE
  8
Engraving
 62
   7
 39
0.200
  6
CONTINUOUS
 10
21.70200
 20
125.45300
 30
 0
 11
21.70200
 21
124.15100
  0
ARC
  8
Engraving
 62
   7
 39
0.200
  6
CONTINUOUS
 10
22.36700
 20
124.17100
 30
 0
 40
0.66500
 50
-178.27734
 51
-39.50768
  0
ARC
  8
Engraving
 62
   7
 39
0.200
  6
CONTINUOUS
 10
20.72800
 20
125.43800
 30
 0
 40
2.73600
 50
-38.14311
 51
-27.32358
  0
LINE
  8
Engraving
 62
   7
 39
0.200
  6
CONTINUOUS
 10
23.15900
 20
124.18200
 30
 0
 11
23.15900
 21
123.56200
  0
LINE
  8
Engraving
 62
   7
 39
0.200
  6
CONTINUOUS
 10
23.15900
 20
123.56200
 30
 0
 11
23.31400
 21
123.56200
  0
LINE
  8
Engraving
 62
   7
 39
0.200
  6
CONTINUOUS
 10
23.31400
 20
123.56200
 30
 0
 11
23.31400
 21
125.42200
  0
LINE
  8
Engraving
 62
   7
 39
0.200
  6
CONTINUOUS
 10
23.31400
 20
125.42200
 30
 0
 11
23.15900
 21
125.42200
  0
LINE
  8
Engraving
 62
   7
 39
0.200
  6
CONTINUOUS
 10
23.15900
 20
125.42200
 30
 0
 11
23.15900
 21
123.56200
  0
LINE
  8
Engraving
 62
   7
 39
0.200
  6
CONTINUOUS
 10
23.15900
 20
123.56200
 30
 0
 11
23.03500
 21
123.50000
  0
LINE
  8
Engraving
 62
   7
 39
0.200
  6
CONTINUOUS
 10
23.03500
 20
123.50000
 30
 0
 11
23.03500
 21
123.93400
  0
ARC
  8
Engraving
 62
   7
 39
0.200
  6
CONTINUOUS
 10
22.33600
 20
124.14500
 30
 0
 40
0.73000
 50
222.16808
 51
-16.79695
  0
ARC
  8
Engraving
 62
   7
 39
0.200
  6
CONTINUOUS
 10
22.39800
 20
124.21100
 30
 0
 40
0.82000
 50
179.86025
 51
-137.32220
  0
LINE
  8
Engraving
 62
   7
 39
0.200
  6
CONTINUOUS
 10
21.57800
 20
124.21300
 30
 0
 11
21.57800
 21
125.51500
  0
LINE
  8
Engraving
 62
   7
 39
0.200
  6
CONTINUOUS
 10
21.57800
 20
125.51500
 30
 0
 11
21.98100
 21
125.51500
  0
LINE
  8
Engraving
 62
   7
 39
0.200
  6
CONTINUOUS
 10
21.98100
 20
125.51500
 30
 0
 11
21.98100
 21
124.21300
  0
ARC
  8
Engraving
 62
   7
 39
0.200
  6
CONTINUOUS
 10
22.57300
 20
124.20900
 30
 0
 40
0.59200
 50
179.61287
 51
222.39744
  0
ARC
  8
Engraving
 62
   7
 39
0.200
  6
CONTINUOUS
 10
22.50800
 20
124.15000
 30
 0
 40
0.50400
 50
-137.57336
 51
-42.42664
  0
ARC
  8
Engraving
 62
   7
 39
0.200
  6
CONTINUOUS
 10
22.44300
 20
124.20900
 30
 0
 40
0.59200
 50
-42.39744
 51
0.38713
  0
LINE
  8
Engraving
 62
   7
 39
0.200
  6
CONTINUOUS
 10
23.03500
 20
124.21300
 30
 0
 11
23.03500
 21
125.51500
  0
LINE
  8
Engraving
 62
   7
 39
0.200
  6
CONTINUOUS
 10
23.03500
 20
125.51500
 30
 0
 11
23.43800
 21
125.51500
  0
LINE
  8
Engraving
 62
   7
 39
0.200
  6
CONTINUOUS
 10
23.43800
 20
125.51500
 30
 0
 11
23.43800
 21
123.50000
  0
LINE
  8
Engraving
 62
   7
 39
0.200
  6
CONTINUOUS
 10
23.43800
 20
123.50000
 30
 0
 11
23.03500
 21
123.50000
  0
ARC
  8
Engraving
 62
   7
 39
0.200
  6
CONTINUOUS
 10
25.02400
 20
124.95200
 30
 0
 40
0.55600
 50
466.73876
 51
163.26124
  0
ARC
  8
Engraving
 62
   7
 39
0.200
  6
CONTINUOUS
 10
25.21500
 20
124.29400
 30
 0
 40
1.24100
 50
425.37644
 51
106.43384
  0
ARC
  8
Engraving
 62
   7
 39
0.200
  6
CONTINUOUS
 10
25.55400
 20
125.03500
 30
 0
 40
0.42600
 50
362.01662
 51
65.30001
  0
LINE
  8
Engraving
 62
   7
 39
0.200
  6
CONTINUOUS
 10
25.98000
 20
125.05000
 30
 0
 11
25.98000
 21
123.65500
  0
LINE
  8
Engraving
 62
   7
 39
0.200
  6
CONTINUOUS
 10
25.98000
 20
123.65500
 30
 0
 11
26.04200
 21
123.53100
  0
LINE
  8
Engraving
 62
   7
 39
0.200
  6
CONTINUOUS
 10
26.04200
 20
123.53100
 30
 0
 11
25.88700
 21
123.87200
  0
LINE
  8
Engraving
 62
   7
 39
0.200
  6
CONTINUOUS
 10
25.88700
 20
123.87200
 30
 0
 11
25.88700
 21
123.56200
  0
LINE
  8
Engraving
 62
   7
 39
0.200
  6
CONTINUOUS
 10
25.88700
 20
123.56200
 30
 0
 11
25.76300
 21
123.77900
  0
LINE
  8
Engraving
 62
   7
 39
0.200
  6
CONTINUOUS
 10
25.76300
 20
123.77900
 30
 0
 11
25.88700
 21
124.05800
  0
ARC
  8
Engraving
 62
   7
 39
0.200
  6
CONTINUOUS
 10
25.10700
 20
124.66700
 30
 0
 40
0.99000
 50
277.49133
 51
-37.98162
  0
ARC
  8
Engraving
 62
   7
 39
0.200
  6
CONTINUOUS
 10
25.04400
 20
124.49900
 30
 0
 40
0.83500
 50
244.01770
 51
-76.71235
  0
ARC
  8
Engraving
 62
   7
 39
0.200
  6
CONTINUOUS
 10
24.87400
 20
124.05800
 30
 0
 40
0.36700
 50
122.30345
 51
-122.30345
  0
ARC
  8
Engraving
 62
   7
 39
0.200
  6
CONTINUOUS
 10
24.10200
 20
127.10600
 30
 0
 40
2.79800
 50
-78.11978
 51
-51.18029
  0
LINE
  8
Engraving
 62
   7
 39
0.200
  6
CONTINUOUS
 10
25.85600
 20
124.92600
 30
 0
 11
25.70100
 21
124.70900
  0
LINE
  8
Engraving
 62
   7
 39
0.200
  6
CONTINUOUS
 10
25.70100
 20
124.70900
 30
 0
 11
25.70100
 21
124.24400
  0
ARC
  8
Engraving
 62
   7
 39
0.200
  6
CONTINUOUS
 10
25.18100
 20
124.24600
 30
 0
 40
0.52000
 50
286.55136
 51
-0.22037
  0
ARC
  8
Engraving
 62
   7
 39
0.200
  6
CONTINUOUS
 10
25.13800
 20
124.39500
 30
 0
 40
0.67500
 50
240.12871
 51
-73.55294
  0
ARC
  8
Engraving
 62
   7
 39
0.200
  6
CONTINUOUS
 10
24.93900
 20
124.05400
 30
 0
 40
0.28000
 50
145.34373
 51
-119.31314
  0
ARC
  8
Engraving
 62
   7
 39
0.200
  6
CONTINUOUS
 10
25.15300
 20
123.90800
 30
 0
 40
0.53900
 50
464.39724
 51
145.51339
  0
ARC
  8
Engraving
 62
   7
 39
0.200
  6
CONTINUOUS
 10
23.26800
 20
131.38000
 30
 0
 40
7.16700
 50
-75.85906
 51
-72.25015
  0
ARC
  8
Engraving
 62
   7
 39
0.200
  6
CONTINUOUS
 10
25.27400
 20
125.11600
 30
 0
 40
0.59000
 50
-72.33305
 51
-43.62626
  0
LINE
  8
Engraving
 62
   7
 39
0.200
  6
CONTINUOUS
 10
25.70100
 20
124.70900
 30
 0
 11
25.85600
 21
125.01900
  0
LINE
  8
Engraving
 62
   7
 39
0.200
  6
CONTINUOUS
 10
25.85600
 20
125.01900
 30
 0
 11
25.85600
 21
124.27500
  0
ARC
  8
Engraving
 62
   7
 39
0.200
  6
CONTINUOUS
 10
24.97200
 20
124.47400
 30
 0
 40
0.90600
 50
244.70798
 51
-12.68655
  0
ARC
  8
Engraving
 62
   7
 39
0.200
  6
CONTINUOUS
 10
24.77500
 20
124.01800
 30
 0
 40
0.41000
 50
156.43460
 51
-117.62828
  0
ARC
  8
Engraving
 62
   7
 39
0.200
  6
CONTINUOUS
 10
24.90400
 20
123.96900
 30
 0
 40
0.54800
 50
467.41015
 51
157.13085
  0
ARC
  8
Engraving
 62
   7
 39
0.200
  6
CONTINUOUS
 10
23.42000
 20
130.33200
 30
 0
 40
5.98700
 50
-77.26360
 51
-68.24657
  0
ARC
  8
Engraving
 62
   7
 39
0.200
  6
CONTINUOUS
 10
25.49200
 20
125.07400
 30
 0
 40
0.33700
 50
-64.11973
 51
69.90088
  0
ARC
  8
Engraving
 62
   7
 39
0.200
  6
CONTINUOUS
 10
25.28300
 20
124.32800
 30
 0
 40
1.11200
 50
72.99959
 51
107.04969
  0
ARC
  8
Engraving
 62
   7
 39
0.200
  6
CONTINUOUS
 10
25.03600
 20
124.99200
 30
 0
 40
0.40700
 50
101.19943
 51
162.85588
  0
LINE
  8
Engraving
 62
   7
 39
0.200
  6
CONTINUOUS
 10
24.64700
 20
125.11200
 30
 0
 11
24.49200
 21
125.11200
  0
LINE
  8
Engraving
 62
   7
 39
0.200
  6
CONTINUOUS
 10
24.49200
 20
125.11200
 30
 0
 11
24.36800
 21
125.01900
  0
LINE
  8
Engraving
 62
   7
 39
0.200
  6
CONTINUOUS
 10
24.36800
 20
125.01900
 30
 0
 11
24.77100
 21
125.01900
  0
ARC
  8
Engraving
 62
   7
 39
0.200
  6
CONTINUOUS
 10
25.05000
 20
125.01700
 30
 0
 40
0.27900
 50
476.38141
 51
179.58928
  0
ARC
  8
Engraving
 62
   7
 39
0.200
  6
CONTINUOUS
 10
25.23600
 20
124.62400
 30
 0
 40
0.71400
 50
424.26058
 51
115.73942
  0
ARC
  8
Engraving
 62
   7
 39
0.200
  6
CONTINUOUS
 10
25.43100
 20
125.03000
 30
 0
 40
0.26300
 50
281.56496
 51
64.11585
  0
LINE
  8
Engraving
 62
   7
 39
0.200
  6
CONTINUOUS
 10
25.48400
 20
124.77100
 30
 0
 11
24.86400
 21
124.64700
  0
ARC
  8
Engraving
 62
   7
 39
0.200
  6
CONTINUOUS
 10
25.03600
 20
123.76400
 30
 0
 40
0.90000
 50
101.02264
 51
135.09009
  0
ARC
  8
Engraving
 62
   7
 39
0.200
  6
CONTINUOUS
 10
24.78400
 20
124.01600
 30
 0
 40
0.54300
 50
135.14921
 51
251.96571
  0
ARC
  8
Engraving
 62
   7
 39
0.200
  6
CONTINUOUS
 10
24.98800
 20
124.65100
 30
 0
 40
1.21000
 50
-107.91069
 51
-72.08931
  0
ARC
  8
Engraving
 62
   7
 39
0.200
  6
CONTINUOUS
 10
25.22100
 20
123.91800
 30
 0
 40
0.44100
 50
-71.60618
 51
-18.39382
  0
ARC
  8
Engraving
 62
   7
 39
0.200
  6
CONTINUOUS
 10
26.43300
 20
123.96500
 30
 0
 40
0.81500
 50
-166.81580
 51
-145.23820
  0
LINE
  8
Engraving
 62
   7
 39
0.200
  6
CONTINUOUS
 10
25.76300
 20
123.50000
 30
 0
 11
26.22800
 21
123.50000
  0
ARC
  8
Engraving
 62
   7
 39
0.200
  6
CONTINUOUS
 10
26.26500
 20
123.62500
 30
 0
 40
0.13000
 50
180.44073
 51
-106.48875
  0
LINE
  8
Engraving
 62
   7
 39
0.200
  6
CONTINUOUS
 10
26.13500
 20
123.62400
 30
 0
 11
26.13500
 21
124.95700
  0
ARC
  8
Engraving
 62
   7
 39
0.200
  6
CONTINUOUS
 10
25.55200
 20
124.96900
 30
 0
 40
0.58300
 50
-1.17916
 51
62.07207
  0
ARC
  8
Engraving
 62
   7
 39
0.200
  6
CONTINUOUS
 10
25.23600
 20
124.38900
 30
 0
 40
1.24300
 50
61.72421
 51
118.27579
  0
ARC
  8
Engraving
 62
   7
 39
0.200
  6
CONTINUOUS
 10
24.89700
 20
125.01800
 30
 0
 40
0.52900
 50
118.21270
 51
179.89169
  0
LINE
  8
Engraving
 62
   7
 39
0.200
  6
CONTINUOUS
 10
27.12700
 20
126.38300
 30
 0
 11
27.28200
 21
126.38300
  0
LINE
  8
Engraving
 62
   7
 39
0.200
  6
CONTINUOUS
 10
27.28200
 20
126.38300
 30
 0
 11
27.28200
 21
123.56200
  0
LINE
  8
Engraving
 62
   7
 39
0.200
  6
CONTINUOUS
 10
27.28200
 20
123.56200
 30
 0
 11
27.12700
 21
123.56200
  0
LINE
  8
Engraving
 62
   7
 39
0.200
  6
CONTINUOUS
 10
27.12700
 20
123.56200
 30
 0
 11
27.12700
 21
126.38300
  0
LINE
  8
Engraving
 62
   7
 39
0.200
  6
CONTINUOUS
 10
27.12700
 20
126.38300
 30
 0
 11
27.00300
 21
126.47600
  0
LINE
  8
Engraving
 62
   7
 39
0.200
  6
CONTINUOUS
 10
27.00300
 20
126.47600
 30
 0
 11
27.40600
 21
126.47600
  0
LINE
  8
Engraving
 62
   7
 39
0.200
  6
CONTINUOUS
 10
27.40600
 20
126.47600
 30
 0
 11
27.40600
 21
123.50000
  0
LINE
  8
Engraving
 62
   7
 39
0.200
  6
CONTINUOUS
 10
27.40600
 20
123.50000
 30
 0
 11
27.00300
 21
123.50000
  0
LINE
  8
Engraving
 62
   7
 39
0.200
  6
CONTINUOUS
 10
27.00300
 20
123.50000
 30
 0
 11
27.00300
 21
126.47600
  0
ARC
  8
Engraving
 62
   7
 39
0.200
  6
CONTINUOUS
 10
32.14900
 20
125.53100
 30
 0
 40
0.80900
 50
16.66533
 51
69.81713
  0
ARC
  8
Engraving
 62
   7
 39
0.200
  6
CONTINUOUS
 10
32.06100
 20
125.26200
 30
 0
 40
1.09200
 50
70.35324
 51
126.92237
  0
ARC
  8
Engraving
 62
   7
 39
0.200
  6
CONTINUOUS
 10
31.72600
 20
125.71100
 30
 0
 40
0.53200
 50
127.12847
 51
251.83724
  0
LINE
  8
Engraving
 62
   7
 39
0.200
  6
CONTINUOUS
 10
31.56000
 20
125.20500
 30
 0
 11
32.64500
 21
124.95700
  0
ARC
  8
Engraving
 62
   7
 39
0.200
  6
CONTINUOUS
 10
32.50300
 20
124.32600
 30
 0
 40
0.64700
 50
307.08250
 51
77.31746
  0
ARC
  8
Engraving
 62
   7
 39
0.200
  6
CONTINUOUS
 10
32.04900
 20
124.90600
 30
 0
 40
1.38300
 50
239.29916
 51
-52.40110
  0
ARC
  8
Engraving
 62
   7
 39
0.200
  6
CONTINUOUS
 10
31.73700
 20
124.38200
 30
 0
 40
0.77300
 50
187.95200
 51
-120.64594
  0
LINE
  8
Engraving
 62
   7
 39
0.200
  6
CONTINUOUS
 10
30.97100
 20
124.27500
 30
 0
 11
31.12600
 21
124.27500
  0
ARC
  8
Engraving
 62
   7
 39
0.200
  6
CONTINUOUS
 10
31.79300
 20
124.36800
 30
 0
 40
0.67300
 50
-172.06241
 51
-118.96367
  0
ARC
  8
Engraving
 62
   7
 39
0.200
  6
CONTINUOUS
 10
32.06800
 20
124.86600
 30
 0
 40
1.24200
 50
-118.93811
 51
-55.63168
  0
ARC
  8
Engraving
 62
   7
 39
0.200
  6
CONTINUOUS
 10
32.45900
 20
124.29600
 30
 0
 40
0.55100
 50
-55.73266
 51
76.99759
  0
LINE
  8
Engraving
 62
   7
 39
0.200
  6
CONTINUOUS
 10
32.58300
 20
124.83300
 30
 0
 11
31.52900
 21
125.08100
  0
ARC
  8
Engraving
 62
   7
 39
0.200
  6
CONTINUOUS
 10
31.68500
 20
125.70800
 30
 0
 40
0.64600
 50
115.69219
 51
-103.97172
  0
ARC
  8
Engraving
 62
   7
 39
0.200
  6
CONTINUOUS
 10
32.06600
 20
124.95200
 30
 0
 40
1.49200
 50
433.49564
 51
116.29034
  0
ARC
  8
Engraving
 62
   7
 39
0.200
  6
CONTINUOUS
 10
32.24700
 20
125.56200
 30
 0
 40
0.85600
 50
373.58165
 51
73.51227
  0
LINE
  8
Engraving
 62
   7
 39
0.200
  6
CONTINUOUS
 10
33.07900
 20
125.76300
 30
 0
 11
33.23400
 21
125.67000
  0
ARC
  8
Engraving
 62
   7
 39
0.200
  6
CONTINUOUS
 10
32.45900
 20
125.67300
 30
 0
 40
0.77500
 50
-0.22179
 51
66.41297
  0
ARC
  8
Engraving
 62
   7
 39
0.200
  6
CONTINUOUS
 10
32.05600
 20
124.78200
 30
 0
 40
1.75300
 50
65.99436
 51
114.00564
  0
ARC
  8
Engraving
 62
   7
 39
0.200
  6
CONTINUOUS
 10
31.64800
 20
125.69100
 30
 0
 40
0.75600
 50
113.78556
 51
256.14757
  0
LINE
  8
Engraving
 62
   7
 39
0.200
  6
CONTINUOUS
 10
31.46700
 20
124.95700
 30
 0
 11
32.52100
 21
124.70900
  0
ARC
  8
Engraving
 62
   7
 39
0.200
  6
CONTINUOUS
 10
32.41800
 20
124.28500
 30
 0
 40
0.43600
 50
306.31748
 51
76.34594
  0
ARC
  8
Engraving
 62
   7
 39
0.200
  6
CONTINUOUS
 10
32.10300
 20
124.75400
 30
 0
 40
1.00000
 50
235.00798
 51
-55.05490
  0
ARC
  8
Engraving
 62
   7
 39
0.200
  6
CONTINUOUS
 10
31.85600
 20
124.40800
 30
 0
 40
0.57600
 50
183.97938
 51
-124.60076
  0
LINE
  8
Engraving
 62
   7
 39
0.200
  6
CONTINUOUS
 10
31.28100
 20
124.36800
 30
 0
 11
30.81600
 21
124.36800
  0
ARC
  8
Engraving
 62
   7
 39
0.200
  6
CONTINUOUS
 10
31.67300
 20
124.37000
 30
 0
 40
0.85700
 50
-179.86629
 51
-114.91993
  0
ARC
  8
Engraving
 62
   7
 39
0.200
  6
CONTINUOUS
 10
32.05600
 20
125.19800
 30
 0
 40
1.76900
 50
-114.87015
 51
-65.12985
  0
ARC
  8
Engraving
 62
   7
 39
0.200
  6
CONTINUOUS
 10
32.43900
 20
124.37000
 30
 0
 40
0.85700
 50
-65.08007
 51
-0.13371
  0
ARC
  8
Engraving
 62
   7
 39
0.200
  6
CONTINUOUS
 10
32.56400
 20
124.37000
 30
 0
 40
0.73200
 50
-0.15655
 51
76.24852
  0
LINE
  8
Engraving
 62
   7
 39
0.200
  6
CONTINUOUS
 10
32.73800
 20
125.08100
 30
 0
 11
31.62200
 21
125.36000
  0
ARC
  8
Engraving
 62
   7
 39
0.200
  6
CONTINUOUS
 10
31.71100
 20
125.72100
 30
 0
 40
0.37200
 50
187.89019
 51
-103.84937
  0
ARC
  8
Engraving
 62
   7
 39
0.200
  6
CONTINUOUS
 10
31.76100
 20
125.73200
 30
 0
 40
0.42300
 50
118.38335
 51
-171.56310
  0
ARC
  8
Engraving
 62
   7
 39
0.200
  6
CONTINUOUS
 10
32.04100
 20
125.27100
 30
 0
 40
0.96200
 50
420.04814
 51
120.00347
  0
ARC
  8
Engraving
 62
   7
 39
0.200
  6
CONTINUOUS
 10
32.28500
 20
125.64500
 30
 0
 40
0.51600
 50
362.77917
 51
62.78953
  0
LINE
  8
Engraving
 62
   7
 39
0.200
  6
CONTINUOUS
 10
32.80000
 20
125.67000
 30
 0
 11
33.23400
 21
125.67000
  0
LINE
  8
Engraving
 62
   7
 39
0.200
  6
CONTINUOUS
 10
34.53600
 20
124.64700
 30
 0
 11
35.86900
 21
124.64700
  0
ARC
  8
Engraving
 62
   7
 39
0.200
  6
CONTINUOUS
 10
35.00400
 20
124.63100
 30
 0
 40
0.86500
 50
1.05969
 51
47.34304
  0
ARC
  8
Engraving
 62
   7
 39
0.200
  6
CONTINUOUS
 10
35.09200
 20
124.75200
 30
 0
 40
0.71600
 50
45.96144
 51
130.29746
  0
ARC
  8
Engraving
 62
   7
 39
0.200
  6
CONTINUOUS
 10
35.40600
 20
124.55400
 30
 0
 40
1.07600
 50
136.24291
 51
223.75709
  0
ARC
  8
Engraving
 62
   7
 39
0.200
  6
CONTINUOUS
 10
35.09700
 20
124.31900
 30
 0
 40
0.69100
 50
-132.59698
 51
-51.40495
  0
ARC
  8
Engraving
 62
   7
 39
0.200
  6
CONTINUOUS
 10
34.78700
 20
124.67500
 30
 0
 40
1.16300
 50
-50.40895
 51
-39.59105
  0
LINE
  8
Engraving
 62
   7
 39
0.200
  6
CONTINUOUS
 10
35.68300
 20
123.93400
 30
 0
 11
35.83800
 21
123.93400
  0
ARC
  8
Engraving
 62
   7
 39
0.200
  6
CONTINUOUS
 10
35.09800
 20
124.43200
 30
 0
 40
0.89200
 50
192.16653
 51
-33.93949
  0
ARC
  8
Engraving
 62
   7
 39
0.200
  6
CONTINUOUS
 10
35.52000
 20
124.55400
 30
 0
 40
1.33100
 50
166.52771
 51
-166.52771
  0
ARC
  8
Engraving
 62
   7
 39
0.200
  6
CONTINUOUS
 10
35.06300
 20
124.69600
 30
 0
 40
0.85400
 50
414.48572
 51
168.65058
  0
ARC
  8
Engraving
 62
   7
 39
0.200
  6
CONTINUOUS
 10
35.04100
 20
124.55600
 30
 0
 40
0.98300
 50
359.88343
 51
58.18622
  0
LINE
  8
Engraving
 62
   7
 39
0.200
  6
CONTINUOUS
 10
36.02400
 20
124.55400
 30
 0
 11
34.47400
 21
124.55400
  0
LINE
  8
Engraving
 62
   7
 39
0.200
  6
CONTINUOUS
 10
34.47400
 20
124.55400
 30
 0
 11
34.47400
 21
124.74000
  0
LINE
  8
Engraving
 62
   7
 39
0.200
  6
CONTINUOUS
 10
34.47400
 20
124.74000
 30
 0
 11
35.71400
 21
124.74000
  0
ARC
  8
Engraving
 62
   7
 39
0.200
  6
CONTINUOUS
 10
34.57900
 20
124.53500
 30
 0
 40
1.15300
 50
10.23820
 51
31.81580
  0
ARC
  8
Engraving
 62
   7
 39
0.200
  6
CONTINUOUS
 10
35.09400
 20
124.85700
 30
 0
 40
0.54600
 50
31.59375
 51
148.40625
  0
ARC
  8
Engraving
 62
   7
 39
0.200
  6
CONTINUOUS
 10
35.58400
 20
124.55400
 30
 0
 40
1.12200
 50
148.33563
 51
211.66437
  0
ARC
  8
Engraving
 62
   7
 39
0.200
  6
CONTINUOUS
 10
35.09300
 20
124.25300
 30
 0
 40
0.54600
 50
-148.17255
 51
-24.45264
  0
LINE
  8
Engraving
 62
   7
 39
0.200
  6
CONTINUOUS
 10
35.59000
 20
124.02700
 30
 0
 11
36.02400
 21
124.02700
  0
ARC
  8
Engraving
 62
   7
 39
0.200
  6
CONTINUOUS
 10
34.99000
 20
124.58800
 30
 0
 40
1.17600
 50
309.93030
 51
-28.48219
  0
ARC
  8
Engraving
 62
   7
 39
0.200
  6
CONTINUOUS
 10
35.11000
 20
124.44800
 30
 0
 40
0.99200
 50
230.15008
 51
-50.19443
  0
ARC
  8
Engraving
 62
   7
 39
0.200
  6
CONTINUOUS
 10
35.20700
 20
124.55400
 30
 0
 40
1.13600
 50
130.18009
 51
-130.18009
  0
ARC
  8
Engraving
 62
   7
 39
0.200
  6
CONTINUOUS
 10
35.09400
 20
124.67900
 30
 0
 40
0.96800
 50
410.15652
 51
129.84348
  0
ARC
  8
Engraving
 62
   7
 39
0.200
  6
CONTINUOUS
 10
34.92800
 20
124.48900
 30
 0
 40
1.22000
 50
360.14089
 51
49.88775
  0
LINE
  8
Engraving
 62
   7
 39
0.200
  6
CONTINUOUS
 10
36.14800
 20
124.49200
 30
 0
 11
34.47400
 21
124.49200
  0
LINE
  8
Engraving
 62
   7
 39
0.200
  6
CONTINUOUS
 10
38.72100
 20
125.51500
 30
 0
 11
38.72100
 21
122.72500
  0
LINE
  8
Engraving
 62
   7
 39
0.200
  6
CONTINUOUS
 10
38.72100
 20
122.72500
 30
 0
 11
38.87600
 21
122.72500
  0
LINE
  8
Engraving
 62
   7
 39
0.200
  6
CONTINUOUS
 10
38.87600
 20
122.72500
 30
 0
 11
38.87600
 21
125.51500
  0
LINE
  8
Engraving
 62
   7
 39
0.200
  6
CONTINUOUS
 10
38.87600
 20
125.51500
 30
 0
 11
38.72100
 21
125.51500
  0
LINE
  8
Engraving
 62
   7
 39
0.200
  6
CONTINUOUS
 10
38.72100
 20
125.51500
 30
 0
 11
38.72100
 21
124.64700
  0
ARC
  8
Engraving
 62
   7
 39
0.200
  6
CONTINUOUS
 10
37.72100
 20
124.51600
 30
 0
 40
1.00900
 50
7.46325
 51
53.70952
  0
ARC
  8
Engraving
 62
   7
 39
0.200
  6
CONTINUOUS
 10
37.91800
 20
124.77900
 30
 0
 40
0.68000
 50
53.97263
 51
108.88819
  0
ARC
  8
Engraving
 62
   7
 39
0.200
  6
CONTINUOUS
 10
37.99600
 20
124.72400
 30
 0
 40
0.75900
 50
113.11929
 51
164.57282
  0
ARC
  8
Engraving
 62
   7
 39
0.200
  6
CONTINUOUS
 10
38.62800
 20
124.55400
 30
 0
 40
1.41400
 50
164.74488
 51
195.25512
  0
ARC
  8
Engraving
 62
   7
 39
0.200
  6
CONTINUOUS
 10
37.99600
 20
124.38400
 30
 0
 40
0.75900
 50
-164.57282
 51
-113.11929
  0
ARC
  8
Engraving
 62
   7
 39
0.200
  6
CONTINUOUS
 10
37.94400
 20
124.19500
 30
 0
 40
0.56500
 50
-115.79451
 51
-20.61537
  0
ARC
  8
Engraving
 62
   7
 39
0.200
  6
CONTINUOUS
 10
37.97700
 20
124.24100
 30
 0
 40
0.55300
 50
206.28714
 51
-26.28714
  0
ARC
  8
Engraving
 62
   7
 39
0.200
  6
CONTINUOUS
 10
38.64000
 20
124.55400
 30
 0
 40
1.28600
 50
154.29153
 51
-154.29153
  0
ARC
  8
Engraving
 62
   7
 39
0.200
  6
CONTINUOUS
 10
37.97700
 20
124.86700
 30
 0
 40
0.55300
 50
386.28714
 51
153.71286
  0
ARC
  8
Engraving
 62
   7
 39
0.200
  6
CONTINUOUS
 10
37.31400
 20
124.55400
 30
 0
 40
1.28600
 50
334.29153
 51
25.70847
  0
ARC
  8
Engraving
 62
   7
 39
0.200
  6
CONTINUOUS
 10
38.03200
 20
124.05000
 30
 0
 40
0.44400
 50
305.01314
 51
-6.98106
  0
ARC
  8
Engraving
 62
   7
 39
0.200
  6
CONTINUOUS
 10
37.88800
 20
124.31400
 30
 0
 40
0.74400
 50
202.70284
 51
-57.57015
  0
ARC
  8
Engraving
 62
   7
 39
0.200
  6
CONTINUOUS
 10
38.48800
 20
124.55400
 30
 0
 40
1.39000
 50
157.71629
 51
-157.71629
  0
ARC
  8
Engraving
 62
   7
 39
0.200
  6
CONTINUOUS
 10
37.86900
 20
124.80100
 30
 0
 40
0.72300
 50
414.68340
 51
157.22782
  0
ARC
  8
Engraving
 62
   7
 39
0.200
  6
CONTINUOUS
 10
37.90600
 20
124.70000
 30
 0
 40
0.78900
 50
388.87124
 51
61.12876
  0
LINE
  8
Engraving
 62
   7
 39
0.200
  6
CONTINUOUS
 10
38.59700
 20
125.08100
 30
 0
 11
38.59700
 21
125.57700
  0
LINE
  8
Engraving
 62
   7
 39
0.200
  6
CONTINUOUS
 10
38.59700
 20
125.57700
 30
 0
 11
39.00000
 21
125.57700
  0
LINE
  8
Engraving
 62
   7
 39
0.200
  6
CONTINUOUS
 10
39.00000
 20
125.57700
 30
 0
 11
39.00000
 21
122.63200
  0
LINE
  8
Engraving
 62
   7
 39
0.200
  6
CONTINUOUS
 10
39.00000
 20
122.63200
 30
 0
 11
38.59700
 21
122.63200
  0
LINE
  8
Engraving
 62
   7
 39
0.200
  6
CONTINUOUS
 10
38.59700
 20
122.63200
 30
 0
 11
38.59700
 21
124.15100
  0
LINE
  8
Engraving
 62
   7
 39
0.200
  6
CONTINUOUS
 10
38.59700
 20
124.15100
 30
 0
 11
38.59700
 21
124.02700
  0
ARC
  8
Engraving
 62
   7
 39
0.200
  6
CONTINUOUS
 10
37.82200
 20
124.28900
 30
 0
 40
0.81800
 50
198.67857
 51
-18.67857
  0
ARC
  8
Engraving
 62
   7
 39
0.200
  6
CONTINUOUS
 10
38.59700
 20
124.55400
 30
 0
 40
1.63700
 50
161.22197
 51
-161.22197
  0
ARC
  8
Engraving
 62
   7
 39
0.200
  6
CONTINUOUS
 10
37.82200
 20
124.81900
 30
 0
 40
0.81800
 50
378.67857
 51
161.32143
  0
LINE
  8
Engraving
 62
   7
 39
0.200
  6
CONTINUOUS
 10
28.54500
 20
5.64900
 30
 0
 11
28.54500
 21
2.28700
  0
LINE
  8
Engraving
 62
   7
 39
0.200
  6
CONTINUOUS
 10
28.54500
 20
2.28700
 30
 0
 11
29.57000
 21
2.28700
  0
ARC
  8
Engraving
 62
   7
 39
0.200
  6
CONTINUOUS
 10
29.41100
 20
3.75400
 30
 0
 40
1.47600
 50
-83.81417
 51
-39.25390
  0
ARC
  8
Engraving
 62
   7
 39
0.200
  6
CONTINUOUS
 10
28.88300
 20
3.98900
 30
 0
 40
2.03900
 50
-34.97591
 51
34.95288
  0
ARC
  8
Engraving
 62
   7
 39
0.200
  6
CONTINUOUS
 10
29.50700
 20
4.30000
 30
 0
 40
1.35300
 50
39.30132
 51
85.59155
  0
LINE
  8
Engraving
 62
   7
 39
0.200
  6
CONTINUOUS
 10
29.61100
 20
5.64900
 30
 0
 11
28.54500
 21
5.64900
  0
LINE
  8
Engraving
 62
   7
 39
0.200
  6
CONTINUOUS
 10
28.54500
 20
5.64900
 30
 0
 11
28.34000
 21
5.77200
  0
LINE
  8
Engraving
 62
   7
 39
0.200
  6
CONTINUOUS
 10
28.34000
 20
5.77200
 30
 0
 11
29.57000
 21
5.77200
  0
ARC
  8
Engraving
 62
   7
 39
0.200
  6
CONTINUOUS
 10
29.52800
 20
4.35600
 30
 0
 40
1.41700
 50
398.55244
 51
88.30105
  0
ARC
  8
Engraving
 62
   7
 39
0.200
  6
CONTINUOUS
 10
29.13600
 20
3.98900
 30
 0
 40
1.95300
 50
320.17189
 51
39.80557
  0
ARC
  8
Engraving
 62
   7
 39
0.200
  6
CONTINUOUS
 10
29.48400
 20
3.60100
 30
 0
 40
1.43900
 50
273.42489
 51
-36.83805
  0
LINE
  8
Engraving
 62
   7
 39
0.200
  6
CONTINUOUS
 10
29.57000
 20
2.16400
 30
 0
 11
28.34000
 21
2.16400
  0
LINE
  8
Engraving
 62
   7
 39
0.200
  6
CONTINUOUS
 10
28.34000
 20
2.16400
 30
 0
 11
28.34000
 21
5.77200
  0
LINE
  8
Engraving
 62
   7
 39
0.200
  6
CONTINUOUS
 10
28.34000
 20
5.77200
 30
 0
 11
28.13500
 21
5.93600
  0
LINE
  8
Engraving
 62
   7
 39
0.200
  6
CONTINUOUS
 10
28.13500
 20
5.93600
 30
 0
 11
29.57000
 21
5.93600
  0
ARC
  8
Engraving
 62
   7
 39
0.200
  6
CONTINUOUS
 10
29.56600
 20
4.32200
 30
 0
 40
1.61400
 50
400.12378
 51
89.85800
  0
ARC
  8
Engraving
 62
   7
 39
0.200
  6
CONTINUOUS
 10
29.12800
 20
3.96800
 30
 0
 40
2.17700
 50
320.18095
 51
39.81905
  0
ARC
  8
Engraving
 62
   7
 39
0.200
  6
CONTINUOUS
 10
29.56600
 20
3.61400
 30
 0
 40
1.61400
 50
270.14200
 51
-40.12378
  0
LINE
  8
Engraving
 62
   7
 39
0.200
  6
CONTINUOUS
 10
29.57000
 20
2.00000
 30
 0
 11
28.13500
 21
2.00000
  0
LINE
  8
Engraving
 62
   7
 39
0.200
  6
CONTINUOUS
 10
28.13500
 20
2.00000
 30
 0
 11
28.13500
 21
5.93600
  0
LINE
  8
Engraving
 62
   7
 39
0.200
  6
CONTINUOUS
 10
28.13500
 20
5.93600
 30
 0
 11
28.75000
 21
5.52600
  0
LINE
  8
Engraving
 62
   7
 39
0.200
  6
CONTINUOUS
 10
28.75000
 20
5.52600
 30
 0
 11
29.57000
 21
5.52600
  0
ARC
  8
Engraving
 62
   7
 39
0.200
  6
CONTINUOUS
 10
29.57100
 20
4.44600
 30
 0
 40
1.08000
 50
378.46851
 51
90.05305
  0
ARC
  8
Engraving
 62
   7
 39
0.200
  6
CONTINUOUS
 10
28.24300
 20
3.98800
 30
 0
 40
2.48400
 50
341.23682
 51
18.78502
  0
ARC
  8
Engraving
 62
   7
 39
0.200
  6
CONTINUOUS
 10
29.54200
 20
3.51100
 30
 0
 40
1.10100
 50
271.45680
 51
-17.00326
  0
LINE
  8
Engraving
 62
   7
 39
0.200
  6
CONTINUOUS
 10
29.57000
 20
2.41000
 30
 0
 11
28.75000
 21
2.41000
  0
LINE
  8
Engraving
 62
   7
 39
0.200
  6
CONTINUOUS
 10
28.75000
 20
2.41000
 30
 0
 11
28.75000
 21
5.52600
  0
LINE
  8
Engraving
 62
   7
 39
0.200
  6
CONTINUOUS
 10
34.85900
 20
2.20500
 30
 0
 11
32.52200
 21
2.20500
  0
LINE
  8
Engraving
 62
   7
 39
0.200
  6
CONTINUOUS
 10
32.52200
 20
2.20500
 30
 0
 11
32.52200
 21
5.81300
  0
LINE
  8
Engraving
 62
   7
 39
0.200
  6
CONTINUOUS
 10
32.52200
 20
5.81300
 30
 0
 11
32.72700
 21
5.81300
  0
LINE
  8
Engraving
 62
   7
 39
0.200
  6
CONTINUOUS
 10
32.72700
 20
5.81300
 30
 0
 11
32.72700
 21
2.41000
  0
LINE
  8
Engraving
 62
   7
 39
0.200
  6
CONTINUOUS
 10
32.72700
 20
2.41000
 30
 0
 11
34.98200
 21
2.41000
  0
LINE
  8
Engraving
 62
   7
 39
0.200
  6
CONTINUOUS
 10
34.98200
 20
2.41000
 30
 0
 11
34.98200
 21
2.00000
  0
LINE
  8
Engraving
 62
   7
 39
0.200
  6
CONTINUOUS
 10
34.98200
 20
2.00000
 30
 0
 11
32.31700
 21
2.00000
  0
LINE
  8
Engraving
 62
   7
 39
0.200
  6
CONTINUOUS
 10
32.31700
 20
2.00000
 30
 0
 11
32.31700
 21
5.93600
  0
LINE
  8
Engraving
 62
   7
 39
0.200
  6
CONTINUOUS
 10
32.31700
 20
5.93600
 30
 0
 11
32.93200
 21
5.93600
  0
LINE
  8
Engraving
 62
   7
 39
0.200
  6
CONTINUOUS
 10
32.93200
 20
5.93600
 30
 0
 11
32.93200
 21
2.41000
  0
LINE
  8
Engraving
 62
   7
 39
0.200
  6
CONTINUOUS
 10
36.45800
 20
5.64900
 30
 0
 11
36.45800
 21
2.20500
  0
LINE
  8
Engraving
 62
   7
 39
0.200
  6
CONTINUOUS
 10
36.45800
 20
2.20500
 30
 0
 11
36.25300
 21
2.20500
  0
LINE
  8
Engraving
 62
   7
 39
0.200
  6
CONTINUOUS
 10
36.25300
 20
2.20500
 30
 0
 11
36.25300
 21
5.77200
  0
LINE
  8
Engraving
 62
   7
 39
0.200
  6
CONTINUOUS
 10
36.25300
 20
5.77200
 30
 0
 11
37.77000
 21
5.77200
  0
ARC
  8
Engraving
 62
   7
 39
0.200
  6
CONTINUOUS
 10
37.72400
 20
4.70600
 30
 0
 40
1.06700
 50
272.47089
 51
87.52911
  0
LINE
  8
Engraving
 62
   7
 39
0.200
  6
CONTINUOUS
 10
37.77000
 20
3.64000
 30
 0
 11
36.45800
 21
3.64000
  0
LINE
  8
Engraving
 62
   7
 39
0.200
  6
CONTINUOUS
 10
36.45800
 20
3.64000
 30
 0
 11
36.66300
 21
3.88600
  0
LINE
  8
Engraving
 62
   7
 39
0.200
  6
CONTINUOUS
 10
36.66300
 20
3.88600
 30
 0
 11
37.56500
 21
3.88600
  0
ARC
  8
Engraving
 62
   7
 39
0.200
  6
CONTINUOUS
 10
37.56500
 20
4.70600
 30
 0
 40
0.82000
 50
-90.00000
 51
90.00000
  0
LINE
  8
Engraving
 62
   7
 39
0.200
  6
CONTINUOUS
 10
37.56500
 20
5.52600
 30
 0
 11
36.66300
 21
5.52600
  0
LINE
  8
Engraving
 62
   7
 39
0.200
  6
CONTINUOUS
 10
36.66300
 20
5.52600
 30
 0
 11
36.66300
 21
3.88600
  0
LINE
  8
Engraving
 62
   7
 39
0.200
  6
CONTINUOUS
 10
36.66300
 20
3.88600
 30
 0
 11
36.66300
 21
3.76300
  0
LINE
  8
Engraving
 62
   7
 39
0.200
  6
CONTINUOUS
 10
36.66300
 20
3.76300
 30
 0
 11
37.81100
 21
3.76300
  0
ARC
  8
Engraving
 62
   7
 39
0.200
  6
CONTINUOUS
 10
37.64600
 20
4.70100
 30
 0
 40
0.95200
 50
-80.02338
 51
84.99636
  0
LINE
  8
Engraving
 62
   7
 39
0.200
  6
CONTINUOUS
 10
37.72900
 20
5.64900
 30
 0
 11
36.45800
 21
5.64900
  0
LINE
  8
Engraving
 62
   7
 39
0.200
  6
CONTINUOUS
 10
36.45800
 20
5.64900
 30
 0
 11
36.04800
 21
5.93600
  0
LINE
  8
Engraving
 62
   7
 39
0.200
  6
CONTINUOUS
 10
36.04800
 20
5.93600
 30
 0
 11
37.77000
 21
5.93600
  0
ARC
  8
Engraving
 62
   7
 39
0.200
  6
CONTINUOUS
 10
37.77000
 20
4.70600
 30
 0
 40
1.23000
 50
270.00000
 51
90.00000
  0
LINE
  8
Engraving
 62
   7
 39
0.200
  6
CONTINUOUS
 10
37.77000
 20
3.47600
 30
 0
 11
36.66300
 21
3.47600
  0
LINE
  8
Engraving
 62
   7
 39
0.200
  6
CONTINUOUS
 10
36.66300
 20
3.47600
 30
 0
 11
36.66300
 21
2.00000
  0
LINE
  8
Engraving
 62
   7
 39
0.200
  6
CONTINUOUS
 10
36.66300
 20
2.00000
 30
 0
 11
36.04800
 21
2.00000
  0
LINE
  8
Engraving
 62
   7
 39
0.200
  6
CONTINUOUS
 10
36.04800
 20
2.00000
 30
 0
 11
36.04800
 21
5.93600
  0
LINE
  8
Engraving
 62
   7
 39
0.200
  6
CONTINUOUS
 10
30.95100
 20
121.28000
 30
 0
 11
31.33100
 21
120.16000
  0
LINE
  8
Engraving
 62
   7
 39
0.200
  6
CONTINUOUS
 10
31.33100
 20
120.16000
 30
 0
 11
31.41100
 21
120.16000
  0
LINE
  8
Engraving
 62
   7
 39
0.200
  6
CONTINUOUS
 10
31.41100
 20
120.16000
 30
 0
 11
31.79100
 21
121.28000
  0
LINE
  8
Engraving
 62
   7
 39
0.200
  6
CONTINUOUS
 10
31.79100
 20
121.28000
 30
 0
 11
31.89100
 21
121.28000
  0
LINE
  8
Engraving
 62
   7
 39
0.200
  6
CONTINUOUS
 10
31.89100
 20
121.28000
 30
 0
 11
31.47100
 21
120.06000
  0
LINE
  8
Engraving
 62
   7
 39
0.200
  6
CONTINUOUS
 10
31.47100
 20
120.06000
 30
 0
 11
31.27100
 21
120.06000
  0
LINE
  8
Engraving
 62
   7
 39
0.200
  6
CONTINUOUS
 10
31.27100
 20
120.06000
 30
 0
 11
30.85100
 21
121.28000
  0
LINE
  8
Engraving
 62
   7
 39
0.200
  6
CONTINUOUS
 10
30.85100
 20
121.28000
 30
 0
 11
30.95100
 21
121.28000
  0
LINE
  8
Engraving
 62
   7
 39
0.200
  6
CONTINUOUS
 10
30.95100
 20
121.28000
 30
 0
 11
31.01100
 21
121.34000
  0
LINE
  8
Engraving
 62
   7
 39
0.200
  6
CONTINUOUS
 10
31.01100
 20
121.34000
 30
 0
 11
31.37100
 21
120.24000
  0
LINE
  8
Engraving
 62
   7
 39
0.200
  6
CONTINUOUS
 10
31.37100
 20
120.24000
 30
 0
 11
31.73100
 21
121.34000
  0
LINE
  8
Engraving
 62
   7
 39
0.200
  6
CONTINUOUS
 10
31.73100
 20
121.34000
 30
 0
 11
31.99100
 21
121.34000
  0
LINE
  8
Engraving
 62
   7
 39
0.200
  6
CONTINUOUS
 10
31.99100
 20
121.34000
 30
 0
 11
31.53100
 21
120.00000
  0
LINE
  8
Engraving
 62
   7
 39
0.200
  6
CONTINUOUS
 10
31.53100
 20
120.00000
 30
 0
 11
31.21100
 21
120.00000
  0
LINE
  8
Engraving
 62
   7
 39
0.200
  6
CONTINUOUS
 10
31.21100
 20
120.00000
 30
 0
 11
30.75100
 21
121.34000
  0
LINE
  8
Engraving
 62
   7
 39
0.200
  6
CONTINUOUS
 10
30.75100
 20
121.34000
 30
 0
 11
31.01100
 21
121.34000
  0
LINE
  8
Engraving
 62
   7
 39
0.200
  6
CONTINUOUS
 10
32.93100
 20
121.54000
 30
 0
 11
33.05100
 21
121.66000
  0
LINE
  8
Engraving
 62
   7
 39
0.200
  6
CONTINUOUS
 10
33.05100
 20
121.66000
 30
 0
 11
33.05100
 21
121.48000
  0
LINE
  8
Engraving
 62
   7
 39
0.200
  6
CONTINUOUS
 10
33.05100
 20
121.48000
 30
 0
 11
32.57100
 21
121.48000
  0
ARC
  8
Engraving
 62
   7
 39
0.200
  6
CONTINUOUS
 10
32.57300
 20
122.03200
 30
 0
 40
0.55200
 50
-90.20759
 51
-20.33755
  0
LINE
  8
Engraving
 62
   7
 39
0.200
  6
CONTINUOUS
 10
33.09100
 20
121.84000
 30
 0
 11
33.21100
 21
121.84000
  0
LINE
  8
Engraving
 62
   7
 39
0.200
  6
CONTINUOUS
 10
33.21100
 20
121.84000
 30
 0
 11
33.21100
 21
120.06000
  0
LINE
  8
Engraving
 62
   7
 39
0.200
  6
CONTINUOUS
 10
33.21100
 20
120.06000
 30
 0
 11
33.11100
 21
120.06000
  0
LINE
  8
Engraving
 62
   7
 39
0.200
  6
CONTINUOUS
 10
33.11100
 20
120.06000
 30
 0
 11
33.11100
 21
121.76000
  0
LINE
  8
Engraving
 62
   7
 39
0.200
  6
CONTINUOUS
 10
33.11100
 20
121.76000
 30
 0
 11
33.31100
 21
121.92000
  0
LINE
  8
Engraving
 62
   7
 39
0.200
  6
CONTINUOUS
 10
33.31100
 20
121.92000
 30
 0
 11
33.01100
 21
121.92000
  0
ARC
  8
Engraving
 62
   7
 39
0.200
  6
CONTINUOUS
 10
32.51100
 20
122.08700
 30
 0
 40
0.52700
 50
270.00000
 51
-18.46932
  0
LINE
  8
Engraving
 62
   7
 39
0.200
  6
CONTINUOUS
 10
32.51100
 20
121.56000
 30
 0
 11
32.51100
 21
121.42000
  0
LINE
  8
Engraving
 62
   7
 39
0.200
  6
CONTINUOUS
 10
32.51100
 20
121.42000
 30
 0
 11
33.01100
 21
121.42000
  0
LINE
  8
Engraving
 62
   7
 39
0.200
  6
CONTINUOUS
 10
33.01100
 20
121.42000
 30
 0
 11
33.01100
 21
120.00000
  0
LINE
  8
Engraving
 62
   7
 39
0.200
  6
CONTINUOUS
 10
33.01100
 20
120.00000
 30
 0
 11
33.31100
 21
120.00000
  0
LINE
  8
Engraving
 62
   7
 39
0.200
  6
CONTINUOUS
 10
33.31100
 20
120.00000
 30
 0
 11
33.31100
 21
121.92000
  0
LINE
  8
Engraving
 62
   7
 39
0.200
  6
CONTINUOUS
 10
33.99100
 20
120.08000
 30
 0
 11
33.99100
 21
120.18000
  0
LINE
  8
Engraving
 62
   7
 39
0.200
  6
CONTINUOUS
 10
33.99100
 20
120.18000
 30
 0
 11
33.89100
 21
120.18000
  0
LINE
  8
Engraving
 62
   7
 39
0.200
  6
CONTINUOUS
 10
33.89100
 20
120.18000
 30
 0
 11
33.89100
 21
120.08000
  0
LINE
  8
Engraving
 62
   7
 39
0.200
  6
CONTINUOUS
 10
33.89100
 20
120.08000
 30
 0
 11
33.99100
 21
120.08000
  0
LINE
  8
Engraving
 62
   7
 39
0.200
  6
CONTINUOUS
 10
33.99100
 20
120.08000
 30
 0
 11
34.07100
 21
120.00000
  0
LINE
  8
Engraving
 62
   7
 39
0.200
  6
CONTINUOUS
 10
34.07100
 20
120.00000
 30
 0
 11
34.07100
 21
120.26000
  0
LINE
  8
Engraving
 62
   7
 39
0.200
  6
CONTINUOUS
 10
34.07100
 20
120.26000
 30
 0
 11
33.81100
 21
120.26000
  0
LINE
  8
Engraving
 62
   7
 39
0.200
  6
CONTINUOUS
 10
33.81100
 20
120.26000
 30
 0
 11
33.81100
 21
120.00000
  0
LINE
  8
Engraving
 62
   7
 39
0.200
  6
CONTINUOUS
 10
33.81100
 20
120.00000
 30
 0
 11
34.07100
 21
120.00000
  0
ARC
  8
Engraving
 62
   7
 39
0.200
  6
CONTINUOUS
 10
36.02800
 20
120.96000
 30
 0
 40
1.25900
 50
152.55950
 51
207.44050
  0
ARC
  8
Engraving
 62
   7
 39
0.200
  6
CONTINUOUS
 10
35.37100
 20
120.64100
 30
 0
 40
0.52900
 50
-150.42980
 51
-29.57020
  0
ARC
  8
Engraving
 62
   7
 39
0.200
  6
CONTINUOUS
 10
34.71400
 20
120.96000
 30
 0
 40
1.25900
 50
-27.44050
 51
27.44050
  0
ARC
  8
Engraving
 62
   7
 39
0.200
  6
CONTINUOUS
 10
35.37100
 20
121.29300
 30
 0
 40
0.52200
 50
28.23386
 51
151.76614
  0
LINE
  8
Engraving
 62
   7
 39
0.200
  6
CONTINUOUS
 10
34.91100
 20
121.54000
 30
 0
 11
34.95100
 21
121.46000
  0
ARC
  8
Engraving
 62
   7
 39
0.200
  6
CONTINUOUS
 10
36.17200
 20
120.96000
 30
 0
 40
1.31900
 50
157.73088
 51
202.26912
  0
ARC
  8
Engraving
 62
   7
 39
0.200
  6
CONTINUOUS
 10
35.37100
 20
120.63200
 30
 0
 40
0.45400
 50
-157.72973
 51
-22.27027
  0
ARC
  8
Engraving
 62
   7
 39
0.200
  6
CONTINUOUS
 10
34.57000
 20
120.96000
 30
 0
 40
1.31900
 50
-22.26912
 51
22.26912
  0
ARC
  8
Engraving
 62
   7
 39
0.200
  6
CONTINUOUS
 10
35.37100
 20
121.28800
 30
 0
 40
0.45400
 50
22.27027
 51
157.72973
  0
LINE
  8
Engraving
 62
   7
 39
0.200
  6
CONTINUOUS
 10
34.95100
 20
121.46000
 30
 0
 11
34.81100
 21
121.50000
  0
ARC
  8
Engraving
 62
   7
 39
0.200
  6
CONTINUOUS
 10
35.37100
 20
121.25600
 30
 0
 40
0.61100
 50
383.54344
 51
156.45656
  0
ARC
  8
Engraving
 62
   7
 39
0.200
  6
CONTINUOUS
 10
34.89100
 20
120.96000
 30
 0
 40
1.17200
 50
332.56027
 51
27.43973
  0
ARC
  8
Engraving
 62
   7
 39
0.200
  6
CONTINUOUS
 10
35.37100
 20
120.65900
 30
 0
 40
0.60900
 50
203.11210
 51
-23.11210
  0
ARC
  8
Engraving
 62
   7
 39
0.200
  6
CONTINUOUS
 10
35.85100
 20
120.96000
 30
 0
 40
1.17200
 50
152.56027
 51
-152.56027
  0
LINE
  8
Engraving
 62
   7
 39
0.200
  6
CONTINUOUS
 10
34.81100
 20
121.50000
 30
 0
 11
34.83100
 21
121.68000
  0
ARC
  8
Engraving
 62
   7
 39
0.200
  6
CONTINUOUS
 10
35.37100
 20
121.24700
 30
 0
 40
0.69200
 50
398.72445
 51
141.27555
  0
ARC
  8
Engraving
 62
   7
 39
0.200
  6
CONTINUOUS
 10
34.99600
 20
120.96000
 30
 0
 40
1.16400
 50
321.80131
 51
38.19869
  0
ARC
  8
Engraving
 62
   7
 39
0.200
  6
CONTINUOUS
 10
35.37100
 20
120.67300
 30
 0
 40
0.69200
 50
218.72445
 51
-38.72445
  0
ARC
  8
Engraving
 62
   7
 39
0.200
  6
CONTINUOUS
 10
35.74600
 20
120.96000
 30
 0
 40
1.16400
 50
141.80131
 51
-141.80131
  0
LINE
  8
Engraving
 62
   7
 39
0.200
  6
CONTINUOUS
 10
36.83100
 20
120.08000
 30
 0
 11
36.83100
 21
120.18000
  0
LINE
  8
Engraving
 62
   7
 39
0.200
  6
CONTINUOUS
 10
36.83100
 20
120.18000
 30
 0
 11
36.73100
 21
120.18000
  0
LINE
  8
Engraving
 62
   7
 39
0.200
  6
CONTINUOUS
 10
36.73100
 20
120.18000
 30
 0
 11
36.73100
 21
120.08000
  0
LINE
  8
Engraving
 62
   7
 39
0.200
  6
CONTINUOUS
 10
36.73100
 20
120.08000
 30
 0
 11
36.83100
 21
120.08000
  0
LINE
  8
Engraving
 62
   7
 39
0.200
  6
CONTINUOUS
 10
36.83100
 20
120.08000
 30
 0
 11
36.91100
 21
120.00000
  0
LINE
  8
Engraving
 62
   7
 39
0.200
  6
CONTINUOUS
 10
36.91100
 20
120.00000
 30
 0
 11
36.91100
 21
120.26000
  0
LINE
  8
Engraving
 62
   7
 39
0.200
  6
CONTINUOUS
 10
36.91100
 20
120.26000
 30
 0
 11
36.65100
 21
120.26000
  0
LINE
  8
Engraving
 62
   7
 39
0.200
  6
CONTINUOUS
 10
36.65100
 20
120.26000
 30
 0
 11
36.65100
 21
120.00000
  0
LINE
  8
Engraving
 62
   7
 39
0.200
  6
CONTINUOUS
 10
36.65100
 20
120.00000
 30
 0
 11
36.91100
 21
120.00000
  0
ARC
  8
Engraving
 62
   7
 39
0.200
  6
CONTINUOUS
 10
38.86800
 20
120.96000
 30
 0
 40
1.25900
 50
152.55950
 51
207.44050
  0
ARC
  8
Engraving
 62
   7
 39
0.200
  6
CONTINUOUS
 10
38.21100
 20
120.64100
 30
 0
 40
0.52900
 50
-150.42980
 51
-29.57020
  0
ARC
  8
Engraving
 62
   7
 39
0.200
  6
CONTINUOUS
 10
37.55400
 20
120.96000
 30
 0
 40
1.25900
 50
-27.44050
 51
27.44050
  0
ARC
  8
Engraving
 62
   7
 39
0.200
  6
CONTINUOUS
 10
38.21100
 20
121.29300
 30
 0
 40
0.52200
 50
28.23386
 51
151.76614
  0
LINE
  8
Engraving
 62
   7
 39
0.200
  6
CONTINUOUS
 10
37.75100
 20
121.54000
 30
 0
 11
37.79100
 21
121.46000
  0
ARC
  8
Engraving
 62
   7
 39
0.200
  6
CONTINUOUS
 10
39.01200
 20
120.96000
 30
 0
 40
1.31900
 50
157.73088
 51
202.26912
  0
ARC
  8
Engraving
 62
   7
 39
0.200
  6
CONTINUOUS
 10
38.21100
 20
120.63200
 30
 0
 40
0.45400
 50
-157.72973
 51
-22.27027
  0
ARC
  8
Engraving
 62
   7
 39
0.200
  6
CONTINUOUS
 10
37.41000
 20
120.96000
 30
 0
 40
1.31900
 50
-22.26912
 51
22.26912
  0
ARC
  8
Engraving
 62
   7
 39
0.200
  6
CONTINUOUS
 10
38.21100
 20
121.28800
 30
 0
 40
0.45400
 50
22.27027
 51
157.72973
  0
LINE
  8
Engraving
 62
   7
 39
0.200
  6
CONTINUOUS
 10
37.79100
 20
121.46000
 30
 0
 11
37.65100
 21
121.50000
  0
ARC
  8
Engraving
 62
   7
 39
0.200
  6
CONTINUOUS
 10
38.21100
 20
121.25600
 30
 0
 40
0.61100
 50
383.54344
 51
156.45656
  0
ARC
  8
Engraving
 62
   7
 39
0.200
  6
CONTINUOUS
 10
37.73100
 20
120.96000
 30
 0
 40
1.17200
 50
332.56027
 51
27.43973
  0
ARC
  8
Engraving
 62
   7
 39
0.200
  6
CONTINUOUS
 10
38.21100
 20
120.65900
 30
 0
 40
0.60900
 50
203.11210
 51
-23.11210
  0
ARC
  8
Engraving
 62
   7
 39
0.200
  6
CONTINUOUS
 10
38.69100
 20
120.96000
 30
 0
 40
1.17200
 50
152.56027
 51
-152.56027
  0
LINE
  8
Engraving
 62
   7
 39
0.200
  6
CONTINUOUS
 10
37.65100
 20
121.50000
 30
 0
 11
37.67100
 21
121.68000
  0
ARC
  8
Engraving
 62
   7
 39
0.200
  6
CONTINUOUS
 10
38.21100
 20
121.24700
 30
 0
 40
0.69200
 50
398.72445
 51
141.27555
  0
ARC
  8
Engraving
 62
   7
 39
0.200
  6
CONTINUOUS
 10
37.83600
 20
120.96000
 30
 0
 40
1.16400
 50
321.80131
 51
38.19869
  0
ARC
  8
Engraving
 62
   7
 39
0.200
  6
CONTINUOUS
 10
38.21100
 20
120.67300
 30
 0
 40
0.69200
 50
218.72445
 51
-38.72445
  0
ARC
  8
Engraving
 62
   7
 39
0.200
  6
CONTINUOUS
 10
38.58600
 20
120.96000
 30
 0
 40
1.16400
 50
141.80131
 51
-141.80131
  0
CIRCLE
  8
Contour
 62
   7
 39
0.100
  6
CONTINUOUS
 10
10.00000
 20
21.00000
 30
 0
 40
4.00000
  0
CIRCLE
  8
Contour
 62
   7
 39
0.100
  6
CONTINUOUS
 10
10.00000
 20
33.00000
 30
 0
 40
4.00000
  0
CIRCLE
  8
Contour
 62
   7
 39
0.100
  6
CONTINUOUS
 10
10.00000
 20
45.00000
 30
 0
 40
4.00000
  0
CIRCLE
  8
Contour
 62
   7
 39
0.100
  6
CONTINUOUS
 10
10.00000
 20
57.00000
 30
 0
 40
4.00000
  0
CIRCLE
  8
Contour
 62
   7
 39
0.100
  6
CONTINUOUS
 10
10.00000
 20
69.00000
 30
 0
 40
4.00000
  0
CIRCLE
  8
Contour
 62
   7
 39
0.100
  6
CONTINUOUS
 10
10.00000
 20
81.00000
 30
 0
 40
4.00000
  0
CIRCLE
  8
Contour
 62
   7
 39
0.100
  6
CONTINUOUS
 10
30.00000
 20
21.00000
 30
 0
 40
4.00000
  0
CIRCLE
  8
Contour
 62
   7
 39
0.100
  6
CONTINUOUS
 10
30.00000
 20
33.00000
 30
 0
 40
4.00000
  0
CIRCLE
  8
Contour
 62
   7
 39
0.100
  6
CONTINUOUS
 10
30.00000
 20
45.00000
 30
 0
 40
4.00000
  0
CIRCLE
  8
Contour
 62
   7
 39
0.100
  6
CONTINUOUS
 10
30.00000
 20
57.00000
 30
 0
 40
4.00000
  0
CIRCLE
  8
Contour
 62
   7
 39
0.100
  6
CONTINUOUS
 10
30.50000
 20
93.00000
 30
 0
 40
3.50000
  0
CIRCLE
  8
Contour
 62
   7
 39
0.100
  6
CONTINUOUS
 10
30.50000
 20
107.00000
 30
 0
 40
3.50000
  0
ARC
  8
Contour
 62
   7
 39
0.100
  6
CONTINUOUS
 10
5.61200
 20
3.65000
 30
 0
 40
1.00000
 50
450.00000
 51
160.55043
  0
LINE
  8
Contour
 62
   7
 39
0.100
  6
CONTINUOUS
 10
5.61200
 20
4.65000
 30
 0
 11
9.28800
 21
4.65000
  0
ARC
  8
Contour
 62
   7
 39
0.100
  6
CONTINUOUS
 10
9.28800
 20
3.65000
 30
 0
 40
1.00000
 50
379.44957
 51
90.00000
  0
ARC
  8
Contour
 62
   7
 39
0.100
  6
CONTINUOUS
 10
7.45000
 20
3.00000
 30
 0
 40
2.95000
 50
340.53303
 51
19.46697
  0
ARC
  8
Contour
 62
   7
 39
0.100
  6
CONTINUOUS
 10
9.28800
 20
2.35000
 30
 0
 40
1.00000
 50
270.00000
 51
-19.44957
  0
LINE
  8
Contour
 62
   7
 39
0.100
  6
CONTINUOUS
 10
9.28800
 20
1.35000
 30
 0
 11
5.61200
 21
1.35000
  0
ARC
  8
Contour
 62
   7
 39
0.100
  6
CONTINUOUS
 10
5.61200
 20
2.35000
 30
 0
 40
1.00000
 50
199.44957
 51
-90.00000
  0
ARC
  8
Contour
 62
   7
 39
0.100
  6
CONTINUOUS
 10
7.45000
 20
3.00000
 30
 0
 40
2.95000
 50
160.53303
 51
-160.53303
  0
ARC
  8
Contour
 62
   7
 39
0.100
  6
CONTINUOUS
 10
5.61200
 20
126.05000
 30
 0
 40
1.00000
 50
450.00000
 51
160.55043
  0
LINE
  8
Contour
 62
   7
 39
0.100
  6
CONTINUOUS
 10
5.61200
 20
127.05000
 30
 0
 11
9.28800
 21
127.05000
  0
ARC
  8
Contour
 62
   7
 39
0.100
  6
CONTINUOUS
 10
9.28800
 20
126.05000
 30
 0
 40
1.00000
 50
379.44957
 51
90.00000
  0
ARC
  8
Contour
 62
   7
 39
0.100
  6
CONTINUOUS
 10
7.45000
 20
125.40000
 30
 0
 40
2.95000
 50
340.53303
 51
19.46697
  0
ARC
  8
Contour
 62
   7
 39
0.100
  6
CONTINUOUS
 10
9.28800
 20
124.75000
 30
 0
 40
1.00000
 50
270.00000
 51
-19.44957
  0
LINE
  8
Contour
 62
   7
 39
0.100
  6
CONTINUOUS
 10
9.28800
 20
123.75000
 30
 0
 11
5.61200
 21
123.75000
  0
ARC
  8
Contour
 62
   7
 39
0.100
  6
CONTINUOUS
 10
5.61200
 20
124.75000
 30
 0
 40
1.00000
 50
199.44957
 51
-90.00000
  0
ARC
  8
Contour
 62
   7
 39
0.100
  6
CONTINUOUS
 10
7.45000
 20
125.40000
 30
 0
 40
2.95000
 50
160.53303
 51
-160.53303
  0
CIRCLE
  8
Contour
 62
   7
 39
0.100
  6
CONTINUOUS
 10
30.00000
 20
69.00000
 30
 0
 40
4.00000
  0
CIRCLE
  8
Contour
 62
   7
 39
0.100
  6
CONTINUOUS
 10
30.00000
 20
81.00000
 30
 0
 40
4.00000
  0
CIRCLE
  8
Contour
 62
   7
 39
0.100
  6
CONTINUOUS
 10
9.50000
 20
93.00000
 30
 0
 40
3.50000
  0
CIRCLE
  8
Contour
 62
   7
 39
0.100
  6
CONTINUOUS
 10
9.50000
 20
107.00000
 30
 0
 40
3.50000
  0
CIRCLE
  8
Contour
 62
   7
 39
0.100
  6
CONTINUOUS
 10
36.50000
 20
113.00000
 30
 0
 40
1.50000
  0
CIRCLE
  8
Contour
 62
   7
 39
0.100
  6
CONTINUOUS
 10
36.50000
 20
99.00000
 30
 0
 40
1.50000
  0
LINE
  8
Contour
 62
   7
 39
0.100
  6
CONTINUOUS
 10
-1.00000
 20
0.00000
 30
 0
 11
1.00000
 21
0.00000
  0
LINE
  8
Contour
 62
   7
 39
0.100
  6
CONTINUOUS
 10
0.00000
 20
-1.00000
 30
 0
 11
0.00000
 21
1.00000
  0
LINE
  8
Contour
 62
   7
 39
0.100
  6
CONTINUOUS
 10
9.00000
 20
21.00000
 30
 0
 11
11.00000
 21
21.00000
  0
LINE
  8
Contour
 62
   7
 39
0.100
  6
CONTINUOUS
 10
10.00000
 20
20.00000
 30
 0
 11
10.00000
 21
22.00000
  0
LINE
  8
Contour
 62
   7
 39
0.100
  6
CONTINUOUS
 10
9.00000
 20
33.00000
 30
 0
 11
11.00000
 21
33.00000
  0
LINE
  8
Contour
 62
   7
 39
0.100
  6
CONTINUOUS
 10
10.00000
 20
32.00000
 30
 0
 11
10.00000
 21
34.00000
  0
LINE
  8
Contour
 62
   7
 39
0.100
  6
CONTINUOUS
 10
9.00000
 20
45.00000
 30
 0
 11
11.00000
 21
45.00000
  0
LINE
  8
Contour
 62
   7
 39
0.100
  6
CONTINUOUS
 10
10.00000
 20
44.00000
 30
 0
 11
10.00000
 21
46.00000
  0
LINE
  8
Contour
 62
   7
 39
0.100
  6
CONTINUOUS
 10
9.00000
 20
57.00000
 30
 0
 11
11.00000
 21
57.00000
  0
LINE
  8
Contour
 62
   7
 39
0.100
  6
CONTINUOUS
 10
10.00000
 20
56.00000
 30
 0
 11
10.00000
 21
58.00000
  0
LINE
  8
Contour
 62
   7
 39
0.100
  6
CONTINUOUS
 10
9.00000
 20
69.00000
 30
 0
 11
11.00000
 21
69.00000
  0
LINE
  8
Contour
 62
   7
 39
0.100
  6
CONTINUOUS
 10
10.00000
 20
68.00000
 30
 0
 11
10.00000
 21
70.00000
  0
LINE
  8
Contour
 62
   7
 39
0.100
  6
CONTINUOUS
 10
9.00000
 20
81.00000
 30
 0
 11
11.00000
 21
81.00000
  0
LINE
  8
Contour
 62
   7
 39
0.100
  6
CONTINUOUS
 10
10.00000
 20
80.00000
 30
 0
 11
10.00000
 21
82.00000
  0
LINE
  8
Contour
 62
   7
 39
0.100
  6
CONTINUOUS
 10
29.00000
 20
21.00000
 30
 0
 11
31.00000
 21
21.00000
  0
LINE
  8
Contour
 62
   7
 39
0.100
  6
CONTINUOUS
 10
30.00000
 20
20.00000
 30
 0
 11
30.00000
 21
22.00000
  0
LINE
  8
Contour
 62
   7
 39
0.100
  6
CONTINUOUS
 10
29.00000
 20
33.00000
 30
 0
 11
31.00000
 21
33.00000
  0
LINE
  8
Contour
 62
   7
 39
0.100
  6
CONTINUOUS
 10
30.00000
 20
32.00000
 30
 0
 11
30.00000
 21
34.00000
  0
LINE
  8
Contour
 62
   7
 39
0.100
  6
CONTINUOUS
 10
29.00000
 20
45.00000
 30
 0
 11
31.00000
 21
45.00000
  0
LINE
  8
Contour
 62
   7
 39
0.100
  6
CONTINUOUS
 10
30.00000
 20
44.00000
 30
 0
 11
30.00000
 21
46.00000
  0
LINE
  8
Contour
 62
   7
 39
0.100
  6
CONTINUOUS
 10
29.00000
 20
57.00000
 30
 0
 11
31.00000
 21
57.00000
  0
LINE
  8
Contour
 62
   7
 39
0.100
  6
CONTINUOUS
 10
30.00000
 20
56.00000
 30
 0
 11
30.00000
 21
58.00000
  0
LINE
  8
Contour
 62
   7
 39
0.100
  6
CONTINUOUS
 10
29.50000
 20
93.00000
 30
 0
 11
31.50000
 21
93.00000
  0
LINE
  8
Contour
 62
   7
 39
0.100
  6
CONTINUOUS
 10
30.50000
 20
92.00000
 30
 0
 11
30.50000
 21
94.00000
  0
LINE
  8
Contour
 62
   7
 39
0.100
  6
CONTINUOUS
 10
29.50000
 20
107.00000
 30
 0
 11
31.50000
 21
107.00000
  0
LINE
  8
Contour
 62
   7
 39
0.100
  6
CONTINUOUS
 10
30.50000
 20
106.00000
 30
 0
 11
30.50000
 21
108.00000
  0
LINE
  8
Contour
 62
   7
 39
0.100
  6
CONTINUOUS
 10
6.45000
 20
3.00000
 30
 0
 11
8.45000
 21
3.00000
  0
LINE
  8
Contour
 62
   7
 39
0.100
  6
CONTINUOUS
 10
7.45000
 20
2.00000
 30
 0
 11
7.45000
 21
4.00000
  0
LINE
  8
Contour
 62
   7
 39
0.100
  6
CONTINUOUS
 10
6.45000
 20
125.40000
 30
 0
 11
8.45000
 21
125.40000
  0
LINE
  8
Contour
 62
   7
 39
0.100
  6
CONTINUOUS
 10
7.45000
 20
124.40000
 30
 0
 11
7.45000
 21
126.40000
  0
LINE
  8
Contour
 62
   7
 39
0.100
  6
CONTINUOUS
 10
38.00000
 20
125.00000
 30
 0
 11
40.00000
 21
125.00000
  0
LINE
  8
Contour
 62
   7
 39
0.100
  6
CONTINUOUS
 10
39.00000
 20
124.00000
 30
 0
 11
39.00000
 21
126.00000
  0
LINE
  8
Contour
 62
   7
 39
0.100
  6
CONTINUOUS
 10
38.00000
 20
4.00000
 30
 0
 11
40.00000
 21
4.00000
  0
LINE
  8
Contour
 62
   7
 39
0.100
  6
CONTINUOUS
 10
39.00000
 20
3.00000
 30
 0
 11
39.00000
 21
5.00000
  0
LINE
  8
Contour
 62
   7
 39
0.100
  6
CONTINUOUS
 10
38.00000
 20
121.00000
 30
 0
 11
40.00000
 21
121.00000
  0
LINE
  8
Contour
 62
   7
 39
0.100
  6
CONTINUOUS
 10
39.00000
 20
120.00000
 30
 0
 11
39.00000
 21
122.00000
  0
LINE
  8
Contour
 62
   7
 39
0.100
  6
CONTINUOUS
 10
29.00000
 20
69.00000
 30
 0
 11
31.00000
 21
69.00000
  0
LINE
  8
Contour
 62
   7
 39
0.100
  6
CONTINUOUS
 10
30.00000
 20
68.00000
 30
 0
 11
30.00000
 21
70.00000
  0
LINE
  8
Contour
 62
   7
 39
0.100
  6
CONTINUOUS
 10
29.00000
 20
81.00000
 30
 0
 11
31.00000
 21
81.00000
  0
LINE
  8
Contour
 62
   7
 39
0.100
  6
CONTINUOUS
 10
30.00000
 20
80.00000
 30
 0
 11
30.00000
 21
82.00000
  0
LINE
  8
Contour
 62
   7
 39
0.100
  6
CONTINUOUS
 10
8.50000
 20
93.00000
 30
 0
 11
10.50000
 21
93.00000
  0
LINE
  8
Contour
 62
   7
 39
0.100
  6
CONTINUOUS
 10
9.50000
 20
92.00000
 30
 0
 11
9.50000
 21
94.00000
  0
LINE
  8
Contour
 62
   7
 39
0.100
  6
CONTINUOUS
 10
8.50000
 20
107.00000
 30
 0
 11
10.50000
 21
107.00000
  0
LINE
  8
Contour
 62
   7
 39
0.100
  6
CONTINUOUS
 10
9.50000
 20
106.00000
 30
 0
 11
9.50000
 21
108.00000
  0
LINE
  8
Contour
 62
   7
 39
0.100
  6
CONTINUOUS
 10
35.50000
 20
113.00000
 30
 0
 11
37.50000
 21
113.00000
  0
LINE
  8
Contour
 62
   7
 39
0.100
  6
CONTINUOUS
 10
36.50000
 20
112.00000
 30
 0
 11
36.50000
 21
114.00000
  0
LINE
  8
Contour
 62
   7
 39
0.100
  6
CONTINUOUS
 10
35.50000
 20
99.00000
 30
 0
 11
37.50000
 21
99.00000
  0
LINE
  8
Contour
 62
   7
 39
0.100
  6
CONTINUOUS
 10
36.50000
 20
98.00000
 30
 0
 11
36.50000
 21
100.00000
  0
ENDSEC
  0
EOF
