G75*
%MOIN*%
%OFA0B0*%
%FSLAX25Y25*%
%IPPOS*%
%LPD*%
%AMOC8*
5,1,8,0,0,1.08239X$1,22.5*
%
%ADD10C,0.00000*%
%ADD11OC8,0.05200*%
%ADD12C,0.05200*%
%ADD13C,0.05200*%
%ADD14OC8,0.06000*%
%ADD15C,0.04400*%
%ADD16R,0.05150X0.05150*%
%ADD17R,0.07087X0.07087*%
%ADD18C,0.02000*%
%ADD19C,0.02400*%
%ADD20C,0.01200*%
D10*
X0001300Y0001250D02*
X0001300Y0198100D01*
X0395001Y0198100D01*
X0395001Y0001250D01*
X0001300Y0001250D01*
D11*
X0011300Y0045250D03*
X0033800Y0045250D03*
X0036300Y0061250D03*
X0036300Y0071250D03*
X0006300Y0071250D03*
X0006300Y0061250D03*
X0006300Y0101250D03*
X0006300Y0111250D03*
X0006300Y0121250D03*
X0006300Y0131250D03*
X0006300Y0141250D03*
X0006300Y0151250D03*
X0006300Y0161250D03*
X0006300Y0171250D03*
X0006300Y0181250D03*
X0006300Y0191250D03*
X0036300Y0191250D03*
X0051300Y0191250D03*
X0061300Y0191250D03*
X0073800Y0191250D03*
X0073800Y0181250D03*
X0061300Y0181250D03*
X0051300Y0181250D03*
X0036300Y0181250D03*
X0036300Y0171250D03*
X0036300Y0161250D03*
X0036300Y0151250D03*
X0036300Y0141250D03*
X0036300Y0131250D03*
X0036300Y0121250D03*
X0036300Y0111250D03*
X0036300Y0101250D03*
X0128800Y0111250D03*
X0138800Y0111250D03*
X0138800Y0121250D03*
X0128800Y0121250D03*
X0153800Y0126250D03*
X0163800Y0126250D03*
X0173800Y0126250D03*
X0183800Y0126250D03*
X0178800Y0136250D03*
X0168800Y0136250D03*
X0158800Y0136250D03*
X0148800Y0136250D03*
X0138800Y0136250D03*
X0138800Y0166250D03*
X0148800Y0166250D03*
X0158800Y0166250D03*
X0168800Y0166250D03*
X0178800Y0166250D03*
X0251300Y0181250D03*
X0251300Y0191250D03*
X0281300Y0191250D03*
X0291300Y0191250D03*
X0301300Y0191250D03*
X0316300Y0191250D03*
X0326300Y0191250D03*
X0326300Y0181250D03*
X0316300Y0181250D03*
X0301300Y0181250D03*
X0291300Y0181250D03*
X0281300Y0181250D03*
X0281300Y0166250D03*
X0296300Y0166250D03*
X0311300Y0161250D03*
X0311300Y0151250D03*
X0311300Y0141250D03*
X0296300Y0136250D03*
X0296300Y0126250D03*
X0286300Y0126250D03*
X0281300Y0136250D03*
X0311300Y0131250D03*
X0311300Y0121250D03*
X0296300Y0116250D03*
X0286300Y0116250D03*
X0311300Y0111250D03*
X0341300Y0111250D03*
X0356300Y0111250D03*
X0356300Y0121250D03*
X0341300Y0121250D03*
X0341300Y0131250D03*
X0356300Y0131250D03*
X0341300Y0141250D03*
X0341300Y0151250D03*
X0341300Y0161250D03*
X0365300Y0153750D03*
X0387800Y0153750D03*
X0386300Y0131250D03*
X0386300Y0121250D03*
X0386300Y0111250D03*
X0341300Y0091250D03*
X0341300Y0081250D03*
X0336300Y0071250D03*
X0346300Y0071250D03*
X0356300Y0071250D03*
X0366300Y0071250D03*
X0376300Y0071250D03*
X0386300Y0071250D03*
X0386300Y0041250D03*
X0376300Y0041250D03*
X0366300Y0041250D03*
X0356300Y0041250D03*
X0346300Y0041250D03*
X0336300Y0041250D03*
X0326300Y0041250D03*
X0316300Y0041250D03*
X0316300Y0071250D03*
X0326300Y0071250D03*
X0311300Y0081250D03*
X0311300Y0091250D03*
X0183800Y0096250D03*
X0173800Y0096250D03*
X0163800Y0096250D03*
X0153800Y0096250D03*
X0153800Y0086250D03*
X0163800Y0086250D03*
X0163800Y0056250D03*
X0153800Y0056250D03*
X0158800Y0045250D03*
X0181300Y0045250D03*
X0103800Y0181250D03*
X0103800Y0191250D03*
D12*
X0357300Y0153750D03*
X0379800Y0153750D03*
X0181300Y0037250D03*
X0158800Y0037250D03*
X0033800Y0037250D03*
X0011300Y0037250D03*
D13*
X0048800Y0043650D02*
X0048800Y0048850D01*
X0058800Y0048850D02*
X0058800Y0043650D01*
X0068800Y0043650D02*
X0068800Y0048850D01*
X0078800Y0048850D02*
X0078800Y0043650D01*
X0088800Y0043650D02*
X0088800Y0048850D01*
X0098800Y0048850D02*
X0098800Y0043650D01*
X0108800Y0043650D02*
X0108800Y0048850D01*
X0108800Y0073650D02*
X0108800Y0078850D01*
X0098800Y0078850D02*
X0098800Y0073650D01*
X0088800Y0073650D02*
X0088800Y0078850D01*
X0078800Y0078850D02*
X0078800Y0073650D01*
X0068800Y0073650D02*
X0068800Y0078850D01*
X0058800Y0078850D02*
X0058800Y0073650D01*
X0048800Y0073650D02*
X0048800Y0078850D01*
X0033900Y0081250D02*
X0028700Y0081250D01*
X0013900Y0081250D02*
X0008700Y0081250D01*
X0008700Y0091250D02*
X0013900Y0091250D01*
X0028700Y0091250D02*
X0033900Y0091250D01*
X0048800Y0088650D02*
X0048800Y0093850D01*
X0058800Y0093850D02*
X0058800Y0088650D01*
X0068800Y0088650D02*
X0068800Y0093850D01*
X0078800Y0093850D02*
X0078800Y0088650D01*
X0088800Y0088650D02*
X0088800Y0093850D01*
X0098800Y0093850D02*
X0098800Y0088650D01*
X0108800Y0088650D02*
X0108800Y0093850D01*
X0108800Y0118650D02*
X0108800Y0123850D01*
X0098800Y0123850D02*
X0098800Y0118650D01*
X0088800Y0118650D02*
X0088800Y0123850D01*
X0078800Y0123850D02*
X0078800Y0118650D01*
X0068800Y0118650D02*
X0068800Y0123850D01*
X0058800Y0123850D02*
X0058800Y0118650D01*
X0048800Y0118650D02*
X0048800Y0123850D01*
X0048800Y0133650D02*
X0048800Y0138850D01*
X0058800Y0138850D02*
X0058800Y0133650D01*
X0068800Y0133650D02*
X0068800Y0138850D01*
X0078800Y0138850D02*
X0078800Y0133650D01*
X0088800Y0133650D02*
X0088800Y0138850D01*
X0098800Y0138850D02*
X0098800Y0133650D01*
X0108800Y0133650D02*
X0108800Y0138850D01*
X0108800Y0163650D02*
X0108800Y0168850D01*
X0098800Y0168850D02*
X0098800Y0163650D01*
X0088800Y0163650D02*
X0088800Y0168850D01*
X0078800Y0168850D02*
X0078800Y0163650D01*
X0068800Y0163650D02*
X0068800Y0168850D01*
X0058800Y0168850D02*
X0058800Y0163650D01*
X0048800Y0163650D02*
X0048800Y0168850D01*
X0113700Y0181250D02*
X0118900Y0181250D01*
X0133700Y0181250D02*
X0138900Y0181250D01*
X0138900Y0191250D02*
X0133700Y0191250D01*
X0118900Y0191250D02*
X0113700Y0191250D01*
X0206300Y0168850D02*
X0206300Y0163650D01*
X0216300Y0163650D02*
X0216300Y0168850D01*
X0226300Y0168850D02*
X0226300Y0163650D01*
X0236300Y0163650D02*
X0236300Y0168850D01*
X0246300Y0168850D02*
X0246300Y0163650D01*
X0256300Y0163650D02*
X0256300Y0168850D01*
X0266300Y0168850D02*
X0266300Y0163650D01*
X0238900Y0181250D02*
X0233700Y0181250D01*
X0218900Y0181250D02*
X0213700Y0181250D01*
X0213700Y0191250D02*
X0218900Y0191250D01*
X0233700Y0191250D02*
X0238900Y0191250D01*
X0236300Y0138850D02*
X0236300Y0133650D01*
X0226300Y0133650D02*
X0226300Y0138850D01*
X0216300Y0138850D02*
X0216300Y0133650D01*
X0206300Y0133650D02*
X0206300Y0138850D01*
X0206300Y0123850D02*
X0206300Y0118650D01*
X0216300Y0118650D02*
X0216300Y0123850D01*
X0226300Y0123850D02*
X0226300Y0118650D01*
X0236300Y0118650D02*
X0236300Y0123850D01*
X0246300Y0123850D02*
X0246300Y0118650D01*
X0256300Y0118650D02*
X0256300Y0123850D01*
X0266300Y0123850D02*
X0266300Y0118650D01*
X0266300Y0133650D02*
X0266300Y0138850D01*
X0256300Y0138850D02*
X0256300Y0133650D01*
X0246300Y0133650D02*
X0246300Y0138850D01*
X0246300Y0093850D02*
X0246300Y0088650D01*
X0256300Y0088650D02*
X0256300Y0093850D01*
X0266300Y0093850D02*
X0266300Y0088650D01*
X0266300Y0078850D02*
X0266300Y0073650D01*
X0256300Y0073650D02*
X0256300Y0078850D01*
X0246300Y0078850D02*
X0246300Y0073650D01*
X0236300Y0073650D02*
X0236300Y0078850D01*
X0226300Y0078850D02*
X0226300Y0073650D01*
X0216300Y0073650D02*
X0216300Y0078850D01*
X0206300Y0078850D02*
X0206300Y0073650D01*
X0188800Y0078650D02*
X0188800Y0083850D01*
X0178800Y0083850D02*
X0178800Y0078650D01*
X0206300Y0088650D02*
X0206300Y0093850D01*
X0216300Y0093850D02*
X0216300Y0088650D01*
X0226300Y0088650D02*
X0226300Y0093850D01*
X0236300Y0093850D02*
X0236300Y0088650D01*
X0188800Y0063850D02*
X0188800Y0058650D01*
X0178800Y0058650D02*
X0178800Y0063850D01*
X0206300Y0048850D02*
X0206300Y0043650D01*
X0216300Y0043650D02*
X0216300Y0048850D01*
X0226300Y0048850D02*
X0226300Y0043650D01*
X0236300Y0043650D02*
X0236300Y0048850D01*
X0246300Y0048850D02*
X0246300Y0043650D01*
X0256300Y0043650D02*
X0256300Y0048850D01*
X0266300Y0048850D02*
X0266300Y0043650D01*
D14*
X0196300Y0181250D03*
X0186300Y0181250D03*
X0176300Y0181250D03*
X0166300Y0181250D03*
X0156300Y0181250D03*
X0156300Y0191250D03*
X0166300Y0191250D03*
X0176300Y0191250D03*
X0186300Y0191250D03*
X0196300Y0191250D03*
X0346300Y0191250D03*
X0356300Y0191250D03*
X0366300Y0191250D03*
X0376300Y0191250D03*
X0386300Y0191250D03*
X0386300Y0181250D03*
X0376300Y0181250D03*
X0366300Y0181250D03*
X0356300Y0181250D03*
X0346300Y0181250D03*
D15*
X0291300Y0101250D03*
X0281300Y0091250D03*
X0291300Y0081250D03*
X0291300Y0066250D03*
X0281300Y0056250D03*
X0291300Y0046250D03*
X0131300Y0043750D03*
X0121300Y0053750D03*
X0131300Y0063750D03*
X0131300Y0076250D03*
X0121300Y0086250D03*
X0131300Y0096250D03*
D16*
X0133347Y0020935D03*
X0123347Y0020935D03*
X0113347Y0020935D03*
X0086103Y0020935D03*
X0076103Y0020935D03*
X0066103Y0020935D03*
X0038859Y0020935D03*
X0028859Y0020935D03*
X0018859Y0020935D03*
X0160591Y0020935D03*
X0170591Y0020935D03*
X0180591Y0020935D03*
D17*
X0207206Y0025659D03*
X0207206Y0010699D03*
X0244213Y0010699D03*
X0254450Y0010699D03*
X0254450Y0025659D03*
X0244213Y0025659D03*
X0291457Y0025659D03*
X0301694Y0025659D03*
X0301694Y0010699D03*
X0291457Y0010699D03*
X0338702Y0010699D03*
X0348938Y0010699D03*
X0348938Y0025659D03*
X0338702Y0025659D03*
X0385946Y0025659D03*
X0385946Y0010699D03*
D18*
X0366300Y0041250D02*
X0365473Y0041604D01*
X0350709Y0056368D01*
X0350709Y0118376D01*
X0345296Y0123789D01*
X0345788Y0124281D01*
X0345788Y0141998D01*
X0356615Y0152825D01*
X0357300Y0153750D01*
X0356615Y0153809D01*
X0346772Y0163652D01*
X0346772Y0180384D01*
X0346300Y0181250D01*
X0331024Y0183337D02*
X0328072Y0186289D01*
X0317245Y0186289D01*
X0317245Y0191211D01*
X0316300Y0191250D01*
X0331024Y0183337D02*
X0331024Y0171526D01*
X0341300Y0161250D01*
X0341300Y0151250D02*
X0341851Y0150856D01*
X0341851Y0141998D01*
X0341300Y0141250D01*
X0341300Y0131250D02*
X0339883Y0129203D01*
X0345296Y0123789D01*
X0340867Y0131171D02*
X0336930Y0127234D01*
X0336930Y0095738D01*
X0340867Y0091801D01*
X0341300Y0091250D01*
X0326103Y0116407D02*
X0296576Y0116407D01*
X0296300Y0116250D01*
X0286733Y0115423D02*
X0286300Y0116250D01*
X0286733Y0115423D02*
X0286733Y0105581D01*
X0290670Y0101644D01*
X0291300Y0101250D01*
X0290670Y0100659D01*
X0285749Y0095738D01*
X0285749Y0073100D01*
X0285257Y0072608D01*
X0290670Y0067195D01*
X0291300Y0066250D01*
X0290670Y0066211D01*
X0285749Y0061289D01*
X0285749Y0016014D01*
X0290670Y0011093D01*
X0291457Y0010699D01*
X0235552Y0045541D02*
X0228662Y0038652D01*
X0210946Y0038652D01*
X0210946Y0062274D01*
X0210946Y0116407D01*
X0207009Y0120344D01*
X0206300Y0121250D01*
X0174528Y0141998D02*
X0169607Y0137077D01*
X0168800Y0136250D01*
X0174528Y0141998D02*
X0188308Y0141998D01*
X0188308Y0100659D01*
X0184371Y0096722D01*
X0183800Y0096250D01*
X0184371Y0095738D01*
X0193229Y0086880D01*
X0193229Y0079990D01*
X0210946Y0062274D01*
X0235552Y0077037D02*
X0236300Y0076250D01*
X0235552Y0077037D02*
X0231615Y0080974D01*
X0231615Y0161683D01*
X0235552Y0165620D01*
X0236300Y0166250D01*
X0281300Y0181250D02*
X0281812Y0180384D01*
X0285749Y0176447D01*
X0285749Y0126250D01*
X0286300Y0126250D01*
X0326103Y0116407D02*
X0326103Y0180384D01*
X0326300Y0181250D01*
X0365473Y0180384D02*
X0366300Y0181250D01*
X0365473Y0180384D02*
X0365473Y0153809D01*
X0365300Y0153750D01*
X0379800Y0153750D02*
X0380237Y0152825D01*
X0380237Y0127234D01*
X0386143Y0121329D01*
X0386300Y0121250D01*
X0341300Y0131250D02*
X0340867Y0131171D01*
X0267048Y0090817D02*
X0266300Y0091250D01*
X0267048Y0090817D02*
X0285257Y0072608D01*
X0236300Y0046250D02*
X0235552Y0045541D01*
X0158800Y0045250D02*
X0158780Y0045541D01*
X0135158Y0045541D01*
X0135158Y0066211D01*
X0134666Y0066703D01*
X0132206Y0064242D01*
X0131300Y0063750D01*
X0134666Y0066703D02*
X0152875Y0084911D01*
X0152875Y0085896D01*
X0153800Y0086250D01*
X0151891Y0085896D01*
X0136635Y0101152D01*
X0132206Y0096722D01*
X0131300Y0096250D01*
X0136635Y0101152D02*
X0138111Y0102628D01*
X0138111Y0110502D01*
X0138800Y0111250D01*
X0139095Y0111486D01*
X0139095Y0120344D01*
X0138800Y0121250D01*
X0129253Y0120344D02*
X0128800Y0121250D01*
X0129253Y0120344D02*
X0129253Y0111486D01*
X0128800Y0111250D01*
X0153800Y0126250D02*
X0153859Y0126250D01*
X0153859Y0160699D01*
X0148938Y0165620D01*
X0148800Y0166250D01*
X0158780Y0166604D02*
X0158800Y0166250D01*
X0158780Y0166604D02*
X0158780Y0178415D01*
X0156812Y0180384D01*
X0156300Y0181250D01*
X0078800Y0166250D02*
X0078072Y0165620D01*
X0078072Y0162667D01*
X0074135Y0158730D01*
X0074135Y0080974D01*
X0078072Y0077037D01*
X0078800Y0076250D01*
X0083977Y0072116D02*
X0083977Y0131171D01*
X0079056Y0136093D01*
X0078800Y0136250D01*
X0036300Y0151250D02*
X0035749Y0151841D01*
X0031812Y0155778D01*
X0031812Y0161683D01*
X0013111Y0161683D01*
X0073800Y0181250D02*
X0074135Y0181368D01*
X0074135Y0191211D01*
X0073800Y0191250D01*
X0011143Y0127234D02*
X0007206Y0131171D01*
X0006300Y0131250D01*
X0011143Y0127234D02*
X0011143Y0115423D01*
X0010650Y0114931D01*
X0011143Y0114439D01*
X0011143Y0099675D01*
X0004253Y0092785D01*
X0004253Y0074085D01*
X0006221Y0072116D01*
X0006300Y0071250D01*
X0006300Y0061250D02*
X0007206Y0060305D01*
X0007206Y0049478D01*
X0011143Y0045541D01*
X0011300Y0045250D01*
X0078800Y0046250D02*
X0079056Y0046526D01*
X0082009Y0049478D01*
X0082009Y0070148D01*
X0083977Y0072116D01*
X0010650Y0114931D02*
X0007206Y0111486D01*
X0006300Y0111250D01*
D19*
X0082993Y0159715D03*
X0118426Y0126250D03*
X0223741Y0145935D03*
X0274922Y0112470D03*
X0288702Y0148888D03*
X0013111Y0161683D03*
D20*
X0031812Y0165620D02*
X0031812Y0176447D01*
X0035749Y0180384D01*
X0036300Y0181250D01*
X0040670Y0175463D02*
X0040670Y0187274D01*
X0036733Y0191211D01*
X0036300Y0191250D01*
X0010158Y0188258D02*
X0007206Y0191211D01*
X0006300Y0191250D01*
X0010158Y0188258D02*
X0010158Y0144951D01*
X0007206Y0141998D01*
X0006300Y0141250D01*
X0036300Y0131250D02*
X0036733Y0132156D01*
X0041654Y0137077D01*
X0041654Y0173494D01*
X0051497Y0173494D01*
X0058387Y0166604D01*
X0058800Y0166250D01*
X0049528Y0165620D02*
X0048800Y0166250D01*
X0049528Y0165620D02*
X0063308Y0151841D01*
X0063308Y0126250D01*
X0068229Y0121329D01*
X0068800Y0121250D01*
X0063308Y0116407D02*
X0059371Y0120344D01*
X0058800Y0121250D01*
X0063308Y0116407D02*
X0063308Y0087864D01*
X0065276Y0085896D01*
X0065276Y0079990D01*
X0068229Y0077037D01*
X0068800Y0076250D01*
X0086930Y0075069D02*
X0086930Y0052431D01*
X0084961Y0050463D01*
X0084961Y0021919D01*
X0085946Y0020935D01*
X0086103Y0020935D01*
X0089883Y0016998D02*
X0039686Y0016998D01*
X0039686Y0020935D01*
X0038859Y0020935D01*
X0039686Y0046526D02*
X0065276Y0020935D01*
X0066103Y0020935D01*
X0089883Y0016998D02*
X0089883Y0044557D01*
X0088898Y0045541D01*
X0088800Y0046250D01*
X0068800Y0046250D02*
X0068229Y0046526D01*
X0063308Y0051447D01*
X0063308Y0084911D01*
X0059371Y0088848D01*
X0059371Y0090817D01*
X0058800Y0091250D01*
X0048800Y0091250D02*
X0048544Y0091801D01*
X0044607Y0095738D01*
X0044607Y0132156D01*
X0048544Y0136093D01*
X0048800Y0136250D01*
X0043623Y0134124D02*
X0040670Y0131171D01*
X0040670Y0115423D01*
X0036733Y0111486D01*
X0036300Y0111250D01*
X0012127Y0090817D02*
X0011300Y0091250D01*
X0012127Y0090817D02*
X0029843Y0073100D01*
X0029843Y0041604D01*
X0033780Y0037667D01*
X0033800Y0037250D01*
X0039686Y0046526D02*
X0039686Y0057352D01*
X0036733Y0060305D01*
X0036300Y0061250D01*
X0044607Y0050463D02*
X0048544Y0046526D01*
X0048800Y0046250D01*
X0044607Y0050463D02*
X0044607Y0080974D01*
X0031812Y0080974D01*
X0031300Y0081250D01*
X0016064Y0077037D02*
X0016064Y0041604D01*
X0012127Y0037667D01*
X0011300Y0037250D01*
X0086930Y0075069D02*
X0087914Y0076053D01*
X0088800Y0076250D01*
X0102678Y0072116D02*
X0102678Y0087864D01*
X0099725Y0090817D01*
X0098800Y0091250D01*
X0113505Y0093770D02*
X0113505Y0105581D01*
X0099725Y0119360D01*
X0099725Y0120344D01*
X0098800Y0121250D01*
X0104646Y0117392D02*
X0107599Y0114439D01*
X0124331Y0114439D01*
X0124331Y0122313D01*
X0138111Y0136093D01*
X0138800Y0136250D01*
X0118426Y0128219D02*
X0118426Y0126250D01*
X0118426Y0128219D02*
X0107599Y0128219D01*
X0099725Y0136093D01*
X0098800Y0136250D01*
X0094804Y0132156D02*
X0098741Y0128219D01*
X0104646Y0128219D01*
X0104646Y0117392D01*
X0094804Y0132156D02*
X0094804Y0159715D01*
X0088898Y0165620D01*
X0088800Y0166250D01*
X0098800Y0166250D02*
X0099725Y0166604D01*
X0110552Y0177431D01*
X0141064Y0177431D01*
X0151891Y0188258D01*
X0151891Y0193179D01*
X0154843Y0196132D01*
X0312324Y0196132D01*
X0312324Y0165620D01*
X0315276Y0162667D01*
X0315276Y0136093D01*
X0311339Y0132156D01*
X0311300Y0131250D01*
X0307402Y0124281D02*
X0307402Y0147904D01*
X0307402Y0174478D01*
X0301497Y0180384D01*
X0301300Y0181250D01*
X0309371Y0183337D02*
X0301497Y0191211D01*
X0301300Y0191250D01*
X0296576Y0186289D02*
X0296576Y0171526D01*
X0300513Y0167589D01*
X0300513Y0141014D01*
X0296576Y0137077D01*
X0296300Y0136250D01*
X0281300Y0136250D02*
X0280828Y0137077D01*
X0276891Y0141014D01*
X0276891Y0173494D01*
X0253269Y0173494D01*
X0246379Y0166604D01*
X0246300Y0166250D01*
X0256300Y0166250D02*
X0257206Y0165620D01*
X0274922Y0147904D01*
X0274922Y0112470D01*
X0257206Y0115423D02*
X0257206Y0120344D01*
X0256300Y0121250D01*
X0257206Y0115423D02*
X0280828Y0091801D01*
X0281300Y0091250D01*
X0260158Y0087864D02*
X0257206Y0090817D01*
X0256300Y0091250D01*
X0260158Y0087864D02*
X0260158Y0056368D01*
X0280828Y0056368D01*
X0281300Y0056250D01*
X0316300Y0071250D02*
X0317245Y0071132D01*
X0320198Y0068179D01*
X0320198Y0005187D01*
X0168623Y0005187D01*
X0156812Y0016998D01*
X0156812Y0018967D01*
X0132206Y0043573D01*
X0131300Y0043750D01*
X0121300Y0053750D02*
X0120394Y0054400D01*
X0102678Y0072116D01*
X0120394Y0086880D02*
X0121300Y0086250D01*
X0120394Y0086880D02*
X0113505Y0093770D01*
X0153800Y0096250D02*
X0153859Y0096722D01*
X0178465Y0121329D01*
X0178465Y0136093D01*
X0178800Y0136250D01*
X0164686Y0126250D02*
X0163800Y0126250D01*
X0164686Y0126250D02*
X0164686Y0161683D01*
X0168623Y0165620D01*
X0168800Y0166250D01*
X0171576Y0173494D02*
X0178465Y0166604D01*
X0178800Y0166250D01*
X0179450Y0166604D01*
X0182402Y0166604D01*
X0196182Y0180384D01*
X0196300Y0181250D01*
X0181418Y0186289D02*
X0296576Y0186289D01*
X0309371Y0183337D02*
X0309371Y0162667D01*
X0310355Y0161683D01*
X0311300Y0161250D01*
X0311300Y0151250D02*
X0310355Y0150856D01*
X0307402Y0147904D01*
X0288702Y0148888D02*
X0288702Y0158730D01*
X0295591Y0165620D01*
X0296300Y0166250D01*
X0226300Y0136250D02*
X0225709Y0137077D01*
X0223741Y0139045D01*
X0223741Y0145935D01*
X0220788Y0151841D02*
X0207009Y0165620D01*
X0206300Y0166250D01*
X0220788Y0151841D02*
X0220788Y0126250D01*
X0225709Y0121329D01*
X0226300Y0121250D01*
X0220788Y0116407D02*
X0216851Y0120344D01*
X0216300Y0121250D01*
X0220788Y0116407D02*
X0220788Y0087864D01*
X0222757Y0085896D01*
X0222757Y0079990D01*
X0225709Y0077037D01*
X0226300Y0076250D01*
X0220788Y0073100D02*
X0220788Y0084911D01*
X0216851Y0088848D01*
X0216851Y0090817D01*
X0216300Y0091250D01*
X0206300Y0091250D02*
X0206024Y0091801D01*
X0202087Y0095738D01*
X0202087Y0132156D01*
X0206024Y0136093D01*
X0206300Y0136250D01*
X0152875Y0186289D02*
X0134174Y0167589D01*
X0134174Y0161683D01*
X0109568Y0137077D01*
X0108800Y0136250D01*
X0071182Y0139045D02*
X0071182Y0159715D01*
X0074135Y0162667D01*
X0074135Y0170541D01*
X0077087Y0173494D01*
X0082993Y0173494D01*
X0082993Y0159715D01*
X0058387Y0137077D02*
X0052481Y0142982D01*
X0043623Y0142982D01*
X0043623Y0134124D01*
X0058387Y0137077D02*
X0058800Y0136250D01*
X0068800Y0136250D02*
X0069213Y0137077D01*
X0071182Y0139045D01*
X0036300Y0161250D02*
X0035749Y0161683D01*
X0031812Y0165620D01*
X0036300Y0171250D02*
X0036733Y0171526D01*
X0040670Y0175463D01*
X0152875Y0186289D02*
X0171576Y0186289D01*
X0171576Y0173494D01*
X0176300Y0181250D02*
X0176497Y0181368D01*
X0181418Y0186289D01*
X0307402Y0124281D02*
X0310355Y0121329D01*
X0311300Y0121250D01*
X0341300Y0111250D02*
X0341851Y0110502D01*
X0345788Y0106565D01*
X0345788Y0086880D01*
X0340867Y0086880D01*
X0336930Y0082943D01*
X0336930Y0081959D01*
X0327087Y0072116D01*
X0326300Y0071250D01*
X0322166Y0066211D02*
X0340867Y0066211D01*
X0340867Y0080974D01*
X0341300Y0081250D01*
X0346300Y0071250D02*
X0346772Y0071132D01*
X0346772Y0050463D01*
X0355631Y0041604D01*
X0356300Y0041250D01*
X0348741Y0038652D02*
X0348741Y0025856D01*
X0348938Y0025659D01*
X0338702Y0025659D02*
X0337914Y0025856D01*
X0337914Y0039636D01*
X0336300Y0041250D01*
X0346300Y0041250D02*
X0346772Y0040620D01*
X0348741Y0038652D01*
X0322166Y0066211D02*
X0320198Y0068179D01*
X0246300Y0076250D02*
X0245394Y0076053D01*
X0240473Y0071132D01*
X0240473Y0041604D01*
X0234568Y0035699D01*
X0181418Y0035699D01*
X0181418Y0036683D01*
X0181300Y0037250D01*
X0181418Y0037667D01*
X0185355Y0041604D01*
X0185355Y0057352D01*
X0188308Y0060305D01*
X0188800Y0061250D01*
X0206024Y0054400D02*
X0206024Y0046526D01*
X0206300Y0046250D01*
X0206024Y0054400D02*
X0179450Y0080974D01*
X0178800Y0081250D01*
X0220788Y0073100D02*
X0223741Y0070148D01*
X0223741Y0048494D01*
X0225709Y0046526D01*
X0226300Y0046250D01*
X0163702Y0055384D02*
X0163702Y0023888D01*
X0160749Y0020935D01*
X0160591Y0020935D01*
X0163702Y0055384D02*
X0163800Y0056250D01*
X0016064Y0077037D02*
X0012127Y0080974D01*
X0011300Y0081250D01*
M02*
