G04 EAGLE Gerber RS-274X export*
G75*
%MOMM*%
%FSLAX34Y34*%
%LPD*%
%INTop Copper*%
%IPPOS*%
%AMOC8*
5,1,8,0,0,1.08239X$1,22.5*%
G01*
%ADD10P,1.429621X8X292.500000*%
%ADD11C,1.320800*%
%ADD12P,1.429621X8X22.500000*%
%ADD13P,1.429621X8X202.500000*%
%ADD14P,1.429621X8X112.500000*%
%ADD15C,1.320800*%
%ADD16C,1.524000*%
%ADD17C,2.184400*%
%ADD18R,1.800000X1.800000*%
%ADD19P,1.649562X8X22.500000*%
%ADD20C,0.406400*%
%ADD21C,0.756400*%
%ADD22C,0.812800*%

G36*
X320725Y11950D02*
X320725Y11950D01*
X320797Y11952D01*
X320846Y11970D01*
X320897Y11979D01*
X320961Y12012D01*
X321028Y12037D01*
X321069Y12069D01*
X321115Y12094D01*
X321164Y12146D01*
X321220Y12190D01*
X321248Y12234D01*
X321284Y12272D01*
X321314Y12337D01*
X321353Y12397D01*
X321366Y12448D01*
X321388Y12495D01*
X321396Y12566D01*
X321413Y12636D01*
X321409Y12688D01*
X321415Y12739D01*
X321399Y12810D01*
X321394Y12881D01*
X321374Y12929D01*
X321362Y12980D01*
X321326Y13041D01*
X321298Y13107D01*
X321253Y13163D01*
X321236Y13191D01*
X321219Y13206D01*
X321193Y13238D01*
X320057Y14374D01*
X274319Y60112D01*
X274319Y105414D01*
X274305Y105505D01*
X274297Y105595D01*
X274285Y105625D01*
X274280Y105657D01*
X274237Y105738D01*
X274201Y105822D01*
X274175Y105854D01*
X274164Y105875D01*
X274141Y105897D01*
X274096Y105953D01*
X269747Y110302D01*
X269747Y118298D01*
X275402Y123953D01*
X283398Y123953D01*
X289053Y118298D01*
X289053Y110302D01*
X284704Y105953D01*
X284651Y105879D01*
X284591Y105809D01*
X284579Y105779D01*
X284560Y105753D01*
X284533Y105666D01*
X284499Y105581D01*
X284495Y105540D01*
X284488Y105518D01*
X284489Y105486D01*
X284481Y105414D01*
X284481Y64636D01*
X284495Y64546D01*
X284503Y64455D01*
X284515Y64425D01*
X284520Y64393D01*
X284563Y64313D01*
X284599Y64229D01*
X284625Y64197D01*
X284636Y64176D01*
X284659Y64154D01*
X284704Y64098D01*
X319756Y29046D01*
X319814Y29004D01*
X319866Y28955D01*
X319913Y28933D01*
X319955Y28902D01*
X320024Y28881D01*
X320089Y28851D01*
X320141Y28845D01*
X320191Y28830D01*
X320262Y28832D01*
X320333Y28824D01*
X320384Y28835D01*
X320436Y28836D01*
X320504Y28861D01*
X320574Y28876D01*
X320619Y28903D01*
X320667Y28921D01*
X320723Y28966D01*
X320785Y29002D01*
X320819Y29042D01*
X320859Y29074D01*
X320898Y29135D01*
X320945Y29189D01*
X320964Y29238D01*
X320992Y29281D01*
X321010Y29351D01*
X321037Y29417D01*
X321045Y29489D01*
X321053Y29520D01*
X321051Y29543D01*
X321055Y29584D01*
X321055Y31728D01*
X326412Y37085D01*
X328677Y37085D01*
X328677Y28702D01*
X328680Y28682D01*
X328678Y28663D01*
X328700Y28561D01*
X328717Y28459D01*
X328726Y28442D01*
X328730Y28422D01*
X328783Y28333D01*
X328832Y28242D01*
X328846Y28228D01*
X328856Y28211D01*
X328935Y28144D01*
X329010Y28073D01*
X329028Y28064D01*
X329043Y28051D01*
X329139Y28013D01*
X329233Y27969D01*
X329253Y27967D01*
X329271Y27959D01*
X329438Y27941D01*
X330201Y27941D01*
X330201Y27178D01*
X330204Y27158D01*
X330202Y27139D01*
X330224Y27037D01*
X330241Y26935D01*
X330250Y26918D01*
X330254Y26898D01*
X330307Y26809D01*
X330356Y26718D01*
X330370Y26704D01*
X330380Y26687D01*
X330459Y26620D01*
X330534Y26549D01*
X330552Y26540D01*
X330567Y26527D01*
X330663Y26488D01*
X330757Y26445D01*
X330777Y26443D01*
X330795Y26435D01*
X330962Y26417D01*
X339345Y26417D01*
X339345Y24152D01*
X337829Y22636D01*
X337787Y22578D01*
X337738Y22526D01*
X337716Y22479D01*
X337685Y22437D01*
X337664Y22368D01*
X337634Y22303D01*
X337628Y22251D01*
X337613Y22201D01*
X337615Y22130D01*
X337607Y22059D01*
X337618Y22008D01*
X337619Y21956D01*
X337644Y21888D01*
X337659Y21818D01*
X337686Y21773D01*
X337704Y21725D01*
X337749Y21669D01*
X337785Y21607D01*
X337825Y21573D01*
X337857Y21533D01*
X337918Y21494D01*
X337972Y21447D01*
X338021Y21428D01*
X338064Y21400D01*
X338134Y21382D01*
X338200Y21355D01*
X338272Y21347D01*
X338303Y21339D01*
X338326Y21341D01*
X338367Y21337D01*
X432936Y21337D01*
X433026Y21351D01*
X433117Y21359D01*
X433147Y21371D01*
X433179Y21376D01*
X433260Y21419D01*
X433343Y21455D01*
X433376Y21481D01*
X433396Y21492D01*
X433418Y21515D01*
X433474Y21560D01*
X509808Y97894D01*
X509861Y97967D01*
X509921Y98037D01*
X509933Y98067D01*
X509952Y98093D01*
X509979Y98180D01*
X510013Y98265D01*
X510017Y98306D01*
X510024Y98328D01*
X510023Y98361D01*
X510031Y98432D01*
X510031Y111342D01*
X511655Y115263D01*
X514657Y118265D01*
X518578Y119889D01*
X522822Y119889D01*
X526743Y118265D01*
X529745Y115263D01*
X531369Y111342D01*
X531369Y91858D01*
X529745Y87937D01*
X526743Y84935D01*
X522822Y83311D01*
X518578Y83311D01*
X514657Y84935D01*
X513477Y86115D01*
X513461Y86127D01*
X513448Y86142D01*
X513361Y86198D01*
X513277Y86259D01*
X513258Y86265D01*
X513241Y86275D01*
X513141Y86301D01*
X513042Y86331D01*
X513022Y86331D01*
X513003Y86335D01*
X512900Y86327D01*
X512796Y86325D01*
X512777Y86318D01*
X512758Y86316D01*
X512663Y86276D01*
X512565Y86240D01*
X512550Y86228D01*
X512531Y86220D01*
X512400Y86115D01*
X439524Y13238D01*
X439482Y13180D01*
X439432Y13128D01*
X439410Y13081D01*
X439380Y13039D01*
X439359Y12970D01*
X439329Y12905D01*
X439323Y12853D01*
X439308Y12803D01*
X439309Y12732D01*
X439302Y12661D01*
X439313Y12610D01*
X439314Y12558D01*
X439339Y12490D01*
X439354Y12420D01*
X439381Y12376D01*
X439398Y12327D01*
X439443Y12271D01*
X439480Y12209D01*
X439520Y12175D01*
X439552Y12135D01*
X439612Y12096D01*
X439667Y12049D01*
X439715Y12030D01*
X439759Y12002D01*
X439829Y11984D01*
X439895Y11957D01*
X439966Y11949D01*
X439998Y11941D01*
X440021Y11943D01*
X440062Y11939D01*
X731538Y11939D01*
X731609Y11950D01*
X731681Y11952D01*
X731730Y11970D01*
X731781Y11979D01*
X731844Y12012D01*
X731912Y12037D01*
X731952Y12069D01*
X731998Y12094D01*
X732048Y12145D01*
X732104Y12190D01*
X732132Y12234D01*
X732168Y12272D01*
X732198Y12337D01*
X732237Y12397D01*
X732249Y12448D01*
X732271Y12495D01*
X732279Y12566D01*
X732297Y12636D01*
X732293Y12688D01*
X732298Y12739D01*
X732283Y12810D01*
X732278Y12881D01*
X732257Y12929D01*
X732246Y12980D01*
X732209Y13041D01*
X732181Y13107D01*
X732137Y13163D01*
X732120Y13191D01*
X732102Y13206D01*
X732076Y13238D01*
X729271Y16044D01*
X729255Y16055D01*
X729243Y16071D01*
X729155Y16127D01*
X729071Y16187D01*
X729052Y16193D01*
X729036Y16204D01*
X728935Y16229D01*
X728836Y16260D01*
X728816Y16259D01*
X728797Y16264D01*
X728694Y16256D01*
X728590Y16253D01*
X728572Y16246D01*
X728552Y16245D01*
X728457Y16204D01*
X728359Y16169D01*
X728344Y16156D01*
X728326Y16148D01*
X728195Y16044D01*
X727898Y15747D01*
X719902Y15747D01*
X714247Y21402D01*
X714247Y21658D01*
X714244Y21678D01*
X714246Y21697D01*
X714224Y21799D01*
X714208Y21901D01*
X714198Y21918D01*
X714194Y21938D01*
X714141Y22027D01*
X714092Y22118D01*
X714078Y22132D01*
X714068Y22149D01*
X713989Y22216D01*
X713914Y22288D01*
X713896Y22296D01*
X713881Y22309D01*
X713785Y22348D01*
X713691Y22391D01*
X713671Y22393D01*
X713653Y22401D01*
X713486Y22419D01*
X656146Y22419D01*
X656055Y22405D01*
X655965Y22397D01*
X655935Y22385D01*
X655903Y22380D01*
X655822Y22337D01*
X655738Y22301D01*
X655706Y22275D01*
X655685Y22264D01*
X655663Y22241D01*
X655607Y22196D01*
X651698Y18287D01*
X643702Y18287D01*
X638047Y23942D01*
X638047Y31938D01*
X643702Y37593D01*
X644402Y37593D01*
X644498Y37608D01*
X644595Y37618D01*
X644619Y37628D01*
X644645Y37632D01*
X644731Y37678D01*
X644820Y37718D01*
X644839Y37735D01*
X644862Y37748D01*
X644929Y37818D01*
X645001Y37884D01*
X645014Y37907D01*
X645032Y37926D01*
X645073Y38014D01*
X645120Y38100D01*
X645124Y38125D01*
X645135Y38149D01*
X645146Y38246D01*
X645163Y38342D01*
X645160Y38368D01*
X645162Y38393D01*
X645142Y38489D01*
X645128Y38585D01*
X645116Y38608D01*
X645110Y38634D01*
X645060Y38717D01*
X645016Y38804D01*
X644997Y38823D01*
X644984Y38845D01*
X644910Y38908D01*
X644841Y38976D01*
X644812Y38992D01*
X644797Y39005D01*
X644766Y39017D01*
X644694Y39057D01*
X642232Y40077D01*
X639517Y42792D01*
X638047Y46340D01*
X638047Y50180D01*
X639517Y53728D01*
X642232Y56443D01*
X645780Y57913D01*
X649620Y57913D01*
X653168Y56443D01*
X655883Y53728D01*
X657353Y50180D01*
X657353Y46340D01*
X655883Y42792D01*
X653168Y40077D01*
X650706Y39057D01*
X650623Y39006D01*
X650538Y38960D01*
X650520Y38942D01*
X650497Y38928D01*
X650435Y38852D01*
X650368Y38782D01*
X650357Y38758D01*
X650341Y38738D01*
X650306Y38647D01*
X650265Y38559D01*
X650262Y38533D01*
X650252Y38509D01*
X650248Y38411D01*
X650238Y38315D01*
X650243Y38289D01*
X650242Y38263D01*
X650269Y38169D01*
X650290Y38074D01*
X650303Y38052D01*
X650310Y38027D01*
X650366Y37947D01*
X650416Y37863D01*
X650436Y37846D01*
X650451Y37825D01*
X650529Y37766D01*
X650603Y37703D01*
X650627Y37693D01*
X650648Y37678D01*
X650741Y37648D01*
X650831Y37611D01*
X650863Y37608D01*
X650882Y37602D01*
X650915Y37602D01*
X650998Y37593D01*
X651698Y37593D01*
X656487Y32804D01*
X656561Y32751D01*
X656631Y32691D01*
X656661Y32679D01*
X656687Y32660D01*
X656774Y32633D01*
X656859Y32599D01*
X656900Y32595D01*
X656922Y32588D01*
X656954Y32589D01*
X657026Y32581D01*
X686658Y32581D01*
X686678Y32584D01*
X686697Y32582D01*
X686799Y32604D01*
X686901Y32620D01*
X686918Y32630D01*
X686938Y32634D01*
X687027Y32687D01*
X687118Y32736D01*
X687132Y32750D01*
X687149Y32760D01*
X687216Y32839D01*
X687288Y32914D01*
X687296Y32932D01*
X687309Y32947D01*
X687348Y33043D01*
X687391Y33137D01*
X687393Y33157D01*
X687401Y33175D01*
X687419Y33342D01*
X687419Y146658D01*
X687416Y146678D01*
X687418Y146697D01*
X687396Y146799D01*
X687380Y146901D01*
X687370Y146918D01*
X687366Y146938D01*
X687313Y147027D01*
X687264Y147118D01*
X687250Y147132D01*
X687240Y147149D01*
X687161Y147216D01*
X687086Y147288D01*
X687068Y147296D01*
X687053Y147309D01*
X686957Y147348D01*
X686863Y147391D01*
X686843Y147393D01*
X686825Y147401D01*
X686658Y147419D01*
X665313Y147419D01*
X665199Y147400D01*
X665082Y147383D01*
X665077Y147381D01*
X665071Y147380D01*
X664968Y147325D01*
X664863Y147272D01*
X664859Y147267D01*
X664853Y147264D01*
X664773Y147180D01*
X664691Y147096D01*
X664687Y147090D01*
X664684Y147086D01*
X664676Y147069D01*
X664610Y146949D01*
X664365Y146357D01*
X661363Y143355D01*
X657442Y141731D01*
X637958Y141731D01*
X634037Y143355D01*
X631035Y146357D01*
X629411Y150278D01*
X629411Y154522D01*
X631035Y158443D01*
X634037Y161445D01*
X637958Y163069D01*
X657442Y163069D01*
X661363Y161445D01*
X664365Y158443D01*
X664527Y158051D01*
X664589Y157951D01*
X664649Y157851D01*
X664653Y157847D01*
X664657Y157842D01*
X664747Y157767D01*
X664836Y157691D01*
X664841Y157689D01*
X664846Y157685D01*
X664955Y157643D01*
X665064Y157599D01*
X665071Y157598D01*
X665076Y157597D01*
X665094Y157596D01*
X665230Y157581D01*
X707580Y157581D01*
X707670Y157595D01*
X707761Y157603D01*
X707791Y157615D01*
X707823Y157620D01*
X707904Y157663D01*
X707987Y157699D01*
X708020Y157725D01*
X708040Y157736D01*
X708062Y157759D01*
X708118Y157804D01*
X764824Y214510D01*
X764877Y214583D01*
X764937Y214653D01*
X764949Y214683D01*
X764968Y214709D01*
X764995Y214796D01*
X765029Y214881D01*
X765033Y214922D01*
X765040Y214944D01*
X765039Y214977D01*
X765047Y215048D01*
X765047Y219898D01*
X770702Y225553D01*
X778698Y225553D01*
X784353Y219898D01*
X784353Y211902D01*
X778698Y206247D01*
X771248Y206247D01*
X771158Y206233D01*
X771067Y206225D01*
X771037Y206213D01*
X771005Y206208D01*
X770924Y206165D01*
X770841Y206129D01*
X770808Y206103D01*
X770788Y206092D01*
X770766Y206069D01*
X770710Y206024D01*
X712105Y147419D01*
X698342Y147419D01*
X698322Y147416D01*
X698303Y147418D01*
X698201Y147396D01*
X698099Y147380D01*
X698082Y147370D01*
X698062Y147366D01*
X697973Y147313D01*
X697882Y147264D01*
X697868Y147250D01*
X697851Y147240D01*
X697784Y147161D01*
X697712Y147086D01*
X697704Y147068D01*
X697691Y147053D01*
X697652Y146957D01*
X697609Y146863D01*
X697607Y146843D01*
X697599Y146825D01*
X697581Y146658D01*
X697581Y33342D01*
X697584Y33322D01*
X697582Y33303D01*
X697604Y33201D01*
X697620Y33099D01*
X697630Y33082D01*
X697634Y33062D01*
X697687Y32973D01*
X697736Y32882D01*
X697750Y32868D01*
X697760Y32851D01*
X697839Y32784D01*
X697914Y32712D01*
X697932Y32704D01*
X697947Y32691D01*
X698043Y32652D01*
X698137Y32609D01*
X698157Y32607D01*
X698175Y32599D01*
X698342Y32581D01*
X717114Y32581D01*
X717205Y32595D01*
X717295Y32603D01*
X717325Y32615D01*
X717357Y32620D01*
X717438Y32663D01*
X717522Y32699D01*
X717554Y32725D01*
X717575Y32736D01*
X717597Y32759D01*
X717653Y32804D01*
X719902Y35053D01*
X727898Y35053D01*
X733553Y29398D01*
X733553Y26448D01*
X733567Y26358D01*
X733575Y26267D01*
X733587Y26237D01*
X733592Y26205D01*
X733635Y26124D01*
X733671Y26041D01*
X733697Y26008D01*
X733708Y25988D01*
X733731Y25966D01*
X733776Y25910D01*
X741882Y17804D01*
X741955Y17751D01*
X742025Y17691D01*
X742055Y17679D01*
X742081Y17660D01*
X742168Y17633D01*
X742253Y17599D01*
X742294Y17595D01*
X742316Y17588D01*
X742349Y17589D01*
X742420Y17581D01*
X792430Y17581D01*
X792501Y17592D01*
X792573Y17594D01*
X792622Y17612D01*
X792673Y17620D01*
X792737Y17654D01*
X792804Y17679D01*
X792845Y17711D01*
X792891Y17736D01*
X792940Y17788D01*
X792996Y17832D01*
X793024Y17876D01*
X793060Y17914D01*
X793090Y17979D01*
X793129Y18039D01*
X793142Y18090D01*
X793164Y18137D01*
X793171Y18208D01*
X793189Y18278D01*
X793185Y18330D01*
X793191Y18381D01*
X793175Y18452D01*
X793170Y18523D01*
X793150Y18571D01*
X793138Y18622D01*
X793102Y18683D01*
X793074Y18749D01*
X793029Y18805D01*
X793012Y18833D01*
X792994Y18848D01*
X792969Y18880D01*
X790447Y21402D01*
X790447Y29398D01*
X794796Y33747D01*
X794849Y33821D01*
X794909Y33891D01*
X794921Y33921D01*
X794940Y33947D01*
X794967Y34034D01*
X795001Y34119D01*
X795005Y34160D01*
X795012Y34182D01*
X795011Y34214D01*
X795019Y34286D01*
X795019Y54614D01*
X795005Y54704D01*
X794997Y54795D01*
X794985Y54825D01*
X794980Y54857D01*
X794937Y54938D01*
X794901Y55022D01*
X794875Y55054D01*
X794864Y55075D01*
X794841Y55097D01*
X794796Y55153D01*
X790447Y59502D01*
X790447Y67498D01*
X796102Y73153D01*
X804098Y73153D01*
X809753Y67498D01*
X809753Y59502D01*
X805404Y55153D01*
X805351Y55079D01*
X805291Y55009D01*
X805279Y54979D01*
X805260Y54953D01*
X805233Y54866D01*
X805199Y54781D01*
X805195Y54740D01*
X805188Y54718D01*
X805189Y54686D01*
X805181Y54614D01*
X805181Y34286D01*
X805195Y34196D01*
X805203Y34105D01*
X805215Y34075D01*
X805220Y34043D01*
X805263Y33962D01*
X805299Y33878D01*
X805325Y33846D01*
X805336Y33825D01*
X805359Y33803D01*
X805404Y33747D01*
X809753Y29398D01*
X809753Y21402D01*
X807231Y18880D01*
X807189Y18822D01*
X807140Y18770D01*
X807118Y18723D01*
X807088Y18681D01*
X807067Y18612D01*
X807036Y18547D01*
X807031Y18495D01*
X807015Y18445D01*
X807017Y18374D01*
X807009Y18303D01*
X807020Y18252D01*
X807022Y18200D01*
X807046Y18132D01*
X807062Y18062D01*
X807088Y18017D01*
X807106Y17969D01*
X807151Y17913D01*
X807188Y17851D01*
X807227Y17817D01*
X807260Y17777D01*
X807320Y17738D01*
X807375Y17691D01*
X807423Y17672D01*
X807467Y17644D01*
X807536Y17626D01*
X807603Y17599D01*
X807674Y17591D01*
X807705Y17583D01*
X807729Y17585D01*
X807770Y17581D01*
X847580Y17581D01*
X847670Y17595D01*
X847761Y17603D01*
X847791Y17615D01*
X847823Y17620D01*
X847904Y17663D01*
X847987Y17699D01*
X848020Y17725D01*
X848040Y17736D01*
X848062Y17759D01*
X848118Y17804D01*
X853724Y23410D01*
X853777Y23483D01*
X853837Y23553D01*
X853849Y23583D01*
X853868Y23609D01*
X853895Y23696D01*
X853929Y23781D01*
X853933Y23822D01*
X853940Y23844D01*
X853939Y23877D01*
X853947Y23948D01*
X853947Y29398D01*
X859602Y35053D01*
X867598Y35053D01*
X873253Y29398D01*
X873253Y21402D01*
X867598Y15747D01*
X860748Y15747D01*
X860658Y15733D01*
X860567Y15725D01*
X860537Y15713D01*
X860505Y15708D01*
X860425Y15665D01*
X860341Y15629D01*
X860308Y15603D01*
X860288Y15592D01*
X860286Y15590D01*
X860285Y15590D01*
X860265Y15569D01*
X860210Y15524D01*
X857924Y13238D01*
X857882Y13180D01*
X857832Y13128D01*
X857810Y13081D01*
X857780Y13039D01*
X857759Y12970D01*
X857729Y12905D01*
X857723Y12853D01*
X857708Y12803D01*
X857709Y12732D01*
X857702Y12661D01*
X857713Y12610D01*
X857714Y12558D01*
X857739Y12490D01*
X857754Y12420D01*
X857781Y12376D01*
X857798Y12327D01*
X857843Y12271D01*
X857880Y12209D01*
X857920Y12175D01*
X857952Y12135D01*
X858012Y12096D01*
X858067Y12049D01*
X858115Y12030D01*
X858159Y12002D01*
X858229Y11984D01*
X858295Y11957D01*
X858366Y11949D01*
X858398Y11941D01*
X858421Y11943D01*
X858462Y11939D01*
X976378Y11939D01*
X976398Y11942D01*
X976417Y11940D01*
X976519Y11962D01*
X976621Y11979D01*
X976638Y11988D01*
X976658Y11992D01*
X976747Y12045D01*
X976838Y12094D01*
X976852Y12108D01*
X976869Y12118D01*
X976936Y12197D01*
X977008Y12272D01*
X977016Y12290D01*
X977029Y12305D01*
X977068Y12401D01*
X977111Y12495D01*
X977113Y12515D01*
X977121Y12533D01*
X977139Y12700D01*
X977139Y533400D01*
X977136Y533418D01*
X977138Y533434D01*
X977138Y533436D01*
X977138Y533439D01*
X977116Y533541D01*
X977100Y533643D01*
X977090Y533660D01*
X977086Y533680D01*
X977033Y533769D01*
X976984Y533860D01*
X976970Y533874D01*
X976960Y533891D01*
X976881Y533958D01*
X976806Y534030D01*
X976788Y534038D01*
X976773Y534051D01*
X976677Y534090D01*
X976583Y534133D01*
X976563Y534135D01*
X976545Y534143D01*
X976378Y534161D01*
X12700Y534161D01*
X12680Y534158D01*
X12661Y534160D01*
X12559Y534138D01*
X12457Y534122D01*
X12440Y534112D01*
X12420Y534108D01*
X12331Y534055D01*
X12240Y534006D01*
X12226Y533992D01*
X12209Y533982D01*
X12142Y533903D01*
X12071Y533828D01*
X12062Y533810D01*
X12049Y533795D01*
X12010Y533699D01*
X11967Y533605D01*
X11965Y533585D01*
X11957Y533567D01*
X11939Y533400D01*
X11939Y493388D01*
X11950Y493317D01*
X11952Y493246D01*
X11970Y493197D01*
X11979Y493145D01*
X12012Y493082D01*
X12037Y493015D01*
X12069Y492974D01*
X12094Y492928D01*
X12146Y492879D01*
X12190Y492823D01*
X12234Y492794D01*
X12272Y492759D01*
X12337Y492728D01*
X12397Y492690D01*
X12448Y492677D01*
X12495Y492655D01*
X12566Y492647D01*
X12636Y492630D01*
X12688Y492634D01*
X12739Y492628D01*
X12810Y492643D01*
X12881Y492649D01*
X12929Y492669D01*
X12980Y492680D01*
X13041Y492717D01*
X13107Y492745D01*
X13163Y492790D01*
X13191Y492806D01*
X13206Y492824D01*
X13238Y492850D01*
X15137Y494749D01*
X35663Y494749D01*
X37449Y492963D01*
X37449Y472437D01*
X35663Y470651D01*
X31242Y470651D01*
X31222Y470648D01*
X31203Y470650D01*
X31101Y470628D01*
X30999Y470612D01*
X30982Y470602D01*
X30962Y470598D01*
X30873Y470545D01*
X30782Y470496D01*
X30768Y470482D01*
X30751Y470472D01*
X30684Y470393D01*
X30612Y470318D01*
X30604Y470300D01*
X30591Y470285D01*
X30552Y470189D01*
X30509Y470095D01*
X30507Y470075D01*
X30499Y470057D01*
X30481Y469890D01*
X30481Y415286D01*
X30495Y415196D01*
X30503Y415105D01*
X30515Y415075D01*
X30520Y415043D01*
X30563Y414962D01*
X30599Y414878D01*
X30625Y414846D01*
X30636Y414825D01*
X30659Y414803D01*
X30704Y414747D01*
X35053Y410398D01*
X35053Y402402D01*
X29398Y396747D01*
X21402Y396747D01*
X15747Y402402D01*
X15747Y410398D01*
X20096Y414747D01*
X20149Y414821D01*
X20209Y414891D01*
X20221Y414921D01*
X20240Y414947D01*
X20267Y415034D01*
X20301Y415119D01*
X20305Y415160D01*
X20312Y415182D01*
X20311Y415214D01*
X20319Y415286D01*
X20319Y469890D01*
X20316Y469910D01*
X20318Y469929D01*
X20296Y470031D01*
X20280Y470133D01*
X20270Y470150D01*
X20266Y470170D01*
X20213Y470259D01*
X20164Y470350D01*
X20150Y470364D01*
X20140Y470381D01*
X20061Y470448D01*
X19986Y470520D01*
X19968Y470528D01*
X19953Y470541D01*
X19857Y470580D01*
X19763Y470623D01*
X19743Y470625D01*
X19725Y470633D01*
X19558Y470651D01*
X15137Y470651D01*
X13238Y472550D01*
X13180Y472592D01*
X13128Y472641D01*
X13081Y472663D01*
X13039Y472694D01*
X12970Y472715D01*
X12905Y472745D01*
X12853Y472751D01*
X12803Y472766D01*
X12732Y472764D01*
X12661Y472772D01*
X12610Y472761D01*
X12558Y472760D01*
X12490Y472735D01*
X12420Y472720D01*
X12376Y472693D01*
X12327Y472675D01*
X12271Y472630D01*
X12209Y472594D01*
X12175Y472554D01*
X12135Y472522D01*
X12096Y472461D01*
X12049Y472407D01*
X12030Y472358D01*
X12002Y472315D01*
X11984Y472245D01*
X11957Y472179D01*
X11949Y472107D01*
X11941Y472076D01*
X11943Y472053D01*
X11939Y472012D01*
X11939Y12700D01*
X11942Y12680D01*
X11940Y12661D01*
X11962Y12559D01*
X11979Y12457D01*
X11988Y12440D01*
X11992Y12420D01*
X12045Y12331D01*
X12094Y12240D01*
X12108Y12226D01*
X12118Y12209D01*
X12197Y12142D01*
X12272Y12071D01*
X12290Y12062D01*
X12305Y12049D01*
X12401Y12010D01*
X12495Y11967D01*
X12515Y11965D01*
X12533Y11957D01*
X12700Y11939D01*
X320655Y11939D01*
X320725Y11950D01*
G37*
%LPC*%
G36*
X328280Y38607D02*
X328280Y38607D01*
X324732Y40077D01*
X322017Y42792D01*
X320547Y46340D01*
X320547Y50180D01*
X322017Y53728D01*
X324732Y56443D01*
X324917Y56520D01*
X325016Y56581D01*
X325117Y56641D01*
X325121Y56646D01*
X325126Y56649D01*
X325201Y56739D01*
X325277Y56828D01*
X325279Y56834D01*
X325283Y56839D01*
X325325Y56947D01*
X325369Y57056D01*
X325370Y57064D01*
X325371Y57069D01*
X325372Y57087D01*
X325387Y57223D01*
X325387Y128915D01*
X326470Y131529D01*
X328578Y133637D01*
X341903Y146962D01*
X341914Y146978D01*
X341930Y146990D01*
X341986Y147078D01*
X342046Y147161D01*
X342052Y147180D01*
X342063Y147197D01*
X342088Y147298D01*
X342119Y147397D01*
X342118Y147416D01*
X342123Y147436D01*
X342115Y147539D01*
X342112Y147642D01*
X342105Y147661D01*
X342104Y147681D01*
X342064Y147776D01*
X342028Y147873D01*
X342015Y147889D01*
X342008Y147907D01*
X341903Y148038D01*
X287277Y202664D01*
X287203Y202717D01*
X287133Y202777D01*
X287103Y202789D01*
X287077Y202808D01*
X286990Y202835D01*
X286905Y202869D01*
X286864Y202873D01*
X286842Y202880D01*
X286810Y202879D01*
X286738Y202887D01*
X204009Y202887D01*
X203939Y202876D01*
X203867Y202874D01*
X203818Y202856D01*
X203767Y202848D01*
X203703Y202814D01*
X203636Y202789D01*
X203595Y202757D01*
X203549Y202732D01*
X203500Y202680D01*
X203444Y202636D01*
X203416Y202592D01*
X203380Y202554D01*
X203350Y202489D01*
X203311Y202429D01*
X203298Y202378D01*
X203276Y202331D01*
X203268Y202260D01*
X203251Y202190D01*
X203255Y202138D01*
X203249Y202087D01*
X203264Y202016D01*
X203270Y201945D01*
X203290Y201897D01*
X203301Y201846D01*
X203338Y201785D01*
X203366Y201719D01*
X203411Y201663D01*
X203428Y201635D01*
X203445Y201620D01*
X203471Y201588D01*
X204683Y200376D01*
X204757Y200323D01*
X204827Y200263D01*
X204857Y200251D01*
X204883Y200232D01*
X204970Y200205D01*
X205055Y200171D01*
X205096Y200167D01*
X205118Y200160D01*
X205150Y200161D01*
X205222Y200153D01*
X207198Y200153D01*
X212853Y194498D01*
X212853Y186502D01*
X207198Y180847D01*
X199202Y180847D01*
X193547Y186502D01*
X193547Y191078D01*
X193533Y191169D01*
X193525Y191259D01*
X193513Y191289D01*
X193508Y191321D01*
X193465Y191402D01*
X193429Y191486D01*
X193403Y191518D01*
X193392Y191539D01*
X193369Y191561D01*
X193324Y191617D01*
X182277Y202664D01*
X182203Y202717D01*
X182133Y202777D01*
X182103Y202789D01*
X182077Y202808D01*
X181990Y202835D01*
X181905Y202869D01*
X181864Y202873D01*
X181842Y202880D01*
X181810Y202879D01*
X181738Y202887D01*
X145374Y202887D01*
X145354Y202884D01*
X145335Y202886D01*
X145233Y202864D01*
X145131Y202848D01*
X145114Y202838D01*
X145094Y202834D01*
X145005Y202781D01*
X144914Y202732D01*
X144900Y202718D01*
X144883Y202708D01*
X144816Y202629D01*
X144744Y202554D01*
X144736Y202536D01*
X144723Y202521D01*
X144684Y202425D01*
X144641Y202331D01*
X144639Y202311D01*
X144631Y202293D01*
X144613Y202126D01*
X144613Y61290D01*
X144627Y61200D01*
X144635Y61109D01*
X144647Y61080D01*
X144652Y61048D01*
X144695Y60967D01*
X144731Y60883D01*
X144757Y60851D01*
X144768Y60830D01*
X144791Y60808D01*
X144836Y60752D01*
X150369Y55219D01*
X150369Y46381D01*
X144119Y40131D01*
X135281Y40131D01*
X129031Y46381D01*
X129031Y55219D01*
X130164Y56352D01*
X130212Y56419D01*
X130218Y56424D01*
X130219Y56428D01*
X130277Y56496D01*
X130289Y56526D01*
X130308Y56552D01*
X130335Y56639D01*
X130369Y56724D01*
X130373Y56765D01*
X130380Y56787D01*
X130379Y56819D01*
X130387Y56890D01*
X130387Y75991D01*
X130376Y76061D01*
X130374Y76133D01*
X130356Y76182D01*
X130348Y76233D01*
X130314Y76297D01*
X130289Y76364D01*
X130257Y76405D01*
X130232Y76451D01*
X130180Y76500D01*
X130136Y76556D01*
X130092Y76584D01*
X130054Y76620D01*
X129989Y76650D01*
X129929Y76689D01*
X129878Y76702D01*
X129831Y76724D01*
X129760Y76732D01*
X129690Y76749D01*
X129638Y76745D01*
X129587Y76751D01*
X129516Y76736D01*
X129445Y76730D01*
X129397Y76710D01*
X129346Y76699D01*
X129285Y76662D01*
X129219Y76634D01*
X129163Y76589D01*
X129135Y76572D01*
X129120Y76555D01*
X129088Y76529D01*
X129029Y76470D01*
X126415Y75387D01*
X73262Y75387D01*
X73171Y75373D01*
X73081Y75365D01*
X73051Y75353D01*
X73019Y75348D01*
X72938Y75305D01*
X72854Y75269D01*
X72822Y75243D01*
X72801Y75232D01*
X72779Y75209D01*
X72723Y75164D01*
X59819Y62260D01*
X59777Y62202D01*
X59728Y62150D01*
X59706Y62103D01*
X59676Y62061D01*
X59655Y61992D01*
X59624Y61927D01*
X59619Y61875D01*
X59603Y61825D01*
X59605Y61754D01*
X59597Y61683D01*
X59608Y61632D01*
X59610Y61580D01*
X59634Y61512D01*
X59649Y61442D01*
X59676Y61397D01*
X59694Y61349D01*
X59739Y61293D01*
X59776Y61231D01*
X59815Y61197D01*
X59848Y61157D01*
X59908Y61118D01*
X59963Y61071D01*
X60011Y61052D01*
X60055Y61024D01*
X60124Y61006D01*
X60191Y60979D01*
X60262Y60971D01*
X60293Y60963D01*
X60317Y60965D01*
X60357Y60961D01*
X61977Y60961D01*
X61977Y52323D01*
X53339Y52323D01*
X53339Y53943D01*
X53328Y54013D01*
X53326Y54085D01*
X53308Y54134D01*
X53300Y54185D01*
X53266Y54249D01*
X53241Y54316D01*
X53209Y54357D01*
X53184Y54403D01*
X53132Y54452D01*
X53088Y54508D01*
X53044Y54536D01*
X53006Y54572D01*
X52941Y54602D01*
X52881Y54641D01*
X52830Y54654D01*
X52783Y54676D01*
X52712Y54684D01*
X52642Y54701D01*
X52590Y54697D01*
X52539Y54703D01*
X52468Y54687D01*
X52397Y54682D01*
X52349Y54662D01*
X52298Y54650D01*
X52237Y54614D01*
X52171Y54586D01*
X52115Y54541D01*
X52087Y54524D01*
X52072Y54507D01*
X52040Y54481D01*
X48992Y51433D01*
X48939Y51359D01*
X48879Y51289D01*
X48867Y51259D01*
X48848Y51233D01*
X48821Y51146D01*
X48787Y51061D01*
X48783Y51020D01*
X48776Y50998D01*
X48777Y50966D01*
X48769Y50894D01*
X48769Y46381D01*
X42519Y40131D01*
X33681Y40131D01*
X27431Y46381D01*
X27431Y55219D01*
X33681Y61469D01*
X38594Y61469D01*
X38685Y61483D01*
X38775Y61491D01*
X38805Y61503D01*
X38837Y61508D01*
X38918Y61551D01*
X39002Y61587D01*
X39034Y61613D01*
X39055Y61624D01*
X39077Y61647D01*
X39133Y61692D01*
X65971Y88530D01*
X68585Y89613D01*
X88889Y89613D01*
X88960Y89624D01*
X89032Y89626D01*
X89081Y89644D01*
X89132Y89652D01*
X89195Y89686D01*
X89263Y89711D01*
X89304Y89743D01*
X89349Y89768D01*
X89399Y89819D01*
X89455Y89864D01*
X89483Y89908D01*
X89519Y89946D01*
X89549Y90011D01*
X89588Y90071D01*
X89601Y90122D01*
X89622Y90169D01*
X89630Y90240D01*
X89648Y90310D01*
X89644Y90362D01*
X89650Y90413D01*
X89634Y90484D01*
X89629Y90555D01*
X89608Y90603D01*
X89597Y90654D01*
X89561Y90715D01*
X89532Y90781D01*
X89488Y90837D01*
X89471Y90865D01*
X89453Y90880D01*
X89428Y90912D01*
X89209Y91131D01*
X88169Y93641D01*
X88169Y94330D01*
X88155Y94420D01*
X88147Y94511D01*
X88135Y94541D01*
X88130Y94573D01*
X88087Y94654D01*
X88051Y94737D01*
X88025Y94770D01*
X88014Y94790D01*
X87991Y94812D01*
X87946Y94868D01*
X65690Y117124D01*
X65617Y117177D01*
X65547Y117237D01*
X65517Y117249D01*
X65491Y117268D01*
X65404Y117295D01*
X65319Y117329D01*
X65278Y117333D01*
X65256Y117340D01*
X65223Y117339D01*
X65152Y117347D01*
X54976Y117347D01*
X51428Y118817D01*
X48713Y121532D01*
X47243Y125080D01*
X47243Y128920D01*
X48713Y132468D01*
X51428Y135183D01*
X54976Y136653D01*
X72024Y136653D01*
X75572Y135183D01*
X78287Y132468D01*
X79757Y128920D01*
X79757Y125080D01*
X78287Y121532D01*
X77508Y120753D01*
X77497Y120737D01*
X77481Y120725D01*
X77425Y120638D01*
X77365Y120554D01*
X77359Y120535D01*
X77348Y120518D01*
X77323Y120417D01*
X77292Y120319D01*
X77293Y120299D01*
X77288Y120279D01*
X77296Y120176D01*
X77299Y120073D01*
X77306Y120054D01*
X77307Y120034D01*
X77348Y119939D01*
X77383Y119842D01*
X77396Y119826D01*
X77404Y119808D01*
X77508Y119677D01*
X95132Y102054D01*
X95205Y102001D01*
X95275Y101941D01*
X95305Y101929D01*
X95331Y101910D01*
X95418Y101883D01*
X95503Y101849D01*
X95544Y101845D01*
X95566Y101838D01*
X95599Y101839D01*
X95670Y101831D01*
X96359Y101831D01*
X98869Y100791D01*
X100791Y98869D01*
X101831Y96359D01*
X101831Y93641D01*
X100791Y91131D01*
X100572Y90912D01*
X100531Y90854D01*
X100481Y90802D01*
X100459Y90755D01*
X100429Y90713D01*
X100408Y90644D01*
X100378Y90579D01*
X100372Y90527D01*
X100356Y90477D01*
X100358Y90406D01*
X100350Y90335D01*
X100361Y90284D01*
X100363Y90232D01*
X100387Y90164D01*
X100403Y90094D01*
X100429Y90049D01*
X100447Y90001D01*
X100492Y89945D01*
X100529Y89883D01*
X100568Y89849D01*
X100601Y89809D01*
X100661Y89770D01*
X100716Y89723D01*
X100764Y89704D01*
X100808Y89676D01*
X100877Y89658D01*
X100944Y89631D01*
X101015Y89623D01*
X101046Y89615D01*
X101070Y89617D01*
X101111Y89613D01*
X126415Y89613D01*
X129029Y88530D01*
X129088Y88471D01*
X129146Y88429D01*
X129198Y88380D01*
X129245Y88358D01*
X129287Y88328D01*
X129356Y88307D01*
X129421Y88276D01*
X129473Y88271D01*
X129522Y88255D01*
X129594Y88257D01*
X129665Y88249D01*
X129716Y88260D01*
X129768Y88262D01*
X129836Y88286D01*
X129906Y88301D01*
X129951Y88328D01*
X129999Y88346D01*
X130055Y88391D01*
X130117Y88428D01*
X130151Y88467D01*
X130191Y88500D01*
X130230Y88560D01*
X130277Y88615D01*
X130296Y88663D01*
X130324Y88707D01*
X130342Y88776D01*
X130369Y88843D01*
X130377Y88914D01*
X130385Y88945D01*
X130383Y88969D01*
X130387Y89009D01*
X130387Y204238D01*
X130373Y204329D01*
X130365Y204419D01*
X130353Y204449D01*
X130348Y204481D01*
X130305Y204562D01*
X130269Y204646D01*
X130243Y204678D01*
X130232Y204699D01*
X130209Y204721D01*
X130164Y204777D01*
X128863Y206078D01*
X103517Y231424D01*
X103443Y231477D01*
X103373Y231537D01*
X103343Y231549D01*
X103317Y231568D01*
X103230Y231595D01*
X103145Y231629D01*
X103104Y231633D01*
X103082Y231640D01*
X103050Y231639D01*
X102979Y231647D01*
X97602Y231647D01*
X91947Y237302D01*
X91947Y245298D01*
X97602Y250953D01*
X105598Y250953D01*
X111253Y245298D01*
X111253Y244121D01*
X111257Y244096D01*
X111255Y244081D01*
X111268Y244020D01*
X111275Y243940D01*
X111287Y243911D01*
X111292Y243879D01*
X111304Y243858D01*
X111307Y243840D01*
X111341Y243783D01*
X111371Y243714D01*
X111397Y243682D01*
X111408Y243661D01*
X111423Y243646D01*
X111434Y243629D01*
X111451Y243615D01*
X111476Y243583D01*
X137723Y217336D01*
X137797Y217283D01*
X137867Y217223D01*
X137897Y217211D01*
X137923Y217192D01*
X138010Y217165D01*
X138095Y217131D01*
X138136Y217127D01*
X138158Y217120D01*
X138190Y217121D01*
X138261Y217113D01*
X173491Y217113D01*
X173561Y217124D01*
X173633Y217126D01*
X173682Y217144D01*
X173733Y217152D01*
X173797Y217186D01*
X173864Y217211D01*
X173905Y217243D01*
X173951Y217268D01*
X174000Y217320D01*
X174056Y217364D01*
X174084Y217408D01*
X174120Y217446D01*
X174150Y217511D01*
X174189Y217571D01*
X174202Y217622D01*
X174224Y217669D01*
X174232Y217740D01*
X174249Y217810D01*
X174245Y217862D01*
X174251Y217913D01*
X174236Y217984D01*
X174230Y218055D01*
X174210Y218103D01*
X174199Y218154D01*
X174162Y218215D01*
X174134Y218281D01*
X174089Y218337D01*
X174072Y218365D01*
X174055Y218380D01*
X174029Y218412D01*
X173970Y218471D01*
X172887Y221085D01*
X172887Y305991D01*
X172876Y306061D01*
X172874Y306133D01*
X172856Y306182D01*
X172848Y306233D01*
X172814Y306297D01*
X172789Y306364D01*
X172757Y306405D01*
X172732Y306451D01*
X172680Y306500D01*
X172636Y306556D01*
X172592Y306584D01*
X172554Y306620D01*
X172489Y306650D01*
X172429Y306689D01*
X172378Y306702D01*
X172331Y306724D01*
X172260Y306732D01*
X172190Y306749D01*
X172138Y306745D01*
X172087Y306751D01*
X172016Y306736D01*
X171945Y306730D01*
X171897Y306710D01*
X171846Y306699D01*
X171785Y306662D01*
X171719Y306634D01*
X171663Y306589D01*
X171635Y306572D01*
X171620Y306555D01*
X171588Y306529D01*
X168880Y303821D01*
X168827Y303747D01*
X168767Y303677D01*
X168755Y303647D01*
X168736Y303621D01*
X168709Y303534D01*
X168675Y303449D01*
X168671Y303408D01*
X168664Y303386D01*
X168665Y303354D01*
X168657Y303282D01*
X168657Y302880D01*
X167187Y299332D01*
X164472Y296617D01*
X160924Y295147D01*
X143876Y295147D01*
X140328Y296617D01*
X137613Y299332D01*
X136143Y302880D01*
X136143Y306720D01*
X137613Y310268D01*
X140328Y312983D01*
X143876Y314453D01*
X159078Y314453D01*
X159169Y314467D01*
X159259Y314475D01*
X159289Y314487D01*
X159321Y314492D01*
X159402Y314535D01*
X159486Y314571D01*
X159518Y314597D01*
X159539Y314608D01*
X159561Y314631D01*
X159617Y314676D01*
X171363Y326422D01*
X172664Y327723D01*
X172717Y327797D01*
X172777Y327867D01*
X172789Y327897D01*
X172808Y327923D01*
X172835Y328010D01*
X172869Y328095D01*
X172873Y328136D01*
X172880Y328158D01*
X172879Y328190D01*
X172887Y328262D01*
X172887Y410046D01*
X172873Y410136D01*
X172865Y410227D01*
X172853Y410257D01*
X172848Y410289D01*
X172805Y410370D01*
X172769Y410454D01*
X172743Y410486D01*
X172732Y410507D01*
X172709Y410529D01*
X172683Y410562D01*
X172682Y410563D01*
X172680Y410565D01*
X172664Y410585D01*
X168147Y415102D01*
X168147Y423098D01*
X173802Y428753D01*
X181798Y428753D01*
X187453Y423098D01*
X187453Y415102D01*
X187336Y414985D01*
X187283Y414911D01*
X187223Y414841D01*
X187211Y414811D01*
X187192Y414785D01*
X187165Y414698D01*
X187131Y414613D01*
X187127Y414572D01*
X187120Y414550D01*
X187121Y414518D01*
X187113Y414446D01*
X187113Y407874D01*
X187116Y407854D01*
X187114Y407835D01*
X187136Y407733D01*
X187152Y407631D01*
X187162Y407614D01*
X187166Y407594D01*
X187219Y407505D01*
X187268Y407414D01*
X187282Y407400D01*
X187292Y407383D01*
X187371Y407316D01*
X187446Y407244D01*
X187464Y407236D01*
X187479Y407223D01*
X187575Y407184D01*
X187669Y407141D01*
X187689Y407139D01*
X187707Y407131D01*
X187874Y407113D01*
X229238Y407113D01*
X229329Y407127D01*
X229419Y407135D01*
X229449Y407147D01*
X229481Y407152D01*
X229562Y407195D01*
X229646Y407231D01*
X229678Y407257D01*
X229699Y407268D01*
X229721Y407291D01*
X229777Y407336D01*
X261811Y439370D01*
X261853Y439428D01*
X261902Y439480D01*
X261924Y439527D01*
X261954Y439569D01*
X261975Y439638D01*
X262006Y439703D01*
X262011Y439755D01*
X262027Y439805D01*
X262025Y439876D01*
X262033Y439947D01*
X262022Y439998D01*
X262020Y440050D01*
X261996Y440118D01*
X261981Y440188D01*
X261954Y440233D01*
X261936Y440281D01*
X261891Y440337D01*
X261854Y440399D01*
X261815Y440433D01*
X261782Y440473D01*
X261722Y440512D01*
X261667Y440559D01*
X261619Y440578D01*
X261575Y440606D01*
X261506Y440624D01*
X261439Y440651D01*
X261368Y440659D01*
X261337Y440667D01*
X261313Y440665D01*
X261273Y440669D01*
X261141Y440669D01*
X258631Y441709D01*
X256709Y443631D01*
X255669Y446141D01*
X255669Y448859D01*
X256709Y451369D01*
X258631Y453291D01*
X261141Y454331D01*
X261830Y454331D01*
X261920Y454345D01*
X262011Y454353D01*
X262041Y454365D01*
X262073Y454370D01*
X262154Y454413D01*
X262237Y454449D01*
X262270Y454475D01*
X262290Y454486D01*
X262312Y454509D01*
X262368Y454554D01*
X277675Y469860D01*
X277716Y469918D01*
X277766Y469970D01*
X277788Y470017D01*
X277818Y470059D01*
X277839Y470128D01*
X277869Y470193D01*
X277875Y470245D01*
X277890Y470295D01*
X277889Y470366D01*
X277896Y470437D01*
X277885Y470488D01*
X277884Y470540D01*
X277859Y470608D01*
X277844Y470678D01*
X277817Y470723D01*
X277800Y470771D01*
X277755Y470827D01*
X277718Y470889D01*
X277678Y470923D01*
X277646Y470963D01*
X277586Y471002D01*
X277531Y471049D01*
X277483Y471068D01*
X277439Y471096D01*
X277370Y471114D01*
X277303Y471141D01*
X277232Y471149D01*
X277200Y471157D01*
X277177Y471155D01*
X277136Y471159D01*
X273323Y471159D01*
X273323Y481177D01*
X283341Y481177D01*
X283341Y477364D01*
X283352Y477293D01*
X283354Y477221D01*
X283372Y477172D01*
X283380Y477121D01*
X283414Y477058D01*
X283439Y476990D01*
X283471Y476950D01*
X283496Y476904D01*
X283547Y476854D01*
X283592Y476798D01*
X283636Y476770D01*
X283674Y476734D01*
X283739Y476704D01*
X283799Y476665D01*
X283850Y476653D01*
X283897Y476631D01*
X283968Y476623D01*
X284038Y476605D01*
X284090Y476609D01*
X284141Y476604D01*
X284212Y476619D01*
X284283Y476624D01*
X284331Y476645D01*
X284382Y476656D01*
X284443Y476693D01*
X284509Y476721D01*
X284565Y476765D01*
X284593Y476782D01*
X284608Y476800D01*
X284640Y476825D01*
X336897Y529083D01*
X593103Y529083D01*
X596302Y525884D01*
X601790Y520395D01*
X601884Y520328D01*
X601978Y520257D01*
X601984Y520255D01*
X601990Y520252D01*
X602101Y520218D01*
X602212Y520181D01*
X602219Y520181D01*
X602225Y520179D01*
X602341Y520183D01*
X602458Y520184D01*
X602466Y520186D01*
X602471Y520186D01*
X602488Y520192D01*
X602619Y520230D01*
X606821Y521971D01*
X612379Y521971D01*
X617514Y519844D01*
X621444Y515914D01*
X623571Y510779D01*
X623571Y505221D01*
X621444Y500086D01*
X617514Y496156D01*
X612379Y494029D01*
X606821Y494029D01*
X601686Y496156D01*
X597756Y500086D01*
X595629Y505221D01*
X595629Y510779D01*
X595847Y511304D01*
X595873Y511417D01*
X595902Y511531D01*
X595901Y511537D01*
X595903Y511543D01*
X595892Y511660D01*
X595883Y511776D01*
X595880Y511782D01*
X595880Y511788D01*
X595832Y511896D01*
X595786Y512002D01*
X595782Y512008D01*
X595780Y512013D01*
X595767Y512027D01*
X595682Y512133D01*
X589116Y518698D01*
X589043Y518751D01*
X588973Y518811D01*
X588943Y518823D01*
X588917Y518842D01*
X588830Y518869D01*
X588745Y518903D01*
X588704Y518907D01*
X588682Y518914D01*
X588649Y518913D01*
X588578Y518921D01*
X491674Y518921D01*
X491603Y518910D01*
X491532Y518908D01*
X491483Y518890D01*
X491431Y518882D01*
X491368Y518848D01*
X491301Y518823D01*
X491260Y518791D01*
X491214Y518766D01*
X491165Y518714D01*
X491109Y518670D01*
X491080Y518626D01*
X491045Y518588D01*
X491014Y518523D01*
X490976Y518463D01*
X490963Y518412D01*
X490941Y518365D01*
X490933Y518294D01*
X490916Y518224D01*
X490920Y518172D01*
X490914Y518121D01*
X490929Y518050D01*
X490935Y517979D01*
X490955Y517931D01*
X490966Y517880D01*
X491003Y517819D01*
X491031Y517753D01*
X491076Y517697D01*
X491092Y517669D01*
X491110Y517654D01*
X491136Y517622D01*
X492844Y515914D01*
X494971Y510779D01*
X494971Y505221D01*
X492844Y500086D01*
X488914Y496156D01*
X483779Y494029D01*
X478221Y494029D01*
X478165Y494052D01*
X478121Y494063D01*
X478079Y494082D01*
X478002Y494091D01*
X477926Y494109D01*
X477880Y494104D01*
X477835Y494109D01*
X477759Y494093D01*
X477681Y494085D01*
X477639Y494067D01*
X477594Y494057D01*
X477527Y494017D01*
X477456Y493986D01*
X477422Y493954D01*
X477383Y493931D01*
X477332Y493872D01*
X477275Y493819D01*
X477253Y493779D01*
X477223Y493744D01*
X477194Y493672D01*
X477157Y493604D01*
X477148Y493558D01*
X477131Y493516D01*
X477116Y493380D01*
X477113Y493362D01*
X477114Y493357D01*
X477113Y493349D01*
X477113Y493262D01*
X477127Y493171D01*
X477135Y493081D01*
X477147Y493051D01*
X477152Y493019D01*
X477195Y492938D01*
X477231Y492854D01*
X477257Y492822D01*
X477268Y492801D01*
X477291Y492779D01*
X477336Y492723D01*
X605223Y364836D01*
X605297Y364783D01*
X605367Y364723D01*
X605397Y364711D01*
X605423Y364692D01*
X605510Y364665D01*
X605595Y364631D01*
X605636Y364627D01*
X605658Y364620D01*
X605690Y364621D01*
X605762Y364613D01*
X636270Y364613D01*
X636290Y364616D01*
X636309Y364614D01*
X636411Y364636D01*
X636513Y364652D01*
X636530Y364662D01*
X636550Y364666D01*
X636639Y364719D01*
X636730Y364768D01*
X636744Y364782D01*
X636761Y364792D01*
X636828Y364871D01*
X636900Y364946D01*
X636908Y364964D01*
X636921Y364979D01*
X636960Y365075D01*
X637003Y365169D01*
X637005Y365189D01*
X637013Y365207D01*
X637026Y365331D01*
X638655Y369263D01*
X641657Y372265D01*
X645578Y373889D01*
X649822Y373889D01*
X653743Y372265D01*
X656745Y369263D01*
X658369Y365342D01*
X658369Y345858D01*
X656745Y341937D01*
X653743Y338935D01*
X649822Y337311D01*
X645578Y337311D01*
X641657Y338935D01*
X638655Y341937D01*
X637031Y345858D01*
X637031Y349626D01*
X637028Y349646D01*
X637030Y349665D01*
X637008Y349767D01*
X636992Y349869D01*
X636982Y349886D01*
X636978Y349906D01*
X636925Y349995D01*
X636876Y350086D01*
X636862Y350100D01*
X636852Y350117D01*
X636773Y350184D01*
X636698Y350256D01*
X636680Y350264D01*
X636665Y350277D01*
X636569Y350316D01*
X636475Y350359D01*
X636455Y350361D01*
X636437Y350369D01*
X636270Y350387D01*
X601085Y350387D01*
X598471Y351470D01*
X478412Y471529D01*
X478354Y471571D01*
X478302Y471620D01*
X478255Y471642D01*
X478213Y471672D01*
X478144Y471693D01*
X478079Y471724D01*
X478027Y471729D01*
X477977Y471745D01*
X477906Y471743D01*
X477835Y471751D01*
X477784Y471740D01*
X477732Y471738D01*
X477664Y471714D01*
X477594Y471699D01*
X477550Y471672D01*
X477501Y471654D01*
X477445Y471609D01*
X477383Y471572D01*
X477349Y471533D01*
X477309Y471500D01*
X477270Y471440D01*
X477223Y471385D01*
X477204Y471337D01*
X477176Y471293D01*
X477158Y471224D01*
X477131Y471157D01*
X477123Y471086D01*
X477115Y471055D01*
X477117Y471031D01*
X477113Y470991D01*
X477113Y438554D01*
X477127Y438464D01*
X477135Y438373D01*
X477147Y438343D01*
X477152Y438311D01*
X477195Y438230D01*
X477231Y438146D01*
X477257Y438114D01*
X477268Y438093D01*
X477291Y438071D01*
X477336Y438015D01*
X479553Y435798D01*
X479553Y427802D01*
X473898Y422147D01*
X465902Y422147D01*
X460247Y427802D01*
X460247Y435798D01*
X462664Y438215D01*
X462717Y438289D01*
X462777Y438359D01*
X462789Y438389D01*
X462808Y438415D01*
X462835Y438502D01*
X462869Y438587D01*
X462873Y438628D01*
X462880Y438650D01*
X462879Y438682D01*
X462887Y438754D01*
X462887Y444626D01*
X462884Y444646D01*
X462886Y444665D01*
X462864Y444767D01*
X462848Y444869D01*
X462838Y444886D01*
X462834Y444906D01*
X462781Y444995D01*
X462732Y445086D01*
X462718Y445100D01*
X462708Y445117D01*
X462629Y445184D01*
X462554Y445256D01*
X462536Y445264D01*
X462521Y445277D01*
X462425Y445316D01*
X462331Y445359D01*
X462311Y445361D01*
X462293Y445369D01*
X462126Y445387D01*
X288262Y445387D01*
X288171Y445373D01*
X288081Y445365D01*
X288051Y445353D01*
X288019Y445348D01*
X287938Y445305D01*
X287854Y445269D01*
X287822Y445243D01*
X287801Y445232D01*
X287779Y445209D01*
X287723Y445164D01*
X240301Y397742D01*
X240259Y397684D01*
X240210Y397632D01*
X240188Y397585D01*
X240158Y397543D01*
X240137Y397474D01*
X240106Y397409D01*
X240101Y397357D01*
X240085Y397307D01*
X240087Y397236D01*
X240079Y397165D01*
X240090Y397114D01*
X240092Y397062D01*
X240116Y396994D01*
X240131Y396924D01*
X240158Y396879D01*
X240176Y396831D01*
X240221Y396775D01*
X240258Y396713D01*
X240297Y396679D01*
X240330Y396639D01*
X240390Y396600D01*
X240445Y396553D01*
X240493Y396534D01*
X240537Y396506D01*
X240606Y396488D01*
X240673Y396461D01*
X240744Y396453D01*
X240775Y396445D01*
X240799Y396447D01*
X240839Y396443D01*
X347343Y396443D01*
X350542Y393244D01*
X378310Y365476D01*
X378383Y365423D01*
X378453Y365363D01*
X378483Y365351D01*
X378509Y365332D01*
X378596Y365305D01*
X378681Y365271D01*
X378722Y365267D01*
X378744Y365260D01*
X378777Y365261D01*
X378848Y365253D01*
X384998Y365253D01*
X390653Y359598D01*
X390653Y351602D01*
X384998Y345947D01*
X377002Y345947D01*
X371347Y351602D01*
X371347Y357752D01*
X371333Y357842D01*
X371325Y357933D01*
X371313Y357963D01*
X371308Y357995D01*
X371265Y358076D01*
X371229Y358160D01*
X371203Y358192D01*
X371192Y358212D01*
X371169Y358235D01*
X371124Y358290D01*
X343356Y386058D01*
X343283Y386111D01*
X343213Y386171D01*
X343183Y386183D01*
X343157Y386202D01*
X343070Y386229D01*
X342985Y386263D01*
X342944Y386267D01*
X342922Y386274D01*
X342889Y386273D01*
X342818Y386281D01*
X334467Y386281D01*
X334421Y386274D01*
X334375Y386276D01*
X334301Y386254D01*
X334224Y386242D01*
X334183Y386220D01*
X334139Y386207D01*
X334075Y386163D01*
X334006Y386126D01*
X333975Y386093D01*
X333937Y386067D01*
X333891Y386005D01*
X333837Y385948D01*
X333818Y385906D01*
X333790Y385870D01*
X333766Y385796D01*
X333733Y385725D01*
X333728Y385679D01*
X333714Y385636D01*
X333715Y385558D01*
X333706Y385481D01*
X333716Y385436D01*
X333717Y385390D01*
X333755Y385258D01*
X333759Y385240D01*
X333761Y385236D01*
X333763Y385229D01*
X334331Y383859D01*
X334331Y381141D01*
X333291Y378631D01*
X332804Y378144D01*
X332751Y378070D01*
X332691Y378000D01*
X332679Y377970D01*
X332660Y377944D01*
X332633Y377857D01*
X332599Y377772D01*
X332595Y377731D01*
X332588Y377709D01*
X332589Y377677D01*
X332581Y377605D01*
X332581Y372420D01*
X332595Y372330D01*
X332603Y372239D01*
X332615Y372209D01*
X332620Y372177D01*
X332663Y372096D01*
X332699Y372013D01*
X332725Y371980D01*
X332736Y371960D01*
X332759Y371938D01*
X332804Y371882D01*
X334265Y370421D01*
X334265Y348656D01*
X331066Y345457D01*
X289276Y303667D01*
X289223Y303593D01*
X289163Y303523D01*
X289151Y303493D01*
X289132Y303467D01*
X289105Y303380D01*
X289071Y303295D01*
X289067Y303254D01*
X289060Y303232D01*
X289061Y303200D01*
X289053Y303129D01*
X289053Y300802D01*
X283398Y295147D01*
X283342Y295147D01*
X283322Y295144D01*
X283303Y295146D01*
X283201Y295124D01*
X283099Y295108D01*
X283082Y295098D01*
X283062Y295094D01*
X282973Y295041D01*
X282882Y294992D01*
X282868Y294978D01*
X282851Y294968D01*
X282784Y294889D01*
X282712Y294814D01*
X282704Y294796D01*
X282691Y294781D01*
X282652Y294685D01*
X282609Y294591D01*
X282607Y294571D01*
X282599Y294553D01*
X282581Y294386D01*
X282581Y280395D01*
X279837Y277652D01*
X279796Y277594D01*
X279746Y277542D01*
X279724Y277495D01*
X279694Y277453D01*
X279673Y277384D01*
X279643Y277319D01*
X279637Y277267D01*
X279622Y277217D01*
X279623Y277146D01*
X279616Y277075D01*
X279627Y277024D01*
X279628Y276972D01*
X279653Y276904D01*
X279668Y276834D01*
X279695Y276789D01*
X279712Y276741D01*
X279757Y276685D01*
X279794Y276623D01*
X279834Y276589D01*
X279866Y276549D01*
X279926Y276510D01*
X279981Y276463D01*
X280029Y276444D01*
X280073Y276416D01*
X280142Y276398D01*
X280209Y276371D01*
X280280Y276363D01*
X280312Y276355D01*
X280335Y276357D01*
X280376Y276353D01*
X283398Y276353D01*
X289053Y270698D01*
X289053Y262702D01*
X284704Y258353D01*
X284661Y258293D01*
X284621Y258251D01*
X284614Y258236D01*
X284591Y258209D01*
X284579Y258179D01*
X284560Y258153D01*
X284533Y258066D01*
X284524Y258043D01*
X284517Y258028D01*
X284517Y258024D01*
X284499Y257981D01*
X284495Y257940D01*
X284488Y257918D01*
X284489Y257886D01*
X284481Y257814D01*
X284481Y237486D01*
X284495Y237395D01*
X284503Y237305D01*
X284515Y237275D01*
X284520Y237243D01*
X284563Y237162D01*
X284599Y237078D01*
X284625Y237046D01*
X284636Y237025D01*
X284659Y237003D01*
X284704Y236947D01*
X289053Y232598D01*
X289053Y224602D01*
X283398Y218947D01*
X275402Y218947D01*
X269747Y224602D01*
X269747Y232598D01*
X274096Y236947D01*
X274149Y237021D01*
X274209Y237091D01*
X274221Y237121D01*
X274240Y237147D01*
X274267Y237234D01*
X274301Y237319D01*
X274305Y237360D01*
X274312Y237382D01*
X274311Y237414D01*
X274319Y237486D01*
X274319Y257814D01*
X274305Y257905D01*
X274297Y257995D01*
X274285Y258025D01*
X274280Y258057D01*
X274259Y258095D01*
X274258Y258102D01*
X274238Y258136D01*
X274237Y258138D01*
X274201Y258222D01*
X274175Y258254D01*
X274164Y258275D01*
X274142Y258295D01*
X274132Y258313D01*
X274119Y258324D01*
X274096Y258353D01*
X270355Y262094D01*
X270339Y262105D01*
X270327Y262121D01*
X270239Y262177D01*
X270156Y262237D01*
X270137Y262243D01*
X270120Y262254D01*
X270019Y262279D01*
X269921Y262310D01*
X269901Y262309D01*
X269881Y262314D01*
X269778Y262306D01*
X269675Y262303D01*
X269656Y262296D01*
X269636Y262295D01*
X269541Y262254D01*
X269444Y262219D01*
X269428Y262206D01*
X269410Y262198D01*
X269279Y262094D01*
X242858Y235673D01*
X242847Y235657D01*
X242831Y235645D01*
X242775Y235557D01*
X242715Y235473D01*
X242709Y235454D01*
X242698Y235438D01*
X242673Y235337D01*
X242642Y235238D01*
X242643Y235218D01*
X242638Y235199D01*
X242646Y235096D01*
X242649Y234992D01*
X242656Y234974D01*
X242657Y234954D01*
X242698Y234859D01*
X242733Y234761D01*
X242746Y234746D01*
X242754Y234728D01*
X242858Y234597D01*
X243387Y234068D01*
X244857Y230520D01*
X244857Y226680D01*
X243387Y223132D01*
X240672Y220417D01*
X237124Y218947D01*
X220076Y218947D01*
X216528Y220417D01*
X213813Y223132D01*
X212343Y226680D01*
X212343Y230520D01*
X213813Y234068D01*
X216528Y236783D01*
X220076Y238253D01*
X230752Y238253D01*
X230842Y238267D01*
X230933Y238275D01*
X230963Y238287D01*
X230995Y238292D01*
X231076Y238335D01*
X231159Y238371D01*
X231192Y238397D01*
X231212Y238408D01*
X231234Y238431D01*
X231290Y238476D01*
X235863Y243048D01*
X235904Y243106D01*
X235954Y243158D01*
X235976Y243205D01*
X236006Y243247D01*
X236027Y243316D01*
X236057Y243381D01*
X236063Y243433D01*
X236078Y243483D01*
X236077Y243554D01*
X236084Y243625D01*
X236073Y243676D01*
X236072Y243728D01*
X236047Y243796D01*
X236032Y243866D01*
X236005Y243911D01*
X235988Y243959D01*
X235943Y244015D01*
X235906Y244077D01*
X235866Y244111D01*
X235834Y244151D01*
X235774Y244190D01*
X235719Y244237D01*
X235671Y244256D01*
X235627Y244284D01*
X235558Y244302D01*
X235491Y244329D01*
X235420Y244337D01*
X235388Y244345D01*
X235365Y244343D01*
X235324Y244347D01*
X220076Y244347D01*
X216528Y245817D01*
X213813Y248532D01*
X212343Y252080D01*
X212343Y255920D01*
X213813Y259468D01*
X216528Y262183D01*
X220076Y263653D01*
X230752Y263653D01*
X230842Y263667D01*
X230933Y263675D01*
X230963Y263687D01*
X230995Y263692D01*
X231076Y263735D01*
X231159Y263771D01*
X231192Y263797D01*
X231212Y263808D01*
X231234Y263831D01*
X231290Y263876D01*
X235863Y268448D01*
X235904Y268506D01*
X235954Y268558D01*
X235976Y268605D01*
X236006Y268647D01*
X236027Y268716D01*
X236057Y268781D01*
X236063Y268833D01*
X236078Y268883D01*
X236077Y268954D01*
X236084Y269025D01*
X236073Y269076D01*
X236072Y269128D01*
X236047Y269196D01*
X236032Y269266D01*
X236005Y269311D01*
X235988Y269359D01*
X235943Y269415D01*
X235906Y269477D01*
X235866Y269511D01*
X235834Y269551D01*
X235774Y269590D01*
X235719Y269637D01*
X235671Y269656D01*
X235627Y269684D01*
X235558Y269702D01*
X235491Y269729D01*
X235420Y269737D01*
X235388Y269745D01*
X235365Y269743D01*
X235324Y269747D01*
X220076Y269747D01*
X216528Y271217D01*
X213813Y273932D01*
X212309Y277563D01*
X212285Y277602D01*
X212269Y277645D01*
X212220Y277706D01*
X212179Y277772D01*
X212144Y277801D01*
X212115Y277837D01*
X212050Y277879D01*
X211990Y277929D01*
X211947Y277945D01*
X211908Y277970D01*
X211833Y277989D01*
X211760Y278017D01*
X211714Y278019D01*
X211670Y278030D01*
X211592Y278024D01*
X211514Y278027D01*
X211470Y278014D01*
X211425Y278011D01*
X211353Y277980D01*
X211278Y277959D01*
X211241Y277933D01*
X211198Y277915D01*
X211092Y277829D01*
X211076Y277819D01*
X211073Y277814D01*
X211067Y277810D01*
X199836Y266578D01*
X199783Y266504D01*
X199723Y266435D01*
X199711Y266405D01*
X199692Y266378D01*
X199665Y266291D01*
X199631Y266207D01*
X199627Y266166D01*
X199620Y266143D01*
X199621Y266111D01*
X199613Y266040D01*
X199613Y217874D01*
X199616Y217854D01*
X199614Y217835D01*
X199636Y217733D01*
X199652Y217631D01*
X199662Y217614D01*
X199666Y217594D01*
X199719Y217505D01*
X199768Y217414D01*
X199782Y217400D01*
X199792Y217383D01*
X199871Y217316D01*
X199946Y217244D01*
X199964Y217236D01*
X199979Y217223D01*
X200075Y217184D01*
X200169Y217141D01*
X200189Y217139D01*
X200207Y217131D01*
X200374Y217113D01*
X291415Y217113D01*
X294029Y216030D01*
X296137Y213922D01*
X349266Y160793D01*
X349282Y160782D01*
X349294Y160766D01*
X349382Y160710D01*
X349465Y160650D01*
X349484Y160644D01*
X349501Y160633D01*
X349602Y160608D01*
X349700Y160577D01*
X349720Y160578D01*
X349740Y160573D01*
X349843Y160581D01*
X349946Y160584D01*
X349965Y160591D01*
X349985Y160592D01*
X350080Y160633D01*
X350177Y160668D01*
X350193Y160681D01*
X350211Y160688D01*
X350342Y160793D01*
X351602Y162053D01*
X359598Y162053D01*
X365253Y156398D01*
X365253Y150122D01*
X365267Y150031D01*
X365275Y149941D01*
X365287Y149911D01*
X365292Y149879D01*
X365335Y149798D01*
X365371Y149714D01*
X365397Y149682D01*
X365408Y149661D01*
X365431Y149639D01*
X365476Y149583D01*
X377723Y137336D01*
X377797Y137283D01*
X377867Y137223D01*
X377897Y137211D01*
X377923Y137192D01*
X378010Y137165D01*
X378095Y137131D01*
X378136Y137127D01*
X378158Y137120D01*
X378190Y137121D01*
X378262Y137113D01*
X436415Y137113D01*
X439029Y136030D01*
X459787Y115272D01*
X459803Y115260D01*
X459816Y115244D01*
X459903Y115188D01*
X459987Y115128D01*
X460006Y115122D01*
X460023Y115111D01*
X460123Y115086D01*
X460222Y115056D01*
X460242Y115056D01*
X460261Y115051D01*
X460364Y115059D01*
X460468Y115062D01*
X460487Y115069D01*
X460507Y115071D01*
X460601Y115111D01*
X460699Y115147D01*
X460715Y115159D01*
X460733Y115167D01*
X460864Y115272D01*
X463857Y118265D01*
X467778Y119889D01*
X472022Y119889D01*
X475871Y118294D01*
X475985Y118268D01*
X476098Y118239D01*
X476104Y118240D01*
X476110Y118238D01*
X476227Y118249D01*
X476343Y118258D01*
X476349Y118261D01*
X476355Y118261D01*
X476463Y118309D01*
X476570Y118355D01*
X476575Y118359D01*
X476580Y118361D01*
X476594Y118374D01*
X476701Y118460D01*
X490164Y131923D01*
X490217Y131997D01*
X490277Y132067D01*
X490289Y132097D01*
X490308Y132123D01*
X490335Y132210D01*
X490369Y132295D01*
X490373Y132336D01*
X490380Y132358D01*
X490379Y132390D01*
X490387Y132462D01*
X490387Y206846D01*
X490386Y206855D01*
X490386Y206858D01*
X490383Y206875D01*
X490373Y206936D01*
X490365Y207027D01*
X490353Y207057D01*
X490348Y207089D01*
X490305Y207170D01*
X490269Y207254D01*
X490243Y207286D01*
X490232Y207307D01*
X490209Y207329D01*
X490164Y207385D01*
X485647Y211902D01*
X485647Y219898D01*
X491302Y225553D01*
X499298Y225553D01*
X504953Y219898D01*
X504953Y211902D01*
X504836Y211785D01*
X504783Y211711D01*
X504723Y211641D01*
X504711Y211611D01*
X504692Y211585D01*
X504665Y211498D01*
X504631Y211413D01*
X504627Y211372D01*
X504620Y211350D01*
X504621Y211318D01*
X504613Y211246D01*
X504613Y205374D01*
X504616Y205354D01*
X504614Y205335D01*
X504636Y205233D01*
X504652Y205131D01*
X504662Y205114D01*
X504666Y205094D01*
X504719Y205005D01*
X504768Y204914D01*
X504782Y204900D01*
X504792Y204883D01*
X504871Y204816D01*
X504946Y204744D01*
X504964Y204736D01*
X504979Y204723D01*
X505075Y204684D01*
X505169Y204641D01*
X505189Y204639D01*
X505207Y204631D01*
X505374Y204613D01*
X636738Y204613D01*
X636829Y204627D01*
X636919Y204635D01*
X636949Y204647D01*
X636981Y204652D01*
X637062Y204695D01*
X637146Y204731D01*
X637178Y204757D01*
X637199Y204768D01*
X637221Y204791D01*
X637277Y204836D01*
X650524Y218083D01*
X650577Y218157D01*
X650637Y218227D01*
X650649Y218257D01*
X650668Y218283D01*
X650695Y218370D01*
X650729Y218455D01*
X650733Y218496D01*
X650740Y218518D01*
X650739Y218550D01*
X650747Y218622D01*
X650747Y219898D01*
X656402Y225553D01*
X660178Y225553D01*
X660269Y225567D01*
X660359Y225575D01*
X660389Y225587D01*
X660421Y225592D01*
X660502Y225635D01*
X660586Y225671D01*
X660618Y225697D01*
X660639Y225708D01*
X660661Y225731D01*
X660717Y225776D01*
X672664Y237723D01*
X672717Y237797D01*
X672777Y237867D01*
X672789Y237897D01*
X672808Y237923D01*
X672835Y238010D01*
X672869Y238095D01*
X672873Y238136D01*
X672880Y238158D01*
X672879Y238190D01*
X672887Y238262D01*
X672887Y338915D01*
X673970Y341529D01*
X676078Y343637D01*
X681903Y349462D01*
X681914Y349478D01*
X681930Y349490D01*
X681986Y349578D01*
X682046Y349661D01*
X682052Y349680D01*
X682063Y349697D01*
X682088Y349798D01*
X682119Y349897D01*
X682118Y349916D01*
X682123Y349936D01*
X682115Y350039D01*
X682112Y350142D01*
X682105Y350161D01*
X682104Y350181D01*
X682064Y350276D01*
X682028Y350373D01*
X682015Y350389D01*
X682008Y350407D01*
X681903Y350538D01*
X568970Y463471D01*
X567887Y466085D01*
X567887Y468915D01*
X568970Y471529D01*
X570971Y473530D01*
X573585Y474613D01*
X576415Y474613D01*
X579029Y473530D01*
X686846Y365713D01*
X686883Y365687D01*
X686914Y365653D01*
X686982Y365615D01*
X687045Y365570D01*
X687089Y365556D01*
X687129Y365534D01*
X687206Y365520D01*
X687280Y365497D01*
X687326Y365499D01*
X687372Y365490D01*
X687449Y365502D01*
X687526Y365504D01*
X687570Y365519D01*
X687615Y365526D01*
X687684Y365561D01*
X687757Y365588D01*
X687793Y365617D01*
X687834Y365638D01*
X687889Y365693D01*
X687949Y365742D01*
X687974Y365780D01*
X688006Y365813D01*
X688072Y365933D01*
X688082Y365949D01*
X688084Y365954D01*
X688087Y365960D01*
X689455Y369263D01*
X692457Y372265D01*
X696378Y373889D01*
X700622Y373889D01*
X704543Y372265D01*
X707545Y369263D01*
X709169Y365342D01*
X709169Y345858D01*
X707545Y341937D01*
X704543Y338935D01*
X700622Y337311D01*
X696378Y337311D01*
X692406Y338957D01*
X692398Y338961D01*
X692314Y339022D01*
X692295Y339028D01*
X692278Y339039D01*
X692178Y339064D01*
X692079Y339094D01*
X692059Y339094D01*
X692040Y339099D01*
X691937Y339091D01*
X691833Y339088D01*
X691814Y339081D01*
X691795Y339079D01*
X691699Y339039D01*
X691602Y339004D01*
X691587Y338991D01*
X691568Y338983D01*
X691437Y338878D01*
X687336Y334777D01*
X687283Y334703D01*
X687223Y334633D01*
X687211Y334603D01*
X687192Y334577D01*
X687165Y334490D01*
X687131Y334405D01*
X687127Y334364D01*
X687120Y334342D01*
X687121Y334310D01*
X687113Y334238D01*
X687113Y242874D01*
X687116Y242854D01*
X687114Y242835D01*
X687136Y242733D01*
X687152Y242631D01*
X687162Y242614D01*
X687166Y242594D01*
X687219Y242505D01*
X687268Y242414D01*
X687282Y242400D01*
X687292Y242383D01*
X687371Y242316D01*
X687446Y242244D01*
X687464Y242236D01*
X687479Y242223D01*
X687575Y242184D01*
X687669Y242141D01*
X687689Y242139D01*
X687707Y242131D01*
X687874Y242113D01*
X716415Y242113D01*
X719029Y241030D01*
X734283Y225776D01*
X734357Y225723D01*
X734427Y225663D01*
X734457Y225651D01*
X734483Y225632D01*
X734570Y225605D01*
X734655Y225571D01*
X734696Y225567D01*
X734718Y225560D01*
X734750Y225561D01*
X734821Y225553D01*
X740598Y225553D01*
X746253Y219898D01*
X746253Y211902D01*
X740598Y206247D01*
X732602Y206247D01*
X726947Y211902D01*
X726947Y212679D01*
X726933Y212769D01*
X726925Y212860D01*
X726913Y212889D01*
X726908Y212921D01*
X726865Y213002D01*
X726829Y213086D01*
X726803Y213118D01*
X726792Y213139D01*
X726769Y213161D01*
X726724Y213217D01*
X712277Y227664D01*
X712203Y227717D01*
X712133Y227777D01*
X712103Y227789D01*
X712077Y227808D01*
X711990Y227835D01*
X711905Y227869D01*
X711864Y227873D01*
X711842Y227880D01*
X711810Y227879D01*
X711738Y227887D01*
X683262Y227887D01*
X683171Y227873D01*
X683081Y227865D01*
X683051Y227853D01*
X683019Y227848D01*
X682938Y227805D01*
X682854Y227769D01*
X682822Y227743D01*
X682801Y227732D01*
X682779Y227709D01*
X682723Y227664D01*
X670276Y215217D01*
X670223Y215143D01*
X670163Y215073D01*
X670151Y215043D01*
X670132Y215017D01*
X670105Y214930D01*
X670071Y214845D01*
X670067Y214804D01*
X670060Y214782D01*
X670061Y214750D01*
X670053Y214678D01*
X670053Y211902D01*
X664398Y206247D01*
X659122Y206247D01*
X659031Y206233D01*
X658941Y206225D01*
X658911Y206213D01*
X658879Y206208D01*
X658798Y206165D01*
X658714Y206129D01*
X658682Y206103D01*
X658661Y206092D01*
X658639Y206069D01*
X658583Y206024D01*
X644029Y191470D01*
X641415Y190387D01*
X505374Y190387D01*
X505354Y190384D01*
X505335Y190386D01*
X505233Y190364D01*
X505131Y190348D01*
X505114Y190338D01*
X505094Y190334D01*
X505005Y190281D01*
X504914Y190232D01*
X504900Y190218D01*
X504883Y190208D01*
X504816Y190129D01*
X504744Y190054D01*
X504736Y190036D01*
X504723Y190021D01*
X504684Y189925D01*
X504641Y189831D01*
X504639Y189811D01*
X504631Y189793D01*
X504613Y189626D01*
X504613Y127785D01*
X503530Y125171D01*
X480792Y102433D01*
X480739Y102359D01*
X480679Y102289D01*
X480667Y102259D01*
X480648Y102233D01*
X480621Y102146D01*
X480587Y102061D01*
X480583Y102020D01*
X480576Y101998D01*
X480577Y101966D01*
X480569Y101894D01*
X480569Y91858D01*
X478945Y87937D01*
X475943Y84935D01*
X472022Y83311D01*
X467778Y83311D01*
X463857Y84935D01*
X460855Y87937D01*
X459231Y91858D01*
X459231Y95394D01*
X459217Y95485D01*
X459209Y95575D01*
X459197Y95605D01*
X459192Y95637D01*
X459149Y95718D01*
X459113Y95802D01*
X459087Y95834D01*
X459076Y95855D01*
X459053Y95877D01*
X459008Y95933D01*
X432277Y122664D01*
X432203Y122717D01*
X432133Y122777D01*
X432103Y122789D01*
X432077Y122808D01*
X431990Y122835D01*
X431905Y122869D01*
X431864Y122873D01*
X431842Y122880D01*
X431810Y122879D01*
X431738Y122887D01*
X373585Y122887D01*
X370971Y123970D01*
X368863Y126078D01*
X355538Y139403D01*
X355522Y139414D01*
X355510Y139430D01*
X355422Y139486D01*
X355339Y139546D01*
X355320Y139552D01*
X355303Y139563D01*
X355202Y139588D01*
X355103Y139619D01*
X355084Y139618D01*
X355064Y139623D01*
X354961Y139615D01*
X354858Y139612D01*
X354839Y139605D01*
X354819Y139604D01*
X354724Y139564D01*
X354627Y139528D01*
X354611Y139515D01*
X354593Y139508D01*
X354462Y139403D01*
X339836Y124777D01*
X339783Y124703D01*
X339723Y124633D01*
X339711Y124603D01*
X339692Y124577D01*
X339665Y124490D01*
X339631Y124405D01*
X339627Y124364D01*
X339620Y124342D01*
X339621Y124310D01*
X339613Y124238D01*
X339613Y50911D01*
X339623Y50846D01*
X339624Y50781D01*
X339647Y50701D01*
X339652Y50668D01*
X339662Y50651D01*
X339671Y50620D01*
X339853Y50180D01*
X339853Y46340D01*
X338383Y42792D01*
X335668Y40077D01*
X332120Y38607D01*
X328280Y38607D01*
G37*
%LPD*%
%LPC*%
G36*
X935802Y15747D02*
X935802Y15747D01*
X930147Y21402D01*
X930147Y29398D01*
X930164Y29415D01*
X930217Y29489D01*
X930277Y29559D01*
X930289Y29589D01*
X930308Y29615D01*
X930335Y29702D01*
X930369Y29787D01*
X930373Y29828D01*
X930380Y29850D01*
X930379Y29882D01*
X930387Y29954D01*
X930387Y37126D01*
X930384Y37146D01*
X930386Y37165D01*
X930364Y37267D01*
X930348Y37369D01*
X930338Y37386D01*
X930334Y37406D01*
X930281Y37495D01*
X930232Y37586D01*
X930218Y37600D01*
X930208Y37617D01*
X930129Y37684D01*
X930054Y37756D01*
X930036Y37764D01*
X930021Y37777D01*
X929925Y37816D01*
X929831Y37859D01*
X929811Y37861D01*
X929793Y37869D01*
X929626Y37887D01*
X853585Y37887D01*
X850971Y38970D01*
X780538Y109403D01*
X780522Y109414D01*
X780510Y109430D01*
X780422Y109486D01*
X780339Y109546D01*
X780320Y109552D01*
X780303Y109563D01*
X780202Y109588D01*
X780103Y109619D01*
X780084Y109618D01*
X780064Y109623D01*
X779961Y109615D01*
X779858Y109612D01*
X779839Y109605D01*
X779819Y109604D01*
X779724Y109564D01*
X779627Y109528D01*
X779611Y109515D01*
X779593Y109508D01*
X779462Y109403D01*
X733776Y63717D01*
X733723Y63643D01*
X733663Y63573D01*
X733651Y63543D01*
X733632Y63517D01*
X733605Y63430D01*
X733571Y63345D01*
X733567Y63304D01*
X733560Y63282D01*
X733561Y63250D01*
X733553Y63178D01*
X733553Y59502D01*
X727898Y53847D01*
X719902Y53847D01*
X714247Y59502D01*
X714247Y67498D01*
X719902Y73153D01*
X722778Y73153D01*
X722869Y73167D01*
X722959Y73175D01*
X722989Y73187D01*
X723021Y73192D01*
X723102Y73235D01*
X723186Y73271D01*
X723218Y73297D01*
X723239Y73308D01*
X723261Y73331D01*
X723317Y73376D01*
X776078Y126137D01*
X780164Y130223D01*
X780217Y130297D01*
X780277Y130367D01*
X780289Y130397D01*
X780308Y130423D01*
X780335Y130510D01*
X780369Y130595D01*
X780373Y130636D01*
X780380Y130658D01*
X780379Y130690D01*
X780387Y130762D01*
X780387Y156415D01*
X781470Y159029D01*
X834403Y211962D01*
X834414Y211978D01*
X834430Y211990D01*
X834486Y212078D01*
X834546Y212161D01*
X834552Y212180D01*
X834563Y212197D01*
X834588Y212298D01*
X834619Y212397D01*
X834618Y212416D01*
X834623Y212436D01*
X834615Y212539D01*
X834612Y212642D01*
X834605Y212661D01*
X834604Y212681D01*
X834564Y212776D01*
X834528Y212873D01*
X834515Y212889D01*
X834508Y212907D01*
X834403Y213038D01*
X782277Y265164D01*
X782203Y265217D01*
X782133Y265277D01*
X782103Y265289D01*
X782077Y265308D01*
X781990Y265335D01*
X781905Y265369D01*
X781864Y265373D01*
X781842Y265380D01*
X781810Y265379D01*
X781738Y265387D01*
X766085Y265387D01*
X763471Y266470D01*
X748970Y280971D01*
X747887Y283585D01*
X747887Y296738D01*
X747873Y296829D01*
X747865Y296919D01*
X747853Y296949D01*
X747848Y296981D01*
X747805Y297062D01*
X747769Y297146D01*
X747743Y297178D01*
X747732Y297199D01*
X747709Y297221D01*
X747664Y297277D01*
X726470Y318471D01*
X725387Y321085D01*
X725387Y323915D01*
X726470Y326529D01*
X728471Y328530D01*
X731085Y329613D01*
X733915Y329613D01*
X736529Y328530D01*
X761030Y304029D01*
X762113Y301415D01*
X762113Y288262D01*
X762115Y288246D01*
X762114Y288233D01*
X762128Y288169D01*
X762135Y288081D01*
X762147Y288051D01*
X762152Y288019D01*
X762166Y287994D01*
X762166Y287993D01*
X762168Y287989D01*
X762195Y287938D01*
X762231Y287854D01*
X762257Y287822D01*
X762268Y287801D01*
X762291Y287779D01*
X762336Y287723D01*
X770223Y279836D01*
X770297Y279783D01*
X770367Y279723D01*
X770397Y279711D01*
X770423Y279692D01*
X770510Y279665D01*
X770595Y279631D01*
X770636Y279627D01*
X770658Y279620D01*
X770690Y279621D01*
X770762Y279613D01*
X786415Y279613D01*
X789029Y278530D01*
X844462Y223097D01*
X844478Y223086D01*
X844490Y223070D01*
X844578Y223014D01*
X844661Y222954D01*
X844680Y222948D01*
X844697Y222937D01*
X844798Y222912D01*
X844897Y222881D01*
X844916Y222882D01*
X844936Y222877D01*
X845039Y222885D01*
X845142Y222888D01*
X845161Y222895D01*
X845181Y222896D01*
X845276Y222936D01*
X845373Y222972D01*
X845389Y222985D01*
X845407Y222992D01*
X845538Y223097D01*
X865408Y242967D01*
X865461Y243041D01*
X865521Y243111D01*
X865533Y243141D01*
X865552Y243167D01*
X865579Y243254D01*
X865613Y243339D01*
X865617Y243380D01*
X865624Y243402D01*
X865623Y243434D01*
X865631Y243505D01*
X865631Y251042D01*
X867255Y254963D01*
X870257Y257965D01*
X874178Y259589D01*
X878422Y259589D01*
X882343Y257965D01*
X885345Y254963D01*
X886969Y251042D01*
X886969Y231558D01*
X885345Y227637D01*
X882343Y224635D01*
X878422Y223011D01*
X874178Y223011D01*
X870257Y224635D01*
X869264Y225628D01*
X869248Y225640D01*
X869235Y225656D01*
X869174Y225695D01*
X869122Y225740D01*
X869093Y225751D01*
X869064Y225772D01*
X869045Y225778D01*
X869028Y225789D01*
X868954Y225807D01*
X868893Y225832D01*
X868857Y225836D01*
X868829Y225844D01*
X868809Y225844D01*
X868790Y225849D01*
X868760Y225846D01*
X868727Y225850D01*
X868724Y225850D01*
X868663Y225840D01*
X868583Y225838D01*
X868564Y225831D01*
X868545Y225829D01*
X868511Y225815D01*
X868481Y225810D01*
X868423Y225779D01*
X868352Y225753D01*
X868336Y225741D01*
X868318Y225733D01*
X868284Y225706D01*
X868264Y225695D01*
X868243Y225673D01*
X868187Y225628D01*
X851137Y208578D01*
X848922Y206363D01*
X794836Y152277D01*
X794783Y152203D01*
X794723Y152133D01*
X794711Y152103D01*
X794692Y152077D01*
X794665Y151990D01*
X794631Y151905D01*
X794627Y151864D01*
X794620Y151842D01*
X794621Y151810D01*
X794613Y151738D01*
X794613Y126085D01*
X793530Y123471D01*
X791422Y121363D01*
X790597Y120538D01*
X790586Y120522D01*
X790570Y120510D01*
X790514Y120422D01*
X790454Y120339D01*
X790448Y120320D01*
X790437Y120303D01*
X790412Y120202D01*
X790381Y120103D01*
X790382Y120084D01*
X790377Y120064D01*
X790385Y119961D01*
X790388Y119858D01*
X790395Y119839D01*
X790396Y119819D01*
X790436Y119724D01*
X790472Y119627D01*
X790485Y119611D01*
X790492Y119593D01*
X790597Y119462D01*
X857723Y52336D01*
X857797Y52283D01*
X857867Y52223D01*
X857897Y52211D01*
X857923Y52192D01*
X858010Y52165D01*
X858095Y52131D01*
X858136Y52127D01*
X858158Y52120D01*
X858190Y52121D01*
X858262Y52113D01*
X929626Y52113D01*
X929646Y52116D01*
X929665Y52114D01*
X929767Y52136D01*
X929869Y52152D01*
X929886Y52162D01*
X929906Y52166D01*
X929995Y52219D01*
X930086Y52268D01*
X930100Y52282D01*
X930117Y52292D01*
X930184Y52371D01*
X930256Y52446D01*
X930264Y52464D01*
X930277Y52479D01*
X930316Y52575D01*
X930359Y52669D01*
X930361Y52689D01*
X930369Y52707D01*
X930387Y52874D01*
X930387Y60849D01*
X930377Y60914D01*
X930376Y60979D01*
X930353Y61059D01*
X930348Y61092D01*
X930338Y61109D01*
X930329Y61140D01*
X930147Y61580D01*
X930147Y65420D01*
X931617Y68968D01*
X934332Y71683D01*
X937880Y73153D01*
X941720Y73153D01*
X945268Y71683D01*
X947983Y68968D01*
X949453Y65420D01*
X949453Y61580D01*
X947983Y58032D01*
X945268Y55317D01*
X945083Y55240D01*
X944984Y55179D01*
X944883Y55119D01*
X944879Y55114D01*
X944874Y55111D01*
X944799Y55021D01*
X944723Y54932D01*
X944721Y54926D01*
X944717Y54921D01*
X944675Y54813D01*
X944631Y54704D01*
X944630Y54696D01*
X944629Y54691D01*
X944628Y54673D01*
X944613Y54537D01*
X944613Y34554D01*
X944627Y34464D01*
X944635Y34373D01*
X944647Y34343D01*
X944652Y34311D01*
X944695Y34230D01*
X944731Y34146D01*
X944757Y34114D01*
X944768Y34093D01*
X944791Y34071D01*
X944836Y34015D01*
X949453Y29398D01*
X949453Y21402D01*
X943798Y15747D01*
X935802Y15747D01*
G37*
%LPD*%
%LPC*%
G36*
X861680Y130047D02*
X861680Y130047D01*
X858132Y131517D01*
X855417Y134232D01*
X853947Y137780D01*
X853947Y141620D01*
X855417Y145168D01*
X856264Y146015D01*
X856317Y146089D01*
X856377Y146159D01*
X856389Y146189D01*
X856408Y146215D01*
X856435Y146302D01*
X856469Y146387D01*
X856473Y146428D01*
X856480Y146450D01*
X856479Y146482D01*
X856487Y146554D01*
X856487Y170946D01*
X856473Y171037D01*
X856465Y171127D01*
X856453Y171157D01*
X856448Y171189D01*
X856405Y171270D01*
X856369Y171354D01*
X856343Y171386D01*
X856332Y171407D01*
X856309Y171429D01*
X856264Y171485D01*
X853947Y173802D01*
X853947Y181798D01*
X859602Y187453D01*
X862078Y187453D01*
X862169Y187467D01*
X862259Y187475D01*
X862289Y187487D01*
X862321Y187492D01*
X862402Y187535D01*
X862486Y187571D01*
X862518Y187597D01*
X862539Y187608D01*
X862561Y187631D01*
X862617Y187676D01*
X916208Y241267D01*
X916261Y241341D01*
X916321Y241411D01*
X916333Y241441D01*
X916352Y241467D01*
X916379Y241554D01*
X916413Y241639D01*
X916417Y241680D01*
X916424Y241702D01*
X916423Y241734D01*
X916431Y241806D01*
X916431Y251042D01*
X918055Y254963D01*
X921057Y257965D01*
X924978Y259589D01*
X929222Y259589D01*
X933143Y257965D01*
X933420Y257688D01*
X933478Y257646D01*
X933530Y257597D01*
X933577Y257575D01*
X933619Y257545D01*
X933688Y257524D01*
X933753Y257493D01*
X933805Y257488D01*
X933855Y257472D01*
X933926Y257474D01*
X933997Y257466D01*
X934048Y257477D01*
X934100Y257479D01*
X934168Y257503D01*
X934238Y257518D01*
X934283Y257545D01*
X934331Y257563D01*
X934387Y257608D01*
X934449Y257645D01*
X934483Y257684D01*
X934523Y257717D01*
X934562Y257777D01*
X934609Y257832D01*
X934628Y257880D01*
X934656Y257924D01*
X934674Y257993D01*
X934701Y258060D01*
X934709Y258131D01*
X934717Y258162D01*
X934715Y258185D01*
X934719Y258226D01*
X934719Y290280D01*
X934705Y290370D01*
X934697Y290461D01*
X934685Y290491D01*
X934680Y290523D01*
X934637Y290604D01*
X934601Y290687D01*
X934575Y290720D01*
X934564Y290740D01*
X934541Y290762D01*
X934496Y290818D01*
X876788Y348526D01*
X876772Y348538D01*
X876760Y348554D01*
X876672Y348610D01*
X876589Y348670D01*
X876570Y348676D01*
X876553Y348687D01*
X876452Y348712D01*
X876353Y348742D01*
X876334Y348742D01*
X876314Y348747D01*
X876211Y348739D01*
X876108Y348736D01*
X876089Y348729D01*
X876069Y348728D01*
X875974Y348687D01*
X875877Y348652D01*
X875861Y348639D01*
X875843Y348631D01*
X875712Y348526D01*
X873476Y346290D01*
X873423Y346217D01*
X873363Y346147D01*
X873351Y346117D01*
X873332Y346091D01*
X873305Y346004D01*
X873271Y345919D01*
X873267Y345878D01*
X873260Y345856D01*
X873261Y345823D01*
X873253Y345752D01*
X873253Y338902D01*
X867598Y333247D01*
X859602Y333247D01*
X853947Y338902D01*
X853947Y346898D01*
X859602Y352553D01*
X865052Y352553D01*
X865142Y352567D01*
X865233Y352575D01*
X865263Y352587D01*
X865295Y352592D01*
X865376Y352635D01*
X865460Y352671D01*
X865492Y352697D01*
X865512Y352708D01*
X865535Y352731D01*
X865590Y352776D01*
X870946Y358132D01*
X874368Y361554D01*
X879696Y366882D01*
X879749Y366955D01*
X879809Y367025D01*
X879821Y367055D01*
X879840Y367081D01*
X879867Y367168D01*
X879901Y367253D01*
X879905Y367294D01*
X879912Y367316D01*
X879911Y367349D01*
X879919Y367420D01*
X879919Y497008D01*
X879905Y497098D01*
X879897Y497189D01*
X879885Y497219D01*
X879880Y497251D01*
X879837Y497331D01*
X879801Y497415D01*
X879775Y497447D01*
X879764Y497468D01*
X879741Y497490D01*
X879696Y497546D01*
X877156Y500086D01*
X875029Y505221D01*
X875029Y510779D01*
X877156Y515914D01*
X881086Y519844D01*
X886221Y521971D01*
X891779Y521971D01*
X896914Y519844D01*
X900844Y515914D01*
X902971Y510779D01*
X902971Y505221D01*
X900844Y500086D01*
X896914Y496156D01*
X891779Y494029D01*
X890842Y494029D01*
X890822Y494026D01*
X890803Y494028D01*
X890701Y494006D01*
X890599Y493990D01*
X890582Y493980D01*
X890562Y493976D01*
X890473Y493923D01*
X890382Y493874D01*
X890368Y493860D01*
X890351Y493850D01*
X890284Y493771D01*
X890212Y493696D01*
X890204Y493678D01*
X890191Y493663D01*
X890152Y493567D01*
X890109Y493473D01*
X890107Y493453D01*
X890099Y493435D01*
X890081Y493268D01*
X890081Y362895D01*
X886882Y359696D01*
X883974Y356788D01*
X883962Y356772D01*
X883946Y356760D01*
X883890Y356672D01*
X883830Y356589D01*
X883824Y356570D01*
X883813Y356553D01*
X883788Y356452D01*
X883758Y356353D01*
X883758Y356334D01*
X883753Y356314D01*
X883761Y356211D01*
X883764Y356108D01*
X883771Y356089D01*
X883772Y356069D01*
X883813Y355974D01*
X883848Y355877D01*
X883861Y355861D01*
X883869Y355843D01*
X883974Y355712D01*
X944881Y294805D01*
X944881Y202695D01*
X924276Y182090D01*
X924223Y182017D01*
X924163Y181947D01*
X924151Y181917D01*
X924132Y181891D01*
X924105Y181804D01*
X924071Y181719D01*
X924067Y181678D01*
X924060Y181656D01*
X924061Y181623D01*
X924053Y181552D01*
X924053Y173802D01*
X918398Y168147D01*
X918342Y168147D01*
X918322Y168144D01*
X918303Y168146D01*
X918201Y168124D01*
X918099Y168108D01*
X918082Y168098D01*
X918062Y168094D01*
X917973Y168041D01*
X917882Y167992D01*
X917868Y167978D01*
X917851Y167968D01*
X917784Y167889D01*
X917712Y167814D01*
X917704Y167796D01*
X917691Y167781D01*
X917652Y167685D01*
X917609Y167591D01*
X917607Y167571D01*
X917599Y167553D01*
X917581Y167386D01*
X917581Y161095D01*
X898852Y142367D01*
X898784Y142272D01*
X898714Y142178D01*
X898712Y142172D01*
X898709Y142167D01*
X898674Y142056D01*
X898638Y141944D01*
X898638Y141938D01*
X898636Y141932D01*
X898639Y141815D01*
X898640Y141698D01*
X898642Y141691D01*
X898643Y141686D01*
X898649Y141669D01*
X898653Y141655D01*
X898653Y137780D01*
X897183Y134232D01*
X894468Y131517D01*
X890920Y130047D01*
X887080Y130047D01*
X883532Y131517D01*
X880817Y134232D01*
X879347Y137780D01*
X879347Y141620D01*
X880817Y145168D01*
X883532Y147883D01*
X887080Y149353D01*
X890981Y149353D01*
X891064Y149332D01*
X891070Y149332D01*
X891076Y149331D01*
X891194Y149342D01*
X891310Y149351D01*
X891315Y149353D01*
X891321Y149354D01*
X891429Y149402D01*
X891536Y149447D01*
X891542Y149452D01*
X891546Y149454D01*
X891560Y149466D01*
X891667Y149552D01*
X907196Y165082D01*
X907249Y165155D01*
X907309Y165225D01*
X907321Y165255D01*
X907340Y165281D01*
X907367Y165368D01*
X907401Y165453D01*
X907405Y165494D01*
X907412Y165516D01*
X907411Y165549D01*
X907419Y165620D01*
X907419Y170814D01*
X907405Y170905D01*
X907397Y170995D01*
X907385Y171025D01*
X907380Y171057D01*
X907337Y171138D01*
X907301Y171222D01*
X907275Y171254D01*
X907264Y171275D01*
X907241Y171297D01*
X907196Y171353D01*
X904747Y173802D01*
X904747Y181798D01*
X910402Y187453D01*
X914952Y187453D01*
X915042Y187467D01*
X915133Y187475D01*
X915163Y187487D01*
X915195Y187492D01*
X915276Y187535D01*
X915359Y187571D01*
X915392Y187597D01*
X915412Y187608D01*
X915434Y187631D01*
X915490Y187676D01*
X934496Y206682D01*
X934549Y206755D01*
X934609Y206825D01*
X934621Y206855D01*
X934640Y206881D01*
X934667Y206968D01*
X934701Y207053D01*
X934705Y207094D01*
X934712Y207116D01*
X934711Y207149D01*
X934719Y207220D01*
X934719Y224374D01*
X934708Y224444D01*
X934706Y224516D01*
X934688Y224565D01*
X934680Y224616D01*
X934646Y224680D01*
X934621Y224747D01*
X934589Y224788D01*
X934564Y224834D01*
X934513Y224883D01*
X934468Y224939D01*
X934424Y224967D01*
X934386Y225003D01*
X934321Y225033D01*
X934261Y225072D01*
X934210Y225085D01*
X934163Y225107D01*
X934092Y225115D01*
X934022Y225132D01*
X933970Y225128D01*
X933919Y225134D01*
X933848Y225119D01*
X933777Y225113D01*
X933729Y225093D01*
X933678Y225082D01*
X933617Y225045D01*
X933551Y225017D01*
X933495Y224972D01*
X933467Y224955D01*
X933452Y224938D01*
X933420Y224912D01*
X933143Y224635D01*
X929222Y223011D01*
X924978Y223011D01*
X921057Y224635D01*
X920914Y224778D01*
X920898Y224790D01*
X920885Y224806D01*
X920798Y224861D01*
X920714Y224922D01*
X920695Y224928D01*
X920678Y224939D01*
X920578Y224964D01*
X920479Y224994D01*
X920459Y224994D01*
X920440Y224999D01*
X920337Y224991D01*
X920233Y224988D01*
X920214Y224981D01*
X920195Y224979D01*
X920099Y224939D01*
X920002Y224903D01*
X919986Y224891D01*
X919968Y224883D01*
X919837Y224778D01*
X873476Y178417D01*
X873432Y178356D01*
X873397Y178319D01*
X873391Y178306D01*
X873363Y178273D01*
X873351Y178243D01*
X873332Y178217D01*
X873305Y178130D01*
X873271Y178045D01*
X873267Y178004D01*
X873260Y177982D01*
X873261Y177950D01*
X873253Y177878D01*
X873253Y173802D01*
X870936Y171485D01*
X870883Y171411D01*
X870823Y171341D01*
X870811Y171311D01*
X870792Y171285D01*
X870765Y171198D01*
X870731Y171113D01*
X870727Y171072D01*
X870720Y171050D01*
X870721Y171018D01*
X870713Y170946D01*
X870713Y146554D01*
X870727Y146463D01*
X870735Y146373D01*
X870747Y146343D01*
X870752Y146311D01*
X870795Y146230D01*
X870831Y146146D01*
X870857Y146114D01*
X870868Y146093D01*
X870891Y146071D01*
X870936Y146015D01*
X871783Y145168D01*
X873253Y141620D01*
X873253Y137780D01*
X871783Y134232D01*
X869068Y131517D01*
X865520Y130047D01*
X861680Y130047D01*
G37*
%LPD*%
G36*
X245728Y253135D02*
X245728Y253135D01*
X245799Y253140D01*
X245847Y253161D01*
X245898Y253172D01*
X245959Y253209D01*
X246025Y253237D01*
X246081Y253281D01*
X246109Y253298D01*
X246124Y253316D01*
X246156Y253341D01*
X262196Y269382D01*
X262249Y269455D01*
X262309Y269525D01*
X262321Y269555D01*
X262340Y269581D01*
X262367Y269668D01*
X262401Y269753D01*
X262405Y269794D01*
X262412Y269816D01*
X262411Y269849D01*
X262419Y269920D01*
X262419Y274605D01*
X265618Y277804D01*
X272196Y284382D01*
X272249Y284455D01*
X272309Y284525D01*
X272321Y284555D01*
X272340Y284581D01*
X272367Y284668D01*
X272401Y284753D01*
X272405Y284794D01*
X272412Y284816D01*
X272411Y284849D01*
X272419Y284920D01*
X272419Y297814D01*
X272405Y297904D01*
X272397Y297995D01*
X272385Y298025D01*
X272380Y298057D01*
X272337Y298138D01*
X272301Y298222D01*
X272275Y298254D01*
X272264Y298275D01*
X272241Y298297D01*
X272196Y298353D01*
X269747Y300802D01*
X269747Y308798D01*
X275402Y314453D01*
X283398Y314453D01*
X284006Y313845D01*
X284023Y313833D01*
X284035Y313817D01*
X284122Y313761D01*
X284206Y313701D01*
X284225Y313695D01*
X284242Y313684D01*
X284342Y313659D01*
X284441Y313629D01*
X284461Y313629D01*
X284481Y313624D01*
X284583Y313632D01*
X284687Y313635D01*
X284706Y313642D01*
X284726Y313643D01*
X284821Y313684D01*
X284918Y313719D01*
X284934Y313732D01*
X284952Y313740D01*
X285083Y313845D01*
X315886Y344648D01*
X315928Y344706D01*
X315977Y344758D01*
X315999Y344805D01*
X316030Y344847D01*
X316051Y344916D01*
X316081Y344981D01*
X316087Y345033D01*
X316102Y345083D01*
X316100Y345154D01*
X316108Y345225D01*
X316097Y345276D01*
X316096Y345328D01*
X316071Y345396D01*
X316056Y345466D01*
X316029Y345510D01*
X316011Y345559D01*
X315966Y345615D01*
X315930Y345677D01*
X315890Y345711D01*
X315858Y345751D01*
X315797Y345790D01*
X315743Y345837D01*
X315694Y345856D01*
X315651Y345884D01*
X315581Y345902D01*
X315515Y345929D01*
X315443Y345937D01*
X315412Y345945D01*
X315389Y345943D01*
X315348Y345947D01*
X313502Y345947D01*
X307847Y351602D01*
X307847Y359598D01*
X313502Y365253D01*
X321498Y365253D01*
X322804Y363947D01*
X322862Y363905D01*
X322914Y363856D01*
X322961Y363834D01*
X323003Y363804D01*
X323072Y363783D01*
X323137Y363752D01*
X323189Y363747D01*
X323239Y363731D01*
X323310Y363733D01*
X323381Y363725D01*
X323432Y363736D01*
X323484Y363738D01*
X323552Y363762D01*
X323622Y363778D01*
X323667Y363804D01*
X323715Y363822D01*
X323771Y363867D01*
X323833Y363904D01*
X323867Y363943D01*
X323907Y363976D01*
X323946Y364036D01*
X323993Y364091D01*
X324012Y364139D01*
X324040Y364183D01*
X324058Y364252D01*
X324085Y364319D01*
X324093Y364390D01*
X324101Y364421D01*
X324099Y364445D01*
X324103Y364486D01*
X324103Y365896D01*
X324089Y365986D01*
X324081Y366077D01*
X324069Y366107D01*
X324064Y366139D01*
X324021Y366220D01*
X323985Y366303D01*
X323959Y366336D01*
X323948Y366356D01*
X323925Y366378D01*
X323902Y366407D01*
X323900Y366411D01*
X323897Y366413D01*
X323880Y366434D01*
X322419Y367895D01*
X322419Y377605D01*
X322405Y377695D01*
X322397Y377786D01*
X322385Y377816D01*
X322380Y377848D01*
X322337Y377929D01*
X322301Y378013D01*
X322275Y378045D01*
X322264Y378065D01*
X322241Y378088D01*
X322196Y378144D01*
X321709Y378631D01*
X320669Y381141D01*
X320669Y383859D01*
X321237Y385229D01*
X321247Y385273D01*
X321267Y385315D01*
X321275Y385392D01*
X321293Y385468D01*
X321289Y385514D01*
X321294Y385559D01*
X321277Y385636D01*
X321270Y385713D01*
X321251Y385755D01*
X321241Y385800D01*
X321201Y385867D01*
X321170Y385938D01*
X321139Y385972D01*
X321115Y386011D01*
X321056Y386062D01*
X321003Y386119D01*
X320963Y386141D01*
X320928Y386171D01*
X320856Y386200D01*
X320788Y386237D01*
X320743Y386246D01*
X320700Y386263D01*
X320564Y386278D01*
X320546Y386281D01*
X320541Y386280D01*
X320533Y386281D01*
X244604Y386281D01*
X244558Y386274D01*
X244513Y386276D01*
X244438Y386254D01*
X244361Y386242D01*
X244320Y386220D01*
X244276Y386207D01*
X244212Y386163D01*
X244144Y386126D01*
X244112Y386093D01*
X244074Y386067D01*
X244028Y386005D01*
X243974Y385948D01*
X243955Y385906D01*
X243928Y385870D01*
X243903Y385796D01*
X243871Y385725D01*
X243866Y385679D01*
X243851Y385636D01*
X243852Y385558D01*
X243844Y385481D01*
X243853Y385436D01*
X243854Y385390D01*
X243892Y385258D01*
X243896Y385240D01*
X243898Y385236D01*
X243900Y385229D01*
X244857Y382920D01*
X244857Y379080D01*
X243387Y375532D01*
X240672Y372817D01*
X237124Y371347D01*
X220076Y371347D01*
X216528Y372817D01*
X213813Y375532D01*
X212343Y379080D01*
X212343Y382920D01*
X213813Y386468D01*
X216528Y389183D01*
X220076Y390653D01*
X230752Y390653D01*
X230842Y390667D01*
X230933Y390675D01*
X230963Y390687D01*
X230995Y390692D01*
X231076Y390735D01*
X231160Y390771D01*
X231192Y390797D01*
X231212Y390808D01*
X231235Y390831D01*
X231290Y390876D01*
X232003Y391588D01*
X232044Y391646D01*
X232094Y391698D01*
X232116Y391745D01*
X232146Y391787D01*
X232167Y391856D01*
X232197Y391921D01*
X232203Y391973D01*
X232218Y392023D01*
X232217Y392094D01*
X232224Y392165D01*
X232213Y392216D01*
X232212Y392268D01*
X232187Y392336D01*
X232172Y392406D01*
X232146Y392450D01*
X232128Y392499D01*
X232083Y392555D01*
X232046Y392617D01*
X232006Y392651D01*
X231974Y392691D01*
X231914Y392730D01*
X231859Y392777D01*
X231811Y392796D01*
X231767Y392824D01*
X231698Y392842D01*
X231631Y392869D01*
X231560Y392877D01*
X231528Y392885D01*
X231505Y392883D01*
X231464Y392887D01*
X187874Y392887D01*
X187854Y392884D01*
X187835Y392886D01*
X187733Y392864D01*
X187631Y392848D01*
X187614Y392838D01*
X187594Y392834D01*
X187505Y392781D01*
X187414Y392732D01*
X187400Y392718D01*
X187383Y392708D01*
X187316Y392629D01*
X187244Y392554D01*
X187236Y392536D01*
X187223Y392521D01*
X187184Y392425D01*
X187141Y392331D01*
X187139Y392311D01*
X187131Y392293D01*
X187113Y392126D01*
X187113Y323585D01*
X186784Y322791D01*
X186775Y322753D01*
X186766Y322734D01*
X186762Y322700D01*
X186735Y322616D01*
X186735Y322583D01*
X186728Y322552D01*
X186736Y322461D01*
X186737Y322370D01*
X186749Y322330D01*
X186751Y322307D01*
X186764Y322277D01*
X186784Y322209D01*
X187113Y321415D01*
X187113Y275811D01*
X187124Y275740D01*
X187126Y275668D01*
X187144Y275619D01*
X187152Y275568D01*
X187186Y275505D01*
X187211Y275437D01*
X187243Y275397D01*
X187268Y275351D01*
X187319Y275301D01*
X187364Y275245D01*
X187408Y275217D01*
X187446Y275181D01*
X187511Y275151D01*
X187571Y275112D01*
X187622Y275100D01*
X187669Y275078D01*
X187740Y275070D01*
X187810Y275052D01*
X187862Y275056D01*
X187913Y275051D01*
X187984Y275066D01*
X188055Y275071D01*
X188103Y275092D01*
X188154Y275103D01*
X188215Y275140D01*
X188281Y275168D01*
X188337Y275212D01*
X188365Y275229D01*
X188380Y275247D01*
X188412Y275273D01*
X213060Y299921D01*
X213103Y299980D01*
X213145Y300024D01*
X213162Y300060D01*
X213198Y300109D01*
X213200Y300115D01*
X213204Y300120D01*
X213232Y300211D01*
X213249Y300248D01*
X213252Y300273D01*
X213275Y300343D01*
X213274Y300350D01*
X213276Y300355D01*
X213273Y300469D01*
X213276Y300492D01*
X213273Y300506D01*
X213272Y300589D01*
X213270Y300596D01*
X213270Y300601D01*
X213264Y300619D01*
X213225Y300750D01*
X212343Y302880D01*
X212343Y306720D01*
X213813Y310268D01*
X216528Y312983D01*
X220076Y314453D01*
X237124Y314453D01*
X240672Y312983D01*
X243387Y310268D01*
X243455Y310105D01*
X243506Y310022D01*
X243552Y309936D01*
X243571Y309918D01*
X243584Y309896D01*
X243659Y309834D01*
X243730Y309767D01*
X243754Y309756D01*
X243774Y309739D01*
X243865Y309704D01*
X243953Y309663D01*
X243979Y309660D01*
X244003Y309651D01*
X244101Y309647D01*
X244197Y309636D01*
X244223Y309641D01*
X244249Y309640D01*
X244343Y309667D01*
X244438Y309688D01*
X244460Y309702D01*
X244485Y309709D01*
X244565Y309764D01*
X244649Y309814D01*
X244666Y309834D01*
X244687Y309849D01*
X244745Y309927D01*
X244809Y310001D01*
X244819Y310026D01*
X244834Y310046D01*
X244864Y310139D01*
X244901Y310229D01*
X244904Y310262D01*
X244910Y310280D01*
X244910Y310313D01*
X244919Y310396D01*
X244919Y322605D01*
X244905Y322695D01*
X244897Y322786D01*
X244885Y322816D01*
X244880Y322848D01*
X244837Y322929D01*
X244801Y323013D01*
X244775Y323045D01*
X244764Y323065D01*
X244741Y323088D01*
X244696Y323144D01*
X244209Y323631D01*
X243837Y324529D01*
X243774Y324631D01*
X243712Y324733D01*
X243709Y324735D01*
X243708Y324738D01*
X243615Y324815D01*
X243523Y324892D01*
X243521Y324893D01*
X243518Y324895D01*
X243405Y324938D01*
X243295Y324982D01*
X243291Y324982D01*
X243288Y324983D01*
X243169Y324988D01*
X243049Y324994D01*
X243046Y324993D01*
X243043Y324993D01*
X242929Y324960D01*
X242812Y324927D01*
X242809Y324926D01*
X242806Y324925D01*
X242709Y324857D01*
X242609Y324789D01*
X242607Y324786D01*
X242604Y324785D01*
X242598Y324776D01*
X242501Y324660D01*
X242307Y324371D01*
X241034Y323097D01*
X239536Y322096D01*
X237871Y321407D01*
X236105Y321055D01*
X230123Y321055D01*
X230123Y329438D01*
X230120Y329458D01*
X230122Y329477D01*
X230100Y329579D01*
X230083Y329681D01*
X230074Y329698D01*
X230070Y329718D01*
X230017Y329807D01*
X229968Y329898D01*
X229954Y329912D01*
X229944Y329929D01*
X229865Y329996D01*
X229790Y330067D01*
X229772Y330076D01*
X229757Y330089D01*
X229661Y330127D01*
X229567Y330171D01*
X229547Y330173D01*
X229529Y330181D01*
X229362Y330199D01*
X228599Y330199D01*
X228599Y330201D01*
X229362Y330201D01*
X229382Y330204D01*
X229401Y330202D01*
X229503Y330224D01*
X229605Y330241D01*
X229622Y330250D01*
X229642Y330254D01*
X229731Y330307D01*
X229822Y330356D01*
X229836Y330370D01*
X229853Y330380D01*
X229920Y330459D01*
X229991Y330534D01*
X230000Y330552D01*
X230013Y330567D01*
X230052Y330663D01*
X230095Y330757D01*
X230097Y330777D01*
X230105Y330795D01*
X230123Y330962D01*
X230123Y339345D01*
X236105Y339345D01*
X237871Y338993D01*
X239536Y338304D01*
X241034Y337303D01*
X242307Y336030D01*
X243308Y334532D01*
X243997Y332867D01*
X244003Y332838D01*
X244046Y332724D01*
X244086Y332613D01*
X244088Y332611D01*
X244090Y332608D01*
X244166Y332514D01*
X244240Y332421D01*
X244243Y332419D01*
X244245Y332417D01*
X244346Y332353D01*
X244447Y332288D01*
X244450Y332287D01*
X244453Y332286D01*
X244568Y332257D01*
X244686Y332228D01*
X244689Y332228D01*
X244692Y332227D01*
X244812Y332238D01*
X244931Y332247D01*
X244934Y332248D01*
X244937Y332249D01*
X245048Y332297D01*
X245157Y332343D01*
X245160Y332346D01*
X245162Y332347D01*
X245171Y332354D01*
X245288Y332448D01*
X246131Y333291D01*
X248641Y334331D01*
X251359Y334331D01*
X253869Y333291D01*
X255791Y331369D01*
X256831Y328859D01*
X256831Y326141D01*
X255791Y323631D01*
X255304Y323144D01*
X255251Y323070D01*
X255191Y323000D01*
X255179Y322970D01*
X255160Y322944D01*
X255133Y322857D01*
X255099Y322772D01*
X255095Y322731D01*
X255088Y322709D01*
X255089Y322677D01*
X255081Y322605D01*
X255081Y298695D01*
X242858Y286473D01*
X242847Y286457D01*
X242831Y286445D01*
X242775Y286357D01*
X242715Y286273D01*
X242709Y286254D01*
X242698Y286238D01*
X242673Y286137D01*
X242642Y286038D01*
X242643Y286018D01*
X242638Y285999D01*
X242646Y285896D01*
X242649Y285792D01*
X242656Y285774D01*
X242657Y285754D01*
X242698Y285659D01*
X242733Y285561D01*
X242746Y285546D01*
X242754Y285528D01*
X242858Y285397D01*
X243387Y284868D01*
X244857Y281320D01*
X244857Y279280D01*
X244868Y279209D01*
X244870Y279137D01*
X244888Y279088D01*
X244896Y279037D01*
X244930Y278974D01*
X244955Y278906D01*
X244987Y278866D01*
X245012Y278820D01*
X245064Y278770D01*
X245108Y278714D01*
X245152Y278686D01*
X245190Y278650D01*
X245255Y278620D01*
X245315Y278581D01*
X245366Y278569D01*
X245413Y278547D01*
X245484Y278539D01*
X245554Y278521D01*
X245606Y278525D01*
X245657Y278520D01*
X245728Y278535D01*
X245799Y278540D01*
X245847Y278561D01*
X245898Y278572D01*
X245959Y278609D01*
X246025Y278637D01*
X246081Y278681D01*
X246109Y278698D01*
X246124Y278716D01*
X246156Y278741D01*
X257196Y289782D01*
X257249Y289855D01*
X257309Y289925D01*
X257321Y289955D01*
X257340Y289981D01*
X257367Y290068D01*
X257401Y290153D01*
X257405Y290194D01*
X257412Y290216D01*
X257411Y290249D01*
X257419Y290320D01*
X257419Y322105D01*
X260618Y325304D01*
X284144Y348829D01*
X284155Y348845D01*
X284171Y348857D01*
X284227Y348945D01*
X284287Y349029D01*
X284293Y349048D01*
X284304Y349064D01*
X284329Y349165D01*
X284360Y349264D01*
X284359Y349284D01*
X284364Y349303D01*
X284356Y349406D01*
X284353Y349510D01*
X284346Y349528D01*
X284345Y349548D01*
X284304Y349643D01*
X284269Y349741D01*
X284256Y349756D01*
X284248Y349774D01*
X284144Y349905D01*
X282300Y351749D01*
X282292Y351763D01*
X282222Y351830D01*
X282156Y351902D01*
X282133Y351914D01*
X282114Y351932D01*
X282026Y351973D01*
X281940Y352020D01*
X281915Y352025D01*
X281891Y352036D01*
X281794Y352047D01*
X281698Y352064D01*
X281672Y352060D01*
X281647Y352063D01*
X281552Y352042D01*
X281455Y352028D01*
X281432Y352016D01*
X281406Y352011D01*
X281323Y351961D01*
X281236Y351917D01*
X281217Y351898D01*
X281195Y351885D01*
X281132Y351810D01*
X281064Y351741D01*
X281048Y351712D01*
X281035Y351698D01*
X281023Y351667D01*
X280983Y351594D01*
X280791Y351131D01*
X278869Y349209D01*
X276359Y348169D01*
X273641Y348169D01*
X271131Y349209D01*
X270644Y349696D01*
X270570Y349749D01*
X270500Y349809D01*
X270470Y349821D01*
X270444Y349840D01*
X270357Y349867D01*
X270272Y349901D01*
X270231Y349905D01*
X270209Y349912D01*
X270177Y349911D01*
X270105Y349919D01*
X243490Y349919D01*
X243400Y349905D01*
X243309Y349897D01*
X243279Y349885D01*
X243247Y349880D01*
X243166Y349837D01*
X243082Y349801D01*
X243050Y349775D01*
X243029Y349764D01*
X243007Y349741D01*
X242951Y349696D01*
X240672Y347417D01*
X237124Y345947D01*
X220076Y345947D01*
X216528Y347417D01*
X213813Y350132D01*
X212343Y353680D01*
X212343Y357520D01*
X213813Y361068D01*
X216528Y363783D01*
X220076Y365253D01*
X237124Y365253D01*
X240672Y363783D01*
X243387Y361068D01*
X243601Y360551D01*
X243663Y360451D01*
X243723Y360351D01*
X243728Y360347D01*
X243731Y360342D01*
X243822Y360267D01*
X243910Y360191D01*
X243916Y360189D01*
X243920Y360185D01*
X244029Y360143D01*
X244138Y360099D01*
X244146Y360098D01*
X244150Y360097D01*
X244168Y360096D01*
X244305Y360081D01*
X270105Y360081D01*
X270195Y360095D01*
X270286Y360103D01*
X270316Y360115D01*
X270348Y360120D01*
X270429Y360163D01*
X270513Y360199D01*
X270545Y360225D01*
X270565Y360236D01*
X270588Y360259D01*
X270644Y360304D01*
X271131Y360791D01*
X273641Y361831D01*
X276359Y361831D01*
X278869Y360791D01*
X280791Y358869D01*
X280983Y358406D01*
X281034Y358323D01*
X281080Y358237D01*
X281099Y358219D01*
X281112Y358197D01*
X281187Y358135D01*
X281258Y358068D01*
X281282Y358057D01*
X281302Y358040D01*
X281393Y358005D01*
X281481Y357964D01*
X281507Y357961D01*
X281531Y357952D01*
X281629Y357948D01*
X281725Y357937D01*
X281751Y357943D01*
X281777Y357941D01*
X281871Y357969D01*
X281966Y357989D01*
X281988Y358003D01*
X282013Y358010D01*
X282093Y358066D01*
X282177Y358115D01*
X282194Y358135D01*
X282215Y358150D01*
X282273Y358228D01*
X282337Y358302D01*
X282347Y358327D01*
X282362Y358348D01*
X282392Y358440D01*
X282429Y358531D01*
X282432Y358563D01*
X282438Y358581D01*
X282438Y358615D01*
X282447Y358697D01*
X282447Y359598D01*
X288102Y365253D01*
X296098Y365253D01*
X301753Y359598D01*
X301753Y351602D01*
X296098Y345947D01*
X295948Y345947D01*
X295858Y345933D01*
X295767Y345925D01*
X295737Y345913D01*
X295705Y345908D01*
X295624Y345865D01*
X295541Y345829D01*
X295508Y345803D01*
X295488Y345792D01*
X295466Y345769D01*
X295410Y345724D01*
X267804Y318118D01*
X267751Y318045D01*
X267691Y317975D01*
X267679Y317945D01*
X267660Y317919D01*
X267633Y317832D01*
X267599Y317747D01*
X267595Y317706D01*
X267588Y317684D01*
X267589Y317651D01*
X267581Y317580D01*
X267581Y285795D01*
X242858Y261073D01*
X242847Y261057D01*
X242831Y261045D01*
X242775Y260957D01*
X242715Y260873D01*
X242709Y260854D01*
X242698Y260838D01*
X242673Y260737D01*
X242642Y260638D01*
X242643Y260618D01*
X242638Y260599D01*
X242646Y260496D01*
X242649Y260392D01*
X242656Y260374D01*
X242657Y260354D01*
X242698Y260259D01*
X242733Y260161D01*
X242746Y260146D01*
X242754Y260128D01*
X242858Y259997D01*
X243387Y259468D01*
X244857Y255920D01*
X244857Y253880D01*
X244868Y253809D01*
X244870Y253737D01*
X244888Y253688D01*
X244896Y253637D01*
X244930Y253574D01*
X244955Y253506D01*
X244987Y253466D01*
X245012Y253420D01*
X245064Y253370D01*
X245108Y253314D01*
X245152Y253286D01*
X245190Y253250D01*
X245255Y253220D01*
X245315Y253181D01*
X245366Y253169D01*
X245413Y253147D01*
X245484Y253139D01*
X245554Y253121D01*
X245606Y253125D01*
X245657Y253120D01*
X245728Y253135D01*
G37*
%LPC*%
G36*
X887080Y53847D02*
X887080Y53847D01*
X883532Y55317D01*
X880817Y58032D01*
X879347Y61580D01*
X879347Y65481D01*
X879368Y65564D01*
X879368Y65570D01*
X879369Y65576D01*
X879358Y65694D01*
X879349Y65810D01*
X879347Y65815D01*
X879346Y65821D01*
X879298Y65929D01*
X879253Y66036D01*
X879248Y66042D01*
X879246Y66046D01*
X879234Y66060D01*
X879148Y66167D01*
X815490Y129824D01*
X815417Y129877D01*
X815347Y129937D01*
X815317Y129949D01*
X815291Y129968D01*
X815204Y129995D01*
X815119Y130029D01*
X815078Y130033D01*
X815056Y130040D01*
X815023Y130039D01*
X814952Y130047D01*
X804276Y130047D01*
X800728Y131517D01*
X798013Y134232D01*
X796543Y137780D01*
X796543Y141620D01*
X798013Y145168D01*
X800728Y147883D01*
X804276Y149353D01*
X821324Y149353D01*
X824872Y147883D01*
X827587Y145168D01*
X829057Y141620D01*
X829057Y137780D01*
X827587Y134232D01*
X827058Y133703D01*
X827047Y133687D01*
X827031Y133675D01*
X826975Y133588D01*
X826915Y133504D01*
X826909Y133485D01*
X826898Y133468D01*
X826873Y133367D01*
X826842Y133269D01*
X826843Y133249D01*
X826838Y133229D01*
X826846Y133126D01*
X826849Y133023D01*
X826856Y133004D01*
X826857Y132984D01*
X826898Y132889D01*
X826933Y132792D01*
X826946Y132776D01*
X826954Y132758D01*
X827058Y132627D01*
X886333Y73352D01*
X886428Y73284D01*
X886522Y73214D01*
X886528Y73212D01*
X886533Y73209D01*
X886644Y73174D01*
X886756Y73138D01*
X886762Y73138D01*
X886768Y73136D01*
X886885Y73139D01*
X887002Y73140D01*
X887009Y73142D01*
X887014Y73143D01*
X887031Y73149D01*
X887045Y73153D01*
X890652Y73153D01*
X890742Y73167D01*
X890833Y73175D01*
X890863Y73187D01*
X890895Y73192D01*
X890976Y73235D01*
X891059Y73271D01*
X891092Y73297D01*
X891112Y73308D01*
X891134Y73331D01*
X891190Y73376D01*
X953920Y136106D01*
X953973Y136179D01*
X954033Y136249D01*
X954045Y136279D01*
X954064Y136305D01*
X954091Y136392D01*
X954125Y136477D01*
X954129Y136518D01*
X954136Y136540D01*
X954135Y136573D01*
X954143Y136644D01*
X954143Y187620D01*
X954132Y187691D01*
X954130Y187763D01*
X954112Y187812D01*
X954104Y187863D01*
X954070Y187926D01*
X954045Y187994D01*
X954013Y188034D01*
X953988Y188080D01*
X953937Y188130D01*
X953892Y188186D01*
X953848Y188214D01*
X953810Y188250D01*
X953745Y188280D01*
X953685Y188319D01*
X953634Y188331D01*
X953587Y188353D01*
X953516Y188361D01*
X953446Y188379D01*
X953394Y188375D01*
X953343Y188380D01*
X953272Y188365D01*
X953201Y188360D01*
X953153Y188339D01*
X953102Y188328D01*
X953041Y188291D01*
X952975Y188263D01*
X952919Y188219D01*
X952891Y188202D01*
X952876Y188184D01*
X952844Y188159D01*
X948506Y183821D01*
X948495Y183805D01*
X948479Y183793D01*
X948423Y183705D01*
X948363Y183621D01*
X948357Y183602D01*
X948346Y183586D01*
X948321Y183485D01*
X948290Y183386D01*
X948291Y183366D01*
X948286Y183347D01*
X948294Y183244D01*
X948297Y183140D01*
X948304Y183122D01*
X948305Y183102D01*
X948346Y183007D01*
X948381Y182909D01*
X948394Y182894D01*
X948402Y182876D01*
X948506Y182745D01*
X949453Y181798D01*
X949453Y173802D01*
X945104Y169453D01*
X945051Y169379D01*
X944991Y169309D01*
X944979Y169279D01*
X944960Y169253D01*
X944933Y169166D01*
X944899Y169081D01*
X944895Y169040D01*
X944888Y169018D01*
X944889Y168986D01*
X944881Y168914D01*
X944881Y148552D01*
X944900Y148437D01*
X944917Y148321D01*
X944919Y148316D01*
X944920Y148309D01*
X944975Y148206D01*
X945028Y148102D01*
X945033Y148098D01*
X945036Y148092D01*
X945120Y148012D01*
X945204Y147930D01*
X945210Y147926D01*
X945214Y147923D01*
X945231Y147915D01*
X945243Y147908D01*
X947983Y145168D01*
X949453Y141620D01*
X949453Y137780D01*
X947983Y134232D01*
X945268Y131517D01*
X941720Y130047D01*
X937880Y130047D01*
X934332Y131517D01*
X931617Y134232D01*
X930147Y137780D01*
X930147Y141620D01*
X931617Y145168D01*
X934375Y147926D01*
X934449Y147970D01*
X934453Y147975D01*
X934458Y147978D01*
X934533Y148069D01*
X934609Y148157D01*
X934611Y148163D01*
X934615Y148168D01*
X934657Y148277D01*
X934701Y148385D01*
X934702Y148393D01*
X934703Y148397D01*
X934704Y148416D01*
X934719Y148552D01*
X934719Y168914D01*
X934705Y169004D01*
X934697Y169095D01*
X934685Y169125D01*
X934680Y169157D01*
X934637Y169238D01*
X934601Y169322D01*
X934575Y169354D01*
X934564Y169375D01*
X934541Y169397D01*
X934496Y169453D01*
X930147Y173802D01*
X930147Y181798D01*
X935802Y187453D01*
X937452Y187453D01*
X937542Y187467D01*
X937633Y187475D01*
X937663Y187487D01*
X937695Y187492D01*
X937776Y187535D01*
X937859Y187571D01*
X937892Y187597D01*
X937912Y187608D01*
X937934Y187631D01*
X937990Y187676D01*
X946808Y196494D01*
X946861Y196567D01*
X946921Y196637D01*
X946933Y196667D01*
X946952Y196693D01*
X946979Y196780D01*
X947013Y196865D01*
X947017Y196906D01*
X947024Y196928D01*
X947023Y196961D01*
X947031Y197032D01*
X947031Y327968D01*
X947017Y328058D01*
X947009Y328149D01*
X946997Y328179D01*
X946992Y328211D01*
X946949Y328292D01*
X946913Y328375D01*
X946887Y328408D01*
X946876Y328428D01*
X946853Y328450D01*
X946808Y328506D01*
X942290Y333024D01*
X942216Y333077D01*
X942147Y333137D01*
X942117Y333149D01*
X942091Y333168D01*
X942004Y333195D01*
X941919Y333229D01*
X941878Y333233D01*
X941856Y333240D01*
X941823Y333239D01*
X941752Y333247D01*
X935802Y333247D01*
X930147Y338902D01*
X930147Y346898D01*
X935802Y352553D01*
X943798Y352553D01*
X949453Y346898D01*
X949453Y340548D01*
X949467Y340458D01*
X949475Y340367D01*
X949487Y340337D01*
X949492Y340305D01*
X949535Y340224D01*
X949571Y340140D01*
X949597Y340108D01*
X949608Y340088D01*
X949631Y340065D01*
X949676Y340010D01*
X952844Y336841D01*
X952902Y336800D01*
X952954Y336750D01*
X953001Y336728D01*
X953043Y336698D01*
X953112Y336677D01*
X953177Y336647D01*
X953229Y336641D01*
X953279Y336626D01*
X953350Y336627D01*
X953421Y336620D01*
X953472Y336631D01*
X953524Y336632D01*
X953592Y336657D01*
X953662Y336672D01*
X953706Y336698D01*
X953755Y336716D01*
X953811Y336761D01*
X953873Y336798D01*
X953907Y336838D01*
X953947Y336870D01*
X953986Y336930D01*
X954033Y336985D01*
X954052Y337033D01*
X954080Y337077D01*
X954098Y337146D01*
X954125Y337213D01*
X954133Y337284D01*
X954141Y337316D01*
X954139Y337339D01*
X954143Y337380D01*
X954143Y358356D01*
X954129Y358446D01*
X954121Y358537D01*
X954109Y358567D01*
X954104Y358599D01*
X954061Y358680D01*
X954025Y358763D01*
X953999Y358796D01*
X953988Y358816D01*
X953965Y358838D01*
X953920Y358894D01*
X941690Y371124D01*
X941617Y371177D01*
X941547Y371237D01*
X941517Y371249D01*
X941491Y371268D01*
X941404Y371295D01*
X941319Y371329D01*
X941278Y371333D01*
X941256Y371340D01*
X941223Y371339D01*
X941152Y371347D01*
X935802Y371347D01*
X930147Y377002D01*
X930147Y384998D01*
X935802Y390653D01*
X943798Y390653D01*
X949453Y384998D01*
X949453Y378048D01*
X949467Y377958D01*
X949475Y377867D01*
X949487Y377837D01*
X949492Y377805D01*
X949535Y377724D01*
X949571Y377641D01*
X949597Y377608D01*
X949608Y377588D01*
X949631Y377566D01*
X949676Y377510D01*
X964305Y362881D01*
X964305Y132119D01*
X961106Y128920D01*
X898706Y66520D01*
X898663Y66461D01*
X898620Y66416D01*
X898603Y66379D01*
X898568Y66332D01*
X898566Y66326D01*
X898562Y66321D01*
X898535Y66234D01*
X898516Y66193D01*
X898513Y66164D01*
X898491Y66098D01*
X898492Y66092D01*
X898490Y66086D01*
X898492Y65979D01*
X898489Y65948D01*
X898493Y65930D01*
X898494Y65852D01*
X898496Y65845D01*
X898496Y65840D01*
X898502Y65822D01*
X898541Y65691D01*
X898653Y65420D01*
X898653Y61580D01*
X897183Y58032D01*
X894468Y55317D01*
X890920Y53847D01*
X887080Y53847D01*
G37*
%LPD*%
%LPC*%
G36*
X54976Y168147D02*
X54976Y168147D01*
X51428Y169617D01*
X48713Y172332D01*
X47243Y175880D01*
X47243Y179720D01*
X48713Y183268D01*
X51428Y185983D01*
X54976Y187453D01*
X56658Y187453D01*
X56678Y187456D01*
X56697Y187454D01*
X56799Y187476D01*
X56901Y187492D01*
X56918Y187502D01*
X56938Y187506D01*
X57027Y187559D01*
X57118Y187608D01*
X57132Y187622D01*
X57149Y187632D01*
X57216Y187711D01*
X57288Y187786D01*
X57296Y187804D01*
X57309Y187819D01*
X57348Y187915D01*
X57391Y188009D01*
X57393Y188029D01*
X57401Y188047D01*
X57419Y188214D01*
X57419Y205080D01*
X57405Y205170D01*
X57397Y205261D01*
X57385Y205291D01*
X57380Y205323D01*
X57337Y205404D01*
X57301Y205488D01*
X57275Y205520D01*
X57264Y205540D01*
X57241Y205563D01*
X57196Y205618D01*
X30821Y231994D01*
X30805Y232005D01*
X30793Y232021D01*
X30705Y232077D01*
X30621Y232137D01*
X30602Y232143D01*
X30586Y232154D01*
X30485Y232179D01*
X30386Y232210D01*
X30366Y232209D01*
X30347Y232214D01*
X30244Y232206D01*
X30140Y232203D01*
X30122Y232196D01*
X30102Y232195D01*
X30007Y232154D01*
X29909Y232119D01*
X29894Y232106D01*
X29876Y232098D01*
X29745Y231994D01*
X29398Y231647D01*
X21402Y231647D01*
X15747Y237302D01*
X15747Y245298D01*
X21402Y250953D01*
X21658Y250953D01*
X21678Y250956D01*
X21697Y250954D01*
X21799Y250976D01*
X21901Y250992D01*
X21918Y251002D01*
X21938Y251006D01*
X22027Y251059D01*
X22118Y251108D01*
X22132Y251122D01*
X22149Y251132D01*
X22216Y251211D01*
X22288Y251286D01*
X22296Y251304D01*
X22309Y251319D01*
X22348Y251415D01*
X22391Y251509D01*
X22393Y251529D01*
X22401Y251547D01*
X22419Y251714D01*
X22419Y268986D01*
X22416Y269006D01*
X22418Y269025D01*
X22396Y269127D01*
X22380Y269229D01*
X22370Y269246D01*
X22366Y269266D01*
X22313Y269355D01*
X22264Y269446D01*
X22250Y269460D01*
X22240Y269477D01*
X22161Y269544D01*
X22086Y269616D01*
X22068Y269624D01*
X22053Y269637D01*
X21957Y269676D01*
X21863Y269719D01*
X21843Y269721D01*
X21825Y269729D01*
X21658Y269747D01*
X21402Y269747D01*
X15747Y275402D01*
X15747Y283398D01*
X21402Y289053D01*
X29398Y289053D01*
X35053Y283398D01*
X35053Y275402D01*
X32804Y273153D01*
X32751Y273079D01*
X32691Y273009D01*
X32679Y272979D01*
X32660Y272953D01*
X32633Y272866D01*
X32599Y272781D01*
X32595Y272740D01*
X32588Y272718D01*
X32589Y272686D01*
X32581Y272614D01*
X32581Y271604D01*
X32592Y271533D01*
X32594Y271461D01*
X32612Y271412D01*
X32620Y271361D01*
X32654Y271298D01*
X32679Y271230D01*
X32711Y271190D01*
X32736Y271144D01*
X32788Y271094D01*
X32832Y271038D01*
X32876Y271010D01*
X32914Y270974D01*
X32979Y270944D01*
X33039Y270905D01*
X33090Y270893D01*
X33137Y270871D01*
X33208Y270863D01*
X33278Y270845D01*
X33330Y270849D01*
X33381Y270844D01*
X33452Y270859D01*
X33523Y270864D01*
X33571Y270885D01*
X33622Y270896D01*
X33683Y270933D01*
X33749Y270961D01*
X33805Y271005D01*
X33833Y271022D01*
X33848Y271040D01*
X33880Y271065D01*
X65395Y302581D01*
X109605Y302581D01*
X112804Y299382D01*
X134844Y277341D01*
X134902Y277300D01*
X134954Y277250D01*
X135001Y277228D01*
X135043Y277198D01*
X135112Y277177D01*
X135177Y277147D01*
X135229Y277141D01*
X135279Y277126D01*
X135350Y277127D01*
X135421Y277120D01*
X135472Y277131D01*
X135524Y277132D01*
X135592Y277157D01*
X135662Y277172D01*
X135707Y277199D01*
X135755Y277216D01*
X135811Y277261D01*
X135873Y277298D01*
X135907Y277338D01*
X135947Y277370D01*
X135986Y277430D01*
X136033Y277485D01*
X136052Y277533D01*
X136080Y277577D01*
X136098Y277646D01*
X136125Y277713D01*
X136133Y277784D01*
X136141Y277816D01*
X136139Y277839D01*
X136143Y277880D01*
X136143Y281320D01*
X137613Y284868D01*
X140328Y287583D01*
X143876Y289053D01*
X160924Y289053D01*
X164472Y287583D01*
X167187Y284868D01*
X168657Y281320D01*
X168657Y277480D01*
X167187Y273932D01*
X164472Y271217D01*
X160924Y269747D01*
X144276Y269747D01*
X144205Y269736D01*
X144133Y269734D01*
X144084Y269716D01*
X144033Y269708D01*
X143970Y269674D01*
X143902Y269649D01*
X143862Y269617D01*
X143816Y269592D01*
X143766Y269540D01*
X143710Y269496D01*
X143682Y269452D01*
X143646Y269414D01*
X143616Y269349D01*
X143577Y269289D01*
X143565Y269238D01*
X143543Y269191D01*
X143535Y269120D01*
X143517Y269050D01*
X143521Y268998D01*
X143516Y268947D01*
X143531Y268876D01*
X143536Y268805D01*
X143557Y268757D01*
X143568Y268706D01*
X143605Y268645D01*
X143633Y268579D01*
X143677Y268523D01*
X143694Y268495D01*
X143712Y268480D01*
X143737Y268448D01*
X148310Y263876D01*
X148384Y263823D01*
X148453Y263763D01*
X148483Y263751D01*
X148509Y263732D01*
X148596Y263705D01*
X148681Y263671D01*
X148722Y263667D01*
X148744Y263660D01*
X148777Y263661D01*
X148848Y263653D01*
X160924Y263653D01*
X164472Y262183D01*
X167187Y259468D01*
X168657Y255920D01*
X168657Y252080D01*
X167187Y248532D01*
X164472Y245817D01*
X160924Y244347D01*
X145676Y244347D01*
X145605Y244336D01*
X145533Y244334D01*
X145484Y244316D01*
X145433Y244308D01*
X145370Y244274D01*
X145302Y244249D01*
X145262Y244217D01*
X145216Y244192D01*
X145166Y244140D01*
X145110Y244096D01*
X145082Y244052D01*
X145046Y244014D01*
X145016Y243949D01*
X144977Y243889D01*
X144965Y243838D01*
X144943Y243791D01*
X144935Y243720D01*
X144917Y243650D01*
X144921Y243598D01*
X144916Y243547D01*
X144931Y243476D01*
X144936Y243405D01*
X144957Y243357D01*
X144968Y243306D01*
X145005Y243245D01*
X145033Y243179D01*
X145077Y243123D01*
X145094Y243095D01*
X145112Y243080D01*
X145137Y243048D01*
X149710Y238476D01*
X149784Y238423D01*
X149853Y238363D01*
X149883Y238351D01*
X149909Y238332D01*
X149996Y238305D01*
X150081Y238271D01*
X150122Y238267D01*
X150144Y238260D01*
X150177Y238261D01*
X150248Y238253D01*
X160924Y238253D01*
X164472Y236783D01*
X167187Y234068D01*
X168657Y230520D01*
X168657Y226680D01*
X167187Y223132D01*
X164472Y220417D01*
X160924Y218947D01*
X143876Y218947D01*
X140328Y220417D01*
X137613Y223132D01*
X136143Y226680D01*
X136143Y230520D01*
X137613Y234068D01*
X138142Y234597D01*
X138153Y234613D01*
X138169Y234625D01*
X138225Y234712D01*
X138285Y234796D01*
X138291Y234815D01*
X138302Y234832D01*
X138327Y234933D01*
X138358Y235031D01*
X138357Y235051D01*
X138362Y235071D01*
X138354Y235174D01*
X138351Y235277D01*
X138344Y235296D01*
X138343Y235316D01*
X138302Y235411D01*
X138267Y235508D01*
X138254Y235524D01*
X138246Y235542D01*
X138142Y235673D01*
X104290Y269524D01*
X104217Y269577D01*
X104147Y269637D01*
X104117Y269649D01*
X104091Y269668D01*
X104004Y269695D01*
X103919Y269729D01*
X103878Y269733D01*
X103856Y269740D01*
X103823Y269739D01*
X103752Y269747D01*
X97602Y269747D01*
X91947Y275402D01*
X91947Y283398D01*
X97602Y289053D01*
X105598Y289053D01*
X111253Y283398D01*
X111253Y277248D01*
X111267Y277158D01*
X111275Y277067D01*
X111287Y277037D01*
X111292Y277005D01*
X111335Y276924D01*
X111371Y276840D01*
X111397Y276808D01*
X111408Y276788D01*
X111431Y276765D01*
X111476Y276710D01*
X134844Y253341D01*
X134902Y253300D01*
X134954Y253250D01*
X135001Y253228D01*
X135043Y253198D01*
X135112Y253177D01*
X135177Y253147D01*
X135229Y253141D01*
X135279Y253126D01*
X135350Y253127D01*
X135421Y253120D01*
X135472Y253131D01*
X135524Y253132D01*
X135592Y253157D01*
X135662Y253172D01*
X135706Y253198D01*
X135755Y253216D01*
X135811Y253261D01*
X135873Y253298D01*
X135907Y253338D01*
X135947Y253370D01*
X135986Y253430D01*
X136033Y253485D01*
X136052Y253533D01*
X136080Y253577D01*
X136098Y253646D01*
X136125Y253713D01*
X136133Y253784D01*
X136141Y253816D01*
X136139Y253839D01*
X136143Y253880D01*
X136143Y255920D01*
X137633Y259517D01*
X137660Y259631D01*
X137688Y259744D01*
X137688Y259750D01*
X137689Y259756D01*
X137678Y259873D01*
X137669Y259989D01*
X137667Y259995D01*
X137666Y260001D01*
X137618Y260109D01*
X137573Y260216D01*
X137568Y260221D01*
X137566Y260226D01*
X137554Y260240D01*
X137468Y260347D01*
X105618Y292196D01*
X105545Y292249D01*
X105475Y292309D01*
X105445Y292321D01*
X105419Y292340D01*
X105332Y292367D01*
X105247Y292401D01*
X105206Y292405D01*
X105184Y292412D01*
X105151Y292411D01*
X105080Y292419D01*
X69920Y292419D01*
X69830Y292405D01*
X69739Y292397D01*
X69709Y292385D01*
X69677Y292380D01*
X69596Y292337D01*
X69513Y292301D01*
X69480Y292275D01*
X69460Y292264D01*
X69438Y292241D01*
X69382Y292196D01*
X32804Y255618D01*
X32751Y255545D01*
X32691Y255475D01*
X32679Y255445D01*
X32660Y255419D01*
X32633Y255332D01*
X32599Y255247D01*
X32595Y255206D01*
X32588Y255184D01*
X32589Y255151D01*
X32581Y255080D01*
X32581Y248086D01*
X32595Y247996D01*
X32603Y247905D01*
X32615Y247875D01*
X32620Y247843D01*
X32663Y247762D01*
X32699Y247678D01*
X32725Y247646D01*
X32736Y247625D01*
X32759Y247603D01*
X32804Y247547D01*
X35053Y245298D01*
X35053Y242448D01*
X35067Y242358D01*
X35075Y242267D01*
X35087Y242237D01*
X35092Y242205D01*
X35135Y242124D01*
X35171Y242040D01*
X35197Y242008D01*
X35208Y241988D01*
X35231Y241965D01*
X35276Y241910D01*
X64382Y212804D01*
X67581Y209605D01*
X67581Y188214D01*
X67584Y188194D01*
X67582Y188175D01*
X67604Y188073D01*
X67620Y187971D01*
X67630Y187954D01*
X67634Y187934D01*
X67687Y187845D01*
X67736Y187754D01*
X67750Y187740D01*
X67760Y187723D01*
X67839Y187656D01*
X67914Y187584D01*
X67932Y187576D01*
X67947Y187563D01*
X68043Y187524D01*
X68137Y187481D01*
X68157Y187479D01*
X68175Y187471D01*
X68342Y187453D01*
X72024Y187453D01*
X75572Y185983D01*
X78287Y183268D01*
X79757Y179720D01*
X79757Y175880D01*
X78287Y172332D01*
X75572Y169617D01*
X72024Y168147D01*
X54976Y168147D01*
G37*
%LPD*%
%LPC*%
G36*
X522383Y217931D02*
X522383Y217931D01*
X467234Y273080D01*
X467161Y273133D01*
X467091Y273193D01*
X467061Y273205D01*
X467035Y273224D01*
X466948Y273251D01*
X466863Y273285D01*
X466822Y273289D01*
X466800Y273296D01*
X466767Y273295D01*
X466696Y273303D01*
X466086Y273303D01*
X466015Y273292D01*
X465943Y273290D01*
X465894Y273272D01*
X465843Y273264D01*
X465779Y273230D01*
X465712Y273205D01*
X465671Y273173D01*
X465625Y273148D01*
X465576Y273096D01*
X465520Y273052D01*
X465492Y273008D01*
X465456Y272970D01*
X465426Y272905D01*
X465387Y272845D01*
X465374Y272794D01*
X465352Y272747D01*
X465345Y272676D01*
X465327Y272606D01*
X465331Y272554D01*
X465325Y272503D01*
X465341Y272432D01*
X465346Y272361D01*
X465366Y272313D01*
X465378Y272262D01*
X465414Y272201D01*
X465442Y272135D01*
X465487Y272079D01*
X465504Y272051D01*
X465522Y272036D01*
X465547Y272004D01*
X466853Y270698D01*
X466853Y262702D01*
X462504Y258353D01*
X462461Y258293D01*
X462421Y258251D01*
X462414Y258236D01*
X462391Y258209D01*
X462379Y258179D01*
X462360Y258153D01*
X462333Y258066D01*
X462324Y258043D01*
X462317Y258028D01*
X462317Y258024D01*
X462299Y257981D01*
X462295Y257940D01*
X462288Y257918D01*
X462289Y257886D01*
X462281Y257814D01*
X462281Y237486D01*
X462295Y237396D01*
X462303Y237305D01*
X462315Y237275D01*
X462320Y237243D01*
X462363Y237162D01*
X462399Y237078D01*
X462425Y237046D01*
X462436Y237025D01*
X462459Y237003D01*
X462504Y236947D01*
X466853Y232598D01*
X466853Y224602D01*
X461198Y218947D01*
X453202Y218947D01*
X447547Y224602D01*
X447547Y232598D01*
X451896Y236947D01*
X451949Y237021D01*
X452009Y237091D01*
X452021Y237121D01*
X452040Y237147D01*
X452067Y237234D01*
X452101Y237319D01*
X452105Y237360D01*
X452112Y237382D01*
X452111Y237414D01*
X452119Y237486D01*
X452119Y257814D01*
X452105Y257905D01*
X452097Y257995D01*
X452085Y258025D01*
X452080Y258057D01*
X452059Y258095D01*
X452058Y258102D01*
X452038Y258135D01*
X452037Y258138D01*
X452001Y258222D01*
X451975Y258254D01*
X451964Y258275D01*
X451942Y258295D01*
X451932Y258313D01*
X451919Y258324D01*
X451896Y258353D01*
X447547Y262702D01*
X447547Y270698D01*
X448853Y272004D01*
X448895Y272062D01*
X448944Y272114D01*
X448966Y272161D01*
X448996Y272203D01*
X449017Y272272D01*
X449048Y272337D01*
X449053Y272389D01*
X449069Y272439D01*
X449067Y272510D01*
X449075Y272581D01*
X449064Y272632D01*
X449062Y272684D01*
X449038Y272752D01*
X449022Y272822D01*
X448996Y272867D01*
X448978Y272915D01*
X448933Y272971D01*
X448896Y273033D01*
X448857Y273067D01*
X448824Y273107D01*
X448764Y273146D01*
X448709Y273193D01*
X448661Y273212D01*
X448617Y273240D01*
X448548Y273258D01*
X448481Y273285D01*
X448410Y273293D01*
X448379Y273301D01*
X448355Y273299D01*
X448314Y273303D01*
X389886Y273303D01*
X389815Y273292D01*
X389743Y273290D01*
X389694Y273272D01*
X389643Y273264D01*
X389579Y273230D01*
X389512Y273205D01*
X389471Y273173D01*
X389425Y273148D01*
X389376Y273096D01*
X389320Y273052D01*
X389292Y273008D01*
X389256Y272970D01*
X389226Y272905D01*
X389187Y272845D01*
X389174Y272794D01*
X389152Y272747D01*
X389145Y272676D01*
X389127Y272606D01*
X389131Y272554D01*
X389125Y272503D01*
X389141Y272432D01*
X389146Y272361D01*
X389166Y272313D01*
X389178Y272262D01*
X389214Y272201D01*
X389242Y272135D01*
X389287Y272079D01*
X389304Y272051D01*
X389322Y272036D01*
X389347Y272004D01*
X390653Y270698D01*
X390653Y262702D01*
X384998Y257047D01*
X377002Y257047D01*
X371347Y262702D01*
X371347Y270698D01*
X372653Y272004D01*
X372695Y272062D01*
X372744Y272114D01*
X372766Y272161D01*
X372796Y272203D01*
X372817Y272272D01*
X372848Y272337D01*
X372853Y272389D01*
X372869Y272439D01*
X372867Y272510D01*
X372875Y272581D01*
X372864Y272632D01*
X372862Y272684D01*
X372838Y272752D01*
X372822Y272822D01*
X372796Y272867D01*
X372778Y272915D01*
X372733Y272971D01*
X372696Y273033D01*
X372657Y273067D01*
X372624Y273107D01*
X372564Y273146D01*
X372509Y273193D01*
X372461Y273212D01*
X372417Y273240D01*
X372348Y273258D01*
X372281Y273285D01*
X372210Y273293D01*
X372179Y273301D01*
X372155Y273299D01*
X372114Y273303D01*
X370804Y273303D01*
X370714Y273289D01*
X370623Y273281D01*
X370593Y273269D01*
X370561Y273264D01*
X370480Y273221D01*
X370397Y273185D01*
X370364Y273159D01*
X370344Y273148D01*
X370322Y273125D01*
X370266Y273080D01*
X365476Y268290D01*
X365423Y268217D01*
X365363Y268147D01*
X365351Y268117D01*
X365332Y268091D01*
X365305Y268004D01*
X365271Y267919D01*
X365267Y267878D01*
X365260Y267856D01*
X365261Y267823D01*
X365253Y267752D01*
X365253Y262702D01*
X359598Y257047D01*
X351602Y257047D01*
X345947Y262702D01*
X345947Y270698D01*
X351602Y276353D01*
X358852Y276353D01*
X358942Y276367D01*
X359033Y276375D01*
X359063Y276387D01*
X359095Y276392D01*
X359176Y276435D01*
X359259Y276471D01*
X359292Y276497D01*
X359312Y276508D01*
X359334Y276531D01*
X359390Y276576D01*
X366279Y283465D01*
X471221Y283465D01*
X474420Y280266D01*
X522448Y232237D01*
X522506Y232196D01*
X522558Y232146D01*
X522605Y232124D01*
X522647Y232094D01*
X522716Y232073D01*
X522781Y232043D01*
X522833Y232037D01*
X522883Y232022D01*
X522954Y232023D01*
X523025Y232016D01*
X523076Y232027D01*
X523128Y232028D01*
X523196Y232053D01*
X523266Y232068D01*
X523311Y232095D01*
X523359Y232112D01*
X523415Y232157D01*
X523477Y232194D01*
X523511Y232234D01*
X523551Y232266D01*
X523590Y232326D01*
X523637Y232381D01*
X523656Y232429D01*
X523684Y232473D01*
X523702Y232542D01*
X523729Y232609D01*
X523737Y232680D01*
X523745Y232712D01*
X523743Y232735D01*
X523747Y232776D01*
X523747Y249824D01*
X525217Y253372D01*
X527932Y256087D01*
X531480Y257557D01*
X535320Y257557D01*
X538868Y256087D01*
X541583Y253372D01*
X543053Y249824D01*
X543053Y232776D01*
X541549Y229145D01*
X541540Y229110D01*
X541536Y229100D01*
X541535Y229094D01*
X541519Y229059D01*
X541510Y228982D01*
X541493Y228906D01*
X541497Y228860D01*
X541492Y228815D01*
X541508Y228738D01*
X541516Y228661D01*
X541534Y228619D01*
X541544Y228574D01*
X541584Y228507D01*
X541616Y228436D01*
X541647Y228402D01*
X541670Y228363D01*
X541729Y228312D01*
X541782Y228255D01*
X541822Y228233D01*
X541857Y228203D01*
X541929Y228174D01*
X541998Y228137D01*
X542043Y228128D01*
X542085Y228111D01*
X542221Y228096D01*
X542240Y228093D01*
X542245Y228094D01*
X542252Y228093D01*
X549948Y228093D01*
X549993Y228100D01*
X550039Y228098D01*
X550114Y228120D01*
X550191Y228132D01*
X550231Y228154D01*
X550275Y228167D01*
X550339Y228211D01*
X550408Y228248D01*
X550440Y228281D01*
X550477Y228307D01*
X550524Y228369D01*
X550577Y228426D01*
X550597Y228468D01*
X550624Y228504D01*
X550648Y228578D01*
X550681Y228649D01*
X550686Y228695D01*
X550700Y228738D01*
X550700Y228816D01*
X550708Y228893D01*
X550698Y228938D01*
X550698Y228984D01*
X550660Y229116D01*
X550656Y229134D01*
X550653Y229138D01*
X550651Y229145D01*
X549147Y232776D01*
X549147Y249824D01*
X550617Y253372D01*
X553332Y256087D01*
X556880Y257557D01*
X560720Y257557D01*
X564268Y256087D01*
X566983Y253372D01*
X568453Y249824D01*
X568453Y234576D01*
X568464Y234505D01*
X568466Y234433D01*
X568484Y234384D01*
X568492Y234333D01*
X568526Y234270D01*
X568551Y234202D01*
X568583Y234162D01*
X568608Y234116D01*
X568660Y234066D01*
X568704Y234010D01*
X568748Y233982D01*
X568786Y233946D01*
X568851Y233916D01*
X568911Y233877D01*
X568962Y233865D01*
X569009Y233843D01*
X569080Y233835D01*
X569150Y233817D01*
X569202Y233821D01*
X569253Y233816D01*
X569324Y233831D01*
X569395Y233836D01*
X569443Y233857D01*
X569494Y233868D01*
X569555Y233905D01*
X569621Y233933D01*
X569677Y233977D01*
X569705Y233994D01*
X569720Y234012D01*
X569752Y234037D01*
X574324Y238610D01*
X574377Y238684D01*
X574437Y238753D01*
X574449Y238783D01*
X574468Y238809D01*
X574495Y238896D01*
X574529Y238981D01*
X574533Y239022D01*
X574540Y239044D01*
X574539Y239077D01*
X574547Y239148D01*
X574547Y249824D01*
X576017Y253372D01*
X578732Y256087D01*
X582280Y257557D01*
X586120Y257557D01*
X589668Y256087D01*
X592383Y253372D01*
X593853Y249824D01*
X593853Y232776D01*
X592383Y229228D01*
X589668Y226513D01*
X586120Y225043D01*
X582280Y225043D01*
X578732Y226513D01*
X578203Y227042D01*
X578187Y227053D01*
X578175Y227069D01*
X578088Y227125D01*
X578004Y227185D01*
X577985Y227191D01*
X577968Y227202D01*
X577867Y227227D01*
X577769Y227258D01*
X577749Y227257D01*
X577729Y227262D01*
X577626Y227254D01*
X577523Y227251D01*
X577504Y227244D01*
X577484Y227243D01*
X577389Y227202D01*
X577292Y227167D01*
X577276Y227154D01*
X577258Y227146D01*
X577127Y227042D01*
X568017Y217931D01*
X522383Y217931D01*
G37*
%LPD*%
%LPC*%
G36*
X580202Y333247D02*
X580202Y333247D01*
X574547Y338902D01*
X574547Y339158D01*
X574544Y339178D01*
X574546Y339197D01*
X574524Y339299D01*
X574508Y339401D01*
X574498Y339418D01*
X574494Y339438D01*
X574441Y339527D01*
X574392Y339618D01*
X574378Y339632D01*
X574368Y339649D01*
X574289Y339716D01*
X574214Y339788D01*
X574196Y339796D01*
X574181Y339809D01*
X574085Y339848D01*
X573991Y339891D01*
X573971Y339893D01*
X573953Y339901D01*
X573786Y339919D01*
X554595Y339919D01*
X551396Y343118D01*
X538256Y356259D01*
X538198Y356300D01*
X538146Y356350D01*
X538099Y356372D01*
X538057Y356402D01*
X537988Y356423D01*
X537923Y356453D01*
X537871Y356459D01*
X537821Y356474D01*
X537750Y356473D01*
X537679Y356480D01*
X537628Y356469D01*
X537576Y356468D01*
X537508Y356443D01*
X537438Y356428D01*
X537393Y356401D01*
X537345Y356384D01*
X537289Y356339D01*
X537227Y356302D01*
X537193Y356262D01*
X537153Y356230D01*
X537114Y356170D01*
X537067Y356115D01*
X537048Y356067D01*
X537020Y356023D01*
X537002Y355954D01*
X536975Y355887D01*
X536967Y355816D01*
X536959Y355784D01*
X536961Y355761D01*
X536957Y355720D01*
X536957Y353680D01*
X535487Y350132D01*
X532772Y347417D01*
X529224Y345947D01*
X512176Y345947D01*
X508628Y347417D01*
X505870Y350175D01*
X505826Y350249D01*
X505821Y350253D01*
X505818Y350258D01*
X505728Y350332D01*
X505639Y350409D01*
X505633Y350411D01*
X505628Y350415D01*
X505519Y350457D01*
X505411Y350501D01*
X505403Y350502D01*
X505399Y350503D01*
X505380Y350504D01*
X505244Y350519D01*
X478786Y350519D01*
X478696Y350505D01*
X478605Y350497D01*
X478575Y350485D01*
X478543Y350480D01*
X478462Y350437D01*
X478378Y350401D01*
X478346Y350375D01*
X478325Y350364D01*
X478303Y350341D01*
X478247Y350296D01*
X473898Y345947D01*
X465902Y345947D01*
X460247Y351602D01*
X460247Y359598D01*
X465902Y365253D01*
X473898Y365253D01*
X478247Y360904D01*
X478321Y360851D01*
X478391Y360791D01*
X478421Y360779D01*
X478447Y360760D01*
X478534Y360733D01*
X478619Y360699D01*
X478660Y360695D01*
X478682Y360688D01*
X478714Y360689D01*
X478786Y360681D01*
X505244Y360681D01*
X505358Y360700D01*
X505475Y360717D01*
X505480Y360719D01*
X505487Y360720D01*
X505590Y360775D01*
X505694Y360828D01*
X505698Y360833D01*
X505704Y360836D01*
X505784Y360920D01*
X505866Y361004D01*
X505870Y361010D01*
X505873Y361014D01*
X505881Y361031D01*
X505888Y361043D01*
X508628Y363783D01*
X512176Y365253D01*
X527424Y365253D01*
X527495Y365264D01*
X527567Y365266D01*
X527616Y365284D01*
X527667Y365292D01*
X527730Y365326D01*
X527798Y365351D01*
X527838Y365383D01*
X527884Y365408D01*
X527934Y365460D01*
X527990Y365504D01*
X528018Y365548D01*
X528054Y365586D01*
X528084Y365651D01*
X528123Y365711D01*
X528135Y365762D01*
X528157Y365809D01*
X528165Y365880D01*
X528183Y365950D01*
X528179Y366002D01*
X528184Y366053D01*
X528169Y366124D01*
X528164Y366195D01*
X528143Y366243D01*
X528132Y366294D01*
X528095Y366355D01*
X528067Y366421D01*
X528023Y366477D01*
X528006Y366505D01*
X527988Y366520D01*
X527963Y366552D01*
X523390Y371124D01*
X523316Y371177D01*
X523247Y371237D01*
X523217Y371249D01*
X523191Y371268D01*
X523104Y371295D01*
X523019Y371329D01*
X522978Y371333D01*
X522956Y371340D01*
X522923Y371339D01*
X522852Y371347D01*
X512176Y371347D01*
X508628Y372817D01*
X505913Y375532D01*
X504443Y379080D01*
X504443Y379158D01*
X504440Y379178D01*
X504442Y379197D01*
X504420Y379299D01*
X504404Y379401D01*
X504394Y379418D01*
X504390Y379438D01*
X504337Y379527D01*
X504288Y379618D01*
X504274Y379632D01*
X504264Y379649D01*
X504185Y379716D01*
X504110Y379788D01*
X504092Y379796D01*
X504077Y379809D01*
X503981Y379848D01*
X503887Y379891D01*
X503867Y379893D01*
X503849Y379901D01*
X503682Y379919D01*
X451095Y379919D01*
X409090Y421924D01*
X409017Y421977D01*
X408947Y422037D01*
X408917Y422049D01*
X408891Y422068D01*
X408804Y422095D01*
X408719Y422129D01*
X408678Y422133D01*
X408656Y422140D01*
X408623Y422139D01*
X408552Y422147D01*
X402402Y422147D01*
X396747Y427802D01*
X396747Y435798D01*
X402402Y441453D01*
X410398Y441453D01*
X416053Y435798D01*
X416053Y429648D01*
X416067Y429558D01*
X416075Y429467D01*
X416087Y429437D01*
X416092Y429405D01*
X416135Y429324D01*
X416171Y429240D01*
X416197Y429208D01*
X416208Y429188D01*
X416231Y429165D01*
X416276Y429110D01*
X455082Y390304D01*
X455155Y390251D01*
X455225Y390191D01*
X455255Y390179D01*
X455281Y390160D01*
X455368Y390133D01*
X455453Y390099D01*
X455494Y390095D01*
X455516Y390088D01*
X455549Y390089D01*
X455620Y390081D01*
X510644Y390081D01*
X510708Y390091D01*
X510774Y390092D01*
X510854Y390115D01*
X510886Y390120D01*
X510904Y390130D01*
X510935Y390139D01*
X512176Y390653D01*
X529224Y390653D01*
X532772Y389183D01*
X535487Y386468D01*
X536957Y382920D01*
X536957Y379080D01*
X535487Y375532D01*
X534958Y375003D01*
X534947Y374987D01*
X534931Y374975D01*
X534875Y374888D01*
X534815Y374804D01*
X534809Y374785D01*
X534798Y374768D01*
X534773Y374667D01*
X534742Y374569D01*
X534743Y374549D01*
X534738Y374529D01*
X534746Y374426D01*
X534749Y374323D01*
X534756Y374304D01*
X534757Y374284D01*
X534798Y374189D01*
X534833Y374092D01*
X534846Y374076D01*
X534854Y374058D01*
X534958Y373927D01*
X558582Y350304D01*
X558655Y350251D01*
X558725Y350191D01*
X558755Y350179D01*
X558781Y350160D01*
X558868Y350133D01*
X558953Y350099D01*
X558994Y350095D01*
X559016Y350088D01*
X559049Y350089D01*
X559120Y350081D01*
X577414Y350081D01*
X577505Y350095D01*
X577595Y350103D01*
X577625Y350115D01*
X577657Y350120D01*
X577738Y350163D01*
X577822Y350199D01*
X577854Y350225D01*
X577875Y350236D01*
X577897Y350259D01*
X577953Y350304D01*
X580202Y352553D01*
X588198Y352553D01*
X593853Y346898D01*
X593853Y338902D01*
X588198Y333247D01*
X580202Y333247D01*
G37*
%LPD*%
%LPC*%
G36*
X143876Y345947D02*
X143876Y345947D01*
X140328Y347417D01*
X137613Y350132D01*
X136143Y353680D01*
X136143Y357520D01*
X137613Y361068D01*
X137665Y361120D01*
X137707Y361178D01*
X137756Y361230D01*
X137778Y361277D01*
X137808Y361319D01*
X137829Y361388D01*
X137860Y361453D01*
X137865Y361505D01*
X137881Y361554D01*
X137879Y361626D01*
X137887Y361697D01*
X137876Y361748D01*
X137874Y361800D01*
X137850Y361868D01*
X137834Y361938D01*
X137808Y361983D01*
X137790Y362031D01*
X137745Y362087D01*
X137708Y362149D01*
X137669Y362183D01*
X137636Y362223D01*
X137576Y362262D01*
X137521Y362309D01*
X137473Y362328D01*
X137429Y362356D01*
X137360Y362374D01*
X137293Y362401D01*
X137222Y362409D01*
X137191Y362417D01*
X137167Y362415D01*
X137126Y362419D01*
X109686Y362419D01*
X109596Y362405D01*
X109505Y362397D01*
X109475Y362385D01*
X109443Y362380D01*
X109362Y362337D01*
X109278Y362301D01*
X109246Y362275D01*
X109225Y362264D01*
X109203Y362241D01*
X109147Y362196D01*
X105598Y358647D01*
X97602Y358647D01*
X91947Y364302D01*
X91947Y372298D01*
X97602Y377953D01*
X105598Y377953D01*
X110747Y372804D01*
X110821Y372751D01*
X110891Y372691D01*
X110921Y372679D01*
X110947Y372660D01*
X111034Y372633D01*
X111119Y372599D01*
X111160Y372595D01*
X111182Y372588D01*
X111214Y372589D01*
X111286Y372581D01*
X138726Y372581D01*
X138797Y372592D01*
X138869Y372594D01*
X138918Y372612D01*
X138969Y372620D01*
X139033Y372654D01*
X139100Y372679D01*
X139141Y372711D01*
X139187Y372736D01*
X139236Y372788D01*
X139292Y372832D01*
X139320Y372876D01*
X139356Y372914D01*
X139386Y372979D01*
X139425Y373039D01*
X139438Y373090D01*
X139460Y373137D01*
X139467Y373208D01*
X139485Y373278D01*
X139481Y373330D01*
X139487Y373381D01*
X139471Y373452D01*
X139466Y373523D01*
X139446Y373571D01*
X139434Y373622D01*
X139398Y373683D01*
X139370Y373749D01*
X139325Y373805D01*
X139308Y373833D01*
X139290Y373848D01*
X139265Y373880D01*
X137570Y375575D01*
X137526Y375649D01*
X137521Y375653D01*
X137518Y375658D01*
X137427Y375733D01*
X137339Y375809D01*
X137333Y375811D01*
X137328Y375815D01*
X137219Y375857D01*
X137111Y375901D01*
X137103Y375902D01*
X137099Y375903D01*
X137080Y375904D01*
X136944Y375919D01*
X124895Y375919D01*
X104290Y396524D01*
X104217Y396577D01*
X104147Y396637D01*
X104117Y396649D01*
X104091Y396668D01*
X104004Y396695D01*
X103919Y396729D01*
X103878Y396733D01*
X103856Y396740D01*
X103823Y396739D01*
X103752Y396747D01*
X97602Y396747D01*
X97555Y396794D01*
X97539Y396805D01*
X97527Y396821D01*
X97440Y396877D01*
X97356Y396937D01*
X97337Y396943D01*
X97320Y396954D01*
X97220Y396979D01*
X97121Y397010D01*
X97101Y397009D01*
X97081Y397014D01*
X96978Y397006D01*
X96875Y397003D01*
X96856Y396996D01*
X96836Y396995D01*
X96741Y396954D01*
X96644Y396919D01*
X96628Y396906D01*
X96610Y396898D01*
X96479Y396794D01*
X64605Y364919D01*
X35814Y364919D01*
X35794Y364916D01*
X35775Y364918D01*
X35673Y364896D01*
X35571Y364880D01*
X35554Y364870D01*
X35534Y364866D01*
X35445Y364813D01*
X35354Y364764D01*
X35340Y364750D01*
X35323Y364740D01*
X35256Y364661D01*
X35184Y364586D01*
X35176Y364568D01*
X35163Y364553D01*
X35124Y364457D01*
X35081Y364363D01*
X35079Y364343D01*
X35071Y364325D01*
X35071Y364320D01*
X29398Y358647D01*
X21402Y358647D01*
X15747Y364302D01*
X15747Y372298D01*
X21402Y377953D01*
X29398Y377953D01*
X32047Y375304D01*
X32121Y375251D01*
X32191Y375191D01*
X32221Y375179D01*
X32247Y375160D01*
X32334Y375133D01*
X32419Y375099D01*
X32460Y375095D01*
X32482Y375088D01*
X32514Y375089D01*
X32586Y375081D01*
X60080Y375081D01*
X60170Y375095D01*
X60261Y375103D01*
X60291Y375115D01*
X60323Y375120D01*
X60404Y375163D01*
X60487Y375199D01*
X60520Y375225D01*
X60540Y375236D01*
X60562Y375259D01*
X60618Y375304D01*
X91724Y406410D01*
X91777Y406483D01*
X91837Y406553D01*
X91849Y406583D01*
X91868Y406609D01*
X91895Y406696D01*
X91929Y406781D01*
X91933Y406822D01*
X91940Y406844D01*
X91939Y406877D01*
X91947Y406948D01*
X91947Y410398D01*
X97602Y416053D01*
X105598Y416053D01*
X111253Y410398D01*
X111253Y404248D01*
X111267Y404158D01*
X111275Y404067D01*
X111287Y404037D01*
X111292Y404005D01*
X111335Y403924D01*
X111371Y403841D01*
X111397Y403808D01*
X111408Y403788D01*
X111431Y403766D01*
X111476Y403710D01*
X128882Y386304D01*
X128955Y386251D01*
X129025Y386191D01*
X129055Y386179D01*
X129081Y386160D01*
X129168Y386133D01*
X129253Y386099D01*
X129294Y386095D01*
X129316Y386088D01*
X129349Y386089D01*
X129420Y386081D01*
X136944Y386081D01*
X137058Y386100D01*
X137175Y386117D01*
X137180Y386119D01*
X137187Y386120D01*
X137290Y386175D01*
X137394Y386228D01*
X137398Y386233D01*
X137404Y386236D01*
X137484Y386320D01*
X137566Y386404D01*
X137570Y386410D01*
X137573Y386414D01*
X137581Y386431D01*
X137588Y386443D01*
X140328Y389183D01*
X143876Y390653D01*
X160924Y390653D01*
X164472Y389183D01*
X167187Y386468D01*
X168657Y382920D01*
X168657Y379080D01*
X167187Y375532D01*
X164472Y372817D01*
X160924Y371347D01*
X145676Y371347D01*
X145605Y371336D01*
X145533Y371334D01*
X145484Y371316D01*
X145433Y371308D01*
X145370Y371274D01*
X145302Y371249D01*
X145262Y371217D01*
X145216Y371192D01*
X145166Y371141D01*
X145110Y371096D01*
X145082Y371052D01*
X145046Y371014D01*
X145016Y370949D01*
X144977Y370889D01*
X144965Y370838D01*
X144943Y370791D01*
X144935Y370720D01*
X144917Y370650D01*
X144921Y370598D01*
X144916Y370547D01*
X144931Y370476D01*
X144936Y370405D01*
X144957Y370357D01*
X144968Y370306D01*
X145005Y370245D01*
X145033Y370179D01*
X145078Y370123D01*
X145094Y370095D01*
X145112Y370080D01*
X145137Y370048D01*
X145804Y369382D01*
X145804Y369381D01*
X149710Y365476D01*
X149783Y365423D01*
X149853Y365363D01*
X149883Y365351D01*
X149909Y365332D01*
X149996Y365305D01*
X150081Y365271D01*
X150122Y365267D01*
X150144Y365260D01*
X150177Y365261D01*
X150248Y365253D01*
X160924Y365253D01*
X164472Y363783D01*
X167187Y361068D01*
X168657Y357520D01*
X168657Y353680D01*
X167187Y350132D01*
X164472Y347417D01*
X160924Y345947D01*
X143876Y345947D01*
G37*
%LPD*%
%LPC*%
G36*
X237302Y38607D02*
X237302Y38607D01*
X231647Y44262D01*
X231647Y52258D01*
X237302Y57913D01*
X240038Y57913D01*
X240129Y57927D01*
X240219Y57935D01*
X240249Y57947D01*
X240281Y57952D01*
X240362Y57995D01*
X240446Y58031D01*
X240478Y58057D01*
X240499Y58068D01*
X240521Y58091D01*
X240577Y58136D01*
X252664Y70223D01*
X252717Y70297D01*
X252777Y70367D01*
X252789Y70397D01*
X252808Y70423D01*
X252835Y70510D01*
X252869Y70595D01*
X252873Y70636D01*
X252880Y70658D01*
X252879Y70690D01*
X252887Y70762D01*
X252887Y74626D01*
X252884Y74646D01*
X252886Y74665D01*
X252864Y74767D01*
X252848Y74869D01*
X252838Y74886D01*
X252834Y74906D01*
X252781Y74995D01*
X252732Y75086D01*
X252718Y75100D01*
X252708Y75117D01*
X252629Y75184D01*
X252554Y75256D01*
X252536Y75264D01*
X252521Y75277D01*
X252425Y75316D01*
X252331Y75359D01*
X252311Y75361D01*
X252293Y75369D01*
X252126Y75387D01*
X228585Y75387D01*
X225971Y76470D01*
X223970Y78471D01*
X222887Y81085D01*
X222887Y83915D01*
X223970Y86529D01*
X225971Y88530D01*
X228585Y89613D01*
X252126Y89613D01*
X252146Y89616D01*
X252165Y89614D01*
X252267Y89636D01*
X252369Y89652D01*
X252386Y89662D01*
X252406Y89666D01*
X252495Y89719D01*
X252586Y89768D01*
X252600Y89782D01*
X252617Y89792D01*
X252684Y89871D01*
X252756Y89946D01*
X252764Y89964D01*
X252777Y89979D01*
X252816Y90075D01*
X252859Y90169D01*
X252861Y90189D01*
X252869Y90207D01*
X252887Y90374D01*
X252887Y171415D01*
X253970Y174029D01*
X269524Y189583D01*
X269577Y189657D01*
X269637Y189727D01*
X269649Y189757D01*
X269668Y189783D01*
X269695Y189870D01*
X269729Y189955D01*
X269733Y189996D01*
X269740Y190018D01*
X269739Y190050D01*
X269747Y190122D01*
X269747Y194498D01*
X275402Y200153D01*
X283398Y200153D01*
X289053Y194498D01*
X289053Y186502D01*
X283398Y180847D01*
X281222Y180847D01*
X281131Y180833D01*
X281041Y180825D01*
X281011Y180813D01*
X280979Y180808D01*
X280898Y180765D01*
X280814Y180729D01*
X280782Y180703D01*
X280761Y180692D01*
X280739Y180669D01*
X280683Y180624D01*
X267336Y167277D01*
X267283Y167203D01*
X267223Y167133D01*
X267211Y167103D01*
X267192Y167077D01*
X267165Y166990D01*
X267131Y166905D01*
X267127Y166864D01*
X267120Y166842D01*
X267121Y166810D01*
X267113Y166738D01*
X267113Y66085D01*
X266030Y63471D01*
X251176Y48617D01*
X251123Y48543D01*
X251063Y48473D01*
X251051Y48443D01*
X251032Y48417D01*
X251005Y48330D01*
X250971Y48245D01*
X250967Y48204D01*
X250960Y48182D01*
X250961Y48150D01*
X250953Y48078D01*
X250953Y44262D01*
X245298Y38607D01*
X237302Y38607D01*
G37*
%LPD*%
%LPC*%
G36*
X859602Y371347D02*
X859602Y371347D01*
X853947Y377002D01*
X853947Y383552D01*
X853933Y383642D01*
X853925Y383733D01*
X853913Y383763D01*
X853908Y383795D01*
X853865Y383876D01*
X853829Y383959D01*
X853803Y383992D01*
X853792Y384012D01*
X853769Y384034D01*
X853724Y384090D01*
X839919Y397895D01*
X839919Y493268D01*
X839916Y493288D01*
X839918Y493307D01*
X839896Y493409D01*
X839880Y493511D01*
X839870Y493528D01*
X839866Y493548D01*
X839813Y493637D01*
X839764Y493728D01*
X839750Y493742D01*
X839740Y493759D01*
X839661Y493826D01*
X839586Y493898D01*
X839568Y493906D01*
X839553Y493919D01*
X839457Y493958D01*
X839363Y494001D01*
X839343Y494003D01*
X839325Y494011D01*
X839158Y494029D01*
X836221Y494029D01*
X831086Y496156D01*
X827156Y500086D01*
X825029Y505221D01*
X825029Y510779D01*
X827156Y515914D01*
X831086Y519844D01*
X836221Y521971D01*
X841779Y521971D01*
X846914Y519844D01*
X850844Y515914D01*
X852971Y510779D01*
X852971Y505221D01*
X850844Y500086D01*
X850304Y499546D01*
X850251Y499472D01*
X850191Y499403D01*
X850179Y499373D01*
X850160Y499346D01*
X850133Y499259D01*
X850099Y499175D01*
X850095Y499134D01*
X850088Y499111D01*
X850089Y499079D01*
X850081Y499008D01*
X850081Y402420D01*
X850095Y402330D01*
X850103Y402239D01*
X850115Y402209D01*
X850120Y402177D01*
X850163Y402096D01*
X850199Y402013D01*
X850225Y401980D01*
X850236Y401960D01*
X850259Y401938D01*
X850304Y401882D01*
X861310Y390876D01*
X861383Y390823D01*
X861453Y390763D01*
X861483Y390751D01*
X861509Y390732D01*
X861596Y390705D01*
X861681Y390671D01*
X861722Y390667D01*
X861744Y390660D01*
X861777Y390661D01*
X861848Y390653D01*
X867598Y390653D01*
X873253Y384998D01*
X873253Y377002D01*
X867598Y371347D01*
X859602Y371347D01*
G37*
%LPD*%
%LPC*%
G36*
X434758Y141731D02*
X434758Y141731D01*
X430837Y143355D01*
X427835Y146357D01*
X426211Y150278D01*
X426211Y151288D01*
X426197Y151378D01*
X426189Y151469D01*
X426177Y151499D01*
X426172Y151531D01*
X426129Y151612D01*
X426093Y151695D01*
X426067Y151728D01*
X426056Y151748D01*
X426033Y151770D01*
X425988Y151826D01*
X359090Y218724D01*
X359017Y218777D01*
X358947Y218837D01*
X358917Y218849D01*
X358891Y218868D01*
X358804Y218895D01*
X358719Y218929D01*
X358678Y218933D01*
X358656Y218940D01*
X358623Y218939D01*
X358552Y218947D01*
X351602Y218947D01*
X345947Y224602D01*
X345947Y232598D01*
X351602Y238253D01*
X359598Y238253D01*
X365253Y232598D01*
X365253Y227248D01*
X365267Y227158D01*
X365275Y227067D01*
X365287Y227037D01*
X365292Y227005D01*
X365335Y226924D01*
X365371Y226841D01*
X365397Y226808D01*
X365408Y226788D01*
X365431Y226766D01*
X365476Y226710D01*
X430409Y161776D01*
X430503Y161709D01*
X430598Y161638D01*
X430604Y161636D01*
X430609Y161633D01*
X430720Y161598D01*
X430832Y161562D01*
X430838Y161562D01*
X430844Y161560D01*
X430961Y161563D01*
X431078Y161564D01*
X431085Y161566D01*
X431090Y161567D01*
X431107Y161573D01*
X431239Y161611D01*
X434758Y163069D01*
X454242Y163069D01*
X458163Y161445D01*
X461165Y158443D01*
X462789Y154522D01*
X462789Y150278D01*
X461165Y146357D01*
X458163Y143355D01*
X454242Y141731D01*
X434758Y141731D01*
G37*
%LPD*%
%LPC*%
G36*
X556880Y263143D02*
X556880Y263143D01*
X553332Y264613D01*
X550617Y267328D01*
X549147Y270876D01*
X549147Y287924D01*
X550617Y291472D01*
X553332Y294187D01*
X556880Y295657D01*
X560720Y295657D01*
X564268Y294187D01*
X565097Y293358D01*
X565113Y293347D01*
X565125Y293331D01*
X565212Y293275D01*
X565296Y293215D01*
X565315Y293209D01*
X565332Y293198D01*
X565433Y293173D01*
X565531Y293142D01*
X565551Y293143D01*
X565571Y293138D01*
X565674Y293146D01*
X565777Y293149D01*
X565796Y293156D01*
X565816Y293157D01*
X565911Y293198D01*
X566008Y293233D01*
X566024Y293246D01*
X566042Y293254D01*
X566173Y293358D01*
X575583Y302769D01*
X614417Y302769D01*
X616329Y300856D01*
X616345Y300845D01*
X616357Y300829D01*
X616445Y300773D01*
X616529Y300713D01*
X616548Y300707D01*
X616564Y300696D01*
X616665Y300671D01*
X616764Y300640D01*
X616784Y300641D01*
X616803Y300636D01*
X616906Y300644D01*
X617010Y300647D01*
X617028Y300654D01*
X617048Y300655D01*
X617143Y300696D01*
X617241Y300731D01*
X617256Y300744D01*
X617274Y300752D01*
X617405Y300856D01*
X618302Y301753D01*
X626298Y301753D01*
X631953Y296098D01*
X631953Y288102D01*
X626298Y282447D01*
X618302Y282447D01*
X612647Y288102D01*
X612647Y289852D01*
X612633Y289942D01*
X612625Y290033D01*
X612613Y290063D01*
X612608Y290095D01*
X612565Y290176D01*
X612529Y290260D01*
X612503Y290292D01*
X612492Y290312D01*
X612469Y290334D01*
X612424Y290390D01*
X610430Y292384D01*
X610356Y292437D01*
X610287Y292497D01*
X610257Y292509D01*
X610231Y292528D01*
X610144Y292555D01*
X610059Y292589D01*
X610018Y292593D01*
X609996Y292600D01*
X609963Y292599D01*
X609892Y292607D01*
X593052Y292607D01*
X593007Y292600D01*
X592961Y292602D01*
X592886Y292580D01*
X592809Y292568D01*
X592769Y292546D01*
X592725Y292533D01*
X592661Y292489D01*
X592592Y292452D01*
X592560Y292419D01*
X592523Y292393D01*
X592476Y292331D01*
X592423Y292274D01*
X592403Y292232D01*
X592376Y292196D01*
X592352Y292122D01*
X592319Y292051D01*
X592314Y292005D01*
X592300Y291962D01*
X592300Y291884D01*
X592292Y291807D01*
X592302Y291762D01*
X592302Y291716D01*
X592340Y291584D01*
X592344Y291566D01*
X592347Y291562D01*
X592349Y291555D01*
X593853Y287924D01*
X593853Y270876D01*
X592383Y267328D01*
X589668Y264613D01*
X586120Y263143D01*
X582280Y263143D01*
X578732Y264613D01*
X576017Y267328D01*
X574547Y270876D01*
X574547Y285524D01*
X574536Y285595D01*
X574534Y285667D01*
X574516Y285716D01*
X574508Y285767D01*
X574474Y285830D01*
X574449Y285898D01*
X574417Y285938D01*
X574392Y285984D01*
X574341Y286034D01*
X574296Y286090D01*
X574252Y286118D01*
X574214Y286154D01*
X574149Y286184D01*
X574089Y286223D01*
X574038Y286235D01*
X573991Y286257D01*
X573920Y286265D01*
X573850Y286283D01*
X573798Y286279D01*
X573747Y286284D01*
X573676Y286269D01*
X573605Y286264D01*
X573557Y286243D01*
X573506Y286232D01*
X573445Y286195D01*
X573379Y286167D01*
X573323Y286123D01*
X573295Y286106D01*
X573280Y286088D01*
X573248Y286063D01*
X568676Y281490D01*
X568623Y281417D01*
X568563Y281347D01*
X568551Y281317D01*
X568532Y281291D01*
X568505Y281204D01*
X568471Y281119D01*
X568467Y281078D01*
X568460Y281056D01*
X568461Y281023D01*
X568453Y280952D01*
X568453Y270876D01*
X566983Y267328D01*
X564268Y264613D01*
X560720Y263143D01*
X556880Y263143D01*
G37*
%LPD*%
%LPC*%
G36*
X770702Y282447D02*
X770702Y282447D01*
X765047Y288102D01*
X765047Y296098D01*
X767196Y298247D01*
X767249Y298321D01*
X767309Y298391D01*
X767321Y298421D01*
X767340Y298447D01*
X767367Y298534D01*
X767401Y298619D01*
X767405Y298660D01*
X767412Y298682D01*
X767411Y298714D01*
X767419Y298786D01*
X767419Y342310D01*
X767405Y342400D01*
X767397Y342491D01*
X767385Y342521D01*
X767380Y342553D01*
X767356Y342598D01*
X767355Y342601D01*
X767347Y342615D01*
X767337Y342634D01*
X767301Y342718D01*
X767275Y342750D01*
X767264Y342771D01*
X767241Y342793D01*
X767239Y342795D01*
X767229Y342812D01*
X767218Y342822D01*
X767196Y342849D01*
X766517Y343528D01*
X765047Y347076D01*
X765047Y364124D01*
X766517Y367672D01*
X769232Y370387D01*
X772780Y371857D01*
X776620Y371857D01*
X780168Y370387D01*
X782883Y367672D01*
X784353Y364124D01*
X784353Y347076D01*
X782883Y343528D01*
X780168Y340813D01*
X778051Y339936D01*
X777951Y339874D01*
X777851Y339814D01*
X777847Y339810D01*
X777842Y339806D01*
X777767Y339717D01*
X777691Y339627D01*
X777689Y339622D01*
X777685Y339617D01*
X777643Y339509D01*
X777599Y339399D01*
X777598Y339392D01*
X777597Y339387D01*
X777596Y339369D01*
X777581Y339233D01*
X777581Y302514D01*
X777584Y302494D01*
X777582Y302475D01*
X777604Y302373D01*
X777620Y302271D01*
X777630Y302254D01*
X777634Y302234D01*
X777687Y302145D01*
X777736Y302054D01*
X777750Y302040D01*
X777760Y302023D01*
X777839Y301956D01*
X777914Y301884D01*
X777932Y301876D01*
X777947Y301863D01*
X778043Y301824D01*
X778137Y301781D01*
X778157Y301779D01*
X778175Y301771D01*
X778342Y301753D01*
X778698Y301753D01*
X784353Y296098D01*
X784353Y295842D01*
X784356Y295822D01*
X784354Y295803D01*
X784376Y295701D01*
X784392Y295599D01*
X784402Y295582D01*
X784406Y295562D01*
X784459Y295473D01*
X784508Y295382D01*
X784522Y295368D01*
X784532Y295351D01*
X784611Y295284D01*
X784686Y295212D01*
X784704Y295204D01*
X784719Y295191D01*
X784815Y295152D01*
X784909Y295109D01*
X784929Y295107D01*
X784947Y295099D01*
X785114Y295081D01*
X802386Y295081D01*
X802406Y295084D01*
X802425Y295082D01*
X802527Y295104D01*
X802629Y295120D01*
X802646Y295130D01*
X802666Y295134D01*
X802755Y295187D01*
X802846Y295236D01*
X802860Y295250D01*
X802877Y295260D01*
X802944Y295339D01*
X803016Y295414D01*
X803024Y295432D01*
X803037Y295447D01*
X803076Y295543D01*
X803119Y295637D01*
X803121Y295657D01*
X803129Y295675D01*
X803147Y295842D01*
X803147Y296098D01*
X808802Y301753D01*
X816798Y301753D01*
X822453Y296098D01*
X822453Y288102D01*
X816798Y282447D01*
X808802Y282447D01*
X806553Y284696D01*
X806479Y284749D01*
X806409Y284809D01*
X806379Y284821D01*
X806353Y284840D01*
X806266Y284867D01*
X806181Y284901D01*
X806140Y284905D01*
X806118Y284912D01*
X806086Y284911D01*
X806014Y284919D01*
X781486Y284919D01*
X781395Y284905D01*
X781305Y284897D01*
X781275Y284885D01*
X781243Y284880D01*
X781162Y284837D01*
X781078Y284801D01*
X781046Y284775D01*
X781025Y284764D01*
X781003Y284741D01*
X780947Y284696D01*
X778698Y282447D01*
X770702Y282447D01*
G37*
%LPD*%
%LPC*%
G36*
X531480Y263143D02*
X531480Y263143D01*
X527932Y264613D01*
X525217Y267328D01*
X523747Y270876D01*
X523747Y281552D01*
X523733Y281642D01*
X523725Y281733D01*
X523713Y281763D01*
X523708Y281795D01*
X523665Y281876D01*
X523629Y281959D01*
X523603Y281992D01*
X523592Y282012D01*
X523569Y282034D01*
X523524Y282090D01*
X518818Y286796D01*
X518745Y286849D01*
X518675Y286909D01*
X518645Y286921D01*
X518619Y286940D01*
X518532Y286967D01*
X518447Y287001D01*
X518406Y287005D01*
X518384Y287012D01*
X518351Y287011D01*
X518280Y287019D01*
X504186Y287019D01*
X504095Y287005D01*
X504005Y286997D01*
X503975Y286985D01*
X503943Y286980D01*
X503862Y286937D01*
X503778Y286901D01*
X503746Y286875D01*
X503725Y286864D01*
X503703Y286841D01*
X503647Y286796D01*
X499298Y282447D01*
X491302Y282447D01*
X485647Y288102D01*
X485647Y291852D01*
X485633Y291942D01*
X485625Y292033D01*
X485613Y292063D01*
X485608Y292095D01*
X485565Y292176D01*
X485529Y292259D01*
X485503Y292292D01*
X485492Y292312D01*
X485469Y292334D01*
X485424Y292390D01*
X480618Y297196D01*
X480545Y297249D01*
X480475Y297309D01*
X480445Y297321D01*
X480419Y297340D01*
X480332Y297367D01*
X480247Y297401D01*
X480206Y297405D01*
X480184Y297412D01*
X480151Y297411D01*
X480080Y297419D01*
X463786Y297419D01*
X463696Y297405D01*
X463605Y297397D01*
X463575Y297385D01*
X463543Y297380D01*
X463462Y297337D01*
X463378Y297301D01*
X463346Y297275D01*
X463325Y297264D01*
X463315Y297253D01*
X463314Y297253D01*
X463301Y297239D01*
X463247Y297196D01*
X461198Y295147D01*
X453202Y295147D01*
X447547Y300802D01*
X447547Y308798D01*
X453202Y314453D01*
X461198Y314453D01*
X466853Y308798D01*
X466853Y308342D01*
X466856Y308322D01*
X466854Y308303D01*
X466876Y308201D01*
X466892Y308099D01*
X466902Y308082D01*
X466906Y308062D01*
X466959Y307973D01*
X467008Y307882D01*
X467022Y307868D01*
X467032Y307851D01*
X467111Y307784D01*
X467186Y307712D01*
X467204Y307704D01*
X467219Y307691D01*
X467315Y307652D01*
X467409Y307609D01*
X467429Y307607D01*
X467447Y307599D01*
X467614Y307581D01*
X484605Y307581D01*
X490329Y301856D01*
X490345Y301845D01*
X490358Y301829D01*
X490445Y301773D01*
X490529Y301713D01*
X490548Y301707D01*
X490564Y301696D01*
X490665Y301671D01*
X490764Y301640D01*
X490784Y301641D01*
X490803Y301636D01*
X490906Y301644D01*
X491010Y301647D01*
X491028Y301654D01*
X491048Y301655D01*
X491143Y301696D01*
X491241Y301731D01*
X491256Y301744D01*
X491275Y301752D01*
X491276Y301753D01*
X499298Y301753D01*
X503647Y297404D01*
X503721Y297351D01*
X503791Y297291D01*
X503821Y297279D01*
X503847Y297260D01*
X503934Y297233D01*
X504019Y297199D01*
X504060Y297195D01*
X504082Y297188D01*
X504114Y297189D01*
X504186Y297181D01*
X522805Y297181D01*
X526004Y293982D01*
X526327Y293658D01*
X526343Y293647D01*
X526355Y293631D01*
X526442Y293575D01*
X526527Y293515D01*
X526546Y293509D01*
X526562Y293498D01*
X526663Y293473D01*
X526762Y293442D01*
X526782Y293443D01*
X526801Y293438D01*
X526904Y293446D01*
X527007Y293449D01*
X527026Y293456D01*
X527046Y293457D01*
X527141Y293498D01*
X527239Y293533D01*
X527254Y293546D01*
X527272Y293554D01*
X527403Y293658D01*
X527932Y294187D01*
X531480Y295657D01*
X535320Y295657D01*
X538868Y294187D01*
X541583Y291472D01*
X543053Y287924D01*
X543053Y270876D01*
X541583Y267328D01*
X538868Y264613D01*
X535320Y263143D01*
X531480Y263143D01*
G37*
%LPD*%
%LPC*%
G36*
X935802Y409447D02*
X935802Y409447D01*
X930147Y415102D01*
X930147Y423098D01*
X933696Y426647D01*
X933749Y426721D01*
X933809Y426791D01*
X933821Y426821D01*
X933840Y426847D01*
X933867Y426934D01*
X933901Y427019D01*
X933905Y427060D01*
X933912Y427082D01*
X933911Y427114D01*
X933919Y427186D01*
X933919Y494474D01*
X933900Y494589D01*
X933883Y494705D01*
X933881Y494711D01*
X933880Y494717D01*
X933825Y494819D01*
X933772Y494924D01*
X933767Y494929D01*
X933764Y494934D01*
X933680Y495014D01*
X933596Y495096D01*
X933590Y495100D01*
X933586Y495104D01*
X933569Y495111D01*
X933449Y495177D01*
X931086Y496156D01*
X927156Y500086D01*
X925029Y505221D01*
X925029Y510779D01*
X927156Y515914D01*
X931086Y519844D01*
X936221Y521971D01*
X941779Y521971D01*
X946914Y519844D01*
X950844Y515914D01*
X952971Y510779D01*
X952971Y505221D01*
X950844Y500086D01*
X946914Y496156D01*
X944551Y495177D01*
X944451Y495116D01*
X944351Y495056D01*
X944347Y495051D01*
X944342Y495048D01*
X944267Y494958D01*
X944191Y494869D01*
X944189Y494863D01*
X944185Y494858D01*
X944143Y494750D01*
X944099Y494641D01*
X944098Y494633D01*
X944097Y494629D01*
X944096Y494610D01*
X944081Y494474D01*
X944081Y428786D01*
X944095Y428696D01*
X944103Y428605D01*
X944115Y428575D01*
X944120Y428543D01*
X944163Y428462D01*
X944199Y428378D01*
X944225Y428346D01*
X944236Y428325D01*
X944259Y428303D01*
X944304Y428247D01*
X949453Y423098D01*
X949453Y415102D01*
X943798Y409447D01*
X935802Y409447D01*
G37*
%LPD*%
%LPC*%
G36*
X798180Y339343D02*
X798180Y339343D01*
X794632Y340813D01*
X791917Y343528D01*
X790447Y347076D01*
X790447Y364124D01*
X791917Y367672D01*
X794696Y370451D01*
X794749Y370525D01*
X794809Y370595D01*
X794821Y370625D01*
X794840Y370651D01*
X794867Y370738D01*
X794901Y370823D01*
X794905Y370864D01*
X794912Y370886D01*
X794911Y370918D01*
X794919Y370990D01*
X794919Y412580D01*
X794905Y412670D01*
X794897Y412761D01*
X794885Y412791D01*
X794880Y412823D01*
X794837Y412904D01*
X794801Y412987D01*
X794775Y413020D01*
X794764Y413040D01*
X794741Y413062D01*
X794696Y413118D01*
X785890Y421924D01*
X785816Y421977D01*
X785747Y422037D01*
X785717Y422049D01*
X785691Y422068D01*
X785604Y422095D01*
X785519Y422129D01*
X785478Y422133D01*
X785456Y422140D01*
X785423Y422139D01*
X785352Y422147D01*
X783402Y422147D01*
X777747Y427802D01*
X777747Y435798D01*
X783402Y441453D01*
X791398Y441453D01*
X797053Y435798D01*
X797053Y427802D01*
X796256Y427005D01*
X796245Y426989D01*
X796229Y426977D01*
X796173Y426890D01*
X796113Y426806D01*
X796107Y426787D01*
X796096Y426770D01*
X796071Y426669D01*
X796040Y426571D01*
X796041Y426551D01*
X796036Y426531D01*
X796044Y426428D01*
X796047Y426325D01*
X796054Y426306D01*
X796055Y426286D01*
X796096Y426191D01*
X796131Y426094D01*
X796144Y426078D01*
X796152Y426060D01*
X796256Y425929D01*
X805081Y417105D01*
X805081Y371098D01*
X805100Y370983D01*
X805117Y370867D01*
X805119Y370861D01*
X805120Y370855D01*
X805175Y370752D01*
X805228Y370647D01*
X805233Y370643D01*
X805236Y370637D01*
X805320Y370558D01*
X805404Y370475D01*
X805410Y370471D01*
X805414Y370468D01*
X805431Y370460D01*
X805551Y370394D01*
X805568Y370387D01*
X808283Y367672D01*
X809753Y364124D01*
X809753Y347076D01*
X808283Y343528D01*
X805568Y340813D01*
X802020Y339343D01*
X798180Y339343D01*
G37*
%LPD*%
%LPC*%
G36*
X97602Y320547D02*
X97602Y320547D01*
X91947Y326202D01*
X91947Y334198D01*
X97602Y339853D01*
X105598Y339853D01*
X107647Y337804D01*
X107721Y337751D01*
X107791Y337691D01*
X107821Y337679D01*
X107847Y337660D01*
X107934Y337633D01*
X108019Y337599D01*
X108060Y337595D01*
X108082Y337588D01*
X108114Y337589D01*
X108186Y337581D01*
X139210Y337581D01*
X139301Y337595D01*
X139391Y337603D01*
X139421Y337615D01*
X139453Y337620D01*
X139534Y337663D01*
X139618Y337699D01*
X139650Y337725D01*
X139671Y337736D01*
X139693Y337759D01*
X139749Y337804D01*
X140328Y338383D01*
X143876Y339853D01*
X160924Y339853D01*
X164472Y338383D01*
X167187Y335668D01*
X168657Y332120D01*
X168657Y328280D01*
X167187Y324732D01*
X164472Y322017D01*
X160924Y320547D01*
X143876Y320547D01*
X140328Y322017D01*
X137613Y324732D01*
X136694Y326949D01*
X136633Y327049D01*
X136573Y327149D01*
X136568Y327153D01*
X136565Y327158D01*
X136475Y327233D01*
X136386Y327309D01*
X136380Y327311D01*
X136375Y327315D01*
X136267Y327357D01*
X136158Y327401D01*
X136150Y327402D01*
X136146Y327403D01*
X136127Y327404D01*
X135991Y327419D01*
X112014Y327419D01*
X111994Y327416D01*
X111975Y327418D01*
X111873Y327396D01*
X111771Y327380D01*
X111754Y327370D01*
X111734Y327366D01*
X111645Y327313D01*
X111554Y327264D01*
X111540Y327250D01*
X111523Y327240D01*
X111456Y327161D01*
X111384Y327086D01*
X111376Y327068D01*
X111363Y327053D01*
X111324Y326957D01*
X111281Y326863D01*
X111279Y326843D01*
X111271Y326825D01*
X111253Y326658D01*
X111253Y326202D01*
X105598Y320547D01*
X97602Y320547D01*
G37*
%LPD*%
%LPC*%
G36*
X569378Y83311D02*
X569378Y83311D01*
X565457Y84935D01*
X562455Y87937D01*
X560831Y91858D01*
X560831Y111342D01*
X562455Y115263D01*
X565457Y118265D01*
X569378Y119889D01*
X573622Y119889D01*
X577543Y118265D01*
X580545Y115263D01*
X582169Y111342D01*
X582169Y91858D01*
X580545Y87937D01*
X577543Y84935D01*
X573622Y83311D01*
X569378Y83311D01*
G37*
%LPD*%
%LPC*%
G36*
X620178Y83311D02*
X620178Y83311D01*
X616257Y84935D01*
X613255Y87937D01*
X611631Y91858D01*
X611631Y111342D01*
X613255Y115263D01*
X616257Y118265D01*
X620178Y119889D01*
X624422Y119889D01*
X628343Y118265D01*
X631345Y115263D01*
X632969Y111342D01*
X632969Y91858D01*
X631345Y87937D01*
X628343Y84935D01*
X624422Y83311D01*
X620178Y83311D01*
G37*
%LPD*%
%LPC*%
G36*
X670978Y83311D02*
X670978Y83311D01*
X667057Y84935D01*
X664055Y87937D01*
X662431Y91858D01*
X662431Y111342D01*
X664055Y115263D01*
X667057Y118265D01*
X670978Y119889D01*
X675222Y119889D01*
X679143Y118265D01*
X682145Y115263D01*
X683769Y111342D01*
X683769Y91858D01*
X682145Y87937D01*
X679143Y84935D01*
X675222Y83311D01*
X670978Y83311D01*
G37*
%LPD*%
%LPC*%
G36*
X663358Y395731D02*
X663358Y395731D01*
X659437Y397355D01*
X656435Y400357D01*
X654811Y404278D01*
X654811Y408522D01*
X656435Y412443D01*
X659437Y415445D01*
X663358Y417069D01*
X682842Y417069D01*
X686763Y415445D01*
X689765Y412443D01*
X691389Y408522D01*
X691389Y404278D01*
X689765Y400357D01*
X686763Y397355D01*
X682842Y395731D01*
X663358Y395731D01*
G37*
%LPD*%
%LPC*%
G36*
X416978Y83311D02*
X416978Y83311D01*
X413057Y84935D01*
X410055Y87937D01*
X408431Y91858D01*
X408431Y111342D01*
X410055Y115263D01*
X413057Y118265D01*
X416978Y119889D01*
X421222Y119889D01*
X425143Y118265D01*
X428145Y115263D01*
X429769Y111342D01*
X429769Y91858D01*
X428145Y87937D01*
X425143Y84935D01*
X421222Y83311D01*
X416978Y83311D01*
G37*
%LPD*%
%LPC*%
G36*
X891958Y281431D02*
X891958Y281431D01*
X888037Y283055D01*
X885035Y286057D01*
X883411Y289978D01*
X883411Y294222D01*
X885035Y298143D01*
X888037Y301145D01*
X891958Y302769D01*
X911442Y302769D01*
X915363Y301145D01*
X918365Y298143D01*
X919989Y294222D01*
X919989Y289978D01*
X918365Y286057D01*
X915363Y283055D01*
X911442Y281431D01*
X891958Y281431D01*
G37*
%LPD*%
%LPC*%
G36*
X536358Y141731D02*
X536358Y141731D01*
X532437Y143355D01*
X529435Y146357D01*
X527811Y150278D01*
X527811Y154522D01*
X529435Y158443D01*
X532437Y161445D01*
X536358Y163069D01*
X555842Y163069D01*
X559763Y161445D01*
X562765Y158443D01*
X564389Y154522D01*
X564389Y150278D01*
X562765Y146357D01*
X559763Y143355D01*
X555842Y141731D01*
X536358Y141731D01*
G37*
%LPD*%
%LPC*%
G36*
X656821Y494029D02*
X656821Y494029D01*
X651686Y496156D01*
X647756Y500086D01*
X645629Y505221D01*
X645629Y510779D01*
X647756Y515914D01*
X651686Y519844D01*
X656821Y521971D01*
X662379Y521971D01*
X667514Y519844D01*
X671444Y515914D01*
X673571Y510779D01*
X673571Y505221D01*
X671444Y500086D01*
X667514Y496156D01*
X662379Y494029D01*
X656821Y494029D01*
G37*
%LPD*%
%LPC*%
G36*
X109137Y470651D02*
X109137Y470651D01*
X107351Y472437D01*
X107351Y492963D01*
X109137Y494749D01*
X129663Y494749D01*
X131449Y492963D01*
X131449Y472437D01*
X129663Y470651D01*
X109137Y470651D01*
G37*
%LPD*%
%LPC*%
G36*
X167537Y470651D02*
X167537Y470651D01*
X165751Y472437D01*
X165751Y492963D01*
X167537Y494749D01*
X188063Y494749D01*
X189849Y492963D01*
X189849Y472437D01*
X188063Y470651D01*
X167537Y470651D01*
G37*
%LPD*%
%LPC*%
G36*
X93076Y168147D02*
X93076Y168147D01*
X89528Y169617D01*
X86813Y172332D01*
X85343Y175880D01*
X85343Y179720D01*
X86813Y183268D01*
X89528Y185983D01*
X93076Y187453D01*
X110124Y187453D01*
X113672Y185983D01*
X116387Y183268D01*
X117857Y179720D01*
X117857Y175880D01*
X116387Y172332D01*
X113672Y169617D01*
X110124Y168147D01*
X93076Y168147D01*
G37*
%LPD*%
%LPC*%
G36*
X728076Y130047D02*
X728076Y130047D01*
X724528Y131517D01*
X721813Y134232D01*
X720343Y137780D01*
X720343Y141620D01*
X721813Y145168D01*
X724528Y147883D01*
X728076Y149353D01*
X745124Y149353D01*
X748672Y147883D01*
X751387Y145168D01*
X752857Y141620D01*
X752857Y137780D01*
X751387Y134232D01*
X748672Y131517D01*
X745124Y130047D01*
X728076Y130047D01*
G37*
%LPD*%
%LPC*%
G36*
X93076Y117347D02*
X93076Y117347D01*
X89528Y118817D01*
X86813Y121532D01*
X85343Y125080D01*
X85343Y128920D01*
X86813Y132468D01*
X89528Y135183D01*
X93076Y136653D01*
X110124Y136653D01*
X113672Y135183D01*
X116387Y132468D01*
X117857Y128920D01*
X117857Y125080D01*
X116387Y121532D01*
X113672Y118817D01*
X110124Y117347D01*
X93076Y117347D01*
G37*
%LPD*%
%LPC*%
G36*
X93076Y142747D02*
X93076Y142747D01*
X89528Y144217D01*
X86813Y146932D01*
X85343Y150480D01*
X85343Y154320D01*
X86813Y157868D01*
X89528Y160583D01*
X93076Y162053D01*
X110124Y162053D01*
X113672Y160583D01*
X116387Y157868D01*
X117857Y154320D01*
X117857Y150480D01*
X116387Y146932D01*
X113672Y144217D01*
X110124Y142747D01*
X93076Y142747D01*
G37*
%LPD*%
%LPC*%
G36*
X747380Y339343D02*
X747380Y339343D01*
X743832Y340813D01*
X741117Y343528D01*
X739647Y347076D01*
X739647Y364124D01*
X741117Y367672D01*
X743832Y370387D01*
X747380Y371857D01*
X751220Y371857D01*
X754768Y370387D01*
X757483Y367672D01*
X758953Y364124D01*
X758953Y347076D01*
X757483Y343528D01*
X754768Y340813D01*
X751220Y339343D01*
X747380Y339343D01*
G37*
%LPD*%
%LPC*%
G36*
X54976Y142747D02*
X54976Y142747D01*
X51428Y144217D01*
X48713Y146932D01*
X47243Y150480D01*
X47243Y154320D01*
X48713Y157868D01*
X51428Y160583D01*
X54976Y162053D01*
X72024Y162053D01*
X75572Y160583D01*
X78287Y157868D01*
X79757Y154320D01*
X79757Y150480D01*
X78287Y146932D01*
X75572Y144217D01*
X72024Y142747D01*
X54976Y142747D01*
G37*
%LPD*%
%LPC*%
G36*
X135281Y14731D02*
X135281Y14731D01*
X129031Y20981D01*
X129031Y29819D01*
X135281Y36069D01*
X144119Y36069D01*
X150369Y29819D01*
X150369Y20981D01*
X144119Y14731D01*
X135281Y14731D01*
G37*
%LPD*%
%LPC*%
G36*
X33681Y14731D02*
X33681Y14731D01*
X27431Y20981D01*
X27431Y29819D01*
X33681Y36069D01*
X42519Y36069D01*
X48769Y29819D01*
X48769Y20981D01*
X42519Y14731D01*
X33681Y14731D01*
G37*
%LPD*%
%LPC*%
G36*
X808802Y206247D02*
X808802Y206247D01*
X803147Y211902D01*
X803147Y219898D01*
X808802Y225553D01*
X816798Y225553D01*
X822453Y219898D01*
X822453Y211902D01*
X816798Y206247D01*
X808802Y206247D01*
G37*
%LPD*%
%LPC*%
G36*
X402402Y345947D02*
X402402Y345947D01*
X396747Y351602D01*
X396747Y359598D01*
X402402Y365253D01*
X410398Y365253D01*
X416053Y359598D01*
X416053Y351602D01*
X410398Y345947D01*
X402402Y345947D01*
G37*
%LPD*%
%LPC*%
G36*
X161102Y104647D02*
X161102Y104647D01*
X155447Y110302D01*
X155447Y118298D01*
X161102Y123953D01*
X169098Y123953D01*
X174753Y118298D01*
X174753Y110302D01*
X169098Y104647D01*
X161102Y104647D01*
G37*
%LPD*%
%LPC*%
G36*
X351602Y104647D02*
X351602Y104647D01*
X345947Y110302D01*
X345947Y118298D01*
X351602Y123953D01*
X359598Y123953D01*
X365253Y118298D01*
X365253Y110302D01*
X359598Y104647D01*
X351602Y104647D01*
G37*
%LPD*%
%LPC*%
G36*
X237302Y142747D02*
X237302Y142747D01*
X231647Y148402D01*
X231647Y156398D01*
X237302Y162053D01*
X245298Y162053D01*
X250953Y156398D01*
X250953Y148402D01*
X245298Y142747D01*
X237302Y142747D01*
G37*
%LPD*%
%LPC*%
G36*
X377002Y295147D02*
X377002Y295147D01*
X371347Y300802D01*
X371347Y308798D01*
X377002Y314453D01*
X384998Y314453D01*
X390653Y308798D01*
X390653Y300802D01*
X384998Y295147D01*
X377002Y295147D01*
G37*
%LPD*%
%LPC*%
G36*
X351602Y295147D02*
X351602Y295147D01*
X345947Y300802D01*
X345947Y308798D01*
X351602Y314453D01*
X359598Y314453D01*
X365253Y308798D01*
X365253Y300802D01*
X359598Y295147D01*
X351602Y295147D01*
G37*
%LPD*%
%LPC*%
G36*
X377002Y422147D02*
X377002Y422147D01*
X371347Y427802D01*
X371347Y435798D01*
X377002Y441453D01*
X384998Y441453D01*
X390653Y435798D01*
X390653Y427802D01*
X384998Y422147D01*
X377002Y422147D01*
G37*
%LPD*%
%LPC*%
G36*
X313502Y422147D02*
X313502Y422147D01*
X307847Y427802D01*
X307847Y435798D01*
X313502Y441453D01*
X321498Y441453D01*
X327153Y435798D01*
X327153Y427802D01*
X321498Y422147D01*
X313502Y422147D01*
G37*
%LPD*%
%LPC*%
G36*
X656402Y282447D02*
X656402Y282447D01*
X650747Y288102D01*
X650747Y296098D01*
X656402Y301753D01*
X664398Y301753D01*
X670053Y296098D01*
X670053Y288102D01*
X664398Y282447D01*
X656402Y282447D01*
G37*
%LPD*%
%LPC*%
G36*
X732602Y282447D02*
X732602Y282447D01*
X726947Y288102D01*
X726947Y296098D01*
X732602Y301753D01*
X740598Y301753D01*
X746253Y296098D01*
X746253Y288102D01*
X740598Y282447D01*
X732602Y282447D01*
G37*
%LPD*%
%LPC*%
G36*
X275402Y142747D02*
X275402Y142747D01*
X269747Y148402D01*
X269747Y156398D01*
X275402Y162053D01*
X283398Y162053D01*
X289053Y156398D01*
X289053Y148402D01*
X283398Y142747D01*
X275402Y142747D01*
G37*
%LPD*%
%LPC*%
G36*
X440502Y422147D02*
X440502Y422147D01*
X434847Y427802D01*
X434847Y435798D01*
X440502Y441453D01*
X448498Y441453D01*
X454153Y435798D01*
X454153Y427802D01*
X448498Y422147D01*
X440502Y422147D01*
G37*
%LPD*%
%LPC*%
G36*
X580202Y409447D02*
X580202Y409447D01*
X574547Y415102D01*
X574547Y423098D01*
X580202Y428753D01*
X588198Y428753D01*
X593853Y423098D01*
X593853Y415102D01*
X588198Y409447D01*
X580202Y409447D01*
G37*
%LPD*%
%LPC*%
G36*
X351602Y180847D02*
X351602Y180847D01*
X345947Y186502D01*
X345947Y194498D01*
X351602Y200153D01*
X359598Y200153D01*
X365253Y194498D01*
X365253Y186502D01*
X359598Y180847D01*
X351602Y180847D01*
G37*
%LPD*%
%LPC*%
G36*
X288102Y422147D02*
X288102Y422147D01*
X282447Y427802D01*
X282447Y435798D01*
X288102Y441453D01*
X296098Y441453D01*
X301753Y435798D01*
X301753Y427802D01*
X296098Y422147D01*
X288102Y422147D01*
G37*
%LPD*%
%LPC*%
G36*
X351602Y422147D02*
X351602Y422147D01*
X345947Y427802D01*
X345947Y435798D01*
X351602Y441453D01*
X359598Y441453D01*
X365253Y435798D01*
X365253Y427802D01*
X359598Y422147D01*
X351602Y422147D01*
G37*
%LPD*%
%LPC*%
G36*
X694502Y206247D02*
X694502Y206247D01*
X688847Y211902D01*
X688847Y219898D01*
X694502Y225553D01*
X702498Y225553D01*
X708153Y219898D01*
X708153Y211902D01*
X702498Y206247D01*
X694502Y206247D01*
G37*
%LPD*%
%LPC*%
G36*
X440502Y345947D02*
X440502Y345947D01*
X434847Y351602D01*
X434847Y359598D01*
X440502Y365253D01*
X448498Y365253D01*
X454153Y359598D01*
X454153Y351602D01*
X448498Y345947D01*
X440502Y345947D01*
G37*
%LPD*%
%LPC*%
G36*
X885002Y15747D02*
X885002Y15747D01*
X879347Y21402D01*
X879347Y29398D01*
X885002Y35053D01*
X892998Y35053D01*
X898653Y29398D01*
X898653Y21402D01*
X892998Y15747D01*
X885002Y15747D01*
G37*
%LPD*%
%LPC*%
G36*
X351602Y345947D02*
X351602Y345947D01*
X345947Y351602D01*
X345947Y359598D01*
X351602Y365253D01*
X359598Y365253D01*
X365253Y359598D01*
X365253Y351602D01*
X359598Y345947D01*
X351602Y345947D01*
G37*
%LPD*%
%LPC*%
G36*
X861680Y53847D02*
X861680Y53847D01*
X858132Y55317D01*
X855417Y58032D01*
X853947Y61580D01*
X853947Y65420D01*
X855417Y68968D01*
X858132Y71683D01*
X861680Y73153D01*
X865520Y73153D01*
X869068Y71683D01*
X871783Y68968D01*
X873253Y65420D01*
X873253Y61580D01*
X871783Y58032D01*
X869068Y55317D01*
X865520Y53847D01*
X861680Y53847D01*
G37*
%LPD*%
%LPC*%
G36*
X711123Y509523D02*
X711123Y509523D01*
X711123Y521389D01*
X712752Y521131D01*
X714768Y520476D01*
X716656Y519514D01*
X718370Y518269D01*
X719869Y516770D01*
X721114Y515056D01*
X722076Y513168D01*
X722731Y511152D01*
X722989Y509523D01*
X711123Y509523D01*
G37*
%LPD*%
%LPC*%
G36*
X711123Y506477D02*
X711123Y506477D01*
X722989Y506477D01*
X722731Y504848D01*
X722076Y502832D01*
X721114Y500944D01*
X719869Y499230D01*
X718370Y497731D01*
X716656Y496486D01*
X714768Y495524D01*
X712752Y494869D01*
X711123Y494611D01*
X711123Y506477D01*
G37*
%LPD*%
%LPC*%
G36*
X696211Y509523D02*
X696211Y509523D01*
X696469Y511152D01*
X697124Y513168D01*
X698086Y515056D01*
X699331Y516770D01*
X700830Y518269D01*
X702544Y519514D01*
X704432Y520476D01*
X706448Y521131D01*
X708077Y521389D01*
X708077Y509523D01*
X696211Y509523D01*
G37*
%LPD*%
%LPC*%
G36*
X706448Y494869D02*
X706448Y494869D01*
X704432Y495524D01*
X702544Y496486D01*
X700830Y497731D01*
X699331Y499230D01*
X698086Y500944D01*
X697124Y502832D01*
X696469Y504848D01*
X696211Y506477D01*
X708077Y506477D01*
X708077Y494611D01*
X706448Y494869D01*
G37*
%LPD*%
%LPC*%
G36*
X120923Y522223D02*
X120923Y522223D01*
X120923Y532241D01*
X128734Y532241D01*
X129381Y532068D01*
X129960Y531733D01*
X130433Y531260D01*
X130768Y530681D01*
X130941Y530034D01*
X130941Y522223D01*
X120923Y522223D01*
G37*
%LPD*%
%LPC*%
G36*
X273323Y522223D02*
X273323Y522223D01*
X273323Y532241D01*
X281134Y532241D01*
X281781Y532068D01*
X282360Y531733D01*
X282833Y531260D01*
X283168Y530681D01*
X283341Y530034D01*
X283341Y522223D01*
X273323Y522223D01*
G37*
%LPD*%
%LPC*%
G36*
X26923Y522223D02*
X26923Y522223D01*
X26923Y532241D01*
X34734Y532241D01*
X35381Y532068D01*
X35960Y531733D01*
X36433Y531260D01*
X36768Y530681D01*
X36941Y530034D01*
X36941Y522223D01*
X26923Y522223D01*
G37*
%LPD*%
%LPC*%
G36*
X179323Y522223D02*
X179323Y522223D01*
X179323Y532241D01*
X187134Y532241D01*
X187781Y532068D01*
X188360Y531733D01*
X188833Y531260D01*
X189168Y530681D01*
X189341Y530034D01*
X189341Y522223D01*
X179323Y522223D01*
G37*
%LPD*%
%LPC*%
G36*
X273323Y484223D02*
X273323Y484223D01*
X273323Y494241D01*
X281134Y494241D01*
X281781Y494068D01*
X282360Y493733D01*
X282833Y493260D01*
X283168Y492681D01*
X283341Y492034D01*
X283341Y484223D01*
X273323Y484223D01*
G37*
%LPD*%
%LPC*%
G36*
X13859Y522223D02*
X13859Y522223D01*
X13859Y530034D01*
X14032Y530681D01*
X14367Y531260D01*
X14840Y531733D01*
X15419Y532068D01*
X16066Y532241D01*
X23877Y532241D01*
X23877Y522223D01*
X13859Y522223D01*
G37*
%LPD*%
%LPC*%
G36*
X26923Y509159D02*
X26923Y509159D01*
X26923Y519177D01*
X36941Y519177D01*
X36941Y511366D01*
X36768Y510719D01*
X36433Y510140D01*
X35960Y509667D01*
X35381Y509332D01*
X34734Y509159D01*
X26923Y509159D01*
G37*
%LPD*%
%LPC*%
G36*
X166259Y522223D02*
X166259Y522223D01*
X166259Y530034D01*
X166432Y530681D01*
X166767Y531260D01*
X167240Y531733D01*
X167819Y532068D01*
X168466Y532241D01*
X176277Y532241D01*
X176277Y522223D01*
X166259Y522223D01*
G37*
%LPD*%
%LPC*%
G36*
X260259Y484223D02*
X260259Y484223D01*
X260259Y492034D01*
X260432Y492681D01*
X260767Y493260D01*
X261240Y493733D01*
X261819Y494068D01*
X262466Y494241D01*
X270277Y494241D01*
X270277Y484223D01*
X260259Y484223D01*
G37*
%LPD*%
%LPC*%
G36*
X107859Y522223D02*
X107859Y522223D01*
X107859Y530034D01*
X108032Y530681D01*
X108367Y531260D01*
X108840Y531733D01*
X109419Y532068D01*
X110066Y532241D01*
X117877Y532241D01*
X117877Y522223D01*
X107859Y522223D01*
G37*
%LPD*%
%LPC*%
G36*
X260259Y522223D02*
X260259Y522223D01*
X260259Y530034D01*
X260432Y530681D01*
X260767Y531260D01*
X261240Y531733D01*
X261819Y532068D01*
X262466Y532241D01*
X270277Y532241D01*
X270277Y522223D01*
X260259Y522223D01*
G37*
%LPD*%
%LPC*%
G36*
X273323Y509159D02*
X273323Y509159D01*
X273323Y519177D01*
X283341Y519177D01*
X283341Y511366D01*
X283168Y510719D01*
X282833Y510140D01*
X282360Y509667D01*
X281781Y509332D01*
X281134Y509159D01*
X273323Y509159D01*
G37*
%LPD*%
%LPC*%
G36*
X120923Y509159D02*
X120923Y509159D01*
X120923Y519177D01*
X130941Y519177D01*
X130941Y511366D01*
X130768Y510719D01*
X130433Y510140D01*
X129960Y509667D01*
X129381Y509332D01*
X128734Y509159D01*
X120923Y509159D01*
G37*
%LPD*%
%LPC*%
G36*
X179323Y509159D02*
X179323Y509159D01*
X179323Y519177D01*
X189341Y519177D01*
X189341Y511366D01*
X189168Y510719D01*
X188833Y510140D01*
X188360Y509667D01*
X187781Y509332D01*
X187134Y509159D01*
X179323Y509159D01*
G37*
%LPD*%
%LPC*%
G36*
X262466Y509159D02*
X262466Y509159D01*
X261819Y509332D01*
X261240Y509667D01*
X260767Y510140D01*
X260432Y510719D01*
X260259Y511366D01*
X260259Y519177D01*
X270277Y519177D01*
X270277Y509159D01*
X262466Y509159D01*
G37*
%LPD*%
%LPC*%
G36*
X262466Y471159D02*
X262466Y471159D01*
X261819Y471332D01*
X261240Y471667D01*
X260767Y472140D01*
X260432Y472719D01*
X260259Y473366D01*
X260259Y481177D01*
X270277Y481177D01*
X270277Y471159D01*
X262466Y471159D01*
G37*
%LPD*%
%LPC*%
G36*
X168466Y509159D02*
X168466Y509159D01*
X167819Y509332D01*
X167240Y509667D01*
X166767Y510140D01*
X166432Y510719D01*
X166259Y511366D01*
X166259Y519177D01*
X176277Y519177D01*
X176277Y509159D01*
X168466Y509159D01*
G37*
%LPD*%
%LPC*%
G36*
X110066Y509159D02*
X110066Y509159D01*
X109419Y509332D01*
X108840Y509667D01*
X108367Y510140D01*
X108032Y510719D01*
X107859Y511366D01*
X107859Y519177D01*
X117877Y519177D01*
X117877Y509159D01*
X110066Y509159D01*
G37*
%LPD*%
%LPC*%
G36*
X16066Y509159D02*
X16066Y509159D01*
X15419Y509332D01*
X14840Y509667D01*
X14367Y510140D01*
X14032Y510719D01*
X13859Y511366D01*
X13859Y519177D01*
X23877Y519177D01*
X23877Y509159D01*
X16066Y509159D01*
G37*
%LPD*%
%LPC*%
G36*
X522223Y407923D02*
X522223Y407923D01*
X522223Y415545D01*
X528205Y415545D01*
X529971Y415193D01*
X531636Y414504D01*
X533134Y413503D01*
X534407Y412230D01*
X535408Y410732D01*
X536097Y409067D01*
X536325Y407923D01*
X522223Y407923D01*
G37*
%LPD*%
%LPC*%
G36*
X505075Y407923D02*
X505075Y407923D01*
X505303Y409067D01*
X505992Y410732D01*
X506993Y412230D01*
X508266Y413503D01*
X509764Y414504D01*
X511429Y415193D01*
X513195Y415545D01*
X519177Y415545D01*
X519177Y407923D01*
X505075Y407923D01*
G37*
%LPD*%
%LPC*%
G36*
X212975Y331723D02*
X212975Y331723D01*
X213203Y332867D01*
X213892Y334532D01*
X214893Y336030D01*
X216166Y337303D01*
X217664Y338304D01*
X219329Y338993D01*
X221095Y339345D01*
X227077Y339345D01*
X227077Y331723D01*
X212975Y331723D01*
G37*
%LPD*%
%LPC*%
G36*
X522223Y397255D02*
X522223Y397255D01*
X522223Y404877D01*
X536325Y404877D01*
X536097Y403733D01*
X535408Y402068D01*
X534407Y400570D01*
X533134Y399297D01*
X531636Y398296D01*
X529971Y397607D01*
X528205Y397255D01*
X522223Y397255D01*
G37*
%LPD*%
%LPC*%
G36*
X513195Y397255D02*
X513195Y397255D01*
X511429Y397607D01*
X509764Y398296D01*
X508266Y399297D01*
X506993Y400570D01*
X505992Y402068D01*
X505303Y403733D01*
X505075Y404877D01*
X519177Y404877D01*
X519177Y397255D01*
X513195Y397255D01*
G37*
%LPD*%
%LPC*%
G36*
X221095Y321055D02*
X221095Y321055D01*
X219329Y321407D01*
X217664Y322096D01*
X216166Y323097D01*
X214893Y324370D01*
X213892Y325868D01*
X213203Y327533D01*
X212975Y328677D01*
X227077Y328677D01*
X227077Y321055D01*
X221095Y321055D01*
G37*
%LPD*%
%LPC*%
G36*
X115823Y52323D02*
X115823Y52323D01*
X115823Y60961D01*
X118509Y60961D01*
X124461Y55009D01*
X124461Y52323D01*
X115823Y52323D01*
G37*
%LPD*%
%LPC*%
G36*
X90423Y52323D02*
X90423Y52323D01*
X90423Y60961D01*
X93109Y60961D01*
X99061Y55009D01*
X99061Y52323D01*
X90423Y52323D01*
G37*
%LPD*%
%LPC*%
G36*
X65023Y52323D02*
X65023Y52323D01*
X65023Y60961D01*
X67709Y60961D01*
X73661Y55009D01*
X73661Y52323D01*
X65023Y52323D01*
G37*
%LPD*%
%LPC*%
G36*
X115823Y26923D02*
X115823Y26923D01*
X115823Y35561D01*
X118509Y35561D01*
X124461Y29609D01*
X124461Y26923D01*
X115823Y26923D01*
G37*
%LPD*%
%LPC*%
G36*
X90423Y26923D02*
X90423Y26923D01*
X90423Y35561D01*
X93109Y35561D01*
X99061Y29609D01*
X99061Y26923D01*
X90423Y26923D01*
G37*
%LPD*%
%LPC*%
G36*
X65023Y26923D02*
X65023Y26923D01*
X65023Y35561D01*
X67709Y35561D01*
X73661Y29609D01*
X73661Y26923D01*
X65023Y26923D01*
G37*
%LPD*%
%LPC*%
G36*
X104139Y52323D02*
X104139Y52323D01*
X104139Y55009D01*
X110091Y60961D01*
X112777Y60961D01*
X112777Y52323D01*
X104139Y52323D01*
G37*
%LPD*%
%LPC*%
G36*
X78739Y52323D02*
X78739Y52323D01*
X78739Y55009D01*
X84691Y60961D01*
X87377Y60961D01*
X87377Y52323D01*
X78739Y52323D01*
G37*
%LPD*%
%LPC*%
G36*
X53339Y26923D02*
X53339Y26923D01*
X53339Y29609D01*
X59291Y35561D01*
X61977Y35561D01*
X61977Y26923D01*
X53339Y26923D01*
G37*
%LPD*%
%LPC*%
G36*
X78739Y26923D02*
X78739Y26923D01*
X78739Y29609D01*
X84691Y35561D01*
X87377Y35561D01*
X87377Y26923D01*
X78739Y26923D01*
G37*
%LPD*%
%LPC*%
G36*
X104139Y26923D02*
X104139Y26923D01*
X104139Y29609D01*
X110091Y35561D01*
X112777Y35561D01*
X112777Y26923D01*
X104139Y26923D01*
G37*
%LPD*%
%LPC*%
G36*
X65023Y40639D02*
X65023Y40639D01*
X65023Y49277D01*
X73661Y49277D01*
X73661Y46591D01*
X67709Y40639D01*
X65023Y40639D01*
G37*
%LPD*%
%LPC*%
G36*
X90423Y40639D02*
X90423Y40639D01*
X90423Y49277D01*
X99061Y49277D01*
X99061Y46591D01*
X93109Y40639D01*
X90423Y40639D01*
G37*
%LPD*%
%LPC*%
G36*
X115823Y40639D02*
X115823Y40639D01*
X115823Y49277D01*
X124461Y49277D01*
X124461Y46591D01*
X118509Y40639D01*
X115823Y40639D01*
G37*
%LPD*%
%LPC*%
G36*
X65023Y15239D02*
X65023Y15239D01*
X65023Y23877D01*
X73661Y23877D01*
X73661Y21191D01*
X67709Y15239D01*
X65023Y15239D01*
G37*
%LPD*%
%LPC*%
G36*
X90423Y15239D02*
X90423Y15239D01*
X90423Y23877D01*
X99061Y23877D01*
X99061Y21191D01*
X93109Y15239D01*
X90423Y15239D01*
G37*
%LPD*%
%LPC*%
G36*
X115823Y15239D02*
X115823Y15239D01*
X115823Y23877D01*
X124461Y23877D01*
X124461Y21191D01*
X118509Y15239D01*
X115823Y15239D01*
G37*
%LPD*%
%LPC*%
G36*
X84691Y40639D02*
X84691Y40639D01*
X78739Y46591D01*
X78739Y49277D01*
X87377Y49277D01*
X87377Y40639D01*
X84691Y40639D01*
G37*
%LPD*%
%LPC*%
G36*
X110091Y40639D02*
X110091Y40639D01*
X104139Y46591D01*
X104139Y49277D01*
X112777Y49277D01*
X112777Y40639D01*
X110091Y40639D01*
G37*
%LPD*%
%LPC*%
G36*
X84691Y15239D02*
X84691Y15239D01*
X78739Y21191D01*
X78739Y23877D01*
X87377Y23877D01*
X87377Y15239D01*
X84691Y15239D01*
G37*
%LPD*%
%LPC*%
G36*
X110091Y15239D02*
X110091Y15239D01*
X104139Y21191D01*
X104139Y23877D01*
X112777Y23877D01*
X112777Y15239D01*
X110091Y15239D01*
G37*
%LPD*%
%LPC*%
G36*
X59291Y15239D02*
X59291Y15239D01*
X53339Y21191D01*
X53339Y23877D01*
X61977Y23877D01*
X61977Y15239D01*
X59291Y15239D01*
G37*
%LPD*%
%LPC*%
G36*
X59291Y40639D02*
X59291Y40639D01*
X53339Y46591D01*
X53339Y49277D01*
X61977Y49277D01*
X61977Y40639D01*
X59291Y40639D01*
G37*
%LPD*%
%LPC*%
G36*
X865123Y420623D02*
X865123Y420623D01*
X865123Y428245D01*
X867388Y428245D01*
X872745Y422888D01*
X872745Y420623D01*
X865123Y420623D01*
G37*
%LPD*%
%LPC*%
G36*
X179323Y192023D02*
X179323Y192023D01*
X179323Y199645D01*
X181588Y199645D01*
X186945Y194288D01*
X186945Y192023D01*
X179323Y192023D01*
G37*
%LPD*%
%LPC*%
G36*
X382523Y230123D02*
X382523Y230123D01*
X382523Y237745D01*
X384788Y237745D01*
X390145Y232388D01*
X390145Y230123D01*
X382523Y230123D01*
G37*
%LPD*%
%LPC*%
G36*
X623823Y217423D02*
X623823Y217423D01*
X623823Y225045D01*
X626088Y225045D01*
X631445Y219688D01*
X631445Y217423D01*
X623823Y217423D01*
G37*
%LPD*%
%LPC*%
G36*
X204723Y420623D02*
X204723Y420623D01*
X204723Y428245D01*
X206988Y428245D01*
X212345Y422888D01*
X212345Y420623D01*
X204723Y420623D01*
G37*
%LPD*%
%LPC*%
G36*
X26923Y331723D02*
X26923Y331723D01*
X26923Y339345D01*
X29188Y339345D01*
X34545Y333988D01*
X34545Y331723D01*
X26923Y331723D01*
G37*
%LPD*%
%LPC*%
G36*
X166623Y153923D02*
X166623Y153923D01*
X166623Y161545D01*
X168888Y161545D01*
X174245Y156188D01*
X174245Y153923D01*
X166623Y153923D01*
G37*
%LPD*%
%LPC*%
G36*
X890523Y179323D02*
X890523Y179323D01*
X890523Y186945D01*
X892788Y186945D01*
X898145Y181588D01*
X898145Y179323D01*
X890523Y179323D01*
G37*
%LPD*%
%LPC*%
G36*
X242823Y115823D02*
X242823Y115823D01*
X242823Y123445D01*
X245088Y123445D01*
X250445Y118088D01*
X250445Y115823D01*
X242823Y115823D01*
G37*
%LPD*%
%LPC*%
G36*
X763523Y433323D02*
X763523Y433323D01*
X763523Y440945D01*
X765788Y440945D01*
X771145Y435588D01*
X771145Y433323D01*
X763523Y433323D01*
G37*
%LPD*%
%LPC*%
G36*
X331723Y29463D02*
X331723Y29463D01*
X331723Y37085D01*
X333988Y37085D01*
X339345Y31728D01*
X339345Y29463D01*
X331723Y29463D01*
G37*
%LPD*%
%LPC*%
G36*
X915923Y26923D02*
X915923Y26923D01*
X915923Y34545D01*
X918188Y34545D01*
X923545Y29188D01*
X923545Y26923D01*
X915923Y26923D01*
G37*
%LPD*%
%LPC*%
G36*
X700023Y293623D02*
X700023Y293623D01*
X700023Y301245D01*
X702288Y301245D01*
X707645Y295888D01*
X707645Y293623D01*
X700023Y293623D01*
G37*
%LPD*%
%LPC*%
G36*
X854455Y420623D02*
X854455Y420623D01*
X854455Y422888D01*
X859812Y428245D01*
X862077Y428245D01*
X862077Y420623D01*
X854455Y420623D01*
G37*
%LPD*%
%LPC*%
G36*
X232155Y115823D02*
X232155Y115823D01*
X232155Y118088D01*
X237512Y123445D01*
X239777Y123445D01*
X239777Y115823D01*
X232155Y115823D01*
G37*
%LPD*%
%LPC*%
G36*
X905255Y26923D02*
X905255Y26923D01*
X905255Y29188D01*
X910612Y34545D01*
X912877Y34545D01*
X912877Y26923D01*
X905255Y26923D01*
G37*
%LPD*%
%LPC*%
G36*
X371855Y230123D02*
X371855Y230123D01*
X371855Y232388D01*
X377212Y237745D01*
X379477Y237745D01*
X379477Y230123D01*
X371855Y230123D01*
G37*
%LPD*%
%LPC*%
G36*
X168655Y192023D02*
X168655Y192023D01*
X168655Y194288D01*
X174012Y199645D01*
X176277Y199645D01*
X176277Y192023D01*
X168655Y192023D01*
G37*
%LPD*%
%LPC*%
G36*
X752855Y433323D02*
X752855Y433323D01*
X752855Y435588D01*
X758212Y440945D01*
X760477Y440945D01*
X760477Y433323D01*
X752855Y433323D01*
G37*
%LPD*%
%LPC*%
G36*
X879855Y179323D02*
X879855Y179323D01*
X879855Y181588D01*
X885212Y186945D01*
X887477Y186945D01*
X887477Y179323D01*
X879855Y179323D01*
G37*
%LPD*%
%LPC*%
G36*
X155955Y153923D02*
X155955Y153923D01*
X155955Y156188D01*
X161312Y161545D01*
X163577Y161545D01*
X163577Y153923D01*
X155955Y153923D01*
G37*
%LPD*%
%LPC*%
G36*
X16255Y331723D02*
X16255Y331723D01*
X16255Y333988D01*
X21612Y339345D01*
X23877Y339345D01*
X23877Y331723D01*
X16255Y331723D01*
G37*
%LPD*%
%LPC*%
G36*
X194055Y420623D02*
X194055Y420623D01*
X194055Y422888D01*
X199412Y428245D01*
X201677Y428245D01*
X201677Y420623D01*
X194055Y420623D01*
G37*
%LPD*%
%LPC*%
G36*
X689355Y293623D02*
X689355Y293623D01*
X689355Y295888D01*
X694712Y301245D01*
X696977Y301245D01*
X696977Y293623D01*
X689355Y293623D01*
G37*
%LPD*%
%LPC*%
G36*
X26923Y321055D02*
X26923Y321055D01*
X26923Y328677D01*
X34545Y328677D01*
X34545Y326412D01*
X29188Y321055D01*
X26923Y321055D01*
G37*
%LPD*%
%LPC*%
G36*
X865123Y409955D02*
X865123Y409955D01*
X865123Y417577D01*
X872745Y417577D01*
X872745Y415312D01*
X867388Y409955D01*
X865123Y409955D01*
G37*
%LPD*%
%LPC*%
G36*
X166623Y143255D02*
X166623Y143255D01*
X166623Y150877D01*
X174245Y150877D01*
X174245Y148612D01*
X168888Y143255D01*
X166623Y143255D01*
G37*
%LPD*%
%LPC*%
G36*
X204723Y409955D02*
X204723Y409955D01*
X204723Y417577D01*
X212345Y417577D01*
X212345Y415312D01*
X206988Y409955D01*
X204723Y409955D01*
G37*
%LPD*%
%LPC*%
G36*
X613155Y217423D02*
X613155Y217423D01*
X613155Y219688D01*
X618512Y225045D01*
X620777Y225045D01*
X620777Y217423D01*
X613155Y217423D01*
G37*
%LPD*%
%LPC*%
G36*
X763523Y422655D02*
X763523Y422655D01*
X763523Y430277D01*
X771145Y430277D01*
X771145Y428012D01*
X765788Y422655D01*
X763523Y422655D01*
G37*
%LPD*%
%LPC*%
G36*
X382523Y219455D02*
X382523Y219455D01*
X382523Y227077D01*
X390145Y227077D01*
X390145Y224812D01*
X384788Y219455D01*
X382523Y219455D01*
G37*
%LPD*%
%LPC*%
G36*
X890523Y168655D02*
X890523Y168655D01*
X890523Y176277D01*
X898145Y176277D01*
X898145Y174012D01*
X892788Y168655D01*
X890523Y168655D01*
G37*
%LPD*%
%LPC*%
G36*
X179323Y181355D02*
X179323Y181355D01*
X179323Y188977D01*
X186945Y188977D01*
X186945Y186712D01*
X181588Y181355D01*
X179323Y181355D01*
G37*
%LPD*%
%LPC*%
G36*
X700023Y282955D02*
X700023Y282955D01*
X700023Y290577D01*
X707645Y290577D01*
X707645Y288312D01*
X702288Y282955D01*
X700023Y282955D01*
G37*
%LPD*%
%LPC*%
G36*
X242823Y105155D02*
X242823Y105155D01*
X242823Y112777D01*
X250445Y112777D01*
X250445Y110512D01*
X245088Y105155D01*
X242823Y105155D01*
G37*
%LPD*%
%LPC*%
G36*
X915923Y16255D02*
X915923Y16255D01*
X915923Y23877D01*
X923545Y23877D01*
X923545Y21612D01*
X918188Y16255D01*
X915923Y16255D01*
G37*
%LPD*%
%LPC*%
G36*
X623823Y206755D02*
X623823Y206755D01*
X623823Y214377D01*
X631445Y214377D01*
X631445Y212112D01*
X626088Y206755D01*
X623823Y206755D01*
G37*
%LPD*%
%LPC*%
G36*
X694712Y282955D02*
X694712Y282955D01*
X689355Y288312D01*
X689355Y290577D01*
X696977Y290577D01*
X696977Y282955D01*
X694712Y282955D01*
G37*
%LPD*%
%LPC*%
G36*
X618512Y206755D02*
X618512Y206755D01*
X613155Y212112D01*
X613155Y214377D01*
X620777Y214377D01*
X620777Y206755D01*
X618512Y206755D01*
G37*
%LPD*%
%LPC*%
G36*
X161312Y143255D02*
X161312Y143255D01*
X155955Y148612D01*
X155955Y150877D01*
X163577Y150877D01*
X163577Y143255D01*
X161312Y143255D01*
G37*
%LPD*%
%LPC*%
G36*
X21612Y321055D02*
X21612Y321055D01*
X16255Y326412D01*
X16255Y328677D01*
X23877Y328677D01*
X23877Y321055D01*
X21612Y321055D01*
G37*
%LPD*%
%LPC*%
G36*
X758212Y422655D02*
X758212Y422655D01*
X752855Y428012D01*
X752855Y430277D01*
X760477Y430277D01*
X760477Y422655D01*
X758212Y422655D01*
G37*
%LPD*%
%LPC*%
G36*
X199412Y409955D02*
X199412Y409955D01*
X194055Y415312D01*
X194055Y417577D01*
X201677Y417577D01*
X201677Y409955D01*
X199412Y409955D01*
G37*
%LPD*%
%LPC*%
G36*
X377212Y219455D02*
X377212Y219455D01*
X371855Y224812D01*
X371855Y227077D01*
X379477Y227077D01*
X379477Y219455D01*
X377212Y219455D01*
G37*
%LPD*%
%LPC*%
G36*
X859812Y409955D02*
X859812Y409955D01*
X854455Y415312D01*
X854455Y417577D01*
X862077Y417577D01*
X862077Y409955D01*
X859812Y409955D01*
G37*
%LPD*%
%LPC*%
G36*
X910612Y16255D02*
X910612Y16255D01*
X905255Y21612D01*
X905255Y23877D01*
X912877Y23877D01*
X912877Y16255D01*
X910612Y16255D01*
G37*
%LPD*%
%LPC*%
G36*
X885212Y168655D02*
X885212Y168655D01*
X879855Y174012D01*
X879855Y176277D01*
X887477Y176277D01*
X887477Y168655D01*
X885212Y168655D01*
G37*
%LPD*%
%LPC*%
G36*
X174012Y181355D02*
X174012Y181355D01*
X168655Y186712D01*
X168655Y188977D01*
X176277Y188977D01*
X176277Y181355D01*
X174012Y181355D01*
G37*
%LPD*%
%LPC*%
G36*
X237512Y105155D02*
X237512Y105155D01*
X232155Y110512D01*
X232155Y112777D01*
X239777Y112777D01*
X239777Y105155D01*
X237512Y105155D01*
G37*
%LPD*%
%LPC*%
G36*
X915923Y65023D02*
X915923Y65023D01*
X915923Y72521D01*
X917067Y72293D01*
X918732Y71604D01*
X920230Y70603D01*
X921503Y69330D01*
X922504Y67832D01*
X923193Y66167D01*
X923421Y65023D01*
X915923Y65023D01*
G37*
%LPD*%
%LPC*%
G36*
X242823Y29463D02*
X242823Y29463D01*
X242823Y36961D01*
X243967Y36733D01*
X245632Y36044D01*
X247130Y35043D01*
X248403Y33770D01*
X249404Y32272D01*
X250093Y30607D01*
X250321Y29463D01*
X242823Y29463D01*
G37*
%LPD*%
%LPC*%
G36*
X915923Y141223D02*
X915923Y141223D01*
X915923Y148721D01*
X917067Y148493D01*
X918732Y147804D01*
X920230Y146803D01*
X921503Y145530D01*
X922504Y144032D01*
X923193Y142367D01*
X923421Y141223D01*
X915923Y141223D01*
G37*
%LPD*%
%LPC*%
G36*
X905379Y65023D02*
X905379Y65023D01*
X905607Y66167D01*
X906296Y67832D01*
X907297Y69330D01*
X908570Y70603D01*
X910068Y71604D01*
X911733Y72293D01*
X912877Y72521D01*
X912877Y65023D01*
X905379Y65023D01*
G37*
%LPD*%
%LPC*%
G36*
X915923Y61977D02*
X915923Y61977D01*
X923421Y61977D01*
X923193Y60833D01*
X922504Y59168D01*
X921503Y57670D01*
X920230Y56397D01*
X918732Y55396D01*
X917067Y54707D01*
X915923Y54479D01*
X915923Y61977D01*
G37*
%LPD*%
%LPC*%
G36*
X915923Y138177D02*
X915923Y138177D01*
X923421Y138177D01*
X923193Y137033D01*
X922504Y135368D01*
X921503Y133870D01*
X920230Y132597D01*
X918732Y131596D01*
X917067Y130907D01*
X915923Y130679D01*
X915923Y138177D01*
G37*
%LPD*%
%LPC*%
G36*
X905379Y141223D02*
X905379Y141223D01*
X905607Y142367D01*
X906296Y144032D01*
X907297Y145530D01*
X908570Y146803D01*
X910068Y147804D01*
X911733Y148493D01*
X912877Y148721D01*
X912877Y141223D01*
X905379Y141223D01*
G37*
%LPD*%
%LPC*%
G36*
X232279Y29463D02*
X232279Y29463D01*
X232507Y30607D01*
X233196Y32272D01*
X234197Y33770D01*
X235470Y35043D01*
X236968Y36044D01*
X238633Y36733D01*
X239777Y36961D01*
X239777Y29463D01*
X232279Y29463D01*
G37*
%LPD*%
%LPC*%
G36*
X242823Y26417D02*
X242823Y26417D01*
X250321Y26417D01*
X250093Y25273D01*
X249404Y23608D01*
X248403Y22110D01*
X247130Y20837D01*
X245632Y19836D01*
X243967Y19147D01*
X242823Y18919D01*
X242823Y26417D01*
G37*
%LPD*%
%LPC*%
G36*
X911733Y54707D02*
X911733Y54707D01*
X910068Y55396D01*
X908570Y56397D01*
X907297Y57670D01*
X906296Y59168D01*
X905607Y60833D01*
X905379Y61977D01*
X912877Y61977D01*
X912877Y54479D01*
X911733Y54707D01*
G37*
%LPD*%
%LPC*%
G36*
X911733Y130907D02*
X911733Y130907D01*
X910068Y131596D01*
X908570Y132597D01*
X907297Y133870D01*
X906296Y135368D01*
X905607Y137033D01*
X905379Y138177D01*
X912877Y138177D01*
X912877Y130679D01*
X911733Y130907D01*
G37*
%LPD*%
%LPC*%
G36*
X238633Y19147D02*
X238633Y19147D01*
X236968Y19836D01*
X235470Y20837D01*
X234197Y22110D01*
X233196Y23608D01*
X232507Y25273D01*
X232279Y26417D01*
X239777Y26417D01*
X239777Y18919D01*
X238633Y19147D01*
G37*
%LPD*%
%LPC*%
G36*
X271799Y482699D02*
X271799Y482699D01*
X271799Y482701D01*
X271801Y482701D01*
X271801Y482699D01*
X271799Y482699D01*
G37*
%LPD*%
%LPC*%
G36*
X761999Y431799D02*
X761999Y431799D01*
X761999Y431801D01*
X762001Y431801D01*
X762001Y431799D01*
X761999Y431799D01*
G37*
%LPD*%
%LPC*%
G36*
X888999Y177799D02*
X888999Y177799D01*
X888999Y177801D01*
X889001Y177801D01*
X889001Y177799D01*
X888999Y177799D01*
G37*
%LPD*%
%LPC*%
G36*
X520699Y406399D02*
X520699Y406399D01*
X520699Y406401D01*
X520701Y406401D01*
X520701Y406399D01*
X520699Y406399D01*
G37*
%LPD*%
%LPC*%
G36*
X698499Y292099D02*
X698499Y292099D01*
X698499Y292101D01*
X698501Y292101D01*
X698501Y292099D01*
X698499Y292099D01*
G37*
%LPD*%
%LPC*%
G36*
X241299Y114299D02*
X241299Y114299D01*
X241299Y114301D01*
X241301Y114301D01*
X241301Y114299D01*
X241299Y114299D01*
G37*
%LPD*%
%LPC*%
G36*
X863599Y419099D02*
X863599Y419099D01*
X863599Y419101D01*
X863601Y419101D01*
X863601Y419099D01*
X863599Y419099D01*
G37*
%LPD*%
%LPC*%
G36*
X177799Y190499D02*
X177799Y190499D01*
X177799Y190501D01*
X177801Y190501D01*
X177801Y190499D01*
X177799Y190499D01*
G37*
%LPD*%
%LPC*%
G36*
X25399Y520699D02*
X25399Y520699D01*
X25399Y520701D01*
X25401Y520701D01*
X25401Y520699D01*
X25399Y520699D01*
G37*
%LPD*%
%LPC*%
G36*
X914399Y63499D02*
X914399Y63499D01*
X914399Y63501D01*
X914401Y63501D01*
X914401Y63499D01*
X914399Y63499D01*
G37*
%LPD*%
%LPC*%
G36*
X203199Y419099D02*
X203199Y419099D01*
X203199Y419101D01*
X203201Y419101D01*
X203201Y419099D01*
X203199Y419099D01*
G37*
%LPD*%
%LPC*%
G36*
X914399Y139699D02*
X914399Y139699D01*
X914399Y139701D01*
X914401Y139701D01*
X914401Y139699D01*
X914399Y139699D01*
G37*
%LPD*%
%LPC*%
G36*
X25399Y330199D02*
X25399Y330199D01*
X25399Y330201D01*
X25401Y330201D01*
X25401Y330199D01*
X25399Y330199D01*
G37*
%LPD*%
%LPC*%
G36*
X114299Y50799D02*
X114299Y50799D01*
X114299Y50801D01*
X114301Y50801D01*
X114301Y50799D01*
X114299Y50799D01*
G37*
%LPD*%
%LPC*%
G36*
X88899Y50799D02*
X88899Y50799D01*
X88899Y50801D01*
X88901Y50801D01*
X88901Y50799D01*
X88899Y50799D01*
G37*
%LPD*%
%LPC*%
G36*
X63499Y50799D02*
X63499Y50799D01*
X63499Y50801D01*
X63501Y50801D01*
X63501Y50799D01*
X63499Y50799D01*
G37*
%LPD*%
%LPC*%
G36*
X914399Y25399D02*
X914399Y25399D01*
X914399Y25401D01*
X914401Y25401D01*
X914401Y25399D01*
X914399Y25399D01*
G37*
%LPD*%
%LPC*%
G36*
X114299Y25399D02*
X114299Y25399D01*
X114299Y25401D01*
X114301Y25401D01*
X114301Y25399D01*
X114299Y25399D01*
G37*
%LPD*%
%LPC*%
G36*
X88899Y25399D02*
X88899Y25399D01*
X88899Y25401D01*
X88901Y25401D01*
X88901Y25399D01*
X88899Y25399D01*
G37*
%LPD*%
%LPC*%
G36*
X63499Y25399D02*
X63499Y25399D01*
X63499Y25401D01*
X63501Y25401D01*
X63501Y25399D01*
X63499Y25399D01*
G37*
%LPD*%
%LPC*%
G36*
X165099Y152399D02*
X165099Y152399D01*
X165099Y152401D01*
X165101Y152401D01*
X165101Y152399D01*
X165099Y152399D01*
G37*
%LPD*%
%LPC*%
G36*
X119399Y520699D02*
X119399Y520699D01*
X119399Y520701D01*
X119401Y520701D01*
X119401Y520699D01*
X119399Y520699D01*
G37*
%LPD*%
%LPC*%
G36*
X380999Y228599D02*
X380999Y228599D01*
X380999Y228601D01*
X381001Y228601D01*
X381001Y228599D01*
X380999Y228599D01*
G37*
%LPD*%
%LPC*%
G36*
X271799Y520699D02*
X271799Y520699D01*
X271799Y520701D01*
X271801Y520701D01*
X271801Y520699D01*
X271799Y520699D01*
G37*
%LPD*%
%LPC*%
G36*
X622299Y215899D02*
X622299Y215899D01*
X622299Y215901D01*
X622301Y215901D01*
X622301Y215899D01*
X622299Y215899D01*
G37*
%LPD*%
%LPC*%
G36*
X177799Y520699D02*
X177799Y520699D01*
X177799Y520701D01*
X177801Y520701D01*
X177801Y520699D01*
X177799Y520699D01*
G37*
%LPD*%
%LPC*%
G36*
X709599Y507999D02*
X709599Y507999D01*
X709599Y508001D01*
X709601Y508001D01*
X709601Y507999D01*
X709599Y507999D01*
G37*
%LPD*%
%LPC*%
G36*
X241299Y27939D02*
X241299Y27939D01*
X241299Y27941D01*
X241301Y27941D01*
X241301Y27939D01*
X241299Y27939D01*
G37*
%LPD*%
D10*
X647700Y27940D03*
D11*
X647700Y48260D03*
D12*
X863600Y25400D03*
X889000Y25400D03*
X914400Y177800D03*
X939800Y177800D03*
X863600Y177800D03*
X889000Y177800D03*
X914400Y25400D03*
X939800Y25400D03*
D13*
X203200Y190500D03*
X177800Y190500D03*
X203200Y419100D03*
X177800Y419100D03*
D10*
X330200Y27940D03*
D11*
X330200Y48260D03*
D14*
X241300Y48260D03*
D11*
X241300Y27940D03*
X863600Y63500D03*
X889000Y63500D03*
X889000Y139700D03*
X863600Y139700D03*
X914400Y63500D03*
X939800Y63500D03*
X914400Y139700D03*
X939800Y139700D03*
D15*
X235204Y228600D02*
X221996Y228600D01*
X221996Y254000D02*
X235204Y254000D01*
X235204Y381000D02*
X221996Y381000D01*
X159004Y381000D02*
X145796Y381000D01*
X221996Y279400D02*
X235204Y279400D01*
X235204Y304800D02*
X221996Y304800D01*
X221996Y355600D02*
X235204Y355600D01*
X235204Y330200D02*
X221996Y330200D01*
X159004Y355600D02*
X145796Y355600D01*
X145796Y330200D02*
X159004Y330200D01*
X159004Y304800D02*
X145796Y304800D01*
X145796Y279400D02*
X159004Y279400D01*
X159004Y254000D02*
X145796Y254000D01*
X145796Y228600D02*
X159004Y228600D01*
D13*
X787400Y431800D03*
X762000Y431800D03*
D12*
X863600Y419100D03*
X939800Y419100D03*
D16*
X909320Y292100D02*
X894080Y292100D01*
X876300Y248920D02*
X876300Y233680D01*
X927100Y233680D02*
X927100Y248920D01*
X655320Y152400D02*
X640080Y152400D01*
X622300Y109220D02*
X622300Y93980D01*
X673100Y93980D02*
X673100Y109220D01*
D14*
X292100Y355600D03*
X292100Y431800D03*
D10*
X698500Y292100D03*
X698500Y215900D03*
D12*
X25400Y241300D03*
X101600Y241300D03*
X279400Y304800D03*
X355600Y304800D03*
D10*
X355600Y431800D03*
X355600Y355600D03*
D12*
X279400Y114300D03*
X355600Y114300D03*
D16*
X538480Y152400D02*
X553720Y152400D01*
X520700Y109220D02*
X520700Y93980D01*
X571500Y93980D02*
X571500Y109220D01*
D12*
X279400Y190500D03*
X355600Y190500D03*
X863600Y381000D03*
X939800Y381000D03*
X279400Y152400D03*
X355600Y152400D03*
D10*
X381000Y431800D03*
X381000Y355600D03*
D13*
X241300Y114300D03*
X165100Y114300D03*
D12*
X165100Y152400D03*
X241300Y152400D03*
X25400Y279400D03*
X101600Y279400D03*
D14*
X406400Y355600D03*
X406400Y431800D03*
D16*
X665480Y406400D02*
X680720Y406400D01*
X647700Y363220D02*
X647700Y347980D01*
X698500Y347980D02*
X698500Y363220D01*
D10*
X584200Y419100D03*
X584200Y342900D03*
D13*
X457200Y266700D03*
X381000Y266700D03*
D12*
X381000Y228600D03*
X457200Y228600D03*
X723900Y25400D03*
X800100Y25400D03*
D10*
X660400Y292100D03*
X660400Y215900D03*
D13*
X355600Y266700D03*
X279400Y266700D03*
D10*
X444500Y431800D03*
X444500Y355600D03*
X469900Y431800D03*
X469900Y355600D03*
X495300Y292100D03*
X495300Y215900D03*
D13*
X457200Y304800D03*
X381000Y304800D03*
D14*
X622300Y215900D03*
X622300Y292100D03*
D12*
X25400Y330200D03*
X101600Y330200D03*
D13*
X101600Y368300D03*
X25400Y368300D03*
D12*
X279400Y228600D03*
X355600Y228600D03*
X723900Y63500D03*
X800100Y63500D03*
D16*
X452120Y152400D02*
X436880Y152400D01*
X419100Y109220D02*
X419100Y93980D01*
X469900Y93980D02*
X469900Y109220D01*
D13*
X101600Y406400D03*
X25400Y406400D03*
D10*
X736600Y292100D03*
X736600Y215900D03*
D13*
X939800Y342900D03*
X863600Y342900D03*
D10*
X317500Y431800D03*
X317500Y355600D03*
X812800Y292100D03*
X812800Y215900D03*
X774700Y292100D03*
X774700Y215900D03*
D17*
X939000Y508000D03*
X889000Y508000D03*
X839000Y508000D03*
X709600Y508000D03*
X659600Y508000D03*
X609600Y508000D03*
X481000Y508000D03*
X431000Y508000D03*
X381000Y508000D03*
D15*
X729996Y139700D02*
X743204Y139700D01*
X806196Y139700D02*
X819404Y139700D01*
X749300Y348996D02*
X749300Y362204D01*
X800100Y362204D02*
X800100Y348996D01*
X774700Y348996D02*
X774700Y362204D01*
X70104Y177800D02*
X56896Y177800D01*
X56896Y127000D02*
X70104Y127000D01*
X70104Y152400D02*
X56896Y152400D01*
X94996Y127000D02*
X108204Y127000D01*
X108204Y177800D02*
X94996Y177800D01*
X94996Y152400D02*
X108204Y152400D01*
X514096Y406400D02*
X527304Y406400D01*
X527304Y355600D02*
X514096Y355600D01*
X514096Y381000D02*
X527304Y381000D01*
X584200Y247904D02*
X584200Y234696D01*
X533400Y234696D02*
X533400Y247904D01*
X558800Y247904D02*
X558800Y234696D01*
X533400Y272796D02*
X533400Y286004D01*
X584200Y286004D02*
X584200Y272796D01*
X558800Y272796D02*
X558800Y286004D01*
D18*
X25400Y520700D03*
X119400Y520700D03*
X25400Y482700D03*
X119400Y482700D03*
X177800Y520700D03*
X271800Y520700D03*
X177800Y482700D03*
X271800Y482700D03*
D19*
X38100Y25400D03*
X38100Y50800D03*
X63500Y25400D03*
X63500Y50800D03*
X88900Y25400D03*
X88900Y50800D03*
X114300Y25400D03*
X114300Y50800D03*
X139700Y25400D03*
X139700Y50800D03*
D20*
X360000Y465000D02*
X360000Y485000D01*
D21*
X360000Y465000D03*
D20*
X381000Y506000D02*
X381000Y508000D01*
X381000Y506000D02*
X360000Y485000D01*
D22*
X497500Y215000D02*
X497500Y197500D01*
X497500Y215000D02*
X495300Y215900D01*
X375000Y130000D02*
X357500Y147500D01*
X375000Y130000D02*
X435000Y130000D01*
X467500Y97500D01*
X357500Y147500D02*
X355600Y152400D01*
X467500Y97500D02*
X469900Y101600D01*
X190000Y205000D02*
X185000Y210000D01*
X190000Y205000D02*
X202500Y192500D01*
X137500Y210000D02*
X135000Y210000D01*
X137500Y210000D02*
X185000Y210000D01*
X202500Y192500D02*
X203200Y190500D01*
X192500Y207500D02*
X192500Y210000D01*
X192500Y207500D02*
X190000Y205000D01*
X290000Y210000D02*
X350000Y150000D01*
X290000Y210000D02*
X192500Y210000D01*
X350000Y150000D02*
X355600Y152400D01*
X865000Y180000D02*
X925000Y240000D01*
X927100Y241300D01*
X865000Y180000D02*
X863600Y177800D01*
X680000Y235000D02*
X662500Y217500D01*
X680000Y235000D02*
X715000Y235000D01*
X735000Y215000D01*
X662500Y217500D02*
X660400Y215900D01*
X735000Y215000D02*
X736600Y215900D01*
X680000Y337500D02*
X692500Y350000D01*
X697500Y355000D01*
X680000Y337500D02*
X680000Y235000D01*
X697500Y355000D02*
X698500Y355600D01*
X692500Y350000D02*
X575000Y467500D01*
X640000Y197500D02*
X497500Y197500D01*
X640000Y197500D02*
X657500Y215000D01*
X660400Y215900D01*
D21*
X575000Y467500D03*
D22*
X103700Y241300D02*
X101600Y241300D01*
X103700Y241300D02*
X135000Y210000D01*
X226300Y302500D02*
X228600Y304800D01*
X192500Y269301D02*
X192500Y210000D01*
X192500Y269301D02*
X225699Y302500D01*
X226300Y302500D01*
X469900Y101600D02*
X497500Y129200D01*
X497500Y197500D01*
X355600Y152400D02*
X355600Y150600D01*
X332500Y127500D01*
X332500Y50560D01*
X330200Y48260D01*
X137500Y53000D02*
X137500Y210000D01*
X137500Y53000D02*
X139700Y50800D01*
X863600Y139700D02*
X863600Y177800D01*
X260000Y67500D02*
X242500Y50000D01*
X260000Y82500D02*
X260000Y170000D01*
X260000Y82500D02*
X260000Y67500D01*
X260000Y170000D02*
X280000Y190000D01*
X242500Y50000D02*
X241300Y48260D01*
X280000Y190000D02*
X279400Y190500D01*
X125000Y82500D02*
X70000Y82500D01*
X230000Y82500D02*
X260000Y82500D01*
X937500Y45000D02*
X937500Y27500D01*
X939800Y25400D01*
X787500Y127500D02*
X780000Y120000D01*
X787500Y127500D02*
X787500Y155000D01*
X845000Y212500D01*
X855000Y45000D02*
X937500Y45000D01*
X855000Y45000D02*
X780000Y120000D01*
X160000Y305000D02*
X152500Y305000D01*
X177500Y322500D02*
X180000Y325000D01*
X177500Y322500D02*
X160000Y305000D01*
X180000Y400000D02*
X180000Y417500D01*
X180000Y400000D02*
X180000Y325000D01*
X152500Y305000D02*
X152400Y304800D01*
X180000Y417500D02*
X177800Y419100D01*
X470000Y452500D02*
X470000Y487500D01*
X470000Y452500D02*
X470000Y432500D01*
X469900Y431800D01*
X602500Y357500D02*
X647500Y357500D01*
X602500Y357500D02*
X472500Y487500D01*
X647500Y357500D02*
X647700Y355600D01*
X472500Y487500D02*
X470000Y487500D01*
X232500Y400000D02*
X180000Y400000D01*
X232500Y400000D02*
X285000Y452500D01*
X470000Y452500D01*
X785000Y272500D02*
X845000Y212500D01*
X785000Y272500D02*
X767500Y272500D01*
X755000Y285000D01*
X755000Y300000D01*
X732500Y322500D01*
X180000Y320000D02*
X180000Y222500D01*
X180000Y320000D02*
X177500Y322500D01*
D21*
X125000Y82500D03*
X230000Y82500D03*
X732500Y322500D03*
X180000Y222500D03*
D22*
X70000Y82500D02*
X38300Y50800D01*
X38100Y50800D01*
X470000Y497000D02*
X481000Y508000D01*
X470000Y497000D02*
X470000Y487500D01*
X873800Y241300D02*
X876300Y241300D01*
X873800Y241300D02*
X845000Y212500D01*
X780000Y120000D02*
X723900Y63900D01*
X723900Y63500D01*
X937500Y61200D02*
X939800Y63500D01*
X937500Y61200D02*
X937500Y45000D01*
D21*
X275000Y355000D03*
D20*
X229200Y355000D01*
X228600Y355600D01*
X812800Y139700D02*
X889000Y63500D01*
X889000Y64000D01*
X939800Y380200D02*
X939800Y381000D01*
X959224Y134224D02*
X889000Y64000D01*
X959224Y134224D02*
X959224Y360776D01*
X939800Y380200D01*
X772500Y215000D02*
X710000Y152500D01*
X692500Y152500D02*
X650000Y152500D01*
X692500Y152500D02*
X710000Y152500D01*
X772500Y215000D02*
X774700Y215900D01*
X650000Y152500D02*
X647700Y152400D01*
X692500Y27500D02*
X722500Y27500D01*
X723900Y25400D01*
X850000Y12500D02*
X862500Y25000D01*
X850000Y12500D02*
X740000Y12500D01*
X725000Y27500D01*
X862500Y25000D02*
X863600Y25400D01*
X725000Y27500D02*
X723900Y25400D01*
X692500Y27500D02*
X692500Y152500D01*
X647700Y27940D02*
X648140Y27500D01*
X692500Y27500D01*
X939800Y177800D02*
X939800Y182300D01*
X939800Y342700D02*
X939800Y342900D01*
X952112Y194612D02*
X939800Y182300D01*
X952112Y194612D02*
X952112Y330388D01*
X939800Y342700D01*
X800100Y63500D02*
X800100Y25400D01*
X939800Y139700D02*
X939800Y177800D01*
X876250Y356250D02*
X885000Y365000D01*
X876250Y356250D02*
X865000Y345000D01*
X863600Y342900D01*
X885000Y504000D02*
X889000Y508000D01*
X885000Y504000D02*
X885000Y365000D01*
X914400Y179400D02*
X914400Y177800D01*
X939800Y292700D02*
X876250Y356250D01*
X939800Y292700D02*
X939800Y204800D01*
X914400Y179400D01*
X914400Y177800D02*
X912500Y175900D01*
X912500Y163200D01*
X889000Y139700D01*
X863600Y381400D02*
X845000Y400000D01*
X863600Y381400D02*
X863600Y381000D01*
X845000Y502000D02*
X839000Y508000D01*
X845000Y502000D02*
X845000Y400000D01*
X939000Y419900D02*
X939000Y508000D01*
X939000Y419900D02*
X939800Y419100D01*
D21*
X250000Y327500D03*
X262500Y447500D03*
D20*
X607000Y508000D02*
X609600Y508000D01*
X607000Y508000D02*
X590998Y524002D01*
X339002Y524002D01*
X262500Y447500D01*
X250000Y327500D02*
X250000Y300800D01*
X228600Y279400D01*
X292100Y349600D02*
X292100Y355600D01*
X292100Y349600D02*
X262500Y320000D01*
X262500Y287900D01*
X228600Y254000D01*
X228600Y228600D02*
X267500Y267500D01*
X267500Y272500D01*
X277500Y282500D01*
X327500Y370000D02*
X327500Y382500D01*
D21*
X327500Y382500D03*
D20*
X279400Y304800D02*
X277500Y302900D01*
X277500Y282500D01*
X279400Y304800D02*
X283224Y304800D01*
X329184Y350760D01*
X329184Y368316D01*
X327500Y370000D01*
X345238Y391362D02*
X381000Y355600D01*
X345238Y391362D02*
X238962Y391362D01*
X228600Y381000D01*
X516700Y385000D02*
X520700Y381000D01*
X516700Y385000D02*
X453200Y385000D01*
X406400Y431800D01*
X582100Y345000D02*
X584200Y342900D01*
X556700Y345000D02*
X520700Y381000D01*
X556700Y345000D02*
X582100Y345000D01*
X102400Y367500D02*
X101600Y368300D01*
X140500Y367500D02*
X152400Y355600D01*
X140500Y367500D02*
X102400Y367500D01*
X279400Y266700D02*
X279400Y228600D01*
X355600Y266700D02*
X356700Y266700D01*
X524488Y223012D02*
X565912Y223012D01*
X524488Y223012D02*
X469116Y278384D01*
X368384Y278384D01*
X356700Y266700D01*
X565912Y223012D02*
X584200Y241300D01*
X482500Y302500D02*
X457500Y302500D01*
X482500Y302500D02*
X495000Y290000D01*
X457500Y302500D02*
X457200Y304800D01*
X495300Y292100D02*
X495000Y290000D01*
X520700Y292100D02*
X533400Y279400D01*
X520700Y292100D02*
X495300Y292100D01*
X150000Y332500D02*
X102500Y332500D01*
X101600Y330200D01*
X150000Y332500D02*
X152400Y330200D01*
X469900Y355600D02*
X520700Y355600D01*
X457200Y266700D02*
X457200Y228600D01*
X62500Y370000D02*
X27500Y370000D01*
X62500Y370000D02*
X100000Y407500D01*
X27500Y370000D02*
X25400Y368300D01*
X100000Y407500D02*
X101600Y406400D01*
X127000Y381000D01*
X152400Y381000D01*
X617900Y292100D02*
X622300Y292100D01*
X559400Y279400D02*
X558800Y279400D01*
X612312Y297688D02*
X617900Y292100D01*
X612312Y297688D02*
X577688Y297688D01*
X559400Y279400D01*
X152400Y228600D02*
X101600Y279400D01*
X62500Y207500D02*
X27500Y242500D01*
X27500Y257500D01*
X27500Y277500D01*
X25400Y279400D01*
X27500Y242500D02*
X25400Y241300D01*
X107500Y297500D02*
X150000Y255000D01*
X107500Y297500D02*
X67500Y297500D01*
X27500Y257500D01*
X150000Y255000D02*
X152400Y254000D01*
X62500Y207500D02*
X62500Y178800D01*
X63500Y177800D01*
D21*
X95000Y95000D03*
D20*
X279400Y114300D02*
X279400Y62216D01*
X325360Y16256D01*
X435356Y16256D01*
X520700Y101600D01*
X95000Y95000D02*
X63500Y126500D01*
X63500Y127000D01*
X775000Y290000D02*
X812500Y290000D01*
X775000Y290000D02*
X774700Y292100D01*
X812500Y290000D02*
X812800Y292100D01*
X772500Y292500D02*
X772500Y355000D01*
X774700Y355600D01*
X772500Y292500D02*
X774700Y292100D01*
X800000Y357500D02*
X800000Y415000D01*
X785000Y430000D01*
X800000Y357500D02*
X800100Y355600D01*
X785000Y430000D02*
X787400Y431800D01*
X444500Y152400D02*
X444400Y152500D01*
X432500Y152500D01*
X356400Y228600D01*
X355600Y228600D01*
X25400Y406400D02*
X25400Y482700D01*
M02*
