G04 EAGLE Gerber RS-274X export*
G75*
%MOMM*%
%FSLAX34Y34*%
%LPD*%
%INBottom Copper*%
%IPPOS*%
%AMOC8*
5,1,8,0,0,1.08239X$1,22.5*%
G01*
%ADD10P,1.429621X8X292.500000*%
%ADD11C,1.320800*%
%ADD12P,1.429621X8X22.500000*%
%ADD13P,1.429621X8X202.500000*%
%ADD14P,1.429621X8X112.500000*%
%ADD15C,1.320800*%
%ADD16C,1.524000*%
%ADD17C,2.184400*%
%ADD18R,1.800000X1.800000*%
%ADD19P,1.649562X8X22.500000*%
%ADD20C,0.756400*%
%ADD21C,0.406400*%
%ADD22C,0.812800*%

G36*
X641099Y11950D02*
X641099Y11950D01*
X641171Y11952D01*
X641220Y11970D01*
X641271Y11978D01*
X641334Y12012D01*
X641402Y12037D01*
X641442Y12069D01*
X641488Y12094D01*
X641538Y12145D01*
X641594Y12190D01*
X641622Y12234D01*
X641658Y12272D01*
X641688Y12337D01*
X641727Y12397D01*
X641739Y12448D01*
X641761Y12495D01*
X641769Y12566D01*
X641787Y12636D01*
X641783Y12688D01*
X641788Y12739D01*
X641773Y12810D01*
X641768Y12881D01*
X641747Y12929D01*
X641736Y12980D01*
X641699Y13041D01*
X641671Y13107D01*
X641627Y13163D01*
X641610Y13191D01*
X641592Y13206D01*
X641567Y13238D01*
X632967Y21838D01*
X632967Y34042D01*
X636487Y37562D01*
X636498Y37578D01*
X636514Y37590D01*
X636570Y37678D01*
X636630Y37761D01*
X636636Y37780D01*
X636647Y37797D01*
X636672Y37898D01*
X636702Y37997D01*
X636702Y38016D01*
X636707Y38036D01*
X636699Y38139D01*
X636696Y38242D01*
X636689Y38261D01*
X636688Y38281D01*
X636647Y38376D01*
X636612Y38473D01*
X636599Y38489D01*
X636591Y38507D01*
X636487Y38638D01*
X635210Y39915D01*
X632967Y45329D01*
X632967Y51191D01*
X635210Y56605D01*
X639355Y60750D01*
X644769Y62993D01*
X647748Y62993D01*
X647838Y63007D01*
X647929Y63015D01*
X647959Y63027D01*
X647991Y63032D01*
X648071Y63075D01*
X648155Y63111D01*
X648187Y63137D01*
X648208Y63148D01*
X648230Y63171D01*
X648286Y63216D01*
X664449Y79378D01*
X664475Y79415D01*
X664509Y79446D01*
X664547Y79515D01*
X664592Y79578D01*
X664606Y79622D01*
X664628Y79662D01*
X664642Y79739D01*
X664664Y79813D01*
X664663Y79859D01*
X664671Y79904D01*
X664660Y79981D01*
X664658Y80059D01*
X664642Y80102D01*
X664636Y80147D01*
X664600Y80217D01*
X664574Y80290D01*
X664545Y80326D01*
X664524Y80367D01*
X664469Y80421D01*
X664420Y80482D01*
X664381Y80507D01*
X664348Y80539D01*
X664229Y80605D01*
X664213Y80615D01*
X664208Y80616D01*
X664201Y80620D01*
X664179Y80629D01*
X659749Y85059D01*
X657351Y90847D01*
X657351Y112353D01*
X659749Y118141D01*
X664179Y122571D01*
X669967Y124969D01*
X676233Y124969D01*
X682021Y122571D01*
X686451Y118141D01*
X688849Y112353D01*
X688849Y105616D01*
X688860Y105545D01*
X688862Y105474D01*
X688880Y105425D01*
X688888Y105373D01*
X688922Y105310D01*
X688947Y105243D01*
X688979Y105202D01*
X689004Y105156D01*
X689055Y105107D01*
X689100Y105051D01*
X689144Y105022D01*
X689182Y104986D01*
X689247Y104956D01*
X689307Y104918D01*
X689358Y104905D01*
X689405Y104883D01*
X689476Y104875D01*
X689546Y104857D01*
X689598Y104862D01*
X689649Y104856D01*
X689720Y104871D01*
X689791Y104877D01*
X689839Y104897D01*
X689890Y104908D01*
X689951Y104945D01*
X690017Y104973D01*
X690073Y105018D01*
X690101Y105034D01*
X690116Y105052D01*
X690148Y105078D01*
X716830Y131759D01*
X716897Y131853D01*
X716968Y131948D01*
X716970Y131954D01*
X716973Y131959D01*
X717008Y132070D01*
X717044Y132182D01*
X717044Y132188D01*
X717046Y132194D01*
X717043Y132311D01*
X717042Y132428D01*
X717040Y132435D01*
X717039Y132440D01*
X717033Y132458D01*
X716995Y132589D01*
X715263Y136769D01*
X715263Y142631D01*
X717506Y148045D01*
X721651Y152190D01*
X727065Y154433D01*
X746135Y154433D01*
X751549Y152190D01*
X755694Y148045D01*
X757937Y142631D01*
X757937Y136769D01*
X755694Y131355D01*
X751549Y127210D01*
X746135Y124967D01*
X739092Y124967D01*
X739002Y124953D01*
X738911Y124945D01*
X738881Y124933D01*
X738849Y124928D01*
X738769Y124885D01*
X738685Y124849D01*
X738653Y124823D01*
X738632Y124812D01*
X738610Y124789D01*
X738554Y124744D01*
X662656Y48846D01*
X662603Y48772D01*
X662543Y48703D01*
X662531Y48673D01*
X662512Y48646D01*
X662485Y48560D01*
X662451Y48475D01*
X662447Y48434D01*
X662440Y48411D01*
X662441Y48379D01*
X662433Y48308D01*
X662433Y45329D01*
X660190Y39915D01*
X658913Y38638D01*
X658902Y38622D01*
X658886Y38610D01*
X658830Y38522D01*
X658770Y38439D01*
X658764Y38420D01*
X658753Y38403D01*
X658728Y38302D01*
X658698Y38203D01*
X658698Y38184D01*
X658693Y38164D01*
X658701Y38061D01*
X658704Y37958D01*
X658711Y37939D01*
X658712Y37919D01*
X658753Y37824D01*
X658788Y37727D01*
X658801Y37711D01*
X658809Y37693D01*
X658913Y37562D01*
X662433Y34042D01*
X662433Y21838D01*
X653833Y13238D01*
X653792Y13180D01*
X653742Y13128D01*
X653720Y13081D01*
X653690Y13039D01*
X653669Y12970D01*
X653639Y12905D01*
X653633Y12853D01*
X653618Y12803D01*
X653619Y12732D01*
X653612Y12661D01*
X653623Y12610D01*
X653624Y12558D01*
X653649Y12490D01*
X653664Y12420D01*
X653691Y12376D01*
X653708Y12327D01*
X653753Y12271D01*
X653790Y12209D01*
X653830Y12175D01*
X653862Y12135D01*
X653922Y12096D01*
X653977Y12049D01*
X654025Y12030D01*
X654069Y12002D01*
X654138Y11984D01*
X654205Y11957D01*
X654276Y11949D01*
X654308Y11941D01*
X654331Y11943D01*
X654372Y11939D01*
X714688Y11939D01*
X714759Y11950D01*
X714831Y11952D01*
X714880Y11970D01*
X714931Y11979D01*
X714994Y12012D01*
X715062Y12037D01*
X715102Y12069D01*
X715148Y12094D01*
X715198Y12146D01*
X715254Y12190D01*
X715282Y12234D01*
X715318Y12272D01*
X715348Y12337D01*
X715387Y12397D01*
X715399Y12448D01*
X715421Y12495D01*
X715429Y12566D01*
X715447Y12636D01*
X715443Y12688D01*
X715448Y12739D01*
X715433Y12810D01*
X715428Y12881D01*
X715407Y12929D01*
X715396Y12980D01*
X715359Y13041D01*
X715331Y13107D01*
X715287Y13163D01*
X715270Y13191D01*
X715252Y13206D01*
X715227Y13238D01*
X709167Y19298D01*
X709167Y31502D01*
X717798Y40133D01*
X730002Y40133D01*
X738633Y31502D01*
X738633Y19298D01*
X732573Y13238D01*
X732532Y13180D01*
X732482Y13128D01*
X732460Y13081D01*
X732430Y13039D01*
X732409Y12970D01*
X732379Y12905D01*
X732373Y12853D01*
X732358Y12803D01*
X732359Y12732D01*
X732352Y12661D01*
X732363Y12610D01*
X732364Y12558D01*
X732389Y12490D01*
X732404Y12420D01*
X732431Y12376D01*
X732448Y12327D01*
X732493Y12271D01*
X732530Y12209D01*
X732570Y12175D01*
X732602Y12135D01*
X732662Y12096D01*
X732717Y12049D01*
X732765Y12030D01*
X732809Y12002D01*
X732878Y11984D01*
X732945Y11957D01*
X733016Y11949D01*
X733048Y11941D01*
X733071Y11943D01*
X733112Y11939D01*
X790888Y11939D01*
X790959Y11950D01*
X791031Y11952D01*
X791080Y11970D01*
X791131Y11979D01*
X791194Y12012D01*
X791262Y12037D01*
X791302Y12069D01*
X791348Y12094D01*
X791398Y12146D01*
X791454Y12190D01*
X791482Y12234D01*
X791518Y12272D01*
X791548Y12337D01*
X791587Y12397D01*
X791599Y12448D01*
X791621Y12495D01*
X791629Y12566D01*
X791647Y12636D01*
X791643Y12688D01*
X791648Y12739D01*
X791633Y12810D01*
X791628Y12881D01*
X791607Y12929D01*
X791596Y12980D01*
X791559Y13041D01*
X791531Y13107D01*
X791487Y13163D01*
X791470Y13191D01*
X791452Y13206D01*
X791427Y13238D01*
X785367Y19298D01*
X785367Y31502D01*
X793998Y40133D01*
X806202Y40133D01*
X814833Y31502D01*
X814833Y19298D01*
X808773Y13238D01*
X808732Y13180D01*
X808682Y13128D01*
X808660Y13081D01*
X808630Y13039D01*
X808609Y12970D01*
X808579Y12905D01*
X808573Y12853D01*
X808558Y12803D01*
X808559Y12732D01*
X808552Y12661D01*
X808563Y12610D01*
X808564Y12558D01*
X808589Y12490D01*
X808604Y12420D01*
X808631Y12376D01*
X808648Y12327D01*
X808693Y12271D01*
X808730Y12209D01*
X808770Y12175D01*
X808802Y12135D01*
X808862Y12096D01*
X808917Y12049D01*
X808965Y12030D01*
X809009Y12002D01*
X809078Y11984D01*
X809145Y11957D01*
X809216Y11949D01*
X809248Y11941D01*
X809271Y11943D01*
X809312Y11939D01*
X854388Y11939D01*
X854459Y11950D01*
X854531Y11952D01*
X854580Y11970D01*
X854631Y11979D01*
X854694Y12012D01*
X854762Y12037D01*
X854802Y12069D01*
X854848Y12094D01*
X854898Y12146D01*
X854954Y12190D01*
X854982Y12234D01*
X855018Y12272D01*
X855048Y12337D01*
X855087Y12397D01*
X855099Y12448D01*
X855121Y12495D01*
X855129Y12566D01*
X855147Y12636D01*
X855143Y12688D01*
X855148Y12739D01*
X855133Y12810D01*
X855128Y12881D01*
X855107Y12929D01*
X855096Y12980D01*
X855059Y13041D01*
X855031Y13107D01*
X854987Y13163D01*
X854970Y13191D01*
X854952Y13206D01*
X854927Y13238D01*
X848867Y19298D01*
X848867Y31502D01*
X853216Y35851D01*
X853269Y35925D01*
X853329Y35995D01*
X853341Y36025D01*
X853360Y36051D01*
X853387Y36138D01*
X853421Y36223D01*
X853425Y36264D01*
X853432Y36286D01*
X853431Y36318D01*
X853439Y36390D01*
X853439Y52510D01*
X853425Y52600D01*
X853417Y52691D01*
X853405Y52721D01*
X853400Y52753D01*
X853357Y52834D01*
X853321Y52918D01*
X853295Y52950D01*
X853284Y52970D01*
X853261Y52992D01*
X853216Y53048D01*
X851110Y55155D01*
X848867Y60569D01*
X848867Y66431D01*
X851110Y71845D01*
X855255Y75990D01*
X860669Y78233D01*
X866531Y78233D01*
X871945Y75990D01*
X875762Y72174D01*
X875778Y72162D01*
X875790Y72146D01*
X875878Y72090D01*
X875961Y72030D01*
X875980Y72024D01*
X875997Y72013D01*
X876098Y71988D01*
X876197Y71958D01*
X876216Y71958D01*
X876236Y71953D01*
X876339Y71961D01*
X876442Y71964D01*
X876461Y71971D01*
X876481Y71972D01*
X876576Y72013D01*
X876673Y72048D01*
X876689Y72061D01*
X876707Y72069D01*
X876838Y72174D01*
X880655Y75990D01*
X886069Y78233D01*
X891931Y78233D01*
X897345Y75990D01*
X901490Y71845D01*
X903733Y66431D01*
X903733Y60569D01*
X901490Y55155D01*
X899384Y53048D01*
X899331Y52974D01*
X899271Y52905D01*
X899259Y52875D01*
X899240Y52849D01*
X899213Y52762D01*
X899179Y52677D01*
X899175Y52636D01*
X899168Y52614D01*
X899169Y52581D01*
X899161Y52510D01*
X899161Y36390D01*
X899175Y36300D01*
X899183Y36209D01*
X899195Y36179D01*
X899200Y36147D01*
X899243Y36066D01*
X899279Y35982D01*
X899305Y35950D01*
X899316Y35930D01*
X899339Y35907D01*
X899384Y35851D01*
X903733Y31502D01*
X903733Y19298D01*
X897673Y13238D01*
X897632Y13180D01*
X897582Y13128D01*
X897560Y13081D01*
X897530Y13039D01*
X897509Y12970D01*
X897479Y12905D01*
X897473Y12853D01*
X897458Y12803D01*
X897459Y12732D01*
X897452Y12661D01*
X897463Y12610D01*
X897464Y12558D01*
X897489Y12490D01*
X897504Y12420D01*
X897531Y12376D01*
X897548Y12327D01*
X897593Y12271D01*
X897630Y12209D01*
X897670Y12175D01*
X897702Y12135D01*
X897762Y12096D01*
X897817Y12049D01*
X897865Y12030D01*
X897909Y12002D01*
X897978Y11984D01*
X898045Y11957D01*
X898116Y11949D01*
X898148Y11941D01*
X898171Y11943D01*
X898212Y11939D01*
X930588Y11939D01*
X930659Y11950D01*
X930731Y11952D01*
X930780Y11970D01*
X930831Y11979D01*
X930894Y12012D01*
X930962Y12037D01*
X931002Y12069D01*
X931048Y12094D01*
X931098Y12146D01*
X931154Y12190D01*
X931182Y12234D01*
X931218Y12272D01*
X931248Y12337D01*
X931287Y12397D01*
X931299Y12448D01*
X931321Y12495D01*
X931329Y12566D01*
X931347Y12636D01*
X931343Y12688D01*
X931348Y12739D01*
X931333Y12810D01*
X931328Y12881D01*
X931307Y12929D01*
X931296Y12980D01*
X931259Y13041D01*
X931231Y13107D01*
X931187Y13163D01*
X931170Y13191D01*
X931152Y13206D01*
X931127Y13238D01*
X925067Y19298D01*
X925067Y31502D01*
X933698Y40133D01*
X945902Y40133D01*
X954533Y31502D01*
X954533Y19298D01*
X948473Y13238D01*
X948432Y13180D01*
X948382Y13128D01*
X948360Y13081D01*
X948330Y13039D01*
X948309Y12970D01*
X948279Y12905D01*
X948273Y12853D01*
X948258Y12803D01*
X948259Y12732D01*
X948252Y12661D01*
X948263Y12610D01*
X948264Y12558D01*
X948289Y12490D01*
X948304Y12420D01*
X948331Y12376D01*
X948348Y12327D01*
X948393Y12271D01*
X948430Y12209D01*
X948470Y12175D01*
X948502Y12135D01*
X948562Y12096D01*
X948617Y12049D01*
X948665Y12030D01*
X948709Y12002D01*
X948778Y11984D01*
X948845Y11957D01*
X948916Y11949D01*
X948948Y11941D01*
X948971Y11943D01*
X949012Y11939D01*
X976378Y11939D01*
X976398Y11942D01*
X976417Y11940D01*
X976519Y11962D01*
X976621Y11979D01*
X976638Y11988D01*
X976658Y11992D01*
X976747Y12045D01*
X976838Y12094D01*
X976852Y12108D01*
X976869Y12118D01*
X976936Y12197D01*
X977008Y12272D01*
X977016Y12290D01*
X977029Y12305D01*
X977068Y12401D01*
X977111Y12495D01*
X977113Y12515D01*
X977121Y12533D01*
X977139Y12700D01*
X977139Y533400D01*
X977136Y533418D01*
X977138Y533434D01*
X977138Y533436D01*
X977138Y533439D01*
X977116Y533541D01*
X977100Y533643D01*
X977090Y533660D01*
X977086Y533680D01*
X977033Y533769D01*
X976984Y533860D01*
X976970Y533874D01*
X976960Y533891D01*
X976881Y533958D01*
X976806Y534030D01*
X976788Y534038D01*
X976773Y534051D01*
X976677Y534090D01*
X976583Y534133D01*
X976563Y534135D01*
X976545Y534143D01*
X976378Y534161D01*
X12700Y534161D01*
X12680Y534158D01*
X12661Y534160D01*
X12559Y534138D01*
X12457Y534122D01*
X12440Y534112D01*
X12420Y534108D01*
X12331Y534055D01*
X12240Y534006D01*
X12226Y533992D01*
X12209Y533982D01*
X12142Y533903D01*
X12071Y533828D01*
X12062Y533810D01*
X12049Y533795D01*
X12010Y533699D01*
X11967Y533605D01*
X11965Y533585D01*
X11957Y533567D01*
X11939Y533400D01*
X11939Y499790D01*
X11946Y499745D01*
X11944Y499699D01*
X11966Y499624D01*
X11979Y499547D01*
X12000Y499507D01*
X12013Y499462D01*
X12057Y499398D01*
X12094Y499330D01*
X12127Y499298D01*
X12153Y499260D01*
X12216Y499214D01*
X12272Y499160D01*
X12314Y499141D01*
X12350Y499114D01*
X12424Y499090D01*
X12495Y499057D01*
X12541Y499052D01*
X12584Y499037D01*
X12662Y499038D01*
X12739Y499030D01*
X12784Y499039D01*
X12830Y499040D01*
X12962Y499078D01*
X12980Y499082D01*
X12984Y499084D01*
X12991Y499087D01*
X14783Y499829D01*
X36017Y499829D01*
X39005Y498591D01*
X41291Y496305D01*
X42529Y493317D01*
X42529Y472083D01*
X41291Y469095D01*
X39005Y466809D01*
X36017Y465571D01*
X14783Y465571D01*
X12991Y466313D01*
X12947Y466324D01*
X12905Y466343D01*
X12828Y466352D01*
X12752Y466370D01*
X12706Y466365D01*
X12661Y466370D01*
X12584Y466354D01*
X12507Y466347D01*
X12465Y466328D01*
X12420Y466318D01*
X12353Y466278D01*
X12282Y466247D01*
X12248Y466215D01*
X12209Y466192D01*
X12159Y466133D01*
X12101Y466080D01*
X12079Y466040D01*
X12049Y466005D01*
X12020Y465933D01*
X11983Y465865D01*
X11974Y465819D01*
X11957Y465777D01*
X11942Y465641D01*
X11939Y465623D01*
X11940Y465618D01*
X11939Y465610D01*
X11939Y415612D01*
X11950Y415541D01*
X11952Y415469D01*
X11970Y415420D01*
X11979Y415369D01*
X12012Y415306D01*
X12037Y415238D01*
X12069Y415198D01*
X12094Y415152D01*
X12146Y415102D01*
X12190Y415046D01*
X12234Y415018D01*
X12272Y414982D01*
X12337Y414952D01*
X12397Y414913D01*
X12448Y414901D01*
X12495Y414879D01*
X12566Y414871D01*
X12636Y414853D01*
X12688Y414857D01*
X12739Y414852D01*
X12810Y414867D01*
X12881Y414872D01*
X12929Y414893D01*
X12980Y414904D01*
X13041Y414941D01*
X13107Y414969D01*
X13163Y415013D01*
X13191Y415030D01*
X13206Y415048D01*
X13238Y415073D01*
X19298Y421133D01*
X31502Y421133D01*
X40133Y412502D01*
X40133Y400298D01*
X31502Y391667D01*
X19298Y391667D01*
X13238Y397727D01*
X13180Y397768D01*
X13128Y397818D01*
X13081Y397840D01*
X13039Y397870D01*
X12970Y397891D01*
X12905Y397921D01*
X12853Y397927D01*
X12803Y397942D01*
X12732Y397941D01*
X12661Y397948D01*
X12610Y397937D01*
X12558Y397936D01*
X12490Y397911D01*
X12420Y397896D01*
X12376Y397869D01*
X12327Y397852D01*
X12271Y397807D01*
X12209Y397770D01*
X12175Y397730D01*
X12135Y397698D01*
X12096Y397638D01*
X12049Y397583D01*
X12030Y397535D01*
X12002Y397491D01*
X11984Y397422D01*
X11957Y397355D01*
X11949Y397284D01*
X11941Y397252D01*
X11943Y397229D01*
X11939Y397188D01*
X11939Y377512D01*
X11950Y377441D01*
X11952Y377369D01*
X11970Y377320D01*
X11979Y377269D01*
X12012Y377206D01*
X12037Y377138D01*
X12069Y377098D01*
X12094Y377052D01*
X12146Y377002D01*
X12190Y376946D01*
X12234Y376918D01*
X12272Y376882D01*
X12337Y376852D01*
X12397Y376813D01*
X12448Y376801D01*
X12495Y376779D01*
X12566Y376771D01*
X12636Y376753D01*
X12688Y376757D01*
X12739Y376752D01*
X12810Y376767D01*
X12881Y376772D01*
X12929Y376793D01*
X12980Y376804D01*
X13041Y376841D01*
X13107Y376869D01*
X13163Y376913D01*
X13191Y376930D01*
X13206Y376948D01*
X13238Y376973D01*
X19298Y383033D01*
X31502Y383033D01*
X40133Y374402D01*
X40133Y362198D01*
X31502Y353567D01*
X19298Y353567D01*
X13238Y359627D01*
X13180Y359668D01*
X13128Y359718D01*
X13081Y359740D01*
X13039Y359770D01*
X12970Y359791D01*
X12905Y359821D01*
X12853Y359827D01*
X12803Y359842D01*
X12732Y359841D01*
X12661Y359848D01*
X12610Y359837D01*
X12558Y359836D01*
X12490Y359811D01*
X12420Y359796D01*
X12376Y359769D01*
X12327Y359752D01*
X12271Y359707D01*
X12209Y359670D01*
X12175Y359630D01*
X12135Y359598D01*
X12096Y359538D01*
X12049Y359483D01*
X12030Y359435D01*
X12002Y359391D01*
X11984Y359322D01*
X11957Y359255D01*
X11949Y359184D01*
X11941Y359152D01*
X11943Y359129D01*
X11939Y359088D01*
X11939Y288612D01*
X11950Y288541D01*
X11952Y288469D01*
X11970Y288420D01*
X11979Y288369D01*
X12012Y288306D01*
X12037Y288238D01*
X12069Y288198D01*
X12094Y288152D01*
X12146Y288102D01*
X12190Y288046D01*
X12234Y288018D01*
X12272Y287982D01*
X12337Y287952D01*
X12397Y287913D01*
X12448Y287901D01*
X12495Y287879D01*
X12566Y287871D01*
X12636Y287853D01*
X12688Y287857D01*
X12739Y287852D01*
X12810Y287867D01*
X12881Y287872D01*
X12929Y287893D01*
X12980Y287904D01*
X13041Y287941D01*
X13107Y287969D01*
X13163Y288013D01*
X13191Y288030D01*
X13206Y288048D01*
X13238Y288073D01*
X19298Y294133D01*
X31502Y294133D01*
X40133Y285502D01*
X40133Y273298D01*
X31502Y264667D01*
X19298Y264667D01*
X13238Y270727D01*
X13180Y270768D01*
X13128Y270818D01*
X13081Y270840D01*
X13039Y270870D01*
X12970Y270891D01*
X12905Y270921D01*
X12853Y270927D01*
X12803Y270942D01*
X12732Y270941D01*
X12661Y270948D01*
X12610Y270937D01*
X12558Y270936D01*
X12490Y270911D01*
X12420Y270896D01*
X12376Y270869D01*
X12327Y270852D01*
X12271Y270807D01*
X12209Y270770D01*
X12175Y270730D01*
X12135Y270698D01*
X12096Y270638D01*
X12049Y270583D01*
X12030Y270535D01*
X12002Y270491D01*
X11984Y270422D01*
X11957Y270355D01*
X11949Y270284D01*
X11941Y270252D01*
X11943Y270229D01*
X11939Y270188D01*
X11939Y250512D01*
X11950Y250441D01*
X11952Y250369D01*
X11970Y250320D01*
X11979Y250269D01*
X12012Y250206D01*
X12037Y250138D01*
X12069Y250098D01*
X12094Y250052D01*
X12146Y250002D01*
X12190Y249946D01*
X12234Y249918D01*
X12272Y249882D01*
X12337Y249852D01*
X12397Y249813D01*
X12448Y249801D01*
X12495Y249779D01*
X12566Y249771D01*
X12636Y249753D01*
X12688Y249757D01*
X12739Y249752D01*
X12810Y249767D01*
X12881Y249772D01*
X12929Y249793D01*
X12980Y249804D01*
X13041Y249841D01*
X13107Y249869D01*
X13163Y249913D01*
X13191Y249930D01*
X13206Y249948D01*
X13238Y249973D01*
X19298Y256033D01*
X31502Y256033D01*
X40133Y247402D01*
X40133Y235198D01*
X31502Y226567D01*
X19298Y226567D01*
X13238Y232627D01*
X13180Y232668D01*
X13128Y232718D01*
X13081Y232740D01*
X13039Y232770D01*
X12970Y232791D01*
X12905Y232821D01*
X12853Y232827D01*
X12803Y232842D01*
X12732Y232841D01*
X12661Y232848D01*
X12610Y232837D01*
X12558Y232836D01*
X12490Y232811D01*
X12420Y232796D01*
X12376Y232769D01*
X12327Y232752D01*
X12271Y232707D01*
X12209Y232670D01*
X12175Y232630D01*
X12135Y232598D01*
X12096Y232538D01*
X12049Y232483D01*
X12030Y232435D01*
X12002Y232391D01*
X11984Y232322D01*
X11957Y232255D01*
X11949Y232184D01*
X11941Y232152D01*
X11943Y232129D01*
X11939Y232088D01*
X11939Y12700D01*
X11942Y12680D01*
X11940Y12661D01*
X11962Y12559D01*
X11979Y12457D01*
X11988Y12440D01*
X11992Y12420D01*
X12045Y12331D01*
X12094Y12240D01*
X12108Y12226D01*
X12118Y12209D01*
X12197Y12142D01*
X12272Y12071D01*
X12290Y12062D01*
X12305Y12049D01*
X12401Y12010D01*
X12495Y11967D01*
X12515Y11965D01*
X12533Y11957D01*
X12700Y11939D01*
X27451Y11939D01*
X27522Y11950D01*
X27594Y11952D01*
X27643Y11970D01*
X27694Y11979D01*
X27757Y12012D01*
X27825Y12037D01*
X27865Y12069D01*
X27912Y12094D01*
X27961Y12146D01*
X28017Y12190D01*
X28045Y12234D01*
X28081Y12272D01*
X28111Y12337D01*
X28150Y12397D01*
X28163Y12448D01*
X28185Y12495D01*
X28192Y12566D01*
X28210Y12636D01*
X28206Y12688D01*
X28212Y12739D01*
X28196Y12810D01*
X28191Y12881D01*
X28170Y12929D01*
X28159Y12980D01*
X28123Y13041D01*
X28094Y13107D01*
X28050Y13163D01*
X28033Y13191D01*
X28015Y13206D01*
X27990Y13238D01*
X22351Y18877D01*
X22351Y31923D01*
X25684Y35256D01*
X25737Y35330D01*
X25797Y35400D01*
X25809Y35430D01*
X25828Y35456D01*
X25855Y35543D01*
X25889Y35628D01*
X25893Y35669D01*
X25900Y35691D01*
X25899Y35723D01*
X25907Y35795D01*
X25907Y40405D01*
X25893Y40495D01*
X25885Y40586D01*
X25873Y40616D01*
X25868Y40648D01*
X25825Y40729D01*
X25789Y40813D01*
X25763Y40845D01*
X25752Y40865D01*
X25729Y40888D01*
X25684Y40944D01*
X22351Y44277D01*
X22351Y57323D01*
X31577Y66549D01*
X44623Y66549D01*
X53855Y57317D01*
X53860Y57285D01*
X53862Y57214D01*
X53880Y57165D01*
X53888Y57113D01*
X53922Y57050D01*
X53947Y56983D01*
X53979Y56942D01*
X54004Y56896D01*
X54056Y56846D01*
X54100Y56790D01*
X54144Y56762D01*
X54182Y56726D01*
X54247Y56696D01*
X54307Y56657D01*
X54358Y56645D01*
X54405Y56623D01*
X54476Y56615D01*
X54546Y56597D01*
X54598Y56601D01*
X54649Y56596D01*
X54720Y56611D01*
X54791Y56617D01*
X54839Y56637D01*
X54890Y56648D01*
X54951Y56685D01*
X55017Y56713D01*
X55073Y56758D01*
X55101Y56774D01*
X55116Y56792D01*
X55148Y56818D01*
X59291Y60961D01*
X61977Y60961D01*
X61977Y51562D01*
X61980Y51542D01*
X61978Y51523D01*
X62000Y51421D01*
X62017Y51319D01*
X62026Y51302D01*
X62030Y51282D01*
X62083Y51193D01*
X62132Y51102D01*
X62146Y51088D01*
X62156Y51071D01*
X62235Y51004D01*
X62310Y50933D01*
X62328Y50924D01*
X62343Y50911D01*
X62439Y50873D01*
X62533Y50829D01*
X62553Y50827D01*
X62571Y50819D01*
X62738Y50801D01*
X63501Y50801D01*
X63501Y50799D01*
X62738Y50799D01*
X62718Y50796D01*
X62699Y50798D01*
X62597Y50776D01*
X62495Y50759D01*
X62478Y50750D01*
X62458Y50746D01*
X62369Y50693D01*
X62278Y50644D01*
X62264Y50630D01*
X62247Y50620D01*
X62180Y50541D01*
X62109Y50466D01*
X62100Y50448D01*
X62087Y50433D01*
X62048Y50337D01*
X62005Y50243D01*
X62003Y50223D01*
X61995Y50205D01*
X61977Y50038D01*
X61977Y40639D01*
X59291Y40639D01*
X55148Y44782D01*
X55090Y44824D01*
X55038Y44874D01*
X54991Y44895D01*
X54949Y44926D01*
X54880Y44947D01*
X54815Y44977D01*
X54763Y44983D01*
X54713Y44998D01*
X54642Y44996D01*
X54571Y45004D01*
X54520Y44993D01*
X54468Y44992D01*
X54400Y44967D01*
X54330Y44952D01*
X54285Y44925D01*
X54237Y44907D01*
X54181Y44863D01*
X54119Y44826D01*
X54085Y44786D01*
X54045Y44754D01*
X54006Y44693D01*
X53959Y44639D01*
X53940Y44591D01*
X53912Y44547D01*
X53894Y44477D01*
X53867Y44411D01*
X53859Y44339D01*
X53851Y44308D01*
X53853Y44285D01*
X53853Y44281D01*
X50516Y40944D01*
X50463Y40870D01*
X50403Y40800D01*
X50391Y40770D01*
X50372Y40744D01*
X50345Y40657D01*
X50311Y40572D01*
X50307Y40531D01*
X50300Y40509D01*
X50301Y40477D01*
X50293Y40405D01*
X50293Y35795D01*
X50307Y35705D01*
X50315Y35614D01*
X50327Y35584D01*
X50332Y35552D01*
X50375Y35471D01*
X50411Y35387D01*
X50437Y35355D01*
X50448Y35335D01*
X50471Y35312D01*
X50516Y35256D01*
X53855Y31917D01*
X53860Y31885D01*
X53862Y31814D01*
X53880Y31765D01*
X53888Y31713D01*
X53922Y31650D01*
X53947Y31583D01*
X53979Y31542D01*
X54004Y31496D01*
X54056Y31446D01*
X54100Y31390D01*
X54144Y31362D01*
X54182Y31326D01*
X54247Y31296D01*
X54307Y31257D01*
X54358Y31245D01*
X54405Y31223D01*
X54476Y31215D01*
X54546Y31197D01*
X54598Y31201D01*
X54649Y31196D01*
X54720Y31211D01*
X54791Y31217D01*
X54839Y31237D01*
X54890Y31248D01*
X54951Y31285D01*
X55017Y31313D01*
X55073Y31358D01*
X55101Y31374D01*
X55116Y31392D01*
X55148Y31418D01*
X59291Y35561D01*
X61977Y35561D01*
X61977Y26162D01*
X61980Y26142D01*
X61978Y26123D01*
X62000Y26021D01*
X62017Y25919D01*
X62026Y25902D01*
X62030Y25882D01*
X62083Y25793D01*
X62132Y25702D01*
X62146Y25688D01*
X62156Y25671D01*
X62235Y25604D01*
X62310Y25533D01*
X62328Y25524D01*
X62343Y25511D01*
X62439Y25473D01*
X62533Y25429D01*
X62553Y25427D01*
X62571Y25419D01*
X62738Y25401D01*
X63501Y25401D01*
X63501Y25399D01*
X62738Y25399D01*
X62718Y25396D01*
X62699Y25398D01*
X62597Y25376D01*
X62495Y25359D01*
X62478Y25350D01*
X62458Y25346D01*
X62369Y25293D01*
X62278Y25244D01*
X62264Y25230D01*
X62247Y25220D01*
X62180Y25141D01*
X62109Y25066D01*
X62100Y25048D01*
X62087Y25033D01*
X62048Y24937D01*
X62005Y24843D01*
X62003Y24823D01*
X61995Y24805D01*
X61977Y24638D01*
X61977Y15239D01*
X59291Y15239D01*
X55148Y19382D01*
X55090Y19424D01*
X55038Y19474D01*
X54991Y19495D01*
X54949Y19526D01*
X54880Y19547D01*
X54815Y19577D01*
X54763Y19583D01*
X54713Y19598D01*
X54642Y19596D01*
X54571Y19604D01*
X54520Y19593D01*
X54468Y19592D01*
X54400Y19567D01*
X54330Y19552D01*
X54285Y19525D01*
X54237Y19507D01*
X54181Y19463D01*
X54119Y19426D01*
X54085Y19386D01*
X54045Y19354D01*
X54006Y19293D01*
X53959Y19239D01*
X53940Y19191D01*
X53912Y19147D01*
X53894Y19077D01*
X53867Y19011D01*
X53859Y18939D01*
X53851Y18908D01*
X53853Y18885D01*
X53853Y18881D01*
X48210Y13238D01*
X48168Y13180D01*
X48119Y13128D01*
X48097Y13081D01*
X48067Y13039D01*
X48046Y12970D01*
X48015Y12905D01*
X48010Y12853D01*
X47994Y12803D01*
X47996Y12732D01*
X47988Y12661D01*
X47999Y12610D01*
X48001Y12558D01*
X48025Y12490D01*
X48041Y12420D01*
X48067Y12376D01*
X48085Y12327D01*
X48130Y12271D01*
X48167Y12209D01*
X48206Y12175D01*
X48239Y12135D01*
X48299Y12096D01*
X48354Y12049D01*
X48402Y12030D01*
X48446Y12002D01*
X48515Y11984D01*
X48582Y11957D01*
X48653Y11949D01*
X48684Y11941D01*
X48708Y11943D01*
X48749Y11939D01*
X129051Y11939D01*
X129122Y11950D01*
X129194Y11952D01*
X129243Y11970D01*
X129294Y11979D01*
X129357Y12012D01*
X129425Y12037D01*
X129465Y12069D01*
X129512Y12094D01*
X129561Y12146D01*
X129617Y12190D01*
X129645Y12234D01*
X129681Y12272D01*
X129711Y12337D01*
X129750Y12397D01*
X129763Y12448D01*
X129785Y12495D01*
X129792Y12566D01*
X129810Y12636D01*
X129806Y12688D01*
X129812Y12739D01*
X129796Y12810D01*
X129791Y12881D01*
X129770Y12929D01*
X129759Y12980D01*
X129723Y13041D01*
X129694Y13107D01*
X129650Y13163D01*
X129633Y13191D01*
X129615Y13206D01*
X129590Y13238D01*
X123945Y18883D01*
X123940Y18915D01*
X123938Y18986D01*
X123920Y19035D01*
X123912Y19087D01*
X123878Y19150D01*
X123853Y19217D01*
X123821Y19258D01*
X123796Y19304D01*
X123744Y19354D01*
X123700Y19410D01*
X123656Y19438D01*
X123618Y19474D01*
X123553Y19504D01*
X123493Y19543D01*
X123442Y19555D01*
X123395Y19577D01*
X123324Y19585D01*
X123254Y19603D01*
X123202Y19599D01*
X123151Y19604D01*
X123080Y19589D01*
X123009Y19583D01*
X122961Y19563D01*
X122910Y19552D01*
X122849Y19515D01*
X122783Y19487D01*
X122727Y19442D01*
X122699Y19426D01*
X122684Y19408D01*
X122652Y19382D01*
X118509Y15239D01*
X115823Y15239D01*
X115823Y24638D01*
X115820Y24658D01*
X115822Y24677D01*
X115800Y24779D01*
X115783Y24881D01*
X115774Y24898D01*
X115770Y24918D01*
X115717Y25007D01*
X115668Y25098D01*
X115654Y25112D01*
X115644Y25129D01*
X115565Y25196D01*
X115490Y25267D01*
X115472Y25276D01*
X115457Y25289D01*
X115361Y25327D01*
X115267Y25371D01*
X115247Y25373D01*
X115229Y25381D01*
X115062Y25399D01*
X114299Y25399D01*
X114299Y25401D01*
X115062Y25401D01*
X115082Y25404D01*
X115101Y25402D01*
X115203Y25424D01*
X115305Y25441D01*
X115322Y25450D01*
X115342Y25454D01*
X115431Y25507D01*
X115522Y25556D01*
X115536Y25570D01*
X115553Y25580D01*
X115620Y25659D01*
X115691Y25734D01*
X115700Y25752D01*
X115713Y25767D01*
X115752Y25863D01*
X115795Y25957D01*
X115797Y25977D01*
X115805Y25995D01*
X115823Y26162D01*
X115823Y35561D01*
X118509Y35561D01*
X122652Y31418D01*
X122710Y31376D01*
X122762Y31326D01*
X122809Y31305D01*
X122851Y31274D01*
X122920Y31253D01*
X122985Y31223D01*
X123037Y31217D01*
X123087Y31202D01*
X123158Y31204D01*
X123229Y31196D01*
X123280Y31207D01*
X123332Y31208D01*
X123400Y31233D01*
X123470Y31248D01*
X123515Y31275D01*
X123563Y31293D01*
X123619Y31337D01*
X123681Y31374D01*
X123715Y31414D01*
X123755Y31446D01*
X123794Y31507D01*
X123841Y31561D01*
X123860Y31609D01*
X123888Y31653D01*
X123906Y31723D01*
X123933Y31789D01*
X123941Y31861D01*
X123949Y31892D01*
X123947Y31915D01*
X123947Y31919D01*
X127284Y35256D01*
X127337Y35330D01*
X127397Y35400D01*
X127409Y35430D01*
X127428Y35456D01*
X127455Y35543D01*
X127489Y35628D01*
X127493Y35669D01*
X127500Y35691D01*
X127499Y35723D01*
X127507Y35795D01*
X127507Y40405D01*
X127493Y40495D01*
X127485Y40586D01*
X127473Y40616D01*
X127468Y40648D01*
X127425Y40729D01*
X127389Y40813D01*
X127363Y40845D01*
X127352Y40866D01*
X127329Y40888D01*
X127284Y40944D01*
X123945Y44283D01*
X123940Y44315D01*
X123938Y44386D01*
X123920Y44435D01*
X123912Y44487D01*
X123878Y44550D01*
X123853Y44617D01*
X123821Y44658D01*
X123796Y44704D01*
X123744Y44754D01*
X123700Y44810D01*
X123656Y44838D01*
X123618Y44874D01*
X123553Y44904D01*
X123493Y44943D01*
X123442Y44955D01*
X123395Y44977D01*
X123324Y44985D01*
X123254Y45003D01*
X123202Y44999D01*
X123151Y45004D01*
X123080Y44989D01*
X123009Y44983D01*
X122961Y44963D01*
X122910Y44952D01*
X122849Y44915D01*
X122783Y44887D01*
X122727Y44842D01*
X122699Y44826D01*
X122684Y44808D01*
X122652Y44782D01*
X118509Y40639D01*
X115823Y40639D01*
X115823Y50038D01*
X115820Y50058D01*
X115822Y50077D01*
X115800Y50179D01*
X115783Y50281D01*
X115774Y50298D01*
X115770Y50318D01*
X115717Y50407D01*
X115668Y50498D01*
X115654Y50512D01*
X115644Y50529D01*
X115565Y50596D01*
X115490Y50667D01*
X115472Y50676D01*
X115457Y50689D01*
X115361Y50727D01*
X115267Y50771D01*
X115247Y50773D01*
X115229Y50781D01*
X115062Y50799D01*
X114299Y50799D01*
X114299Y51562D01*
X114296Y51582D01*
X114298Y51601D01*
X114276Y51703D01*
X114259Y51805D01*
X114250Y51822D01*
X114246Y51842D01*
X114193Y51931D01*
X114144Y52022D01*
X114130Y52036D01*
X114120Y52053D01*
X114041Y52120D01*
X113966Y52191D01*
X113948Y52200D01*
X113933Y52213D01*
X113837Y52252D01*
X113743Y52295D01*
X113723Y52297D01*
X113705Y52305D01*
X113538Y52323D01*
X104139Y52323D01*
X104139Y55009D01*
X106962Y57832D01*
X107004Y57890D01*
X107054Y57942D01*
X107075Y57989D01*
X107106Y58031D01*
X107127Y58100D01*
X107157Y58165D01*
X107163Y58217D01*
X107178Y58267D01*
X107176Y58338D01*
X107184Y58409D01*
X107173Y58460D01*
X107172Y58512D01*
X107147Y58580D01*
X107132Y58650D01*
X107105Y58695D01*
X107087Y58743D01*
X107043Y58799D01*
X107006Y58861D01*
X106966Y58895D01*
X106934Y58935D01*
X106873Y58974D01*
X106819Y59021D01*
X106771Y59040D01*
X106727Y59068D01*
X106657Y59086D01*
X106591Y59113D01*
X106519Y59121D01*
X106488Y59129D01*
X106465Y59127D01*
X106424Y59131D01*
X96776Y59131D01*
X96705Y59120D01*
X96634Y59118D01*
X96585Y59100D01*
X96533Y59092D01*
X96470Y59058D01*
X96403Y59033D01*
X96362Y59001D01*
X96316Y58976D01*
X96266Y58924D01*
X96210Y58880D01*
X96182Y58836D01*
X96146Y58798D01*
X96116Y58733D01*
X96077Y58673D01*
X96065Y58622D01*
X96043Y58575D01*
X96035Y58504D01*
X96017Y58434D01*
X96021Y58382D01*
X96016Y58331D01*
X96031Y58260D01*
X96037Y58189D01*
X96057Y58141D01*
X96068Y58090D01*
X96105Y58029D01*
X96133Y57963D01*
X96178Y57907D01*
X96194Y57879D01*
X96212Y57864D01*
X96238Y57832D01*
X99061Y55009D01*
X99061Y52323D01*
X89662Y52323D01*
X89642Y52320D01*
X89623Y52322D01*
X89521Y52300D01*
X89419Y52283D01*
X89402Y52274D01*
X89382Y52270D01*
X89293Y52217D01*
X89202Y52168D01*
X89188Y52154D01*
X89171Y52144D01*
X89104Y52065D01*
X89033Y51990D01*
X89024Y51972D01*
X89011Y51957D01*
X88973Y51861D01*
X88929Y51767D01*
X88927Y51747D01*
X88919Y51729D01*
X88901Y51562D01*
X88901Y50799D01*
X88899Y50799D01*
X88899Y51562D01*
X88896Y51582D01*
X88898Y51601D01*
X88876Y51703D01*
X88859Y51805D01*
X88850Y51822D01*
X88846Y51842D01*
X88793Y51931D01*
X88744Y52022D01*
X88730Y52036D01*
X88720Y52053D01*
X88641Y52120D01*
X88566Y52191D01*
X88548Y52200D01*
X88533Y52213D01*
X88437Y52252D01*
X88343Y52295D01*
X88323Y52297D01*
X88305Y52305D01*
X88138Y52323D01*
X78739Y52323D01*
X78739Y55009D01*
X84765Y61035D01*
X84830Y61059D01*
X84871Y61091D01*
X84917Y61116D01*
X84966Y61168D01*
X85022Y61212D01*
X85051Y61256D01*
X85086Y61294D01*
X85117Y61359D01*
X85155Y61419D01*
X85168Y61470D01*
X85190Y61517D01*
X85198Y61588D01*
X85215Y61658D01*
X85211Y61710D01*
X85217Y61761D01*
X85202Y61832D01*
X85196Y61903D01*
X85176Y61951D01*
X85165Y62002D01*
X85128Y62063D01*
X85100Y62129D01*
X85055Y62185D01*
X85039Y62213D01*
X85021Y62228D01*
X84995Y62260D01*
X32844Y114412D01*
X30987Y118893D01*
X30987Y135107D01*
X32844Y139588D01*
X41968Y148713D01*
X42036Y148806D01*
X42106Y148902D01*
X42108Y148907D01*
X42112Y148912D01*
X42146Y149023D01*
X42182Y149136D01*
X42182Y149142D01*
X42184Y149147D01*
X42181Y149264D01*
X42180Y149382D01*
X42178Y149389D01*
X42178Y149393D01*
X42171Y149410D01*
X42163Y149439D01*
X42163Y155331D01*
X44406Y160745D01*
X48222Y164562D01*
X48234Y164578D01*
X48250Y164590D01*
X48306Y164678D01*
X48366Y164761D01*
X48372Y164780D01*
X48383Y164797D01*
X48408Y164898D01*
X48438Y164997D01*
X48438Y165016D01*
X48443Y165036D01*
X48435Y165139D01*
X48432Y165242D01*
X48425Y165261D01*
X48424Y165281D01*
X48383Y165376D01*
X48348Y165473D01*
X48335Y165489D01*
X48327Y165507D01*
X48222Y165638D01*
X44406Y169455D01*
X42163Y174869D01*
X42163Y180731D01*
X44406Y186145D01*
X48551Y190290D01*
X53965Y192533D01*
X73035Y192533D01*
X76667Y191028D01*
X76780Y191002D01*
X76894Y190973D01*
X76900Y190974D01*
X76906Y190972D01*
X77023Y190983D01*
X77139Y190992D01*
X77145Y190995D01*
X77151Y190995D01*
X77258Y191043D01*
X77365Y191088D01*
X77371Y191093D01*
X77376Y191095D01*
X77389Y191108D01*
X77496Y191193D01*
X107116Y220813D01*
X107169Y220887D01*
X107229Y220957D01*
X107241Y220987D01*
X107260Y221013D01*
X107287Y221100D01*
X107321Y221185D01*
X107325Y221226D01*
X107332Y221248D01*
X107331Y221280D01*
X107339Y221352D01*
X107339Y225806D01*
X107336Y225826D01*
X107338Y225845D01*
X107316Y225947D01*
X107300Y226049D01*
X107290Y226066D01*
X107286Y226086D01*
X107233Y226175D01*
X107184Y226266D01*
X107170Y226280D01*
X107160Y226297D01*
X107081Y226364D01*
X107006Y226436D01*
X106988Y226444D01*
X106973Y226457D01*
X106877Y226496D01*
X106783Y226539D01*
X106763Y226541D01*
X106745Y226549D01*
X106578Y226567D01*
X95498Y226567D01*
X86867Y235198D01*
X86867Y247402D01*
X95498Y256033D01*
X107702Y256033D01*
X110645Y253091D01*
X110661Y253079D01*
X110673Y253063D01*
X110761Y253007D01*
X110844Y252947D01*
X110863Y252941D01*
X110880Y252930D01*
X110981Y252905D01*
X111079Y252875D01*
X111099Y252875D01*
X111119Y252870D01*
X111222Y252878D01*
X111325Y252881D01*
X111344Y252888D01*
X111364Y252889D01*
X111459Y252930D01*
X111556Y252966D01*
X111572Y252978D01*
X111590Y252986D01*
X111721Y253091D01*
X131886Y273255D01*
X131954Y273350D01*
X132024Y273444D01*
X132026Y273450D01*
X132029Y273455D01*
X132064Y273566D01*
X132100Y273678D01*
X132100Y273684D01*
X132102Y273690D01*
X132099Y273807D01*
X132099Y273822D01*
X132102Y273848D01*
X132098Y273864D01*
X132098Y273924D01*
X132096Y273931D01*
X132095Y273936D01*
X132089Y273954D01*
X132051Y274085D01*
X131063Y276469D01*
X131063Y282331D01*
X133306Y287745D01*
X137122Y291562D01*
X137134Y291578D01*
X137150Y291590D01*
X137180Y291638D01*
X137192Y291651D01*
X137203Y291673D01*
X137206Y291678D01*
X137266Y291761D01*
X137272Y291780D01*
X137283Y291797D01*
X137308Y291898D01*
X137338Y291997D01*
X137338Y292016D01*
X137343Y292036D01*
X137335Y292139D01*
X137332Y292242D01*
X137325Y292261D01*
X137324Y292281D01*
X137283Y292376D01*
X137248Y292473D01*
X137235Y292489D01*
X137227Y292507D01*
X137122Y292638D01*
X133306Y296455D01*
X131063Y301869D01*
X131063Y307731D01*
X133306Y313145D01*
X137122Y316962D01*
X137134Y316978D01*
X137150Y316990D01*
X137206Y317078D01*
X137266Y317161D01*
X137272Y317180D01*
X137283Y317197D01*
X137308Y317298D01*
X137338Y317397D01*
X137338Y317416D01*
X137343Y317436D01*
X137335Y317539D01*
X137332Y317642D01*
X137325Y317661D01*
X137324Y317681D01*
X137283Y317776D01*
X137248Y317873D01*
X137235Y317889D01*
X137227Y317907D01*
X137122Y318038D01*
X133306Y321855D01*
X131063Y327269D01*
X131063Y333131D01*
X133306Y338545D01*
X137122Y342362D01*
X137134Y342378D01*
X137150Y342390D01*
X137206Y342478D01*
X137266Y342561D01*
X137272Y342580D01*
X137283Y342597D01*
X137308Y342698D01*
X137338Y342797D01*
X137338Y342816D01*
X137343Y342836D01*
X137335Y342939D01*
X137332Y343042D01*
X137325Y343061D01*
X137324Y343081D01*
X137283Y343176D01*
X137248Y343273D01*
X137235Y343289D01*
X137227Y343307D01*
X137122Y343438D01*
X133306Y347255D01*
X131063Y352669D01*
X131063Y358531D01*
X133306Y363945D01*
X137122Y367762D01*
X137134Y367778D01*
X137150Y367790D01*
X137206Y367878D01*
X137266Y367961D01*
X137272Y367980D01*
X137283Y367997D01*
X137308Y368098D01*
X137338Y368197D01*
X137338Y368216D01*
X137343Y368236D01*
X137335Y368339D01*
X137332Y368442D01*
X137325Y368461D01*
X137324Y368481D01*
X137283Y368576D01*
X137248Y368673D01*
X137235Y368689D01*
X137227Y368707D01*
X137122Y368838D01*
X133306Y372655D01*
X131063Y378069D01*
X131063Y383931D01*
X133306Y389345D01*
X137451Y393490D01*
X142865Y395733D01*
X161935Y395733D01*
X167349Y393490D01*
X171494Y389345D01*
X173737Y383931D01*
X173737Y378069D01*
X171494Y372655D01*
X167678Y368838D01*
X167666Y368822D01*
X167650Y368810D01*
X167594Y368722D01*
X167534Y368639D01*
X167528Y368620D01*
X167517Y368603D01*
X167492Y368502D01*
X167462Y368403D01*
X167462Y368384D01*
X167457Y368364D01*
X167465Y368261D01*
X167468Y368158D01*
X167475Y368139D01*
X167476Y368119D01*
X167517Y368024D01*
X167552Y367927D01*
X167565Y367911D01*
X167573Y367893D01*
X167678Y367762D01*
X171494Y363945D01*
X173737Y358531D01*
X173737Y352669D01*
X172749Y350285D01*
X172722Y350171D01*
X172694Y350058D01*
X172694Y350052D01*
X172693Y350046D01*
X172704Y349929D01*
X172713Y349813D01*
X172715Y349807D01*
X172716Y349801D01*
X172764Y349693D01*
X172809Y349586D01*
X172814Y349581D01*
X172816Y349576D01*
X172829Y349562D01*
X172914Y349455D01*
X208827Y313543D01*
X208843Y313531D01*
X208855Y313515D01*
X208943Y313459D01*
X209027Y313399D01*
X209046Y313393D01*
X209062Y313382D01*
X209163Y313357D01*
X209262Y313327D01*
X209282Y313327D01*
X209301Y313322D01*
X209404Y313330D01*
X209508Y313333D01*
X209526Y313340D01*
X209546Y313341D01*
X209641Y313382D01*
X209739Y313418D01*
X209754Y313430D01*
X209772Y313438D01*
X209903Y313543D01*
X213651Y317290D01*
X219065Y319533D01*
X238135Y319533D01*
X239700Y318884D01*
X239795Y318862D01*
X239888Y318833D01*
X239914Y318834D01*
X239940Y318828D01*
X240037Y318837D01*
X240134Y318840D01*
X240159Y318849D01*
X240185Y318851D01*
X240274Y318891D01*
X240365Y318924D01*
X240386Y318940D01*
X240409Y318951D01*
X240481Y319017D01*
X240557Y319078D01*
X240571Y319100D01*
X240591Y319117D01*
X240638Y319203D01*
X240690Y319285D01*
X240697Y319310D01*
X240709Y319333D01*
X240726Y319429D01*
X240750Y319523D01*
X240748Y319549D01*
X240753Y319575D01*
X240739Y319672D01*
X240731Y319768D01*
X240721Y319792D01*
X240717Y319818D01*
X240673Y319905D01*
X240635Y319995D01*
X240614Y320020D01*
X240606Y320038D01*
X240582Y320061D01*
X240530Y320126D01*
X239903Y320753D01*
X239665Y321326D01*
X239655Y321343D01*
X239649Y321362D01*
X239590Y321447D01*
X239536Y321535D01*
X239520Y321548D01*
X239509Y321564D01*
X239426Y321625D01*
X239346Y321692D01*
X239328Y321699D01*
X239312Y321711D01*
X239213Y321743D01*
X239117Y321780D01*
X239097Y321781D01*
X239078Y321787D01*
X238974Y321786D01*
X238871Y321790D01*
X238852Y321785D01*
X238832Y321785D01*
X238671Y321738D01*
X237871Y321407D01*
X236105Y321055D01*
X230123Y321055D01*
X230123Y329438D01*
X230120Y329458D01*
X230122Y329477D01*
X230100Y329579D01*
X230083Y329681D01*
X230074Y329698D01*
X230070Y329718D01*
X230017Y329807D01*
X229968Y329898D01*
X229954Y329912D01*
X229944Y329929D01*
X229865Y329996D01*
X229790Y330067D01*
X229772Y330076D01*
X229757Y330089D01*
X229661Y330127D01*
X229567Y330171D01*
X229547Y330173D01*
X229529Y330181D01*
X229362Y330199D01*
X228599Y330199D01*
X228599Y330201D01*
X229362Y330201D01*
X229382Y330204D01*
X229401Y330202D01*
X229503Y330224D01*
X229605Y330241D01*
X229622Y330250D01*
X229642Y330254D01*
X229731Y330307D01*
X229822Y330356D01*
X229836Y330370D01*
X229853Y330380D01*
X229920Y330459D01*
X229991Y330534D01*
X230000Y330552D01*
X230013Y330567D01*
X230052Y330663D01*
X230095Y330757D01*
X230097Y330777D01*
X230105Y330795D01*
X230123Y330962D01*
X230123Y339345D01*
X236105Y339345D01*
X237871Y338993D01*
X238787Y338614D01*
X238831Y338604D01*
X238873Y338584D01*
X238950Y338576D01*
X239026Y338558D01*
X239072Y338562D01*
X239117Y338557D01*
X239194Y338574D01*
X239271Y338581D01*
X239313Y338600D01*
X239358Y338610D01*
X239425Y338649D01*
X239496Y338681D01*
X239530Y338712D01*
X239569Y338736D01*
X239620Y338795D01*
X239677Y338848D01*
X239699Y338888D01*
X239729Y338923D01*
X239758Y338995D01*
X239795Y339063D01*
X239804Y339108D01*
X239821Y339151D01*
X239836Y339287D01*
X239839Y339305D01*
X239838Y339310D01*
X239839Y339317D01*
X239839Y339521D01*
X240162Y340301D01*
X240179Y340370D01*
X240204Y340437D01*
X240206Y340489D01*
X240218Y340540D01*
X240212Y340611D01*
X240215Y340683D01*
X240200Y340733D01*
X240195Y340785D01*
X240166Y340850D01*
X240146Y340919D01*
X240116Y340962D01*
X240095Y341010D01*
X240047Y341062D01*
X240006Y341121D01*
X239964Y341152D01*
X239929Y341191D01*
X239866Y341225D01*
X239808Y341268D01*
X239759Y341284D01*
X239713Y341309D01*
X239643Y341322D01*
X239575Y341344D01*
X239523Y341344D01*
X239471Y341353D01*
X239400Y341343D01*
X239329Y341342D01*
X239260Y341322D01*
X239228Y341317D01*
X239207Y341307D01*
X239167Y341295D01*
X238134Y340867D01*
X219065Y340867D01*
X213651Y343110D01*
X209506Y347255D01*
X207263Y352669D01*
X207263Y358531D01*
X209506Y363945D01*
X213322Y367762D01*
X213334Y367778D01*
X213350Y367790D01*
X213406Y367878D01*
X213466Y367961D01*
X213472Y367980D01*
X213483Y367997D01*
X213508Y368098D01*
X213538Y368197D01*
X213538Y368216D01*
X213543Y368236D01*
X213535Y368339D01*
X213532Y368442D01*
X213525Y368461D01*
X213524Y368481D01*
X213483Y368576D01*
X213448Y368673D01*
X213435Y368689D01*
X213427Y368707D01*
X213322Y368838D01*
X209506Y372655D01*
X207263Y378069D01*
X207263Y383931D01*
X209506Y389345D01*
X213651Y393490D01*
X219065Y395733D01*
X238135Y395733D01*
X243549Y393490D01*
X247694Y389345D01*
X249937Y383931D01*
X249937Y378069D01*
X247694Y372655D01*
X243878Y368838D01*
X243866Y368822D01*
X243850Y368810D01*
X243794Y368722D01*
X243734Y368639D01*
X243728Y368620D01*
X243717Y368603D01*
X243692Y368502D01*
X243662Y368403D01*
X243662Y368384D01*
X243657Y368364D01*
X243665Y368261D01*
X243668Y368158D01*
X243675Y368139D01*
X243676Y368119D01*
X243717Y368024D01*
X243752Y367927D01*
X243765Y367911D01*
X243773Y367893D01*
X243878Y367762D01*
X247694Y363945D01*
X249937Y358531D01*
X249937Y353644D01*
X249948Y353573D01*
X249950Y353502D01*
X249968Y353453D01*
X249976Y353401D01*
X250010Y353338D01*
X250035Y353271D01*
X250067Y353230D01*
X250092Y353184D01*
X250144Y353135D01*
X250188Y353079D01*
X250232Y353050D01*
X250270Y353014D01*
X250335Y352984D01*
X250395Y352946D01*
X250446Y352933D01*
X250493Y352911D01*
X250564Y352903D01*
X250634Y352885D01*
X250686Y352890D01*
X250737Y352884D01*
X250808Y352899D01*
X250879Y352905D01*
X250927Y352925D01*
X250978Y352936D01*
X251039Y352973D01*
X251105Y353001D01*
X251161Y353046D01*
X251189Y353062D01*
X251204Y353080D01*
X251236Y353106D01*
X252116Y353986D01*
X252162Y354049D01*
X252185Y354073D01*
X252189Y354083D01*
X252229Y354129D01*
X252241Y354159D01*
X252260Y354186D01*
X252287Y354273D01*
X252321Y354357D01*
X252325Y354398D01*
X252332Y354421D01*
X252331Y354453D01*
X252339Y354524D01*
X252339Y440754D01*
X252329Y440819D01*
X252328Y440885D01*
X252305Y440965D01*
X252300Y440997D01*
X252290Y441014D01*
X252281Y441046D01*
X250589Y445131D01*
X250589Y446578D01*
X250586Y446598D01*
X250588Y446617D01*
X250566Y446719D01*
X250550Y446821D01*
X250540Y446838D01*
X250536Y446858D01*
X250483Y446947D01*
X250434Y447038D01*
X250420Y447052D01*
X250410Y447069D01*
X250331Y447136D01*
X250256Y447208D01*
X250238Y447216D01*
X250223Y447229D01*
X250127Y447268D01*
X250033Y447311D01*
X250013Y447313D01*
X249995Y447321D01*
X249828Y447339D01*
X200979Y447339D01*
X197244Y448886D01*
X180782Y465348D01*
X180708Y465401D01*
X180639Y465461D01*
X180609Y465473D01*
X180582Y465492D01*
X180496Y465519D01*
X180411Y465553D01*
X180370Y465557D01*
X180347Y465564D01*
X180315Y465563D01*
X180244Y465571D01*
X167183Y465571D01*
X164195Y466809D01*
X161909Y469095D01*
X160671Y472083D01*
X160671Y493317D01*
X161909Y496305D01*
X164195Y498591D01*
X167183Y499829D01*
X188417Y499829D01*
X191405Y498591D01*
X193691Y496305D01*
X194929Y493317D01*
X194929Y480256D01*
X194943Y480166D01*
X194951Y480075D01*
X194963Y480045D01*
X194968Y480013D01*
X195011Y479933D01*
X195047Y479849D01*
X195073Y479817D01*
X195084Y479796D01*
X195107Y479774D01*
X195152Y479718D01*
X206986Y467884D01*
X207060Y467831D01*
X207129Y467771D01*
X207159Y467759D01*
X207186Y467740D01*
X207272Y467713D01*
X207357Y467679D01*
X207398Y467675D01*
X207421Y467668D01*
X207453Y467669D01*
X207524Y467661D01*
X293821Y467661D01*
X297556Y466114D01*
X315333Y448337D01*
X315349Y448325D01*
X315361Y448310D01*
X315436Y448261D01*
X315455Y448245D01*
X315466Y448241D01*
X315533Y448193D01*
X315551Y448187D01*
X315568Y448177D01*
X315669Y448151D01*
X315768Y448121D01*
X315788Y448121D01*
X315807Y448116D01*
X315910Y448124D01*
X316013Y448127D01*
X316032Y448134D01*
X316052Y448136D01*
X316147Y448176D01*
X316244Y448212D01*
X316260Y448224D01*
X316278Y448232D01*
X316347Y448287D01*
X316352Y448290D01*
X316358Y448295D01*
X316409Y448337D01*
X347583Y479511D01*
X350548Y482476D01*
X354283Y484023D01*
X444396Y484023D01*
X444467Y484034D01*
X444539Y484036D01*
X444588Y484054D01*
X444639Y484062D01*
X444702Y484096D01*
X444770Y484121D01*
X444811Y484153D01*
X444856Y484178D01*
X444906Y484229D01*
X444962Y484274D01*
X444990Y484318D01*
X445026Y484356D01*
X445056Y484421D01*
X445095Y484481D01*
X445108Y484532D01*
X445129Y484579D01*
X445137Y484650D01*
X445155Y484720D01*
X445151Y484772D01*
X445157Y484823D01*
X445141Y484894D01*
X445136Y484965D01*
X445115Y485013D01*
X445104Y485064D01*
X445067Y485125D01*
X445039Y485191D01*
X444995Y485247D01*
X444978Y485275D01*
X444960Y485290D01*
X444935Y485322D01*
X439758Y490499D01*
X439664Y490566D01*
X439569Y490637D01*
X439563Y490639D01*
X439558Y490642D01*
X439448Y490676D01*
X439336Y490713D01*
X439329Y490713D01*
X439323Y490715D01*
X439207Y490712D01*
X439090Y490710D01*
X439082Y490708D01*
X439077Y490708D01*
X439060Y490702D01*
X438929Y490664D01*
X434789Y488949D01*
X427211Y488949D01*
X420209Y491850D01*
X414850Y497209D01*
X411949Y504211D01*
X411949Y511789D01*
X414850Y518791D01*
X420209Y524150D01*
X427211Y527051D01*
X434789Y527051D01*
X441791Y524150D01*
X447150Y518791D01*
X447940Y516885D01*
X447975Y516829D01*
X448000Y516769D01*
X448052Y516704D01*
X448070Y516676D01*
X448085Y516664D01*
X448105Y516638D01*
X449944Y514800D01*
X460650Y504093D01*
X460708Y504052D01*
X460760Y504002D01*
X460807Y503980D01*
X460849Y503950D01*
X460918Y503929D01*
X460983Y503899D01*
X461035Y503893D01*
X461085Y503877D01*
X461156Y503879D01*
X461227Y503871D01*
X461278Y503883D01*
X461330Y503884D01*
X461398Y503908D01*
X461468Y503924D01*
X461513Y503950D01*
X461561Y503968D01*
X461617Y504013D01*
X461679Y504050D01*
X461713Y504089D01*
X461753Y504122D01*
X461792Y504182D01*
X461839Y504237D01*
X461858Y504285D01*
X461886Y504329D01*
X461904Y504398D01*
X461931Y504465D01*
X461939Y504536D01*
X461947Y504567D01*
X461945Y504591D01*
X461949Y504632D01*
X461949Y511789D01*
X464850Y518791D01*
X470209Y524150D01*
X477211Y527051D01*
X484789Y527051D01*
X491791Y524150D01*
X497150Y518791D01*
X500051Y511789D01*
X500051Y504211D01*
X497150Y497209D01*
X491791Y491850D01*
X484789Y488949D01*
X477632Y488949D01*
X477561Y488938D01*
X477489Y488936D01*
X477440Y488918D01*
X477389Y488910D01*
X477326Y488876D01*
X477258Y488851D01*
X477218Y488819D01*
X477172Y488794D01*
X477122Y488742D01*
X477066Y488698D01*
X477038Y488654D01*
X477002Y488616D01*
X476972Y488551D01*
X476933Y488491D01*
X476920Y488440D01*
X476899Y488393D01*
X476891Y488322D01*
X476873Y488252D01*
X476877Y488200D01*
X476871Y488149D01*
X476887Y488078D01*
X476892Y488007D01*
X476913Y487959D01*
X476924Y487908D01*
X476961Y487847D01*
X476989Y487781D01*
X477033Y487725D01*
X477050Y487697D01*
X477068Y487682D01*
X477093Y487650D01*
X484827Y479916D01*
X484901Y479863D01*
X484971Y479803D01*
X485001Y479791D01*
X485027Y479772D01*
X485114Y479745D01*
X485199Y479711D01*
X485240Y479707D01*
X485262Y479700D01*
X485294Y479701D01*
X485366Y479693D01*
X577425Y479693D01*
X581907Y477836D01*
X585336Y474407D01*
X587193Y469925D01*
X587193Y469278D01*
X587196Y469258D01*
X587194Y469239D01*
X587216Y469137D01*
X587232Y469035D01*
X587242Y469018D01*
X587246Y468998D01*
X587299Y468909D01*
X587348Y468818D01*
X587362Y468804D01*
X587372Y468787D01*
X587451Y468720D01*
X587526Y468648D01*
X587544Y468640D01*
X587559Y468627D01*
X587655Y468588D01*
X587749Y468545D01*
X587769Y468543D01*
X587787Y468535D01*
X587954Y468517D01*
X603832Y468517D01*
X603922Y468531D01*
X604013Y468539D01*
X604043Y468551D01*
X604075Y468556D01*
X604155Y468599D01*
X604239Y468635D01*
X604271Y468661D01*
X604292Y468672D01*
X604314Y468695D01*
X604370Y468740D01*
X640326Y504696D01*
X640369Y504755D01*
X640412Y504801D01*
X640420Y504817D01*
X640439Y504839D01*
X640451Y504869D01*
X640470Y504895D01*
X640496Y504982D01*
X640516Y505024D01*
X640517Y505033D01*
X640531Y505067D01*
X640535Y505108D01*
X640542Y505131D01*
X640541Y505163D01*
X640549Y505234D01*
X640549Y511789D01*
X643450Y518791D01*
X648809Y524150D01*
X655811Y527051D01*
X663389Y527051D01*
X670391Y524150D01*
X675750Y518791D01*
X678651Y511789D01*
X678651Y504211D01*
X675750Y497209D01*
X670391Y491850D01*
X663389Y488949D01*
X655811Y488949D01*
X654518Y489484D01*
X654405Y489511D01*
X654291Y489540D01*
X654285Y489539D01*
X654279Y489541D01*
X654162Y489530D01*
X654046Y489521D01*
X654040Y489518D01*
X654034Y489518D01*
X653927Y489470D01*
X653820Y489424D01*
X653814Y489420D01*
X653809Y489418D01*
X653796Y489405D01*
X653689Y489319D01*
X614112Y449742D01*
X610377Y448195D01*
X472123Y448195D01*
X468388Y449742D01*
X454652Y463478D01*
X454578Y463531D01*
X454509Y463591D01*
X454479Y463603D01*
X454452Y463622D01*
X454366Y463649D01*
X454281Y463683D01*
X454240Y463687D01*
X454217Y463694D01*
X454185Y463693D01*
X454114Y463701D01*
X372672Y463701D01*
X372652Y463698D01*
X372633Y463700D01*
X372531Y463678D01*
X372429Y463662D01*
X372412Y463652D01*
X372392Y463648D01*
X372303Y463595D01*
X372212Y463546D01*
X372198Y463532D01*
X372181Y463522D01*
X372114Y463443D01*
X372042Y463368D01*
X372034Y463350D01*
X372021Y463335D01*
X371982Y463239D01*
X371939Y463145D01*
X371937Y463125D01*
X371929Y463107D01*
X371911Y462940D01*
X371911Y462631D01*
X370097Y458253D01*
X367884Y456039D01*
X367831Y455965D01*
X367771Y455896D01*
X367759Y455866D01*
X367740Y455840D01*
X367713Y455753D01*
X367679Y455668D01*
X367675Y455627D01*
X367668Y455605D01*
X367669Y455572D01*
X367661Y455501D01*
X367661Y441134D01*
X367672Y441063D01*
X367674Y440991D01*
X367692Y440942D01*
X367700Y440891D01*
X367734Y440828D01*
X367759Y440760D01*
X367791Y440720D01*
X367816Y440674D01*
X367868Y440624D01*
X367912Y440568D01*
X367956Y440540D01*
X367994Y440504D01*
X368059Y440474D01*
X368119Y440435D01*
X368170Y440423D01*
X368217Y440401D01*
X368288Y440393D01*
X368358Y440375D01*
X368410Y440379D01*
X368461Y440374D01*
X368532Y440389D01*
X368603Y440394D01*
X368651Y440415D01*
X368702Y440426D01*
X368763Y440463D01*
X368829Y440491D01*
X368885Y440535D01*
X368913Y440552D01*
X368928Y440570D01*
X368960Y440595D01*
X374898Y446533D01*
X387102Y446533D01*
X393162Y440473D01*
X393178Y440462D01*
X393190Y440446D01*
X393278Y440390D01*
X393361Y440330D01*
X393380Y440324D01*
X393397Y440313D01*
X393498Y440288D01*
X393597Y440258D01*
X393616Y440258D01*
X393636Y440253D01*
X393739Y440261D01*
X393842Y440264D01*
X393861Y440271D01*
X393881Y440272D01*
X393976Y440313D01*
X394073Y440348D01*
X394089Y440361D01*
X394107Y440369D01*
X394238Y440473D01*
X400298Y446533D01*
X412502Y446533D01*
X421133Y437902D01*
X421133Y425698D01*
X412502Y417067D01*
X400298Y417067D01*
X394238Y423127D01*
X394222Y423138D01*
X394210Y423154D01*
X394122Y423210D01*
X394039Y423270D01*
X394020Y423276D01*
X394003Y423287D01*
X393902Y423312D01*
X393803Y423342D01*
X393784Y423342D01*
X393764Y423347D01*
X393661Y423339D01*
X393558Y423336D01*
X393539Y423329D01*
X393519Y423328D01*
X393424Y423287D01*
X393327Y423252D01*
X393311Y423239D01*
X393293Y423231D01*
X393162Y423127D01*
X387102Y417067D01*
X381752Y417067D01*
X381662Y417053D01*
X381571Y417045D01*
X381541Y417033D01*
X381509Y417028D01*
X381429Y416985D01*
X381345Y416949D01*
X381313Y416923D01*
X381292Y416912D01*
X381270Y416889D01*
X381214Y416844D01*
X362884Y398514D01*
X362831Y398440D01*
X362771Y398371D01*
X362759Y398341D01*
X362740Y398314D01*
X362713Y398228D01*
X362679Y398143D01*
X362675Y398102D01*
X362668Y398079D01*
X362669Y398047D01*
X362661Y397976D01*
X362661Y369690D01*
X362675Y369600D01*
X362683Y369509D01*
X362695Y369479D01*
X362700Y369447D01*
X362743Y369366D01*
X362779Y369282D01*
X362805Y369250D01*
X362816Y369230D01*
X362839Y369207D01*
X362884Y369151D01*
X367762Y364273D01*
X367778Y364262D01*
X367790Y364246D01*
X367878Y364190D01*
X367961Y364130D01*
X367980Y364124D01*
X367997Y364113D01*
X368098Y364088D01*
X368197Y364058D01*
X368216Y364058D01*
X368236Y364053D01*
X368339Y364061D01*
X368442Y364064D01*
X368461Y364071D01*
X368481Y364072D01*
X368576Y364113D01*
X368673Y364148D01*
X368689Y364161D01*
X368707Y364169D01*
X368838Y364273D01*
X374898Y370333D01*
X387102Y370333D01*
X389552Y367884D01*
X389625Y367831D01*
X389695Y367771D01*
X389725Y367759D01*
X389751Y367740D01*
X389838Y367713D01*
X389923Y367679D01*
X389964Y367675D01*
X389986Y367668D01*
X390019Y367669D01*
X390090Y367661D01*
X397310Y367661D01*
X397400Y367675D01*
X397491Y367683D01*
X397521Y367695D01*
X397553Y367700D01*
X397634Y367743D01*
X397718Y367779D01*
X397750Y367805D01*
X397770Y367816D01*
X397793Y367839D01*
X397848Y367884D01*
X400298Y370333D01*
X412502Y370333D01*
X421133Y361702D01*
X421133Y349498D01*
X412502Y340867D01*
X400298Y340867D01*
X394238Y346927D01*
X394222Y346938D01*
X394210Y346954D01*
X394122Y347010D01*
X394039Y347070D01*
X394020Y347076D01*
X394003Y347087D01*
X393902Y347112D01*
X393803Y347142D01*
X393784Y347142D01*
X393764Y347147D01*
X393661Y347139D01*
X393558Y347136D01*
X393539Y347129D01*
X393519Y347128D01*
X393424Y347087D01*
X393327Y347052D01*
X393311Y347039D01*
X393293Y347031D01*
X393162Y346927D01*
X387102Y340867D01*
X374898Y340867D01*
X368838Y346927D01*
X368822Y346938D01*
X368810Y346954D01*
X368722Y347010D01*
X368639Y347070D01*
X368620Y347076D01*
X368603Y347087D01*
X368502Y347112D01*
X368403Y347142D01*
X368384Y347142D01*
X368364Y347147D01*
X368261Y347139D01*
X368158Y347136D01*
X368139Y347129D01*
X368119Y347128D01*
X368024Y347087D01*
X367927Y347052D01*
X367911Y347039D01*
X367893Y347031D01*
X367762Y346927D01*
X361702Y340867D01*
X355552Y340867D01*
X355462Y340853D01*
X355371Y340845D01*
X355341Y340833D01*
X355309Y340828D01*
X355229Y340785D01*
X355145Y340749D01*
X355113Y340723D01*
X355092Y340712D01*
X355070Y340689D01*
X355014Y340644D01*
X330630Y316260D01*
X330588Y316202D01*
X330538Y316150D01*
X330516Y316103D01*
X330486Y316061D01*
X330465Y315992D01*
X330435Y315927D01*
X330429Y315875D01*
X330414Y315825D01*
X330416Y315754D01*
X330408Y315683D01*
X330419Y315632D01*
X330420Y315580D01*
X330445Y315512D01*
X330460Y315442D01*
X330487Y315397D01*
X330505Y315349D01*
X330549Y315293D01*
X330586Y315231D01*
X330626Y315197D01*
X330658Y315157D01*
X330719Y315118D01*
X330773Y315071D01*
X330821Y315052D01*
X330865Y315024D01*
X330935Y315006D01*
X331001Y314979D01*
X331073Y314971D01*
X331104Y314963D01*
X331127Y314965D01*
X331168Y314961D01*
X344610Y314961D01*
X344700Y314975D01*
X344791Y314983D01*
X344821Y314995D01*
X344853Y315000D01*
X344934Y315043D01*
X345018Y315079D01*
X345050Y315105D01*
X345070Y315116D01*
X345093Y315139D01*
X345149Y315184D01*
X349498Y319533D01*
X361702Y319533D01*
X367762Y313473D01*
X367778Y313462D01*
X367790Y313446D01*
X367878Y313390D01*
X367961Y313330D01*
X367980Y313324D01*
X367997Y313313D01*
X368098Y313288D01*
X368197Y313258D01*
X368216Y313258D01*
X368236Y313253D01*
X368339Y313261D01*
X368442Y313264D01*
X368461Y313271D01*
X368481Y313272D01*
X368576Y313313D01*
X368673Y313348D01*
X368689Y313361D01*
X368707Y313369D01*
X368838Y313473D01*
X374898Y319533D01*
X387102Y319533D01*
X395733Y310902D01*
X395733Y298698D01*
X387102Y290067D01*
X380952Y290067D01*
X380862Y290053D01*
X380771Y290045D01*
X380741Y290033D01*
X380709Y290028D01*
X380629Y289985D01*
X380545Y289949D01*
X380513Y289923D01*
X380492Y289912D01*
X380470Y289889D01*
X380414Y289844D01*
X374456Y283886D01*
X370721Y282339D01*
X362634Y282339D01*
X362563Y282328D01*
X362491Y282326D01*
X362442Y282308D01*
X362391Y282300D01*
X362328Y282266D01*
X362260Y282241D01*
X362220Y282209D01*
X362174Y282184D01*
X362124Y282132D01*
X362068Y282088D01*
X362040Y282044D01*
X362004Y282006D01*
X361974Y281941D01*
X361935Y281881D01*
X361923Y281830D01*
X361901Y281783D01*
X361893Y281712D01*
X361875Y281642D01*
X361879Y281590D01*
X361874Y281539D01*
X361889Y281468D01*
X361894Y281397D01*
X361915Y281349D01*
X361926Y281298D01*
X361963Y281237D01*
X361991Y281171D01*
X362035Y281115D01*
X362052Y281087D01*
X362070Y281072D01*
X362095Y281040D01*
X367762Y275373D01*
X367778Y275362D01*
X367790Y275346D01*
X367878Y275290D01*
X367961Y275230D01*
X367980Y275224D01*
X367997Y275213D01*
X368098Y275188D01*
X368197Y275158D01*
X368216Y275158D01*
X368236Y275153D01*
X368339Y275161D01*
X368442Y275164D01*
X368461Y275171D01*
X368481Y275172D01*
X368576Y275213D01*
X368673Y275248D01*
X368689Y275261D01*
X368707Y275269D01*
X368838Y275373D01*
X374898Y281433D01*
X387102Y281433D01*
X395733Y272802D01*
X395733Y260598D01*
X387102Y251967D01*
X380952Y251967D01*
X380862Y251953D01*
X380771Y251945D01*
X380741Y251933D01*
X380709Y251928D01*
X380629Y251885D01*
X380545Y251849D01*
X380513Y251823D01*
X380492Y251812D01*
X380470Y251789D01*
X380414Y251744D01*
X375056Y246386D01*
X371321Y244839D01*
X362034Y244839D01*
X361963Y244828D01*
X361891Y244826D01*
X361842Y244808D01*
X361791Y244800D01*
X361728Y244766D01*
X361660Y244741D01*
X361620Y244709D01*
X361574Y244684D01*
X361524Y244632D01*
X361468Y244588D01*
X361440Y244544D01*
X361404Y244506D01*
X361374Y244441D01*
X361335Y244381D01*
X361323Y244330D01*
X361301Y244283D01*
X361293Y244212D01*
X361275Y244142D01*
X361279Y244090D01*
X361274Y244039D01*
X361289Y243968D01*
X361294Y243897D01*
X361315Y243849D01*
X361326Y243798D01*
X361363Y243737D01*
X361391Y243671D01*
X361435Y243615D01*
X361452Y243587D01*
X361470Y243572D01*
X361495Y243540D01*
X370333Y234702D01*
X370333Y222498D01*
X361702Y213867D01*
X349498Y213867D01*
X340867Y222498D01*
X340867Y234702D01*
X349705Y243540D01*
X349746Y243598D01*
X349796Y243650D01*
X349818Y243697D01*
X349848Y243739D01*
X349869Y243808D01*
X349899Y243873D01*
X349905Y243925D01*
X349920Y243975D01*
X349919Y244046D01*
X349926Y244117D01*
X349915Y244168D01*
X349914Y244220D01*
X349889Y244288D01*
X349874Y244358D01*
X349848Y244403D01*
X349830Y244451D01*
X349785Y244507D01*
X349748Y244569D01*
X349708Y244603D01*
X349676Y244643D01*
X349616Y244682D01*
X349561Y244729D01*
X349513Y244748D01*
X349469Y244776D01*
X349400Y244794D01*
X349333Y244821D01*
X349262Y244829D01*
X349230Y244837D01*
X349207Y244835D01*
X349166Y244839D01*
X347024Y244839D01*
X346934Y244825D01*
X346843Y244817D01*
X346813Y244805D01*
X346781Y244800D01*
X346701Y244757D01*
X346617Y244721D01*
X346585Y244695D01*
X346564Y244684D01*
X346542Y244661D01*
X346486Y244616D01*
X310172Y208302D01*
X306437Y206755D01*
X282226Y206755D01*
X282155Y206744D01*
X282083Y206742D01*
X282034Y206724D01*
X281983Y206716D01*
X281920Y206682D01*
X281852Y206657D01*
X281811Y206625D01*
X281766Y206600D01*
X281716Y206549D01*
X281660Y206504D01*
X281632Y206460D01*
X281596Y206422D01*
X281566Y206357D01*
X281527Y206297D01*
X281514Y206246D01*
X281493Y206199D01*
X281485Y206128D01*
X281467Y206058D01*
X281471Y206006D01*
X281465Y205955D01*
X281481Y205884D01*
X281486Y205813D01*
X281507Y205765D01*
X281518Y205714D01*
X281555Y205653D01*
X281583Y205587D01*
X281627Y205531D01*
X281644Y205503D01*
X281662Y205488D01*
X281687Y205456D01*
X281761Y205403D01*
X281831Y205343D01*
X281861Y205331D01*
X281887Y205312D01*
X281974Y205285D01*
X282059Y205251D01*
X282100Y205247D01*
X282122Y205240D01*
X282154Y205241D01*
X282226Y205233D01*
X285502Y205233D01*
X288319Y202416D01*
X288393Y202363D01*
X288463Y202303D01*
X288493Y202291D01*
X288519Y202272D01*
X288606Y202245D01*
X288691Y202211D01*
X288732Y202207D01*
X288754Y202200D01*
X288786Y202201D01*
X288858Y202193D01*
X299925Y202193D01*
X304407Y200336D01*
X343016Y161727D01*
X343032Y161716D01*
X343044Y161700D01*
X343132Y161644D01*
X343215Y161584D01*
X343234Y161578D01*
X343251Y161567D01*
X343352Y161542D01*
X343451Y161512D01*
X343470Y161512D01*
X343490Y161507D01*
X343593Y161515D01*
X343696Y161518D01*
X343715Y161525D01*
X343735Y161526D01*
X343830Y161567D01*
X343927Y161602D01*
X343943Y161615D01*
X343961Y161623D01*
X344092Y161727D01*
X349498Y167133D01*
X361702Y167133D01*
X370333Y158502D01*
X370333Y150454D01*
X370334Y150447D01*
X370334Y150444D01*
X370336Y150434D01*
X370334Y150415D01*
X370356Y150313D01*
X370372Y150211D01*
X370382Y150194D01*
X370386Y150174D01*
X370439Y150085D01*
X370488Y149994D01*
X370502Y149980D01*
X370512Y149963D01*
X370591Y149896D01*
X370666Y149824D01*
X370684Y149816D01*
X370699Y149803D01*
X370795Y149764D01*
X370889Y149721D01*
X370909Y149719D01*
X370927Y149711D01*
X371094Y149693D01*
X384925Y149693D01*
X389407Y147836D01*
X392944Y144300D01*
X412996Y124247D01*
X413091Y124179D01*
X413185Y124109D01*
X413191Y124107D01*
X413196Y124103D01*
X413308Y124069D01*
X413419Y124033D01*
X413425Y124033D01*
X413431Y124031D01*
X413548Y124034D01*
X413665Y124035D01*
X413672Y124037D01*
X413677Y124037D01*
X413695Y124044D01*
X413826Y124082D01*
X415967Y124969D01*
X422233Y124969D01*
X428021Y122571D01*
X432451Y118141D01*
X434849Y112353D01*
X434849Y92202D01*
X434852Y92182D01*
X434850Y92163D01*
X434872Y92061D01*
X434888Y91959D01*
X434898Y91942D01*
X434902Y91922D01*
X434955Y91833D01*
X435004Y91742D01*
X435018Y91728D01*
X435028Y91711D01*
X435107Y91644D01*
X435182Y91572D01*
X435200Y91564D01*
X435215Y91551D01*
X435311Y91512D01*
X435405Y91469D01*
X435425Y91467D01*
X435443Y91459D01*
X435610Y91441D01*
X453390Y91441D01*
X453410Y91444D01*
X453429Y91442D01*
X453531Y91464D01*
X453633Y91480D01*
X453650Y91490D01*
X453670Y91494D01*
X453759Y91547D01*
X453850Y91596D01*
X453864Y91610D01*
X453881Y91620D01*
X453948Y91699D01*
X454020Y91774D01*
X454028Y91792D01*
X454041Y91807D01*
X454080Y91903D01*
X454123Y91997D01*
X454125Y92017D01*
X454133Y92035D01*
X454151Y92202D01*
X454151Y112353D01*
X456549Y118141D01*
X460979Y122571D01*
X466767Y124969D01*
X473033Y124969D01*
X478821Y122571D01*
X483251Y118141D01*
X485649Y112353D01*
X485649Y92202D01*
X485652Y92182D01*
X485650Y92163D01*
X485672Y92061D01*
X485688Y91959D01*
X485698Y91942D01*
X485702Y91922D01*
X485755Y91833D01*
X485804Y91742D01*
X485818Y91728D01*
X485828Y91711D01*
X485907Y91644D01*
X485982Y91572D01*
X486000Y91564D01*
X486015Y91551D01*
X486111Y91512D01*
X486205Y91469D01*
X486225Y91467D01*
X486243Y91459D01*
X486410Y91441D01*
X504190Y91441D01*
X504210Y91444D01*
X504229Y91442D01*
X504331Y91464D01*
X504433Y91480D01*
X504450Y91490D01*
X504470Y91494D01*
X504559Y91547D01*
X504650Y91596D01*
X504664Y91610D01*
X504681Y91620D01*
X504748Y91699D01*
X504820Y91774D01*
X504828Y91792D01*
X504841Y91807D01*
X504880Y91903D01*
X504923Y91997D01*
X504925Y92017D01*
X504933Y92035D01*
X504951Y92202D01*
X504951Y112353D01*
X507349Y118141D01*
X511779Y122571D01*
X517567Y124969D01*
X523833Y124969D01*
X529621Y122571D01*
X534051Y118141D01*
X536449Y112353D01*
X536449Y92202D01*
X536452Y92182D01*
X536450Y92163D01*
X536472Y92061D01*
X536488Y91959D01*
X536498Y91942D01*
X536502Y91922D01*
X536555Y91833D01*
X536604Y91742D01*
X536618Y91728D01*
X536628Y91711D01*
X536707Y91644D01*
X536782Y91572D01*
X536800Y91564D01*
X536815Y91551D01*
X536911Y91512D01*
X537005Y91469D01*
X537025Y91467D01*
X537043Y91459D01*
X537210Y91441D01*
X546656Y91441D01*
X546746Y91455D01*
X546837Y91463D01*
X546867Y91475D01*
X546899Y91480D01*
X546979Y91523D01*
X547063Y91559D01*
X547095Y91585D01*
X547116Y91596D01*
X547138Y91619D01*
X547194Y91664D01*
X555528Y99998D01*
X555581Y100072D01*
X555641Y100141D01*
X555653Y100171D01*
X555672Y100198D01*
X555699Y100284D01*
X555733Y100369D01*
X555737Y100410D01*
X555744Y100433D01*
X555743Y100465D01*
X555751Y100536D01*
X555751Y112353D01*
X558149Y118141D01*
X562579Y122571D01*
X568367Y124969D01*
X574633Y124969D01*
X580421Y122571D01*
X584851Y118141D01*
X587249Y112353D01*
X587249Y90847D01*
X584851Y85059D01*
X584608Y84816D01*
X584566Y84758D01*
X584517Y84706D01*
X584495Y84659D01*
X584465Y84617D01*
X584444Y84548D01*
X584413Y84483D01*
X584408Y84431D01*
X584392Y84381D01*
X584394Y84310D01*
X584386Y84239D01*
X584397Y84188D01*
X584399Y84136D01*
X584423Y84068D01*
X584439Y83998D01*
X584465Y83953D01*
X584483Y83905D01*
X584528Y83849D01*
X584565Y83787D01*
X584604Y83753D01*
X584637Y83713D01*
X584697Y83674D01*
X584752Y83627D01*
X584800Y83608D01*
X584844Y83580D01*
X584913Y83562D01*
X584980Y83535D01*
X585051Y83527D01*
X585082Y83519D01*
X585106Y83521D01*
X585147Y83517D01*
X586658Y83517D01*
X586748Y83531D01*
X586839Y83539D01*
X586869Y83551D01*
X586901Y83556D01*
X586982Y83599D01*
X587066Y83635D01*
X587098Y83661D01*
X587118Y83672D01*
X587141Y83695D01*
X587197Y83740D01*
X606328Y102871D01*
X606381Y102945D01*
X606441Y103015D01*
X606453Y103045D01*
X606472Y103071D01*
X606499Y103158D01*
X606533Y103243D01*
X606537Y103284D01*
X606544Y103306D01*
X606543Y103338D01*
X606551Y103410D01*
X606551Y112353D01*
X608949Y118141D01*
X609884Y119076D01*
X609937Y119150D01*
X609997Y119220D01*
X610009Y119250D01*
X610028Y119276D01*
X610055Y119363D01*
X610089Y119448D01*
X610093Y119489D01*
X610100Y119511D01*
X610099Y119543D01*
X610107Y119615D01*
X610107Y157880D01*
X611964Y162361D01*
X627071Y177468D01*
X631552Y179325D01*
X644366Y179325D01*
X644456Y179339D01*
X644547Y179347D01*
X644577Y179359D01*
X644609Y179364D01*
X644690Y179407D01*
X644774Y179443D01*
X644806Y179469D01*
X644826Y179480D01*
X644849Y179503D01*
X644905Y179548D01*
X665225Y199868D01*
X665266Y199926D01*
X665316Y199978D01*
X665338Y200025D01*
X665368Y200067D01*
X665389Y200136D01*
X665419Y200201D01*
X665425Y200253D01*
X665441Y200303D01*
X665439Y200374D01*
X665447Y200445D01*
X665435Y200496D01*
X665434Y200548D01*
X665410Y200616D01*
X665394Y200686D01*
X665368Y200731D01*
X665350Y200779D01*
X665305Y200835D01*
X665268Y200897D01*
X665229Y200931D01*
X665196Y200971D01*
X665136Y201010D01*
X665081Y201057D01*
X665033Y201076D01*
X664989Y201104D01*
X664920Y201122D01*
X664853Y201149D01*
X664782Y201157D01*
X664751Y201165D01*
X664727Y201163D01*
X664686Y201167D01*
X654298Y201167D01*
X645667Y209798D01*
X645667Y222002D01*
X654298Y230633D01*
X666502Y230633D01*
X675133Y222002D01*
X675133Y211614D01*
X675144Y211543D01*
X675146Y211471D01*
X675164Y211422D01*
X675172Y211371D01*
X675206Y211308D01*
X675231Y211240D01*
X675263Y211199D01*
X675288Y211154D01*
X675339Y211104D01*
X675384Y211048D01*
X675428Y211020D01*
X675466Y210984D01*
X675531Y210954D01*
X675591Y210915D01*
X675642Y210902D01*
X675689Y210881D01*
X675760Y210873D01*
X675830Y210855D01*
X675882Y210859D01*
X675933Y210853D01*
X676004Y210869D01*
X676075Y210874D01*
X676123Y210895D01*
X676174Y210906D01*
X676235Y210943D01*
X676301Y210971D01*
X676357Y211015D01*
X676385Y211032D01*
X676400Y211050D01*
X676432Y211075D01*
X683544Y218187D01*
X683597Y218261D01*
X683657Y218331D01*
X683669Y218361D01*
X683688Y218387D01*
X683715Y218474D01*
X683749Y218559D01*
X683753Y218600D01*
X683760Y218622D01*
X683759Y218654D01*
X683767Y218726D01*
X683767Y222002D01*
X692398Y230633D01*
X704602Y230633D01*
X713233Y222002D01*
X713233Y209798D01*
X704602Y201167D01*
X701326Y201167D01*
X701236Y201153D01*
X701145Y201145D01*
X701115Y201133D01*
X701083Y201128D01*
X701002Y201085D01*
X700918Y201049D01*
X700886Y201023D01*
X700866Y201012D01*
X700843Y200989D01*
X700787Y200944D01*
X665456Y165613D01*
X665444Y165597D01*
X665429Y165584D01*
X665373Y165497D01*
X665312Y165413D01*
X665307Y165394D01*
X665296Y165377D01*
X665270Y165277D01*
X665240Y165178D01*
X665241Y165158D01*
X665236Y165139D01*
X665244Y165036D01*
X665246Y164932D01*
X665253Y164913D01*
X665255Y164893D01*
X665295Y164799D01*
X665331Y164701D01*
X665343Y164685D01*
X665351Y164667D01*
X665456Y164536D01*
X668671Y161321D01*
X671069Y155533D01*
X671069Y149267D01*
X668671Y143479D01*
X664241Y139049D01*
X658453Y136651D01*
X636947Y136651D01*
X635545Y137232D01*
X635501Y137243D01*
X635459Y137262D01*
X635382Y137270D01*
X635306Y137288D01*
X635260Y137284D01*
X635215Y137289D01*
X635138Y137272D01*
X635061Y137265D01*
X635019Y137246D01*
X634974Y137237D01*
X634907Y137197D01*
X634836Y137165D01*
X634802Y137134D01*
X634763Y137111D01*
X634712Y137051D01*
X634655Y136999D01*
X634633Y136958D01*
X634603Y136924D01*
X634574Y136851D01*
X634537Y136783D01*
X634528Y136738D01*
X634511Y136695D01*
X634496Y136560D01*
X634493Y136541D01*
X634494Y136536D01*
X634493Y136529D01*
X634493Y119615D01*
X634507Y119525D01*
X634515Y119434D01*
X634527Y119404D01*
X634532Y119372D01*
X634575Y119291D01*
X634611Y119207D01*
X634637Y119175D01*
X634648Y119155D01*
X634671Y119132D01*
X634716Y119076D01*
X635651Y118141D01*
X638049Y112353D01*
X638049Y90847D01*
X635651Y85059D01*
X631221Y80629D01*
X625433Y78231D01*
X619167Y78231D01*
X617521Y78913D01*
X617407Y78940D01*
X617294Y78968D01*
X617288Y78968D01*
X617282Y78969D01*
X617165Y78958D01*
X617049Y78949D01*
X617043Y78947D01*
X617037Y78946D01*
X616929Y78898D01*
X616822Y78853D01*
X616816Y78848D01*
X616812Y78846D01*
X616798Y78834D01*
X616691Y78748D01*
X602468Y64524D01*
X598931Y60988D01*
X594449Y59131D01*
X342002Y59131D01*
X341931Y59120D01*
X341859Y59118D01*
X341810Y59100D01*
X341759Y59092D01*
X341696Y59058D01*
X341628Y59033D01*
X341588Y59001D01*
X341542Y58976D01*
X341492Y58924D01*
X341436Y58880D01*
X341408Y58836D01*
X341372Y58798D01*
X341342Y58733D01*
X341303Y58673D01*
X341291Y58622D01*
X341269Y58575D01*
X341261Y58504D01*
X341243Y58434D01*
X341247Y58382D01*
X341242Y58331D01*
X341257Y58260D01*
X341262Y58189D01*
X341283Y58141D01*
X341294Y58090D01*
X341331Y58029D01*
X341359Y57963D01*
X341403Y57907D01*
X341420Y57879D01*
X341438Y57864D01*
X341463Y57832D01*
X342690Y56605D01*
X344933Y51191D01*
X344933Y45329D01*
X342690Y39915D01*
X338545Y35770D01*
X337305Y35256D01*
X337266Y35232D01*
X337223Y35216D01*
X337162Y35168D01*
X337096Y35127D01*
X337066Y35091D01*
X337031Y35063D01*
X336989Y34997D01*
X336939Y34937D01*
X336922Y34894D01*
X336898Y34856D01*
X336879Y34780D01*
X336851Y34708D01*
X336849Y34662D01*
X336838Y34617D01*
X336844Y34540D01*
X336840Y34462D01*
X336853Y34418D01*
X336857Y34372D01*
X336887Y34300D01*
X336909Y34226D01*
X336935Y34188D01*
X336953Y34146D01*
X337038Y34039D01*
X337049Y34024D01*
X337053Y34021D01*
X337058Y34015D01*
X339345Y31728D01*
X339345Y29463D01*
X330962Y29463D01*
X330942Y29460D01*
X330923Y29462D01*
X330821Y29440D01*
X330719Y29423D01*
X330702Y29414D01*
X330682Y29410D01*
X330593Y29357D01*
X330502Y29308D01*
X330488Y29294D01*
X330471Y29284D01*
X330404Y29205D01*
X330333Y29130D01*
X330324Y29112D01*
X330311Y29097D01*
X330273Y29001D01*
X330229Y28907D01*
X330227Y28887D01*
X330219Y28869D01*
X330201Y28702D01*
X330201Y27939D01*
X330199Y27939D01*
X330199Y28702D01*
X330197Y28715D01*
X330198Y28726D01*
X330197Y28731D01*
X330198Y28741D01*
X330176Y28843D01*
X330159Y28945D01*
X330150Y28962D01*
X330146Y28982D01*
X330093Y29071D01*
X330044Y29162D01*
X330030Y29176D01*
X330020Y29193D01*
X329941Y29260D01*
X329866Y29331D01*
X329848Y29340D01*
X329833Y29353D01*
X329737Y29392D01*
X329643Y29435D01*
X329623Y29437D01*
X329605Y29445D01*
X329438Y29463D01*
X321055Y29463D01*
X321055Y31728D01*
X323342Y34015D01*
X323369Y34052D01*
X323403Y34083D01*
X323440Y34151D01*
X323486Y34214D01*
X323499Y34258D01*
X323521Y34299D01*
X323535Y34375D01*
X323558Y34450D01*
X323557Y34495D01*
X323565Y34541D01*
X323554Y34618D01*
X323552Y34695D01*
X323536Y34739D01*
X323529Y34784D01*
X323494Y34853D01*
X323467Y34926D01*
X323439Y34962D01*
X323418Y35003D01*
X323362Y35058D01*
X323314Y35118D01*
X323275Y35143D01*
X323242Y35175D01*
X323122Y35241D01*
X323107Y35251D01*
X323102Y35253D01*
X323095Y35256D01*
X321855Y35770D01*
X317710Y39915D01*
X315467Y45329D01*
X315467Y51191D01*
X317710Y56605D01*
X318937Y57832D01*
X318978Y57890D01*
X319028Y57942D01*
X319050Y57989D01*
X319080Y58031D01*
X319101Y58100D01*
X319131Y58165D01*
X319137Y58217D01*
X319152Y58267D01*
X319151Y58338D01*
X319158Y58409D01*
X319147Y58460D01*
X319146Y58512D01*
X319121Y58580D01*
X319106Y58650D01*
X319079Y58695D01*
X319062Y58743D01*
X319017Y58799D01*
X318980Y58861D01*
X318940Y58895D01*
X318908Y58935D01*
X318848Y58974D01*
X318793Y59021D01*
X318745Y59040D01*
X318701Y59068D01*
X318632Y59086D01*
X318565Y59113D01*
X318494Y59121D01*
X318462Y59129D01*
X318439Y59127D01*
X318398Y59131D01*
X253102Y59131D01*
X253031Y59120D01*
X252959Y59118D01*
X252910Y59100D01*
X252859Y59092D01*
X252796Y59058D01*
X252728Y59033D01*
X252688Y59001D01*
X252642Y58976D01*
X252592Y58924D01*
X252536Y58880D01*
X252508Y58836D01*
X252472Y58798D01*
X252442Y58733D01*
X252403Y58673D01*
X252391Y58622D01*
X252369Y58575D01*
X252361Y58504D01*
X252343Y58434D01*
X252347Y58382D01*
X252342Y58331D01*
X252357Y58260D01*
X252362Y58189D01*
X252383Y58141D01*
X252394Y58090D01*
X252431Y58029D01*
X252459Y57963D01*
X252503Y57907D01*
X252520Y57879D01*
X252538Y57864D01*
X252563Y57832D01*
X256033Y54362D01*
X256033Y42158D01*
X248541Y34666D01*
X248501Y34610D01*
X248453Y34561D01*
X248430Y34511D01*
X248398Y34466D01*
X248377Y34401D01*
X248348Y34339D01*
X248341Y34284D01*
X248325Y34231D01*
X248327Y34163D01*
X248319Y34094D01*
X248330Y34040D01*
X248332Y33985D01*
X248355Y33921D01*
X248369Y33854D01*
X248405Y33785D01*
X248416Y33754D01*
X248429Y33737D01*
X248446Y33705D01*
X249404Y32272D01*
X250093Y30607D01*
X250321Y29463D01*
X242062Y29463D01*
X242042Y29460D01*
X242023Y29462D01*
X241921Y29440D01*
X241819Y29423D01*
X241802Y29414D01*
X241782Y29410D01*
X241693Y29357D01*
X241602Y29308D01*
X241588Y29294D01*
X241571Y29284D01*
X241504Y29205D01*
X241433Y29130D01*
X241424Y29112D01*
X241411Y29097D01*
X241373Y29001D01*
X241329Y28907D01*
X241327Y28887D01*
X241319Y28869D01*
X241301Y28702D01*
X241301Y27939D01*
X241299Y27939D01*
X241299Y28702D01*
X241297Y28715D01*
X241298Y28726D01*
X241297Y28731D01*
X241298Y28741D01*
X241276Y28843D01*
X241259Y28945D01*
X241250Y28962D01*
X241246Y28982D01*
X241193Y29071D01*
X241144Y29162D01*
X241130Y29176D01*
X241120Y29193D01*
X241041Y29260D01*
X240966Y29331D01*
X240948Y29340D01*
X240933Y29353D01*
X240837Y29392D01*
X240743Y29435D01*
X240723Y29437D01*
X240705Y29445D01*
X240538Y29463D01*
X232279Y29463D01*
X232507Y30607D01*
X233196Y32272D01*
X234154Y33705D01*
X234182Y33767D01*
X234219Y33825D01*
X234233Y33878D01*
X234255Y33929D01*
X234262Y33997D01*
X234279Y34063D01*
X234275Y34118D01*
X234281Y34173D01*
X234265Y34240D01*
X234260Y34309D01*
X234238Y34359D01*
X234226Y34413D01*
X234191Y34472D01*
X234164Y34535D01*
X234116Y34595D01*
X234098Y34623D01*
X234082Y34637D01*
X234059Y34666D01*
X226567Y42158D01*
X226567Y54362D01*
X230037Y57832D01*
X230078Y57890D01*
X230128Y57942D01*
X230150Y57989D01*
X230180Y58031D01*
X230201Y58100D01*
X230231Y58165D01*
X230237Y58217D01*
X230252Y58267D01*
X230251Y58338D01*
X230258Y58409D01*
X230247Y58460D01*
X230246Y58512D01*
X230221Y58580D01*
X230206Y58650D01*
X230180Y58695D01*
X230162Y58743D01*
X230117Y58799D01*
X230080Y58861D01*
X230040Y58895D01*
X230008Y58935D01*
X229948Y58974D01*
X229893Y59021D01*
X229845Y59040D01*
X229801Y59068D01*
X229732Y59086D01*
X229665Y59113D01*
X229594Y59121D01*
X229562Y59129D01*
X229539Y59127D01*
X229498Y59131D01*
X155479Y59131D01*
X155408Y59120D01*
X155336Y59118D01*
X155287Y59100D01*
X155236Y59092D01*
X155172Y59058D01*
X155105Y59033D01*
X155064Y59001D01*
X155018Y58976D01*
X154969Y58924D01*
X154913Y58880D01*
X154885Y58836D01*
X154849Y58798D01*
X154819Y58733D01*
X154780Y58673D01*
X154767Y58622D01*
X154745Y58575D01*
X154738Y58504D01*
X154720Y58434D01*
X154724Y58382D01*
X154718Y58331D01*
X154734Y58260D01*
X154739Y58189D01*
X154760Y58141D01*
X154771Y58090D01*
X154807Y58029D01*
X154835Y57963D01*
X154880Y57907D01*
X154897Y57879D01*
X154915Y57864D01*
X154940Y57832D01*
X155449Y57323D01*
X155449Y44277D01*
X152116Y40944D01*
X152063Y40870D01*
X152003Y40800D01*
X151991Y40770D01*
X151972Y40744D01*
X151945Y40657D01*
X151911Y40572D01*
X151907Y40531D01*
X151900Y40509D01*
X151901Y40477D01*
X151893Y40405D01*
X151893Y35795D01*
X151907Y35705D01*
X151915Y35614D01*
X151927Y35584D01*
X151932Y35552D01*
X151975Y35471D01*
X152011Y35387D01*
X152037Y35355D01*
X152048Y35334D01*
X152071Y35312D01*
X152116Y35256D01*
X155449Y31923D01*
X155449Y18877D01*
X149810Y13238D01*
X149768Y13180D01*
X149719Y13128D01*
X149697Y13081D01*
X149667Y13039D01*
X149646Y12970D01*
X149615Y12905D01*
X149610Y12853D01*
X149594Y12803D01*
X149596Y12732D01*
X149588Y12661D01*
X149599Y12610D01*
X149601Y12558D01*
X149625Y12490D01*
X149641Y12420D01*
X149667Y12376D01*
X149685Y12327D01*
X149730Y12271D01*
X149767Y12209D01*
X149806Y12175D01*
X149839Y12135D01*
X149899Y12096D01*
X149954Y12049D01*
X150002Y12030D01*
X150046Y12002D01*
X150115Y11984D01*
X150182Y11957D01*
X150253Y11949D01*
X150284Y11941D01*
X150308Y11943D01*
X150349Y11939D01*
X641028Y11939D01*
X641099Y11950D01*
G37*
%LPC*%
G36*
X535347Y136651D02*
X535347Y136651D01*
X529559Y139049D01*
X525129Y143479D01*
X522731Y149267D01*
X522731Y155533D01*
X524255Y159211D01*
X524282Y159325D01*
X524310Y159438D01*
X524310Y159444D01*
X524311Y159451D01*
X524300Y159567D01*
X524291Y159683D01*
X524289Y159689D01*
X524288Y159695D01*
X524240Y159803D01*
X524195Y159910D01*
X524190Y159916D01*
X524188Y159920D01*
X524175Y159934D01*
X524090Y160041D01*
X504014Y180116D01*
X503940Y180169D01*
X503871Y180229D01*
X503841Y180241D01*
X503814Y180260D01*
X503728Y180287D01*
X503643Y180321D01*
X503602Y180325D01*
X503579Y180332D01*
X503547Y180331D01*
X503476Y180339D01*
X366590Y180339D01*
X366500Y180325D01*
X366409Y180317D01*
X366379Y180305D01*
X366347Y180300D01*
X366266Y180257D01*
X366182Y180221D01*
X366150Y180195D01*
X366130Y180184D01*
X366107Y180161D01*
X366051Y180116D01*
X361702Y175767D01*
X349498Y175767D01*
X340867Y184398D01*
X340867Y196602D01*
X349498Y205233D01*
X361702Y205233D01*
X366051Y200884D01*
X366125Y200831D01*
X366195Y200771D01*
X366225Y200759D01*
X366251Y200740D01*
X366338Y200713D01*
X366423Y200679D01*
X366464Y200675D01*
X366486Y200668D01*
X366518Y200669D01*
X366590Y200661D01*
X468932Y200661D01*
X469003Y200672D01*
X469074Y200674D01*
X469123Y200692D01*
X469175Y200700D01*
X469238Y200734D01*
X469305Y200759D01*
X469346Y200791D01*
X469392Y200816D01*
X469441Y200868D01*
X469497Y200912D01*
X469526Y200956D01*
X469562Y200994D01*
X469592Y201059D01*
X469630Y201119D01*
X469643Y201170D01*
X469665Y201217D01*
X469673Y201288D01*
X469691Y201358D01*
X469686Y201410D01*
X469692Y201461D01*
X469677Y201532D01*
X469671Y201603D01*
X469651Y201651D01*
X469640Y201702D01*
X469603Y201763D01*
X469575Y201829D01*
X469530Y201885D01*
X469514Y201913D01*
X469496Y201928D01*
X469470Y201960D01*
X457786Y213644D01*
X457712Y213697D01*
X457643Y213757D01*
X457613Y213769D01*
X457586Y213788D01*
X457500Y213815D01*
X457415Y213849D01*
X457374Y213853D01*
X457351Y213860D01*
X457319Y213859D01*
X457248Y213867D01*
X451098Y213867D01*
X442467Y222498D01*
X442467Y234702D01*
X451098Y243333D01*
X463302Y243333D01*
X471933Y234702D01*
X471933Y228552D01*
X471947Y228462D01*
X471955Y228371D01*
X471967Y228341D01*
X471972Y228309D01*
X472015Y228229D01*
X472051Y228145D01*
X472077Y228113D01*
X472088Y228092D01*
X472111Y228070D01*
X472156Y228014D01*
X479268Y220902D01*
X479326Y220860D01*
X479378Y220810D01*
X479425Y220789D01*
X479467Y220758D01*
X479536Y220737D01*
X479601Y220707D01*
X479653Y220701D01*
X479703Y220686D01*
X479774Y220688D01*
X479845Y220680D01*
X479896Y220691D01*
X479948Y220692D01*
X480016Y220717D01*
X480086Y220732D01*
X480131Y220759D01*
X480179Y220777D01*
X480235Y220821D01*
X480297Y220858D01*
X480331Y220898D01*
X480371Y220930D01*
X480410Y220991D01*
X480457Y221045D01*
X480476Y221093D01*
X480504Y221137D01*
X480522Y221207D01*
X480549Y221273D01*
X480557Y221345D01*
X480565Y221376D01*
X480563Y221399D01*
X480567Y221440D01*
X480567Y222002D01*
X489198Y230633D01*
X501402Y230633D01*
X510033Y222002D01*
X510033Y215138D01*
X510036Y215118D01*
X510034Y215099D01*
X510056Y214997D01*
X510072Y214895D01*
X510082Y214878D01*
X510086Y214858D01*
X510139Y214769D01*
X510188Y214678D01*
X510202Y214664D01*
X510212Y214647D01*
X510291Y214580D01*
X510366Y214508D01*
X510384Y214500D01*
X510399Y214487D01*
X510495Y214448D01*
X510589Y214405D01*
X510609Y214403D01*
X510627Y214395D01*
X510794Y214377D01*
X517192Y214377D01*
X517282Y214391D01*
X517373Y214399D01*
X517403Y214411D01*
X517435Y214416D01*
X517515Y214459D01*
X517599Y214495D01*
X517631Y214521D01*
X517652Y214532D01*
X517674Y214555D01*
X517730Y214600D01*
X524657Y221527D01*
X524669Y221543D01*
X524685Y221555D01*
X524715Y221603D01*
X524727Y221616D01*
X524738Y221638D01*
X524741Y221643D01*
X524801Y221727D01*
X524807Y221746D01*
X524818Y221762D01*
X524843Y221863D01*
X524873Y221962D01*
X524873Y221982D01*
X524878Y222001D01*
X524870Y222104D01*
X524867Y222208D01*
X524860Y222226D01*
X524859Y222246D01*
X524818Y222341D01*
X524782Y222439D01*
X524770Y222454D01*
X524762Y222472D01*
X524657Y222603D01*
X520910Y226351D01*
X518667Y231765D01*
X518667Y250835D01*
X520910Y256249D01*
X524472Y259812D01*
X524484Y259828D01*
X524500Y259840D01*
X524556Y259928D01*
X524616Y260011D01*
X524622Y260030D01*
X524633Y260047D01*
X524658Y260148D01*
X524688Y260247D01*
X524688Y260266D01*
X524693Y260286D01*
X524685Y260389D01*
X524682Y260492D01*
X524675Y260511D01*
X524674Y260531D01*
X524633Y260626D01*
X524598Y260723D01*
X524585Y260739D01*
X524577Y260757D01*
X524472Y260888D01*
X520910Y264451D01*
X518667Y269865D01*
X518667Y288935D01*
X520910Y294349D01*
X525055Y298494D01*
X530469Y300737D01*
X536331Y300737D01*
X541745Y298494D01*
X545562Y294678D01*
X545578Y294666D01*
X545590Y294650D01*
X545678Y294594D01*
X545761Y294534D01*
X545780Y294528D01*
X545797Y294517D01*
X545898Y294492D01*
X545997Y294462D01*
X546016Y294462D01*
X546036Y294457D01*
X546139Y294465D01*
X546242Y294468D01*
X546261Y294475D01*
X546281Y294476D01*
X546376Y294517D01*
X546473Y294552D01*
X546489Y294565D01*
X546507Y294573D01*
X546638Y294678D01*
X550057Y298097D01*
X550069Y298113D01*
X550085Y298125D01*
X550141Y298212D01*
X550201Y298296D01*
X550207Y298315D01*
X550218Y298332D01*
X550243Y298433D01*
X550273Y298531D01*
X550273Y298551D01*
X550278Y298571D01*
X550270Y298674D01*
X550267Y298777D01*
X550260Y298796D01*
X550259Y298816D01*
X550218Y298911D01*
X550182Y299008D01*
X550170Y299024D01*
X550162Y299042D01*
X550057Y299173D01*
X539614Y309616D01*
X539540Y309669D01*
X539471Y309729D01*
X539441Y309741D01*
X539414Y309760D01*
X539328Y309787D01*
X539243Y309821D01*
X539202Y309825D01*
X539179Y309832D01*
X539147Y309831D01*
X539076Y309839D01*
X478079Y309839D01*
X474344Y311386D01*
X471379Y314351D01*
X445086Y340644D01*
X445012Y340697D01*
X444943Y340757D01*
X444913Y340769D01*
X444887Y340788D01*
X444800Y340815D01*
X444715Y340849D01*
X444674Y340853D01*
X444651Y340860D01*
X444619Y340859D01*
X444548Y340867D01*
X438398Y340867D01*
X429767Y349498D01*
X429767Y361702D01*
X438398Y370333D01*
X450602Y370333D01*
X456662Y364273D01*
X456678Y364262D01*
X456690Y364246D01*
X456778Y364190D01*
X456861Y364130D01*
X456880Y364124D01*
X456897Y364113D01*
X456998Y364088D01*
X457097Y364058D01*
X457116Y364058D01*
X457136Y364053D01*
X457239Y364061D01*
X457342Y364064D01*
X457361Y364071D01*
X457381Y364072D01*
X457476Y364113D01*
X457573Y364148D01*
X457589Y364161D01*
X457607Y364169D01*
X457738Y364273D01*
X459516Y366051D01*
X459569Y366125D01*
X459629Y366195D01*
X459641Y366225D01*
X459660Y366251D01*
X459687Y366338D01*
X459721Y366423D01*
X459725Y366464D01*
X459732Y366486D01*
X459731Y366518D01*
X459739Y366590D01*
X459739Y400576D01*
X459725Y400666D01*
X459717Y400757D01*
X459705Y400787D01*
X459700Y400819D01*
X459657Y400899D01*
X459621Y400983D01*
X459595Y401015D01*
X459584Y401036D01*
X459561Y401058D01*
X459516Y401114D01*
X443786Y416844D01*
X443712Y416897D01*
X443643Y416957D01*
X443613Y416969D01*
X443586Y416988D01*
X443500Y417015D01*
X443415Y417049D01*
X443374Y417053D01*
X443351Y417060D01*
X443319Y417059D01*
X443248Y417067D01*
X438398Y417067D01*
X429767Y425698D01*
X429767Y437902D01*
X438398Y446533D01*
X450602Y446533D01*
X456662Y440473D01*
X456678Y440462D01*
X456690Y440446D01*
X456778Y440390D01*
X456861Y440330D01*
X456880Y440324D01*
X456897Y440313D01*
X456998Y440288D01*
X457097Y440258D01*
X457116Y440258D01*
X457136Y440253D01*
X457239Y440261D01*
X457342Y440264D01*
X457361Y440271D01*
X457381Y440272D01*
X457476Y440313D01*
X457573Y440348D01*
X457589Y440361D01*
X457607Y440369D01*
X457738Y440473D01*
X463798Y446533D01*
X476002Y446533D01*
X484633Y437902D01*
X484633Y425698D01*
X476002Y417067D01*
X474140Y417067D01*
X474069Y417056D01*
X473998Y417054D01*
X473949Y417036D01*
X473897Y417028D01*
X473834Y416994D01*
X473767Y416969D01*
X473726Y416937D01*
X473680Y416912D01*
X473631Y416860D01*
X473575Y416816D01*
X473546Y416772D01*
X473510Y416734D01*
X473480Y416669D01*
X473442Y416609D01*
X473429Y416558D01*
X473407Y416511D01*
X473399Y416440D01*
X473381Y416370D01*
X473386Y416318D01*
X473380Y416267D01*
X473395Y416196D01*
X473401Y416125D01*
X473421Y416077D01*
X473432Y416026D01*
X473469Y415965D01*
X473497Y415899D01*
X473542Y415843D01*
X473558Y415815D01*
X473576Y415800D01*
X473602Y415768D01*
X478514Y410856D01*
X480061Y407121D01*
X480061Y366590D01*
X480075Y366500D01*
X480083Y366409D01*
X480095Y366379D01*
X480100Y366347D01*
X480143Y366266D01*
X480179Y366182D01*
X480205Y366150D01*
X480216Y366130D01*
X480239Y366107D01*
X480284Y366051D01*
X484633Y361702D01*
X484633Y349498D01*
X476002Y340867D01*
X475440Y340867D01*
X475369Y340856D01*
X475298Y340854D01*
X475249Y340836D01*
X475197Y340828D01*
X475134Y340794D01*
X475067Y340769D01*
X475026Y340737D01*
X474980Y340712D01*
X474931Y340661D01*
X474875Y340616D01*
X474846Y340572D01*
X474810Y340534D01*
X474780Y340469D01*
X474742Y340409D01*
X474729Y340358D01*
X474707Y340311D01*
X474699Y340240D01*
X474681Y340170D01*
X474686Y340118D01*
X474680Y340067D01*
X474695Y339996D01*
X474701Y339925D01*
X474721Y339877D01*
X474732Y339826D01*
X474769Y339765D01*
X474797Y339699D01*
X474842Y339643D01*
X474858Y339615D01*
X474876Y339600D01*
X474902Y339568D01*
X484086Y330384D01*
X484160Y330331D01*
X484229Y330271D01*
X484259Y330259D01*
X484285Y330240D01*
X484372Y330213D01*
X484457Y330179D01*
X484498Y330175D01*
X484521Y330168D01*
X484553Y330169D01*
X484624Y330161D01*
X545621Y330161D01*
X549356Y328614D01*
X552321Y325649D01*
X578055Y299914D01*
X578130Y299861D01*
X578199Y299802D01*
X578223Y299792D01*
X578244Y299776D01*
X578250Y299774D01*
X578255Y299771D01*
X578343Y299743D01*
X578427Y299710D01*
X578459Y299706D01*
X578478Y299700D01*
X578484Y299700D01*
X578490Y299698D01*
X578523Y299699D01*
X578594Y299691D01*
X578658Y299702D01*
X578724Y299702D01*
X578731Y299704D01*
X578736Y299705D01*
X578754Y299711D01*
X578805Y299726D01*
X578837Y299731D01*
X578854Y299740D01*
X578885Y299749D01*
X581269Y300737D01*
X587131Y300737D01*
X592545Y298494D01*
X596690Y294349D01*
X598933Y288935D01*
X598933Y269865D01*
X596690Y264451D01*
X593128Y260888D01*
X593116Y260872D01*
X593100Y260860D01*
X593044Y260772D01*
X592984Y260689D01*
X592978Y260670D01*
X592967Y260653D01*
X592942Y260552D01*
X592912Y260453D01*
X592912Y260434D01*
X592907Y260414D01*
X592915Y260311D01*
X592918Y260208D01*
X592925Y260189D01*
X592926Y260169D01*
X592967Y260074D01*
X593002Y259977D01*
X593015Y259961D01*
X593023Y259943D01*
X593128Y259812D01*
X596690Y256249D01*
X598479Y251931D01*
X598540Y251831D01*
X598600Y251731D01*
X598605Y251727D01*
X598608Y251722D01*
X598698Y251647D01*
X598787Y251571D01*
X598793Y251569D01*
X598798Y251565D01*
X598906Y251523D01*
X599015Y251479D01*
X599023Y251478D01*
X599027Y251477D01*
X599046Y251476D01*
X599182Y251461D01*
X605076Y251461D01*
X605166Y251475D01*
X605257Y251483D01*
X605287Y251495D01*
X605319Y251500D01*
X605399Y251543D01*
X605483Y251579D01*
X605515Y251605D01*
X605536Y251616D01*
X605558Y251639D01*
X605614Y251684D01*
X645444Y291514D01*
X645497Y291588D01*
X645557Y291657D01*
X645569Y291687D01*
X645588Y291714D01*
X645615Y291800D01*
X645649Y291885D01*
X645653Y291926D01*
X645660Y291949D01*
X645659Y291981D01*
X645667Y292052D01*
X645667Y298202D01*
X654298Y306833D01*
X666502Y306833D01*
X675133Y298202D01*
X675133Y285998D01*
X666502Y277367D01*
X660352Y277367D01*
X660262Y277353D01*
X660171Y277345D01*
X660141Y277333D01*
X660109Y277328D01*
X660029Y277285D01*
X659945Y277249D01*
X659913Y277223D01*
X659892Y277212D01*
X659870Y277189D01*
X659814Y277144D01*
X615356Y232686D01*
X611621Y231139D01*
X599182Y231139D01*
X599067Y231120D01*
X598951Y231103D01*
X598945Y231101D01*
X598939Y231100D01*
X598837Y231045D01*
X598732Y230992D01*
X598727Y230987D01*
X598722Y230984D01*
X598642Y230900D01*
X598560Y230816D01*
X598556Y230810D01*
X598552Y230806D01*
X598545Y230789D01*
X598479Y230669D01*
X596690Y226351D01*
X592545Y222206D01*
X587131Y219963D01*
X581269Y219963D01*
X575855Y222206D01*
X572038Y226022D01*
X572022Y226034D01*
X572010Y226050D01*
X571922Y226106D01*
X571839Y226166D01*
X571820Y226172D01*
X571803Y226183D01*
X571702Y226208D01*
X571603Y226238D01*
X571584Y226238D01*
X571564Y226243D01*
X571461Y226235D01*
X571358Y226232D01*
X571339Y226225D01*
X571319Y226224D01*
X571224Y226183D01*
X571127Y226148D01*
X571111Y226135D01*
X571093Y226127D01*
X570962Y226022D01*
X567145Y222206D01*
X561731Y219963D01*
X555869Y219963D01*
X553485Y220951D01*
X553371Y220978D01*
X553258Y221006D01*
X553252Y221006D01*
X553246Y221007D01*
X553129Y220996D01*
X553013Y220987D01*
X553007Y220985D01*
X553001Y220984D01*
X552893Y220936D01*
X552786Y220891D01*
X552781Y220886D01*
X552776Y220884D01*
X552762Y220871D01*
X552655Y220786D01*
X527472Y195602D01*
X523737Y194055D01*
X520652Y194055D01*
X520581Y194044D01*
X520510Y194042D01*
X520461Y194024D01*
X520409Y194016D01*
X520346Y193982D01*
X520279Y193957D01*
X520238Y193925D01*
X520192Y193900D01*
X520143Y193848D01*
X520087Y193804D01*
X520058Y193760D01*
X520022Y193722D01*
X519992Y193657D01*
X519954Y193597D01*
X519941Y193546D01*
X519919Y193499D01*
X519911Y193428D01*
X519893Y193358D01*
X519898Y193306D01*
X519892Y193255D01*
X519907Y193184D01*
X519913Y193113D01*
X519933Y193065D01*
X519944Y193014D01*
X519981Y192953D01*
X520009Y192887D01*
X520054Y192831D01*
X520070Y192803D01*
X520088Y192788D01*
X520114Y192756D01*
X544498Y168372D01*
X544572Y168319D01*
X544641Y168259D01*
X544671Y168247D01*
X544698Y168228D01*
X544784Y168201D01*
X544869Y168167D01*
X544910Y168163D01*
X544933Y168156D01*
X544965Y168157D01*
X545036Y168149D01*
X556853Y168149D01*
X562641Y165751D01*
X567071Y161321D01*
X569469Y155533D01*
X569469Y149267D01*
X567071Y143479D01*
X562641Y139049D01*
X556853Y136651D01*
X535347Y136651D01*
G37*
%LPD*%
%LPC*%
G36*
X730498Y277367D02*
X730498Y277367D01*
X721867Y285998D01*
X721867Y298202D01*
X730498Y306833D01*
X737148Y306833D01*
X737238Y306847D01*
X737329Y306855D01*
X737359Y306867D01*
X737391Y306872D01*
X737471Y306915D01*
X737555Y306951D01*
X737587Y306977D01*
X737608Y306988D01*
X737630Y307011D01*
X737686Y307056D01*
X744616Y313986D01*
X744669Y314060D01*
X744729Y314129D01*
X744741Y314159D01*
X744760Y314186D01*
X744787Y314272D01*
X744821Y314357D01*
X744825Y314398D01*
X744832Y314421D01*
X744831Y314453D01*
X744839Y314524D01*
X744839Y316601D01*
X744824Y316698D01*
X744814Y316794D01*
X744804Y316818D01*
X744800Y316844D01*
X744754Y316930D01*
X744714Y317019D01*
X744697Y317038D01*
X744684Y317062D01*
X744614Y317129D01*
X744548Y317200D01*
X744525Y317213D01*
X744506Y317231D01*
X744418Y317272D01*
X744332Y317319D01*
X744307Y317324D01*
X744283Y317335D01*
X744186Y317345D01*
X744090Y317363D01*
X744064Y317359D01*
X744039Y317362D01*
X743943Y317341D01*
X743847Y317327D01*
X743824Y317315D01*
X743798Y317309D01*
X743715Y317260D01*
X743628Y317215D01*
X743609Y317197D01*
X743587Y317183D01*
X743524Y317109D01*
X743456Y317040D01*
X743440Y317011D01*
X743427Y316996D01*
X743415Y316966D01*
X743375Y316893D01*
X742836Y315593D01*
X739407Y312164D01*
X734925Y310307D01*
X678375Y310307D01*
X673893Y312164D01*
X670357Y315700D01*
X670356Y315700D01*
X653309Y332748D01*
X653214Y332816D01*
X653120Y332886D01*
X653114Y332888D01*
X653109Y332892D01*
X652998Y332926D01*
X652886Y332962D01*
X652880Y332962D01*
X652874Y332964D01*
X652757Y332961D01*
X652640Y332960D01*
X652633Y332958D01*
X652628Y332958D01*
X652610Y332951D01*
X652479Y332913D01*
X650833Y332231D01*
X644567Y332231D01*
X638779Y334629D01*
X634349Y339059D01*
X631951Y344847D01*
X631951Y366353D01*
X634349Y372141D01*
X638779Y376571D01*
X644567Y378969D01*
X650833Y378969D01*
X656621Y376571D01*
X661051Y372141D01*
X663449Y366353D01*
X663449Y357410D01*
X663463Y357320D01*
X663471Y357229D01*
X663483Y357199D01*
X663488Y357167D01*
X663531Y357086D01*
X663567Y357002D01*
X663593Y356970D01*
X663604Y356950D01*
X663627Y356927D01*
X663672Y356871D01*
X685627Y334916D01*
X685701Y334863D01*
X685771Y334803D01*
X685801Y334791D01*
X685827Y334772D01*
X685914Y334745D01*
X685999Y334711D01*
X686040Y334707D01*
X686062Y334700D01*
X686094Y334701D01*
X686166Y334693D01*
X687677Y334693D01*
X687748Y334704D01*
X687820Y334706D01*
X687869Y334724D01*
X687920Y334732D01*
X687983Y334766D01*
X688051Y334791D01*
X688091Y334823D01*
X688138Y334848D01*
X688187Y334900D01*
X688243Y334944D01*
X688271Y334988D01*
X688307Y335026D01*
X688337Y335091D01*
X688376Y335151D01*
X688389Y335202D01*
X688411Y335249D01*
X688418Y335320D01*
X688436Y335390D01*
X688432Y335442D01*
X688438Y335493D01*
X688422Y335564D01*
X688417Y335635D01*
X688396Y335683D01*
X688385Y335734D01*
X688349Y335795D01*
X688320Y335861D01*
X688276Y335917D01*
X688259Y335945D01*
X688246Y335956D01*
X688243Y335961D01*
X688236Y335967D01*
X688216Y335992D01*
X685149Y339059D01*
X682751Y344847D01*
X682751Y366353D01*
X685149Y372141D01*
X689579Y376571D01*
X695367Y378969D01*
X701633Y378969D01*
X707421Y376571D01*
X711851Y372141D01*
X714249Y366353D01*
X714249Y344847D01*
X711851Y339059D01*
X708784Y335992D01*
X708742Y335934D01*
X708693Y335882D01*
X708671Y335835D01*
X708641Y335793D01*
X708620Y335724D01*
X708589Y335659D01*
X708584Y335607D01*
X708568Y335557D01*
X708570Y335486D01*
X708562Y335415D01*
X708573Y335364D01*
X708575Y335312D01*
X708599Y335244D01*
X708615Y335174D01*
X708641Y335129D01*
X708659Y335081D01*
X708704Y335025D01*
X708741Y334963D01*
X708780Y334929D01*
X708813Y334889D01*
X708873Y334850D01*
X708928Y334803D01*
X708976Y334784D01*
X709020Y334756D01*
X709089Y334738D01*
X709156Y334711D01*
X709227Y334703D01*
X709258Y334695D01*
X709282Y334697D01*
X709323Y334693D01*
X734925Y334693D01*
X739407Y332836D01*
X742836Y329407D01*
X743375Y328107D01*
X743426Y328024D01*
X743472Y327938D01*
X743490Y327920D01*
X743504Y327898D01*
X743580Y327836D01*
X743650Y327769D01*
X743674Y327758D01*
X743694Y327741D01*
X743785Y327706D01*
X743873Y327665D01*
X743899Y327663D01*
X743923Y327653D01*
X744021Y327649D01*
X744117Y327638D01*
X744143Y327644D01*
X744169Y327643D01*
X744263Y327670D01*
X744358Y327691D01*
X744380Y327704D01*
X744405Y327711D01*
X744485Y327767D01*
X744569Y327817D01*
X744586Y327837D01*
X744607Y327852D01*
X744666Y327930D01*
X744729Y328004D01*
X744739Y328028D01*
X744754Y328049D01*
X744784Y328141D01*
X744821Y328232D01*
X744824Y328264D01*
X744830Y328283D01*
X744830Y328316D01*
X744839Y328399D01*
X744839Y334388D01*
X744820Y334503D01*
X744803Y334619D01*
X744801Y334625D01*
X744800Y334631D01*
X744746Y334732D01*
X744692Y334839D01*
X744687Y334843D01*
X744684Y334849D01*
X744600Y334928D01*
X744516Y335011D01*
X744510Y335015D01*
X744506Y335018D01*
X744489Y335026D01*
X744369Y335092D01*
X740955Y336506D01*
X736810Y340651D01*
X734567Y346065D01*
X734567Y365135D01*
X736810Y370549D01*
X740955Y374694D01*
X746369Y376937D01*
X752231Y376937D01*
X757645Y374694D01*
X761462Y370878D01*
X761478Y370866D01*
X761490Y370850D01*
X761578Y370794D01*
X761661Y370734D01*
X761680Y370728D01*
X761697Y370717D01*
X761798Y370692D01*
X761897Y370662D01*
X761916Y370662D01*
X761936Y370657D01*
X762039Y370665D01*
X762142Y370668D01*
X762161Y370675D01*
X762181Y370676D01*
X762276Y370717D01*
X762373Y370752D01*
X762389Y370765D01*
X762407Y370773D01*
X762538Y370878D01*
X766355Y374694D01*
X771769Y376937D01*
X777631Y376937D01*
X783045Y374694D01*
X786862Y370878D01*
X786878Y370866D01*
X786890Y370850D01*
X786978Y370794D01*
X787061Y370734D01*
X787080Y370728D01*
X787097Y370717D01*
X787198Y370692D01*
X787297Y370662D01*
X787316Y370662D01*
X787336Y370657D01*
X787439Y370665D01*
X787542Y370668D01*
X787561Y370675D01*
X787581Y370676D01*
X787676Y370717D01*
X787773Y370752D01*
X787789Y370765D01*
X787807Y370773D01*
X787938Y370878D01*
X791755Y374694D01*
X797169Y376937D01*
X803031Y376937D01*
X808445Y374694D01*
X812590Y370549D01*
X814833Y365135D01*
X814833Y346065D01*
X812590Y340651D01*
X808445Y336506D01*
X803031Y334263D01*
X797169Y334263D01*
X791755Y336506D01*
X787938Y340322D01*
X787922Y340334D01*
X787910Y340350D01*
X787822Y340406D01*
X787739Y340466D01*
X787720Y340472D01*
X787703Y340483D01*
X787602Y340508D01*
X787503Y340538D01*
X787484Y340538D01*
X787464Y340543D01*
X787361Y340535D01*
X787258Y340532D01*
X787239Y340525D01*
X787219Y340524D01*
X787124Y340483D01*
X787027Y340448D01*
X787011Y340435D01*
X786993Y340427D01*
X786862Y340322D01*
X783045Y336506D01*
X777631Y334263D01*
X771769Y334263D01*
X766215Y336564D01*
X766173Y336574D01*
X766127Y336595D01*
X766079Y336601D01*
X766034Y336615D01*
X765999Y336615D01*
X765975Y336620D01*
X765936Y336617D01*
X765883Y336622D01*
X765836Y336612D01*
X765788Y336612D01*
X765753Y336599D01*
X765730Y336597D01*
X765696Y336582D01*
X765642Y336570D01*
X765601Y336546D01*
X765556Y336530D01*
X765526Y336506D01*
X765506Y336497D01*
X765479Y336473D01*
X765431Y336444D01*
X765400Y336408D01*
X765362Y336378D01*
X765341Y336346D01*
X765324Y336331D01*
X765307Y336299D01*
X765271Y336257D01*
X765253Y336213D01*
X765227Y336173D01*
X765217Y336136D01*
X765206Y336115D01*
X765199Y336079D01*
X765179Y336029D01*
X765172Y335965D01*
X765164Y335935D01*
X765166Y335909D01*
X765161Y335862D01*
X765161Y307979D01*
X763614Y304244D01*
X751556Y292186D01*
X751503Y292112D01*
X751443Y292043D01*
X751431Y292013D01*
X751412Y291986D01*
X751385Y291900D01*
X751351Y291815D01*
X751347Y291774D01*
X751340Y291751D01*
X751341Y291719D01*
X751333Y291648D01*
X751333Y285998D01*
X742702Y277367D01*
X730498Y277367D01*
G37*
%LPD*%
%LPC*%
G36*
X857498Y163067D02*
X857498Y163067D01*
X848867Y171698D01*
X848867Y172046D01*
X848864Y172066D01*
X848866Y172085D01*
X848844Y172187D01*
X848828Y172289D01*
X848818Y172306D01*
X848814Y172326D01*
X848761Y172415D01*
X848712Y172506D01*
X848698Y172520D01*
X848688Y172537D01*
X848609Y172604D01*
X848534Y172676D01*
X848516Y172684D01*
X848501Y172697D01*
X848405Y172736D01*
X848311Y172779D01*
X848291Y172781D01*
X848273Y172789D01*
X848106Y172807D01*
X765075Y172807D01*
X760593Y174664D01*
X734313Y200944D01*
X734239Y200997D01*
X734169Y201057D01*
X734139Y201069D01*
X734113Y201088D01*
X734026Y201115D01*
X733941Y201149D01*
X733900Y201153D01*
X733878Y201160D01*
X733846Y201159D01*
X733774Y201167D01*
X730498Y201167D01*
X721867Y209798D01*
X721867Y222002D01*
X730498Y230633D01*
X742702Y230633D01*
X751333Y222002D01*
X751333Y218726D01*
X751347Y218636D01*
X751355Y218545D01*
X751367Y218515D01*
X751372Y218483D01*
X751415Y218402D01*
X751451Y218318D01*
X751477Y218286D01*
X751488Y218266D01*
X751511Y218243D01*
X751556Y218187D01*
X758668Y211075D01*
X758726Y211034D01*
X758778Y210984D01*
X758825Y210962D01*
X758867Y210932D01*
X758936Y210911D01*
X759001Y210881D01*
X759053Y210875D01*
X759103Y210859D01*
X759174Y210861D01*
X759245Y210853D01*
X759296Y210865D01*
X759348Y210866D01*
X759416Y210890D01*
X759486Y210906D01*
X759531Y210932D01*
X759579Y210950D01*
X759635Y210995D01*
X759697Y211032D01*
X759731Y211071D01*
X759771Y211104D01*
X759810Y211164D01*
X759857Y211219D01*
X759876Y211267D01*
X759904Y211311D01*
X759922Y211380D01*
X759949Y211447D01*
X759957Y211518D01*
X759965Y211549D01*
X759963Y211573D01*
X759967Y211614D01*
X759967Y222002D01*
X768598Y230633D01*
X780802Y230633D01*
X789433Y222002D01*
X789433Y209798D01*
X780802Y201167D01*
X770414Y201167D01*
X770343Y201156D01*
X770271Y201154D01*
X770222Y201136D01*
X770171Y201128D01*
X770108Y201094D01*
X770040Y201069D01*
X770000Y201037D01*
X769954Y201012D01*
X769904Y200960D01*
X769848Y200916D01*
X769820Y200872D01*
X769784Y200834D01*
X769754Y200769D01*
X769715Y200709D01*
X769702Y200658D01*
X769681Y200611D01*
X769673Y200540D01*
X769655Y200470D01*
X769659Y200418D01*
X769653Y200367D01*
X769669Y200296D01*
X769674Y200225D01*
X769695Y200177D01*
X769706Y200126D01*
X769743Y200065D01*
X769771Y199999D01*
X769815Y199943D01*
X769832Y199915D01*
X769850Y199900D01*
X769875Y199868D01*
X772327Y197416D01*
X772401Y197363D01*
X772471Y197303D01*
X772501Y197291D01*
X772527Y197272D01*
X772614Y197245D01*
X772699Y197211D01*
X772740Y197207D01*
X772762Y197200D01*
X772794Y197201D01*
X772866Y197193D01*
X858825Y197193D01*
X863307Y195336D01*
X865887Y192756D01*
X865961Y192703D01*
X866031Y192643D01*
X866061Y192631D01*
X866087Y192612D01*
X866174Y192585D01*
X866259Y192551D01*
X866300Y192547D01*
X866322Y192540D01*
X866354Y192541D01*
X866426Y192533D01*
X869702Y192533D01*
X878333Y183902D01*
X878333Y171698D01*
X869702Y163067D01*
X857498Y163067D01*
G37*
%LPD*%
%LPC*%
G36*
X793998Y48767D02*
X793998Y48767D01*
X785367Y57398D01*
X785367Y69602D01*
X793998Y78233D01*
X801048Y78233D01*
X801138Y78247D01*
X801229Y78255D01*
X801259Y78267D01*
X801291Y78272D01*
X801371Y78315D01*
X801455Y78351D01*
X801487Y78377D01*
X801508Y78388D01*
X801530Y78411D01*
X801586Y78456D01*
X844244Y121114D01*
X847979Y122661D01*
X908076Y122661D01*
X908166Y122675D01*
X908257Y122683D01*
X908287Y122695D01*
X908319Y122700D01*
X908399Y122743D01*
X908483Y122779D01*
X908515Y122805D01*
X908536Y122816D01*
X908558Y122839D01*
X908614Y122884D01*
X915700Y129970D01*
X915753Y130044D01*
X915813Y130113D01*
X915825Y130143D01*
X915844Y130169D01*
X915871Y130256D01*
X915905Y130341D01*
X915909Y130382D01*
X915916Y130405D01*
X915915Y130437D01*
X915923Y130508D01*
X915923Y138177D01*
X923592Y138177D01*
X923682Y138192D01*
X923773Y138199D01*
X923803Y138211D01*
X923835Y138217D01*
X923915Y138259D01*
X923999Y138295D01*
X924031Y138321D01*
X924052Y138332D01*
X924074Y138355D01*
X924130Y138400D01*
X924844Y139114D01*
X924897Y139188D01*
X924957Y139257D01*
X924969Y139287D01*
X924988Y139314D01*
X925015Y139400D01*
X925049Y139485D01*
X925053Y139526D01*
X925060Y139549D01*
X925059Y139581D01*
X925067Y139652D01*
X925067Y142631D01*
X927310Y148045D01*
X931455Y152190D01*
X936869Y154433D01*
X942731Y154433D01*
X948145Y152190D01*
X952290Y148045D01*
X954533Y142631D01*
X954533Y136769D01*
X952290Y131355D01*
X948145Y127210D01*
X942731Y124967D01*
X939752Y124967D01*
X939662Y124953D01*
X939571Y124945D01*
X939541Y124933D01*
X939509Y124928D01*
X939429Y124885D01*
X939345Y124849D01*
X939313Y124823D01*
X939292Y124812D01*
X939270Y124789D01*
X939214Y124744D01*
X918356Y103886D01*
X914621Y102339D01*
X854524Y102339D01*
X854434Y102325D01*
X854343Y102317D01*
X854313Y102305D01*
X854281Y102300D01*
X854201Y102257D01*
X854117Y102221D01*
X854085Y102195D01*
X854064Y102184D01*
X854042Y102161D01*
X853986Y102116D01*
X815056Y63186D01*
X815003Y63112D01*
X814943Y63043D01*
X814931Y63013D01*
X814912Y62986D01*
X814885Y62900D01*
X814851Y62815D01*
X814847Y62774D01*
X814840Y62751D01*
X814841Y62719D01*
X814833Y62648D01*
X814833Y57398D01*
X806202Y48767D01*
X793998Y48767D01*
G37*
%LPD*%
G36*
X370247Y83528D02*
X370247Y83528D01*
X370318Y83530D01*
X370367Y83548D01*
X370419Y83556D01*
X370482Y83590D01*
X370549Y83615D01*
X370590Y83647D01*
X370636Y83672D01*
X370685Y83724D01*
X370741Y83768D01*
X370770Y83812D01*
X370806Y83850D01*
X370836Y83915D01*
X370874Y83975D01*
X370887Y84026D01*
X370909Y84073D01*
X370917Y84144D01*
X370935Y84214D01*
X370930Y84266D01*
X370936Y84317D01*
X370921Y84388D01*
X370915Y84459D01*
X370895Y84507D01*
X370884Y84558D01*
X370847Y84619D01*
X370819Y84685D01*
X370774Y84741D01*
X370758Y84769D01*
X370740Y84784D01*
X370714Y84816D01*
X356186Y99344D01*
X356112Y99397D01*
X356043Y99457D01*
X356013Y99469D01*
X355986Y99488D01*
X355900Y99515D01*
X355815Y99549D01*
X355774Y99553D01*
X355751Y99560D01*
X355719Y99559D01*
X355648Y99567D01*
X349498Y99567D01*
X345148Y103916D01*
X345075Y103969D01*
X345005Y104029D01*
X344975Y104041D01*
X344949Y104060D01*
X344862Y104087D01*
X344777Y104121D01*
X344736Y104125D01*
X344714Y104132D01*
X344681Y104131D01*
X344610Y104139D01*
X333679Y104139D01*
X329944Y105686D01*
X292271Y143359D01*
X292255Y143371D01*
X292243Y143387D01*
X292155Y143443D01*
X292071Y143503D01*
X292052Y143509D01*
X292036Y143520D01*
X291935Y143545D01*
X291836Y143575D01*
X291816Y143575D01*
X291797Y143580D01*
X291694Y143572D01*
X291590Y143569D01*
X291572Y143562D01*
X291552Y143561D01*
X291457Y143520D01*
X291359Y143484D01*
X291344Y143472D01*
X291326Y143464D01*
X291195Y143359D01*
X285502Y137667D01*
X277964Y137667D01*
X277900Y137657D01*
X277834Y137656D01*
X277754Y137633D01*
X277722Y137628D01*
X277704Y137618D01*
X277673Y137609D01*
X277021Y137339D01*
X245479Y137339D01*
X244827Y137609D01*
X244763Y137624D01*
X244702Y137649D01*
X244620Y137658D01*
X244587Y137665D01*
X244568Y137664D01*
X244536Y137667D01*
X241252Y137667D01*
X241162Y137653D01*
X241071Y137645D01*
X241041Y137633D01*
X241009Y137628D01*
X240929Y137585D01*
X240845Y137549D01*
X240813Y137523D01*
X240792Y137512D01*
X240770Y137489D01*
X240714Y137444D01*
X207230Y103960D01*
X207188Y103902D01*
X207138Y103850D01*
X207116Y103803D01*
X207086Y103761D01*
X207065Y103692D01*
X207035Y103627D01*
X207029Y103575D01*
X207014Y103525D01*
X207016Y103454D01*
X207008Y103383D01*
X207019Y103332D01*
X207020Y103280D01*
X207045Y103212D01*
X207060Y103142D01*
X207087Y103097D01*
X207105Y103049D01*
X207149Y102993D01*
X207186Y102931D01*
X207226Y102897D01*
X207258Y102857D01*
X207319Y102818D01*
X207373Y102771D01*
X207421Y102752D01*
X207465Y102724D01*
X207535Y102706D01*
X207601Y102679D01*
X207673Y102671D01*
X207704Y102663D01*
X207727Y102665D01*
X207768Y102661D01*
X245476Y102661D01*
X245566Y102675D01*
X245657Y102683D01*
X245687Y102695D01*
X245719Y102700D01*
X245799Y102743D01*
X245883Y102779D01*
X245915Y102805D01*
X245936Y102816D01*
X245958Y102839D01*
X246014Y102884D01*
X264244Y121114D01*
X266041Y121858D01*
X266097Y121893D01*
X266157Y121918D01*
X266222Y121970D01*
X266250Y121988D01*
X266262Y122003D01*
X266288Y122023D01*
X273298Y129033D01*
X285502Y129033D01*
X294133Y120402D01*
X294133Y108198D01*
X285502Y99567D01*
X273298Y99567D01*
X272905Y99959D01*
X272889Y99971D01*
X272877Y99987D01*
X272790Y100043D01*
X272706Y100103D01*
X272687Y100109D01*
X272670Y100120D01*
X272569Y100145D01*
X272471Y100175D01*
X272451Y100175D01*
X272431Y100180D01*
X272328Y100172D01*
X272225Y100169D01*
X272206Y100162D01*
X272186Y100161D01*
X272091Y100120D01*
X271994Y100084D01*
X271978Y100072D01*
X271960Y100064D01*
X271829Y99959D01*
X256686Y84816D01*
X256644Y84758D01*
X256594Y84706D01*
X256572Y84659D01*
X256542Y84617D01*
X256521Y84548D01*
X256491Y84483D01*
X256485Y84431D01*
X256470Y84381D01*
X256472Y84310D01*
X256464Y84239D01*
X256475Y84188D01*
X256476Y84136D01*
X256501Y84068D01*
X256516Y83998D01*
X256543Y83953D01*
X256561Y83905D01*
X256605Y83849D01*
X256642Y83787D01*
X256682Y83753D01*
X256714Y83713D01*
X256775Y83674D01*
X256829Y83627D01*
X256877Y83608D01*
X256921Y83580D01*
X256991Y83562D01*
X257057Y83535D01*
X257129Y83527D01*
X257160Y83519D01*
X257183Y83521D01*
X257224Y83517D01*
X370176Y83517D01*
X370247Y83528D01*
G37*
%LPC*%
G36*
X806698Y201167D02*
X806698Y201167D01*
X798067Y209798D01*
X798067Y222002D01*
X806698Y230633D01*
X813448Y230633D01*
X813538Y230647D01*
X813629Y230655D01*
X813659Y230667D01*
X813691Y230672D01*
X813771Y230715D01*
X813855Y230751D01*
X813887Y230777D01*
X813908Y230788D01*
X813930Y230811D01*
X813986Y230856D01*
X837116Y253986D01*
X837169Y254060D01*
X837229Y254129D01*
X837241Y254159D01*
X837260Y254186D01*
X837287Y254272D01*
X837321Y254357D01*
X837325Y254398D01*
X837332Y254421D01*
X837331Y254453D01*
X837339Y254524D01*
X837339Y292021D01*
X838886Y295756D01*
X841744Y298614D01*
X845479Y300161D01*
X879864Y300161D01*
X879978Y300179D01*
X880095Y300197D01*
X880101Y300199D01*
X880107Y300200D01*
X880210Y300255D01*
X880314Y300308D01*
X880318Y300313D01*
X880324Y300316D01*
X880405Y300401D01*
X880486Y300484D01*
X880490Y300490D01*
X880493Y300494D01*
X880501Y300511D01*
X880567Y300631D01*
X880729Y301021D01*
X885159Y305451D01*
X890947Y307849D01*
X912453Y307849D01*
X918241Y305451D01*
X922671Y301021D01*
X925069Y295233D01*
X925069Y288967D01*
X922671Y283179D01*
X918241Y278749D01*
X912453Y276351D01*
X890947Y276351D01*
X885159Y278749D01*
X884292Y279616D01*
X884218Y279669D01*
X884148Y279729D01*
X884118Y279741D01*
X884092Y279760D01*
X884005Y279787D01*
X883920Y279821D01*
X883879Y279825D01*
X883857Y279832D01*
X883825Y279831D01*
X883753Y279839D01*
X858422Y279839D01*
X858402Y279836D01*
X858383Y279838D01*
X858281Y279816D01*
X858179Y279800D01*
X858162Y279790D01*
X858142Y279786D01*
X858053Y279733D01*
X857962Y279684D01*
X857948Y279670D01*
X857931Y279660D01*
X857864Y279581D01*
X857792Y279506D01*
X857784Y279488D01*
X857771Y279473D01*
X857732Y279377D01*
X857689Y279283D01*
X857687Y279263D01*
X857679Y279245D01*
X857661Y279078D01*
X857661Y247979D01*
X856114Y244244D01*
X827756Y215886D01*
X827703Y215812D01*
X827643Y215743D01*
X827631Y215713D01*
X827612Y215686D01*
X827585Y215600D01*
X827551Y215515D01*
X827547Y215474D01*
X827540Y215451D01*
X827541Y215419D01*
X827533Y215348D01*
X827533Y209798D01*
X818902Y201167D01*
X806698Y201167D01*
G37*
%LPD*%
G36*
X187082Y112791D02*
X187082Y112791D01*
X187173Y112799D01*
X187203Y112811D01*
X187235Y112816D01*
X187315Y112859D01*
X187399Y112895D01*
X187431Y112921D01*
X187452Y112932D01*
X187474Y112955D01*
X187530Y113000D01*
X226344Y151814D01*
X226397Y151888D01*
X226457Y151957D01*
X226469Y151987D01*
X226488Y152014D01*
X226515Y152100D01*
X226549Y152185D01*
X226553Y152226D01*
X226560Y152249D01*
X226559Y152281D01*
X226567Y152352D01*
X226567Y158502D01*
X234405Y166340D01*
X234446Y166398D01*
X234496Y166450D01*
X234518Y166497D01*
X234548Y166539D01*
X234569Y166608D01*
X234599Y166673D01*
X234605Y166725D01*
X234620Y166775D01*
X234619Y166846D01*
X234626Y166917D01*
X234615Y166968D01*
X234614Y167020D01*
X234589Y167088D01*
X234574Y167158D01*
X234548Y167203D01*
X234530Y167251D01*
X234485Y167307D01*
X234448Y167369D01*
X234408Y167403D01*
X234376Y167443D01*
X234316Y167482D01*
X234261Y167529D01*
X234213Y167548D01*
X234169Y167576D01*
X234100Y167594D01*
X234033Y167621D01*
X233962Y167629D01*
X233930Y167637D01*
X233907Y167635D01*
X233866Y167639D01*
X119194Y167639D01*
X119104Y167625D01*
X119013Y167617D01*
X118983Y167605D01*
X118951Y167600D01*
X118871Y167557D01*
X118787Y167521D01*
X118754Y167495D01*
X118734Y167484D01*
X118712Y167461D01*
X118656Y167416D01*
X116878Y165638D01*
X116866Y165622D01*
X116850Y165610D01*
X116794Y165522D01*
X116734Y165439D01*
X116728Y165420D01*
X116717Y165403D01*
X116692Y165302D01*
X116662Y165203D01*
X116662Y165184D01*
X116657Y165164D01*
X116665Y165061D01*
X116668Y164958D01*
X116675Y164939D01*
X116676Y164919D01*
X116717Y164824D01*
X116752Y164727D01*
X116765Y164711D01*
X116773Y164693D01*
X116878Y164562D01*
X120694Y160745D01*
X121777Y158131D01*
X121839Y158031D01*
X121898Y157931D01*
X121903Y157927D01*
X121906Y157922D01*
X121997Y157847D01*
X122085Y157771D01*
X122091Y157769D01*
X122096Y157765D01*
X122204Y157723D01*
X122313Y157679D01*
X122321Y157678D01*
X122326Y157677D01*
X122344Y157676D01*
X122480Y157661D01*
X133921Y157661D01*
X137656Y156114D01*
X164514Y129256D01*
X164588Y129203D01*
X164657Y129143D01*
X164687Y129131D01*
X164714Y129112D01*
X164800Y129085D01*
X164885Y129051D01*
X164926Y129047D01*
X164949Y129040D01*
X164981Y129041D01*
X165052Y129033D01*
X171202Y129033D01*
X179833Y120402D01*
X179833Y113538D01*
X179836Y113518D01*
X179834Y113499D01*
X179856Y113397D01*
X179872Y113295D01*
X179882Y113278D01*
X179886Y113258D01*
X179939Y113169D01*
X179988Y113078D01*
X180002Y113064D01*
X180012Y113047D01*
X180091Y112980D01*
X180166Y112908D01*
X180184Y112900D01*
X180199Y112887D01*
X180295Y112848D01*
X180389Y112805D01*
X180409Y112803D01*
X180427Y112795D01*
X180594Y112777D01*
X186992Y112777D01*
X187082Y112791D01*
G37*
%LPC*%
G36*
X662347Y390651D02*
X662347Y390651D01*
X658412Y392281D01*
X658348Y392296D01*
X658287Y392321D01*
X658205Y392330D01*
X658173Y392337D01*
X658153Y392336D01*
X658121Y392339D01*
X597979Y392339D01*
X594244Y393886D01*
X591279Y396851D01*
X583986Y404144D01*
X583912Y404197D01*
X583843Y404257D01*
X583813Y404269D01*
X583787Y404288D01*
X583700Y404315D01*
X583615Y404349D01*
X583574Y404353D01*
X583551Y404360D01*
X583519Y404359D01*
X583448Y404367D01*
X578098Y404367D01*
X569467Y412998D01*
X569467Y425202D01*
X578098Y433833D01*
X590302Y433833D01*
X598933Y425202D01*
X598933Y418252D01*
X598947Y418162D01*
X598955Y418071D01*
X598967Y418041D01*
X598972Y418009D01*
X599015Y417929D01*
X599051Y417845D01*
X599077Y417813D01*
X599088Y417792D01*
X599111Y417770D01*
X599156Y417714D01*
X603986Y412884D01*
X604060Y412831D01*
X604129Y412771D01*
X604159Y412759D01*
X604186Y412740D01*
X604273Y412713D01*
X604357Y412679D01*
X604398Y412675D01*
X604421Y412668D01*
X604453Y412669D01*
X604524Y412661D01*
X650518Y412661D01*
X650633Y412680D01*
X650749Y412697D01*
X650755Y412699D01*
X650761Y412700D01*
X650864Y412755D01*
X650969Y412808D01*
X650973Y412813D01*
X650978Y412816D01*
X651058Y412900D01*
X651141Y412984D01*
X651144Y412990D01*
X651148Y412994D01*
X651156Y413011D01*
X651222Y413131D01*
X652129Y415321D01*
X656559Y419751D01*
X662347Y422149D01*
X683853Y422149D01*
X689641Y419751D01*
X694071Y415321D01*
X696469Y409533D01*
X696469Y403267D01*
X694071Y397479D01*
X689641Y393049D01*
X683853Y390651D01*
X662347Y390651D01*
G37*
%LPD*%
%LPC*%
G36*
X511165Y340867D02*
X511165Y340867D01*
X505751Y343110D01*
X501606Y347255D01*
X499363Y352669D01*
X499363Y358531D01*
X501606Y363945D01*
X505422Y367762D01*
X505434Y367778D01*
X505450Y367790D01*
X505506Y367878D01*
X505566Y367961D01*
X505572Y367980D01*
X505583Y367997D01*
X505608Y368098D01*
X505638Y368197D01*
X505638Y368216D01*
X505643Y368236D01*
X505635Y368339D01*
X505632Y368442D01*
X505625Y368461D01*
X505624Y368481D01*
X505583Y368576D01*
X505548Y368673D01*
X505535Y368689D01*
X505527Y368707D01*
X505422Y368838D01*
X501606Y372655D01*
X499363Y378069D01*
X499363Y383931D01*
X501606Y389345D01*
X505751Y393490D01*
X511165Y395733D01*
X530235Y395733D01*
X535649Y393490D01*
X539794Y389345D01*
X542037Y383931D01*
X542037Y378069D01*
X539794Y372655D01*
X535978Y368838D01*
X535966Y368822D01*
X535950Y368810D01*
X535894Y368722D01*
X535834Y368639D01*
X535828Y368620D01*
X535817Y368603D01*
X535792Y368502D01*
X535762Y368403D01*
X535762Y368384D01*
X535757Y368364D01*
X535765Y368261D01*
X535768Y368158D01*
X535775Y368139D01*
X535776Y368119D01*
X535817Y368024D01*
X535852Y367927D01*
X535865Y367911D01*
X535873Y367893D01*
X535978Y367762D01*
X539794Y363945D01*
X542037Y358531D01*
X542037Y352669D01*
X539794Y347255D01*
X535649Y343110D01*
X530235Y340867D01*
X511165Y340867D01*
G37*
%LPD*%
G36*
X167914Y187964D02*
X167914Y187964D01*
X167933Y187962D01*
X168035Y187984D01*
X168137Y188000D01*
X168154Y188010D01*
X168174Y188014D01*
X168263Y188067D01*
X168354Y188116D01*
X168368Y188130D01*
X168385Y188140D01*
X168452Y188219D01*
X168524Y188294D01*
X168532Y188312D01*
X168545Y188327D01*
X168584Y188423D01*
X168627Y188517D01*
X168629Y188537D01*
X168637Y188555D01*
X168655Y188722D01*
X168655Y188977D01*
X177038Y188977D01*
X177058Y188980D01*
X177077Y188978D01*
X177179Y189000D01*
X177281Y189017D01*
X177298Y189026D01*
X177318Y189030D01*
X177407Y189083D01*
X177498Y189132D01*
X177512Y189146D01*
X177529Y189156D01*
X177596Y189235D01*
X177667Y189310D01*
X177676Y189328D01*
X177689Y189343D01*
X177727Y189439D01*
X177771Y189533D01*
X177773Y189553D01*
X177781Y189571D01*
X177799Y189738D01*
X177799Y190501D01*
X177801Y190501D01*
X177801Y189738D01*
X177804Y189718D01*
X177802Y189699D01*
X177824Y189597D01*
X177841Y189495D01*
X177850Y189478D01*
X177854Y189458D01*
X177907Y189369D01*
X177956Y189278D01*
X177970Y189264D01*
X177980Y189247D01*
X178059Y189180D01*
X178134Y189109D01*
X178152Y189100D01*
X178167Y189087D01*
X178263Y189048D01*
X178357Y189005D01*
X178377Y189003D01*
X178395Y188995D01*
X178562Y188977D01*
X186945Y188977D01*
X186945Y188722D01*
X186948Y188702D01*
X186946Y188683D01*
X186968Y188581D01*
X186984Y188479D01*
X186994Y188462D01*
X186998Y188442D01*
X187051Y188353D01*
X187100Y188262D01*
X187114Y188248D01*
X187124Y188231D01*
X187203Y188164D01*
X187278Y188092D01*
X187296Y188084D01*
X187311Y188071D01*
X187407Y188032D01*
X187501Y187989D01*
X187521Y187987D01*
X187539Y187979D01*
X187706Y187961D01*
X187726Y187964D01*
X187745Y187962D01*
X187847Y187984D01*
X187949Y188000D01*
X187966Y188010D01*
X187986Y188014D01*
X188075Y188067D01*
X188166Y188116D01*
X188180Y188130D01*
X188197Y188140D01*
X188264Y188219D01*
X188336Y188294D01*
X188344Y188312D01*
X188357Y188327D01*
X188396Y188423D01*
X188439Y188517D01*
X188441Y188537D01*
X188449Y188555D01*
X188467Y188722D01*
X188467Y196602D01*
X194273Y202408D01*
X194284Y202424D01*
X194300Y202436D01*
X194356Y202524D01*
X194416Y202607D01*
X194422Y202626D01*
X194433Y202643D01*
X194458Y202744D01*
X194488Y202843D01*
X194488Y202862D01*
X194493Y202882D01*
X194485Y202985D01*
X194482Y203088D01*
X194475Y203107D01*
X194474Y203127D01*
X194433Y203222D01*
X194398Y203319D01*
X194385Y203335D01*
X194377Y203353D01*
X194273Y203484D01*
X187673Y210084D01*
X187599Y210137D01*
X187529Y210197D01*
X187499Y210209D01*
X187473Y210228D01*
X187386Y210255D01*
X187301Y210289D01*
X187260Y210293D01*
X187238Y210300D01*
X187206Y210299D01*
X187134Y210307D01*
X177575Y210307D01*
X173093Y212164D01*
X169664Y215593D01*
X169270Y216543D01*
X169246Y216582D01*
X169230Y216625D01*
X169182Y216685D01*
X169141Y216752D01*
X169105Y216781D01*
X169077Y216817D01*
X169011Y216859D01*
X168951Y216908D01*
X168908Y216925D01*
X168870Y216950D01*
X168794Y216969D01*
X168722Y216997D01*
X168676Y216999D01*
X168631Y217010D01*
X168554Y217004D01*
X168476Y217007D01*
X168432Y216994D01*
X168386Y216991D01*
X168314Y216960D01*
X168240Y216939D01*
X168202Y216912D01*
X168160Y216894D01*
X168053Y216809D01*
X168038Y216798D01*
X168035Y216794D01*
X168029Y216790D01*
X167349Y216110D01*
X161935Y213867D01*
X142865Y213867D01*
X137451Y216110D01*
X133306Y220255D01*
X131063Y225669D01*
X131063Y231531D01*
X133306Y236945D01*
X137122Y240762D01*
X137134Y240778D01*
X137150Y240790D01*
X137206Y240878D01*
X137266Y240961D01*
X137272Y240980D01*
X137283Y240997D01*
X137308Y241098D01*
X137338Y241197D01*
X137338Y241216D01*
X137343Y241236D01*
X137335Y241339D01*
X137332Y241442D01*
X137325Y241461D01*
X137324Y241481D01*
X137283Y241576D01*
X137248Y241673D01*
X137235Y241689D01*
X137227Y241707D01*
X137122Y241838D01*
X133703Y245257D01*
X133687Y245269D01*
X133675Y245285D01*
X133587Y245341D01*
X133504Y245401D01*
X133485Y245407D01*
X133468Y245418D01*
X133367Y245443D01*
X133269Y245473D01*
X133249Y245473D01*
X133229Y245478D01*
X133126Y245470D01*
X133023Y245467D01*
X133004Y245460D01*
X132984Y245459D01*
X132889Y245418D01*
X132792Y245382D01*
X132776Y245370D01*
X132758Y245362D01*
X132627Y245257D01*
X127884Y240514D01*
X127831Y240440D01*
X127771Y240371D01*
X127759Y240341D01*
X127740Y240314D01*
X127713Y240227D01*
X127679Y240143D01*
X127675Y240102D01*
X127668Y240079D01*
X127669Y240047D01*
X127661Y239976D01*
X127661Y214807D01*
X126114Y211072D01*
X108874Y193832D01*
X108832Y193774D01*
X108783Y193722D01*
X108761Y193675D01*
X108730Y193633D01*
X108709Y193564D01*
X108679Y193499D01*
X108673Y193447D01*
X108658Y193397D01*
X108660Y193326D01*
X108652Y193255D01*
X108663Y193204D01*
X108664Y193152D01*
X108689Y193084D01*
X108704Y193014D01*
X108731Y192969D01*
X108749Y192921D01*
X108794Y192865D01*
X108831Y192803D01*
X108870Y192769D01*
X108903Y192729D01*
X108963Y192690D01*
X109017Y192643D01*
X109066Y192624D01*
X109110Y192596D01*
X109179Y192578D01*
X109246Y192551D01*
X109317Y192543D01*
X109348Y192535D01*
X109371Y192537D01*
X109412Y192533D01*
X111135Y192533D01*
X116549Y190290D01*
X118656Y188184D01*
X118729Y188131D01*
X118799Y188071D01*
X118829Y188059D01*
X118855Y188040D01*
X118942Y188013D01*
X119027Y187979D01*
X119068Y187975D01*
X119090Y187968D01*
X119123Y187969D01*
X119194Y187961D01*
X167894Y187961D01*
X167914Y187964D01*
G37*
%LPC*%
G36*
X908298Y163067D02*
X908298Y163067D01*
X899667Y171698D01*
X899667Y183902D01*
X908298Y192533D01*
X920502Y192533D01*
X926562Y186473D01*
X926578Y186462D01*
X926590Y186446D01*
X926661Y186401D01*
X926691Y186375D01*
X926708Y186368D01*
X926761Y186330D01*
X926780Y186324D01*
X926797Y186313D01*
X926898Y186288D01*
X926997Y186258D01*
X927016Y186258D01*
X927036Y186253D01*
X927139Y186261D01*
X927242Y186264D01*
X927261Y186271D01*
X927281Y186272D01*
X927357Y186305D01*
X927358Y186305D01*
X927376Y186313D01*
X927473Y186348D01*
X927489Y186361D01*
X927507Y186369D01*
X927565Y186414D01*
X927575Y186420D01*
X927585Y186431D01*
X927638Y186473D01*
X933698Y192533D01*
X945902Y192533D01*
X954533Y183902D01*
X954533Y171698D01*
X945902Y163067D01*
X933698Y163067D01*
X927638Y169127D01*
X927622Y169138D01*
X927610Y169154D01*
X927522Y169210D01*
X927439Y169270D01*
X927420Y169276D01*
X927403Y169287D01*
X927302Y169312D01*
X927203Y169342D01*
X927184Y169342D01*
X927164Y169347D01*
X927061Y169339D01*
X926958Y169336D01*
X926939Y169329D01*
X926919Y169328D01*
X926824Y169287D01*
X926727Y169252D01*
X926711Y169239D01*
X926693Y169231D01*
X926562Y169127D01*
X920502Y163067D01*
X908298Y163067D01*
G37*
%LPD*%
%LPC*%
G36*
X860669Y124967D02*
X860669Y124967D01*
X855255Y127210D01*
X851110Y131355D01*
X848867Y136769D01*
X848867Y142631D01*
X851110Y148045D01*
X855255Y152190D01*
X860669Y154433D01*
X866531Y154433D01*
X871945Y152190D01*
X875762Y148374D01*
X875778Y148362D01*
X875790Y148346D01*
X875878Y148290D01*
X875961Y148230D01*
X875980Y148224D01*
X875997Y148213D01*
X876098Y148188D01*
X876197Y148158D01*
X876216Y148158D01*
X876236Y148153D01*
X876339Y148161D01*
X876442Y148164D01*
X876461Y148171D01*
X876481Y148172D01*
X876576Y148213D01*
X876673Y148248D01*
X876689Y148261D01*
X876707Y148269D01*
X876838Y148374D01*
X880655Y152190D01*
X886069Y154433D01*
X891931Y154433D01*
X897345Y152190D01*
X901490Y148045D01*
X903733Y142631D01*
X903733Y136769D01*
X901490Y131355D01*
X897345Y127210D01*
X891931Y124967D01*
X886069Y124967D01*
X880655Y127210D01*
X876838Y131026D01*
X876822Y131038D01*
X876810Y131054D01*
X876722Y131110D01*
X876639Y131170D01*
X876620Y131176D01*
X876603Y131187D01*
X876502Y131212D01*
X876403Y131242D01*
X876384Y131242D01*
X876364Y131247D01*
X876261Y131239D01*
X876158Y131236D01*
X876139Y131229D01*
X876119Y131228D01*
X876024Y131187D01*
X875927Y131152D01*
X875911Y131139D01*
X875893Y131131D01*
X875762Y131026D01*
X871945Y127210D01*
X866531Y124967D01*
X860669Y124967D01*
G37*
%LPD*%
%LPC*%
G36*
X923967Y217931D02*
X923967Y217931D01*
X918179Y220329D01*
X913749Y224759D01*
X911351Y230547D01*
X911351Y252053D01*
X913749Y257841D01*
X918179Y262271D01*
X923967Y264669D01*
X930233Y264669D01*
X936021Y262271D01*
X940451Y257841D01*
X942849Y252053D01*
X942849Y230547D01*
X940451Y224759D01*
X936021Y220329D01*
X930233Y217931D01*
X923967Y217931D01*
G37*
%LPD*%
%LPC*%
G36*
X873167Y217931D02*
X873167Y217931D01*
X867379Y220329D01*
X862949Y224759D01*
X860551Y230547D01*
X860551Y252053D01*
X862949Y257841D01*
X867379Y262271D01*
X873167Y264669D01*
X879433Y264669D01*
X885221Y262271D01*
X889651Y257841D01*
X892049Y252053D01*
X892049Y230547D01*
X889651Y224759D01*
X885221Y220329D01*
X879433Y217931D01*
X873167Y217931D01*
G37*
%LPD*%
%LPC*%
G36*
X433747Y136651D02*
X433747Y136651D01*
X427959Y139049D01*
X423529Y143479D01*
X421131Y149267D01*
X421131Y155533D01*
X423529Y161321D01*
X427959Y165751D01*
X433747Y168149D01*
X455253Y168149D01*
X461041Y165751D01*
X465471Y161321D01*
X467869Y155533D01*
X467869Y149267D01*
X465471Y143479D01*
X461041Y139049D01*
X455253Y136651D01*
X433747Y136651D01*
G37*
%LPD*%
%LPC*%
G36*
X377211Y488949D02*
X377211Y488949D01*
X370209Y491850D01*
X364850Y497209D01*
X361949Y504211D01*
X361949Y511789D01*
X364850Y518791D01*
X370209Y524150D01*
X377211Y527051D01*
X384789Y527051D01*
X391791Y524150D01*
X397150Y518791D01*
X400051Y511789D01*
X400051Y504211D01*
X397150Y497209D01*
X391791Y491850D01*
X384789Y488949D01*
X377211Y488949D01*
G37*
%LPD*%
%LPC*%
G36*
X835211Y488949D02*
X835211Y488949D01*
X828209Y491850D01*
X822850Y497209D01*
X819949Y504211D01*
X819949Y511789D01*
X822850Y518791D01*
X828209Y524150D01*
X835211Y527051D01*
X842789Y527051D01*
X849791Y524150D01*
X855150Y518791D01*
X858051Y511789D01*
X858051Y504211D01*
X855150Y497209D01*
X849791Y491850D01*
X842789Y488949D01*
X835211Y488949D01*
G37*
%LPD*%
%LPC*%
G36*
X885211Y488949D02*
X885211Y488949D01*
X878209Y491850D01*
X872850Y497209D01*
X869949Y504211D01*
X869949Y511789D01*
X872850Y518791D01*
X878209Y524150D01*
X885211Y527051D01*
X892789Y527051D01*
X899791Y524150D01*
X905150Y518791D01*
X908051Y511789D01*
X908051Y504211D01*
X905150Y497209D01*
X899791Y491850D01*
X892789Y488949D01*
X885211Y488949D01*
G37*
%LPD*%
%LPC*%
G36*
X935211Y488949D02*
X935211Y488949D01*
X928209Y491850D01*
X922850Y497209D01*
X919949Y504211D01*
X919949Y511789D01*
X922850Y518791D01*
X928209Y524150D01*
X935211Y527051D01*
X942789Y527051D01*
X949791Y524150D01*
X955150Y518791D01*
X958051Y511789D01*
X958051Y504211D01*
X955150Y497209D01*
X949791Y491850D01*
X942789Y488949D01*
X935211Y488949D01*
G37*
%LPD*%
%LPC*%
G36*
X605811Y488949D02*
X605811Y488949D01*
X598809Y491850D01*
X593450Y497209D01*
X590549Y504211D01*
X590549Y511789D01*
X593450Y518791D01*
X598809Y524150D01*
X605811Y527051D01*
X613389Y527051D01*
X620391Y524150D01*
X625750Y518791D01*
X628651Y511789D01*
X628651Y504211D01*
X625750Y497209D01*
X620391Y491850D01*
X613389Y488949D01*
X605811Y488949D01*
G37*
%LPD*%
%LPC*%
G36*
X108783Y465571D02*
X108783Y465571D01*
X105795Y466809D01*
X103509Y469095D01*
X102271Y472083D01*
X102271Y493317D01*
X103509Y496305D01*
X105795Y498591D01*
X108783Y499829D01*
X130017Y499829D01*
X133005Y498591D01*
X135291Y496305D01*
X136529Y493317D01*
X136529Y472083D01*
X135291Y469095D01*
X133005Y466809D01*
X130017Y465571D01*
X108783Y465571D01*
G37*
%LPD*%
%LPC*%
G36*
X803265Y124967D02*
X803265Y124967D01*
X797851Y127210D01*
X793706Y131355D01*
X791463Y136769D01*
X791463Y142631D01*
X793706Y148045D01*
X797851Y152190D01*
X803265Y154433D01*
X822335Y154433D01*
X827749Y152190D01*
X831894Y148045D01*
X834137Y142631D01*
X834137Y136769D01*
X831894Y131355D01*
X827749Y127210D01*
X822335Y124967D01*
X803265Y124967D01*
G37*
%LPD*%
%LPC*%
G36*
X95498Y391667D02*
X95498Y391667D01*
X86867Y400298D01*
X86867Y412502D01*
X95498Y421133D01*
X107702Y421133D01*
X116333Y412502D01*
X116333Y400298D01*
X107702Y391667D01*
X95498Y391667D01*
G37*
%LPD*%
%LPC*%
G36*
X857498Y366267D02*
X857498Y366267D01*
X848867Y374898D01*
X848867Y387102D01*
X857498Y395733D01*
X869702Y395733D01*
X878333Y387102D01*
X878333Y374898D01*
X869702Y366267D01*
X857498Y366267D01*
G37*
%LPD*%
%LPC*%
G36*
X933698Y366267D02*
X933698Y366267D01*
X925067Y374898D01*
X925067Y387102D01*
X933698Y395733D01*
X945902Y395733D01*
X954533Y387102D01*
X954533Y374898D01*
X945902Y366267D01*
X933698Y366267D01*
G37*
%LPD*%
%LPC*%
G36*
X95498Y353567D02*
X95498Y353567D01*
X86867Y362198D01*
X86867Y374402D01*
X95498Y383033D01*
X107702Y383033D01*
X116333Y374402D01*
X116333Y362198D01*
X107702Y353567D01*
X95498Y353567D01*
G37*
%LPD*%
%LPC*%
G36*
X933698Y328167D02*
X933698Y328167D01*
X925067Y336798D01*
X925067Y349002D01*
X933698Y357633D01*
X945902Y357633D01*
X954533Y349002D01*
X954533Y336798D01*
X945902Y328167D01*
X933698Y328167D01*
G37*
%LPD*%
%LPC*%
G36*
X857498Y328167D02*
X857498Y328167D01*
X848867Y336798D01*
X848867Y349002D01*
X857498Y357633D01*
X869702Y357633D01*
X878333Y349002D01*
X878333Y336798D01*
X869702Y328167D01*
X857498Y328167D01*
G37*
%LPD*%
%LPC*%
G36*
X578098Y328167D02*
X578098Y328167D01*
X569467Y336798D01*
X569467Y349002D01*
X578098Y357633D01*
X590302Y357633D01*
X598933Y349002D01*
X598933Y336798D01*
X590302Y328167D01*
X578098Y328167D01*
G37*
%LPD*%
%LPC*%
G36*
X95498Y315467D02*
X95498Y315467D01*
X86867Y324098D01*
X86867Y336302D01*
X95498Y344933D01*
X107702Y344933D01*
X116333Y336302D01*
X116333Y324098D01*
X107702Y315467D01*
X95498Y315467D01*
G37*
%LPD*%
%LPC*%
G36*
X451098Y251967D02*
X451098Y251967D01*
X442467Y260598D01*
X442467Y272802D01*
X451098Y281433D01*
X463302Y281433D01*
X471933Y272802D01*
X471933Y260598D01*
X463302Y251967D01*
X451098Y251967D01*
G37*
%LPD*%
%LPC*%
G36*
X171698Y404367D02*
X171698Y404367D01*
X163067Y412998D01*
X163067Y425202D01*
X171698Y433833D01*
X183902Y433833D01*
X192533Y425202D01*
X192533Y412998D01*
X183902Y404367D01*
X171698Y404367D01*
G37*
%LPD*%
%LPC*%
G36*
X95498Y264667D02*
X95498Y264667D01*
X86867Y273298D01*
X86867Y285502D01*
X95498Y294133D01*
X107702Y294133D01*
X116333Y285502D01*
X116333Y273298D01*
X107702Y264667D01*
X95498Y264667D01*
G37*
%LPD*%
%LPC*%
G36*
X806698Y277367D02*
X806698Y277367D01*
X798067Y285998D01*
X798067Y298202D01*
X806698Y306833D01*
X818902Y306833D01*
X827533Y298202D01*
X827533Y285998D01*
X818902Y277367D01*
X806698Y277367D01*
G37*
%LPD*%
%LPC*%
G36*
X489198Y277367D02*
X489198Y277367D01*
X480567Y285998D01*
X480567Y298202D01*
X489198Y306833D01*
X501402Y306833D01*
X510033Y298202D01*
X510033Y285998D01*
X501402Y277367D01*
X489198Y277367D01*
G37*
%LPD*%
%LPC*%
G36*
X781298Y417067D02*
X781298Y417067D01*
X772667Y425698D01*
X772667Y437902D01*
X781298Y446533D01*
X793502Y446533D01*
X802133Y437902D01*
X802133Y425698D01*
X793502Y417067D01*
X781298Y417067D01*
G37*
%LPD*%
%LPC*%
G36*
X616198Y277367D02*
X616198Y277367D01*
X607567Y285998D01*
X607567Y298202D01*
X616198Y306833D01*
X628402Y306833D01*
X637033Y298202D01*
X637033Y285998D01*
X628402Y277367D01*
X616198Y277367D01*
G37*
%LPD*%
%LPC*%
G36*
X768598Y277367D02*
X768598Y277367D01*
X759967Y285998D01*
X759967Y298202D01*
X768598Y306833D01*
X780802Y306833D01*
X789433Y298202D01*
X789433Y285998D01*
X780802Y277367D01*
X768598Y277367D01*
G37*
%LPD*%
%LPC*%
G36*
X933698Y404367D02*
X933698Y404367D01*
X925067Y412998D01*
X925067Y425202D01*
X933698Y433833D01*
X945902Y433833D01*
X954533Y425202D01*
X954533Y412998D01*
X945902Y404367D01*
X933698Y404367D01*
G37*
%LPD*%
%LPC*%
G36*
X451098Y290067D02*
X451098Y290067D01*
X442467Y298698D01*
X442467Y310902D01*
X451098Y319533D01*
X463302Y319533D01*
X471933Y310902D01*
X471933Y298698D01*
X463302Y290067D01*
X451098Y290067D01*
G37*
%LPD*%
%LPC*%
G36*
X717798Y48767D02*
X717798Y48767D01*
X709167Y57398D01*
X709167Y69602D01*
X717798Y78233D01*
X730002Y78233D01*
X738633Y69602D01*
X738633Y57398D01*
X730002Y48767D01*
X717798Y48767D01*
G37*
%LPD*%
%LPC*%
G36*
X936869Y48767D02*
X936869Y48767D01*
X931455Y51010D01*
X927310Y55155D01*
X925067Y60569D01*
X925067Y66431D01*
X927310Y71845D01*
X931455Y75990D01*
X936869Y78233D01*
X942731Y78233D01*
X948145Y75990D01*
X952290Y71845D01*
X954533Y66431D01*
X954533Y60569D01*
X952290Y55155D01*
X948145Y51010D01*
X942731Y48767D01*
X936869Y48767D01*
G37*
%LPD*%
%LPC*%
G36*
X711123Y509523D02*
X711123Y509523D01*
X711123Y521389D01*
X712752Y521131D01*
X714768Y520476D01*
X716656Y519514D01*
X718370Y518269D01*
X719869Y516770D01*
X721114Y515056D01*
X722076Y513168D01*
X722731Y511152D01*
X722989Y509523D01*
X711123Y509523D01*
G37*
%LPD*%
%LPC*%
G36*
X696211Y509523D02*
X696211Y509523D01*
X696469Y511152D01*
X697124Y513168D01*
X698086Y515056D01*
X699331Y516770D01*
X700830Y518269D01*
X702544Y519514D01*
X704432Y520476D01*
X706448Y521131D01*
X708077Y521389D01*
X708077Y509523D01*
X696211Y509523D01*
G37*
%LPD*%
%LPC*%
G36*
X711123Y506477D02*
X711123Y506477D01*
X722989Y506477D01*
X722731Y504848D01*
X722076Y502832D01*
X721114Y500944D01*
X719869Y499230D01*
X718370Y497731D01*
X716656Y496486D01*
X714768Y495524D01*
X712752Y494869D01*
X711123Y494611D01*
X711123Y506477D01*
G37*
%LPD*%
%LPC*%
G36*
X706448Y494869D02*
X706448Y494869D01*
X704432Y495524D01*
X702544Y496486D01*
X700830Y497731D01*
X699331Y499230D01*
X698086Y500944D01*
X697124Y502832D01*
X696469Y504848D01*
X696211Y506477D01*
X708077Y506477D01*
X708077Y494611D01*
X706448Y494869D01*
G37*
%LPD*%
%LPC*%
G36*
X179323Y522223D02*
X179323Y522223D01*
X179323Y532241D01*
X187134Y532241D01*
X187781Y532068D01*
X188360Y531733D01*
X188833Y531260D01*
X189168Y530681D01*
X189341Y530034D01*
X189341Y522223D01*
X179323Y522223D01*
G37*
%LPD*%
%LPC*%
G36*
X273323Y522223D02*
X273323Y522223D01*
X273323Y532241D01*
X281134Y532241D01*
X281781Y532068D01*
X282360Y531733D01*
X282833Y531260D01*
X283168Y530681D01*
X283341Y530034D01*
X283341Y522223D01*
X273323Y522223D01*
G37*
%LPD*%
%LPC*%
G36*
X26923Y522223D02*
X26923Y522223D01*
X26923Y532241D01*
X34734Y532241D01*
X35381Y532068D01*
X35960Y531733D01*
X36433Y531260D01*
X36768Y530681D01*
X36941Y530034D01*
X36941Y522223D01*
X26923Y522223D01*
G37*
%LPD*%
%LPC*%
G36*
X120923Y522223D02*
X120923Y522223D01*
X120923Y532241D01*
X128734Y532241D01*
X129381Y532068D01*
X129960Y531733D01*
X130433Y531260D01*
X130768Y530681D01*
X130941Y530034D01*
X130941Y522223D01*
X120923Y522223D01*
G37*
%LPD*%
%LPC*%
G36*
X273323Y484223D02*
X273323Y484223D01*
X273323Y494241D01*
X281134Y494241D01*
X281781Y494068D01*
X282360Y493733D01*
X282833Y493260D01*
X283168Y492681D01*
X283341Y492034D01*
X283341Y484223D01*
X273323Y484223D01*
G37*
%LPD*%
%LPC*%
G36*
X13859Y522223D02*
X13859Y522223D01*
X13859Y530034D01*
X14032Y530681D01*
X14367Y531260D01*
X14840Y531733D01*
X15419Y532068D01*
X16066Y532241D01*
X23877Y532241D01*
X23877Y522223D01*
X13859Y522223D01*
G37*
%LPD*%
%LPC*%
G36*
X260259Y522223D02*
X260259Y522223D01*
X260259Y530034D01*
X260432Y530681D01*
X260767Y531260D01*
X261240Y531733D01*
X261819Y532068D01*
X262466Y532241D01*
X270277Y532241D01*
X270277Y522223D01*
X260259Y522223D01*
G37*
%LPD*%
%LPC*%
G36*
X166259Y522223D02*
X166259Y522223D01*
X166259Y530034D01*
X166432Y530681D01*
X166767Y531260D01*
X167240Y531733D01*
X167819Y532068D01*
X168466Y532241D01*
X176277Y532241D01*
X176277Y522223D01*
X166259Y522223D01*
G37*
%LPD*%
%LPC*%
G36*
X260259Y484223D02*
X260259Y484223D01*
X260259Y492034D01*
X260432Y492681D01*
X260767Y493260D01*
X261240Y493733D01*
X261819Y494068D01*
X262466Y494241D01*
X270277Y494241D01*
X270277Y484223D01*
X260259Y484223D01*
G37*
%LPD*%
%LPC*%
G36*
X26923Y509159D02*
X26923Y509159D01*
X26923Y519177D01*
X36941Y519177D01*
X36941Y511366D01*
X36768Y510719D01*
X36433Y510140D01*
X35960Y509667D01*
X35381Y509332D01*
X34734Y509159D01*
X26923Y509159D01*
G37*
%LPD*%
%LPC*%
G36*
X107859Y522223D02*
X107859Y522223D01*
X107859Y530034D01*
X108032Y530681D01*
X108367Y531260D01*
X108840Y531733D01*
X109419Y532068D01*
X110066Y532241D01*
X117877Y532241D01*
X117877Y522223D01*
X107859Y522223D01*
G37*
%LPD*%
%LPC*%
G36*
X179323Y509159D02*
X179323Y509159D01*
X179323Y519177D01*
X189341Y519177D01*
X189341Y511366D01*
X189168Y510719D01*
X188833Y510140D01*
X188360Y509667D01*
X187781Y509332D01*
X187134Y509159D01*
X179323Y509159D01*
G37*
%LPD*%
%LPC*%
G36*
X273323Y509159D02*
X273323Y509159D01*
X273323Y519177D01*
X283341Y519177D01*
X283341Y511366D01*
X283168Y510719D01*
X282833Y510140D01*
X282360Y509667D01*
X281781Y509332D01*
X281134Y509159D01*
X273323Y509159D01*
G37*
%LPD*%
%LPC*%
G36*
X120923Y509159D02*
X120923Y509159D01*
X120923Y519177D01*
X130941Y519177D01*
X130941Y511366D01*
X130768Y510719D01*
X130433Y510140D01*
X129960Y509667D01*
X129381Y509332D01*
X128734Y509159D01*
X120923Y509159D01*
G37*
%LPD*%
%LPC*%
G36*
X273323Y471159D02*
X273323Y471159D01*
X273323Y481177D01*
X283341Y481177D01*
X283341Y473366D01*
X283168Y472719D01*
X282833Y472140D01*
X282360Y471667D01*
X281781Y471332D01*
X281134Y471159D01*
X273323Y471159D01*
G37*
%LPD*%
%LPC*%
G36*
X168466Y509159D02*
X168466Y509159D01*
X167819Y509332D01*
X167240Y509667D01*
X166767Y510140D01*
X166432Y510719D01*
X166259Y511366D01*
X166259Y519177D01*
X176277Y519177D01*
X176277Y509159D01*
X168466Y509159D01*
G37*
%LPD*%
%LPC*%
G36*
X262466Y509159D02*
X262466Y509159D01*
X261819Y509332D01*
X261240Y509667D01*
X260767Y510140D01*
X260432Y510719D01*
X260259Y511366D01*
X260259Y519177D01*
X270277Y519177D01*
X270277Y509159D01*
X262466Y509159D01*
G37*
%LPD*%
%LPC*%
G36*
X110066Y509159D02*
X110066Y509159D01*
X109419Y509332D01*
X108840Y509667D01*
X108367Y510140D01*
X108032Y510719D01*
X107859Y511366D01*
X107859Y519177D01*
X117877Y519177D01*
X117877Y509159D01*
X110066Y509159D01*
G37*
%LPD*%
%LPC*%
G36*
X262466Y471159D02*
X262466Y471159D01*
X261819Y471332D01*
X261240Y471667D01*
X260767Y472140D01*
X260432Y472719D01*
X260259Y473366D01*
X260259Y481177D01*
X270277Y481177D01*
X270277Y471159D01*
X262466Y471159D01*
G37*
%LPD*%
%LPC*%
G36*
X16066Y509159D02*
X16066Y509159D01*
X15419Y509332D01*
X14840Y509667D01*
X14367Y510140D01*
X14032Y510719D01*
X13859Y511366D01*
X13859Y519177D01*
X23877Y519177D01*
X23877Y509159D01*
X16066Y509159D01*
G37*
%LPD*%
%LPC*%
G36*
X522223Y407923D02*
X522223Y407923D01*
X522223Y415545D01*
X528205Y415545D01*
X529971Y415193D01*
X531636Y414504D01*
X533134Y413503D01*
X534407Y412230D01*
X535408Y410732D01*
X536097Y409067D01*
X536325Y407923D01*
X522223Y407923D01*
G37*
%LPD*%
%LPC*%
G36*
X212975Y331723D02*
X212975Y331723D01*
X213203Y332867D01*
X213892Y334532D01*
X214893Y336030D01*
X216166Y337303D01*
X217664Y338304D01*
X219329Y338993D01*
X221095Y339345D01*
X227077Y339345D01*
X227077Y331723D01*
X212975Y331723D01*
G37*
%LPD*%
%LPC*%
G36*
X505075Y407923D02*
X505075Y407923D01*
X505303Y409067D01*
X505992Y410732D01*
X506993Y412230D01*
X508266Y413503D01*
X509764Y414504D01*
X511429Y415193D01*
X513195Y415545D01*
X519177Y415545D01*
X519177Y407923D01*
X505075Y407923D01*
G37*
%LPD*%
%LPC*%
G36*
X522223Y397255D02*
X522223Y397255D01*
X522223Y404877D01*
X536325Y404877D01*
X536097Y403733D01*
X535408Y402068D01*
X534407Y400570D01*
X533134Y399297D01*
X531636Y398296D01*
X529971Y397607D01*
X528205Y397255D01*
X522223Y397255D01*
G37*
%LPD*%
%LPC*%
G36*
X221095Y321055D02*
X221095Y321055D01*
X219329Y321407D01*
X217664Y322096D01*
X216166Y323097D01*
X214893Y324370D01*
X213892Y325868D01*
X213203Y327533D01*
X212975Y328677D01*
X227077Y328677D01*
X227077Y321055D01*
X221095Y321055D01*
G37*
%LPD*%
%LPC*%
G36*
X513195Y397255D02*
X513195Y397255D01*
X511429Y397607D01*
X509764Y398296D01*
X508266Y399297D01*
X506993Y400570D01*
X505992Y402068D01*
X505303Y403733D01*
X505075Y404877D01*
X519177Y404877D01*
X519177Y397255D01*
X513195Y397255D01*
G37*
%LPD*%
%LPC*%
G36*
X90423Y26923D02*
X90423Y26923D01*
X90423Y35561D01*
X93109Y35561D01*
X99061Y29609D01*
X99061Y26923D01*
X90423Y26923D01*
G37*
%LPD*%
%LPC*%
G36*
X65023Y52323D02*
X65023Y52323D01*
X65023Y60961D01*
X67709Y60961D01*
X73661Y55009D01*
X73661Y52323D01*
X65023Y52323D01*
G37*
%LPD*%
%LPC*%
G36*
X65023Y26923D02*
X65023Y26923D01*
X65023Y35561D01*
X67709Y35561D01*
X73661Y29609D01*
X73661Y26923D01*
X65023Y26923D01*
G37*
%LPD*%
%LPC*%
G36*
X78739Y26923D02*
X78739Y26923D01*
X78739Y29609D01*
X84691Y35561D01*
X87377Y35561D01*
X87377Y26923D01*
X78739Y26923D01*
G37*
%LPD*%
%LPC*%
G36*
X104139Y26923D02*
X104139Y26923D01*
X104139Y29609D01*
X110091Y35561D01*
X112777Y35561D01*
X112777Y26923D01*
X104139Y26923D01*
G37*
%LPD*%
%LPC*%
G36*
X90423Y15239D02*
X90423Y15239D01*
X90423Y23877D01*
X99061Y23877D01*
X99061Y21191D01*
X93109Y15239D01*
X90423Y15239D01*
G37*
%LPD*%
%LPC*%
G36*
X65023Y15239D02*
X65023Y15239D01*
X65023Y23877D01*
X73661Y23877D01*
X73661Y21191D01*
X67709Y15239D01*
X65023Y15239D01*
G37*
%LPD*%
%LPC*%
G36*
X65023Y40639D02*
X65023Y40639D01*
X65023Y49277D01*
X73661Y49277D01*
X73661Y46591D01*
X67709Y40639D01*
X65023Y40639D01*
G37*
%LPD*%
%LPC*%
G36*
X90423Y40639D02*
X90423Y40639D01*
X90423Y49277D01*
X99061Y49277D01*
X99061Y46591D01*
X93109Y40639D01*
X90423Y40639D01*
G37*
%LPD*%
%LPC*%
G36*
X110091Y15239D02*
X110091Y15239D01*
X104139Y21191D01*
X104139Y23877D01*
X112777Y23877D01*
X112777Y15239D01*
X110091Y15239D01*
G37*
%LPD*%
%LPC*%
G36*
X110091Y40639D02*
X110091Y40639D01*
X104139Y46591D01*
X104139Y49277D01*
X112777Y49277D01*
X112777Y40639D01*
X110091Y40639D01*
G37*
%LPD*%
%LPC*%
G36*
X84691Y15239D02*
X84691Y15239D01*
X78739Y21191D01*
X78739Y23877D01*
X87377Y23877D01*
X87377Y15239D01*
X84691Y15239D01*
G37*
%LPD*%
%LPC*%
G36*
X84691Y40639D02*
X84691Y40639D01*
X78739Y46591D01*
X78739Y49277D01*
X87377Y49277D01*
X87377Y40639D01*
X84691Y40639D01*
G37*
%LPD*%
%LPC*%
G36*
X915923Y26923D02*
X915923Y26923D01*
X915923Y34545D01*
X918188Y34545D01*
X923545Y29188D01*
X923545Y26923D01*
X915923Y26923D01*
G37*
%LPD*%
%LPC*%
G36*
X763523Y433323D02*
X763523Y433323D01*
X763523Y440945D01*
X765788Y440945D01*
X771145Y435588D01*
X771145Y433323D01*
X763523Y433323D01*
G37*
%LPD*%
%LPC*%
G36*
X890523Y179323D02*
X890523Y179323D01*
X890523Y186945D01*
X892788Y186945D01*
X898145Y181588D01*
X898145Y179323D01*
X890523Y179323D01*
G37*
%LPD*%
%LPC*%
G36*
X700023Y293623D02*
X700023Y293623D01*
X700023Y301245D01*
X702288Y301245D01*
X707645Y295888D01*
X707645Y293623D01*
X700023Y293623D01*
G37*
%LPD*%
%LPC*%
G36*
X179323Y192023D02*
X179323Y192023D01*
X179323Y199645D01*
X181588Y199645D01*
X186945Y194288D01*
X186945Y192023D01*
X179323Y192023D01*
G37*
%LPD*%
%LPC*%
G36*
X26923Y331723D02*
X26923Y331723D01*
X26923Y339345D01*
X29188Y339345D01*
X34545Y333988D01*
X34545Y331723D01*
X26923Y331723D01*
G37*
%LPD*%
%LPC*%
G36*
X166623Y153923D02*
X166623Y153923D01*
X166623Y161545D01*
X168888Y161545D01*
X174245Y156188D01*
X174245Y153923D01*
X166623Y153923D01*
G37*
%LPD*%
%LPC*%
G36*
X382523Y230123D02*
X382523Y230123D01*
X382523Y237745D01*
X384788Y237745D01*
X390145Y232388D01*
X390145Y230123D01*
X382523Y230123D01*
G37*
%LPD*%
%LPC*%
G36*
X865123Y420623D02*
X865123Y420623D01*
X865123Y428245D01*
X867388Y428245D01*
X872745Y422888D01*
X872745Y420623D01*
X865123Y420623D01*
G37*
%LPD*%
%LPC*%
G36*
X623823Y217423D02*
X623823Y217423D01*
X623823Y225045D01*
X626088Y225045D01*
X631445Y219688D01*
X631445Y217423D01*
X623823Y217423D01*
G37*
%LPD*%
%LPC*%
G36*
X242823Y115823D02*
X242823Y115823D01*
X242823Y123445D01*
X245088Y123445D01*
X250445Y118088D01*
X250445Y115823D01*
X242823Y115823D01*
G37*
%LPD*%
%LPC*%
G36*
X204723Y420623D02*
X204723Y420623D01*
X204723Y428245D01*
X206988Y428245D01*
X212345Y422888D01*
X212345Y420623D01*
X204723Y420623D01*
G37*
%LPD*%
%LPC*%
G36*
X752855Y433323D02*
X752855Y433323D01*
X752855Y435588D01*
X758212Y440945D01*
X760477Y440945D01*
X760477Y433323D01*
X752855Y433323D01*
G37*
%LPD*%
%LPC*%
G36*
X155955Y153923D02*
X155955Y153923D01*
X155955Y156188D01*
X161312Y161545D01*
X163577Y161545D01*
X163577Y153923D01*
X155955Y153923D01*
G37*
%LPD*%
%LPC*%
G36*
X16255Y331723D02*
X16255Y331723D01*
X16255Y333988D01*
X21612Y339345D01*
X23877Y339345D01*
X23877Y331723D01*
X16255Y331723D01*
G37*
%LPD*%
%LPC*%
G36*
X232155Y115823D02*
X232155Y115823D01*
X232155Y118088D01*
X237512Y123445D01*
X239777Y123445D01*
X239777Y115823D01*
X232155Y115823D01*
G37*
%LPD*%
%LPC*%
G36*
X854455Y420623D02*
X854455Y420623D01*
X854455Y422888D01*
X859812Y428245D01*
X862077Y428245D01*
X862077Y420623D01*
X854455Y420623D01*
G37*
%LPD*%
%LPC*%
G36*
X194055Y420623D02*
X194055Y420623D01*
X194055Y422888D01*
X199412Y428245D01*
X201677Y428245D01*
X201677Y420623D01*
X194055Y420623D01*
G37*
%LPD*%
%LPC*%
G36*
X879855Y179323D02*
X879855Y179323D01*
X879855Y181588D01*
X885212Y186945D01*
X887477Y186945D01*
X887477Y179323D01*
X879855Y179323D01*
G37*
%LPD*%
%LPC*%
G36*
X905255Y26923D02*
X905255Y26923D01*
X905255Y29188D01*
X910612Y34545D01*
X912877Y34545D01*
X912877Y26923D01*
X905255Y26923D01*
G37*
%LPD*%
%LPC*%
G36*
X168655Y192023D02*
X168655Y192023D01*
X168655Y194288D01*
X174012Y199645D01*
X176277Y199645D01*
X176277Y192023D01*
X168655Y192023D01*
G37*
%LPD*%
%LPC*%
G36*
X371855Y230123D02*
X371855Y230123D01*
X371855Y232388D01*
X377212Y237745D01*
X379477Y237745D01*
X379477Y230123D01*
X371855Y230123D01*
G37*
%LPD*%
%LPC*%
G36*
X915923Y16255D02*
X915923Y16255D01*
X915923Y23877D01*
X923545Y23877D01*
X923545Y21612D01*
X918188Y16255D01*
X915923Y16255D01*
G37*
%LPD*%
%LPC*%
G36*
X763523Y422655D02*
X763523Y422655D01*
X763523Y430277D01*
X771145Y430277D01*
X771145Y428012D01*
X765788Y422655D01*
X763523Y422655D01*
G37*
%LPD*%
%LPC*%
G36*
X689355Y293623D02*
X689355Y293623D01*
X689355Y295888D01*
X694712Y301245D01*
X696977Y301245D01*
X696977Y293623D01*
X689355Y293623D01*
G37*
%LPD*%
%LPC*%
G36*
X700023Y282955D02*
X700023Y282955D01*
X700023Y290577D01*
X707645Y290577D01*
X707645Y288312D01*
X702288Y282955D01*
X700023Y282955D01*
G37*
%LPD*%
%LPC*%
G36*
X865123Y409955D02*
X865123Y409955D01*
X865123Y417577D01*
X872745Y417577D01*
X872745Y415312D01*
X867388Y409955D01*
X865123Y409955D01*
G37*
%LPD*%
%LPC*%
G36*
X382523Y219455D02*
X382523Y219455D01*
X382523Y227077D01*
X390145Y227077D01*
X390145Y224812D01*
X384788Y219455D01*
X382523Y219455D01*
G37*
%LPD*%
%LPC*%
G36*
X613155Y217423D02*
X613155Y217423D01*
X613155Y219688D01*
X618512Y225045D01*
X620777Y225045D01*
X620777Y217423D01*
X613155Y217423D01*
G37*
%LPD*%
%LPC*%
G36*
X623823Y206755D02*
X623823Y206755D01*
X623823Y214377D01*
X631445Y214377D01*
X631445Y212112D01*
X626088Y206755D01*
X623823Y206755D01*
G37*
%LPD*%
%LPC*%
G36*
X204723Y409955D02*
X204723Y409955D01*
X204723Y417577D01*
X212345Y417577D01*
X212345Y415312D01*
X206988Y409955D01*
X204723Y409955D01*
G37*
%LPD*%
%LPC*%
G36*
X890523Y168655D02*
X890523Y168655D01*
X890523Y176277D01*
X898145Y176277D01*
X898145Y174012D01*
X892788Y168655D01*
X890523Y168655D01*
G37*
%LPD*%
%LPC*%
G36*
X26923Y321055D02*
X26923Y321055D01*
X26923Y328677D01*
X34545Y328677D01*
X34545Y326412D01*
X29188Y321055D01*
X26923Y321055D01*
G37*
%LPD*%
%LPC*%
G36*
X166623Y143255D02*
X166623Y143255D01*
X166623Y150877D01*
X174245Y150877D01*
X174245Y148612D01*
X168888Y143255D01*
X166623Y143255D01*
G37*
%LPD*%
%LPC*%
G36*
X242823Y105155D02*
X242823Y105155D01*
X242823Y112777D01*
X250445Y112777D01*
X250445Y110512D01*
X245088Y105155D01*
X242823Y105155D01*
G37*
%LPD*%
%LPC*%
G36*
X331723Y18795D02*
X331723Y18795D01*
X331723Y26417D01*
X339345Y26417D01*
X339345Y24152D01*
X333988Y18795D01*
X331723Y18795D01*
G37*
%LPD*%
%LPC*%
G36*
X618512Y206755D02*
X618512Y206755D01*
X613155Y212112D01*
X613155Y214377D01*
X620777Y214377D01*
X620777Y206755D01*
X618512Y206755D01*
G37*
%LPD*%
%LPC*%
G36*
X694712Y282955D02*
X694712Y282955D01*
X689355Y288312D01*
X689355Y290577D01*
X696977Y290577D01*
X696977Y282955D01*
X694712Y282955D01*
G37*
%LPD*%
%LPC*%
G36*
X326412Y18795D02*
X326412Y18795D01*
X321055Y24152D01*
X321055Y26417D01*
X328677Y26417D01*
X328677Y18795D01*
X326412Y18795D01*
G37*
%LPD*%
%LPC*%
G36*
X237512Y105155D02*
X237512Y105155D01*
X232155Y110512D01*
X232155Y112777D01*
X239777Y112777D01*
X239777Y105155D01*
X237512Y105155D01*
G37*
%LPD*%
%LPC*%
G36*
X885212Y168655D02*
X885212Y168655D01*
X879855Y174012D01*
X879855Y176277D01*
X887477Y176277D01*
X887477Y168655D01*
X885212Y168655D01*
G37*
%LPD*%
%LPC*%
G36*
X199412Y409955D02*
X199412Y409955D01*
X194055Y415312D01*
X194055Y417577D01*
X201677Y417577D01*
X201677Y409955D01*
X199412Y409955D01*
G37*
%LPD*%
%LPC*%
G36*
X859812Y409955D02*
X859812Y409955D01*
X854455Y415312D01*
X854455Y417577D01*
X862077Y417577D01*
X862077Y409955D01*
X859812Y409955D01*
G37*
%LPD*%
%LPC*%
G36*
X377212Y219455D02*
X377212Y219455D01*
X371855Y224812D01*
X371855Y227077D01*
X379477Y227077D01*
X379477Y219455D01*
X377212Y219455D01*
G37*
%LPD*%
%LPC*%
G36*
X758212Y422655D02*
X758212Y422655D01*
X752855Y428012D01*
X752855Y430277D01*
X760477Y430277D01*
X760477Y422655D01*
X758212Y422655D01*
G37*
%LPD*%
%LPC*%
G36*
X21612Y321055D02*
X21612Y321055D01*
X16255Y326412D01*
X16255Y328677D01*
X23877Y328677D01*
X23877Y321055D01*
X21612Y321055D01*
G37*
%LPD*%
%LPC*%
G36*
X161312Y143255D02*
X161312Y143255D01*
X155955Y148612D01*
X155955Y150877D01*
X163577Y150877D01*
X163577Y143255D01*
X161312Y143255D01*
G37*
%LPD*%
%LPC*%
G36*
X910612Y16255D02*
X910612Y16255D01*
X905255Y21612D01*
X905255Y23877D01*
X912877Y23877D01*
X912877Y16255D01*
X910612Y16255D01*
G37*
%LPD*%
%LPC*%
G36*
X915923Y141223D02*
X915923Y141223D01*
X915923Y148721D01*
X917067Y148493D01*
X918732Y147804D01*
X920230Y146803D01*
X921503Y145530D01*
X922504Y144032D01*
X923193Y142367D01*
X923421Y141223D01*
X915923Y141223D01*
G37*
%LPD*%
%LPC*%
G36*
X915923Y65023D02*
X915923Y65023D01*
X915923Y72521D01*
X917067Y72293D01*
X918732Y71604D01*
X920230Y70603D01*
X921503Y69330D01*
X922504Y67832D01*
X923193Y66167D01*
X923421Y65023D01*
X915923Y65023D01*
G37*
%LPD*%
%LPC*%
G36*
X905379Y141223D02*
X905379Y141223D01*
X905607Y142367D01*
X906296Y144032D01*
X907297Y145530D01*
X908570Y146803D01*
X910068Y147804D01*
X911733Y148493D01*
X912877Y148721D01*
X912877Y141223D01*
X905379Y141223D01*
G37*
%LPD*%
%LPC*%
G36*
X905379Y65023D02*
X905379Y65023D01*
X905607Y66167D01*
X906296Y67832D01*
X907297Y69330D01*
X908570Y70603D01*
X910068Y71604D01*
X911733Y72293D01*
X912877Y72521D01*
X912877Y65023D01*
X905379Y65023D01*
G37*
%LPD*%
%LPC*%
G36*
X915923Y61977D02*
X915923Y61977D01*
X923421Y61977D01*
X923193Y60833D01*
X922504Y59168D01*
X921503Y57670D01*
X920230Y56397D01*
X918732Y55396D01*
X917067Y54707D01*
X915923Y54479D01*
X915923Y61977D01*
G37*
%LPD*%
%LPC*%
G36*
X242823Y26417D02*
X242823Y26417D01*
X250321Y26417D01*
X250093Y25273D01*
X249404Y23608D01*
X248403Y22110D01*
X247130Y20837D01*
X245632Y19836D01*
X243967Y19147D01*
X242823Y18919D01*
X242823Y26417D01*
G37*
%LPD*%
%LPC*%
G36*
X238633Y19147D02*
X238633Y19147D01*
X236968Y19836D01*
X235470Y20837D01*
X234197Y22110D01*
X233196Y23608D01*
X232507Y25273D01*
X232279Y26417D01*
X239777Y26417D01*
X239777Y18919D01*
X238633Y19147D01*
G37*
%LPD*%
%LPC*%
G36*
X911733Y130907D02*
X911733Y130907D01*
X910068Y131596D01*
X908570Y132597D01*
X907297Y133870D01*
X906296Y135368D01*
X905607Y137033D01*
X905379Y138177D01*
X912877Y138177D01*
X912877Y130679D01*
X911733Y130907D01*
G37*
%LPD*%
%LPC*%
G36*
X911733Y54707D02*
X911733Y54707D01*
X910068Y55396D01*
X908570Y56397D01*
X907297Y57670D01*
X906296Y59168D01*
X905607Y60833D01*
X905379Y61977D01*
X912877Y61977D01*
X912877Y54479D01*
X911733Y54707D01*
G37*
%LPD*%
%LPC*%
G36*
X119399Y520699D02*
X119399Y520699D01*
X119399Y520701D01*
X119401Y520701D01*
X119401Y520699D01*
X119399Y520699D01*
G37*
%LPD*%
%LPC*%
G36*
X177799Y520699D02*
X177799Y520699D01*
X177799Y520701D01*
X177801Y520701D01*
X177801Y520699D01*
X177799Y520699D01*
G37*
%LPD*%
%LPC*%
G36*
X520699Y406399D02*
X520699Y406399D01*
X520699Y406401D01*
X520701Y406401D01*
X520701Y406399D01*
X520699Y406399D01*
G37*
%LPD*%
%LPC*%
G36*
X888999Y177799D02*
X888999Y177799D01*
X888999Y177801D01*
X889001Y177801D01*
X889001Y177799D01*
X888999Y177799D01*
G37*
%LPD*%
%LPC*%
G36*
X698499Y292099D02*
X698499Y292099D01*
X698499Y292101D01*
X698501Y292101D01*
X698501Y292099D01*
X698499Y292099D01*
G37*
%LPD*%
%LPC*%
G36*
X25399Y330199D02*
X25399Y330199D01*
X25399Y330201D01*
X25401Y330201D01*
X25401Y330199D01*
X25399Y330199D01*
G37*
%LPD*%
%LPC*%
G36*
X863599Y419099D02*
X863599Y419099D01*
X863599Y419101D01*
X863601Y419101D01*
X863601Y419099D01*
X863599Y419099D01*
G37*
%LPD*%
%LPC*%
G36*
X761999Y431799D02*
X761999Y431799D01*
X761999Y431801D01*
X762001Y431801D01*
X762001Y431799D01*
X761999Y431799D01*
G37*
%LPD*%
%LPC*%
G36*
X271799Y482699D02*
X271799Y482699D01*
X271799Y482701D01*
X271801Y482701D01*
X271801Y482699D01*
X271799Y482699D01*
G37*
%LPD*%
%LPC*%
G36*
X241299Y114299D02*
X241299Y114299D01*
X241299Y114301D01*
X241301Y114301D01*
X241301Y114299D01*
X241299Y114299D01*
G37*
%LPD*%
%LPC*%
G36*
X914399Y139699D02*
X914399Y139699D01*
X914399Y139701D01*
X914401Y139701D01*
X914401Y139699D01*
X914399Y139699D01*
G37*
%LPD*%
%LPC*%
G36*
X622299Y215899D02*
X622299Y215899D01*
X622299Y215901D01*
X622301Y215901D01*
X622301Y215899D01*
X622299Y215899D01*
G37*
%LPD*%
%LPC*%
G36*
X165099Y152399D02*
X165099Y152399D01*
X165099Y152401D01*
X165101Y152401D01*
X165101Y152399D01*
X165099Y152399D01*
G37*
%LPD*%
%LPC*%
G36*
X914399Y25399D02*
X914399Y25399D01*
X914399Y25401D01*
X914401Y25401D01*
X914401Y25399D01*
X914399Y25399D01*
G37*
%LPD*%
%LPC*%
G36*
X88899Y25399D02*
X88899Y25399D01*
X88899Y25401D01*
X88901Y25401D01*
X88901Y25399D01*
X88899Y25399D01*
G37*
%LPD*%
%LPC*%
G36*
X914399Y63499D02*
X914399Y63499D01*
X914399Y63501D01*
X914401Y63501D01*
X914401Y63499D01*
X914399Y63499D01*
G37*
%LPD*%
%LPC*%
G36*
X203199Y419099D02*
X203199Y419099D01*
X203199Y419101D01*
X203201Y419101D01*
X203201Y419099D01*
X203199Y419099D01*
G37*
%LPD*%
%LPC*%
G36*
X380999Y228599D02*
X380999Y228599D01*
X380999Y228601D01*
X381001Y228601D01*
X381001Y228599D01*
X380999Y228599D01*
G37*
%LPD*%
%LPC*%
G36*
X271799Y520699D02*
X271799Y520699D01*
X271799Y520701D01*
X271801Y520701D01*
X271801Y520699D01*
X271799Y520699D01*
G37*
%LPD*%
%LPC*%
G36*
X25399Y520699D02*
X25399Y520699D01*
X25399Y520701D01*
X25401Y520701D01*
X25401Y520699D01*
X25399Y520699D01*
G37*
%LPD*%
%LPC*%
G36*
X709599Y507999D02*
X709599Y507999D01*
X709599Y508001D01*
X709601Y508001D01*
X709601Y507999D01*
X709599Y507999D01*
G37*
%LPD*%
D10*
X647700Y27940D03*
D11*
X647700Y48260D03*
D12*
X863600Y25400D03*
X889000Y25400D03*
X914400Y177800D03*
X939800Y177800D03*
X863600Y177800D03*
X889000Y177800D03*
X914400Y25400D03*
X939800Y25400D03*
D13*
X203200Y190500D03*
X177800Y190500D03*
X203200Y419100D03*
X177800Y419100D03*
D10*
X330200Y27940D03*
D11*
X330200Y48260D03*
D14*
X241300Y48260D03*
D11*
X241300Y27940D03*
X863600Y63500D03*
X889000Y63500D03*
X889000Y139700D03*
X863600Y139700D03*
X914400Y63500D03*
X939800Y63500D03*
X914400Y139700D03*
X939800Y139700D03*
D15*
X235204Y228600D02*
X221996Y228600D01*
X221996Y254000D02*
X235204Y254000D01*
X235204Y381000D02*
X221996Y381000D01*
X159004Y381000D02*
X145796Y381000D01*
X221996Y279400D02*
X235204Y279400D01*
X235204Y304800D02*
X221996Y304800D01*
X221996Y355600D02*
X235204Y355600D01*
X235204Y330200D02*
X221996Y330200D01*
X159004Y355600D02*
X145796Y355600D01*
X145796Y330200D02*
X159004Y330200D01*
X159004Y304800D02*
X145796Y304800D01*
X145796Y279400D02*
X159004Y279400D01*
X159004Y254000D02*
X145796Y254000D01*
X145796Y228600D02*
X159004Y228600D01*
D13*
X787400Y431800D03*
X762000Y431800D03*
D12*
X863600Y419100D03*
X939800Y419100D03*
D16*
X909320Y292100D02*
X894080Y292100D01*
X876300Y248920D02*
X876300Y233680D01*
X927100Y233680D02*
X927100Y248920D01*
X655320Y152400D02*
X640080Y152400D01*
X622300Y109220D02*
X622300Y93980D01*
X673100Y93980D02*
X673100Y109220D01*
D14*
X292100Y355600D03*
X292100Y431800D03*
D10*
X698500Y292100D03*
X698500Y215900D03*
D12*
X25400Y241300D03*
X101600Y241300D03*
X279400Y304800D03*
X355600Y304800D03*
D10*
X355600Y431800D03*
X355600Y355600D03*
D12*
X279400Y114300D03*
X355600Y114300D03*
D16*
X538480Y152400D02*
X553720Y152400D01*
X520700Y109220D02*
X520700Y93980D01*
X571500Y93980D02*
X571500Y109220D01*
D12*
X279400Y190500D03*
X355600Y190500D03*
X863600Y381000D03*
X939800Y381000D03*
X279400Y152400D03*
X355600Y152400D03*
D10*
X381000Y431800D03*
X381000Y355600D03*
D13*
X241300Y114300D03*
X165100Y114300D03*
D12*
X165100Y152400D03*
X241300Y152400D03*
X25400Y279400D03*
X101600Y279400D03*
D14*
X406400Y355600D03*
X406400Y431800D03*
D16*
X665480Y406400D02*
X680720Y406400D01*
X647700Y363220D02*
X647700Y347980D01*
X698500Y347980D02*
X698500Y363220D01*
D10*
X584200Y419100D03*
X584200Y342900D03*
D13*
X457200Y266700D03*
X381000Y266700D03*
D12*
X381000Y228600D03*
X457200Y228600D03*
X723900Y25400D03*
X800100Y25400D03*
D10*
X660400Y292100D03*
X660400Y215900D03*
D13*
X355600Y266700D03*
X279400Y266700D03*
D10*
X444500Y431800D03*
X444500Y355600D03*
X469900Y431800D03*
X469900Y355600D03*
X495300Y292100D03*
X495300Y215900D03*
D13*
X457200Y304800D03*
X381000Y304800D03*
D14*
X622300Y215900D03*
X622300Y292100D03*
D12*
X25400Y330200D03*
X101600Y330200D03*
D13*
X101600Y368300D03*
X25400Y368300D03*
D12*
X279400Y228600D03*
X355600Y228600D03*
X723900Y63500D03*
X800100Y63500D03*
D16*
X452120Y152400D02*
X436880Y152400D01*
X419100Y109220D02*
X419100Y93980D01*
X469900Y93980D02*
X469900Y109220D01*
D13*
X101600Y406400D03*
X25400Y406400D03*
D10*
X736600Y292100D03*
X736600Y215900D03*
D13*
X939800Y342900D03*
X863600Y342900D03*
D10*
X317500Y431800D03*
X317500Y355600D03*
X812800Y292100D03*
X812800Y215900D03*
X774700Y292100D03*
X774700Y215900D03*
D17*
X939000Y508000D03*
X889000Y508000D03*
X839000Y508000D03*
X709600Y508000D03*
X659600Y508000D03*
X609600Y508000D03*
X481000Y508000D03*
X431000Y508000D03*
X381000Y508000D03*
D15*
X729996Y139700D02*
X743204Y139700D01*
X806196Y139700D02*
X819404Y139700D01*
X749300Y348996D02*
X749300Y362204D01*
X800100Y362204D02*
X800100Y348996D01*
X774700Y348996D02*
X774700Y362204D01*
X70104Y177800D02*
X56896Y177800D01*
X56896Y127000D02*
X70104Y127000D01*
X70104Y152400D02*
X56896Y152400D01*
X94996Y127000D02*
X108204Y127000D01*
X108204Y177800D02*
X94996Y177800D01*
X94996Y152400D02*
X108204Y152400D01*
X514096Y406400D02*
X527304Y406400D01*
X527304Y355600D02*
X514096Y355600D01*
X514096Y381000D02*
X527304Y381000D01*
X584200Y247904D02*
X584200Y234696D01*
X533400Y234696D02*
X533400Y247904D01*
X558800Y247904D02*
X558800Y234696D01*
X533400Y272796D02*
X533400Y286004D01*
X584200Y286004D02*
X584200Y272796D01*
X558800Y272796D02*
X558800Y286004D01*
D18*
X25400Y520700D03*
X119400Y520700D03*
X25400Y482700D03*
X119400Y482700D03*
X177800Y520700D03*
X271800Y520700D03*
X177800Y482700D03*
X271800Y482700D03*
D19*
X38100Y25400D03*
X38100Y50800D03*
X63500Y25400D03*
X63500Y50800D03*
X88900Y25400D03*
X88900Y50800D03*
X114300Y25400D03*
X114300Y50800D03*
X139700Y25400D03*
X139700Y50800D03*
D20*
X360000Y465000D03*
D21*
X357500Y433700D02*
X355600Y431800D01*
X357500Y462500D02*
X360000Y465000D01*
X357500Y462500D02*
X357500Y433700D01*
D22*
X480000Y467500D02*
X575000Y467500D01*
D20*
X575000Y467500D03*
D22*
X480000Y467500D02*
X439500Y508000D01*
X431000Y508000D01*
X736600Y215900D02*
X767500Y185000D01*
X856400Y185000D01*
X863600Y177800D01*
X139700Y50800D02*
X139700Y25400D01*
X382500Y137500D02*
X417500Y102500D01*
X382500Y137500D02*
X350000Y137500D01*
X297500Y190000D01*
X280000Y190000D01*
X417500Y102500D02*
X419100Y101600D01*
X280000Y190000D02*
X279400Y190500D01*
X230000Y82500D02*
X125000Y82500D01*
D20*
X125000Y82500D03*
X230000Y82500D03*
X732500Y322500D03*
X180000Y222500D03*
D22*
X192500Y222500D02*
X210000Y205000D01*
X264900Y205000D01*
X192500Y222500D02*
X180000Y222500D01*
X264900Y205000D02*
X279400Y190500D01*
X647700Y355600D02*
X680800Y322500D01*
X732500Y322500D01*
X38100Y50800D02*
X38100Y25400D01*
D21*
X313750Y316250D02*
X275000Y355000D01*
X317500Y317500D02*
X355600Y355600D01*
X317500Y317500D02*
X315000Y317500D01*
X313750Y316250D01*
X352500Y402500D02*
X380000Y430000D01*
X352500Y402500D02*
X352500Y357500D01*
X355000Y357500D01*
X380000Y430000D02*
X381000Y431800D01*
X355000Y357500D02*
X355600Y355600D01*
D20*
X275000Y355000D03*
D21*
X325200Y304800D02*
X355600Y304800D01*
X325200Y304800D02*
X313750Y316250D01*
X889000Y63500D02*
X889000Y25400D01*
X863600Y25400D02*
X863600Y63500D01*
X850000Y112500D02*
X801000Y63500D01*
X800100Y63500D01*
X912600Y112500D02*
X939800Y139700D01*
X912600Y112500D02*
X850000Y112500D01*
X250000Y327500D02*
X250000Y337500D01*
X262500Y350000D01*
X262500Y447500D01*
D20*
X250000Y327500D03*
X262500Y447500D03*
D21*
X292500Y357500D02*
X317500Y357500D01*
X317500Y355600D01*
X292500Y357500D02*
X292100Y355600D01*
X327500Y395000D02*
X292500Y430000D01*
X327500Y395000D02*
X327500Y382500D01*
X292500Y430000D02*
X292100Y431800D01*
D20*
X327500Y382500D03*
D21*
X658000Y508000D02*
X659600Y508000D01*
X317500Y435058D02*
X317500Y431800D01*
X317500Y435058D02*
X356304Y473862D01*
X458638Y473862D01*
X474144Y458356D01*
X608356Y458356D01*
X658000Y508000D01*
X317500Y431800D02*
X291800Y457500D01*
X203000Y457500D02*
X177800Y482700D01*
X203000Y457500D02*
X291800Y457500D01*
X382500Y357500D02*
X405000Y357500D01*
X406400Y355600D01*
X382500Y357500D02*
X381000Y355600D01*
X585000Y417500D02*
X600000Y402500D01*
X657500Y402500D01*
X662500Y407500D01*
X672500Y407500D01*
X585000Y417500D02*
X584200Y419100D01*
X672500Y407500D02*
X673100Y406400D01*
X278300Y266700D02*
X252500Y292500D01*
X278300Y266700D02*
X279400Y266700D01*
X215500Y292500D02*
X152400Y355600D01*
X215500Y292500D02*
X252500Y292500D01*
X584200Y241300D02*
X609600Y241300D01*
X660400Y292100D01*
X215100Y267500D02*
X152400Y330200D01*
X215100Y267500D02*
X257500Y267500D01*
X269984Y255016D01*
X305016Y255016D01*
X342500Y292500D01*
X368700Y292500D01*
X381000Y304800D01*
X444500Y430500D02*
X444500Y431800D01*
X469900Y405100D02*
X469900Y355600D01*
X469900Y405100D02*
X444500Y430500D01*
X543600Y320000D02*
X584200Y279400D01*
X543600Y320000D02*
X480100Y320000D01*
X444500Y355600D01*
X552500Y260000D02*
X533800Y241300D01*
X533400Y241300D01*
X564800Y260000D02*
X584200Y279400D01*
X564800Y260000D02*
X552500Y260000D01*
X521716Y204216D02*
X481584Y204216D01*
X521716Y204216D02*
X558800Y241300D01*
X481584Y204216D02*
X457200Y228600D01*
X215584Y216916D02*
X200856Y231644D01*
X215584Y216916D02*
X304416Y216916D01*
X342500Y255000D01*
X369300Y255000D01*
X381000Y266700D01*
X155444Y231644D02*
X152400Y228600D01*
X155444Y231644D02*
X200856Y231644D01*
X277500Y150000D02*
X275000Y147500D01*
X247500Y147500D01*
X245000Y150000D01*
X242500Y150000D01*
X277500Y150000D02*
X279400Y152400D01*
X242500Y150000D02*
X241300Y152400D01*
X101600Y127000D02*
X83312Y145288D01*
X83312Y182640D01*
X117500Y216828D02*
X117500Y244500D01*
X152400Y279400D01*
X117500Y216828D02*
X83312Y182640D01*
X101600Y127000D02*
X125984Y102616D01*
X191516Y102616D02*
X241300Y152400D01*
X191516Y102616D02*
X125984Y102616D01*
X165100Y114300D02*
X131900Y147500D01*
X106500Y147500D02*
X101600Y152400D01*
X106500Y147500D02*
X131900Y147500D01*
X95000Y95000D02*
X97500Y92500D01*
X250000Y92500D01*
X270000Y112500D01*
X277500Y112500D01*
X279400Y114300D01*
D20*
X95000Y95000D03*
D21*
X335700Y114300D02*
X355600Y114300D01*
X335700Y114300D02*
X272200Y177800D01*
X101600Y177800D01*
X551180Y81280D02*
X571500Y101600D01*
X388620Y81280D02*
X355600Y114300D01*
X388620Y81280D02*
X551180Y81280D01*
D22*
X43180Y121319D02*
X43180Y132681D01*
X62899Y152400D01*
X63500Y152400D01*
X592024Y71324D02*
X622300Y101600D01*
X592024Y71324D02*
X93175Y71324D01*
X43180Y121319D01*
X649732Y167132D02*
X698500Y215900D01*
X649732Y167132D02*
X633978Y167132D01*
X622300Y155454D01*
X622300Y101600D01*
D21*
X546100Y152400D02*
X508000Y190500D01*
X355600Y190500D01*
X737500Y292500D02*
X755000Y310000D01*
X755000Y355000D01*
X750000Y355000D01*
X737500Y292500D02*
X736600Y292100D01*
X750000Y355000D02*
X749300Y355600D01*
X736600Y139700D02*
X735000Y138100D01*
X735000Y135560D01*
X647700Y48260D01*
X815000Y217500D02*
X847500Y250000D01*
X847500Y290000D01*
X900000Y290000D01*
X815000Y217500D02*
X812800Y215900D01*
X900000Y290000D02*
X901700Y292100D01*
M02*
