G75*
%MOIN*%
%OFA0B0*%
%FSLAX25Y25*%
%IPPOS*%
%LPD*%
%AMOC8*
5,1,8,0,0,1.08239X$1,22.5*
%
%ADD10C,0.00000*%
%ADD11C,0.05200*%
%ADD12OC8,0.05200*%
%ADD13C,0.05200*%
%ADD14C,0.06000*%
%ADD15OC8,0.06000*%
%ADD16C,0.01200*%
D10*
X0001000Y0001000D02*
X0001000Y0155961D01*
X0389701Y0155961D01*
X0389701Y0001000D01*
X0001000Y0001000D01*
D11*
X0073500Y0060900D02*
X0073500Y0066100D01*
X0083500Y0066100D02*
X0083500Y0060900D01*
X0093500Y0060900D02*
X0093500Y0066100D01*
X0103500Y0066100D02*
X0103500Y0060900D01*
X0113500Y0060900D02*
X0113500Y0066100D01*
X0123500Y0066100D02*
X0123500Y0060900D01*
X0133500Y0060900D02*
X0133500Y0066100D01*
X0143500Y0066100D02*
X0143500Y0060900D01*
X0163500Y0060900D02*
X0163500Y0066100D01*
X0173500Y0066100D02*
X0173500Y0060900D01*
X0183500Y0060900D02*
X0183500Y0066100D01*
X0193500Y0066100D02*
X0193500Y0060900D01*
X0203500Y0060900D02*
X0203500Y0066100D01*
X0213500Y0066100D02*
X0213500Y0060900D01*
X0223500Y0060900D02*
X0223500Y0066100D01*
X0273500Y0066100D02*
X0273500Y0060900D01*
X0283500Y0060900D02*
X0283500Y0066100D01*
X0293500Y0066100D02*
X0293500Y0060900D01*
X0303500Y0060900D02*
X0303500Y0066100D01*
X0313500Y0066100D02*
X0313500Y0060900D01*
X0323500Y0060900D02*
X0323500Y0066100D01*
X0333500Y0066100D02*
X0333500Y0060900D01*
X0343500Y0060900D02*
X0343500Y0066100D01*
X0343500Y0090900D02*
X0343500Y0096100D01*
X0333500Y0096100D02*
X0333500Y0090900D01*
X0323500Y0090900D02*
X0323500Y0096100D01*
X0313500Y0096100D02*
X0313500Y0090900D01*
X0303500Y0090900D02*
X0303500Y0096100D01*
X0293500Y0096100D02*
X0293500Y0090900D01*
X0283500Y0090900D02*
X0283500Y0096100D01*
X0273500Y0096100D02*
X0273500Y0090900D01*
X0223500Y0090900D02*
X0223500Y0096100D01*
X0213500Y0096100D02*
X0213500Y0090900D01*
X0203500Y0090900D02*
X0203500Y0096100D01*
X0193500Y0096100D02*
X0193500Y0090900D01*
X0183500Y0090900D02*
X0183500Y0096100D01*
X0173500Y0096100D02*
X0173500Y0090900D01*
X0163500Y0090900D02*
X0163500Y0096100D01*
X0143500Y0096100D02*
X0143500Y0090900D01*
X0133500Y0090900D02*
X0133500Y0096100D01*
X0123500Y0096100D02*
X0123500Y0090900D01*
X0113500Y0090900D02*
X0113500Y0096100D01*
X0103500Y0096100D02*
X0103500Y0090900D01*
X0093500Y0090900D02*
X0093500Y0096100D01*
X0083500Y0096100D02*
X0083500Y0090900D01*
X0073500Y0090900D02*
X0073500Y0096100D01*
X0153500Y0120900D02*
X0153500Y0126100D01*
X0163500Y0126100D02*
X0163500Y0120900D01*
X0173500Y0120900D02*
X0173500Y0126100D01*
X0203500Y0126100D02*
X0203500Y0120900D01*
X0213500Y0120900D02*
X0213500Y0126100D01*
X0223500Y0126100D02*
X0223500Y0120900D01*
X0223500Y0140900D02*
X0223500Y0146100D01*
X0213500Y0146100D02*
X0213500Y0140900D01*
X0203500Y0140900D02*
X0203500Y0146100D01*
X0173500Y0146100D02*
X0173500Y0140900D01*
X0163500Y0140900D02*
X0163500Y0146100D01*
X0153500Y0146100D02*
X0153500Y0140900D01*
X0153500Y0036100D02*
X0153500Y0030900D01*
X0163500Y0030900D02*
X0163500Y0036100D01*
X0173500Y0036100D02*
X0173500Y0030900D01*
X0203500Y0030900D02*
X0203500Y0036100D01*
X0213500Y0036100D02*
X0213500Y0030900D01*
X0223500Y0030900D02*
X0223500Y0036100D01*
X0223500Y0016100D02*
X0223500Y0010900D01*
X0213500Y0010900D02*
X0213500Y0016100D01*
X0203500Y0016100D02*
X0203500Y0010900D01*
X0173500Y0010900D02*
X0173500Y0016100D01*
X0163500Y0016100D02*
X0163500Y0010900D01*
X0153500Y0010900D02*
X0153500Y0016100D01*
D12*
X0138500Y0008500D03*
X0128500Y0008500D03*
X0118500Y0008500D03*
X0108500Y0008500D03*
X0098500Y0008500D03*
X0088500Y0008500D03*
X0078500Y0008500D03*
X0068500Y0008500D03*
X0058500Y0008500D03*
X0058500Y0038500D03*
X0068500Y0038500D03*
X0078500Y0038500D03*
X0088500Y0038500D03*
X0098500Y0038500D03*
X0108500Y0038500D03*
X0118500Y0038500D03*
X0128500Y0038500D03*
X0138500Y0038500D03*
X0138500Y0053500D03*
X0123500Y0053500D03*
X0113500Y0053500D03*
X0103500Y0053500D03*
X0073500Y0053500D03*
X0168500Y0053500D03*
X0178500Y0053500D03*
X0188500Y0053500D03*
X0198500Y0053500D03*
X0228500Y0053500D03*
X0193500Y0038500D03*
X0183500Y0038500D03*
X0248500Y0027500D03*
X0283500Y0038500D03*
X0293500Y0038500D03*
X0303500Y0038500D03*
X0313500Y0038500D03*
X0323500Y0038500D03*
X0333500Y0038500D03*
X0343500Y0038500D03*
X0323500Y0053500D03*
X0313500Y0053500D03*
X0303500Y0053500D03*
X0273500Y0053500D03*
X0283500Y0008500D03*
X0293500Y0008500D03*
X0303500Y0008500D03*
X0313500Y0008500D03*
X0323500Y0008500D03*
X0333500Y0008500D03*
X0343500Y0008500D03*
X0193500Y0008500D03*
X0183500Y0008500D03*
X0178500Y0103500D03*
X0168500Y0103500D03*
X0188500Y0103500D03*
X0198500Y0103500D03*
X0228500Y0103500D03*
X0193500Y0118500D03*
X0183500Y0118500D03*
X0138500Y0118500D03*
X0128500Y0118500D03*
X0118500Y0118500D03*
X0108500Y0118500D03*
X0098500Y0118500D03*
X0088500Y0118500D03*
X0078500Y0118500D03*
X0068500Y0118500D03*
X0058500Y0118500D03*
X0073500Y0103500D03*
X0103500Y0103500D03*
X0113500Y0103500D03*
X0123500Y0103500D03*
X0138500Y0103500D03*
X0138500Y0148500D03*
X0128500Y0148500D03*
X0118500Y0148500D03*
X0108500Y0148500D03*
X0098500Y0148500D03*
X0088500Y0148500D03*
X0078500Y0148500D03*
X0068500Y0148500D03*
X0058500Y0148500D03*
X0183500Y0148500D03*
X0193500Y0148500D03*
X0248500Y0129500D03*
X0283500Y0118500D03*
X0293500Y0118500D03*
X0303500Y0118500D03*
X0313500Y0118500D03*
X0323500Y0118500D03*
X0333500Y0118500D03*
X0343500Y0118500D03*
X0323500Y0103500D03*
X0313500Y0103500D03*
X0303500Y0103500D03*
X0273500Y0103500D03*
X0283500Y0148500D03*
X0293500Y0148500D03*
X0303500Y0148500D03*
X0313500Y0148500D03*
X0323500Y0148500D03*
X0333500Y0148500D03*
X0343500Y0148500D03*
D13*
X0248500Y0137500D03*
X0248500Y0019500D03*
D14*
X0360500Y0033500D02*
X0366500Y0033500D01*
X0366500Y0043500D02*
X0360500Y0043500D01*
X0360500Y0053500D02*
X0366500Y0053500D01*
X0366500Y0063500D02*
X0360500Y0063500D01*
X0360500Y0073500D02*
X0366500Y0073500D01*
X0366500Y0083500D02*
X0360500Y0083500D01*
X0360500Y0093500D02*
X0366500Y0093500D01*
X0366500Y0103500D02*
X0360500Y0103500D01*
X0360500Y0113500D02*
X0366500Y0113500D01*
X0366500Y0123500D02*
X0360500Y0123500D01*
X0041500Y0123500D02*
X0035500Y0123500D01*
X0035500Y0113500D02*
X0041500Y0113500D01*
X0041500Y0103500D02*
X0035500Y0103500D01*
X0035500Y0093500D02*
X0041500Y0093500D01*
X0041500Y0083500D02*
X0035500Y0083500D01*
X0035500Y0073500D02*
X0041500Y0073500D01*
X0041500Y0063500D02*
X0035500Y0063500D01*
X0035500Y0053500D02*
X0041500Y0053500D01*
X0041500Y0043500D02*
X0035500Y0043500D01*
X0035500Y0033500D02*
X0041500Y0033500D01*
D15*
X0243500Y0043500D03*
X0253500Y0043500D03*
X0253500Y0053500D03*
X0243500Y0053500D03*
X0243500Y0063500D03*
X0253500Y0063500D03*
X0253500Y0073500D03*
X0243500Y0073500D03*
X0243500Y0083500D03*
X0253500Y0083500D03*
X0253500Y0093500D03*
X0243500Y0093500D03*
X0243500Y0103500D03*
X0253500Y0103500D03*
X0253500Y0113500D03*
X0243500Y0113500D03*
D16*
X0243100Y0113500D01*
X0238600Y0109000D01*
X0238600Y0100000D01*
X0225100Y0086500D01*
X0201700Y0086500D01*
X0195400Y0092800D01*
X0193600Y0092800D01*
X0193500Y0093500D01*
X0183500Y0093500D02*
X0182800Y0093700D01*
X0172900Y0103600D01*
X0172900Y0104500D01*
X0162100Y0115300D01*
X0141400Y0115300D01*
X0138700Y0118000D01*
X0138500Y0118500D01*
X0151300Y0117100D02*
X0164800Y0117100D01*
X0178300Y0103600D01*
X0178500Y0103500D01*
X0188500Y0103500D02*
X0189100Y0103600D01*
X0189100Y0128800D01*
X0203500Y0143200D01*
X0203500Y0143500D01*
X0213400Y0143200D02*
X0213500Y0143500D01*
X0213400Y0143200D02*
X0203500Y0133300D01*
X0203500Y0123500D01*
X0193500Y0118500D02*
X0193600Y0118000D01*
X0203500Y0108100D01*
X0203500Y0093500D01*
X0189100Y0086500D02*
X0161200Y0086500D01*
X0137800Y0109900D01*
X0109900Y0109900D01*
X0103500Y0103500D01*
X0108100Y0103600D02*
X0108100Y0098200D01*
X0103600Y0093700D01*
X0103500Y0093500D01*
X0108100Y0103600D02*
X0112600Y0108100D01*
X0114400Y0108100D01*
X0118900Y0103600D01*
X0123400Y0103600D01*
X0123500Y0103500D01*
X0108100Y0118000D02*
X0104500Y0114400D01*
X0078400Y0114400D01*
X0067600Y0103600D01*
X0038800Y0103600D01*
X0038500Y0103500D01*
X0038500Y0083500D02*
X0038800Y0082900D01*
X0172900Y0082900D01*
X0189100Y0066700D01*
X0189100Y0059500D01*
X0194500Y0054100D01*
X0198100Y0054100D01*
X0198500Y0053500D01*
X0188500Y0053500D02*
X0188200Y0053200D01*
X0188200Y0013600D01*
X0194500Y0013600D01*
X0201700Y0006400D01*
X0215200Y0006400D01*
X0221500Y0012700D01*
X0223300Y0012700D01*
X0223500Y0013500D01*
X0203500Y0013500D02*
X0203500Y0025300D01*
X0208000Y0029800D01*
X0208000Y0067600D01*
X0189100Y0086500D01*
X0172900Y0064000D02*
X0163900Y0073000D01*
X0038800Y0073000D01*
X0038500Y0073500D01*
X0038500Y0063500D02*
X0038800Y0063100D01*
X0049600Y0063100D01*
X0073900Y0038800D01*
X0073900Y0037000D01*
X0076600Y0034300D01*
X0104500Y0034300D01*
X0108100Y0037900D01*
X0108500Y0038500D01*
X0109000Y0038800D01*
X0112600Y0038800D01*
X0123400Y0049600D01*
X0128800Y0049600D01*
X0143200Y0064000D01*
X0143500Y0063500D01*
X0133500Y0063500D02*
X0133300Y0064000D01*
X0127000Y0070300D01*
X0121600Y0070300D01*
X0115300Y0064000D01*
X0113500Y0064000D01*
X0113500Y0063500D01*
X0113500Y0063100D01*
X0109000Y0058600D01*
X0109000Y0053200D01*
X0105400Y0049600D01*
X0093700Y0049600D01*
X0082900Y0038800D01*
X0079300Y0038800D01*
X0078500Y0038500D01*
X0088500Y0038500D02*
X0089200Y0038800D01*
X0092800Y0038800D01*
X0101800Y0047800D01*
X0108100Y0047800D01*
X0113500Y0053200D01*
X0113500Y0053500D01*
X0138700Y0038800D02*
X0142300Y0042400D01*
X0163000Y0042400D01*
X0172900Y0052300D01*
X0172900Y0054100D01*
X0176500Y0057700D01*
X0177400Y0057700D01*
X0182800Y0063100D01*
X0183500Y0063500D01*
X0173500Y0063500D02*
X0172900Y0064000D01*
X0178500Y0053500D02*
X0178300Y0053200D01*
X0165700Y0040600D01*
X0162100Y0040600D01*
X0155800Y0034300D01*
X0154000Y0034300D01*
X0153500Y0033500D01*
X0153100Y0033400D01*
X0138700Y0019000D01*
X0138700Y0009100D01*
X0138500Y0008500D01*
X0137800Y0008200D01*
X0134200Y0004600D01*
X0106300Y0004600D01*
X0102700Y0008200D01*
X0099100Y0008200D01*
X0098500Y0008500D01*
X0098200Y0009100D01*
X0094600Y0012700D01*
X0076600Y0012700D01*
X0073000Y0009100D01*
X0068500Y0009100D01*
X0068500Y0008500D01*
X0108500Y0008500D02*
X0109000Y0009100D01*
X0109000Y0028900D01*
X0118000Y0037900D01*
X0118500Y0038500D01*
X0138500Y0038500D02*
X0138700Y0038800D01*
X0193500Y0038500D02*
X0193600Y0038800D01*
X0203500Y0048700D01*
X0203500Y0063500D01*
X0238600Y0064900D02*
X0238600Y0029800D01*
X0248500Y0019900D01*
X0248500Y0019500D01*
X0248500Y0027100D02*
X0248500Y0027500D01*
X0248500Y0078400D01*
X0244000Y0082900D01*
X0243500Y0083500D01*
X0243500Y0073500D02*
X0243100Y0073000D01*
X0243100Y0069400D01*
X0238600Y0064900D01*
X0289000Y0076600D02*
X0298900Y0066700D01*
X0298900Y0058600D01*
X0303400Y0054100D01*
X0303500Y0053500D01*
X0301600Y0049600D02*
X0359200Y0049600D01*
X0362800Y0053200D01*
X0363500Y0053500D01*
X0327700Y0067600D02*
X0324100Y0064000D01*
X0323500Y0063500D01*
X0319600Y0067600D02*
X0319600Y0057700D01*
X0323200Y0054100D01*
X0323500Y0053500D01*
X0313500Y0053500D02*
X0313300Y0054100D01*
X0304300Y0063100D01*
X0303500Y0063500D01*
X0303400Y0064000D01*
X0303400Y0092800D01*
X0303500Y0093500D01*
X0304300Y0093700D01*
X0313300Y0102700D01*
X0313500Y0103500D01*
X0313300Y0103600D01*
X0313300Y0112600D01*
X0307900Y0118000D01*
X0307900Y0123400D01*
X0283600Y0147700D01*
X0283500Y0148500D01*
X0289000Y0153100D02*
X0293500Y0148600D01*
X0293500Y0148500D01*
X0293500Y0140500D01*
X0313300Y0120700D01*
X0313300Y0118900D01*
X0313500Y0118500D01*
X0323500Y0118500D02*
X0324100Y0118900D01*
X0333100Y0127900D01*
X0333100Y0147700D01*
X0333500Y0148500D01*
X0289000Y0153100D02*
X0225100Y0153100D01*
X0219700Y0147700D01*
X0217900Y0147700D01*
X0215200Y0150400D01*
X0195400Y0150400D01*
X0193500Y0148500D01*
X0173800Y0128800D01*
X0172000Y0130600D01*
X0157600Y0130600D01*
X0140500Y0147700D01*
X0138700Y0147700D01*
X0138500Y0148500D01*
X0120700Y0147700D02*
X0151300Y0117100D01*
X0173500Y0123500D02*
X0173800Y0124300D01*
X0173800Y0128800D01*
X0217900Y0140500D02*
X0217900Y0147700D01*
X0223500Y0143500D02*
X0224200Y0143200D01*
X0248500Y0143200D01*
X0289000Y0102700D01*
X0289000Y0076600D01*
X0293500Y0063500D02*
X0293500Y0057700D01*
X0301600Y0049600D01*
X0313500Y0038500D02*
X0313300Y0037900D01*
X0313300Y0028900D01*
X0293500Y0009100D01*
X0293500Y0008500D01*
X0283500Y0008500D02*
X0282700Y0009100D01*
X0266500Y0009100D01*
X0248500Y0027100D01*
X0188200Y0013600D02*
X0183700Y0009100D01*
X0183500Y0008500D01*
X0319600Y0067600D02*
X0323200Y0071200D01*
X0323200Y0092800D01*
X0323500Y0093500D01*
X0327700Y0097300D02*
X0327700Y0067600D01*
X0327700Y0097300D02*
X0324100Y0100900D01*
X0324100Y0102700D01*
X0323500Y0103500D01*
X0317800Y0103600D02*
X0327700Y0113500D01*
X0363500Y0113500D01*
X0317800Y0103600D02*
X0314200Y0103600D01*
X0313500Y0103500D01*
X0258400Y0111700D02*
X0258400Y0127000D01*
X0248500Y0136900D01*
X0248500Y0137500D01*
X0248500Y0129500D02*
X0248500Y0118000D01*
X0253000Y0113500D01*
X0253500Y0113500D01*
X0258400Y0111700D02*
X0253900Y0107200D01*
X0253900Y0103600D01*
X0253500Y0103500D01*
X0244000Y0113500D02*
X0243500Y0113500D01*
X0244000Y0113500D02*
X0248500Y0118000D01*
X0223500Y0123500D02*
X0223300Y0124300D01*
X0223300Y0135100D01*
X0217900Y0140500D01*
X0120700Y0147700D02*
X0118900Y0147700D01*
X0118500Y0148500D01*
X0108500Y0148500D02*
X0108100Y0147700D01*
X0089200Y0128800D01*
X0089200Y0118900D01*
X0088500Y0118500D01*
X0108100Y0118000D02*
X0108500Y0118500D01*
M02*
