G75*
%MOIN*%
%OFA0B0*%
%FSLAX25Y25*%
%IPPOS*%
%LPD*%
%AMOC8*
5,1,8,0,0,1.08239X$1,22.5*
%
%ADD10C,0.00000*%
%ADD11C,0.00600*%
%ADD12C,0.00500*%
D10*
X0001000Y0001000D02*
X0001000Y0155961D01*
X0389701Y0155961D01*
X0389701Y0001000D01*
X0001000Y0001000D01*
D11*
X0238500Y0041000D02*
X0241000Y0038500D01*
X0256000Y0038500D01*
X0258500Y0041000D01*
X0258500Y0046000D01*
X0256000Y0048500D01*
X0241000Y0048500D01*
X0238500Y0046000D01*
X0238500Y0041000D01*
X0241000Y0048500D02*
X0238500Y0051000D01*
X0238500Y0056000D01*
X0241000Y0058500D01*
X0256000Y0058500D01*
X0258500Y0056000D01*
X0258500Y0051000D01*
X0256000Y0048500D01*
X0256000Y0058500D02*
X0258500Y0061000D01*
X0258500Y0066000D01*
X0256000Y0068500D01*
X0241000Y0068500D01*
X0238500Y0066000D01*
X0238500Y0061000D01*
X0241000Y0058500D01*
X0241000Y0068500D02*
X0238500Y0071000D01*
X0238500Y0076000D01*
X0241000Y0078500D01*
X0256000Y0078500D01*
X0258500Y0076000D01*
X0258500Y0071000D01*
X0256000Y0068500D01*
X0256000Y0078500D02*
X0258500Y0081000D01*
X0258500Y0086000D01*
X0256000Y0088500D01*
X0241000Y0088500D01*
X0238500Y0086000D01*
X0238500Y0081000D01*
X0241000Y0078500D01*
X0241000Y0088500D02*
X0238500Y0091000D01*
X0238500Y0096000D01*
X0241000Y0098500D01*
X0256000Y0098500D01*
X0258500Y0096000D01*
X0258500Y0091000D01*
X0256000Y0088500D01*
X0256000Y0098500D02*
X0258500Y0101000D01*
X0258500Y0106000D01*
X0256000Y0108500D01*
X0241000Y0108500D01*
X0238500Y0106000D01*
X0238500Y0101000D01*
X0241000Y0098500D01*
X0241000Y0108500D02*
X0238500Y0111000D01*
X0238500Y0116000D01*
X0241000Y0118500D01*
X0256000Y0118500D01*
X0258500Y0116000D01*
X0258500Y0111000D01*
X0256000Y0108500D01*
D12*
X0235754Y0107941D02*
X0235754Y0106439D01*
X0235754Y0107190D02*
X0232001Y0107190D01*
X0231250Y0106439D01*
X0231250Y0105689D01*
X0232001Y0104938D01*
X0232751Y0109542D02*
X0232751Y0111794D01*
X0233502Y0112545D01*
X0235003Y0112545D01*
X0235754Y0111794D01*
X0235754Y0109542D01*
X0231250Y0109542D01*
X0232001Y0114146D02*
X0231250Y0114897D01*
X0231250Y0116398D01*
X0232001Y0117149D01*
X0232751Y0117149D01*
X0233502Y0116398D01*
X0233502Y0115647D01*
X0233502Y0116398D02*
X0234253Y0117149D01*
X0235003Y0117149D01*
X0235754Y0116398D01*
X0235754Y0114897D01*
X0235003Y0114146D01*
M02*
