G75*
%MOIN*%
%OFA0B0*%
%FSLAX25Y25*%
%IPPOS*%
%LPD*%
%AMOC8*
5,1,8,0,0,1.08239X$1,22.5*
%
%ADD10C,0.00000*%
%ADD11C,0.05200*%
%ADD12OC8,0.05200*%
%ADD13C,0.05200*%
%ADD14C,0.06000*%
%ADD15OC8,0.06000*%
%ADD16C,0.01200*%
D10*
X0001000Y0001000D02*
X0001000Y0155961D01*
X0389701Y0155961D01*
X0389701Y0001000D01*
X0001000Y0001000D01*
D11*
X0073500Y0060900D02*
X0073500Y0066100D01*
X0083500Y0066100D02*
X0083500Y0060900D01*
X0093500Y0060900D02*
X0093500Y0066100D01*
X0103500Y0066100D02*
X0103500Y0060900D01*
X0113500Y0060900D02*
X0113500Y0066100D01*
X0123500Y0066100D02*
X0123500Y0060900D01*
X0133500Y0060900D02*
X0133500Y0066100D01*
X0143500Y0066100D02*
X0143500Y0060900D01*
X0163500Y0060900D02*
X0163500Y0066100D01*
X0173500Y0066100D02*
X0173500Y0060900D01*
X0183500Y0060900D02*
X0183500Y0066100D01*
X0193500Y0066100D02*
X0193500Y0060900D01*
X0203500Y0060900D02*
X0203500Y0066100D01*
X0213500Y0066100D02*
X0213500Y0060900D01*
X0223500Y0060900D02*
X0223500Y0066100D01*
X0273500Y0066100D02*
X0273500Y0060900D01*
X0283500Y0060900D02*
X0283500Y0066100D01*
X0293500Y0066100D02*
X0293500Y0060900D01*
X0303500Y0060900D02*
X0303500Y0066100D01*
X0313500Y0066100D02*
X0313500Y0060900D01*
X0323500Y0060900D02*
X0323500Y0066100D01*
X0333500Y0066100D02*
X0333500Y0060900D01*
X0343500Y0060900D02*
X0343500Y0066100D01*
X0343500Y0090900D02*
X0343500Y0096100D01*
X0333500Y0096100D02*
X0333500Y0090900D01*
X0323500Y0090900D02*
X0323500Y0096100D01*
X0313500Y0096100D02*
X0313500Y0090900D01*
X0303500Y0090900D02*
X0303500Y0096100D01*
X0293500Y0096100D02*
X0293500Y0090900D01*
X0283500Y0090900D02*
X0283500Y0096100D01*
X0273500Y0096100D02*
X0273500Y0090900D01*
X0223500Y0090900D02*
X0223500Y0096100D01*
X0213500Y0096100D02*
X0213500Y0090900D01*
X0203500Y0090900D02*
X0203500Y0096100D01*
X0193500Y0096100D02*
X0193500Y0090900D01*
X0183500Y0090900D02*
X0183500Y0096100D01*
X0173500Y0096100D02*
X0173500Y0090900D01*
X0163500Y0090900D02*
X0163500Y0096100D01*
X0143500Y0096100D02*
X0143500Y0090900D01*
X0133500Y0090900D02*
X0133500Y0096100D01*
X0123500Y0096100D02*
X0123500Y0090900D01*
X0113500Y0090900D02*
X0113500Y0096100D01*
X0103500Y0096100D02*
X0103500Y0090900D01*
X0093500Y0090900D02*
X0093500Y0096100D01*
X0083500Y0096100D02*
X0083500Y0090900D01*
X0073500Y0090900D02*
X0073500Y0096100D01*
X0153500Y0120900D02*
X0153500Y0126100D01*
X0163500Y0126100D02*
X0163500Y0120900D01*
X0173500Y0120900D02*
X0173500Y0126100D01*
X0203500Y0126100D02*
X0203500Y0120900D01*
X0213500Y0120900D02*
X0213500Y0126100D01*
X0223500Y0126100D02*
X0223500Y0120900D01*
X0223500Y0140900D02*
X0223500Y0146100D01*
X0213500Y0146100D02*
X0213500Y0140900D01*
X0203500Y0140900D02*
X0203500Y0146100D01*
X0173500Y0146100D02*
X0173500Y0140900D01*
X0163500Y0140900D02*
X0163500Y0146100D01*
X0153500Y0146100D02*
X0153500Y0140900D01*
X0153500Y0036100D02*
X0153500Y0030900D01*
X0163500Y0030900D02*
X0163500Y0036100D01*
X0173500Y0036100D02*
X0173500Y0030900D01*
X0203500Y0030900D02*
X0203500Y0036100D01*
X0213500Y0036100D02*
X0213500Y0030900D01*
X0223500Y0030900D02*
X0223500Y0036100D01*
X0223500Y0016100D02*
X0223500Y0010900D01*
X0213500Y0010900D02*
X0213500Y0016100D01*
X0203500Y0016100D02*
X0203500Y0010900D01*
X0173500Y0010900D02*
X0173500Y0016100D01*
X0163500Y0016100D02*
X0163500Y0010900D01*
X0153500Y0010900D02*
X0153500Y0016100D01*
D12*
X0138500Y0008500D03*
X0128500Y0008500D03*
X0118500Y0008500D03*
X0108500Y0008500D03*
X0098500Y0008500D03*
X0088500Y0008500D03*
X0078500Y0008500D03*
X0068500Y0008500D03*
X0058500Y0008500D03*
X0058500Y0038500D03*
X0068500Y0038500D03*
X0078500Y0038500D03*
X0088500Y0038500D03*
X0098500Y0038500D03*
X0108500Y0038500D03*
X0118500Y0038500D03*
X0128500Y0038500D03*
X0138500Y0038500D03*
X0138500Y0053500D03*
X0123500Y0053500D03*
X0113500Y0053500D03*
X0103500Y0053500D03*
X0073500Y0053500D03*
X0168500Y0053500D03*
X0178500Y0053500D03*
X0188500Y0053500D03*
X0198500Y0053500D03*
X0228500Y0053500D03*
X0193500Y0038500D03*
X0183500Y0038500D03*
X0248500Y0027500D03*
X0283500Y0038500D03*
X0293500Y0038500D03*
X0303500Y0038500D03*
X0313500Y0038500D03*
X0323500Y0038500D03*
X0333500Y0038500D03*
X0343500Y0038500D03*
X0323500Y0053500D03*
X0313500Y0053500D03*
X0303500Y0053500D03*
X0273500Y0053500D03*
X0283500Y0008500D03*
X0293500Y0008500D03*
X0303500Y0008500D03*
X0313500Y0008500D03*
X0323500Y0008500D03*
X0333500Y0008500D03*
X0343500Y0008500D03*
X0193500Y0008500D03*
X0183500Y0008500D03*
X0178500Y0103500D03*
X0168500Y0103500D03*
X0188500Y0103500D03*
X0198500Y0103500D03*
X0228500Y0103500D03*
X0193500Y0118500D03*
X0183500Y0118500D03*
X0138500Y0118500D03*
X0128500Y0118500D03*
X0118500Y0118500D03*
X0108500Y0118500D03*
X0098500Y0118500D03*
X0088500Y0118500D03*
X0078500Y0118500D03*
X0068500Y0118500D03*
X0058500Y0118500D03*
X0073500Y0103500D03*
X0103500Y0103500D03*
X0113500Y0103500D03*
X0123500Y0103500D03*
X0138500Y0103500D03*
X0138500Y0148500D03*
X0128500Y0148500D03*
X0118500Y0148500D03*
X0108500Y0148500D03*
X0098500Y0148500D03*
X0088500Y0148500D03*
X0078500Y0148500D03*
X0068500Y0148500D03*
X0058500Y0148500D03*
X0183500Y0148500D03*
X0193500Y0148500D03*
X0248500Y0129500D03*
X0283500Y0118500D03*
X0293500Y0118500D03*
X0303500Y0118500D03*
X0313500Y0118500D03*
X0323500Y0118500D03*
X0333500Y0118500D03*
X0343500Y0118500D03*
X0323500Y0103500D03*
X0313500Y0103500D03*
X0303500Y0103500D03*
X0273500Y0103500D03*
X0283500Y0148500D03*
X0293500Y0148500D03*
X0303500Y0148500D03*
X0313500Y0148500D03*
X0323500Y0148500D03*
X0333500Y0148500D03*
X0343500Y0148500D03*
D13*
X0248500Y0137500D03*
X0248500Y0019500D03*
D14*
X0360500Y0033500D02*
X0366500Y0033500D01*
X0366500Y0043500D02*
X0360500Y0043500D01*
X0360500Y0053500D02*
X0366500Y0053500D01*
X0366500Y0063500D02*
X0360500Y0063500D01*
X0360500Y0073500D02*
X0366500Y0073500D01*
X0366500Y0083500D02*
X0360500Y0083500D01*
X0360500Y0093500D02*
X0366500Y0093500D01*
X0366500Y0103500D02*
X0360500Y0103500D01*
X0360500Y0113500D02*
X0366500Y0113500D01*
X0366500Y0123500D02*
X0360500Y0123500D01*
X0041500Y0123500D02*
X0035500Y0123500D01*
X0035500Y0113500D02*
X0041500Y0113500D01*
X0041500Y0103500D02*
X0035500Y0103500D01*
X0035500Y0093500D02*
X0041500Y0093500D01*
X0041500Y0083500D02*
X0035500Y0083500D01*
X0035500Y0073500D02*
X0041500Y0073500D01*
X0041500Y0063500D02*
X0035500Y0063500D01*
X0035500Y0053500D02*
X0041500Y0053500D01*
X0041500Y0043500D02*
X0035500Y0043500D01*
X0035500Y0033500D02*
X0041500Y0033500D01*
D15*
X0243500Y0043500D03*
X0253500Y0043500D03*
X0253500Y0053500D03*
X0243500Y0053500D03*
X0243500Y0063500D03*
X0253500Y0063500D03*
X0253500Y0073500D03*
X0243500Y0073500D03*
X0243500Y0083500D03*
X0253500Y0083500D03*
X0253500Y0093500D03*
X0243500Y0093500D03*
X0243500Y0103500D03*
X0253500Y0103500D03*
X0253500Y0113500D03*
X0243500Y0113500D03*
D16*
X0234100Y0121600D02*
X0225100Y0130600D01*
X0190000Y0130600D01*
X0169300Y0109900D01*
X0169300Y0103600D01*
X0168500Y0103500D01*
X0169300Y0102700D01*
X0169300Y0097300D01*
X0172900Y0093700D01*
X0173500Y0093500D01*
X0178300Y0090100D02*
X0178300Y0102700D01*
X0178500Y0103500D01*
X0179200Y0102700D01*
X0183700Y0102700D01*
X0192700Y0093700D01*
X0193500Y0093500D01*
X0178300Y0090100D02*
X0145000Y0056800D01*
X0141400Y0056800D01*
X0140500Y0057700D01*
X0136900Y0057700D01*
X0127900Y0048700D01*
X0118000Y0048700D01*
X0113500Y0053200D01*
X0113500Y0053500D01*
X0113500Y0053200D02*
X0123400Y0063100D01*
X0123500Y0063500D01*
X0127900Y0059500D02*
X0127900Y0067600D01*
X0125200Y0070300D01*
X0109900Y0070300D01*
X0103600Y0076600D01*
X0103600Y0092800D01*
X0103500Y0093500D01*
X0102700Y0093700D01*
X0082900Y0113500D01*
X0038800Y0113500D01*
X0038500Y0113500D01*
X0038800Y0113500D02*
X0038800Y0123400D01*
X0038500Y0123500D01*
X0038800Y0124300D01*
X0057700Y0143200D01*
X0057700Y0147700D01*
X0058500Y0148500D01*
X0068500Y0148500D02*
X0068500Y0147700D01*
X0098200Y0118000D01*
X0098500Y0118500D01*
X0100000Y0117100D01*
X0127000Y0144100D01*
X0134200Y0144100D01*
X0137800Y0147700D01*
X0138500Y0148500D01*
X0136900Y0153100D02*
X0132400Y0148600D01*
X0128800Y0148600D01*
X0128500Y0148500D01*
X0118500Y0148500D02*
X0118000Y0148600D01*
X0109000Y0148600D01*
X0108500Y0148500D01*
X0098500Y0148500D02*
X0098200Y0148600D01*
X0089200Y0148600D01*
X0088500Y0148500D01*
X0088300Y0148600D01*
X0079300Y0148600D01*
X0078500Y0148500D01*
X0123400Y0118900D02*
X0127900Y0123400D01*
X0153100Y0123400D01*
X0153500Y0123500D01*
X0154000Y0124300D01*
X0163000Y0133300D01*
X0163000Y0143200D01*
X0163500Y0143500D01*
X0162100Y0150400D02*
X0155800Y0144100D01*
X0154000Y0144100D01*
X0153500Y0143500D01*
X0153100Y0144100D01*
X0144100Y0153100D01*
X0136900Y0153100D01*
X0162100Y0150400D02*
X0181000Y0150400D01*
X0182800Y0148600D01*
X0183500Y0148500D01*
X0183700Y0147700D01*
X0188200Y0147700D01*
X0191800Y0144100D01*
X0203500Y0144100D01*
X0203500Y0143500D01*
X0203500Y0144100D02*
X0209800Y0150400D01*
X0225100Y0150400D01*
X0237700Y0137800D01*
X0248500Y0137800D01*
X0248500Y0137500D01*
X0248500Y0137800D02*
X0272800Y0137800D01*
X0283500Y0148500D01*
X0303500Y0148500D02*
X0304300Y0148600D01*
X0313300Y0148600D01*
X0313500Y0148500D01*
X0314200Y0148600D01*
X0323200Y0148600D01*
X0323500Y0148500D01*
X0328600Y0147700D02*
X0310600Y0129700D01*
X0248500Y0129700D01*
X0248500Y0129500D01*
X0235900Y0125200D02*
X0224200Y0136900D01*
X0220600Y0136900D01*
X0214300Y0143200D01*
X0213500Y0143500D01*
X0223300Y0135100D02*
X0181900Y0135100D01*
X0173500Y0143500D01*
X0163900Y0123400D02*
X0163500Y0123500D01*
X0163900Y0123400D02*
X0163900Y0103600D01*
X0138700Y0103600D01*
X0138500Y0103500D01*
X0127900Y0108100D02*
X0143200Y0092800D01*
X0143500Y0093500D01*
X0133500Y0093500D02*
X0133300Y0092800D01*
X0127000Y0086500D01*
X0122500Y0086500D01*
X0116200Y0092800D01*
X0113500Y0092800D01*
X0113500Y0093500D01*
X0113500Y0097300D01*
X0108100Y0102700D01*
X0108100Y0104500D01*
X0098200Y0114400D01*
X0084700Y0114400D01*
X0081100Y0118000D01*
X0079300Y0118000D01*
X0078500Y0118500D01*
X0078400Y0118900D01*
X0068500Y0118900D01*
X0068500Y0118500D01*
X0068500Y0118900D02*
X0058600Y0118900D01*
X0058500Y0118500D01*
X0073500Y0103500D02*
X0073900Y0102700D01*
X0073900Y0093700D01*
X0073500Y0093500D01*
X0084700Y0086500D02*
X0045100Y0086500D01*
X0038800Y0092800D01*
X0038500Y0093500D01*
X0084700Y0086500D02*
X0091000Y0092800D01*
X0092800Y0092800D01*
X0093500Y0093500D01*
X0113500Y0103500D02*
X0113500Y0103600D01*
X0100000Y0117100D01*
X0099100Y0118000D01*
X0098500Y0118500D01*
X0108500Y0118500D02*
X0109000Y0118000D01*
X0113500Y0118000D01*
X0123400Y0108100D01*
X0127900Y0108100D01*
X0113500Y0103600D02*
X0123400Y0093700D01*
X0123500Y0093500D01*
X0163500Y0093500D02*
X0163900Y0093700D01*
X0163900Y0103600D01*
X0183500Y0118500D02*
X0183700Y0118900D01*
X0192700Y0118900D01*
X0193500Y0118500D01*
X0213500Y0123500D02*
X0214300Y0123400D01*
X0214300Y0117100D01*
X0227800Y0103600D01*
X0228500Y0103500D01*
X0227800Y0102700D01*
X0224200Y0099100D01*
X0224200Y0093700D01*
X0223500Y0093500D01*
X0214300Y0092800D02*
X0213500Y0093500D01*
X0213400Y0093700D01*
X0211600Y0093700D01*
X0202600Y0102700D01*
X0199000Y0102700D01*
X0198500Y0103500D01*
X0214300Y0092800D02*
X0227800Y0079300D01*
X0253900Y0079300D01*
X0259300Y0073900D01*
X0362800Y0073900D01*
X0363500Y0073500D01*
X0362800Y0082900D02*
X0363500Y0083500D01*
X0362800Y0082900D02*
X0295300Y0082900D01*
X0288100Y0090100D01*
X0288100Y0097300D01*
X0263800Y0121600D01*
X0234100Y0121600D01*
X0235000Y0123400D02*
X0223300Y0135100D01*
X0235900Y0125200D02*
X0322300Y0125200D01*
X0328600Y0118900D01*
X0333100Y0118900D01*
X0333500Y0118500D01*
X0343500Y0118500D02*
X0343900Y0118000D01*
X0343900Y0093700D01*
X0343500Y0093500D01*
X0343900Y0093700D02*
X0353800Y0093700D01*
X0362800Y0102700D01*
X0363500Y0103500D01*
X0370900Y0106300D02*
X0363700Y0113500D01*
X0363500Y0113500D01*
X0363700Y0113500D02*
X0363700Y0123400D01*
X0363500Y0123500D01*
X0370900Y0106300D02*
X0370900Y0051400D01*
X0363700Y0044200D01*
X0363500Y0043500D01*
X0363700Y0043300D01*
X0363700Y0034300D01*
X0363500Y0033500D01*
X0343900Y0038800D02*
X0343500Y0038500D01*
X0343900Y0038800D02*
X0343900Y0063100D01*
X0343500Y0063500D01*
X0343900Y0064000D01*
X0362800Y0064000D01*
X0363500Y0063500D01*
X0333500Y0063500D02*
X0333100Y0064000D01*
X0326800Y0070300D01*
X0322300Y0070300D01*
X0316000Y0064000D01*
X0314200Y0064000D01*
X0313500Y0063500D01*
X0313300Y0063100D01*
X0309700Y0059500D01*
X0309700Y0054100D01*
X0304300Y0048700D01*
X0304300Y0038800D01*
X0303500Y0038500D01*
X0303400Y0038800D01*
X0293500Y0038800D01*
X0293500Y0038500D01*
X0293500Y0038800D02*
X0283600Y0038800D01*
X0283500Y0038500D01*
X0304300Y0033400D02*
X0224200Y0033400D01*
X0223500Y0033500D01*
X0223300Y0033400D01*
X0214300Y0024400D01*
X0214300Y0013600D01*
X0213500Y0013500D01*
X0223500Y0013500D02*
X0224200Y0013600D01*
X0235000Y0013600D01*
X0248500Y0027100D01*
X0248500Y0027500D01*
X0248500Y0019500D02*
X0248500Y0019000D01*
X0283600Y0019000D01*
X0293500Y0009100D01*
X0293500Y0008500D01*
X0303500Y0008500D02*
X0304300Y0009100D01*
X0313300Y0009100D01*
X0313500Y0008500D01*
X0314200Y0009100D01*
X0323200Y0009100D01*
X0323500Y0008500D01*
X0328600Y0009100D02*
X0304300Y0033400D01*
X0313500Y0038500D02*
X0314200Y0038800D01*
X0314200Y0044200D01*
X0323500Y0053500D01*
X0327700Y0055000D02*
X0327700Y0038800D01*
X0324100Y0038800D01*
X0323500Y0038500D01*
X0327700Y0038800D02*
X0333100Y0038800D01*
X0333500Y0038500D01*
X0334000Y0037900D01*
X0343000Y0028900D01*
X0343000Y0009100D01*
X0343500Y0008500D01*
X0333500Y0008500D02*
X0333100Y0009100D01*
X0328600Y0009100D01*
X0253500Y0043500D02*
X0253000Y0043300D01*
X0244000Y0043300D01*
X0243500Y0043500D01*
X0243500Y0053500D02*
X0244000Y0054100D01*
X0253000Y0054100D01*
X0253500Y0053500D01*
X0273500Y0053500D02*
X0273700Y0054100D01*
X0273700Y0063100D01*
X0273500Y0063500D01*
X0253500Y0063500D02*
X0253000Y0064000D01*
X0244000Y0064000D01*
X0243500Y0063500D01*
X0227800Y0054100D02*
X0224200Y0057700D01*
X0224200Y0063100D01*
X0223500Y0063500D01*
X0213500Y0063500D02*
X0213400Y0063100D01*
X0204400Y0054100D01*
X0199000Y0054100D01*
X0198500Y0053500D01*
X0188200Y0049600D02*
X0186400Y0049600D01*
X0181900Y0054100D01*
X0179200Y0054100D01*
X0178500Y0053500D01*
X0181900Y0054100D02*
X0183700Y0054100D01*
X0192700Y0063100D01*
X0193500Y0063500D01*
X0193600Y0064000D01*
X0202600Y0073000D01*
X0243100Y0073000D01*
X0243500Y0073500D01*
X0244000Y0073900D01*
X0253000Y0073900D01*
X0253500Y0073500D01*
X0253500Y0083500D02*
X0253000Y0083800D01*
X0244000Y0083800D01*
X0243500Y0083500D01*
X0244000Y0083800D02*
X0244000Y0092800D01*
X0243500Y0093500D01*
X0244000Y0093700D01*
X0244000Y0102700D01*
X0243500Y0103500D01*
X0244000Y0103600D01*
X0253000Y0103600D01*
X0253500Y0103500D01*
X0253500Y0093500D02*
X0253900Y0092800D01*
X0253900Y0083800D01*
X0253500Y0083500D01*
X0273500Y0093500D02*
X0273700Y0093700D01*
X0273700Y0102700D01*
X0273500Y0103500D01*
X0284500Y0103600D02*
X0264700Y0123400D01*
X0235000Y0123400D01*
X0283500Y0118500D02*
X0283600Y0118900D01*
X0293500Y0118900D01*
X0293500Y0118500D01*
X0293500Y0118900D02*
X0303400Y0118900D01*
X0303500Y0118500D01*
X0304300Y0118000D01*
X0307900Y0114400D01*
X0307900Y0103600D01*
X0313300Y0098200D01*
X0313300Y0093700D01*
X0313500Y0093500D01*
X0314200Y0092800D01*
X0316000Y0092800D01*
X0322300Y0086500D01*
X0326800Y0086500D01*
X0333100Y0092800D01*
X0333500Y0093500D01*
X0323500Y0093500D02*
X0323200Y0093700D01*
X0323200Y0098200D01*
X0317800Y0103600D01*
X0317800Y0114400D01*
X0314200Y0118000D01*
X0313500Y0118500D01*
X0323500Y0118500D02*
X0324100Y0118000D01*
X0324100Y0103600D01*
X0323500Y0103500D01*
X0303500Y0103500D02*
X0303400Y0103600D01*
X0284500Y0103600D01*
X0293500Y0093500D02*
X0293500Y0092800D01*
X0296200Y0092800D01*
X0304300Y0084700D01*
X0354700Y0084700D01*
X0363500Y0093500D01*
X0324100Y0063100D02*
X0323500Y0063500D01*
X0324100Y0063100D02*
X0324100Y0058600D01*
X0327700Y0055000D01*
X0228500Y0053500D02*
X0227800Y0054100D01*
X0227800Y0053200D02*
X0228500Y0053500D01*
X0227800Y0053200D02*
X0214300Y0039700D01*
X0214300Y0034300D01*
X0213500Y0033500D01*
X0203500Y0033500D02*
X0203500Y0034300D01*
X0188200Y0049600D01*
X0169300Y0054100D02*
X0168500Y0053500D01*
X0169300Y0054100D02*
X0169300Y0059500D01*
X0172900Y0063100D01*
X0173500Y0063500D01*
X0163900Y0063100D02*
X0163500Y0063500D01*
X0163900Y0063100D02*
X0163900Y0054100D01*
X0138700Y0054100D01*
X0138500Y0053500D01*
X0127900Y0059500D02*
X0124300Y0055900D01*
X0124300Y0054100D01*
X0123500Y0053500D01*
X0118000Y0048700D02*
X0118000Y0038800D01*
X0118500Y0038500D01*
X0117100Y0034300D02*
X0112600Y0038800D01*
X0112600Y0044200D01*
X0103600Y0053200D01*
X0103500Y0053500D01*
X0102700Y0063100D02*
X0083800Y0044200D01*
X0038800Y0044200D01*
X0038500Y0043500D01*
X0038800Y0043300D01*
X0038800Y0034300D01*
X0038500Y0033500D01*
X0038800Y0033400D01*
X0057700Y0014500D01*
X0057700Y0009100D01*
X0058500Y0008500D01*
X0058600Y0008200D01*
X0063100Y0008200D01*
X0066700Y0004600D01*
X0124300Y0004600D01*
X0127900Y0008200D01*
X0128500Y0008500D01*
X0128800Y0008200D01*
X0133300Y0008200D01*
X0136900Y0004600D01*
X0164800Y0004600D01*
X0172900Y0012700D01*
X0173500Y0013500D01*
X0173800Y0012700D01*
X0177400Y0009100D01*
X0182800Y0009100D01*
X0183500Y0008500D01*
X0193500Y0008500D02*
X0193600Y0009100D01*
X0193600Y0023500D01*
X0203500Y0033400D01*
X0203500Y0033500D01*
X0193500Y0038500D02*
X0192700Y0038800D01*
X0183700Y0038800D01*
X0183500Y0038500D01*
X0173500Y0033500D02*
X0172900Y0033400D01*
X0172900Y0022600D01*
X0163900Y0013600D01*
X0163500Y0013500D01*
X0163000Y0012700D01*
X0156700Y0006400D01*
X0149500Y0006400D01*
X0143200Y0012700D01*
X0127000Y0012700D01*
X0123400Y0009100D01*
X0118900Y0009100D01*
X0118500Y0008500D01*
X0098200Y0018100D02*
X0089200Y0009100D01*
X0088500Y0008500D01*
X0088300Y0009100D01*
X0079300Y0009100D01*
X0078500Y0008500D01*
X0098200Y0018100D02*
X0098200Y0037900D01*
X0098500Y0038500D01*
X0117100Y0034300D02*
X0124300Y0034300D01*
X0145000Y0013600D01*
X0153100Y0013600D01*
X0153500Y0013500D01*
X0163500Y0033500D02*
X0163900Y0034300D01*
X0163900Y0054100D01*
X0138500Y0038500D02*
X0137800Y0038800D01*
X0128800Y0038800D01*
X0128500Y0038500D01*
X0092800Y0063100D02*
X0079300Y0049600D01*
X0042400Y0049600D01*
X0038500Y0053500D01*
X0058600Y0038800D02*
X0058500Y0038500D01*
X0058600Y0038800D02*
X0068500Y0038800D01*
X0068500Y0038500D01*
X0068500Y0038800D02*
X0078400Y0038800D01*
X0078500Y0038500D01*
X0073500Y0053500D02*
X0073900Y0054100D01*
X0073900Y0063100D01*
X0073500Y0063500D01*
X0092800Y0063100D02*
X0093500Y0063500D01*
X0102700Y0063100D02*
X0103500Y0063500D01*
X0103600Y0064000D01*
X0109900Y0070300D01*
X0118500Y0118500D02*
X0118900Y0118900D01*
X0123400Y0118900D01*
X0128500Y0118500D02*
X0128800Y0118900D01*
X0137800Y0118900D01*
X0138500Y0118500D01*
X0328600Y0147700D02*
X0333100Y0147700D01*
X0333500Y0148500D01*
X0334000Y0148600D01*
X0343000Y0148600D01*
X0343500Y0148500D01*
M02*
