%
M48
M72
T01C0.03200
T02C0.04000
%
T01
X58500Y8500
X68500Y8500
X78500Y8500
X88500Y8500
X98500Y8500
X108500Y8500
X118500Y8500
X128500Y8500
X138500Y8500
X153500Y13500
X163500Y13500
X173500Y13500
X183500Y8500
X193500Y8500
X203500Y13500
X213500Y13500
X223500Y13500
X248500Y19500
X248500Y27500
X223500Y33500
X213500Y33500
X203500Y33500
X193500Y38500
X183500Y38500
X173500Y33500
X163500Y33500
X153500Y33500
X138500Y38500
X128500Y38500
X118500Y38500
X108500Y38500
X98500Y38500
X88500Y38500
X78500Y38500
X68500Y38500
X58500Y38500
X73500Y53500
X73500Y63500
X83500Y63500
X93500Y63500
X103500Y63500
X113500Y63500
X123500Y63500
X133500Y63500
X143500Y63500
X163500Y63500
X173500Y63500
X183500Y63500
X193500Y63500
X203500Y63500
X213500Y63500
X223500Y63500
X228500Y53500
X198500Y53500
X188500Y53500
X178500Y53500
X168500Y53500
X138500Y53500
X123500Y53500
X113500Y53500
X103500Y53500
X103500Y93500
X93500Y93500
X83500Y93500
X73500Y93500
X73500Y103500
X103500Y103500
X113500Y103500
X123500Y103500
X138500Y103500
X133500Y93500
X143500Y93500
X123500Y93500
X113500Y93500
X163500Y93500
X173500Y93500
X183500Y93500
X193500Y93500
X203500Y93500
X213500Y93500
X223500Y93500
X228500Y103500
X198500Y103500
X188500Y103500
X178500Y103500
X168500Y103500
X183500Y118500
X193500Y118500
X203500Y123500
X213500Y123500
X223500Y123500
X248500Y129500
X248500Y137500
X223500Y143500
X213500Y143500
X203500Y143500
X193500Y148500
X183500Y148500
X173500Y143500
X163500Y143500
X153500Y143500
X138500Y148500
X128500Y148500
X118500Y148500
X108500Y148500
X98500Y148500
X88500Y148500
X78500Y148500
X68500Y148500
X58500Y148500
X58500Y118500
X68500Y118500
X78500Y118500
X88500Y118500
X98500Y118500
X108500Y118500
X118500Y118500
X128500Y118500
X138500Y118500
X153500Y123500
X163500Y123500
X173500Y123500
X273500Y103500
X273500Y93500
X283500Y93500
X293500Y93500
X303500Y93500
X313500Y93500
X323500Y93500
X333500Y93500
X343500Y93500
X323500Y103500
X313500Y103500
X303500Y103500
X303500Y118500
X293500Y118500
X283500Y118500
X313500Y118500
X323500Y118500
X333500Y118500
X343500Y118500
X343500Y148500
X333500Y148500
X323500Y148500
X313500Y148500
X303500Y148500
X293500Y148500
X283500Y148500
X283500Y63500
X273500Y63500
X293500Y63500
X303500Y63500
X313500Y63500
X323500Y63500
X333500Y63500
X343500Y63500
X323500Y53500
X313500Y53500
X303500Y53500
X273500Y53500
X283500Y38500
X293500Y38500
X303500Y38500
X313500Y38500
X323500Y38500
X333500Y38500
X343500Y38500
X343500Y8500
X333500Y8500
X323500Y8500
X313500Y8500
X303500Y8500
X293500Y8500
X283500Y8500
T02
X38500Y33500
X38500Y43500
X38500Y53500
X38500Y63500
X38500Y73500
X38500Y83500
X38500Y93500
X38500Y103500
X38500Y113500
X38500Y123500
X243500Y113500
X253500Y113500
X253500Y103500
X243500Y103500
X243500Y93500
X253500Y93500
X253500Y83500
X243500Y83500
X243500Y73500
X253500Y73500
X253500Y63500
X243500Y63500
X243500Y53500
X253500Y53500
X253500Y43500
X243500Y43500
X363500Y43500
X363500Y33500
X363500Y53500
X363500Y63500
X363500Y73500
X363500Y83500
X363500Y93500
X363500Y103500
X363500Y113500
X363500Y123500
M30
