M48
;GenerationSoftware,Autodesk,EAGLE,9.6.2*%
;CreationDate,2021-11-09T03:18:32Z*%
FMAT,2
ICI,OFF
METRIC,TZ,000.000
T3C0.813
T2C1.016
T1C1.200
%
G90
M71
T1
X3810Y40720
X3810Y45720
X3810Y50720
X3810Y63580
X3810Y68580
X3810Y73580
X6340Y32260
X6340Y22860
X2540Y32260
X2540Y22860
X6340Y14480
X6340Y5080
X2540Y14480
X2540Y5080
X3810Y86440
X3810Y91440
X3810Y96440
T2
X77470Y86360
X74930Y96520
X25400Y17780
X20320Y17780
X17780Y17780
X15240Y17780
X12700Y17780
X10160Y17780
X3175Y57150
X3175Y80010
X6350Y17145
X6350Y2540
X2540Y17145
X2540Y2540
X6350Y34925
X13970Y58420
X11430Y58420
X13970Y60960
X11430Y60960
X13970Y63500
X11430Y63500
X13970Y66040
X11430Y66040
X13970Y68580
X11430Y68580
X13970Y71120
X11430Y71120
X13970Y73660
X11430Y73660
X13970Y76200
X11430Y76200
X8890Y58420
X6350Y58420
X8890Y60960
X6350Y60960
X8890Y63500
X6350Y63500
X8890Y66040
X6350Y66040
X8890Y68580
X6350Y68580
X8890Y71120
X6350Y71120
X8890Y73660
X6350Y73660
X8890Y76200
X6350Y76200
X29210Y58420
X26670Y58420
X29210Y60960
X26670Y60960
X29210Y63500
X26670Y63500
X29210Y66040
X26670Y66040
X29210Y68580
X26670Y68580
X29210Y71120
X26670Y71120
X29210Y73660
X26670Y73660
X29210Y76200
X26670Y76200
X34290Y58420
X31750Y58420
X34290Y60960
X31750Y60960
X34290Y63500
X31750Y63500
X34290Y66040
X31750Y66040
X34290Y68580
X31750Y68580
X34290Y71120
X31750Y71120
X34290Y73660
X31750Y73660
X34290Y76200
X31750Y76200
X41910Y96520
X41910Y93980
X41910Y91440
X41910Y88900
X41910Y86360
X41910Y83820
X41910Y81280
X41910Y78740
X41910Y76200
X41910Y73660
X41910Y71120
X41910Y68580
X41910Y66040
X41910Y63500
X41910Y60960
X41910Y58420
X41910Y55880
X41910Y53340
X41910Y50800
X41910Y48260
X41910Y45720
X41910Y43180
X41910Y40640
X41910Y38100
X41910Y35560
X41910Y33020
X41910Y30480
X41910Y27940
X41910Y25400
X41910Y22860
X45720Y96520
X45720Y93980
X45720Y91440
X45720Y88900
X45720Y86360
X45720Y83820
X45720Y81280
X45720Y78740
X45720Y76200
X45720Y73660
X45720Y71120
X45720Y68580
X45720Y66040
X45720Y63500
X45720Y60960
X45720Y58420
X45720Y55880
X45720Y53340
X45720Y50800
X45720Y48260
X45720Y45720
X45720Y43180
X45720Y40640
X45720Y38100
X45720Y35560
X45720Y33020
X45720Y30480
X45720Y27940
X45720Y25400
X45720Y22860
X53340Y10160
X53340Y12700
X55880Y10160
X55880Y12700
X58420Y10160
X58420Y12700
X53340Y15240
X53340Y17780
X55880Y15240
X55880Y17780
X58420Y15240
X58420Y17780
X38100Y96520
X38100Y93980
X38100Y91440
X38100Y88900
X38100Y86360
X38100Y83820
X38100Y81280
X38100Y78740
X38100Y76200
X38100Y73660
X38100Y71120
X38100Y68580
X38100Y66040
X38100Y63500
X38100Y60960
X38100Y58420
X38100Y55880
X38100Y53340
X38100Y50800
X38100Y48260
X38100Y45720
X38100Y43180
X38100Y40640
X38100Y38100
X38100Y35560
X38100Y33020
X38100Y30480
X38100Y27940
X38100Y25400
X38100Y22860
X6350Y20320
X2540Y34925
X2540Y20320
X74930Y35560
X77470Y35560
X74930Y33020
X77470Y33020
X74930Y30480
X77470Y30480
X74930Y27940
X77470Y27940
X69850Y35560
X72390Y35560
X69850Y33020
X72390Y33020
X69850Y30480
X13970Y78740
X11430Y78740
X13970Y81280
X11430Y81280
X13970Y83820
X11430Y83820
X13970Y86360
X11430Y86360
X13970Y88900
X11430Y88900
X13970Y91440
X11430Y91440
X13970Y93980
X11430Y93980
X13970Y96520
X11430Y96520
X8890Y78740
X6350Y78740
X8890Y81280
X6350Y81280
X8890Y83820
X6350Y83820
X8890Y86360
X6350Y86360
X8890Y88900
X6350Y88900
X8890Y91440
X6350Y91440
X8890Y93980
X6350Y93980
X8890Y96520
X6350Y96520
X29210Y78740
X26670Y78740
X29210Y81280
X26670Y81280
X29210Y83820
X26670Y83820
X29210Y86360
X26670Y86360
X29210Y88900
X26670Y88900
X29210Y91440
X26670Y91440
X29210Y93980
X26670Y93980
X29210Y96520
X26670Y96520
X34290Y78740
X31750Y78740
X34290Y81280
X31750Y81280
X34290Y83820
X31750Y83820
X34290Y86360
X31750Y86360
X34290Y88900
X31750Y88900
X34290Y91440
X31750Y91440
X34290Y93980
X31750Y93980
X34290Y96520
X31750Y96520
X72390Y30480
X58420Y3810
X58420Y6350
X60960Y3810
X60960Y6350
X63500Y3810
X63500Y6350
X66040Y3810
X66040Y6350
X68580Y3810
X68580Y6350
X69850Y27940
X72390Y27940
X49530Y35560
X52070Y35560
X49530Y33020
X52070Y33020
X49530Y30480
X52070Y30480
X49530Y27940
X52070Y27940
X54610Y35560
X57150Y35560
X54610Y33020
X57150Y33020
X54610Y30480
X57150Y30480
X13970Y38100
X11430Y38100
X13970Y40640
X11430Y40640
X13970Y43180
X11430Y43180
X13970Y45720
X11430Y45720
X13970Y48260
X11430Y48260
X13970Y50800
X11430Y50800
X13970Y53340
X11430Y53340
X13970Y55880
X11430Y55880
X8890Y38100
X6350Y38100
X8890Y40640
X6350Y40640
X8890Y43180
X6350Y43180
X8890Y45720
X6350Y45720
X8890Y48260
X6350Y48260
X8890Y50800
X6350Y50800
X8890Y53340
X6350Y53340
X8890Y55880
X6350Y55880
X29210Y38100
X26670Y38100
X29210Y40640
X26670Y40640
X29210Y43180
X26670Y43180
X29210Y45720
X26670Y45720
X29210Y48260
X26670Y48260
X29210Y50800
X26670Y50800
X29210Y53340
X26670Y53340
X29210Y55880
X26670Y55880
X34290Y38100
X31750Y38100
X34290Y40640
X31750Y40640
X34290Y43180
X31750Y43180
X34290Y45720
X31750Y45720
X34290Y48260
X31750Y48260
X34290Y50800
X31750Y50800
X34290Y53340
X31750Y53340
X34290Y55880
X31750Y55880
X54610Y27940
X57150Y27940
X21590Y35560
X24130Y35560
X21590Y33020
X24130Y33020
X21590Y30480
X24130Y30480
X21590Y27940
X24130Y27940
X21590Y25400
X24130Y25400
X21590Y22860
X24130Y22860
X21590Y20320
X24130Y20320
X57150Y78740
X54610Y78740
X57150Y81280
X54610Y81280
X57150Y83820
X54610Y83820
X57150Y86360
X54610Y86360
X57150Y88900
X54610Y88900
X57150Y91440
X54610Y91440
X57150Y93980
X54610Y93980
X57150Y96520
X54610Y96520
X52070Y78740
X49530Y78740
X52070Y81280
X49530Y81280
X52070Y83820
X49530Y83820
X52070Y86360
X49530Y86360
X52070Y88900
X49530Y88900
X52070Y91440
X49530Y91440
X52070Y93980
X49530Y93980
X52070Y96520
X49530Y96520
X77470Y78740
X74930Y78740
X77470Y81280
X74930Y81280
X77470Y83820
X74930Y83820
X16510Y35560
X74930Y86360
X77470Y88900
X74930Y88900
X77470Y91440
X74930Y91440
X77470Y93980
X74930Y93980
X77470Y96520
X27940Y17780
X69850Y78740
X72390Y78740
X69850Y81280
X72390Y81280
X69850Y83820
X72390Y83820
X69850Y86360
X72390Y86360
X69850Y88900
X72390Y88900
X69850Y91440
X72390Y91440
X69850Y93980
X72390Y93980
X69850Y96520
X72390Y96520
X19050Y35560
X16510Y33020
X19050Y33020
X16510Y30480
X19050Y30480
X16510Y27940
X19050Y27940
X16510Y25400
X19050Y25400
X16510Y22860
X19050Y22860
X16510Y20320
X19050Y20320
X11430Y35560
X13970Y35560
X11430Y33020
X57150Y58420
X54610Y58420
X57150Y60960
X54610Y60960
X57150Y63500
X54610Y63500
X57150Y66040
X54610Y66040
X57150Y68580
X54610Y68580
X57150Y71120
X54610Y71120
X57150Y73660
X54610Y73660
X57150Y76200
X54610Y76200
X52070Y58420
X49530Y58420
X52070Y60960
X49530Y60960
X52070Y63500
X49530Y63500
X52070Y66040
X49530Y66040
X52070Y68580
X49530Y68580
X52070Y71120
X49530Y71120
X52070Y73660
X49530Y73660
X52070Y76200
X49530Y76200
X72390Y58420
X69850Y58420
X72390Y60960
X69850Y60960
X72390Y63500
X69850Y63500
X72390Y66040
X69850Y66040
X72390Y68580
X69850Y68580
X72390Y71120
X69850Y71120
X72390Y73660
X69850Y73660
X72390Y76200
X69850Y76200
X77470Y58420
X74930Y58420
X77470Y60960
X74930Y60960
X77470Y63500
X74930Y63500
X77470Y66040
X74930Y66040
X77470Y68580
X74930Y68580
X77470Y71120
X74930Y71120
X77470Y73660
X74930Y73660
X77470Y76200
X74930Y76200
X13970Y33020
X11430Y30480
X13970Y30480
X11430Y27940
X13970Y27940
X11430Y25400
X13970Y25400
X11430Y22860
X13970Y22860
X11430Y20320
X13970Y20320
X26670Y35560
X29210Y35560
X26670Y33020
X29210Y33020
X26670Y30480
X57150Y38100
X54610Y38100
X57150Y40640
X54610Y40640
X57150Y43180
X54610Y43180
X57150Y45720
X54610Y45720
X57150Y48260
X54610Y48260
X57150Y50800
X54610Y50800
X57150Y53340
X54610Y53340
X57150Y55880
X54610Y55880
X52070Y38100
X49530Y38100
X52070Y40640
X49530Y40640
X52070Y43180
X49530Y43180
X52070Y45720
X49530Y45720
X52070Y48260
X49530Y48260
X52070Y50800
X49530Y50800
X52070Y53340
X49530Y53340
X52070Y55880
X49530Y55880
X72390Y38100
X69850Y38100
X72390Y40640
X69850Y40640
X72390Y43180
X69850Y43180
X72390Y45720
X69850Y45720
X72390Y48260
X69850Y48260
X72390Y50800
X69850Y50800
X72390Y53340
X69850Y53340
X72390Y55880
X69850Y55880
X77470Y38100
X74930Y38100
X77470Y40640
X74930Y40640
X77470Y43180
X74930Y43180
X77470Y45720
X74930Y45720
X77470Y48260
X74930Y48260
X77470Y50800
X74930Y50800
X77470Y53340
X74930Y53340
X77470Y55880
X74930Y55880
X71120Y3810
X71120Y6350
X73660Y3810
X73660Y6350
X76200Y3810
X76200Y6350
X29210Y30480
X26670Y27940
X29210Y27940
X26670Y25400
X61595Y20320
X66675Y20320
X71755Y20320
X76835Y20320
X29210Y15240
X29210Y12700
X26670Y15240
X26670Y12700
X24130Y15240
X24130Y12700
X21590Y15240
X21590Y12700
X19050Y15240
X19050Y12700
X16510Y15240
X16510Y12700
X13970Y15240
X13970Y12700
X11430Y15240
X11430Y12700
X29210Y5080
X29210Y2540
X26670Y5080
X26670Y2540
X24130Y5080
X24130Y2540
X21590Y5080
X21590Y2540
X19050Y5080
X19050Y2540
X16510Y5080
X16510Y2540
X13970Y5080
X13970Y2540
X11430Y5080
X11430Y2540
X29210Y10160
X29210Y7620
X26670Y10160
X26670Y7620
X24130Y10160
X24130Y7620
X21590Y10160
X21590Y7620
X19050Y10160
X19050Y7620
X16510Y10160
X16510Y7620
X13970Y10160
X13970Y7620
X11430Y10160
X11430Y7620
X49530Y15240
X49530Y12700
X46990Y15240
X46990Y12700
X44450Y15240
X44450Y12700
X41910Y15240
X41910Y12700
X39370Y15240
X39370Y12700
X36830Y15240
X36830Y12700
X34290Y15240
X34290Y12700
X31750Y15240
X31750Y12700
X49530Y5080
X49530Y2540
X46990Y5080
X46990Y2540
X44450Y5080
X44450Y2540
X41910Y5080
X41910Y2540
X39370Y5080
X39370Y2540
X36830Y5080
X36830Y2540
X34290Y5080
X34290Y2540
X31750Y5080
X31750Y2540
X49530Y10160
X49530Y7620
X46990Y10160
X46990Y7620
X44450Y10160
X44450Y7620
X41910Y10160
X41910Y7620
X39370Y10160
X39370Y7620
X36830Y10160
X36830Y7620
X34290Y10160
X34290Y7620
X31750Y10160
X31750Y7620
X34290Y20320
X31750Y20320
X34290Y22860
X31750Y22860
X34290Y25400
X31750Y25400
X34290Y27940
X31750Y27940
X34290Y30480
X31750Y30480
X34290Y33020
X31750Y33020
X34290Y35560
X31750Y35560
X29210Y20320
X26670Y20320
X29210Y22860
X26670Y22860
X29210Y25400
T3
X73025Y12700
X70485Y12700
X67945Y12700
X65405Y12700
X67310Y55880
X59690Y55880
X67310Y53340
X59690Y53340
X67310Y50800
X59690Y50800
X67310Y48260
X59690Y48260
X67310Y45720
X59690Y45720
X67310Y43180
X59690Y43180
X67310Y40640
X59690Y40640
X67310Y38100
X59690Y38100
X67310Y76200
X59690Y76200
X67310Y73660
X59690Y73660
X67310Y71120
X59690Y71120
X67310Y68580
X59690Y68580
X67310Y66040
X59690Y66040
X67310Y63500
X59690Y63500
X67310Y60960
X59690Y60960
X67310Y58420
X59690Y58420
X24130Y58420
X67310Y96520
X59690Y96520
X67310Y93980
X59690Y93980
X67310Y91440
X59690Y91440
X67310Y88900
X59690Y88900
X67310Y86360
X59690Y86360
X67310Y83820
X59690Y83820
X67310Y81280
X59690Y81280
X67310Y27940
X67310Y30480
X59690Y35560
X59690Y33020
X67310Y33020
X67310Y35560
X59690Y30480
X59690Y27940
X67310Y78740
X59690Y78740
X24130Y55880
X16510Y55880
X24130Y53340
X16510Y53340
X24130Y50800
X16510Y50800
X24130Y48260
X16510Y48260
X24130Y45720
X16510Y45720
X24130Y43180
X16510Y43180
X24130Y40640
X16510Y40640
X24130Y38100
X16510Y38100
X16510Y58420
X24130Y96520
X16510Y96520
X24130Y93980
X16510Y93980
X24130Y91440
X16510Y91440
X24130Y88900
X16510Y88900
X24130Y86360
X16510Y86360
X24130Y83820
X16510Y83820
X24130Y81280
X16510Y81280
X24130Y78740
X16510Y78740
X24130Y76200
X16510Y76200
X24130Y73660
X16510Y73660
X24130Y71120
X16510Y71120
X24130Y68580
X16510Y68580
X24130Y66040
X16510Y66040
X24130Y63500
X16510Y63500
X24130Y60960
X16510Y60960
M30