G75*
%MOIN*%
%OFA0B0*%
%FSLAX25Y25*%
%IPPOS*%
%LPD*%
%AMOC8*
5,1,8,0,0,1.08239X$1,22.5*
%
%ADD10C,0.00000*%
%ADD11C,0.00500*%
D10*
X0001000Y0001000D02*
X0001000Y0195961D01*
X0249701Y0195961D01*
X0249701Y0001000D01*
X0001000Y0001000D01*
D11*
X0134675Y0149215D02*
X0134675Y0155320D01*
X0137727Y0155320D01*
X0138745Y0154303D01*
X0138745Y0152268D01*
X0137727Y0151250D01*
X0134675Y0151250D01*
X0132653Y0151250D02*
X0132653Y0152268D01*
X0131636Y0152268D01*
X0131636Y0151250D01*
X0132653Y0151250D01*
X0128611Y0151250D02*
X0128611Y0157355D01*
X0125559Y0154303D01*
X0129629Y0154303D01*
X0123538Y0152268D02*
X0123538Y0151250D01*
X0122520Y0151250D01*
X0122520Y0152268D01*
X0123538Y0152268D01*
X0120513Y0151250D02*
X0116443Y0151250D01*
X0114422Y0151250D02*
X0113404Y0151250D01*
X0113404Y0152268D01*
X0114422Y0152268D01*
X0114422Y0151250D01*
X0118478Y0151250D02*
X0118478Y0157355D01*
X0116443Y0155320D01*
X0111379Y0159115D02*
X0111379Y0165220D01*
X0114431Y0165220D01*
X0115449Y0164203D01*
X0115449Y0162168D01*
X0114431Y0161150D01*
X0111379Y0161150D01*
X0109362Y0161150D02*
X0107327Y0161150D01*
X0108345Y0161150D02*
X0108345Y0167255D01*
X0107327Y0167255D01*
X0105320Y0167255D02*
X0105320Y0161150D01*
X0102268Y0161150D01*
X0101250Y0162168D01*
X0101250Y0164203D01*
X0102268Y0165220D01*
X0105320Y0165220D01*
X0109362Y0157355D02*
X0109362Y0151250D01*
X0107327Y0151250D02*
X0111397Y0151250D01*
X0107327Y0155320D02*
X0109362Y0157355D01*
X0105320Y0155320D02*
X0103285Y0151250D01*
X0101250Y0155320D01*
X0117456Y0161150D02*
X0118473Y0161150D01*
X0118473Y0162168D01*
X0117456Y0162168D01*
X0117456Y0161150D01*
X0122529Y0161150D02*
X0120494Y0165220D01*
X0124565Y0165220D02*
X0122529Y0161150D01*
X0126572Y0162168D02*
X0127589Y0161150D01*
X0130642Y0161150D01*
X0132649Y0162168D02*
X0133666Y0161150D01*
X0135701Y0161150D01*
X0136719Y0162168D01*
X0136719Y0164203D01*
X0135701Y0165220D01*
X0133666Y0165220D01*
X0132649Y0164203D01*
X0132649Y0162168D01*
X0130642Y0165220D02*
X0127589Y0165220D01*
X0126572Y0164203D01*
X0126572Y0162168D01*
X0140752Y0155320D02*
X0140752Y0151250D01*
X0144822Y0151250D02*
X0144822Y0154303D01*
X0143804Y0155320D01*
X0140752Y0155320D01*
X0146829Y0157355D02*
X0147846Y0157355D01*
X0147846Y0151250D01*
X0146829Y0151250D02*
X0148864Y0151250D01*
M02*
