%
M48
M72
T01C0.03150
T02C0.03200
T03C0.04000
%
T01
X11000Y71000
X21000Y71000
X31000Y71000
X51000Y71000
X61000Y71000
X71000Y71000
X91000Y71000
X101000Y71000
X111000Y71000
X111000Y111000
X101000Y111000
X91000Y111000
X71000Y111000
X61000Y111000
X51000Y111000
X31000Y111000
X21000Y111000
X11000Y111000
X11000Y181000
X21000Y181000
X31000Y181000
X81000Y181000
X91000Y181000
X101000Y181000
X151000Y181000
X161000Y181000
X171000Y181000
X221000Y181000
X231000Y181000
X241000Y181000
X241000Y101000
X211000Y101000
X201000Y101000
X171000Y101000
X171000Y61000
X201000Y61000
X211000Y61000
X241000Y61000
X241000Y21000
X211000Y21000
T02
X11000Y31000
X51000Y31000
X61000Y31000
X61000Y41000
X101000Y41000
X101000Y31000
X121000Y31000
X121000Y51000
X121000Y71000
X121000Y91000
X121000Y111000
X161000Y111000
X161000Y91000
X161000Y71000
X161000Y51000
X161000Y31000
X161000Y21000
X201000Y21000
T03
X31000Y11000
X41000Y11000
X51000Y11000
X61000Y11000
X71000Y11000
X81000Y11000
X91000Y11000
X101000Y11000
X111000Y11000
X121000Y11000
X151000Y141000
X161000Y141000
X171000Y141000
X181000Y141000
X191000Y141000
X201000Y141000
X211000Y141000
X221000Y141000
X231000Y141000
X241000Y141000
M30
