G75*
%MOIN*%
%OFA0B0*%
%FSLAX25Y25*%
%IPPOS*%
%LPD*%
%AMOC8*
5,1,8,0,0,1.08239X$1,22.5*
%
%ADD10C,0.00000*%
%ADD11R,0.05150X0.05150*%
%ADD12C,0.06000*%
%ADD13OC8,0.05200*%
%ADD14C,0.00600*%
D10*
X0001000Y0001000D02*
X0001000Y0195961D01*
X0249701Y0195961D01*
X0249701Y0001000D01*
X0001000Y0001000D01*
D11*
X0011000Y0071000D03*
X0021000Y0071000D03*
X0031000Y0071000D03*
X0051000Y0071000D03*
X0061000Y0071000D03*
X0071000Y0071000D03*
X0091000Y0071000D03*
X0101000Y0071000D03*
X0111000Y0071000D03*
X0111000Y0111000D03*
X0101000Y0111000D03*
X0091000Y0111000D03*
X0071000Y0111000D03*
X0061000Y0111000D03*
X0051000Y0111000D03*
X0031000Y0111000D03*
X0021000Y0111000D03*
X0011000Y0111000D03*
X0011000Y0181000D03*
X0021000Y0181000D03*
X0031000Y0181000D03*
X0081000Y0181000D03*
X0091000Y0181000D03*
X0101000Y0181000D03*
X0151000Y0181000D03*
X0161000Y0181000D03*
X0171000Y0181000D03*
X0221000Y0181000D03*
X0231000Y0181000D03*
X0241000Y0181000D03*
X0241000Y0101000D03*
X0211000Y0101000D03*
X0201000Y0101000D03*
X0171000Y0101000D03*
X0171000Y0061000D03*
X0201000Y0061000D03*
X0211000Y0061000D03*
X0241000Y0061000D03*
X0241000Y0021000D03*
X0211000Y0021000D03*
D12*
X0121000Y0014000D02*
X0121000Y0008000D01*
X0111000Y0008000D02*
X0111000Y0014000D01*
X0101000Y0014000D02*
X0101000Y0008000D01*
X0091000Y0008000D02*
X0091000Y0014000D01*
X0081000Y0014000D02*
X0081000Y0008000D01*
X0071000Y0008000D02*
X0071000Y0014000D01*
X0061000Y0014000D02*
X0061000Y0008000D01*
X0051000Y0008000D02*
X0051000Y0014000D01*
X0041000Y0014000D02*
X0041000Y0008000D01*
X0031000Y0008000D02*
X0031000Y0014000D01*
X0151000Y0138000D02*
X0151000Y0144000D01*
X0161000Y0144000D02*
X0161000Y0138000D01*
X0171000Y0138000D02*
X0171000Y0144000D01*
X0181000Y0144000D02*
X0181000Y0138000D01*
X0191000Y0138000D02*
X0191000Y0144000D01*
X0201000Y0144000D02*
X0201000Y0138000D01*
X0211000Y0138000D02*
X0211000Y0144000D01*
X0221000Y0144000D02*
X0221000Y0138000D01*
X0231000Y0138000D02*
X0231000Y0144000D01*
X0241000Y0144000D02*
X0241000Y0138000D01*
D13*
X0161000Y0111000D03*
X0161000Y0091000D03*
X0161000Y0071000D03*
X0161000Y0051000D03*
X0161000Y0031000D03*
X0161000Y0021000D03*
X0201000Y0021000D03*
X0121000Y0031000D03*
X0101000Y0031000D03*
X0101000Y0041000D03*
X0121000Y0051000D03*
X0121000Y0071000D03*
X0121000Y0091000D03*
X0121000Y0111000D03*
X0061000Y0041000D03*
X0061000Y0031000D03*
X0051000Y0031000D03*
X0011000Y0031000D03*
D14*
X0014800Y0018400D02*
X0014800Y0067000D01*
X0011200Y0070600D01*
X0011000Y0071000D01*
X0017200Y0059800D02*
X0017200Y0177400D01*
X0020800Y0181000D01*
X0021000Y0181000D01*
X0017800Y0184600D02*
X0016000Y0182800D01*
X0016000Y0046000D01*
X0051000Y0011000D01*
X0061000Y0011000D02*
X0061000Y0016000D01*
X0017200Y0059800D01*
X0044200Y0091000D02*
X0121000Y0091000D01*
X0130000Y0087400D02*
X0110200Y0107200D01*
X0074800Y0107200D01*
X0071000Y0111000D01*
X0044200Y0091000D02*
X0024400Y0110800D01*
X0021400Y0110800D01*
X0021000Y0111000D01*
X0061000Y0071000D02*
X0061000Y0046000D01*
X0057400Y0042400D01*
X0057400Y0034600D01*
X0061000Y0031000D01*
X0037600Y0004000D02*
X0031000Y0010600D01*
X0031000Y0011000D01*
X0037600Y0004000D02*
X0112600Y0004000D01*
X0115000Y0006400D01*
X0115000Y0013600D01*
X0119800Y0018400D01*
X0122200Y0018400D01*
X0123400Y0017200D01*
X0214000Y0017200D01*
X0217600Y0020800D01*
X0241000Y0020800D01*
X0241000Y0021000D01*
X0241000Y0061000D02*
X0217600Y0061000D01*
X0202600Y0076000D01*
X0076000Y0076000D01*
X0071000Y0071000D01*
X0091000Y0071200D02*
X0091000Y0071000D01*
X0091000Y0071200D02*
X0094600Y0071200D01*
X0098200Y0074800D01*
X0113800Y0074800D01*
X0117400Y0071200D01*
X0117400Y0069400D01*
X0143200Y0043600D01*
X0113800Y0014200D01*
X0113800Y0013600D01*
X0111400Y0011200D01*
X0111000Y0011000D01*
X0113200Y0002800D02*
X0030400Y0002800D01*
X0014800Y0018400D01*
X0101000Y0011000D02*
X0110800Y0020800D01*
X0110800Y0070600D01*
X0111000Y0071000D01*
X0130000Y0087400D02*
X0204400Y0087400D01*
X0217600Y0100600D01*
X0241000Y0100600D01*
X0241000Y0101000D01*
X0211000Y0101000D02*
X0211000Y0100600D01*
X0207400Y0097000D01*
X0198400Y0097000D01*
X0194800Y0100600D01*
X0185200Y0100600D01*
X0185200Y0145600D01*
X0182800Y0148000D01*
X0169000Y0148000D01*
X0162400Y0141400D01*
X0161200Y0141400D01*
X0161000Y0141000D01*
X0181000Y0141000D02*
X0181000Y0118000D01*
X0161200Y0098200D01*
X0161200Y0091000D01*
X0161000Y0091000D01*
X0171000Y0101000D02*
X0171400Y0100600D01*
X0185200Y0100600D01*
X0171000Y0061000D02*
X0160600Y0061000D01*
X0143200Y0043600D01*
X0121000Y0011000D02*
X0121000Y0010600D01*
X0113200Y0002800D01*
X0121000Y0111000D02*
X0121000Y0111400D01*
X0117400Y0115000D01*
X0108400Y0115000D01*
X0104800Y0111400D01*
X0101200Y0111400D01*
X0101000Y0111000D01*
X0081000Y0181000D02*
X0037600Y0181000D01*
X0034000Y0184600D01*
X0017800Y0184600D01*
M02*
