G75*
%MOIN*%
%OFA0B0*%
%FSLAX25Y25*%
%IPPOS*%
%LPD*%
%AMOC8*
5,1,8,0,0,1.08239X$1,22.5*
%
%ADD10C,0.00000*%
%ADD11C,0.00500*%
%ADD12C,0.00400*%
%ADD13C,0.00600*%
D10*
X0001000Y0001000D02*
X0001000Y0195961D01*
X0249701Y0195961D01*
X0249701Y0001000D01*
X0001000Y0001000D01*
D11*
X0023542Y0028750D02*
X0023542Y0033254D01*
X0025794Y0033254D01*
X0026545Y0032503D01*
X0026545Y0031002D01*
X0025794Y0030251D01*
X0023542Y0030251D01*
X0025043Y0030251D02*
X0026545Y0028750D01*
X0028146Y0031002D02*
X0031149Y0031002D01*
X0030398Y0028750D02*
X0030398Y0033254D01*
X0028146Y0031002D01*
X0074750Y0030251D02*
X0077002Y0030251D01*
X0077753Y0031002D01*
X0077753Y0032503D01*
X0077002Y0033254D01*
X0074750Y0033254D01*
X0074750Y0028750D01*
X0076251Y0030251D02*
X0077753Y0028750D01*
X0079354Y0028750D02*
X0082356Y0031753D01*
X0082356Y0032503D01*
X0081606Y0033254D01*
X0080105Y0033254D01*
X0079354Y0032503D01*
X0079354Y0028750D02*
X0082356Y0028750D01*
X0082356Y0038750D02*
X0079354Y0038750D01*
X0080855Y0038750D02*
X0080855Y0043254D01*
X0079354Y0041753D01*
X0077753Y0042503D02*
X0077753Y0041002D01*
X0077002Y0040251D01*
X0074750Y0040251D01*
X0074750Y0038750D02*
X0074750Y0043254D01*
X0077002Y0043254D01*
X0077753Y0042503D01*
X0076251Y0040251D02*
X0077753Y0038750D01*
X0046858Y0071000D02*
X0046862Y0071347D01*
X0046875Y0071694D01*
X0046896Y0072040D01*
X0046926Y0072386D01*
X0046964Y0072731D01*
X0047011Y0073075D01*
X0047066Y0073418D01*
X0047130Y0073759D01*
X0047202Y0074099D01*
X0047282Y0074436D01*
X0047370Y0074772D01*
X0047467Y0075105D01*
X0047572Y0075436D01*
X0047685Y0075764D01*
X0047806Y0076090D01*
X0047934Y0076412D01*
X0048071Y0076731D01*
X0048216Y0077046D01*
X0048368Y0077358D01*
X0048528Y0077666D01*
X0048695Y0077971D01*
X0048870Y0078270D01*
X0049052Y0078566D01*
X0049241Y0078857D01*
X0049438Y0079143D01*
X0049641Y0079424D01*
X0049851Y0079701D01*
X0050068Y0079972D01*
X0050292Y0080237D01*
X0050521Y0080497D01*
X0050758Y0080751D01*
X0051000Y0081000D01*
X0051249Y0081242D01*
X0051503Y0081479D01*
X0051763Y0081708D01*
X0052028Y0081932D01*
X0052299Y0082149D01*
X0052576Y0082359D01*
X0052857Y0082562D01*
X0053143Y0082759D01*
X0053434Y0082948D01*
X0053730Y0083130D01*
X0054029Y0083305D01*
X0054334Y0083472D01*
X0054642Y0083632D01*
X0054954Y0083784D01*
X0055269Y0083929D01*
X0055588Y0084066D01*
X0055910Y0084194D01*
X0056236Y0084315D01*
X0056564Y0084428D01*
X0056895Y0084533D01*
X0057228Y0084630D01*
X0057564Y0084718D01*
X0057901Y0084798D01*
X0058241Y0084870D01*
X0058582Y0084934D01*
X0058925Y0084989D01*
X0059269Y0085036D01*
X0059614Y0085074D01*
X0059960Y0085104D01*
X0060306Y0085125D01*
X0060653Y0085138D01*
X0061000Y0085142D01*
X0061347Y0085138D01*
X0061694Y0085125D01*
X0062040Y0085104D01*
X0062386Y0085074D01*
X0062731Y0085036D01*
X0063075Y0084989D01*
X0063418Y0084934D01*
X0063759Y0084870D01*
X0064099Y0084798D01*
X0064436Y0084718D01*
X0064772Y0084630D01*
X0065105Y0084533D01*
X0065436Y0084428D01*
X0065764Y0084315D01*
X0066090Y0084194D01*
X0066412Y0084066D01*
X0066731Y0083929D01*
X0067046Y0083784D01*
X0067358Y0083632D01*
X0067666Y0083472D01*
X0067971Y0083305D01*
X0068270Y0083130D01*
X0068566Y0082948D01*
X0068857Y0082759D01*
X0069143Y0082562D01*
X0069424Y0082359D01*
X0069701Y0082149D01*
X0069972Y0081932D01*
X0070237Y0081708D01*
X0070497Y0081479D01*
X0070751Y0081242D01*
X0071000Y0081000D01*
X0071242Y0080751D01*
X0071479Y0080497D01*
X0071708Y0080237D01*
X0071932Y0079972D01*
X0072149Y0079701D01*
X0072359Y0079424D01*
X0072562Y0079143D01*
X0072759Y0078857D01*
X0072948Y0078566D01*
X0073130Y0078270D01*
X0073305Y0077971D01*
X0073472Y0077666D01*
X0073632Y0077358D01*
X0073784Y0077046D01*
X0073929Y0076731D01*
X0074066Y0076412D01*
X0074194Y0076090D01*
X0074315Y0075764D01*
X0074428Y0075436D01*
X0074533Y0075105D01*
X0074630Y0074772D01*
X0074718Y0074436D01*
X0074798Y0074099D01*
X0074870Y0073759D01*
X0074934Y0073418D01*
X0074989Y0073075D01*
X0075036Y0072731D01*
X0075074Y0072386D01*
X0075104Y0072040D01*
X0075125Y0071694D01*
X0075138Y0071347D01*
X0075142Y0071000D01*
X0075138Y0070653D01*
X0075125Y0070306D01*
X0075104Y0069960D01*
X0075074Y0069614D01*
X0075036Y0069269D01*
X0074989Y0068925D01*
X0074934Y0068582D01*
X0074870Y0068241D01*
X0074798Y0067901D01*
X0074718Y0067564D01*
X0074630Y0067228D01*
X0074533Y0066895D01*
X0074428Y0066564D01*
X0074315Y0066236D01*
X0074194Y0065910D01*
X0074066Y0065588D01*
X0073929Y0065269D01*
X0073784Y0064954D01*
X0073632Y0064642D01*
X0073472Y0064334D01*
X0073305Y0064029D01*
X0073130Y0063730D01*
X0072948Y0063434D01*
X0072759Y0063143D01*
X0072562Y0062857D01*
X0072359Y0062576D01*
X0072149Y0062299D01*
X0071932Y0062028D01*
X0071708Y0061763D01*
X0071479Y0061503D01*
X0071242Y0061249D01*
X0071000Y0061000D01*
X0070751Y0060758D01*
X0070497Y0060521D01*
X0070237Y0060292D01*
X0069972Y0060068D01*
X0069701Y0059851D01*
X0069424Y0059641D01*
X0069143Y0059438D01*
X0068857Y0059241D01*
X0068566Y0059052D01*
X0068270Y0058870D01*
X0067971Y0058695D01*
X0067666Y0058528D01*
X0067358Y0058368D01*
X0067046Y0058216D01*
X0066731Y0058071D01*
X0066412Y0057934D01*
X0066090Y0057806D01*
X0065764Y0057685D01*
X0065436Y0057572D01*
X0065105Y0057467D01*
X0064772Y0057370D01*
X0064436Y0057282D01*
X0064099Y0057202D01*
X0063759Y0057130D01*
X0063418Y0057066D01*
X0063075Y0057011D01*
X0062731Y0056964D01*
X0062386Y0056926D01*
X0062040Y0056896D01*
X0061694Y0056875D01*
X0061347Y0056862D01*
X0061000Y0056858D01*
X0060653Y0056862D01*
X0060306Y0056875D01*
X0059960Y0056896D01*
X0059614Y0056926D01*
X0059269Y0056964D01*
X0058925Y0057011D01*
X0058582Y0057066D01*
X0058241Y0057130D01*
X0057901Y0057202D01*
X0057564Y0057282D01*
X0057228Y0057370D01*
X0056895Y0057467D01*
X0056564Y0057572D01*
X0056236Y0057685D01*
X0055910Y0057806D01*
X0055588Y0057934D01*
X0055269Y0058071D01*
X0054954Y0058216D01*
X0054642Y0058368D01*
X0054334Y0058528D01*
X0054029Y0058695D01*
X0053730Y0058870D01*
X0053434Y0059052D01*
X0053143Y0059241D01*
X0052857Y0059438D01*
X0052576Y0059641D01*
X0052299Y0059851D01*
X0052028Y0060068D01*
X0051763Y0060292D01*
X0051503Y0060521D01*
X0051249Y0060758D01*
X0051000Y0061000D01*
X0050758Y0061249D01*
X0050521Y0061503D01*
X0050292Y0061763D01*
X0050068Y0062028D01*
X0049851Y0062299D01*
X0049641Y0062576D01*
X0049438Y0062857D01*
X0049241Y0063143D01*
X0049052Y0063434D01*
X0048870Y0063730D01*
X0048695Y0064029D01*
X0048528Y0064334D01*
X0048368Y0064642D01*
X0048216Y0064954D01*
X0048071Y0065269D01*
X0047934Y0065588D01*
X0047806Y0065910D01*
X0047685Y0066236D01*
X0047572Y0066564D01*
X0047467Y0066895D01*
X0047370Y0067228D01*
X0047282Y0067564D01*
X0047202Y0067901D01*
X0047130Y0068241D01*
X0047066Y0068582D01*
X0047011Y0068925D01*
X0046964Y0069269D01*
X0046926Y0069614D01*
X0046896Y0069960D01*
X0046875Y0070306D01*
X0046862Y0070653D01*
X0046858Y0071000D01*
X0006858Y0071000D02*
X0006862Y0071347D01*
X0006875Y0071694D01*
X0006896Y0072040D01*
X0006926Y0072386D01*
X0006964Y0072731D01*
X0007011Y0073075D01*
X0007066Y0073418D01*
X0007130Y0073759D01*
X0007202Y0074099D01*
X0007282Y0074436D01*
X0007370Y0074772D01*
X0007467Y0075105D01*
X0007572Y0075436D01*
X0007685Y0075764D01*
X0007806Y0076090D01*
X0007934Y0076412D01*
X0008071Y0076731D01*
X0008216Y0077046D01*
X0008368Y0077358D01*
X0008528Y0077666D01*
X0008695Y0077971D01*
X0008870Y0078270D01*
X0009052Y0078566D01*
X0009241Y0078857D01*
X0009438Y0079143D01*
X0009641Y0079424D01*
X0009851Y0079701D01*
X0010068Y0079972D01*
X0010292Y0080237D01*
X0010521Y0080497D01*
X0010758Y0080751D01*
X0011000Y0081000D01*
X0011249Y0081242D01*
X0011503Y0081479D01*
X0011763Y0081708D01*
X0012028Y0081932D01*
X0012299Y0082149D01*
X0012576Y0082359D01*
X0012857Y0082562D01*
X0013143Y0082759D01*
X0013434Y0082948D01*
X0013730Y0083130D01*
X0014029Y0083305D01*
X0014334Y0083472D01*
X0014642Y0083632D01*
X0014954Y0083784D01*
X0015269Y0083929D01*
X0015588Y0084066D01*
X0015910Y0084194D01*
X0016236Y0084315D01*
X0016564Y0084428D01*
X0016895Y0084533D01*
X0017228Y0084630D01*
X0017564Y0084718D01*
X0017901Y0084798D01*
X0018241Y0084870D01*
X0018582Y0084934D01*
X0018925Y0084989D01*
X0019269Y0085036D01*
X0019614Y0085074D01*
X0019960Y0085104D01*
X0020306Y0085125D01*
X0020653Y0085138D01*
X0021000Y0085142D01*
X0021347Y0085138D01*
X0021694Y0085125D01*
X0022040Y0085104D01*
X0022386Y0085074D01*
X0022731Y0085036D01*
X0023075Y0084989D01*
X0023418Y0084934D01*
X0023759Y0084870D01*
X0024099Y0084798D01*
X0024436Y0084718D01*
X0024772Y0084630D01*
X0025105Y0084533D01*
X0025436Y0084428D01*
X0025764Y0084315D01*
X0026090Y0084194D01*
X0026412Y0084066D01*
X0026731Y0083929D01*
X0027046Y0083784D01*
X0027358Y0083632D01*
X0027666Y0083472D01*
X0027971Y0083305D01*
X0028270Y0083130D01*
X0028566Y0082948D01*
X0028857Y0082759D01*
X0029143Y0082562D01*
X0029424Y0082359D01*
X0029701Y0082149D01*
X0029972Y0081932D01*
X0030237Y0081708D01*
X0030497Y0081479D01*
X0030751Y0081242D01*
X0031000Y0081000D01*
X0031242Y0080751D01*
X0031479Y0080497D01*
X0031708Y0080237D01*
X0031932Y0079972D01*
X0032149Y0079701D01*
X0032359Y0079424D01*
X0032562Y0079143D01*
X0032759Y0078857D01*
X0032948Y0078566D01*
X0033130Y0078270D01*
X0033305Y0077971D01*
X0033472Y0077666D01*
X0033632Y0077358D01*
X0033784Y0077046D01*
X0033929Y0076731D01*
X0034066Y0076412D01*
X0034194Y0076090D01*
X0034315Y0075764D01*
X0034428Y0075436D01*
X0034533Y0075105D01*
X0034630Y0074772D01*
X0034718Y0074436D01*
X0034798Y0074099D01*
X0034870Y0073759D01*
X0034934Y0073418D01*
X0034989Y0073075D01*
X0035036Y0072731D01*
X0035074Y0072386D01*
X0035104Y0072040D01*
X0035125Y0071694D01*
X0035138Y0071347D01*
X0035142Y0071000D01*
X0035138Y0070653D01*
X0035125Y0070306D01*
X0035104Y0069960D01*
X0035074Y0069614D01*
X0035036Y0069269D01*
X0034989Y0068925D01*
X0034934Y0068582D01*
X0034870Y0068241D01*
X0034798Y0067901D01*
X0034718Y0067564D01*
X0034630Y0067228D01*
X0034533Y0066895D01*
X0034428Y0066564D01*
X0034315Y0066236D01*
X0034194Y0065910D01*
X0034066Y0065588D01*
X0033929Y0065269D01*
X0033784Y0064954D01*
X0033632Y0064642D01*
X0033472Y0064334D01*
X0033305Y0064029D01*
X0033130Y0063730D01*
X0032948Y0063434D01*
X0032759Y0063143D01*
X0032562Y0062857D01*
X0032359Y0062576D01*
X0032149Y0062299D01*
X0031932Y0062028D01*
X0031708Y0061763D01*
X0031479Y0061503D01*
X0031242Y0061249D01*
X0031000Y0061000D01*
X0030751Y0060758D01*
X0030497Y0060521D01*
X0030237Y0060292D01*
X0029972Y0060068D01*
X0029701Y0059851D01*
X0029424Y0059641D01*
X0029143Y0059438D01*
X0028857Y0059241D01*
X0028566Y0059052D01*
X0028270Y0058870D01*
X0027971Y0058695D01*
X0027666Y0058528D01*
X0027358Y0058368D01*
X0027046Y0058216D01*
X0026731Y0058071D01*
X0026412Y0057934D01*
X0026090Y0057806D01*
X0025764Y0057685D01*
X0025436Y0057572D01*
X0025105Y0057467D01*
X0024772Y0057370D01*
X0024436Y0057282D01*
X0024099Y0057202D01*
X0023759Y0057130D01*
X0023418Y0057066D01*
X0023075Y0057011D01*
X0022731Y0056964D01*
X0022386Y0056926D01*
X0022040Y0056896D01*
X0021694Y0056875D01*
X0021347Y0056862D01*
X0021000Y0056858D01*
X0020653Y0056862D01*
X0020306Y0056875D01*
X0019960Y0056896D01*
X0019614Y0056926D01*
X0019269Y0056964D01*
X0018925Y0057011D01*
X0018582Y0057066D01*
X0018241Y0057130D01*
X0017901Y0057202D01*
X0017564Y0057282D01*
X0017228Y0057370D01*
X0016895Y0057467D01*
X0016564Y0057572D01*
X0016236Y0057685D01*
X0015910Y0057806D01*
X0015588Y0057934D01*
X0015269Y0058071D01*
X0014954Y0058216D01*
X0014642Y0058368D01*
X0014334Y0058528D01*
X0014029Y0058695D01*
X0013730Y0058870D01*
X0013434Y0059052D01*
X0013143Y0059241D01*
X0012857Y0059438D01*
X0012576Y0059641D01*
X0012299Y0059851D01*
X0012028Y0060068D01*
X0011763Y0060292D01*
X0011503Y0060521D01*
X0011249Y0060758D01*
X0011000Y0061000D01*
X0010758Y0061249D01*
X0010521Y0061503D01*
X0010292Y0061763D01*
X0010068Y0062028D01*
X0009851Y0062299D01*
X0009641Y0062576D01*
X0009438Y0062857D01*
X0009241Y0063143D01*
X0009052Y0063434D01*
X0008870Y0063730D01*
X0008695Y0064029D01*
X0008528Y0064334D01*
X0008368Y0064642D01*
X0008216Y0064954D01*
X0008071Y0065269D01*
X0007934Y0065588D01*
X0007806Y0065910D01*
X0007685Y0066236D01*
X0007572Y0066564D01*
X0007467Y0066895D01*
X0007370Y0067228D01*
X0007282Y0067564D01*
X0007202Y0067901D01*
X0007130Y0068241D01*
X0007066Y0068582D01*
X0007011Y0068925D01*
X0006964Y0069269D01*
X0006926Y0069614D01*
X0006896Y0069960D01*
X0006875Y0070306D01*
X0006862Y0070653D01*
X0006858Y0071000D01*
X0006858Y0111000D02*
X0006862Y0111347D01*
X0006875Y0111694D01*
X0006896Y0112040D01*
X0006926Y0112386D01*
X0006964Y0112731D01*
X0007011Y0113075D01*
X0007066Y0113418D01*
X0007130Y0113759D01*
X0007202Y0114099D01*
X0007282Y0114436D01*
X0007370Y0114772D01*
X0007467Y0115105D01*
X0007572Y0115436D01*
X0007685Y0115764D01*
X0007806Y0116090D01*
X0007934Y0116412D01*
X0008071Y0116731D01*
X0008216Y0117046D01*
X0008368Y0117358D01*
X0008528Y0117666D01*
X0008695Y0117971D01*
X0008870Y0118270D01*
X0009052Y0118566D01*
X0009241Y0118857D01*
X0009438Y0119143D01*
X0009641Y0119424D01*
X0009851Y0119701D01*
X0010068Y0119972D01*
X0010292Y0120237D01*
X0010521Y0120497D01*
X0010758Y0120751D01*
X0011000Y0121000D01*
X0011249Y0121242D01*
X0011503Y0121479D01*
X0011763Y0121708D01*
X0012028Y0121932D01*
X0012299Y0122149D01*
X0012576Y0122359D01*
X0012857Y0122562D01*
X0013143Y0122759D01*
X0013434Y0122948D01*
X0013730Y0123130D01*
X0014029Y0123305D01*
X0014334Y0123472D01*
X0014642Y0123632D01*
X0014954Y0123784D01*
X0015269Y0123929D01*
X0015588Y0124066D01*
X0015910Y0124194D01*
X0016236Y0124315D01*
X0016564Y0124428D01*
X0016895Y0124533D01*
X0017228Y0124630D01*
X0017564Y0124718D01*
X0017901Y0124798D01*
X0018241Y0124870D01*
X0018582Y0124934D01*
X0018925Y0124989D01*
X0019269Y0125036D01*
X0019614Y0125074D01*
X0019960Y0125104D01*
X0020306Y0125125D01*
X0020653Y0125138D01*
X0021000Y0125142D01*
X0021347Y0125138D01*
X0021694Y0125125D01*
X0022040Y0125104D01*
X0022386Y0125074D01*
X0022731Y0125036D01*
X0023075Y0124989D01*
X0023418Y0124934D01*
X0023759Y0124870D01*
X0024099Y0124798D01*
X0024436Y0124718D01*
X0024772Y0124630D01*
X0025105Y0124533D01*
X0025436Y0124428D01*
X0025764Y0124315D01*
X0026090Y0124194D01*
X0026412Y0124066D01*
X0026731Y0123929D01*
X0027046Y0123784D01*
X0027358Y0123632D01*
X0027666Y0123472D01*
X0027971Y0123305D01*
X0028270Y0123130D01*
X0028566Y0122948D01*
X0028857Y0122759D01*
X0029143Y0122562D01*
X0029424Y0122359D01*
X0029701Y0122149D01*
X0029972Y0121932D01*
X0030237Y0121708D01*
X0030497Y0121479D01*
X0030751Y0121242D01*
X0031000Y0121000D01*
X0031242Y0120751D01*
X0031479Y0120497D01*
X0031708Y0120237D01*
X0031932Y0119972D01*
X0032149Y0119701D01*
X0032359Y0119424D01*
X0032562Y0119143D01*
X0032759Y0118857D01*
X0032948Y0118566D01*
X0033130Y0118270D01*
X0033305Y0117971D01*
X0033472Y0117666D01*
X0033632Y0117358D01*
X0033784Y0117046D01*
X0033929Y0116731D01*
X0034066Y0116412D01*
X0034194Y0116090D01*
X0034315Y0115764D01*
X0034428Y0115436D01*
X0034533Y0115105D01*
X0034630Y0114772D01*
X0034718Y0114436D01*
X0034798Y0114099D01*
X0034870Y0113759D01*
X0034934Y0113418D01*
X0034989Y0113075D01*
X0035036Y0112731D01*
X0035074Y0112386D01*
X0035104Y0112040D01*
X0035125Y0111694D01*
X0035138Y0111347D01*
X0035142Y0111000D01*
X0035138Y0110653D01*
X0035125Y0110306D01*
X0035104Y0109960D01*
X0035074Y0109614D01*
X0035036Y0109269D01*
X0034989Y0108925D01*
X0034934Y0108582D01*
X0034870Y0108241D01*
X0034798Y0107901D01*
X0034718Y0107564D01*
X0034630Y0107228D01*
X0034533Y0106895D01*
X0034428Y0106564D01*
X0034315Y0106236D01*
X0034194Y0105910D01*
X0034066Y0105588D01*
X0033929Y0105269D01*
X0033784Y0104954D01*
X0033632Y0104642D01*
X0033472Y0104334D01*
X0033305Y0104029D01*
X0033130Y0103730D01*
X0032948Y0103434D01*
X0032759Y0103143D01*
X0032562Y0102857D01*
X0032359Y0102576D01*
X0032149Y0102299D01*
X0031932Y0102028D01*
X0031708Y0101763D01*
X0031479Y0101503D01*
X0031242Y0101249D01*
X0031000Y0101000D01*
X0030751Y0100758D01*
X0030497Y0100521D01*
X0030237Y0100292D01*
X0029972Y0100068D01*
X0029701Y0099851D01*
X0029424Y0099641D01*
X0029143Y0099438D01*
X0028857Y0099241D01*
X0028566Y0099052D01*
X0028270Y0098870D01*
X0027971Y0098695D01*
X0027666Y0098528D01*
X0027358Y0098368D01*
X0027046Y0098216D01*
X0026731Y0098071D01*
X0026412Y0097934D01*
X0026090Y0097806D01*
X0025764Y0097685D01*
X0025436Y0097572D01*
X0025105Y0097467D01*
X0024772Y0097370D01*
X0024436Y0097282D01*
X0024099Y0097202D01*
X0023759Y0097130D01*
X0023418Y0097066D01*
X0023075Y0097011D01*
X0022731Y0096964D01*
X0022386Y0096926D01*
X0022040Y0096896D01*
X0021694Y0096875D01*
X0021347Y0096862D01*
X0021000Y0096858D01*
X0020653Y0096862D01*
X0020306Y0096875D01*
X0019960Y0096896D01*
X0019614Y0096926D01*
X0019269Y0096964D01*
X0018925Y0097011D01*
X0018582Y0097066D01*
X0018241Y0097130D01*
X0017901Y0097202D01*
X0017564Y0097282D01*
X0017228Y0097370D01*
X0016895Y0097467D01*
X0016564Y0097572D01*
X0016236Y0097685D01*
X0015910Y0097806D01*
X0015588Y0097934D01*
X0015269Y0098071D01*
X0014954Y0098216D01*
X0014642Y0098368D01*
X0014334Y0098528D01*
X0014029Y0098695D01*
X0013730Y0098870D01*
X0013434Y0099052D01*
X0013143Y0099241D01*
X0012857Y0099438D01*
X0012576Y0099641D01*
X0012299Y0099851D01*
X0012028Y0100068D01*
X0011763Y0100292D01*
X0011503Y0100521D01*
X0011249Y0100758D01*
X0011000Y0101000D01*
X0010758Y0101249D01*
X0010521Y0101503D01*
X0010292Y0101763D01*
X0010068Y0102028D01*
X0009851Y0102299D01*
X0009641Y0102576D01*
X0009438Y0102857D01*
X0009241Y0103143D01*
X0009052Y0103434D01*
X0008870Y0103730D01*
X0008695Y0104029D01*
X0008528Y0104334D01*
X0008368Y0104642D01*
X0008216Y0104954D01*
X0008071Y0105269D01*
X0007934Y0105588D01*
X0007806Y0105910D01*
X0007685Y0106236D01*
X0007572Y0106564D01*
X0007467Y0106895D01*
X0007370Y0107228D01*
X0007282Y0107564D01*
X0007202Y0107901D01*
X0007130Y0108241D01*
X0007066Y0108582D01*
X0007011Y0108925D01*
X0006964Y0109269D01*
X0006926Y0109614D01*
X0006896Y0109960D01*
X0006875Y0110306D01*
X0006862Y0110653D01*
X0006858Y0111000D01*
X0046858Y0111000D02*
X0046862Y0111347D01*
X0046875Y0111694D01*
X0046896Y0112040D01*
X0046926Y0112386D01*
X0046964Y0112731D01*
X0047011Y0113075D01*
X0047066Y0113418D01*
X0047130Y0113759D01*
X0047202Y0114099D01*
X0047282Y0114436D01*
X0047370Y0114772D01*
X0047467Y0115105D01*
X0047572Y0115436D01*
X0047685Y0115764D01*
X0047806Y0116090D01*
X0047934Y0116412D01*
X0048071Y0116731D01*
X0048216Y0117046D01*
X0048368Y0117358D01*
X0048528Y0117666D01*
X0048695Y0117971D01*
X0048870Y0118270D01*
X0049052Y0118566D01*
X0049241Y0118857D01*
X0049438Y0119143D01*
X0049641Y0119424D01*
X0049851Y0119701D01*
X0050068Y0119972D01*
X0050292Y0120237D01*
X0050521Y0120497D01*
X0050758Y0120751D01*
X0051000Y0121000D01*
X0051249Y0121242D01*
X0051503Y0121479D01*
X0051763Y0121708D01*
X0052028Y0121932D01*
X0052299Y0122149D01*
X0052576Y0122359D01*
X0052857Y0122562D01*
X0053143Y0122759D01*
X0053434Y0122948D01*
X0053730Y0123130D01*
X0054029Y0123305D01*
X0054334Y0123472D01*
X0054642Y0123632D01*
X0054954Y0123784D01*
X0055269Y0123929D01*
X0055588Y0124066D01*
X0055910Y0124194D01*
X0056236Y0124315D01*
X0056564Y0124428D01*
X0056895Y0124533D01*
X0057228Y0124630D01*
X0057564Y0124718D01*
X0057901Y0124798D01*
X0058241Y0124870D01*
X0058582Y0124934D01*
X0058925Y0124989D01*
X0059269Y0125036D01*
X0059614Y0125074D01*
X0059960Y0125104D01*
X0060306Y0125125D01*
X0060653Y0125138D01*
X0061000Y0125142D01*
X0061347Y0125138D01*
X0061694Y0125125D01*
X0062040Y0125104D01*
X0062386Y0125074D01*
X0062731Y0125036D01*
X0063075Y0124989D01*
X0063418Y0124934D01*
X0063759Y0124870D01*
X0064099Y0124798D01*
X0064436Y0124718D01*
X0064772Y0124630D01*
X0065105Y0124533D01*
X0065436Y0124428D01*
X0065764Y0124315D01*
X0066090Y0124194D01*
X0066412Y0124066D01*
X0066731Y0123929D01*
X0067046Y0123784D01*
X0067358Y0123632D01*
X0067666Y0123472D01*
X0067971Y0123305D01*
X0068270Y0123130D01*
X0068566Y0122948D01*
X0068857Y0122759D01*
X0069143Y0122562D01*
X0069424Y0122359D01*
X0069701Y0122149D01*
X0069972Y0121932D01*
X0070237Y0121708D01*
X0070497Y0121479D01*
X0070751Y0121242D01*
X0071000Y0121000D01*
X0071242Y0120751D01*
X0071479Y0120497D01*
X0071708Y0120237D01*
X0071932Y0119972D01*
X0072149Y0119701D01*
X0072359Y0119424D01*
X0072562Y0119143D01*
X0072759Y0118857D01*
X0072948Y0118566D01*
X0073130Y0118270D01*
X0073305Y0117971D01*
X0073472Y0117666D01*
X0073632Y0117358D01*
X0073784Y0117046D01*
X0073929Y0116731D01*
X0074066Y0116412D01*
X0074194Y0116090D01*
X0074315Y0115764D01*
X0074428Y0115436D01*
X0074533Y0115105D01*
X0074630Y0114772D01*
X0074718Y0114436D01*
X0074798Y0114099D01*
X0074870Y0113759D01*
X0074934Y0113418D01*
X0074989Y0113075D01*
X0075036Y0112731D01*
X0075074Y0112386D01*
X0075104Y0112040D01*
X0075125Y0111694D01*
X0075138Y0111347D01*
X0075142Y0111000D01*
X0075138Y0110653D01*
X0075125Y0110306D01*
X0075104Y0109960D01*
X0075074Y0109614D01*
X0075036Y0109269D01*
X0074989Y0108925D01*
X0074934Y0108582D01*
X0074870Y0108241D01*
X0074798Y0107901D01*
X0074718Y0107564D01*
X0074630Y0107228D01*
X0074533Y0106895D01*
X0074428Y0106564D01*
X0074315Y0106236D01*
X0074194Y0105910D01*
X0074066Y0105588D01*
X0073929Y0105269D01*
X0073784Y0104954D01*
X0073632Y0104642D01*
X0073472Y0104334D01*
X0073305Y0104029D01*
X0073130Y0103730D01*
X0072948Y0103434D01*
X0072759Y0103143D01*
X0072562Y0102857D01*
X0072359Y0102576D01*
X0072149Y0102299D01*
X0071932Y0102028D01*
X0071708Y0101763D01*
X0071479Y0101503D01*
X0071242Y0101249D01*
X0071000Y0101000D01*
X0070751Y0100758D01*
X0070497Y0100521D01*
X0070237Y0100292D01*
X0069972Y0100068D01*
X0069701Y0099851D01*
X0069424Y0099641D01*
X0069143Y0099438D01*
X0068857Y0099241D01*
X0068566Y0099052D01*
X0068270Y0098870D01*
X0067971Y0098695D01*
X0067666Y0098528D01*
X0067358Y0098368D01*
X0067046Y0098216D01*
X0066731Y0098071D01*
X0066412Y0097934D01*
X0066090Y0097806D01*
X0065764Y0097685D01*
X0065436Y0097572D01*
X0065105Y0097467D01*
X0064772Y0097370D01*
X0064436Y0097282D01*
X0064099Y0097202D01*
X0063759Y0097130D01*
X0063418Y0097066D01*
X0063075Y0097011D01*
X0062731Y0096964D01*
X0062386Y0096926D01*
X0062040Y0096896D01*
X0061694Y0096875D01*
X0061347Y0096862D01*
X0061000Y0096858D01*
X0060653Y0096862D01*
X0060306Y0096875D01*
X0059960Y0096896D01*
X0059614Y0096926D01*
X0059269Y0096964D01*
X0058925Y0097011D01*
X0058582Y0097066D01*
X0058241Y0097130D01*
X0057901Y0097202D01*
X0057564Y0097282D01*
X0057228Y0097370D01*
X0056895Y0097467D01*
X0056564Y0097572D01*
X0056236Y0097685D01*
X0055910Y0097806D01*
X0055588Y0097934D01*
X0055269Y0098071D01*
X0054954Y0098216D01*
X0054642Y0098368D01*
X0054334Y0098528D01*
X0054029Y0098695D01*
X0053730Y0098870D01*
X0053434Y0099052D01*
X0053143Y0099241D01*
X0052857Y0099438D01*
X0052576Y0099641D01*
X0052299Y0099851D01*
X0052028Y0100068D01*
X0051763Y0100292D01*
X0051503Y0100521D01*
X0051249Y0100758D01*
X0051000Y0101000D01*
X0050758Y0101249D01*
X0050521Y0101503D01*
X0050292Y0101763D01*
X0050068Y0102028D01*
X0049851Y0102299D01*
X0049641Y0102576D01*
X0049438Y0102857D01*
X0049241Y0103143D01*
X0049052Y0103434D01*
X0048870Y0103730D01*
X0048695Y0104029D01*
X0048528Y0104334D01*
X0048368Y0104642D01*
X0048216Y0104954D01*
X0048071Y0105269D01*
X0047934Y0105588D01*
X0047806Y0105910D01*
X0047685Y0106236D01*
X0047572Y0106564D01*
X0047467Y0106895D01*
X0047370Y0107228D01*
X0047282Y0107564D01*
X0047202Y0107901D01*
X0047130Y0108241D01*
X0047066Y0108582D01*
X0047011Y0108925D01*
X0046964Y0109269D01*
X0046926Y0109614D01*
X0046896Y0109960D01*
X0046875Y0110306D01*
X0046862Y0110653D01*
X0046858Y0111000D01*
X0086858Y0111000D02*
X0086862Y0111347D01*
X0086875Y0111694D01*
X0086896Y0112040D01*
X0086926Y0112386D01*
X0086964Y0112731D01*
X0087011Y0113075D01*
X0087066Y0113418D01*
X0087130Y0113759D01*
X0087202Y0114099D01*
X0087282Y0114436D01*
X0087370Y0114772D01*
X0087467Y0115105D01*
X0087572Y0115436D01*
X0087685Y0115764D01*
X0087806Y0116090D01*
X0087934Y0116412D01*
X0088071Y0116731D01*
X0088216Y0117046D01*
X0088368Y0117358D01*
X0088528Y0117666D01*
X0088695Y0117971D01*
X0088870Y0118270D01*
X0089052Y0118566D01*
X0089241Y0118857D01*
X0089438Y0119143D01*
X0089641Y0119424D01*
X0089851Y0119701D01*
X0090068Y0119972D01*
X0090292Y0120237D01*
X0090521Y0120497D01*
X0090758Y0120751D01*
X0091000Y0121000D01*
X0091249Y0121242D01*
X0091503Y0121479D01*
X0091763Y0121708D01*
X0092028Y0121932D01*
X0092299Y0122149D01*
X0092576Y0122359D01*
X0092857Y0122562D01*
X0093143Y0122759D01*
X0093434Y0122948D01*
X0093730Y0123130D01*
X0094029Y0123305D01*
X0094334Y0123472D01*
X0094642Y0123632D01*
X0094954Y0123784D01*
X0095269Y0123929D01*
X0095588Y0124066D01*
X0095910Y0124194D01*
X0096236Y0124315D01*
X0096564Y0124428D01*
X0096895Y0124533D01*
X0097228Y0124630D01*
X0097564Y0124718D01*
X0097901Y0124798D01*
X0098241Y0124870D01*
X0098582Y0124934D01*
X0098925Y0124989D01*
X0099269Y0125036D01*
X0099614Y0125074D01*
X0099960Y0125104D01*
X0100306Y0125125D01*
X0100653Y0125138D01*
X0101000Y0125142D01*
X0101347Y0125138D01*
X0101694Y0125125D01*
X0102040Y0125104D01*
X0102386Y0125074D01*
X0102731Y0125036D01*
X0103075Y0124989D01*
X0103418Y0124934D01*
X0103759Y0124870D01*
X0104099Y0124798D01*
X0104436Y0124718D01*
X0104772Y0124630D01*
X0105105Y0124533D01*
X0105436Y0124428D01*
X0105764Y0124315D01*
X0106090Y0124194D01*
X0106412Y0124066D01*
X0106731Y0123929D01*
X0107046Y0123784D01*
X0107358Y0123632D01*
X0107666Y0123472D01*
X0107971Y0123305D01*
X0108270Y0123130D01*
X0108566Y0122948D01*
X0108857Y0122759D01*
X0109143Y0122562D01*
X0109424Y0122359D01*
X0109701Y0122149D01*
X0109972Y0121932D01*
X0110237Y0121708D01*
X0110497Y0121479D01*
X0110751Y0121242D01*
X0111000Y0121000D01*
X0111242Y0120751D01*
X0111479Y0120497D01*
X0111708Y0120237D01*
X0111932Y0119972D01*
X0112149Y0119701D01*
X0112359Y0119424D01*
X0112562Y0119143D01*
X0112759Y0118857D01*
X0112948Y0118566D01*
X0113130Y0118270D01*
X0113305Y0117971D01*
X0113472Y0117666D01*
X0113632Y0117358D01*
X0113784Y0117046D01*
X0113929Y0116731D01*
X0114066Y0116412D01*
X0114194Y0116090D01*
X0114315Y0115764D01*
X0114428Y0115436D01*
X0114533Y0115105D01*
X0114630Y0114772D01*
X0114718Y0114436D01*
X0114798Y0114099D01*
X0114870Y0113759D01*
X0114934Y0113418D01*
X0114989Y0113075D01*
X0115036Y0112731D01*
X0115074Y0112386D01*
X0115104Y0112040D01*
X0115125Y0111694D01*
X0115138Y0111347D01*
X0115142Y0111000D01*
X0115138Y0110653D01*
X0115125Y0110306D01*
X0115104Y0109960D01*
X0115074Y0109614D01*
X0115036Y0109269D01*
X0114989Y0108925D01*
X0114934Y0108582D01*
X0114870Y0108241D01*
X0114798Y0107901D01*
X0114718Y0107564D01*
X0114630Y0107228D01*
X0114533Y0106895D01*
X0114428Y0106564D01*
X0114315Y0106236D01*
X0114194Y0105910D01*
X0114066Y0105588D01*
X0113929Y0105269D01*
X0113784Y0104954D01*
X0113632Y0104642D01*
X0113472Y0104334D01*
X0113305Y0104029D01*
X0113130Y0103730D01*
X0112948Y0103434D01*
X0112759Y0103143D01*
X0112562Y0102857D01*
X0112359Y0102576D01*
X0112149Y0102299D01*
X0111932Y0102028D01*
X0111708Y0101763D01*
X0111479Y0101503D01*
X0111242Y0101249D01*
X0111000Y0101000D01*
X0110751Y0100758D01*
X0110497Y0100521D01*
X0110237Y0100292D01*
X0109972Y0100068D01*
X0109701Y0099851D01*
X0109424Y0099641D01*
X0109143Y0099438D01*
X0108857Y0099241D01*
X0108566Y0099052D01*
X0108270Y0098870D01*
X0107971Y0098695D01*
X0107666Y0098528D01*
X0107358Y0098368D01*
X0107046Y0098216D01*
X0106731Y0098071D01*
X0106412Y0097934D01*
X0106090Y0097806D01*
X0105764Y0097685D01*
X0105436Y0097572D01*
X0105105Y0097467D01*
X0104772Y0097370D01*
X0104436Y0097282D01*
X0104099Y0097202D01*
X0103759Y0097130D01*
X0103418Y0097066D01*
X0103075Y0097011D01*
X0102731Y0096964D01*
X0102386Y0096926D01*
X0102040Y0096896D01*
X0101694Y0096875D01*
X0101347Y0096862D01*
X0101000Y0096858D01*
X0100653Y0096862D01*
X0100306Y0096875D01*
X0099960Y0096896D01*
X0099614Y0096926D01*
X0099269Y0096964D01*
X0098925Y0097011D01*
X0098582Y0097066D01*
X0098241Y0097130D01*
X0097901Y0097202D01*
X0097564Y0097282D01*
X0097228Y0097370D01*
X0096895Y0097467D01*
X0096564Y0097572D01*
X0096236Y0097685D01*
X0095910Y0097806D01*
X0095588Y0097934D01*
X0095269Y0098071D01*
X0094954Y0098216D01*
X0094642Y0098368D01*
X0094334Y0098528D01*
X0094029Y0098695D01*
X0093730Y0098870D01*
X0093434Y0099052D01*
X0093143Y0099241D01*
X0092857Y0099438D01*
X0092576Y0099641D01*
X0092299Y0099851D01*
X0092028Y0100068D01*
X0091763Y0100292D01*
X0091503Y0100521D01*
X0091249Y0100758D01*
X0091000Y0101000D01*
X0090758Y0101249D01*
X0090521Y0101503D01*
X0090292Y0101763D01*
X0090068Y0102028D01*
X0089851Y0102299D01*
X0089641Y0102576D01*
X0089438Y0102857D01*
X0089241Y0103143D01*
X0089052Y0103434D01*
X0088870Y0103730D01*
X0088695Y0104029D01*
X0088528Y0104334D01*
X0088368Y0104642D01*
X0088216Y0104954D01*
X0088071Y0105269D01*
X0087934Y0105588D01*
X0087806Y0105910D01*
X0087685Y0106236D01*
X0087572Y0106564D01*
X0087467Y0106895D01*
X0087370Y0107228D01*
X0087282Y0107564D01*
X0087202Y0107901D01*
X0087130Y0108241D01*
X0087066Y0108582D01*
X0087011Y0108925D01*
X0086964Y0109269D01*
X0086926Y0109614D01*
X0086896Y0109960D01*
X0086875Y0110306D01*
X0086862Y0110653D01*
X0086858Y0111000D01*
X0134750Y0110251D02*
X0137002Y0110251D01*
X0137753Y0111002D01*
X0137753Y0112503D01*
X0137002Y0113254D01*
X0134750Y0113254D01*
X0134750Y0108750D01*
X0136251Y0110251D02*
X0137753Y0108750D01*
X0139354Y0109501D02*
X0140105Y0108750D01*
X0141606Y0108750D01*
X0142356Y0109501D01*
X0142356Y0111002D01*
X0141606Y0111753D01*
X0140855Y0111753D01*
X0139354Y0111002D01*
X0139354Y0113254D01*
X0142356Y0113254D01*
X0142356Y0093254D02*
X0139354Y0093254D01*
X0137753Y0092503D02*
X0137753Y0091002D01*
X0137002Y0090251D01*
X0134750Y0090251D01*
X0134750Y0088750D02*
X0134750Y0093254D01*
X0137002Y0093254D01*
X0137753Y0092503D01*
X0136251Y0090251D02*
X0137753Y0088750D01*
X0139354Y0088750D02*
X0139354Y0089501D01*
X0142356Y0092503D01*
X0142356Y0093254D01*
X0142356Y0073254D02*
X0140855Y0072503D01*
X0139354Y0071002D01*
X0141606Y0071002D01*
X0142356Y0070251D01*
X0142356Y0069501D01*
X0141606Y0068750D01*
X0140105Y0068750D01*
X0139354Y0069501D01*
X0139354Y0071002D01*
X0137753Y0071002D02*
X0137002Y0070251D01*
X0134750Y0070251D01*
X0134750Y0068750D02*
X0134750Y0073254D01*
X0137002Y0073254D01*
X0137753Y0072503D01*
X0137753Y0071002D01*
X0136251Y0070251D02*
X0137753Y0068750D01*
X0138897Y0053254D02*
X0138146Y0052503D01*
X0138146Y0051753D01*
X0138897Y0051002D01*
X0141149Y0051002D01*
X0141149Y0049501D02*
X0141149Y0052503D01*
X0140398Y0053254D01*
X0138897Y0053254D01*
X0136545Y0052503D02*
X0136545Y0051002D01*
X0135794Y0050251D01*
X0133542Y0050251D01*
X0133542Y0048750D02*
X0133542Y0053254D01*
X0135794Y0053254D01*
X0136545Y0052503D01*
X0135043Y0050251D02*
X0136545Y0048750D01*
X0138146Y0049501D02*
X0138897Y0048750D01*
X0140398Y0048750D01*
X0141149Y0049501D01*
X0141606Y0033254D02*
X0142356Y0032503D01*
X0142356Y0031753D01*
X0141606Y0031002D01*
X0140105Y0031002D01*
X0139354Y0031753D01*
X0139354Y0032503D01*
X0140105Y0033254D01*
X0141606Y0033254D01*
X0141606Y0031002D02*
X0142356Y0030251D01*
X0142356Y0029501D01*
X0141606Y0028750D01*
X0140105Y0028750D01*
X0139354Y0029501D01*
X0139354Y0030251D01*
X0140105Y0031002D01*
X0137753Y0031002D02*
X0137753Y0032503D01*
X0137002Y0033254D01*
X0134750Y0033254D01*
X0134750Y0028750D01*
X0134750Y0030251D02*
X0137002Y0030251D01*
X0137753Y0031002D01*
X0136251Y0030251D02*
X0137753Y0028750D01*
X0132950Y0014949D02*
X0132950Y0011946D01*
X0132950Y0013447D02*
X0128446Y0013447D01*
X0129947Y0011946D01*
X0129197Y0010345D02*
X0130698Y0010345D01*
X0131449Y0009594D01*
X0131449Y0007342D01*
X0132950Y0007342D02*
X0128446Y0007342D01*
X0128446Y0009594D01*
X0129197Y0010345D01*
X0128446Y0005741D02*
X0128446Y0004239D01*
X0128446Y0004990D02*
X0132199Y0004990D01*
X0132950Y0004239D01*
X0132950Y0003489D01*
X0132199Y0002738D01*
X0173542Y0018750D02*
X0173542Y0023254D01*
X0175794Y0023254D01*
X0176545Y0022503D01*
X0176545Y0021002D01*
X0175794Y0020251D01*
X0173542Y0020251D01*
X0175043Y0020251D02*
X0176545Y0018750D01*
X0178146Y0019501D02*
X0178897Y0018750D01*
X0180398Y0018750D01*
X0181149Y0019501D01*
X0181149Y0020251D01*
X0180398Y0021002D01*
X0179647Y0021002D01*
X0180398Y0021002D02*
X0181149Y0021753D01*
X0181149Y0022503D01*
X0180398Y0023254D01*
X0178897Y0023254D01*
X0178146Y0022503D01*
X0171858Y0061000D02*
X0171862Y0061347D01*
X0171875Y0061694D01*
X0171896Y0062040D01*
X0171926Y0062386D01*
X0171964Y0062731D01*
X0172011Y0063075D01*
X0172066Y0063418D01*
X0172130Y0063759D01*
X0172202Y0064099D01*
X0172282Y0064436D01*
X0172370Y0064772D01*
X0172467Y0065105D01*
X0172572Y0065436D01*
X0172685Y0065764D01*
X0172806Y0066090D01*
X0172934Y0066412D01*
X0173071Y0066731D01*
X0173216Y0067046D01*
X0173368Y0067358D01*
X0173528Y0067666D01*
X0173695Y0067971D01*
X0173870Y0068270D01*
X0174052Y0068566D01*
X0174241Y0068857D01*
X0174438Y0069143D01*
X0174641Y0069424D01*
X0174851Y0069701D01*
X0175068Y0069972D01*
X0175292Y0070237D01*
X0175521Y0070497D01*
X0175758Y0070751D01*
X0176000Y0071000D01*
X0176249Y0071242D01*
X0176503Y0071479D01*
X0176763Y0071708D01*
X0177028Y0071932D01*
X0177299Y0072149D01*
X0177576Y0072359D01*
X0177857Y0072562D01*
X0178143Y0072759D01*
X0178434Y0072948D01*
X0178730Y0073130D01*
X0179029Y0073305D01*
X0179334Y0073472D01*
X0179642Y0073632D01*
X0179954Y0073784D01*
X0180269Y0073929D01*
X0180588Y0074066D01*
X0180910Y0074194D01*
X0181236Y0074315D01*
X0181564Y0074428D01*
X0181895Y0074533D01*
X0182228Y0074630D01*
X0182564Y0074718D01*
X0182901Y0074798D01*
X0183241Y0074870D01*
X0183582Y0074934D01*
X0183925Y0074989D01*
X0184269Y0075036D01*
X0184614Y0075074D01*
X0184960Y0075104D01*
X0185306Y0075125D01*
X0185653Y0075138D01*
X0186000Y0075142D01*
X0186347Y0075138D01*
X0186694Y0075125D01*
X0187040Y0075104D01*
X0187386Y0075074D01*
X0187731Y0075036D01*
X0188075Y0074989D01*
X0188418Y0074934D01*
X0188759Y0074870D01*
X0189099Y0074798D01*
X0189436Y0074718D01*
X0189772Y0074630D01*
X0190105Y0074533D01*
X0190436Y0074428D01*
X0190764Y0074315D01*
X0191090Y0074194D01*
X0191412Y0074066D01*
X0191731Y0073929D01*
X0192046Y0073784D01*
X0192358Y0073632D01*
X0192666Y0073472D01*
X0192971Y0073305D01*
X0193270Y0073130D01*
X0193566Y0072948D01*
X0193857Y0072759D01*
X0194143Y0072562D01*
X0194424Y0072359D01*
X0194701Y0072149D01*
X0194972Y0071932D01*
X0195237Y0071708D01*
X0195497Y0071479D01*
X0195751Y0071242D01*
X0196000Y0071000D01*
X0196242Y0070751D01*
X0196479Y0070497D01*
X0196708Y0070237D01*
X0196932Y0069972D01*
X0197149Y0069701D01*
X0197359Y0069424D01*
X0197562Y0069143D01*
X0197759Y0068857D01*
X0197948Y0068566D01*
X0198130Y0068270D01*
X0198305Y0067971D01*
X0198472Y0067666D01*
X0198632Y0067358D01*
X0198784Y0067046D01*
X0198929Y0066731D01*
X0199066Y0066412D01*
X0199194Y0066090D01*
X0199315Y0065764D01*
X0199428Y0065436D01*
X0199533Y0065105D01*
X0199630Y0064772D01*
X0199718Y0064436D01*
X0199798Y0064099D01*
X0199870Y0063759D01*
X0199934Y0063418D01*
X0199989Y0063075D01*
X0200036Y0062731D01*
X0200074Y0062386D01*
X0200104Y0062040D01*
X0200125Y0061694D01*
X0200138Y0061347D01*
X0200142Y0061000D01*
X0200138Y0060653D01*
X0200125Y0060306D01*
X0200104Y0059960D01*
X0200074Y0059614D01*
X0200036Y0059269D01*
X0199989Y0058925D01*
X0199934Y0058582D01*
X0199870Y0058241D01*
X0199798Y0057901D01*
X0199718Y0057564D01*
X0199630Y0057228D01*
X0199533Y0056895D01*
X0199428Y0056564D01*
X0199315Y0056236D01*
X0199194Y0055910D01*
X0199066Y0055588D01*
X0198929Y0055269D01*
X0198784Y0054954D01*
X0198632Y0054642D01*
X0198472Y0054334D01*
X0198305Y0054029D01*
X0198130Y0053730D01*
X0197948Y0053434D01*
X0197759Y0053143D01*
X0197562Y0052857D01*
X0197359Y0052576D01*
X0197149Y0052299D01*
X0196932Y0052028D01*
X0196708Y0051763D01*
X0196479Y0051503D01*
X0196242Y0051249D01*
X0196000Y0051000D01*
X0195751Y0050758D01*
X0195497Y0050521D01*
X0195237Y0050292D01*
X0194972Y0050068D01*
X0194701Y0049851D01*
X0194424Y0049641D01*
X0194143Y0049438D01*
X0193857Y0049241D01*
X0193566Y0049052D01*
X0193270Y0048870D01*
X0192971Y0048695D01*
X0192666Y0048528D01*
X0192358Y0048368D01*
X0192046Y0048216D01*
X0191731Y0048071D01*
X0191412Y0047934D01*
X0191090Y0047806D01*
X0190764Y0047685D01*
X0190436Y0047572D01*
X0190105Y0047467D01*
X0189772Y0047370D01*
X0189436Y0047282D01*
X0189099Y0047202D01*
X0188759Y0047130D01*
X0188418Y0047066D01*
X0188075Y0047011D01*
X0187731Y0046964D01*
X0187386Y0046926D01*
X0187040Y0046896D01*
X0186694Y0046875D01*
X0186347Y0046862D01*
X0186000Y0046858D01*
X0185653Y0046862D01*
X0185306Y0046875D01*
X0184960Y0046896D01*
X0184614Y0046926D01*
X0184269Y0046964D01*
X0183925Y0047011D01*
X0183582Y0047066D01*
X0183241Y0047130D01*
X0182901Y0047202D01*
X0182564Y0047282D01*
X0182228Y0047370D01*
X0181895Y0047467D01*
X0181564Y0047572D01*
X0181236Y0047685D01*
X0180910Y0047806D01*
X0180588Y0047934D01*
X0180269Y0048071D01*
X0179954Y0048216D01*
X0179642Y0048368D01*
X0179334Y0048528D01*
X0179029Y0048695D01*
X0178730Y0048870D01*
X0178434Y0049052D01*
X0178143Y0049241D01*
X0177857Y0049438D01*
X0177576Y0049641D01*
X0177299Y0049851D01*
X0177028Y0050068D01*
X0176763Y0050292D01*
X0176503Y0050521D01*
X0176249Y0050758D01*
X0176000Y0051000D01*
X0175758Y0051249D01*
X0175521Y0051503D01*
X0175292Y0051763D01*
X0175068Y0052028D01*
X0174851Y0052299D01*
X0174641Y0052576D01*
X0174438Y0052857D01*
X0174241Y0053143D01*
X0174052Y0053434D01*
X0173870Y0053730D01*
X0173695Y0054029D01*
X0173528Y0054334D01*
X0173368Y0054642D01*
X0173216Y0054954D01*
X0173071Y0055269D01*
X0172934Y0055588D01*
X0172806Y0055910D01*
X0172685Y0056236D01*
X0172572Y0056564D01*
X0172467Y0056895D01*
X0172370Y0057228D01*
X0172282Y0057564D01*
X0172202Y0057901D01*
X0172130Y0058241D01*
X0172066Y0058582D01*
X0172011Y0058925D01*
X0171964Y0059269D01*
X0171926Y0059614D01*
X0171896Y0059960D01*
X0171875Y0060306D01*
X0171862Y0060653D01*
X0171858Y0061000D01*
X0171858Y0101000D02*
X0171862Y0101347D01*
X0171875Y0101694D01*
X0171896Y0102040D01*
X0171926Y0102386D01*
X0171964Y0102731D01*
X0172011Y0103075D01*
X0172066Y0103418D01*
X0172130Y0103759D01*
X0172202Y0104099D01*
X0172282Y0104436D01*
X0172370Y0104772D01*
X0172467Y0105105D01*
X0172572Y0105436D01*
X0172685Y0105764D01*
X0172806Y0106090D01*
X0172934Y0106412D01*
X0173071Y0106731D01*
X0173216Y0107046D01*
X0173368Y0107358D01*
X0173528Y0107666D01*
X0173695Y0107971D01*
X0173870Y0108270D01*
X0174052Y0108566D01*
X0174241Y0108857D01*
X0174438Y0109143D01*
X0174641Y0109424D01*
X0174851Y0109701D01*
X0175068Y0109972D01*
X0175292Y0110237D01*
X0175521Y0110497D01*
X0175758Y0110751D01*
X0176000Y0111000D01*
X0176249Y0111242D01*
X0176503Y0111479D01*
X0176763Y0111708D01*
X0177028Y0111932D01*
X0177299Y0112149D01*
X0177576Y0112359D01*
X0177857Y0112562D01*
X0178143Y0112759D01*
X0178434Y0112948D01*
X0178730Y0113130D01*
X0179029Y0113305D01*
X0179334Y0113472D01*
X0179642Y0113632D01*
X0179954Y0113784D01*
X0180269Y0113929D01*
X0180588Y0114066D01*
X0180910Y0114194D01*
X0181236Y0114315D01*
X0181564Y0114428D01*
X0181895Y0114533D01*
X0182228Y0114630D01*
X0182564Y0114718D01*
X0182901Y0114798D01*
X0183241Y0114870D01*
X0183582Y0114934D01*
X0183925Y0114989D01*
X0184269Y0115036D01*
X0184614Y0115074D01*
X0184960Y0115104D01*
X0185306Y0115125D01*
X0185653Y0115138D01*
X0186000Y0115142D01*
X0186347Y0115138D01*
X0186694Y0115125D01*
X0187040Y0115104D01*
X0187386Y0115074D01*
X0187731Y0115036D01*
X0188075Y0114989D01*
X0188418Y0114934D01*
X0188759Y0114870D01*
X0189099Y0114798D01*
X0189436Y0114718D01*
X0189772Y0114630D01*
X0190105Y0114533D01*
X0190436Y0114428D01*
X0190764Y0114315D01*
X0191090Y0114194D01*
X0191412Y0114066D01*
X0191731Y0113929D01*
X0192046Y0113784D01*
X0192358Y0113632D01*
X0192666Y0113472D01*
X0192971Y0113305D01*
X0193270Y0113130D01*
X0193566Y0112948D01*
X0193857Y0112759D01*
X0194143Y0112562D01*
X0194424Y0112359D01*
X0194701Y0112149D01*
X0194972Y0111932D01*
X0195237Y0111708D01*
X0195497Y0111479D01*
X0195751Y0111242D01*
X0196000Y0111000D01*
X0196242Y0110751D01*
X0196479Y0110497D01*
X0196708Y0110237D01*
X0196932Y0109972D01*
X0197149Y0109701D01*
X0197359Y0109424D01*
X0197562Y0109143D01*
X0197759Y0108857D01*
X0197948Y0108566D01*
X0198130Y0108270D01*
X0198305Y0107971D01*
X0198472Y0107666D01*
X0198632Y0107358D01*
X0198784Y0107046D01*
X0198929Y0106731D01*
X0199066Y0106412D01*
X0199194Y0106090D01*
X0199315Y0105764D01*
X0199428Y0105436D01*
X0199533Y0105105D01*
X0199630Y0104772D01*
X0199718Y0104436D01*
X0199798Y0104099D01*
X0199870Y0103759D01*
X0199934Y0103418D01*
X0199989Y0103075D01*
X0200036Y0102731D01*
X0200074Y0102386D01*
X0200104Y0102040D01*
X0200125Y0101694D01*
X0200138Y0101347D01*
X0200142Y0101000D01*
X0200138Y0100653D01*
X0200125Y0100306D01*
X0200104Y0099960D01*
X0200074Y0099614D01*
X0200036Y0099269D01*
X0199989Y0098925D01*
X0199934Y0098582D01*
X0199870Y0098241D01*
X0199798Y0097901D01*
X0199718Y0097564D01*
X0199630Y0097228D01*
X0199533Y0096895D01*
X0199428Y0096564D01*
X0199315Y0096236D01*
X0199194Y0095910D01*
X0199066Y0095588D01*
X0198929Y0095269D01*
X0198784Y0094954D01*
X0198632Y0094642D01*
X0198472Y0094334D01*
X0198305Y0094029D01*
X0198130Y0093730D01*
X0197948Y0093434D01*
X0197759Y0093143D01*
X0197562Y0092857D01*
X0197359Y0092576D01*
X0197149Y0092299D01*
X0196932Y0092028D01*
X0196708Y0091763D01*
X0196479Y0091503D01*
X0196242Y0091249D01*
X0196000Y0091000D01*
X0195751Y0090758D01*
X0195497Y0090521D01*
X0195237Y0090292D01*
X0194972Y0090068D01*
X0194701Y0089851D01*
X0194424Y0089641D01*
X0194143Y0089438D01*
X0193857Y0089241D01*
X0193566Y0089052D01*
X0193270Y0088870D01*
X0192971Y0088695D01*
X0192666Y0088528D01*
X0192358Y0088368D01*
X0192046Y0088216D01*
X0191731Y0088071D01*
X0191412Y0087934D01*
X0191090Y0087806D01*
X0190764Y0087685D01*
X0190436Y0087572D01*
X0190105Y0087467D01*
X0189772Y0087370D01*
X0189436Y0087282D01*
X0189099Y0087202D01*
X0188759Y0087130D01*
X0188418Y0087066D01*
X0188075Y0087011D01*
X0187731Y0086964D01*
X0187386Y0086926D01*
X0187040Y0086896D01*
X0186694Y0086875D01*
X0186347Y0086862D01*
X0186000Y0086858D01*
X0185653Y0086862D01*
X0185306Y0086875D01*
X0184960Y0086896D01*
X0184614Y0086926D01*
X0184269Y0086964D01*
X0183925Y0087011D01*
X0183582Y0087066D01*
X0183241Y0087130D01*
X0182901Y0087202D01*
X0182564Y0087282D01*
X0182228Y0087370D01*
X0181895Y0087467D01*
X0181564Y0087572D01*
X0181236Y0087685D01*
X0180910Y0087806D01*
X0180588Y0087934D01*
X0180269Y0088071D01*
X0179954Y0088216D01*
X0179642Y0088368D01*
X0179334Y0088528D01*
X0179029Y0088695D01*
X0178730Y0088870D01*
X0178434Y0089052D01*
X0178143Y0089241D01*
X0177857Y0089438D01*
X0177576Y0089641D01*
X0177299Y0089851D01*
X0177028Y0090068D01*
X0176763Y0090292D01*
X0176503Y0090521D01*
X0176249Y0090758D01*
X0176000Y0091000D01*
X0175758Y0091249D01*
X0175521Y0091503D01*
X0175292Y0091763D01*
X0175068Y0092028D01*
X0174851Y0092299D01*
X0174641Y0092576D01*
X0174438Y0092857D01*
X0174241Y0093143D01*
X0174052Y0093434D01*
X0173870Y0093730D01*
X0173695Y0094029D01*
X0173528Y0094334D01*
X0173368Y0094642D01*
X0173216Y0094954D01*
X0173071Y0095269D01*
X0172934Y0095588D01*
X0172806Y0095910D01*
X0172685Y0096236D01*
X0172572Y0096564D01*
X0172467Y0096895D01*
X0172370Y0097228D01*
X0172282Y0097564D01*
X0172202Y0097901D01*
X0172130Y0098241D01*
X0172066Y0098582D01*
X0172011Y0098925D01*
X0171964Y0099269D01*
X0171926Y0099614D01*
X0171896Y0099960D01*
X0171875Y0100306D01*
X0171862Y0100653D01*
X0171858Y0101000D01*
X0142799Y0135950D02*
X0143550Y0136701D01*
X0143550Y0137451D01*
X0142799Y0138202D01*
X0139046Y0138202D01*
X0139046Y0137451D02*
X0139046Y0138953D01*
X0139046Y0140554D02*
X0139046Y0142806D01*
X0139797Y0143556D01*
X0141298Y0143556D01*
X0142049Y0142806D01*
X0142049Y0140554D01*
X0143550Y0140554D02*
X0139046Y0140554D01*
X0139797Y0145158D02*
X0139046Y0145908D01*
X0139046Y0147410D01*
X0139797Y0148160D01*
X0140547Y0148160D01*
X0143550Y0145158D01*
X0143550Y0148160D01*
X0146858Y0181000D02*
X0146862Y0181347D01*
X0146875Y0181694D01*
X0146896Y0182040D01*
X0146926Y0182386D01*
X0146964Y0182731D01*
X0147011Y0183075D01*
X0147066Y0183418D01*
X0147130Y0183759D01*
X0147202Y0184099D01*
X0147282Y0184436D01*
X0147370Y0184772D01*
X0147467Y0185105D01*
X0147572Y0185436D01*
X0147685Y0185764D01*
X0147806Y0186090D01*
X0147934Y0186412D01*
X0148071Y0186731D01*
X0148216Y0187046D01*
X0148368Y0187358D01*
X0148528Y0187666D01*
X0148695Y0187971D01*
X0148870Y0188270D01*
X0149052Y0188566D01*
X0149241Y0188857D01*
X0149438Y0189143D01*
X0149641Y0189424D01*
X0149851Y0189701D01*
X0150068Y0189972D01*
X0150292Y0190237D01*
X0150521Y0190497D01*
X0150758Y0190751D01*
X0151000Y0191000D01*
X0151249Y0191242D01*
X0151503Y0191479D01*
X0151763Y0191708D01*
X0152028Y0191932D01*
X0152299Y0192149D01*
X0152576Y0192359D01*
X0152857Y0192562D01*
X0153143Y0192759D01*
X0153434Y0192948D01*
X0153730Y0193130D01*
X0154029Y0193305D01*
X0154334Y0193472D01*
X0154642Y0193632D01*
X0154954Y0193784D01*
X0155269Y0193929D01*
X0155588Y0194066D01*
X0155910Y0194194D01*
X0156236Y0194315D01*
X0156564Y0194428D01*
X0156895Y0194533D01*
X0157228Y0194630D01*
X0157564Y0194718D01*
X0157901Y0194798D01*
X0158241Y0194870D01*
X0158582Y0194934D01*
X0158925Y0194989D01*
X0159269Y0195036D01*
X0159614Y0195074D01*
X0159960Y0195104D01*
X0160306Y0195125D01*
X0160653Y0195138D01*
X0161000Y0195142D01*
X0161347Y0195138D01*
X0161694Y0195125D01*
X0162040Y0195104D01*
X0162386Y0195074D01*
X0162731Y0195036D01*
X0163075Y0194989D01*
X0163418Y0194934D01*
X0163759Y0194870D01*
X0164099Y0194798D01*
X0164436Y0194718D01*
X0164772Y0194630D01*
X0165105Y0194533D01*
X0165436Y0194428D01*
X0165764Y0194315D01*
X0166090Y0194194D01*
X0166412Y0194066D01*
X0166731Y0193929D01*
X0167046Y0193784D01*
X0167358Y0193632D01*
X0167666Y0193472D01*
X0167971Y0193305D01*
X0168270Y0193130D01*
X0168566Y0192948D01*
X0168857Y0192759D01*
X0169143Y0192562D01*
X0169424Y0192359D01*
X0169701Y0192149D01*
X0169972Y0191932D01*
X0170237Y0191708D01*
X0170497Y0191479D01*
X0170751Y0191242D01*
X0171000Y0191000D01*
X0171242Y0190751D01*
X0171479Y0190497D01*
X0171708Y0190237D01*
X0171932Y0189972D01*
X0172149Y0189701D01*
X0172359Y0189424D01*
X0172562Y0189143D01*
X0172759Y0188857D01*
X0172948Y0188566D01*
X0173130Y0188270D01*
X0173305Y0187971D01*
X0173472Y0187666D01*
X0173632Y0187358D01*
X0173784Y0187046D01*
X0173929Y0186731D01*
X0174066Y0186412D01*
X0174194Y0186090D01*
X0174315Y0185764D01*
X0174428Y0185436D01*
X0174533Y0185105D01*
X0174630Y0184772D01*
X0174718Y0184436D01*
X0174798Y0184099D01*
X0174870Y0183759D01*
X0174934Y0183418D01*
X0174989Y0183075D01*
X0175036Y0182731D01*
X0175074Y0182386D01*
X0175104Y0182040D01*
X0175125Y0181694D01*
X0175138Y0181347D01*
X0175142Y0181000D01*
X0175138Y0180653D01*
X0175125Y0180306D01*
X0175104Y0179960D01*
X0175074Y0179614D01*
X0175036Y0179269D01*
X0174989Y0178925D01*
X0174934Y0178582D01*
X0174870Y0178241D01*
X0174798Y0177901D01*
X0174718Y0177564D01*
X0174630Y0177228D01*
X0174533Y0176895D01*
X0174428Y0176564D01*
X0174315Y0176236D01*
X0174194Y0175910D01*
X0174066Y0175588D01*
X0173929Y0175269D01*
X0173784Y0174954D01*
X0173632Y0174642D01*
X0173472Y0174334D01*
X0173305Y0174029D01*
X0173130Y0173730D01*
X0172948Y0173434D01*
X0172759Y0173143D01*
X0172562Y0172857D01*
X0172359Y0172576D01*
X0172149Y0172299D01*
X0171932Y0172028D01*
X0171708Y0171763D01*
X0171479Y0171503D01*
X0171242Y0171249D01*
X0171000Y0171000D01*
X0170751Y0170758D01*
X0170497Y0170521D01*
X0170237Y0170292D01*
X0169972Y0170068D01*
X0169701Y0169851D01*
X0169424Y0169641D01*
X0169143Y0169438D01*
X0168857Y0169241D01*
X0168566Y0169052D01*
X0168270Y0168870D01*
X0167971Y0168695D01*
X0167666Y0168528D01*
X0167358Y0168368D01*
X0167046Y0168216D01*
X0166731Y0168071D01*
X0166412Y0167934D01*
X0166090Y0167806D01*
X0165764Y0167685D01*
X0165436Y0167572D01*
X0165105Y0167467D01*
X0164772Y0167370D01*
X0164436Y0167282D01*
X0164099Y0167202D01*
X0163759Y0167130D01*
X0163418Y0167066D01*
X0163075Y0167011D01*
X0162731Y0166964D01*
X0162386Y0166926D01*
X0162040Y0166896D01*
X0161694Y0166875D01*
X0161347Y0166862D01*
X0161000Y0166858D01*
X0160653Y0166862D01*
X0160306Y0166875D01*
X0159960Y0166896D01*
X0159614Y0166926D01*
X0159269Y0166964D01*
X0158925Y0167011D01*
X0158582Y0167066D01*
X0158241Y0167130D01*
X0157901Y0167202D01*
X0157564Y0167282D01*
X0157228Y0167370D01*
X0156895Y0167467D01*
X0156564Y0167572D01*
X0156236Y0167685D01*
X0155910Y0167806D01*
X0155588Y0167934D01*
X0155269Y0168071D01*
X0154954Y0168216D01*
X0154642Y0168368D01*
X0154334Y0168528D01*
X0154029Y0168695D01*
X0153730Y0168870D01*
X0153434Y0169052D01*
X0153143Y0169241D01*
X0152857Y0169438D01*
X0152576Y0169641D01*
X0152299Y0169851D01*
X0152028Y0170068D01*
X0151763Y0170292D01*
X0151503Y0170521D01*
X0151249Y0170758D01*
X0151000Y0171000D01*
X0150758Y0171249D01*
X0150521Y0171503D01*
X0150292Y0171763D01*
X0150068Y0172028D01*
X0149851Y0172299D01*
X0149641Y0172576D01*
X0149438Y0172857D01*
X0149241Y0173143D01*
X0149052Y0173434D01*
X0148870Y0173730D01*
X0148695Y0174029D01*
X0148528Y0174334D01*
X0148368Y0174642D01*
X0148216Y0174954D01*
X0148071Y0175269D01*
X0147934Y0175588D01*
X0147806Y0175910D01*
X0147685Y0176236D01*
X0147572Y0176564D01*
X0147467Y0176895D01*
X0147370Y0177228D01*
X0147282Y0177564D01*
X0147202Y0177901D01*
X0147130Y0178241D01*
X0147066Y0178582D01*
X0147011Y0178925D01*
X0146964Y0179269D01*
X0146926Y0179614D01*
X0146896Y0179960D01*
X0146875Y0180306D01*
X0146862Y0180653D01*
X0146858Y0181000D01*
X0076858Y0181000D02*
X0076862Y0181347D01*
X0076875Y0181694D01*
X0076896Y0182040D01*
X0076926Y0182386D01*
X0076964Y0182731D01*
X0077011Y0183075D01*
X0077066Y0183418D01*
X0077130Y0183759D01*
X0077202Y0184099D01*
X0077282Y0184436D01*
X0077370Y0184772D01*
X0077467Y0185105D01*
X0077572Y0185436D01*
X0077685Y0185764D01*
X0077806Y0186090D01*
X0077934Y0186412D01*
X0078071Y0186731D01*
X0078216Y0187046D01*
X0078368Y0187358D01*
X0078528Y0187666D01*
X0078695Y0187971D01*
X0078870Y0188270D01*
X0079052Y0188566D01*
X0079241Y0188857D01*
X0079438Y0189143D01*
X0079641Y0189424D01*
X0079851Y0189701D01*
X0080068Y0189972D01*
X0080292Y0190237D01*
X0080521Y0190497D01*
X0080758Y0190751D01*
X0081000Y0191000D01*
X0081249Y0191242D01*
X0081503Y0191479D01*
X0081763Y0191708D01*
X0082028Y0191932D01*
X0082299Y0192149D01*
X0082576Y0192359D01*
X0082857Y0192562D01*
X0083143Y0192759D01*
X0083434Y0192948D01*
X0083730Y0193130D01*
X0084029Y0193305D01*
X0084334Y0193472D01*
X0084642Y0193632D01*
X0084954Y0193784D01*
X0085269Y0193929D01*
X0085588Y0194066D01*
X0085910Y0194194D01*
X0086236Y0194315D01*
X0086564Y0194428D01*
X0086895Y0194533D01*
X0087228Y0194630D01*
X0087564Y0194718D01*
X0087901Y0194798D01*
X0088241Y0194870D01*
X0088582Y0194934D01*
X0088925Y0194989D01*
X0089269Y0195036D01*
X0089614Y0195074D01*
X0089960Y0195104D01*
X0090306Y0195125D01*
X0090653Y0195138D01*
X0091000Y0195142D01*
X0091347Y0195138D01*
X0091694Y0195125D01*
X0092040Y0195104D01*
X0092386Y0195074D01*
X0092731Y0195036D01*
X0093075Y0194989D01*
X0093418Y0194934D01*
X0093759Y0194870D01*
X0094099Y0194798D01*
X0094436Y0194718D01*
X0094772Y0194630D01*
X0095105Y0194533D01*
X0095436Y0194428D01*
X0095764Y0194315D01*
X0096090Y0194194D01*
X0096412Y0194066D01*
X0096731Y0193929D01*
X0097046Y0193784D01*
X0097358Y0193632D01*
X0097666Y0193472D01*
X0097971Y0193305D01*
X0098270Y0193130D01*
X0098566Y0192948D01*
X0098857Y0192759D01*
X0099143Y0192562D01*
X0099424Y0192359D01*
X0099701Y0192149D01*
X0099972Y0191932D01*
X0100237Y0191708D01*
X0100497Y0191479D01*
X0100751Y0191242D01*
X0101000Y0191000D01*
X0101242Y0190751D01*
X0101479Y0190497D01*
X0101708Y0190237D01*
X0101932Y0189972D01*
X0102149Y0189701D01*
X0102359Y0189424D01*
X0102562Y0189143D01*
X0102759Y0188857D01*
X0102948Y0188566D01*
X0103130Y0188270D01*
X0103305Y0187971D01*
X0103472Y0187666D01*
X0103632Y0187358D01*
X0103784Y0187046D01*
X0103929Y0186731D01*
X0104066Y0186412D01*
X0104194Y0186090D01*
X0104315Y0185764D01*
X0104428Y0185436D01*
X0104533Y0185105D01*
X0104630Y0184772D01*
X0104718Y0184436D01*
X0104798Y0184099D01*
X0104870Y0183759D01*
X0104934Y0183418D01*
X0104989Y0183075D01*
X0105036Y0182731D01*
X0105074Y0182386D01*
X0105104Y0182040D01*
X0105125Y0181694D01*
X0105138Y0181347D01*
X0105142Y0181000D01*
X0105138Y0180653D01*
X0105125Y0180306D01*
X0105104Y0179960D01*
X0105074Y0179614D01*
X0105036Y0179269D01*
X0104989Y0178925D01*
X0104934Y0178582D01*
X0104870Y0178241D01*
X0104798Y0177901D01*
X0104718Y0177564D01*
X0104630Y0177228D01*
X0104533Y0176895D01*
X0104428Y0176564D01*
X0104315Y0176236D01*
X0104194Y0175910D01*
X0104066Y0175588D01*
X0103929Y0175269D01*
X0103784Y0174954D01*
X0103632Y0174642D01*
X0103472Y0174334D01*
X0103305Y0174029D01*
X0103130Y0173730D01*
X0102948Y0173434D01*
X0102759Y0173143D01*
X0102562Y0172857D01*
X0102359Y0172576D01*
X0102149Y0172299D01*
X0101932Y0172028D01*
X0101708Y0171763D01*
X0101479Y0171503D01*
X0101242Y0171249D01*
X0101000Y0171000D01*
X0100751Y0170758D01*
X0100497Y0170521D01*
X0100237Y0170292D01*
X0099972Y0170068D01*
X0099701Y0169851D01*
X0099424Y0169641D01*
X0099143Y0169438D01*
X0098857Y0169241D01*
X0098566Y0169052D01*
X0098270Y0168870D01*
X0097971Y0168695D01*
X0097666Y0168528D01*
X0097358Y0168368D01*
X0097046Y0168216D01*
X0096731Y0168071D01*
X0096412Y0167934D01*
X0096090Y0167806D01*
X0095764Y0167685D01*
X0095436Y0167572D01*
X0095105Y0167467D01*
X0094772Y0167370D01*
X0094436Y0167282D01*
X0094099Y0167202D01*
X0093759Y0167130D01*
X0093418Y0167066D01*
X0093075Y0167011D01*
X0092731Y0166964D01*
X0092386Y0166926D01*
X0092040Y0166896D01*
X0091694Y0166875D01*
X0091347Y0166862D01*
X0091000Y0166858D01*
X0090653Y0166862D01*
X0090306Y0166875D01*
X0089960Y0166896D01*
X0089614Y0166926D01*
X0089269Y0166964D01*
X0088925Y0167011D01*
X0088582Y0167066D01*
X0088241Y0167130D01*
X0087901Y0167202D01*
X0087564Y0167282D01*
X0087228Y0167370D01*
X0086895Y0167467D01*
X0086564Y0167572D01*
X0086236Y0167685D01*
X0085910Y0167806D01*
X0085588Y0167934D01*
X0085269Y0168071D01*
X0084954Y0168216D01*
X0084642Y0168368D01*
X0084334Y0168528D01*
X0084029Y0168695D01*
X0083730Y0168870D01*
X0083434Y0169052D01*
X0083143Y0169241D01*
X0082857Y0169438D01*
X0082576Y0169641D01*
X0082299Y0169851D01*
X0082028Y0170068D01*
X0081763Y0170292D01*
X0081503Y0170521D01*
X0081249Y0170758D01*
X0081000Y0171000D01*
X0080758Y0171249D01*
X0080521Y0171503D01*
X0080292Y0171763D01*
X0080068Y0172028D01*
X0079851Y0172299D01*
X0079641Y0172576D01*
X0079438Y0172857D01*
X0079241Y0173143D01*
X0079052Y0173434D01*
X0078870Y0173730D01*
X0078695Y0174029D01*
X0078528Y0174334D01*
X0078368Y0174642D01*
X0078216Y0174954D01*
X0078071Y0175269D01*
X0077934Y0175588D01*
X0077806Y0175910D01*
X0077685Y0176236D01*
X0077572Y0176564D01*
X0077467Y0176895D01*
X0077370Y0177228D01*
X0077282Y0177564D01*
X0077202Y0177901D01*
X0077130Y0178241D01*
X0077066Y0178582D01*
X0077011Y0178925D01*
X0076964Y0179269D01*
X0076926Y0179614D01*
X0076896Y0179960D01*
X0076875Y0180306D01*
X0076862Y0180653D01*
X0076858Y0181000D01*
X0006858Y0181000D02*
X0006862Y0181347D01*
X0006875Y0181694D01*
X0006896Y0182040D01*
X0006926Y0182386D01*
X0006964Y0182731D01*
X0007011Y0183075D01*
X0007066Y0183418D01*
X0007130Y0183759D01*
X0007202Y0184099D01*
X0007282Y0184436D01*
X0007370Y0184772D01*
X0007467Y0185105D01*
X0007572Y0185436D01*
X0007685Y0185764D01*
X0007806Y0186090D01*
X0007934Y0186412D01*
X0008071Y0186731D01*
X0008216Y0187046D01*
X0008368Y0187358D01*
X0008528Y0187666D01*
X0008695Y0187971D01*
X0008870Y0188270D01*
X0009052Y0188566D01*
X0009241Y0188857D01*
X0009438Y0189143D01*
X0009641Y0189424D01*
X0009851Y0189701D01*
X0010068Y0189972D01*
X0010292Y0190237D01*
X0010521Y0190497D01*
X0010758Y0190751D01*
X0011000Y0191000D01*
X0011249Y0191242D01*
X0011503Y0191479D01*
X0011763Y0191708D01*
X0012028Y0191932D01*
X0012299Y0192149D01*
X0012576Y0192359D01*
X0012857Y0192562D01*
X0013143Y0192759D01*
X0013434Y0192948D01*
X0013730Y0193130D01*
X0014029Y0193305D01*
X0014334Y0193472D01*
X0014642Y0193632D01*
X0014954Y0193784D01*
X0015269Y0193929D01*
X0015588Y0194066D01*
X0015910Y0194194D01*
X0016236Y0194315D01*
X0016564Y0194428D01*
X0016895Y0194533D01*
X0017228Y0194630D01*
X0017564Y0194718D01*
X0017901Y0194798D01*
X0018241Y0194870D01*
X0018582Y0194934D01*
X0018925Y0194989D01*
X0019269Y0195036D01*
X0019614Y0195074D01*
X0019960Y0195104D01*
X0020306Y0195125D01*
X0020653Y0195138D01*
X0021000Y0195142D01*
X0021347Y0195138D01*
X0021694Y0195125D01*
X0022040Y0195104D01*
X0022386Y0195074D01*
X0022731Y0195036D01*
X0023075Y0194989D01*
X0023418Y0194934D01*
X0023759Y0194870D01*
X0024099Y0194798D01*
X0024436Y0194718D01*
X0024772Y0194630D01*
X0025105Y0194533D01*
X0025436Y0194428D01*
X0025764Y0194315D01*
X0026090Y0194194D01*
X0026412Y0194066D01*
X0026731Y0193929D01*
X0027046Y0193784D01*
X0027358Y0193632D01*
X0027666Y0193472D01*
X0027971Y0193305D01*
X0028270Y0193130D01*
X0028566Y0192948D01*
X0028857Y0192759D01*
X0029143Y0192562D01*
X0029424Y0192359D01*
X0029701Y0192149D01*
X0029972Y0191932D01*
X0030237Y0191708D01*
X0030497Y0191479D01*
X0030751Y0191242D01*
X0031000Y0191000D01*
X0031242Y0190751D01*
X0031479Y0190497D01*
X0031708Y0190237D01*
X0031932Y0189972D01*
X0032149Y0189701D01*
X0032359Y0189424D01*
X0032562Y0189143D01*
X0032759Y0188857D01*
X0032948Y0188566D01*
X0033130Y0188270D01*
X0033305Y0187971D01*
X0033472Y0187666D01*
X0033632Y0187358D01*
X0033784Y0187046D01*
X0033929Y0186731D01*
X0034066Y0186412D01*
X0034194Y0186090D01*
X0034315Y0185764D01*
X0034428Y0185436D01*
X0034533Y0185105D01*
X0034630Y0184772D01*
X0034718Y0184436D01*
X0034798Y0184099D01*
X0034870Y0183759D01*
X0034934Y0183418D01*
X0034989Y0183075D01*
X0035036Y0182731D01*
X0035074Y0182386D01*
X0035104Y0182040D01*
X0035125Y0181694D01*
X0035138Y0181347D01*
X0035142Y0181000D01*
X0035138Y0180653D01*
X0035125Y0180306D01*
X0035104Y0179960D01*
X0035074Y0179614D01*
X0035036Y0179269D01*
X0034989Y0178925D01*
X0034934Y0178582D01*
X0034870Y0178241D01*
X0034798Y0177901D01*
X0034718Y0177564D01*
X0034630Y0177228D01*
X0034533Y0176895D01*
X0034428Y0176564D01*
X0034315Y0176236D01*
X0034194Y0175910D01*
X0034066Y0175588D01*
X0033929Y0175269D01*
X0033784Y0174954D01*
X0033632Y0174642D01*
X0033472Y0174334D01*
X0033305Y0174029D01*
X0033130Y0173730D01*
X0032948Y0173434D01*
X0032759Y0173143D01*
X0032562Y0172857D01*
X0032359Y0172576D01*
X0032149Y0172299D01*
X0031932Y0172028D01*
X0031708Y0171763D01*
X0031479Y0171503D01*
X0031242Y0171249D01*
X0031000Y0171000D01*
X0030751Y0170758D01*
X0030497Y0170521D01*
X0030237Y0170292D01*
X0029972Y0170068D01*
X0029701Y0169851D01*
X0029424Y0169641D01*
X0029143Y0169438D01*
X0028857Y0169241D01*
X0028566Y0169052D01*
X0028270Y0168870D01*
X0027971Y0168695D01*
X0027666Y0168528D01*
X0027358Y0168368D01*
X0027046Y0168216D01*
X0026731Y0168071D01*
X0026412Y0167934D01*
X0026090Y0167806D01*
X0025764Y0167685D01*
X0025436Y0167572D01*
X0025105Y0167467D01*
X0024772Y0167370D01*
X0024436Y0167282D01*
X0024099Y0167202D01*
X0023759Y0167130D01*
X0023418Y0167066D01*
X0023075Y0167011D01*
X0022731Y0166964D01*
X0022386Y0166926D01*
X0022040Y0166896D01*
X0021694Y0166875D01*
X0021347Y0166862D01*
X0021000Y0166858D01*
X0020653Y0166862D01*
X0020306Y0166875D01*
X0019960Y0166896D01*
X0019614Y0166926D01*
X0019269Y0166964D01*
X0018925Y0167011D01*
X0018582Y0167066D01*
X0018241Y0167130D01*
X0017901Y0167202D01*
X0017564Y0167282D01*
X0017228Y0167370D01*
X0016895Y0167467D01*
X0016564Y0167572D01*
X0016236Y0167685D01*
X0015910Y0167806D01*
X0015588Y0167934D01*
X0015269Y0168071D01*
X0014954Y0168216D01*
X0014642Y0168368D01*
X0014334Y0168528D01*
X0014029Y0168695D01*
X0013730Y0168870D01*
X0013434Y0169052D01*
X0013143Y0169241D01*
X0012857Y0169438D01*
X0012576Y0169641D01*
X0012299Y0169851D01*
X0012028Y0170068D01*
X0011763Y0170292D01*
X0011503Y0170521D01*
X0011249Y0170758D01*
X0011000Y0171000D01*
X0010758Y0171249D01*
X0010521Y0171503D01*
X0010292Y0171763D01*
X0010068Y0172028D01*
X0009851Y0172299D01*
X0009641Y0172576D01*
X0009438Y0172857D01*
X0009241Y0173143D01*
X0009052Y0173434D01*
X0008870Y0173730D01*
X0008695Y0174029D01*
X0008528Y0174334D01*
X0008368Y0174642D01*
X0008216Y0174954D01*
X0008071Y0175269D01*
X0007934Y0175588D01*
X0007806Y0175910D01*
X0007685Y0176236D01*
X0007572Y0176564D01*
X0007467Y0176895D01*
X0007370Y0177228D01*
X0007282Y0177564D01*
X0007202Y0177901D01*
X0007130Y0178241D01*
X0007066Y0178582D01*
X0007011Y0178925D01*
X0006964Y0179269D01*
X0006926Y0179614D01*
X0006896Y0179960D01*
X0006875Y0180306D01*
X0006862Y0180653D01*
X0006858Y0181000D01*
X0086858Y0071000D02*
X0086862Y0071347D01*
X0086875Y0071694D01*
X0086896Y0072040D01*
X0086926Y0072386D01*
X0086964Y0072731D01*
X0087011Y0073075D01*
X0087066Y0073418D01*
X0087130Y0073759D01*
X0087202Y0074099D01*
X0087282Y0074436D01*
X0087370Y0074772D01*
X0087467Y0075105D01*
X0087572Y0075436D01*
X0087685Y0075764D01*
X0087806Y0076090D01*
X0087934Y0076412D01*
X0088071Y0076731D01*
X0088216Y0077046D01*
X0088368Y0077358D01*
X0088528Y0077666D01*
X0088695Y0077971D01*
X0088870Y0078270D01*
X0089052Y0078566D01*
X0089241Y0078857D01*
X0089438Y0079143D01*
X0089641Y0079424D01*
X0089851Y0079701D01*
X0090068Y0079972D01*
X0090292Y0080237D01*
X0090521Y0080497D01*
X0090758Y0080751D01*
X0091000Y0081000D01*
X0091249Y0081242D01*
X0091503Y0081479D01*
X0091763Y0081708D01*
X0092028Y0081932D01*
X0092299Y0082149D01*
X0092576Y0082359D01*
X0092857Y0082562D01*
X0093143Y0082759D01*
X0093434Y0082948D01*
X0093730Y0083130D01*
X0094029Y0083305D01*
X0094334Y0083472D01*
X0094642Y0083632D01*
X0094954Y0083784D01*
X0095269Y0083929D01*
X0095588Y0084066D01*
X0095910Y0084194D01*
X0096236Y0084315D01*
X0096564Y0084428D01*
X0096895Y0084533D01*
X0097228Y0084630D01*
X0097564Y0084718D01*
X0097901Y0084798D01*
X0098241Y0084870D01*
X0098582Y0084934D01*
X0098925Y0084989D01*
X0099269Y0085036D01*
X0099614Y0085074D01*
X0099960Y0085104D01*
X0100306Y0085125D01*
X0100653Y0085138D01*
X0101000Y0085142D01*
X0101347Y0085138D01*
X0101694Y0085125D01*
X0102040Y0085104D01*
X0102386Y0085074D01*
X0102731Y0085036D01*
X0103075Y0084989D01*
X0103418Y0084934D01*
X0103759Y0084870D01*
X0104099Y0084798D01*
X0104436Y0084718D01*
X0104772Y0084630D01*
X0105105Y0084533D01*
X0105436Y0084428D01*
X0105764Y0084315D01*
X0106090Y0084194D01*
X0106412Y0084066D01*
X0106731Y0083929D01*
X0107046Y0083784D01*
X0107358Y0083632D01*
X0107666Y0083472D01*
X0107971Y0083305D01*
X0108270Y0083130D01*
X0108566Y0082948D01*
X0108857Y0082759D01*
X0109143Y0082562D01*
X0109424Y0082359D01*
X0109701Y0082149D01*
X0109972Y0081932D01*
X0110237Y0081708D01*
X0110497Y0081479D01*
X0110751Y0081242D01*
X0111000Y0081000D01*
X0111242Y0080751D01*
X0111479Y0080497D01*
X0111708Y0080237D01*
X0111932Y0079972D01*
X0112149Y0079701D01*
X0112359Y0079424D01*
X0112562Y0079143D01*
X0112759Y0078857D01*
X0112948Y0078566D01*
X0113130Y0078270D01*
X0113305Y0077971D01*
X0113472Y0077666D01*
X0113632Y0077358D01*
X0113784Y0077046D01*
X0113929Y0076731D01*
X0114066Y0076412D01*
X0114194Y0076090D01*
X0114315Y0075764D01*
X0114428Y0075436D01*
X0114533Y0075105D01*
X0114630Y0074772D01*
X0114718Y0074436D01*
X0114798Y0074099D01*
X0114870Y0073759D01*
X0114934Y0073418D01*
X0114989Y0073075D01*
X0115036Y0072731D01*
X0115074Y0072386D01*
X0115104Y0072040D01*
X0115125Y0071694D01*
X0115138Y0071347D01*
X0115142Y0071000D01*
X0115138Y0070653D01*
X0115125Y0070306D01*
X0115104Y0069960D01*
X0115074Y0069614D01*
X0115036Y0069269D01*
X0114989Y0068925D01*
X0114934Y0068582D01*
X0114870Y0068241D01*
X0114798Y0067901D01*
X0114718Y0067564D01*
X0114630Y0067228D01*
X0114533Y0066895D01*
X0114428Y0066564D01*
X0114315Y0066236D01*
X0114194Y0065910D01*
X0114066Y0065588D01*
X0113929Y0065269D01*
X0113784Y0064954D01*
X0113632Y0064642D01*
X0113472Y0064334D01*
X0113305Y0064029D01*
X0113130Y0063730D01*
X0112948Y0063434D01*
X0112759Y0063143D01*
X0112562Y0062857D01*
X0112359Y0062576D01*
X0112149Y0062299D01*
X0111932Y0062028D01*
X0111708Y0061763D01*
X0111479Y0061503D01*
X0111242Y0061249D01*
X0111000Y0061000D01*
X0110751Y0060758D01*
X0110497Y0060521D01*
X0110237Y0060292D01*
X0109972Y0060068D01*
X0109701Y0059851D01*
X0109424Y0059641D01*
X0109143Y0059438D01*
X0108857Y0059241D01*
X0108566Y0059052D01*
X0108270Y0058870D01*
X0107971Y0058695D01*
X0107666Y0058528D01*
X0107358Y0058368D01*
X0107046Y0058216D01*
X0106731Y0058071D01*
X0106412Y0057934D01*
X0106090Y0057806D01*
X0105764Y0057685D01*
X0105436Y0057572D01*
X0105105Y0057467D01*
X0104772Y0057370D01*
X0104436Y0057282D01*
X0104099Y0057202D01*
X0103759Y0057130D01*
X0103418Y0057066D01*
X0103075Y0057011D01*
X0102731Y0056964D01*
X0102386Y0056926D01*
X0102040Y0056896D01*
X0101694Y0056875D01*
X0101347Y0056862D01*
X0101000Y0056858D01*
X0100653Y0056862D01*
X0100306Y0056875D01*
X0099960Y0056896D01*
X0099614Y0056926D01*
X0099269Y0056964D01*
X0098925Y0057011D01*
X0098582Y0057066D01*
X0098241Y0057130D01*
X0097901Y0057202D01*
X0097564Y0057282D01*
X0097228Y0057370D01*
X0096895Y0057467D01*
X0096564Y0057572D01*
X0096236Y0057685D01*
X0095910Y0057806D01*
X0095588Y0057934D01*
X0095269Y0058071D01*
X0094954Y0058216D01*
X0094642Y0058368D01*
X0094334Y0058528D01*
X0094029Y0058695D01*
X0093730Y0058870D01*
X0093434Y0059052D01*
X0093143Y0059241D01*
X0092857Y0059438D01*
X0092576Y0059641D01*
X0092299Y0059851D01*
X0092028Y0060068D01*
X0091763Y0060292D01*
X0091503Y0060521D01*
X0091249Y0060758D01*
X0091000Y0061000D01*
X0090758Y0061249D01*
X0090521Y0061503D01*
X0090292Y0061763D01*
X0090068Y0062028D01*
X0089851Y0062299D01*
X0089641Y0062576D01*
X0089438Y0062857D01*
X0089241Y0063143D01*
X0089052Y0063434D01*
X0088870Y0063730D01*
X0088695Y0064029D01*
X0088528Y0064334D01*
X0088368Y0064642D01*
X0088216Y0064954D01*
X0088071Y0065269D01*
X0087934Y0065588D01*
X0087806Y0065910D01*
X0087685Y0066236D01*
X0087572Y0066564D01*
X0087467Y0066895D01*
X0087370Y0067228D01*
X0087282Y0067564D01*
X0087202Y0067901D01*
X0087130Y0068241D01*
X0087066Y0068582D01*
X0087011Y0068925D01*
X0086964Y0069269D01*
X0086926Y0069614D01*
X0086896Y0069960D01*
X0086875Y0070306D01*
X0086862Y0070653D01*
X0086858Y0071000D01*
X0211858Y0061000D02*
X0211862Y0061347D01*
X0211875Y0061694D01*
X0211896Y0062040D01*
X0211926Y0062386D01*
X0211964Y0062731D01*
X0212011Y0063075D01*
X0212066Y0063418D01*
X0212130Y0063759D01*
X0212202Y0064099D01*
X0212282Y0064436D01*
X0212370Y0064772D01*
X0212467Y0065105D01*
X0212572Y0065436D01*
X0212685Y0065764D01*
X0212806Y0066090D01*
X0212934Y0066412D01*
X0213071Y0066731D01*
X0213216Y0067046D01*
X0213368Y0067358D01*
X0213528Y0067666D01*
X0213695Y0067971D01*
X0213870Y0068270D01*
X0214052Y0068566D01*
X0214241Y0068857D01*
X0214438Y0069143D01*
X0214641Y0069424D01*
X0214851Y0069701D01*
X0215068Y0069972D01*
X0215292Y0070237D01*
X0215521Y0070497D01*
X0215758Y0070751D01*
X0216000Y0071000D01*
X0216249Y0071242D01*
X0216503Y0071479D01*
X0216763Y0071708D01*
X0217028Y0071932D01*
X0217299Y0072149D01*
X0217576Y0072359D01*
X0217857Y0072562D01*
X0218143Y0072759D01*
X0218434Y0072948D01*
X0218730Y0073130D01*
X0219029Y0073305D01*
X0219334Y0073472D01*
X0219642Y0073632D01*
X0219954Y0073784D01*
X0220269Y0073929D01*
X0220588Y0074066D01*
X0220910Y0074194D01*
X0221236Y0074315D01*
X0221564Y0074428D01*
X0221895Y0074533D01*
X0222228Y0074630D01*
X0222564Y0074718D01*
X0222901Y0074798D01*
X0223241Y0074870D01*
X0223582Y0074934D01*
X0223925Y0074989D01*
X0224269Y0075036D01*
X0224614Y0075074D01*
X0224960Y0075104D01*
X0225306Y0075125D01*
X0225653Y0075138D01*
X0226000Y0075142D01*
X0226347Y0075138D01*
X0226694Y0075125D01*
X0227040Y0075104D01*
X0227386Y0075074D01*
X0227731Y0075036D01*
X0228075Y0074989D01*
X0228418Y0074934D01*
X0228759Y0074870D01*
X0229099Y0074798D01*
X0229436Y0074718D01*
X0229772Y0074630D01*
X0230105Y0074533D01*
X0230436Y0074428D01*
X0230764Y0074315D01*
X0231090Y0074194D01*
X0231412Y0074066D01*
X0231731Y0073929D01*
X0232046Y0073784D01*
X0232358Y0073632D01*
X0232666Y0073472D01*
X0232971Y0073305D01*
X0233270Y0073130D01*
X0233566Y0072948D01*
X0233857Y0072759D01*
X0234143Y0072562D01*
X0234424Y0072359D01*
X0234701Y0072149D01*
X0234972Y0071932D01*
X0235237Y0071708D01*
X0235497Y0071479D01*
X0235751Y0071242D01*
X0236000Y0071000D01*
X0236242Y0070751D01*
X0236479Y0070497D01*
X0236708Y0070237D01*
X0236932Y0069972D01*
X0237149Y0069701D01*
X0237359Y0069424D01*
X0237562Y0069143D01*
X0237759Y0068857D01*
X0237948Y0068566D01*
X0238130Y0068270D01*
X0238305Y0067971D01*
X0238472Y0067666D01*
X0238632Y0067358D01*
X0238784Y0067046D01*
X0238929Y0066731D01*
X0239066Y0066412D01*
X0239194Y0066090D01*
X0239315Y0065764D01*
X0239428Y0065436D01*
X0239533Y0065105D01*
X0239630Y0064772D01*
X0239718Y0064436D01*
X0239798Y0064099D01*
X0239870Y0063759D01*
X0239934Y0063418D01*
X0239989Y0063075D01*
X0240036Y0062731D01*
X0240074Y0062386D01*
X0240104Y0062040D01*
X0240125Y0061694D01*
X0240138Y0061347D01*
X0240142Y0061000D01*
X0240138Y0060653D01*
X0240125Y0060306D01*
X0240104Y0059960D01*
X0240074Y0059614D01*
X0240036Y0059269D01*
X0239989Y0058925D01*
X0239934Y0058582D01*
X0239870Y0058241D01*
X0239798Y0057901D01*
X0239718Y0057564D01*
X0239630Y0057228D01*
X0239533Y0056895D01*
X0239428Y0056564D01*
X0239315Y0056236D01*
X0239194Y0055910D01*
X0239066Y0055588D01*
X0238929Y0055269D01*
X0238784Y0054954D01*
X0238632Y0054642D01*
X0238472Y0054334D01*
X0238305Y0054029D01*
X0238130Y0053730D01*
X0237948Y0053434D01*
X0237759Y0053143D01*
X0237562Y0052857D01*
X0237359Y0052576D01*
X0237149Y0052299D01*
X0236932Y0052028D01*
X0236708Y0051763D01*
X0236479Y0051503D01*
X0236242Y0051249D01*
X0236000Y0051000D01*
X0235751Y0050758D01*
X0235497Y0050521D01*
X0235237Y0050292D01*
X0234972Y0050068D01*
X0234701Y0049851D01*
X0234424Y0049641D01*
X0234143Y0049438D01*
X0233857Y0049241D01*
X0233566Y0049052D01*
X0233270Y0048870D01*
X0232971Y0048695D01*
X0232666Y0048528D01*
X0232358Y0048368D01*
X0232046Y0048216D01*
X0231731Y0048071D01*
X0231412Y0047934D01*
X0231090Y0047806D01*
X0230764Y0047685D01*
X0230436Y0047572D01*
X0230105Y0047467D01*
X0229772Y0047370D01*
X0229436Y0047282D01*
X0229099Y0047202D01*
X0228759Y0047130D01*
X0228418Y0047066D01*
X0228075Y0047011D01*
X0227731Y0046964D01*
X0227386Y0046926D01*
X0227040Y0046896D01*
X0226694Y0046875D01*
X0226347Y0046862D01*
X0226000Y0046858D01*
X0225653Y0046862D01*
X0225306Y0046875D01*
X0224960Y0046896D01*
X0224614Y0046926D01*
X0224269Y0046964D01*
X0223925Y0047011D01*
X0223582Y0047066D01*
X0223241Y0047130D01*
X0222901Y0047202D01*
X0222564Y0047282D01*
X0222228Y0047370D01*
X0221895Y0047467D01*
X0221564Y0047572D01*
X0221236Y0047685D01*
X0220910Y0047806D01*
X0220588Y0047934D01*
X0220269Y0048071D01*
X0219954Y0048216D01*
X0219642Y0048368D01*
X0219334Y0048528D01*
X0219029Y0048695D01*
X0218730Y0048870D01*
X0218434Y0049052D01*
X0218143Y0049241D01*
X0217857Y0049438D01*
X0217576Y0049641D01*
X0217299Y0049851D01*
X0217028Y0050068D01*
X0216763Y0050292D01*
X0216503Y0050521D01*
X0216249Y0050758D01*
X0216000Y0051000D01*
X0215758Y0051249D01*
X0215521Y0051503D01*
X0215292Y0051763D01*
X0215068Y0052028D01*
X0214851Y0052299D01*
X0214641Y0052576D01*
X0214438Y0052857D01*
X0214241Y0053143D01*
X0214052Y0053434D01*
X0213870Y0053730D01*
X0213695Y0054029D01*
X0213528Y0054334D01*
X0213368Y0054642D01*
X0213216Y0054954D01*
X0213071Y0055269D01*
X0212934Y0055588D01*
X0212806Y0055910D01*
X0212685Y0056236D01*
X0212572Y0056564D01*
X0212467Y0056895D01*
X0212370Y0057228D01*
X0212282Y0057564D01*
X0212202Y0057901D01*
X0212130Y0058241D01*
X0212066Y0058582D01*
X0212011Y0058925D01*
X0211964Y0059269D01*
X0211926Y0059614D01*
X0211896Y0059960D01*
X0211875Y0060306D01*
X0211862Y0060653D01*
X0211858Y0061000D01*
X0211858Y0021000D02*
X0211862Y0021347D01*
X0211875Y0021694D01*
X0211896Y0022040D01*
X0211926Y0022386D01*
X0211964Y0022731D01*
X0212011Y0023075D01*
X0212066Y0023418D01*
X0212130Y0023759D01*
X0212202Y0024099D01*
X0212282Y0024436D01*
X0212370Y0024772D01*
X0212467Y0025105D01*
X0212572Y0025436D01*
X0212685Y0025764D01*
X0212806Y0026090D01*
X0212934Y0026412D01*
X0213071Y0026731D01*
X0213216Y0027046D01*
X0213368Y0027358D01*
X0213528Y0027666D01*
X0213695Y0027971D01*
X0213870Y0028270D01*
X0214052Y0028566D01*
X0214241Y0028857D01*
X0214438Y0029143D01*
X0214641Y0029424D01*
X0214851Y0029701D01*
X0215068Y0029972D01*
X0215292Y0030237D01*
X0215521Y0030497D01*
X0215758Y0030751D01*
X0216000Y0031000D01*
X0216249Y0031242D01*
X0216503Y0031479D01*
X0216763Y0031708D01*
X0217028Y0031932D01*
X0217299Y0032149D01*
X0217576Y0032359D01*
X0217857Y0032562D01*
X0218143Y0032759D01*
X0218434Y0032948D01*
X0218730Y0033130D01*
X0219029Y0033305D01*
X0219334Y0033472D01*
X0219642Y0033632D01*
X0219954Y0033784D01*
X0220269Y0033929D01*
X0220588Y0034066D01*
X0220910Y0034194D01*
X0221236Y0034315D01*
X0221564Y0034428D01*
X0221895Y0034533D01*
X0222228Y0034630D01*
X0222564Y0034718D01*
X0222901Y0034798D01*
X0223241Y0034870D01*
X0223582Y0034934D01*
X0223925Y0034989D01*
X0224269Y0035036D01*
X0224614Y0035074D01*
X0224960Y0035104D01*
X0225306Y0035125D01*
X0225653Y0035138D01*
X0226000Y0035142D01*
X0226347Y0035138D01*
X0226694Y0035125D01*
X0227040Y0035104D01*
X0227386Y0035074D01*
X0227731Y0035036D01*
X0228075Y0034989D01*
X0228418Y0034934D01*
X0228759Y0034870D01*
X0229099Y0034798D01*
X0229436Y0034718D01*
X0229772Y0034630D01*
X0230105Y0034533D01*
X0230436Y0034428D01*
X0230764Y0034315D01*
X0231090Y0034194D01*
X0231412Y0034066D01*
X0231731Y0033929D01*
X0232046Y0033784D01*
X0232358Y0033632D01*
X0232666Y0033472D01*
X0232971Y0033305D01*
X0233270Y0033130D01*
X0233566Y0032948D01*
X0233857Y0032759D01*
X0234143Y0032562D01*
X0234424Y0032359D01*
X0234701Y0032149D01*
X0234972Y0031932D01*
X0235237Y0031708D01*
X0235497Y0031479D01*
X0235751Y0031242D01*
X0236000Y0031000D01*
X0236242Y0030751D01*
X0236479Y0030497D01*
X0236708Y0030237D01*
X0236932Y0029972D01*
X0237149Y0029701D01*
X0237359Y0029424D01*
X0237562Y0029143D01*
X0237759Y0028857D01*
X0237948Y0028566D01*
X0238130Y0028270D01*
X0238305Y0027971D01*
X0238472Y0027666D01*
X0238632Y0027358D01*
X0238784Y0027046D01*
X0238929Y0026731D01*
X0239066Y0026412D01*
X0239194Y0026090D01*
X0239315Y0025764D01*
X0239428Y0025436D01*
X0239533Y0025105D01*
X0239630Y0024772D01*
X0239718Y0024436D01*
X0239798Y0024099D01*
X0239870Y0023759D01*
X0239934Y0023418D01*
X0239989Y0023075D01*
X0240036Y0022731D01*
X0240074Y0022386D01*
X0240104Y0022040D01*
X0240125Y0021694D01*
X0240138Y0021347D01*
X0240142Y0021000D01*
X0240138Y0020653D01*
X0240125Y0020306D01*
X0240104Y0019960D01*
X0240074Y0019614D01*
X0240036Y0019269D01*
X0239989Y0018925D01*
X0239934Y0018582D01*
X0239870Y0018241D01*
X0239798Y0017901D01*
X0239718Y0017564D01*
X0239630Y0017228D01*
X0239533Y0016895D01*
X0239428Y0016564D01*
X0239315Y0016236D01*
X0239194Y0015910D01*
X0239066Y0015588D01*
X0238929Y0015269D01*
X0238784Y0014954D01*
X0238632Y0014642D01*
X0238472Y0014334D01*
X0238305Y0014029D01*
X0238130Y0013730D01*
X0237948Y0013434D01*
X0237759Y0013143D01*
X0237562Y0012857D01*
X0237359Y0012576D01*
X0237149Y0012299D01*
X0236932Y0012028D01*
X0236708Y0011763D01*
X0236479Y0011503D01*
X0236242Y0011249D01*
X0236000Y0011000D01*
X0235751Y0010758D01*
X0235497Y0010521D01*
X0235237Y0010292D01*
X0234972Y0010068D01*
X0234701Y0009851D01*
X0234424Y0009641D01*
X0234143Y0009438D01*
X0233857Y0009241D01*
X0233566Y0009052D01*
X0233270Y0008870D01*
X0232971Y0008695D01*
X0232666Y0008528D01*
X0232358Y0008368D01*
X0232046Y0008216D01*
X0231731Y0008071D01*
X0231412Y0007934D01*
X0231090Y0007806D01*
X0230764Y0007685D01*
X0230436Y0007572D01*
X0230105Y0007467D01*
X0229772Y0007370D01*
X0229436Y0007282D01*
X0229099Y0007202D01*
X0228759Y0007130D01*
X0228418Y0007066D01*
X0228075Y0007011D01*
X0227731Y0006964D01*
X0227386Y0006926D01*
X0227040Y0006896D01*
X0226694Y0006875D01*
X0226347Y0006862D01*
X0226000Y0006858D01*
X0225653Y0006862D01*
X0225306Y0006875D01*
X0224960Y0006896D01*
X0224614Y0006926D01*
X0224269Y0006964D01*
X0223925Y0007011D01*
X0223582Y0007066D01*
X0223241Y0007130D01*
X0222901Y0007202D01*
X0222564Y0007282D01*
X0222228Y0007370D01*
X0221895Y0007467D01*
X0221564Y0007572D01*
X0221236Y0007685D01*
X0220910Y0007806D01*
X0220588Y0007934D01*
X0220269Y0008071D01*
X0219954Y0008216D01*
X0219642Y0008368D01*
X0219334Y0008528D01*
X0219029Y0008695D01*
X0218730Y0008870D01*
X0218434Y0009052D01*
X0218143Y0009241D01*
X0217857Y0009438D01*
X0217576Y0009641D01*
X0217299Y0009851D01*
X0217028Y0010068D01*
X0216763Y0010292D01*
X0216503Y0010521D01*
X0216249Y0010758D01*
X0216000Y0011000D01*
X0215758Y0011249D01*
X0215521Y0011503D01*
X0215292Y0011763D01*
X0215068Y0012028D01*
X0214851Y0012299D01*
X0214641Y0012576D01*
X0214438Y0012857D01*
X0214241Y0013143D01*
X0214052Y0013434D01*
X0213870Y0013730D01*
X0213695Y0014029D01*
X0213528Y0014334D01*
X0213368Y0014642D01*
X0213216Y0014954D01*
X0213071Y0015269D01*
X0212934Y0015588D01*
X0212806Y0015910D01*
X0212685Y0016236D01*
X0212572Y0016564D01*
X0212467Y0016895D01*
X0212370Y0017228D01*
X0212282Y0017564D01*
X0212202Y0017901D01*
X0212130Y0018241D01*
X0212066Y0018582D01*
X0212011Y0018925D01*
X0211964Y0019269D01*
X0211926Y0019614D01*
X0211896Y0019960D01*
X0211875Y0020306D01*
X0211862Y0020653D01*
X0211858Y0021000D01*
X0211858Y0101000D02*
X0211862Y0101347D01*
X0211875Y0101694D01*
X0211896Y0102040D01*
X0211926Y0102386D01*
X0211964Y0102731D01*
X0212011Y0103075D01*
X0212066Y0103418D01*
X0212130Y0103759D01*
X0212202Y0104099D01*
X0212282Y0104436D01*
X0212370Y0104772D01*
X0212467Y0105105D01*
X0212572Y0105436D01*
X0212685Y0105764D01*
X0212806Y0106090D01*
X0212934Y0106412D01*
X0213071Y0106731D01*
X0213216Y0107046D01*
X0213368Y0107358D01*
X0213528Y0107666D01*
X0213695Y0107971D01*
X0213870Y0108270D01*
X0214052Y0108566D01*
X0214241Y0108857D01*
X0214438Y0109143D01*
X0214641Y0109424D01*
X0214851Y0109701D01*
X0215068Y0109972D01*
X0215292Y0110237D01*
X0215521Y0110497D01*
X0215758Y0110751D01*
X0216000Y0111000D01*
X0216249Y0111242D01*
X0216503Y0111479D01*
X0216763Y0111708D01*
X0217028Y0111932D01*
X0217299Y0112149D01*
X0217576Y0112359D01*
X0217857Y0112562D01*
X0218143Y0112759D01*
X0218434Y0112948D01*
X0218730Y0113130D01*
X0219029Y0113305D01*
X0219334Y0113472D01*
X0219642Y0113632D01*
X0219954Y0113784D01*
X0220269Y0113929D01*
X0220588Y0114066D01*
X0220910Y0114194D01*
X0221236Y0114315D01*
X0221564Y0114428D01*
X0221895Y0114533D01*
X0222228Y0114630D01*
X0222564Y0114718D01*
X0222901Y0114798D01*
X0223241Y0114870D01*
X0223582Y0114934D01*
X0223925Y0114989D01*
X0224269Y0115036D01*
X0224614Y0115074D01*
X0224960Y0115104D01*
X0225306Y0115125D01*
X0225653Y0115138D01*
X0226000Y0115142D01*
X0226347Y0115138D01*
X0226694Y0115125D01*
X0227040Y0115104D01*
X0227386Y0115074D01*
X0227731Y0115036D01*
X0228075Y0114989D01*
X0228418Y0114934D01*
X0228759Y0114870D01*
X0229099Y0114798D01*
X0229436Y0114718D01*
X0229772Y0114630D01*
X0230105Y0114533D01*
X0230436Y0114428D01*
X0230764Y0114315D01*
X0231090Y0114194D01*
X0231412Y0114066D01*
X0231731Y0113929D01*
X0232046Y0113784D01*
X0232358Y0113632D01*
X0232666Y0113472D01*
X0232971Y0113305D01*
X0233270Y0113130D01*
X0233566Y0112948D01*
X0233857Y0112759D01*
X0234143Y0112562D01*
X0234424Y0112359D01*
X0234701Y0112149D01*
X0234972Y0111932D01*
X0235237Y0111708D01*
X0235497Y0111479D01*
X0235751Y0111242D01*
X0236000Y0111000D01*
X0236242Y0110751D01*
X0236479Y0110497D01*
X0236708Y0110237D01*
X0236932Y0109972D01*
X0237149Y0109701D01*
X0237359Y0109424D01*
X0237562Y0109143D01*
X0237759Y0108857D01*
X0237948Y0108566D01*
X0238130Y0108270D01*
X0238305Y0107971D01*
X0238472Y0107666D01*
X0238632Y0107358D01*
X0238784Y0107046D01*
X0238929Y0106731D01*
X0239066Y0106412D01*
X0239194Y0106090D01*
X0239315Y0105764D01*
X0239428Y0105436D01*
X0239533Y0105105D01*
X0239630Y0104772D01*
X0239718Y0104436D01*
X0239798Y0104099D01*
X0239870Y0103759D01*
X0239934Y0103418D01*
X0239989Y0103075D01*
X0240036Y0102731D01*
X0240074Y0102386D01*
X0240104Y0102040D01*
X0240125Y0101694D01*
X0240138Y0101347D01*
X0240142Y0101000D01*
X0240138Y0100653D01*
X0240125Y0100306D01*
X0240104Y0099960D01*
X0240074Y0099614D01*
X0240036Y0099269D01*
X0239989Y0098925D01*
X0239934Y0098582D01*
X0239870Y0098241D01*
X0239798Y0097901D01*
X0239718Y0097564D01*
X0239630Y0097228D01*
X0239533Y0096895D01*
X0239428Y0096564D01*
X0239315Y0096236D01*
X0239194Y0095910D01*
X0239066Y0095588D01*
X0238929Y0095269D01*
X0238784Y0094954D01*
X0238632Y0094642D01*
X0238472Y0094334D01*
X0238305Y0094029D01*
X0238130Y0093730D01*
X0237948Y0093434D01*
X0237759Y0093143D01*
X0237562Y0092857D01*
X0237359Y0092576D01*
X0237149Y0092299D01*
X0236932Y0092028D01*
X0236708Y0091763D01*
X0236479Y0091503D01*
X0236242Y0091249D01*
X0236000Y0091000D01*
X0235751Y0090758D01*
X0235497Y0090521D01*
X0235237Y0090292D01*
X0234972Y0090068D01*
X0234701Y0089851D01*
X0234424Y0089641D01*
X0234143Y0089438D01*
X0233857Y0089241D01*
X0233566Y0089052D01*
X0233270Y0088870D01*
X0232971Y0088695D01*
X0232666Y0088528D01*
X0232358Y0088368D01*
X0232046Y0088216D01*
X0231731Y0088071D01*
X0231412Y0087934D01*
X0231090Y0087806D01*
X0230764Y0087685D01*
X0230436Y0087572D01*
X0230105Y0087467D01*
X0229772Y0087370D01*
X0229436Y0087282D01*
X0229099Y0087202D01*
X0228759Y0087130D01*
X0228418Y0087066D01*
X0228075Y0087011D01*
X0227731Y0086964D01*
X0227386Y0086926D01*
X0227040Y0086896D01*
X0226694Y0086875D01*
X0226347Y0086862D01*
X0226000Y0086858D01*
X0225653Y0086862D01*
X0225306Y0086875D01*
X0224960Y0086896D01*
X0224614Y0086926D01*
X0224269Y0086964D01*
X0223925Y0087011D01*
X0223582Y0087066D01*
X0223241Y0087130D01*
X0222901Y0087202D01*
X0222564Y0087282D01*
X0222228Y0087370D01*
X0221895Y0087467D01*
X0221564Y0087572D01*
X0221236Y0087685D01*
X0220910Y0087806D01*
X0220588Y0087934D01*
X0220269Y0088071D01*
X0219954Y0088216D01*
X0219642Y0088368D01*
X0219334Y0088528D01*
X0219029Y0088695D01*
X0218730Y0088870D01*
X0218434Y0089052D01*
X0218143Y0089241D01*
X0217857Y0089438D01*
X0217576Y0089641D01*
X0217299Y0089851D01*
X0217028Y0090068D01*
X0216763Y0090292D01*
X0216503Y0090521D01*
X0216249Y0090758D01*
X0216000Y0091000D01*
X0215758Y0091249D01*
X0215521Y0091503D01*
X0215292Y0091763D01*
X0215068Y0092028D01*
X0214851Y0092299D01*
X0214641Y0092576D01*
X0214438Y0092857D01*
X0214241Y0093143D01*
X0214052Y0093434D01*
X0213870Y0093730D01*
X0213695Y0094029D01*
X0213528Y0094334D01*
X0213368Y0094642D01*
X0213216Y0094954D01*
X0213071Y0095269D01*
X0212934Y0095588D01*
X0212806Y0095910D01*
X0212685Y0096236D01*
X0212572Y0096564D01*
X0212467Y0096895D01*
X0212370Y0097228D01*
X0212282Y0097564D01*
X0212202Y0097901D01*
X0212130Y0098241D01*
X0212066Y0098582D01*
X0212011Y0098925D01*
X0211964Y0099269D01*
X0211926Y0099614D01*
X0211896Y0099960D01*
X0211875Y0100306D01*
X0211862Y0100653D01*
X0211858Y0101000D01*
X0216858Y0181000D02*
X0216862Y0181347D01*
X0216875Y0181694D01*
X0216896Y0182040D01*
X0216926Y0182386D01*
X0216964Y0182731D01*
X0217011Y0183075D01*
X0217066Y0183418D01*
X0217130Y0183759D01*
X0217202Y0184099D01*
X0217282Y0184436D01*
X0217370Y0184772D01*
X0217467Y0185105D01*
X0217572Y0185436D01*
X0217685Y0185764D01*
X0217806Y0186090D01*
X0217934Y0186412D01*
X0218071Y0186731D01*
X0218216Y0187046D01*
X0218368Y0187358D01*
X0218528Y0187666D01*
X0218695Y0187971D01*
X0218870Y0188270D01*
X0219052Y0188566D01*
X0219241Y0188857D01*
X0219438Y0189143D01*
X0219641Y0189424D01*
X0219851Y0189701D01*
X0220068Y0189972D01*
X0220292Y0190237D01*
X0220521Y0190497D01*
X0220758Y0190751D01*
X0221000Y0191000D01*
X0221249Y0191242D01*
X0221503Y0191479D01*
X0221763Y0191708D01*
X0222028Y0191932D01*
X0222299Y0192149D01*
X0222576Y0192359D01*
X0222857Y0192562D01*
X0223143Y0192759D01*
X0223434Y0192948D01*
X0223730Y0193130D01*
X0224029Y0193305D01*
X0224334Y0193472D01*
X0224642Y0193632D01*
X0224954Y0193784D01*
X0225269Y0193929D01*
X0225588Y0194066D01*
X0225910Y0194194D01*
X0226236Y0194315D01*
X0226564Y0194428D01*
X0226895Y0194533D01*
X0227228Y0194630D01*
X0227564Y0194718D01*
X0227901Y0194798D01*
X0228241Y0194870D01*
X0228582Y0194934D01*
X0228925Y0194989D01*
X0229269Y0195036D01*
X0229614Y0195074D01*
X0229960Y0195104D01*
X0230306Y0195125D01*
X0230653Y0195138D01*
X0231000Y0195142D01*
X0231347Y0195138D01*
X0231694Y0195125D01*
X0232040Y0195104D01*
X0232386Y0195074D01*
X0232731Y0195036D01*
X0233075Y0194989D01*
X0233418Y0194934D01*
X0233759Y0194870D01*
X0234099Y0194798D01*
X0234436Y0194718D01*
X0234772Y0194630D01*
X0235105Y0194533D01*
X0235436Y0194428D01*
X0235764Y0194315D01*
X0236090Y0194194D01*
X0236412Y0194066D01*
X0236731Y0193929D01*
X0237046Y0193784D01*
X0237358Y0193632D01*
X0237666Y0193472D01*
X0237971Y0193305D01*
X0238270Y0193130D01*
X0238566Y0192948D01*
X0238857Y0192759D01*
X0239143Y0192562D01*
X0239424Y0192359D01*
X0239701Y0192149D01*
X0239972Y0191932D01*
X0240237Y0191708D01*
X0240497Y0191479D01*
X0240751Y0191242D01*
X0241000Y0191000D01*
X0241242Y0190751D01*
X0241479Y0190497D01*
X0241708Y0190237D01*
X0241932Y0189972D01*
X0242149Y0189701D01*
X0242359Y0189424D01*
X0242562Y0189143D01*
X0242759Y0188857D01*
X0242948Y0188566D01*
X0243130Y0188270D01*
X0243305Y0187971D01*
X0243472Y0187666D01*
X0243632Y0187358D01*
X0243784Y0187046D01*
X0243929Y0186731D01*
X0244066Y0186412D01*
X0244194Y0186090D01*
X0244315Y0185764D01*
X0244428Y0185436D01*
X0244533Y0185105D01*
X0244630Y0184772D01*
X0244718Y0184436D01*
X0244798Y0184099D01*
X0244870Y0183759D01*
X0244934Y0183418D01*
X0244989Y0183075D01*
X0245036Y0182731D01*
X0245074Y0182386D01*
X0245104Y0182040D01*
X0245125Y0181694D01*
X0245138Y0181347D01*
X0245142Y0181000D01*
X0245138Y0180653D01*
X0245125Y0180306D01*
X0245104Y0179960D01*
X0245074Y0179614D01*
X0245036Y0179269D01*
X0244989Y0178925D01*
X0244934Y0178582D01*
X0244870Y0178241D01*
X0244798Y0177901D01*
X0244718Y0177564D01*
X0244630Y0177228D01*
X0244533Y0176895D01*
X0244428Y0176564D01*
X0244315Y0176236D01*
X0244194Y0175910D01*
X0244066Y0175588D01*
X0243929Y0175269D01*
X0243784Y0174954D01*
X0243632Y0174642D01*
X0243472Y0174334D01*
X0243305Y0174029D01*
X0243130Y0173730D01*
X0242948Y0173434D01*
X0242759Y0173143D01*
X0242562Y0172857D01*
X0242359Y0172576D01*
X0242149Y0172299D01*
X0241932Y0172028D01*
X0241708Y0171763D01*
X0241479Y0171503D01*
X0241242Y0171249D01*
X0241000Y0171000D01*
X0240751Y0170758D01*
X0240497Y0170521D01*
X0240237Y0170292D01*
X0239972Y0170068D01*
X0239701Y0169851D01*
X0239424Y0169641D01*
X0239143Y0169438D01*
X0238857Y0169241D01*
X0238566Y0169052D01*
X0238270Y0168870D01*
X0237971Y0168695D01*
X0237666Y0168528D01*
X0237358Y0168368D01*
X0237046Y0168216D01*
X0236731Y0168071D01*
X0236412Y0167934D01*
X0236090Y0167806D01*
X0235764Y0167685D01*
X0235436Y0167572D01*
X0235105Y0167467D01*
X0234772Y0167370D01*
X0234436Y0167282D01*
X0234099Y0167202D01*
X0233759Y0167130D01*
X0233418Y0167066D01*
X0233075Y0167011D01*
X0232731Y0166964D01*
X0232386Y0166926D01*
X0232040Y0166896D01*
X0231694Y0166875D01*
X0231347Y0166862D01*
X0231000Y0166858D01*
X0230653Y0166862D01*
X0230306Y0166875D01*
X0229960Y0166896D01*
X0229614Y0166926D01*
X0229269Y0166964D01*
X0228925Y0167011D01*
X0228582Y0167066D01*
X0228241Y0167130D01*
X0227901Y0167202D01*
X0227564Y0167282D01*
X0227228Y0167370D01*
X0226895Y0167467D01*
X0226564Y0167572D01*
X0226236Y0167685D01*
X0225910Y0167806D01*
X0225588Y0167934D01*
X0225269Y0168071D01*
X0224954Y0168216D01*
X0224642Y0168368D01*
X0224334Y0168528D01*
X0224029Y0168695D01*
X0223730Y0168870D01*
X0223434Y0169052D01*
X0223143Y0169241D01*
X0222857Y0169438D01*
X0222576Y0169641D01*
X0222299Y0169851D01*
X0222028Y0170068D01*
X0221763Y0170292D01*
X0221503Y0170521D01*
X0221249Y0170758D01*
X0221000Y0171000D01*
X0220758Y0171249D01*
X0220521Y0171503D01*
X0220292Y0171763D01*
X0220068Y0172028D01*
X0219851Y0172299D01*
X0219641Y0172576D01*
X0219438Y0172857D01*
X0219241Y0173143D01*
X0219052Y0173434D01*
X0218870Y0173730D01*
X0218695Y0174029D01*
X0218528Y0174334D01*
X0218368Y0174642D01*
X0218216Y0174954D01*
X0218071Y0175269D01*
X0217934Y0175588D01*
X0217806Y0175910D01*
X0217685Y0176236D01*
X0217572Y0176564D01*
X0217467Y0176895D01*
X0217370Y0177228D01*
X0217282Y0177564D01*
X0217202Y0177901D01*
X0217130Y0178241D01*
X0217066Y0178582D01*
X0217011Y0178925D01*
X0216964Y0179269D01*
X0216926Y0179614D01*
X0216896Y0179960D01*
X0216875Y0180306D01*
X0216862Y0180653D01*
X0216858Y0181000D01*
D12*
X0216967Y0175804D02*
X0216200Y0175037D01*
X0216200Y0174269D01*
X0216967Y0173502D01*
X0218502Y0173502D01*
X0219269Y0172735D01*
X0219269Y0171967D01*
X0218502Y0171200D01*
X0216967Y0171200D01*
X0216200Y0171967D01*
X0219269Y0175037D02*
X0218502Y0175804D01*
X0216967Y0175804D01*
X0220804Y0175037D02*
X0221571Y0175804D01*
X0223106Y0175804D01*
X0223873Y0175037D01*
X0223873Y0171967D01*
X0223106Y0171200D01*
X0221571Y0171200D01*
X0220804Y0171967D01*
X0220804Y0175037D01*
X0222339Y0172735D02*
X0223873Y0171200D01*
X0225408Y0171200D02*
X0228477Y0174269D01*
X0228477Y0175037D01*
X0227710Y0175804D01*
X0226175Y0175804D01*
X0225408Y0175037D01*
X0225408Y0171200D02*
X0228477Y0171200D01*
X0158477Y0171200D02*
X0155408Y0171200D01*
X0158477Y0174269D01*
X0158477Y0175037D01*
X0157710Y0175804D01*
X0156175Y0175804D01*
X0155408Y0175037D01*
X0153873Y0175804D02*
X0153873Y0171200D01*
X0152339Y0172735D01*
X0150804Y0171200D01*
X0150804Y0175804D01*
X0149269Y0175037D02*
X0148502Y0175804D01*
X0146967Y0175804D01*
X0146200Y0175037D01*
X0146200Y0174269D01*
X0146967Y0173502D01*
X0148502Y0173502D01*
X0149269Y0172735D01*
X0149269Y0171967D01*
X0148502Y0171200D01*
X0146967Y0171200D01*
X0146200Y0171967D01*
X0088477Y0171200D02*
X0085408Y0171200D01*
X0086942Y0171200D02*
X0086942Y0175804D01*
X0085408Y0174269D01*
X0083873Y0175037D02*
X0083873Y0171967D01*
X0083106Y0171200D01*
X0081571Y0171200D01*
X0080804Y0171967D01*
X0080804Y0175037D01*
X0081571Y0175804D01*
X0083106Y0175804D01*
X0083873Y0175037D01*
X0082339Y0172735D02*
X0083873Y0171200D01*
X0079269Y0171967D02*
X0078502Y0171200D01*
X0076967Y0171200D01*
X0076200Y0171967D01*
X0076967Y0173502D02*
X0078502Y0173502D01*
X0079269Y0172735D01*
X0079269Y0171967D01*
X0076967Y0173502D02*
X0076200Y0174269D01*
X0076200Y0175037D01*
X0076967Y0175804D01*
X0078502Y0175804D01*
X0079269Y0175037D01*
X0018477Y0171200D02*
X0015408Y0171200D01*
X0016942Y0171200D02*
X0016942Y0175804D01*
X0015408Y0174269D01*
X0013873Y0175804D02*
X0013873Y0171200D01*
X0012339Y0172735D01*
X0010804Y0171200D01*
X0010804Y0175804D01*
X0009269Y0175037D02*
X0008502Y0175804D01*
X0006967Y0175804D01*
X0006200Y0175037D01*
X0006200Y0174269D01*
X0006967Y0173502D01*
X0008502Y0173502D01*
X0009269Y0172735D01*
X0009269Y0171967D01*
X0008502Y0171200D01*
X0006967Y0171200D01*
X0006200Y0171967D01*
X0011200Y0105804D02*
X0014269Y0105804D01*
X0012735Y0105804D02*
X0012735Y0101200D01*
X0015804Y0101200D02*
X0015804Y0105804D01*
X0018873Y0101200D01*
X0018873Y0105804D01*
X0020408Y0105804D02*
X0020408Y0101200D01*
X0023477Y0101200D01*
X0025012Y0101200D02*
X0028081Y0104269D01*
X0028081Y0105037D01*
X0027314Y0105804D01*
X0025779Y0105804D01*
X0025012Y0105037D01*
X0023477Y0105804D02*
X0020408Y0105804D01*
X0020408Y0103502D02*
X0021942Y0103502D01*
X0025012Y0101200D02*
X0028081Y0101200D01*
X0051200Y0101200D02*
X0054269Y0101200D01*
X0055804Y0101200D02*
X0058873Y0105804D01*
X0060408Y0105804D02*
X0062710Y0105804D01*
X0063477Y0105037D01*
X0063477Y0103502D01*
X0062710Y0102735D01*
X0060408Y0102735D01*
X0060408Y0101200D02*
X0060408Y0105804D01*
X0055804Y0105804D02*
X0058873Y0101200D01*
X0065012Y0101200D02*
X0068081Y0104269D01*
X0068081Y0105037D01*
X0067314Y0105804D01*
X0065779Y0105804D01*
X0065012Y0105037D01*
X0065012Y0101200D02*
X0068081Y0101200D01*
X0054269Y0105804D02*
X0051200Y0105804D01*
X0051200Y0101200D01*
X0051200Y0103502D02*
X0052735Y0103502D01*
X0091200Y0102735D02*
X0093502Y0102735D01*
X0094269Y0103502D01*
X0094269Y0105037D01*
X0093502Y0105804D01*
X0091200Y0105804D01*
X0091200Y0101200D01*
X0095804Y0101200D02*
X0095804Y0105804D01*
X0098873Y0105804D02*
X0098873Y0101200D01*
X0097339Y0102735D01*
X0095804Y0101200D01*
X0100408Y0101200D02*
X0100408Y0105804D01*
X0101942Y0104269D01*
X0103477Y0105804D01*
X0103477Y0101200D01*
X0105012Y0101200D02*
X0108081Y0104269D01*
X0108081Y0105037D01*
X0107314Y0105804D01*
X0105779Y0105804D01*
X0105012Y0105037D01*
X0105012Y0101200D02*
X0108081Y0101200D01*
X0106546Y0065804D02*
X0106546Y0061200D01*
X0105012Y0061200D02*
X0108081Y0061200D01*
X0105012Y0064269D02*
X0106546Y0065804D01*
X0103477Y0065804D02*
X0101942Y0064269D01*
X0100408Y0065804D01*
X0100408Y0061200D01*
X0098873Y0061200D02*
X0098873Y0065804D01*
X0095804Y0065804D02*
X0095804Y0061200D01*
X0097339Y0062735D01*
X0098873Y0061200D01*
X0094269Y0063502D02*
X0093502Y0062735D01*
X0091200Y0062735D01*
X0091200Y0061200D02*
X0091200Y0065804D01*
X0093502Y0065804D01*
X0094269Y0065037D01*
X0094269Y0063502D01*
X0103477Y0065804D02*
X0103477Y0061200D01*
X0068081Y0061200D02*
X0065012Y0061200D01*
X0066546Y0061200D02*
X0066546Y0065804D01*
X0065012Y0064269D01*
X0063477Y0063502D02*
X0062710Y0062735D01*
X0060408Y0062735D01*
X0060408Y0061200D02*
X0060408Y0065804D01*
X0062710Y0065804D01*
X0063477Y0065037D01*
X0063477Y0063502D01*
X0058873Y0065804D02*
X0055804Y0061200D01*
X0054269Y0061200D02*
X0051200Y0061200D01*
X0051200Y0065804D01*
X0054269Y0065804D01*
X0055804Y0065804D02*
X0058873Y0061200D01*
X0052735Y0063502D02*
X0051200Y0063502D01*
X0028081Y0061200D02*
X0025012Y0061200D01*
X0026546Y0061200D02*
X0026546Y0065804D01*
X0025012Y0064269D01*
X0023477Y0065804D02*
X0020408Y0065804D01*
X0020408Y0061200D01*
X0023477Y0061200D01*
X0021942Y0063502D02*
X0020408Y0063502D01*
X0018873Y0061200D02*
X0018873Y0065804D01*
X0015804Y0065804D02*
X0018873Y0061200D01*
X0015804Y0061200D02*
X0015804Y0065804D01*
X0014269Y0065804D02*
X0011200Y0065804D01*
X0012735Y0065804D02*
X0012735Y0061200D01*
X0161200Y0052537D02*
X0161200Y0049467D01*
X0161967Y0048700D01*
X0163502Y0048700D01*
X0164269Y0049467D01*
X0164269Y0051002D01*
X0162735Y0051002D01*
X0164269Y0052537D02*
X0163502Y0053304D01*
X0161967Y0053304D01*
X0161200Y0052537D01*
X0165804Y0053304D02*
X0165804Y0048700D01*
X0168873Y0048700D02*
X0168873Y0053304D01*
X0170408Y0053304D02*
X0172710Y0053304D01*
X0173477Y0052537D01*
X0173477Y0049467D01*
X0172710Y0048700D01*
X0170408Y0048700D01*
X0170408Y0053304D01*
X0165804Y0053304D02*
X0168873Y0048700D01*
X0183700Y0054467D02*
X0184467Y0053700D01*
X0185235Y0053700D01*
X0186002Y0054467D01*
X0186002Y0058304D01*
X0185235Y0058304D02*
X0186769Y0058304D01*
X0188304Y0056769D02*
X0189839Y0058304D01*
X0189839Y0053700D01*
X0191373Y0053700D02*
X0188304Y0053700D01*
X0196200Y0053304D02*
X0196200Y0048700D01*
X0196200Y0051002D02*
X0199269Y0051002D01*
X0200804Y0052537D02*
X0200804Y0049467D01*
X0201571Y0048700D01*
X0203106Y0048700D01*
X0203873Y0049467D01*
X0203873Y0052537D01*
X0203106Y0053304D01*
X0201571Y0053304D01*
X0200804Y0052537D01*
X0201200Y0052537D02*
X0201200Y0049467D01*
X0201967Y0048700D01*
X0203502Y0048700D01*
X0204269Y0049467D01*
X0204269Y0051002D01*
X0202735Y0051002D01*
X0204269Y0052537D02*
X0203502Y0053304D01*
X0201967Y0053304D01*
X0201200Y0052537D01*
X0199269Y0053304D02*
X0199269Y0048700D01*
X0205804Y0048700D02*
X0205804Y0053304D01*
X0208873Y0048700D01*
X0208873Y0053304D01*
X0208477Y0053304D02*
X0205408Y0053304D01*
X0206942Y0053304D02*
X0206942Y0048700D01*
X0210408Y0048700D02*
X0212710Y0048700D01*
X0213477Y0049467D01*
X0213477Y0052537D01*
X0212710Y0053304D01*
X0210408Y0053304D01*
X0210408Y0048700D01*
X0223700Y0054467D02*
X0224467Y0053700D01*
X0225235Y0053700D01*
X0226002Y0054467D01*
X0226002Y0058304D01*
X0225235Y0058304D02*
X0226769Y0058304D01*
X0228304Y0057537D02*
X0229071Y0058304D01*
X0230606Y0058304D01*
X0231373Y0057537D01*
X0231373Y0056769D01*
X0228304Y0053700D01*
X0231373Y0053700D01*
X0236200Y0053304D02*
X0236200Y0048700D01*
X0236200Y0051002D02*
X0239269Y0051002D01*
X0240804Y0052537D02*
X0240804Y0049467D01*
X0241571Y0048700D01*
X0243106Y0048700D01*
X0243873Y0049467D01*
X0243873Y0052537D01*
X0243106Y0053304D01*
X0241571Y0053304D01*
X0240804Y0052537D01*
X0239269Y0053304D02*
X0239269Y0048700D01*
X0245408Y0053304D02*
X0248477Y0053304D01*
X0246942Y0053304D02*
X0246942Y0048700D01*
X0242462Y0030804D02*
X0242462Y0026200D01*
X0240927Y0026200D02*
X0243997Y0026200D01*
X0240927Y0029269D02*
X0242462Y0030804D01*
X0239393Y0030804D02*
X0236324Y0030804D01*
X0237858Y0030804D02*
X0237858Y0026200D01*
X0234789Y0026967D02*
X0234789Y0030804D01*
X0231720Y0030804D02*
X0231720Y0026967D01*
X0232487Y0026200D01*
X0234022Y0026200D01*
X0234789Y0026967D01*
X0230185Y0026967D02*
X0230185Y0030037D01*
X0229418Y0030804D01*
X0227883Y0030804D01*
X0227116Y0030037D01*
X0227116Y0026967D01*
X0227883Y0026200D01*
X0229418Y0026200D01*
X0230185Y0026967D01*
X0220977Y0026967D02*
X0220210Y0026200D01*
X0218675Y0026200D01*
X0217908Y0026967D01*
X0217908Y0030037D01*
X0218675Y0030804D01*
X0220210Y0030804D01*
X0220977Y0030037D01*
X0216373Y0030037D02*
X0215606Y0030804D01*
X0214071Y0030804D01*
X0213304Y0030037D01*
X0213304Y0029269D01*
X0214071Y0028502D01*
X0215606Y0028502D01*
X0216373Y0027735D01*
X0216373Y0026967D01*
X0215606Y0026200D01*
X0214071Y0026200D01*
X0213304Y0026967D01*
X0211769Y0026967D02*
X0211769Y0030037D01*
X0211002Y0030804D01*
X0209467Y0030804D01*
X0208700Y0030037D01*
X0208700Y0026967D01*
X0209467Y0026200D01*
X0211002Y0026200D01*
X0211769Y0026967D01*
X0225235Y0018304D02*
X0226769Y0018304D01*
X0226002Y0018304D02*
X0226002Y0014467D01*
X0225235Y0013700D01*
X0224467Y0013700D01*
X0223700Y0014467D01*
X0228304Y0016002D02*
X0231373Y0016002D01*
X0230606Y0018304D02*
X0228304Y0016002D01*
X0230606Y0013700D02*
X0230606Y0018304D01*
X0236200Y0013304D02*
X0236200Y0008700D01*
X0236200Y0011002D02*
X0239269Y0011002D01*
X0240804Y0012537D02*
X0240804Y0009467D01*
X0241571Y0008700D01*
X0243106Y0008700D01*
X0243873Y0009467D01*
X0243873Y0012537D01*
X0243106Y0013304D01*
X0241571Y0013304D01*
X0240804Y0012537D01*
X0239269Y0013304D02*
X0239269Y0008700D01*
X0245408Y0013304D02*
X0248477Y0013304D01*
X0246942Y0013304D02*
X0246942Y0008700D01*
X0213477Y0009467D02*
X0213477Y0012537D01*
X0212710Y0013304D01*
X0210408Y0013304D01*
X0210408Y0008700D01*
X0212710Y0008700D01*
X0213477Y0009467D01*
X0208873Y0008700D02*
X0208873Y0013304D01*
X0205804Y0013304D02*
X0208873Y0008700D01*
X0205804Y0008700D02*
X0205804Y0013304D01*
X0204269Y0012537D02*
X0203502Y0013304D01*
X0201967Y0013304D01*
X0201200Y0012537D01*
X0201200Y0009467D01*
X0201967Y0008700D01*
X0203502Y0008700D01*
X0204269Y0009467D01*
X0204269Y0011002D01*
X0202735Y0011002D01*
X0202858Y0066200D02*
X0199789Y0066200D01*
X0201324Y0066200D02*
X0201324Y0070804D01*
X0199789Y0069269D01*
X0198254Y0070804D02*
X0198254Y0066200D01*
X0195185Y0070804D01*
X0195185Y0066200D01*
X0193650Y0066200D02*
X0192116Y0066200D01*
X0192883Y0066200D02*
X0192883Y0070804D01*
X0192116Y0070804D02*
X0193650Y0070804D01*
X0185977Y0070804D02*
X0185977Y0066200D01*
X0182908Y0066200D02*
X0182908Y0070804D01*
X0184442Y0069269D01*
X0185977Y0070804D01*
X0181373Y0070804D02*
X0181373Y0066200D01*
X0179839Y0067735D01*
X0178304Y0066200D01*
X0178304Y0070804D01*
X0176769Y0070037D02*
X0176769Y0068502D01*
X0176002Y0067735D01*
X0173700Y0067735D01*
X0173700Y0066200D02*
X0173700Y0070804D01*
X0176002Y0070804D01*
X0176769Y0070037D01*
X0172710Y0088700D02*
X0170408Y0088700D01*
X0170408Y0093304D01*
X0172710Y0093304D01*
X0173477Y0092537D01*
X0173477Y0089467D01*
X0172710Y0088700D01*
X0168873Y0088700D02*
X0168873Y0093304D01*
X0165804Y0093304D02*
X0168873Y0088700D01*
X0165804Y0088700D02*
X0165804Y0093304D01*
X0164269Y0092537D02*
X0163502Y0093304D01*
X0161967Y0093304D01*
X0161200Y0092537D01*
X0161200Y0089467D01*
X0161967Y0088700D01*
X0163502Y0088700D01*
X0164269Y0089467D01*
X0164269Y0091002D01*
X0162735Y0091002D01*
X0178700Y0106967D02*
X0179467Y0106200D01*
X0181002Y0106200D01*
X0181769Y0106967D01*
X0183304Y0107735D02*
X0184839Y0106200D01*
X0186373Y0107735D01*
X0186373Y0110804D01*
X0183304Y0110804D02*
X0183304Y0107735D01*
X0181769Y0110037D02*
X0181002Y0110804D01*
X0179467Y0110804D01*
X0178700Y0110037D01*
X0178700Y0106967D01*
X0187908Y0106967D02*
X0187908Y0106200D01*
X0188675Y0106200D01*
X0188675Y0106967D01*
X0187908Y0106967D01*
X0190210Y0106200D02*
X0191744Y0106200D01*
X0190977Y0106200D02*
X0190977Y0110804D01*
X0190210Y0110804D02*
X0191744Y0110804D01*
X0193279Y0110804D02*
X0196348Y0106200D01*
X0196348Y0110804D01*
X0193279Y0110804D02*
X0193279Y0106200D01*
X0191373Y0098304D02*
X0188304Y0098304D01*
X0188304Y0096002D01*
X0189839Y0096769D01*
X0190606Y0096769D01*
X0191373Y0096002D01*
X0191373Y0094467D01*
X0190606Y0093700D01*
X0189071Y0093700D01*
X0188304Y0094467D01*
X0186002Y0094467D02*
X0186002Y0098304D01*
X0185235Y0098304D02*
X0186769Y0098304D01*
X0186002Y0094467D02*
X0185235Y0093700D01*
X0184467Y0093700D01*
X0183700Y0094467D01*
X0196200Y0093304D02*
X0196200Y0088700D01*
X0196200Y0091002D02*
X0199269Y0091002D01*
X0200804Y0092537D02*
X0200804Y0089467D01*
X0201571Y0088700D01*
X0203106Y0088700D01*
X0203873Y0089467D01*
X0203873Y0092537D01*
X0203106Y0093304D01*
X0201571Y0093304D01*
X0200804Y0092537D01*
X0201200Y0092537D02*
X0201200Y0089467D01*
X0201967Y0088700D01*
X0203502Y0088700D01*
X0204269Y0089467D01*
X0204269Y0091002D01*
X0202735Y0091002D01*
X0204269Y0092537D02*
X0203502Y0093304D01*
X0201967Y0093304D01*
X0201200Y0092537D01*
X0199269Y0093304D02*
X0199269Y0088700D01*
X0205408Y0093304D02*
X0208477Y0093304D01*
X0208873Y0093304D02*
X0208873Y0088700D01*
X0205804Y0093304D01*
X0205804Y0088700D01*
X0206942Y0088700D02*
X0206942Y0093304D01*
X0210408Y0093304D02*
X0212710Y0093304D01*
X0213477Y0092537D01*
X0213477Y0089467D01*
X0212710Y0088700D01*
X0210408Y0088700D01*
X0210408Y0093304D01*
X0213700Y0106200D02*
X0216769Y0106200D01*
X0218304Y0106200D02*
X0221373Y0110804D01*
X0222908Y0110804D02*
X0225210Y0110804D01*
X0225977Y0110037D01*
X0225977Y0108502D01*
X0225210Y0107735D01*
X0222908Y0107735D01*
X0222908Y0106200D02*
X0222908Y0110804D01*
X0218304Y0110804D02*
X0221373Y0106200D01*
X0227512Y0106200D02*
X0228279Y0106200D01*
X0228279Y0106967D01*
X0227512Y0106967D01*
X0227512Y0106200D01*
X0229814Y0106200D02*
X0231348Y0106200D01*
X0230581Y0106200D02*
X0230581Y0110804D01*
X0229814Y0110804D02*
X0231348Y0110804D01*
X0232883Y0110804D02*
X0235952Y0106200D01*
X0235952Y0110804D01*
X0237487Y0110037D02*
X0238254Y0110804D01*
X0239789Y0110804D01*
X0240556Y0110037D01*
X0240556Y0109269D01*
X0237487Y0106200D01*
X0240556Y0106200D01*
X0232883Y0106200D02*
X0232883Y0110804D01*
X0216769Y0110804D02*
X0213700Y0110804D01*
X0213700Y0106200D01*
X0213700Y0108502D02*
X0215235Y0108502D01*
X0225235Y0098304D02*
X0226769Y0098304D01*
X0226002Y0098304D02*
X0226002Y0094467D01*
X0225235Y0093700D01*
X0224467Y0093700D01*
X0223700Y0094467D01*
X0228304Y0094467D02*
X0229071Y0093700D01*
X0230606Y0093700D01*
X0231373Y0094467D01*
X0231373Y0095235D01*
X0230606Y0096002D01*
X0229839Y0096002D01*
X0230606Y0096002D02*
X0231373Y0096769D01*
X0231373Y0097537D01*
X0230606Y0098304D01*
X0229071Y0098304D01*
X0228304Y0097537D01*
X0236200Y0093304D02*
X0236200Y0088700D01*
X0236200Y0091002D02*
X0239269Y0091002D01*
X0240804Y0092537D02*
X0240804Y0089467D01*
X0241571Y0088700D01*
X0243106Y0088700D01*
X0243873Y0089467D01*
X0243873Y0092537D01*
X0243106Y0093304D01*
X0241571Y0093304D01*
X0240804Y0092537D01*
X0239269Y0093304D02*
X0239269Y0088700D01*
X0245408Y0093304D02*
X0248477Y0093304D01*
X0246942Y0093304D02*
X0246942Y0088700D01*
X0239022Y0070804D02*
X0237487Y0069269D01*
X0239022Y0070804D02*
X0239022Y0066200D01*
X0240556Y0066200D02*
X0237487Y0066200D01*
X0235952Y0066200D02*
X0235952Y0070804D01*
X0232883Y0070804D02*
X0235952Y0066200D01*
X0232883Y0066200D02*
X0232883Y0070804D01*
X0231348Y0070804D02*
X0229814Y0070804D01*
X0230581Y0070804D02*
X0230581Y0066200D01*
X0229814Y0066200D02*
X0231348Y0066200D01*
X0228279Y0066200D02*
X0227512Y0066200D01*
X0227512Y0066967D01*
X0228279Y0066967D01*
X0228279Y0066200D01*
X0225977Y0068502D02*
X0225210Y0067735D01*
X0222908Y0067735D01*
X0222908Y0066200D02*
X0222908Y0070804D01*
X0225210Y0070804D01*
X0225977Y0070037D01*
X0225977Y0068502D01*
X0221373Y0070804D02*
X0218304Y0066200D01*
X0216769Y0066200D02*
X0213700Y0066200D01*
X0213700Y0070804D01*
X0216769Y0070804D01*
X0218304Y0070804D02*
X0221373Y0066200D01*
X0215235Y0068502D02*
X0213700Y0068502D01*
D13*
X0197000Y0027000D02*
X0194500Y0027000D01*
X0194000Y0026500D01*
X0168000Y0026500D01*
X0167500Y0027000D01*
X0165000Y0027000D01*
X0164940Y0026998D01*
X0164879Y0026993D01*
X0164820Y0026984D01*
X0164761Y0026971D01*
X0164702Y0026955D01*
X0164645Y0026935D01*
X0164590Y0026912D01*
X0164535Y0026885D01*
X0164483Y0026856D01*
X0164432Y0026823D01*
X0164383Y0026787D01*
X0164337Y0026749D01*
X0164293Y0026707D01*
X0164251Y0026663D01*
X0164213Y0026617D01*
X0164177Y0026568D01*
X0164144Y0026517D01*
X0164115Y0026465D01*
X0164088Y0026410D01*
X0164065Y0026355D01*
X0164045Y0026298D01*
X0164029Y0026239D01*
X0164016Y0026180D01*
X0164007Y0026121D01*
X0164002Y0026060D01*
X0164000Y0026000D01*
X0158000Y0026000D02*
X0157998Y0025940D01*
X0157993Y0025879D01*
X0157984Y0025820D01*
X0157971Y0025761D01*
X0157955Y0025702D01*
X0157935Y0025645D01*
X0157912Y0025590D01*
X0157885Y0025535D01*
X0157856Y0025483D01*
X0157823Y0025432D01*
X0157787Y0025383D01*
X0157749Y0025337D01*
X0157707Y0025293D01*
X0157663Y0025251D01*
X0157617Y0025213D01*
X0157568Y0025177D01*
X0157517Y0025144D01*
X0157465Y0025115D01*
X0157410Y0025088D01*
X0157355Y0025065D01*
X0157298Y0025045D01*
X0157239Y0025029D01*
X0157180Y0025016D01*
X0157121Y0025007D01*
X0157060Y0025002D01*
X0157000Y0025000D01*
X0154500Y0025000D01*
X0154000Y0025500D01*
X0128000Y0025500D01*
X0127500Y0025000D01*
X0125000Y0025000D01*
X0124940Y0025002D01*
X0124879Y0025007D01*
X0124820Y0025016D01*
X0124761Y0025029D01*
X0124702Y0025045D01*
X0124645Y0025065D01*
X0124590Y0025088D01*
X0124535Y0025115D01*
X0124483Y0025144D01*
X0124432Y0025177D01*
X0124383Y0025213D01*
X0124337Y0025251D01*
X0124293Y0025293D01*
X0124251Y0025337D01*
X0124213Y0025383D01*
X0124177Y0025432D01*
X0124144Y0025483D01*
X0124115Y0025535D01*
X0124088Y0025590D01*
X0124065Y0025645D01*
X0124045Y0025702D01*
X0124029Y0025761D01*
X0124016Y0025820D01*
X0124007Y0025879D01*
X0124002Y0025940D01*
X0124000Y0026000D01*
X0123500Y0016000D02*
X0118500Y0016000D01*
X0116000Y0013500D01*
X0113500Y0016000D01*
X0108500Y0016000D01*
X0106000Y0013500D01*
X0106000Y0008500D01*
X0108500Y0006000D01*
X0113500Y0006000D01*
X0116000Y0008500D01*
X0116000Y0013500D01*
X0116000Y0008500D02*
X0118500Y0006000D01*
X0123500Y0006000D01*
X0126000Y0008500D01*
X0126000Y0013500D01*
X0123500Y0016000D01*
X0106000Y0013500D02*
X0103500Y0016000D01*
X0098500Y0016000D01*
X0096000Y0013500D01*
X0093500Y0016000D01*
X0088500Y0016000D01*
X0086000Y0013500D01*
X0083500Y0016000D01*
X0078500Y0016000D01*
X0076000Y0013500D01*
X0076000Y0008500D01*
X0078500Y0006000D01*
X0083500Y0006000D01*
X0086000Y0008500D01*
X0086000Y0013500D01*
X0086000Y0008500D02*
X0088500Y0006000D01*
X0093500Y0006000D01*
X0096000Y0008500D01*
X0096000Y0013500D01*
X0096000Y0008500D02*
X0098500Y0006000D01*
X0103500Y0006000D01*
X0106000Y0008500D01*
X0097000Y0025000D02*
X0094500Y0025000D01*
X0094000Y0025500D01*
X0068000Y0025500D01*
X0067500Y0025000D01*
X0065000Y0025000D01*
X0064940Y0025002D01*
X0064879Y0025007D01*
X0064820Y0025016D01*
X0064761Y0025029D01*
X0064702Y0025045D01*
X0064645Y0025065D01*
X0064590Y0025088D01*
X0064535Y0025115D01*
X0064483Y0025144D01*
X0064432Y0025177D01*
X0064383Y0025213D01*
X0064337Y0025251D01*
X0064293Y0025293D01*
X0064251Y0025337D01*
X0064213Y0025383D01*
X0064177Y0025432D01*
X0064144Y0025483D01*
X0064115Y0025535D01*
X0064088Y0025590D01*
X0064065Y0025645D01*
X0064045Y0025702D01*
X0064029Y0025761D01*
X0064016Y0025820D01*
X0064007Y0025879D01*
X0064002Y0025940D01*
X0064000Y0026000D01*
X0065000Y0035000D02*
X0067500Y0035000D01*
X0068000Y0035500D01*
X0094000Y0035500D01*
X0094500Y0035000D01*
X0097000Y0035000D01*
X0097060Y0035002D01*
X0097121Y0035007D01*
X0097180Y0035016D01*
X0097239Y0035029D01*
X0097298Y0035045D01*
X0097355Y0035065D01*
X0097410Y0035088D01*
X0097465Y0035115D01*
X0097517Y0035144D01*
X0097568Y0035177D01*
X0097617Y0035213D01*
X0097663Y0035251D01*
X0097707Y0035293D01*
X0097749Y0035337D01*
X0097787Y0035383D01*
X0097823Y0035432D01*
X0097856Y0035483D01*
X0097885Y0035535D01*
X0097912Y0035590D01*
X0097935Y0035645D01*
X0097955Y0035702D01*
X0097971Y0035761D01*
X0097984Y0035820D01*
X0097993Y0035879D01*
X0097998Y0035940D01*
X0098000Y0036000D01*
X0097998Y0036060D01*
X0097993Y0036121D01*
X0097984Y0036180D01*
X0097971Y0036239D01*
X0097955Y0036298D01*
X0097935Y0036355D01*
X0097912Y0036410D01*
X0097885Y0036465D01*
X0097856Y0036517D01*
X0097823Y0036568D01*
X0097787Y0036617D01*
X0097749Y0036663D01*
X0097707Y0036707D01*
X0097663Y0036749D01*
X0097617Y0036787D01*
X0097568Y0036823D01*
X0097517Y0036856D01*
X0097465Y0036885D01*
X0097410Y0036912D01*
X0097355Y0036935D01*
X0097298Y0036955D01*
X0097239Y0036971D01*
X0097180Y0036984D01*
X0097121Y0036993D01*
X0097060Y0036998D01*
X0097000Y0037000D01*
X0094500Y0037000D01*
X0094000Y0036500D01*
X0068000Y0036500D01*
X0067500Y0037000D01*
X0065000Y0037000D01*
X0064000Y0036000D02*
X0064002Y0035940D01*
X0064007Y0035879D01*
X0064016Y0035820D01*
X0064029Y0035761D01*
X0064045Y0035702D01*
X0064065Y0035645D01*
X0064088Y0035590D01*
X0064115Y0035535D01*
X0064144Y0035483D01*
X0064177Y0035432D01*
X0064213Y0035383D01*
X0064251Y0035337D01*
X0064293Y0035293D01*
X0064337Y0035251D01*
X0064383Y0035213D01*
X0064432Y0035177D01*
X0064483Y0035144D01*
X0064535Y0035115D01*
X0064590Y0035088D01*
X0064645Y0035065D01*
X0064702Y0035045D01*
X0064761Y0035029D01*
X0064820Y0035016D01*
X0064879Y0035007D01*
X0064940Y0035002D01*
X0065000Y0035000D01*
X0064000Y0036000D02*
X0064002Y0036060D01*
X0064007Y0036121D01*
X0064016Y0036180D01*
X0064029Y0036239D01*
X0064045Y0036298D01*
X0064065Y0036355D01*
X0064088Y0036410D01*
X0064115Y0036465D01*
X0064144Y0036517D01*
X0064177Y0036568D01*
X0064213Y0036617D01*
X0064251Y0036663D01*
X0064293Y0036707D01*
X0064337Y0036749D01*
X0064383Y0036787D01*
X0064432Y0036823D01*
X0064483Y0036856D01*
X0064535Y0036885D01*
X0064590Y0036912D01*
X0064645Y0036935D01*
X0064702Y0036955D01*
X0064761Y0036971D01*
X0064820Y0036984D01*
X0064879Y0036993D01*
X0064940Y0036998D01*
X0065000Y0037000D01*
X0064000Y0046000D02*
X0064002Y0046060D01*
X0064007Y0046121D01*
X0064016Y0046180D01*
X0064029Y0046239D01*
X0064045Y0046298D01*
X0064065Y0046355D01*
X0064088Y0046410D01*
X0064115Y0046465D01*
X0064144Y0046517D01*
X0064177Y0046568D01*
X0064213Y0046617D01*
X0064251Y0046663D01*
X0064293Y0046707D01*
X0064337Y0046749D01*
X0064383Y0046787D01*
X0064432Y0046823D01*
X0064483Y0046856D01*
X0064535Y0046885D01*
X0064590Y0046912D01*
X0064645Y0046935D01*
X0064702Y0046955D01*
X0064761Y0046971D01*
X0064820Y0046984D01*
X0064879Y0046993D01*
X0064940Y0046998D01*
X0065000Y0047000D01*
X0067500Y0047000D01*
X0068000Y0046500D01*
X0094000Y0046500D01*
X0094500Y0047000D01*
X0097000Y0047000D01*
X0097060Y0046998D01*
X0097121Y0046993D01*
X0097180Y0046984D01*
X0097239Y0046971D01*
X0097298Y0046955D01*
X0097355Y0046935D01*
X0097410Y0046912D01*
X0097465Y0046885D01*
X0097517Y0046856D01*
X0097568Y0046823D01*
X0097617Y0046787D01*
X0097663Y0046749D01*
X0097707Y0046707D01*
X0097749Y0046663D01*
X0097787Y0046617D01*
X0097823Y0046568D01*
X0097856Y0046517D01*
X0097885Y0046465D01*
X0097912Y0046410D01*
X0097935Y0046355D01*
X0097955Y0046298D01*
X0097971Y0046239D01*
X0097984Y0046180D01*
X0097993Y0046121D01*
X0097998Y0046060D01*
X0098000Y0046000D01*
X0098000Y0026000D02*
X0097998Y0025940D01*
X0097993Y0025879D01*
X0097984Y0025820D01*
X0097971Y0025761D01*
X0097955Y0025702D01*
X0097935Y0025645D01*
X0097912Y0025590D01*
X0097885Y0025535D01*
X0097856Y0025483D01*
X0097823Y0025432D01*
X0097787Y0025383D01*
X0097749Y0025337D01*
X0097707Y0025293D01*
X0097663Y0025251D01*
X0097617Y0025213D01*
X0097568Y0025177D01*
X0097517Y0025144D01*
X0097465Y0025115D01*
X0097410Y0025088D01*
X0097355Y0025065D01*
X0097298Y0025045D01*
X0097239Y0025029D01*
X0097180Y0025016D01*
X0097121Y0025007D01*
X0097060Y0025002D01*
X0097000Y0025000D01*
X0076000Y0013500D02*
X0073500Y0016000D01*
X0068500Y0016000D01*
X0066000Y0013500D01*
X0063500Y0016000D01*
X0058500Y0016000D01*
X0056000Y0013500D01*
X0053500Y0016000D01*
X0048500Y0016000D01*
X0046000Y0013500D01*
X0046000Y0008500D01*
X0048500Y0006000D01*
X0053500Y0006000D01*
X0056000Y0008500D01*
X0056000Y0013500D01*
X0056000Y0008500D02*
X0058500Y0006000D01*
X0063500Y0006000D01*
X0066000Y0008500D01*
X0066000Y0013500D01*
X0066000Y0008500D02*
X0068500Y0006000D01*
X0073500Y0006000D01*
X0076000Y0008500D01*
X0046000Y0008500D02*
X0043500Y0006000D01*
X0038500Y0006000D01*
X0036000Y0008500D01*
X0033500Y0006000D01*
X0028500Y0006000D01*
X0026000Y0008500D01*
X0026000Y0013500D01*
X0028500Y0016000D01*
X0033500Y0016000D01*
X0036000Y0013500D01*
X0038500Y0016000D01*
X0043500Y0016000D01*
X0046000Y0013500D01*
X0036000Y0013500D02*
X0036000Y0008500D01*
X0044500Y0025000D02*
X0044000Y0025500D01*
X0018000Y0025500D01*
X0017500Y0025000D01*
X0015000Y0025000D01*
X0014940Y0025002D01*
X0014879Y0025007D01*
X0014820Y0025016D01*
X0014761Y0025029D01*
X0014702Y0025045D01*
X0014645Y0025065D01*
X0014590Y0025088D01*
X0014535Y0025115D01*
X0014483Y0025144D01*
X0014432Y0025177D01*
X0014383Y0025213D01*
X0014337Y0025251D01*
X0014293Y0025293D01*
X0014251Y0025337D01*
X0014213Y0025383D01*
X0014177Y0025432D01*
X0014144Y0025483D01*
X0014115Y0025535D01*
X0014088Y0025590D01*
X0014065Y0025645D01*
X0014045Y0025702D01*
X0014029Y0025761D01*
X0014016Y0025820D01*
X0014007Y0025879D01*
X0014002Y0025940D01*
X0014000Y0026000D01*
X0014000Y0036000D02*
X0014002Y0036060D01*
X0014007Y0036121D01*
X0014016Y0036180D01*
X0014029Y0036239D01*
X0014045Y0036298D01*
X0014065Y0036355D01*
X0014088Y0036410D01*
X0014115Y0036465D01*
X0014144Y0036517D01*
X0014177Y0036568D01*
X0014213Y0036617D01*
X0014251Y0036663D01*
X0014293Y0036707D01*
X0014337Y0036749D01*
X0014383Y0036787D01*
X0014432Y0036823D01*
X0014483Y0036856D01*
X0014535Y0036885D01*
X0014590Y0036912D01*
X0014645Y0036935D01*
X0014702Y0036955D01*
X0014761Y0036971D01*
X0014820Y0036984D01*
X0014879Y0036993D01*
X0014940Y0036998D01*
X0015000Y0037000D01*
X0017500Y0037000D01*
X0018000Y0036500D01*
X0044000Y0036500D01*
X0044500Y0037000D01*
X0047000Y0037000D01*
X0047060Y0036998D01*
X0047121Y0036993D01*
X0047180Y0036984D01*
X0047239Y0036971D01*
X0047298Y0036955D01*
X0047355Y0036935D01*
X0047410Y0036912D01*
X0047465Y0036885D01*
X0047517Y0036856D01*
X0047568Y0036823D01*
X0047617Y0036787D01*
X0047663Y0036749D01*
X0047707Y0036707D01*
X0047749Y0036663D01*
X0047787Y0036617D01*
X0047823Y0036568D01*
X0047856Y0036517D01*
X0047885Y0036465D01*
X0047912Y0036410D01*
X0047935Y0036355D01*
X0047955Y0036298D01*
X0047971Y0036239D01*
X0047984Y0036180D01*
X0047993Y0036121D01*
X0047998Y0036060D01*
X0048000Y0036000D01*
X0048000Y0026000D02*
X0047998Y0025940D01*
X0047993Y0025879D01*
X0047984Y0025820D01*
X0047971Y0025761D01*
X0047955Y0025702D01*
X0047935Y0025645D01*
X0047912Y0025590D01*
X0047885Y0025535D01*
X0047856Y0025483D01*
X0047823Y0025432D01*
X0047787Y0025383D01*
X0047749Y0025337D01*
X0047707Y0025293D01*
X0047663Y0025251D01*
X0047617Y0025213D01*
X0047568Y0025177D01*
X0047517Y0025144D01*
X0047465Y0025115D01*
X0047410Y0025088D01*
X0047355Y0025065D01*
X0047298Y0025045D01*
X0047239Y0025029D01*
X0047180Y0025016D01*
X0047121Y0025007D01*
X0047060Y0025002D01*
X0047000Y0025000D01*
X0044500Y0025000D01*
X0124000Y0036000D02*
X0124002Y0036060D01*
X0124007Y0036121D01*
X0124016Y0036180D01*
X0124029Y0036239D01*
X0124045Y0036298D01*
X0124065Y0036355D01*
X0124088Y0036410D01*
X0124115Y0036465D01*
X0124144Y0036517D01*
X0124177Y0036568D01*
X0124213Y0036617D01*
X0124251Y0036663D01*
X0124293Y0036707D01*
X0124337Y0036749D01*
X0124383Y0036787D01*
X0124432Y0036823D01*
X0124483Y0036856D01*
X0124535Y0036885D01*
X0124590Y0036912D01*
X0124645Y0036935D01*
X0124702Y0036955D01*
X0124761Y0036971D01*
X0124820Y0036984D01*
X0124879Y0036993D01*
X0124940Y0036998D01*
X0125000Y0037000D01*
X0127500Y0037000D01*
X0128000Y0036500D01*
X0154000Y0036500D01*
X0154500Y0037000D01*
X0157000Y0037000D01*
X0157060Y0036998D01*
X0157121Y0036993D01*
X0157180Y0036984D01*
X0157239Y0036971D01*
X0157298Y0036955D01*
X0157355Y0036935D01*
X0157410Y0036912D01*
X0157465Y0036885D01*
X0157517Y0036856D01*
X0157568Y0036823D01*
X0157617Y0036787D01*
X0157663Y0036749D01*
X0157707Y0036707D01*
X0157749Y0036663D01*
X0157787Y0036617D01*
X0157823Y0036568D01*
X0157856Y0036517D01*
X0157885Y0036465D01*
X0157912Y0036410D01*
X0157935Y0036355D01*
X0157955Y0036298D01*
X0157971Y0036239D01*
X0157984Y0036180D01*
X0157993Y0036121D01*
X0157998Y0036060D01*
X0158000Y0036000D01*
X0157000Y0045000D02*
X0154500Y0045000D01*
X0154000Y0045500D01*
X0128000Y0045500D01*
X0127500Y0045000D01*
X0125000Y0045000D01*
X0124940Y0045002D01*
X0124879Y0045007D01*
X0124820Y0045016D01*
X0124761Y0045029D01*
X0124702Y0045045D01*
X0124645Y0045065D01*
X0124590Y0045088D01*
X0124535Y0045115D01*
X0124483Y0045144D01*
X0124432Y0045177D01*
X0124383Y0045213D01*
X0124337Y0045251D01*
X0124293Y0045293D01*
X0124251Y0045337D01*
X0124213Y0045383D01*
X0124177Y0045432D01*
X0124144Y0045483D01*
X0124115Y0045535D01*
X0124088Y0045590D01*
X0124065Y0045645D01*
X0124045Y0045702D01*
X0124029Y0045761D01*
X0124016Y0045820D01*
X0124007Y0045879D01*
X0124002Y0045940D01*
X0124000Y0046000D01*
X0124000Y0056000D02*
X0124002Y0056060D01*
X0124007Y0056121D01*
X0124016Y0056180D01*
X0124029Y0056239D01*
X0124045Y0056298D01*
X0124065Y0056355D01*
X0124088Y0056410D01*
X0124115Y0056465D01*
X0124144Y0056517D01*
X0124177Y0056568D01*
X0124213Y0056617D01*
X0124251Y0056663D01*
X0124293Y0056707D01*
X0124337Y0056749D01*
X0124383Y0056787D01*
X0124432Y0056823D01*
X0124483Y0056856D01*
X0124535Y0056885D01*
X0124590Y0056912D01*
X0124645Y0056935D01*
X0124702Y0056955D01*
X0124761Y0056971D01*
X0124820Y0056984D01*
X0124879Y0056993D01*
X0124940Y0056998D01*
X0125000Y0057000D01*
X0127500Y0057000D01*
X0128000Y0056500D01*
X0154000Y0056500D01*
X0154500Y0057000D01*
X0157000Y0057000D01*
X0157060Y0056998D01*
X0157121Y0056993D01*
X0157180Y0056984D01*
X0157239Y0056971D01*
X0157298Y0056955D01*
X0157355Y0056935D01*
X0157410Y0056912D01*
X0157465Y0056885D01*
X0157517Y0056856D01*
X0157568Y0056823D01*
X0157617Y0056787D01*
X0157663Y0056749D01*
X0157707Y0056707D01*
X0157749Y0056663D01*
X0157787Y0056617D01*
X0157823Y0056568D01*
X0157856Y0056517D01*
X0157885Y0056465D01*
X0157912Y0056410D01*
X0157935Y0056355D01*
X0157955Y0056298D01*
X0157971Y0056239D01*
X0157984Y0056180D01*
X0157993Y0056121D01*
X0157998Y0056060D01*
X0158000Y0056000D01*
X0157000Y0065000D02*
X0154500Y0065000D01*
X0154000Y0065500D01*
X0128000Y0065500D01*
X0127500Y0065000D01*
X0125000Y0065000D01*
X0124940Y0065002D01*
X0124879Y0065007D01*
X0124820Y0065016D01*
X0124761Y0065029D01*
X0124702Y0065045D01*
X0124645Y0065065D01*
X0124590Y0065088D01*
X0124535Y0065115D01*
X0124483Y0065144D01*
X0124432Y0065177D01*
X0124383Y0065213D01*
X0124337Y0065251D01*
X0124293Y0065293D01*
X0124251Y0065337D01*
X0124213Y0065383D01*
X0124177Y0065432D01*
X0124144Y0065483D01*
X0124115Y0065535D01*
X0124088Y0065590D01*
X0124065Y0065645D01*
X0124045Y0065702D01*
X0124029Y0065761D01*
X0124016Y0065820D01*
X0124007Y0065879D01*
X0124002Y0065940D01*
X0124000Y0066000D01*
X0124000Y0076000D02*
X0124002Y0076060D01*
X0124007Y0076121D01*
X0124016Y0076180D01*
X0124029Y0076239D01*
X0124045Y0076298D01*
X0124065Y0076355D01*
X0124088Y0076410D01*
X0124115Y0076465D01*
X0124144Y0076517D01*
X0124177Y0076568D01*
X0124213Y0076617D01*
X0124251Y0076663D01*
X0124293Y0076707D01*
X0124337Y0076749D01*
X0124383Y0076787D01*
X0124432Y0076823D01*
X0124483Y0076856D01*
X0124535Y0076885D01*
X0124590Y0076912D01*
X0124645Y0076935D01*
X0124702Y0076955D01*
X0124761Y0076971D01*
X0124820Y0076984D01*
X0124879Y0076993D01*
X0124940Y0076998D01*
X0125000Y0077000D01*
X0127500Y0077000D01*
X0128000Y0076500D01*
X0154000Y0076500D01*
X0154500Y0077000D01*
X0157000Y0077000D01*
X0157060Y0076998D01*
X0157121Y0076993D01*
X0157180Y0076984D01*
X0157239Y0076971D01*
X0157298Y0076955D01*
X0157355Y0076935D01*
X0157410Y0076912D01*
X0157465Y0076885D01*
X0157517Y0076856D01*
X0157568Y0076823D01*
X0157617Y0076787D01*
X0157663Y0076749D01*
X0157707Y0076707D01*
X0157749Y0076663D01*
X0157787Y0076617D01*
X0157823Y0076568D01*
X0157856Y0076517D01*
X0157885Y0076465D01*
X0157912Y0076410D01*
X0157935Y0076355D01*
X0157955Y0076298D01*
X0157971Y0076239D01*
X0157984Y0076180D01*
X0157993Y0076121D01*
X0157998Y0076060D01*
X0158000Y0076000D01*
X0157000Y0085000D02*
X0154500Y0085000D01*
X0154000Y0085500D01*
X0128000Y0085500D01*
X0127500Y0085000D01*
X0125000Y0085000D01*
X0124940Y0085002D01*
X0124879Y0085007D01*
X0124820Y0085016D01*
X0124761Y0085029D01*
X0124702Y0085045D01*
X0124645Y0085065D01*
X0124590Y0085088D01*
X0124535Y0085115D01*
X0124483Y0085144D01*
X0124432Y0085177D01*
X0124383Y0085213D01*
X0124337Y0085251D01*
X0124293Y0085293D01*
X0124251Y0085337D01*
X0124213Y0085383D01*
X0124177Y0085432D01*
X0124144Y0085483D01*
X0124115Y0085535D01*
X0124088Y0085590D01*
X0124065Y0085645D01*
X0124045Y0085702D01*
X0124029Y0085761D01*
X0124016Y0085820D01*
X0124007Y0085879D01*
X0124002Y0085940D01*
X0124000Y0086000D01*
X0124000Y0096000D02*
X0124002Y0096060D01*
X0124007Y0096121D01*
X0124016Y0096180D01*
X0124029Y0096239D01*
X0124045Y0096298D01*
X0124065Y0096355D01*
X0124088Y0096410D01*
X0124115Y0096465D01*
X0124144Y0096517D01*
X0124177Y0096568D01*
X0124213Y0096617D01*
X0124251Y0096663D01*
X0124293Y0096707D01*
X0124337Y0096749D01*
X0124383Y0096787D01*
X0124432Y0096823D01*
X0124483Y0096856D01*
X0124535Y0096885D01*
X0124590Y0096912D01*
X0124645Y0096935D01*
X0124702Y0096955D01*
X0124761Y0096971D01*
X0124820Y0096984D01*
X0124879Y0096993D01*
X0124940Y0096998D01*
X0125000Y0097000D01*
X0127500Y0097000D01*
X0128000Y0096500D01*
X0154000Y0096500D01*
X0154500Y0097000D01*
X0157000Y0097000D01*
X0157060Y0096998D01*
X0157121Y0096993D01*
X0157180Y0096984D01*
X0157239Y0096971D01*
X0157298Y0096955D01*
X0157355Y0096935D01*
X0157410Y0096912D01*
X0157465Y0096885D01*
X0157517Y0096856D01*
X0157568Y0096823D01*
X0157617Y0096787D01*
X0157663Y0096749D01*
X0157707Y0096707D01*
X0157749Y0096663D01*
X0157787Y0096617D01*
X0157823Y0096568D01*
X0157856Y0096517D01*
X0157885Y0096465D01*
X0157912Y0096410D01*
X0157935Y0096355D01*
X0157955Y0096298D01*
X0157971Y0096239D01*
X0157984Y0096180D01*
X0157993Y0096121D01*
X0157998Y0096060D01*
X0158000Y0096000D01*
X0157000Y0105000D02*
X0154500Y0105000D01*
X0154000Y0105500D01*
X0128000Y0105500D01*
X0127500Y0105000D01*
X0125000Y0105000D01*
X0124940Y0105002D01*
X0124879Y0105007D01*
X0124820Y0105016D01*
X0124761Y0105029D01*
X0124702Y0105045D01*
X0124645Y0105065D01*
X0124590Y0105088D01*
X0124535Y0105115D01*
X0124483Y0105144D01*
X0124432Y0105177D01*
X0124383Y0105213D01*
X0124337Y0105251D01*
X0124293Y0105293D01*
X0124251Y0105337D01*
X0124213Y0105383D01*
X0124177Y0105432D01*
X0124144Y0105483D01*
X0124115Y0105535D01*
X0124088Y0105590D01*
X0124065Y0105645D01*
X0124045Y0105702D01*
X0124029Y0105761D01*
X0124016Y0105820D01*
X0124007Y0105879D01*
X0124002Y0105940D01*
X0124000Y0106000D01*
X0124000Y0116000D02*
X0124002Y0116060D01*
X0124007Y0116121D01*
X0124016Y0116180D01*
X0124029Y0116239D01*
X0124045Y0116298D01*
X0124065Y0116355D01*
X0124088Y0116410D01*
X0124115Y0116465D01*
X0124144Y0116517D01*
X0124177Y0116568D01*
X0124213Y0116617D01*
X0124251Y0116663D01*
X0124293Y0116707D01*
X0124337Y0116749D01*
X0124383Y0116787D01*
X0124432Y0116823D01*
X0124483Y0116856D01*
X0124535Y0116885D01*
X0124590Y0116912D01*
X0124645Y0116935D01*
X0124702Y0116955D01*
X0124761Y0116971D01*
X0124820Y0116984D01*
X0124879Y0116993D01*
X0124940Y0116998D01*
X0125000Y0117000D01*
X0127500Y0117000D01*
X0128000Y0116500D01*
X0154000Y0116500D01*
X0154500Y0117000D01*
X0157000Y0117000D01*
X0157060Y0116998D01*
X0157121Y0116993D01*
X0157180Y0116984D01*
X0157239Y0116971D01*
X0157298Y0116955D01*
X0157355Y0116935D01*
X0157410Y0116912D01*
X0157465Y0116885D01*
X0157517Y0116856D01*
X0157568Y0116823D01*
X0157617Y0116787D01*
X0157663Y0116749D01*
X0157707Y0116707D01*
X0157749Y0116663D01*
X0157787Y0116617D01*
X0157823Y0116568D01*
X0157856Y0116517D01*
X0157885Y0116465D01*
X0157912Y0116410D01*
X0157935Y0116355D01*
X0157955Y0116298D01*
X0157971Y0116239D01*
X0157984Y0116180D01*
X0157993Y0116121D01*
X0157998Y0116060D01*
X0158000Y0116000D01*
X0158000Y0106000D02*
X0157998Y0105940D01*
X0157993Y0105879D01*
X0157984Y0105820D01*
X0157971Y0105761D01*
X0157955Y0105702D01*
X0157935Y0105645D01*
X0157912Y0105590D01*
X0157885Y0105535D01*
X0157856Y0105483D01*
X0157823Y0105432D01*
X0157787Y0105383D01*
X0157749Y0105337D01*
X0157707Y0105293D01*
X0157663Y0105251D01*
X0157617Y0105213D01*
X0157568Y0105177D01*
X0157517Y0105144D01*
X0157465Y0105115D01*
X0157410Y0105088D01*
X0157355Y0105065D01*
X0157298Y0105045D01*
X0157239Y0105029D01*
X0157180Y0105016D01*
X0157121Y0105007D01*
X0157060Y0105002D01*
X0157000Y0105000D01*
X0158000Y0086000D02*
X0157998Y0085940D01*
X0157993Y0085879D01*
X0157984Y0085820D01*
X0157971Y0085761D01*
X0157955Y0085702D01*
X0157935Y0085645D01*
X0157912Y0085590D01*
X0157885Y0085535D01*
X0157856Y0085483D01*
X0157823Y0085432D01*
X0157787Y0085383D01*
X0157749Y0085337D01*
X0157707Y0085293D01*
X0157663Y0085251D01*
X0157617Y0085213D01*
X0157568Y0085177D01*
X0157517Y0085144D01*
X0157465Y0085115D01*
X0157410Y0085088D01*
X0157355Y0085065D01*
X0157298Y0085045D01*
X0157239Y0085029D01*
X0157180Y0085016D01*
X0157121Y0085007D01*
X0157060Y0085002D01*
X0157000Y0085000D01*
X0158000Y0066000D02*
X0157998Y0065940D01*
X0157993Y0065879D01*
X0157984Y0065820D01*
X0157971Y0065761D01*
X0157955Y0065702D01*
X0157935Y0065645D01*
X0157912Y0065590D01*
X0157885Y0065535D01*
X0157856Y0065483D01*
X0157823Y0065432D01*
X0157787Y0065383D01*
X0157749Y0065337D01*
X0157707Y0065293D01*
X0157663Y0065251D01*
X0157617Y0065213D01*
X0157568Y0065177D01*
X0157517Y0065144D01*
X0157465Y0065115D01*
X0157410Y0065088D01*
X0157355Y0065065D01*
X0157298Y0065045D01*
X0157239Y0065029D01*
X0157180Y0065016D01*
X0157121Y0065007D01*
X0157060Y0065002D01*
X0157000Y0065000D01*
X0158000Y0046000D02*
X0157998Y0045940D01*
X0157993Y0045879D01*
X0157984Y0045820D01*
X0157971Y0045761D01*
X0157955Y0045702D01*
X0157935Y0045645D01*
X0157912Y0045590D01*
X0157885Y0045535D01*
X0157856Y0045483D01*
X0157823Y0045432D01*
X0157787Y0045383D01*
X0157749Y0045337D01*
X0157707Y0045293D01*
X0157663Y0045251D01*
X0157617Y0045213D01*
X0157568Y0045177D01*
X0157517Y0045144D01*
X0157465Y0045115D01*
X0157410Y0045088D01*
X0157355Y0045065D01*
X0157298Y0045045D01*
X0157239Y0045029D01*
X0157180Y0045016D01*
X0157121Y0045007D01*
X0157060Y0045002D01*
X0157000Y0045000D01*
X0164000Y0016000D02*
X0164002Y0015940D01*
X0164007Y0015879D01*
X0164016Y0015820D01*
X0164029Y0015761D01*
X0164045Y0015702D01*
X0164065Y0015645D01*
X0164088Y0015590D01*
X0164115Y0015535D01*
X0164144Y0015483D01*
X0164177Y0015432D01*
X0164213Y0015383D01*
X0164251Y0015337D01*
X0164293Y0015293D01*
X0164337Y0015251D01*
X0164383Y0015213D01*
X0164432Y0015177D01*
X0164483Y0015144D01*
X0164535Y0015115D01*
X0164590Y0015088D01*
X0164645Y0015065D01*
X0164702Y0015045D01*
X0164761Y0015029D01*
X0164820Y0015016D01*
X0164879Y0015007D01*
X0164940Y0015002D01*
X0165000Y0015000D01*
X0167500Y0015000D01*
X0168000Y0015500D01*
X0194000Y0015500D01*
X0194500Y0015000D01*
X0197000Y0015000D01*
X0197060Y0015002D01*
X0197121Y0015007D01*
X0197180Y0015016D01*
X0197239Y0015029D01*
X0197298Y0015045D01*
X0197355Y0015065D01*
X0197410Y0015088D01*
X0197465Y0015115D01*
X0197517Y0015144D01*
X0197568Y0015177D01*
X0197617Y0015213D01*
X0197663Y0015251D01*
X0197707Y0015293D01*
X0197749Y0015337D01*
X0197787Y0015383D01*
X0197823Y0015432D01*
X0197856Y0015483D01*
X0197885Y0015535D01*
X0197912Y0015590D01*
X0197935Y0015645D01*
X0197955Y0015702D01*
X0197971Y0015761D01*
X0197984Y0015820D01*
X0197993Y0015879D01*
X0197998Y0015940D01*
X0198000Y0016000D01*
X0198000Y0026000D02*
X0197998Y0026060D01*
X0197993Y0026121D01*
X0197984Y0026180D01*
X0197971Y0026239D01*
X0197955Y0026298D01*
X0197935Y0026355D01*
X0197912Y0026410D01*
X0197885Y0026465D01*
X0197856Y0026517D01*
X0197823Y0026568D01*
X0197787Y0026617D01*
X0197749Y0026663D01*
X0197707Y0026707D01*
X0197663Y0026749D01*
X0197617Y0026787D01*
X0197568Y0026823D01*
X0197517Y0026856D01*
X0197465Y0026885D01*
X0197410Y0026912D01*
X0197355Y0026935D01*
X0197298Y0026955D01*
X0197239Y0026971D01*
X0197180Y0026984D01*
X0197121Y0026993D01*
X0197060Y0026998D01*
X0197000Y0027000D01*
X0198500Y0136000D02*
X0196000Y0138500D01*
X0193500Y0136000D01*
X0188500Y0136000D01*
X0186000Y0138500D01*
X0183500Y0136000D01*
X0178500Y0136000D01*
X0176000Y0138500D01*
X0173500Y0136000D01*
X0168500Y0136000D01*
X0166000Y0138500D01*
X0163500Y0136000D01*
X0158500Y0136000D01*
X0156000Y0138500D01*
X0153500Y0136000D01*
X0148500Y0136000D01*
X0146000Y0138500D01*
X0146000Y0143500D01*
X0148500Y0146000D01*
X0153500Y0146000D01*
X0156000Y0143500D01*
X0158500Y0146000D01*
X0163500Y0146000D01*
X0166000Y0143500D01*
X0166000Y0138500D01*
X0166000Y0143500D02*
X0168500Y0146000D01*
X0173500Y0146000D01*
X0176000Y0143500D01*
X0178500Y0146000D01*
X0183500Y0146000D01*
X0186000Y0143500D01*
X0188500Y0146000D01*
X0193500Y0146000D01*
X0196000Y0143500D01*
X0196000Y0138500D01*
X0198500Y0136000D02*
X0203500Y0136000D01*
X0206000Y0138500D01*
X0208500Y0136000D01*
X0213500Y0136000D01*
X0216000Y0138500D01*
X0218500Y0136000D01*
X0223500Y0136000D01*
X0226000Y0138500D01*
X0226000Y0143500D01*
X0223500Y0146000D01*
X0218500Y0146000D01*
X0216000Y0143500D01*
X0216000Y0138500D01*
X0216000Y0143500D02*
X0213500Y0146000D01*
X0208500Y0146000D01*
X0206000Y0143500D01*
X0206000Y0138500D01*
X0206000Y0143500D02*
X0203500Y0146000D01*
X0198500Y0146000D01*
X0196000Y0143500D01*
X0186000Y0143500D02*
X0186000Y0138500D01*
X0176000Y0138500D02*
X0176000Y0143500D01*
X0156000Y0143500D02*
X0156000Y0138500D01*
X0226000Y0138500D02*
X0228500Y0136000D01*
X0233500Y0136000D01*
X0236000Y0138500D01*
X0238500Y0136000D01*
X0243500Y0136000D01*
X0246000Y0138500D01*
X0246000Y0143500D01*
X0243500Y0146000D01*
X0238500Y0146000D01*
X0236000Y0143500D01*
X0236000Y0138500D01*
X0236000Y0143500D02*
X0233500Y0146000D01*
X0228500Y0146000D01*
X0226000Y0143500D01*
M02*
