%
M48
M72
T01C0.01200
T02C0.02400
T03C0.03150
T04C0.03200
T05C0.04000
T06C0.04724
%
T01
X118426Y126250
X82993Y159715
X13111Y161683
X223741Y145935
X274922Y112470
X288702Y148888
T02
X131300Y96250
X121300Y86250
X131300Y76250
X131300Y63750
X121300Y53750
X131300Y43750
X281300Y56250
X291300Y46250
X291300Y66250
X291300Y81250
X281300Y91250
X291300Y101250
T03
X18859Y20935
X28859Y20935
X38859Y20935
X66103Y20935
X76103Y20935
X86103Y20935
X113347Y20935
X123347Y20935
X133347Y20935
X160591Y20935
X170591Y20935
X180591Y20935
T04
X11300Y37250
X11300Y45250
X33800Y45250
X33800Y37250
X48800Y46250
X58800Y46250
X68800Y46250
X78800Y46250
X88800Y46250
X98800Y46250
X108800Y46250
X153800Y56250
X163800Y56250
X178800Y61250
X188800Y61250
X206300Y46250
X216300Y46250
X226300Y46250
X236300Y46250
X246300Y46250
X256300Y46250
X266300Y46250
X316300Y41250
X326300Y41250
X336300Y41250
X346300Y41250
X356300Y41250
X366300Y41250
X376300Y41250
X386300Y41250
X386300Y71250
X376300Y71250
X366300Y71250
X356300Y71250
X346300Y71250
X336300Y71250
X326300Y71250
X316300Y71250
X311300Y81250
X311300Y91250
X341300Y91250
X341300Y81250
X341300Y111250
X356300Y111250
X356300Y121250
X341300Y121250
X341300Y131250
X356300Y131250
X341300Y141250
X341300Y151250
X341300Y161250
X357300Y153750
X365300Y153750
X379800Y153750
X387800Y153750
X386300Y131250
X386300Y121250
X386300Y111250
X311300Y111250
X296300Y116250
X286300Y116250
X286300Y126250
X296300Y126250
X296300Y136250
X281300Y136250
X266300Y136250
X256300Y136250
X246300Y136250
X236300Y136250
X226300Y136250
X216300Y136250
X206300Y136250
X183800Y126250
X173800Y126250
X163800Y126250
X153800Y126250
X148800Y136250
X138800Y136250
X158800Y136250
X168800Y136250
X178800Y136250
X206300Y121250
X216300Y121250
X226300Y121250
X236300Y121250
X246300Y121250
X256300Y121250
X266300Y121250
X311300Y121250
X311300Y131250
X311300Y141250
X311300Y151250
X311300Y161250
X296300Y166250
X281300Y166250
X266300Y166250
X256300Y166250
X246300Y166250
X236300Y166250
X226300Y166250
X216300Y166250
X206300Y166250
X178800Y166250
X168800Y166250
X158800Y166250
X148800Y166250
X138800Y166250
X136300Y181250
X116300Y181250
X103800Y181250
X103800Y191250
X116300Y191250
X136300Y191250
X108800Y166250
X98800Y166250
X88800Y166250
X78800Y166250
X68800Y166250
X58800Y166250
X48800Y166250
X36300Y161250
X36300Y151250
X36300Y141250
X48800Y136250
X58800Y136250
X68800Y136250
X78800Y136250
X88800Y136250
X98800Y136250
X108800Y136250
X108800Y121250
X98800Y121250
X88800Y121250
X78800Y121250
X68800Y121250
X58800Y121250
X48800Y121250
X36300Y121250
X36300Y111250
X36300Y101250
X31300Y91250
X48800Y91250
X58800Y91250
X68800Y91250
X78800Y91250
X88800Y91250
X98800Y91250
X108800Y91250
X108800Y76250
X98800Y76250
X88800Y76250
X78800Y76250
X68800Y76250
X58800Y76250
X48800Y76250
X36300Y71250
X36300Y61250
X6300Y61250
X6300Y71250
X11300Y81250
X11300Y91250
X6300Y101250
X6300Y111250
X6300Y121250
X6300Y131250
X6300Y141250
X6300Y151250
X6300Y161250
X6300Y171250
X6300Y181250
X6300Y191250
X36300Y191250
X51300Y191250
X61300Y191250
X73800Y191250
X73800Y181250
X61300Y181250
X51300Y181250
X36300Y181250
X36300Y171250
X36300Y131250
X128800Y121250
X138800Y121250
X138800Y111250
X128800Y111250
X153800Y96250
X163800Y96250
X173800Y96250
X183800Y96250
X163800Y86250
X153800Y86250
X178800Y81250
X188800Y81250
X206300Y76250
X216300Y76250
X226300Y76250
X236300Y76250
X246300Y76250
X256300Y76250
X266300Y76250
X266300Y91250
X256300Y91250
X246300Y91250
X236300Y91250
X226300Y91250
X216300Y91250
X206300Y91250
X181300Y45250
X181300Y37250
X158800Y37250
X158800Y45250
X31300Y81250
X216300Y181250
X236300Y181250
X251300Y181250
X251300Y191250
X236300Y191250
X216300Y191250
X281300Y191250
X291300Y191250
X301300Y191250
X316300Y191250
X326300Y191250
X326300Y181250
X316300Y181250
X301300Y181250
X291300Y181250
X281300Y181250
T05
X156300Y191250
X166300Y191250
X176300Y191250
X186300Y191250
X196300Y191250
X196300Y181250
X186300Y181250
X176300Y181250
X166300Y181250
X156300Y181250
X346300Y181250
X356300Y181250
X366300Y181250
X376300Y181250
X386300Y181250
X386300Y191250
X376300Y191250
X366300Y191250
X356300Y191250
X346300Y191250
T06
X207206Y25659
X207206Y10699
X244213Y10699
X254450Y10699
X254450Y25659
X244213Y25659
X291457Y25659
X301694Y25659
X301694Y10699
X291457Y10699
X338702Y10699
X348938Y10699
X348938Y25659
X338702Y25659
X385946Y25659
X385946Y10699
M30
