G75*
%MOIN*%
%OFA0B0*%
%FSLAX25Y25*%
%IPPOS*%
%LPD*%
%AMOC8*
5,1,8,0,0,1.08239X$1,22.5*
%
%ADD10C,0.00000*%
%ADD11OC8,0.05200*%
%ADD12C,0.05200*%
%ADD13C,0.05200*%
%ADD14OC8,0.06000*%
%ADD15C,0.04400*%
%ADD16R,0.05150X0.05150*%
%ADD17R,0.07087X0.07087*%
%ADD18C,0.02000*%
%ADD19C,0.02400*%
%ADD20C,0.01200*%
D10*
X0001300Y0001250D02*
X0001300Y0198100D01*
X0395001Y0198100D01*
X0395001Y0001250D01*
X0001300Y0001250D01*
D11*
X0011300Y0045250D03*
X0033800Y0045250D03*
X0036300Y0061250D03*
X0036300Y0071250D03*
X0006300Y0071250D03*
X0006300Y0061250D03*
X0006300Y0101250D03*
X0006300Y0111250D03*
X0006300Y0121250D03*
X0006300Y0131250D03*
X0006300Y0141250D03*
X0006300Y0151250D03*
X0006300Y0161250D03*
X0006300Y0171250D03*
X0006300Y0181250D03*
X0006300Y0191250D03*
X0036300Y0191250D03*
X0051300Y0191250D03*
X0061300Y0191250D03*
X0073800Y0191250D03*
X0073800Y0181250D03*
X0061300Y0181250D03*
X0051300Y0181250D03*
X0036300Y0181250D03*
X0036300Y0171250D03*
X0036300Y0161250D03*
X0036300Y0151250D03*
X0036300Y0141250D03*
X0036300Y0131250D03*
X0036300Y0121250D03*
X0036300Y0111250D03*
X0036300Y0101250D03*
X0128800Y0111250D03*
X0138800Y0111250D03*
X0138800Y0121250D03*
X0128800Y0121250D03*
X0153800Y0126250D03*
X0163800Y0126250D03*
X0173800Y0126250D03*
X0183800Y0126250D03*
X0178800Y0136250D03*
X0168800Y0136250D03*
X0158800Y0136250D03*
X0148800Y0136250D03*
X0138800Y0136250D03*
X0138800Y0166250D03*
X0148800Y0166250D03*
X0158800Y0166250D03*
X0168800Y0166250D03*
X0178800Y0166250D03*
X0251300Y0181250D03*
X0251300Y0191250D03*
X0281300Y0191250D03*
X0291300Y0191250D03*
X0301300Y0191250D03*
X0316300Y0191250D03*
X0326300Y0191250D03*
X0326300Y0181250D03*
X0316300Y0181250D03*
X0301300Y0181250D03*
X0291300Y0181250D03*
X0281300Y0181250D03*
X0281300Y0166250D03*
X0296300Y0166250D03*
X0311300Y0161250D03*
X0311300Y0151250D03*
X0311300Y0141250D03*
X0296300Y0136250D03*
X0296300Y0126250D03*
X0286300Y0126250D03*
X0281300Y0136250D03*
X0311300Y0131250D03*
X0311300Y0121250D03*
X0296300Y0116250D03*
X0286300Y0116250D03*
X0311300Y0111250D03*
X0341300Y0111250D03*
X0356300Y0111250D03*
X0356300Y0121250D03*
X0341300Y0121250D03*
X0341300Y0131250D03*
X0356300Y0131250D03*
X0341300Y0141250D03*
X0341300Y0151250D03*
X0341300Y0161250D03*
X0365300Y0153750D03*
X0387800Y0153750D03*
X0386300Y0131250D03*
X0386300Y0121250D03*
X0386300Y0111250D03*
X0341300Y0091250D03*
X0341300Y0081250D03*
X0336300Y0071250D03*
X0346300Y0071250D03*
X0356300Y0071250D03*
X0366300Y0071250D03*
X0376300Y0071250D03*
X0386300Y0071250D03*
X0386300Y0041250D03*
X0376300Y0041250D03*
X0366300Y0041250D03*
X0356300Y0041250D03*
X0346300Y0041250D03*
X0336300Y0041250D03*
X0326300Y0041250D03*
X0316300Y0041250D03*
X0316300Y0071250D03*
X0326300Y0071250D03*
X0311300Y0081250D03*
X0311300Y0091250D03*
X0183800Y0096250D03*
X0173800Y0096250D03*
X0163800Y0096250D03*
X0153800Y0096250D03*
X0153800Y0086250D03*
X0163800Y0086250D03*
X0163800Y0056250D03*
X0153800Y0056250D03*
X0158800Y0045250D03*
X0181300Y0045250D03*
X0103800Y0181250D03*
X0103800Y0191250D03*
D12*
X0357300Y0153750D03*
X0379800Y0153750D03*
X0181300Y0037250D03*
X0158800Y0037250D03*
X0033800Y0037250D03*
X0011300Y0037250D03*
D13*
X0048800Y0043650D02*
X0048800Y0048850D01*
X0058800Y0048850D02*
X0058800Y0043650D01*
X0068800Y0043650D02*
X0068800Y0048850D01*
X0078800Y0048850D02*
X0078800Y0043650D01*
X0088800Y0043650D02*
X0088800Y0048850D01*
X0098800Y0048850D02*
X0098800Y0043650D01*
X0108800Y0043650D02*
X0108800Y0048850D01*
X0108800Y0073650D02*
X0108800Y0078850D01*
X0098800Y0078850D02*
X0098800Y0073650D01*
X0088800Y0073650D02*
X0088800Y0078850D01*
X0078800Y0078850D02*
X0078800Y0073650D01*
X0068800Y0073650D02*
X0068800Y0078850D01*
X0058800Y0078850D02*
X0058800Y0073650D01*
X0048800Y0073650D02*
X0048800Y0078850D01*
X0033900Y0081250D02*
X0028700Y0081250D01*
X0013900Y0081250D02*
X0008700Y0081250D01*
X0008700Y0091250D02*
X0013900Y0091250D01*
X0028700Y0091250D02*
X0033900Y0091250D01*
X0048800Y0088650D02*
X0048800Y0093850D01*
X0058800Y0093850D02*
X0058800Y0088650D01*
X0068800Y0088650D02*
X0068800Y0093850D01*
X0078800Y0093850D02*
X0078800Y0088650D01*
X0088800Y0088650D02*
X0088800Y0093850D01*
X0098800Y0093850D02*
X0098800Y0088650D01*
X0108800Y0088650D02*
X0108800Y0093850D01*
X0108800Y0118650D02*
X0108800Y0123850D01*
X0098800Y0123850D02*
X0098800Y0118650D01*
X0088800Y0118650D02*
X0088800Y0123850D01*
X0078800Y0123850D02*
X0078800Y0118650D01*
X0068800Y0118650D02*
X0068800Y0123850D01*
X0058800Y0123850D02*
X0058800Y0118650D01*
X0048800Y0118650D02*
X0048800Y0123850D01*
X0048800Y0133650D02*
X0048800Y0138850D01*
X0058800Y0138850D02*
X0058800Y0133650D01*
X0068800Y0133650D02*
X0068800Y0138850D01*
X0078800Y0138850D02*
X0078800Y0133650D01*
X0088800Y0133650D02*
X0088800Y0138850D01*
X0098800Y0138850D02*
X0098800Y0133650D01*
X0108800Y0133650D02*
X0108800Y0138850D01*
X0108800Y0163650D02*
X0108800Y0168850D01*
X0098800Y0168850D02*
X0098800Y0163650D01*
X0088800Y0163650D02*
X0088800Y0168850D01*
X0078800Y0168850D02*
X0078800Y0163650D01*
X0068800Y0163650D02*
X0068800Y0168850D01*
X0058800Y0168850D02*
X0058800Y0163650D01*
X0048800Y0163650D02*
X0048800Y0168850D01*
X0113700Y0181250D02*
X0118900Y0181250D01*
X0133700Y0181250D02*
X0138900Y0181250D01*
X0138900Y0191250D02*
X0133700Y0191250D01*
X0118900Y0191250D02*
X0113700Y0191250D01*
X0206300Y0168850D02*
X0206300Y0163650D01*
X0216300Y0163650D02*
X0216300Y0168850D01*
X0226300Y0168850D02*
X0226300Y0163650D01*
X0236300Y0163650D02*
X0236300Y0168850D01*
X0246300Y0168850D02*
X0246300Y0163650D01*
X0256300Y0163650D02*
X0256300Y0168850D01*
X0266300Y0168850D02*
X0266300Y0163650D01*
X0238900Y0181250D02*
X0233700Y0181250D01*
X0218900Y0181250D02*
X0213700Y0181250D01*
X0213700Y0191250D02*
X0218900Y0191250D01*
X0233700Y0191250D02*
X0238900Y0191250D01*
X0236300Y0138850D02*
X0236300Y0133650D01*
X0226300Y0133650D02*
X0226300Y0138850D01*
X0216300Y0138850D02*
X0216300Y0133650D01*
X0206300Y0133650D02*
X0206300Y0138850D01*
X0206300Y0123850D02*
X0206300Y0118650D01*
X0216300Y0118650D02*
X0216300Y0123850D01*
X0226300Y0123850D02*
X0226300Y0118650D01*
X0236300Y0118650D02*
X0236300Y0123850D01*
X0246300Y0123850D02*
X0246300Y0118650D01*
X0256300Y0118650D02*
X0256300Y0123850D01*
X0266300Y0123850D02*
X0266300Y0118650D01*
X0266300Y0133650D02*
X0266300Y0138850D01*
X0256300Y0138850D02*
X0256300Y0133650D01*
X0246300Y0133650D02*
X0246300Y0138850D01*
X0246300Y0093850D02*
X0246300Y0088650D01*
X0256300Y0088650D02*
X0256300Y0093850D01*
X0266300Y0093850D02*
X0266300Y0088650D01*
X0266300Y0078850D02*
X0266300Y0073650D01*
X0256300Y0073650D02*
X0256300Y0078850D01*
X0246300Y0078850D02*
X0246300Y0073650D01*
X0236300Y0073650D02*
X0236300Y0078850D01*
X0226300Y0078850D02*
X0226300Y0073650D01*
X0216300Y0073650D02*
X0216300Y0078850D01*
X0206300Y0078850D02*
X0206300Y0073650D01*
X0188800Y0078650D02*
X0188800Y0083850D01*
X0178800Y0083850D02*
X0178800Y0078650D01*
X0206300Y0088650D02*
X0206300Y0093850D01*
X0216300Y0093850D02*
X0216300Y0088650D01*
X0226300Y0088650D02*
X0226300Y0093850D01*
X0236300Y0093850D02*
X0236300Y0088650D01*
X0188800Y0063850D02*
X0188800Y0058650D01*
X0178800Y0058650D02*
X0178800Y0063850D01*
X0206300Y0048850D02*
X0206300Y0043650D01*
X0216300Y0043650D02*
X0216300Y0048850D01*
X0226300Y0048850D02*
X0226300Y0043650D01*
X0236300Y0043650D02*
X0236300Y0048850D01*
X0246300Y0048850D02*
X0246300Y0043650D01*
X0256300Y0043650D02*
X0256300Y0048850D01*
X0266300Y0048850D02*
X0266300Y0043650D01*
D14*
X0196300Y0181250D03*
X0186300Y0181250D03*
X0176300Y0181250D03*
X0166300Y0181250D03*
X0156300Y0181250D03*
X0156300Y0191250D03*
X0166300Y0191250D03*
X0176300Y0191250D03*
X0186300Y0191250D03*
X0196300Y0191250D03*
X0346300Y0191250D03*
X0356300Y0191250D03*
X0366300Y0191250D03*
X0376300Y0191250D03*
X0386300Y0191250D03*
X0386300Y0181250D03*
X0376300Y0181250D03*
X0366300Y0181250D03*
X0356300Y0181250D03*
X0346300Y0181250D03*
D15*
X0291300Y0101250D03*
X0281300Y0091250D03*
X0291300Y0081250D03*
X0291300Y0066250D03*
X0281300Y0056250D03*
X0291300Y0046250D03*
X0131300Y0043750D03*
X0121300Y0053750D03*
X0131300Y0063750D03*
X0131300Y0076250D03*
X0121300Y0086250D03*
X0131300Y0096250D03*
D16*
X0133347Y0020935D03*
X0123347Y0020935D03*
X0113347Y0020935D03*
X0086103Y0020935D03*
X0076103Y0020935D03*
X0066103Y0020935D03*
X0038859Y0020935D03*
X0028859Y0020935D03*
X0018859Y0020935D03*
X0160591Y0020935D03*
X0170591Y0020935D03*
X0180591Y0020935D03*
D17*
X0207206Y0025659D03*
X0207206Y0010699D03*
X0244213Y0010699D03*
X0254450Y0010699D03*
X0254450Y0025659D03*
X0244213Y0025659D03*
X0291457Y0025659D03*
X0301694Y0025659D03*
X0301694Y0010699D03*
X0291457Y0010699D03*
X0338702Y0010699D03*
X0348938Y0010699D03*
X0348938Y0025659D03*
X0338702Y0025659D03*
X0385946Y0025659D03*
X0385946Y0010699D03*
D18*
X0385158Y0011093D01*
X0349725Y0011093D01*
X0348938Y0010699D01*
X0348741Y0011093D01*
X0338898Y0011093D01*
X0338702Y0010699D01*
X0337914Y0011093D01*
X0302481Y0011093D01*
X0301694Y0010699D01*
X0301497Y0011093D01*
X0291654Y0011093D01*
X0291457Y0010699D01*
X0290670Y0011093D01*
X0255237Y0011093D01*
X0254450Y0010699D01*
X0254253Y0011093D01*
X0244410Y0011093D01*
X0244213Y0010699D01*
X0243426Y0011093D01*
X0207993Y0011093D01*
X0207206Y0010699D01*
X0207993Y0012077D01*
X0186339Y0033730D01*
X0186339Y0044557D01*
X0181418Y0044557D01*
X0181300Y0045250D01*
X0180434Y0045541D01*
X0159765Y0045541D01*
X0158800Y0045250D01*
X0131221Y0063258D02*
X0131300Y0063750D01*
X0131221Y0063258D02*
X0052481Y0063258D01*
X0034765Y0045541D01*
X0033800Y0045250D01*
X0033780Y0045541D01*
X0012127Y0045541D01*
X0011300Y0045250D01*
X0006300Y0061250D02*
X0006221Y0061289D01*
X0006221Y0071132D01*
X0006300Y0071250D01*
X0006300Y0101250D02*
X0007206Y0101644D01*
X0012127Y0106565D01*
X0012127Y0116407D01*
X0044607Y0116407D01*
X0048544Y0120344D01*
X0048800Y0121250D01*
X0049528Y0121329D01*
X0053465Y0121329D01*
X0053465Y0140030D01*
X0057402Y0143967D01*
X0071182Y0143967D01*
X0078072Y0137077D01*
X0078800Y0136250D01*
X0058387Y0111486D02*
X0049528Y0120344D01*
X0048800Y0121250D01*
X0058387Y0111486D02*
X0128269Y0111486D01*
X0128800Y0111250D01*
X0129253Y0110502D01*
X0139095Y0100659D01*
X0179450Y0100659D01*
X0183387Y0096722D01*
X0183800Y0096250D01*
X0173800Y0096250D02*
X0173544Y0096722D01*
X0164686Y0096722D01*
X0163800Y0096250D01*
X0163702Y0095738D01*
X0163702Y0086880D01*
X0163800Y0086250D01*
X0162717Y0086880D01*
X0153859Y0086880D01*
X0153800Y0086250D01*
X0170591Y0081959D02*
X0177481Y0088848D01*
X0200119Y0088848D01*
X0205040Y0083927D01*
X0228662Y0083927D01*
X0235552Y0077037D01*
X0236300Y0076250D01*
X0243426Y0053415D02*
X0236536Y0046526D01*
X0236300Y0046250D01*
X0243426Y0053415D02*
X0251300Y0053415D01*
X0251300Y0042589D01*
X0255237Y0038652D01*
X0289686Y0038652D01*
X0296576Y0045541D01*
X0358583Y0045541D01*
X0361536Y0042589D01*
X0364489Y0042589D01*
X0365473Y0041604D01*
X0366300Y0041250D01*
X0366457Y0041604D01*
X0376300Y0041604D01*
X0376300Y0041250D01*
X0386300Y0111250D02*
X0386143Y0111486D01*
X0386143Y0120344D01*
X0386300Y0121250D01*
X0341851Y0151841D02*
X0341300Y0151250D01*
X0341851Y0151841D02*
X0341851Y0158730D01*
X0359568Y0158730D01*
X0364489Y0153809D01*
X0365300Y0153750D01*
X0365473Y0153809D01*
X0379253Y0153809D01*
X0379800Y0153750D01*
X0387127Y0153809D02*
X0387800Y0153750D01*
X0387127Y0153809D02*
X0387127Y0175463D01*
X0382206Y0175463D01*
X0382206Y0176447D01*
X0386143Y0180384D01*
X0386300Y0181250D01*
X0387127Y0181368D01*
X0387127Y0191211D01*
X0386300Y0191250D01*
X0376300Y0191250D02*
X0376300Y0181250D01*
X0376300Y0181368D01*
X0366457Y0181368D01*
X0366300Y0181250D01*
X0365473Y0181368D01*
X0361536Y0181368D01*
X0361536Y0191211D01*
X0356615Y0191211D01*
X0356300Y0191250D01*
X0361536Y0191211D02*
X0365473Y0191211D01*
X0366300Y0191250D01*
X0361536Y0181368D02*
X0356615Y0181368D01*
X0356300Y0181250D01*
X0346300Y0181250D02*
X0345788Y0181368D01*
X0345788Y0190226D01*
X0346300Y0191250D01*
X0345788Y0191211D01*
X0327087Y0191211D01*
X0326300Y0191250D01*
X0316300Y0191250D02*
X0316261Y0191211D01*
X0316261Y0186289D01*
X0281812Y0186289D01*
X0202087Y0186289D01*
X0197166Y0191211D01*
X0196300Y0191250D01*
X0156300Y0181250D02*
X0155828Y0180384D01*
X0151891Y0176447D01*
X0101694Y0176447D01*
X0097757Y0180384D01*
X0074135Y0180384D01*
X0073800Y0181250D01*
X0036733Y0150856D02*
X0036300Y0151250D01*
X0036733Y0150856D02*
X0036733Y0141998D01*
X0036300Y0141250D01*
X0035749Y0141014D01*
X0026891Y0132156D01*
X0007206Y0132156D01*
X0006300Y0131250D01*
X0006300Y0121250D02*
X0007206Y0120344D01*
X0012127Y0120344D01*
X0012127Y0116407D01*
X0079056Y0077037D02*
X0085946Y0083927D01*
X0117442Y0083927D01*
X0119410Y0081959D01*
X0170591Y0081959D01*
X0131221Y0095738D02*
X0131300Y0096250D01*
X0131221Y0095738D02*
X0113505Y0095738D01*
X0109568Y0091801D01*
X0108800Y0091250D01*
X0079056Y0077037D02*
X0078800Y0076250D01*
X0138800Y0121250D02*
X0139095Y0121329D01*
X0147954Y0121329D01*
X0152875Y0126250D01*
X0153800Y0126250D01*
X0206300Y0121250D02*
X0207009Y0121329D01*
X0214883Y0129203D01*
X0228662Y0129203D01*
X0235552Y0136093D01*
X0236300Y0136250D01*
X0243426Y0158730D02*
X0236536Y0165620D01*
X0236300Y0166250D01*
X0243426Y0158730D02*
X0279843Y0158730D01*
X0291654Y0170541D01*
X0316261Y0170541D01*
X0326103Y0180384D01*
X0326300Y0181250D01*
X0327087Y0180384D01*
X0331024Y0176447D01*
X0382206Y0176447D01*
X0341851Y0160699D02*
X0341851Y0158730D01*
X0341851Y0160699D02*
X0341300Y0161250D01*
X0316300Y0181250D02*
X0316261Y0181368D01*
X0316261Y0186289D01*
X0281812Y0186289D02*
X0281812Y0181368D01*
X0281300Y0181250D01*
X0281812Y0186289D02*
X0281812Y0191211D01*
X0281300Y0191250D01*
X0158780Y0166604D02*
X0158800Y0166250D01*
X0158780Y0166604D02*
X0148938Y0166604D01*
X0148800Y0166250D01*
X0013111Y0161683D02*
X0007206Y0161683D01*
X0006300Y0161250D01*
X0006221Y0161683D01*
X0006221Y0170541D01*
X0006300Y0171250D01*
X0286300Y0126250D02*
X0286733Y0126250D01*
X0286733Y0116407D01*
X0286300Y0116250D01*
X0296300Y0116250D02*
X0296576Y0116407D01*
X0296576Y0126250D01*
X0296300Y0126250D01*
D19*
X0274922Y0112470D03*
X0223741Y0145935D03*
X0288702Y0148888D03*
X0118426Y0126250D03*
X0082993Y0159715D03*
X0013111Y0161683D03*
D20*
X0016064Y0160699D02*
X0016064Y0180384D01*
X0007206Y0180384D01*
X0006300Y0181250D01*
X0008190Y0191211D02*
X0021969Y0177431D01*
X0082993Y0177431D01*
X0082993Y0163652D01*
X0088898Y0157746D01*
X0217835Y0157746D01*
X0225709Y0165620D01*
X0226300Y0166250D01*
X0216300Y0166250D02*
X0215867Y0165620D01*
X0209961Y0159715D01*
X0175513Y0159715D01*
X0169607Y0165620D01*
X0168800Y0166250D01*
X0160749Y0170541D02*
X0143032Y0170541D01*
X0139095Y0166604D01*
X0138800Y0166250D01*
X0138111Y0166604D01*
X0109568Y0166604D01*
X0108800Y0166250D01*
X0086930Y0155778D02*
X0321182Y0155778D01*
X0341851Y0135108D01*
X0342835Y0135108D01*
X0356615Y0121329D01*
X0356300Y0121250D01*
X0356615Y0121329D02*
X0376300Y0121329D01*
X0386143Y0131171D01*
X0386300Y0131250D01*
X0356300Y0131250D02*
X0355631Y0132156D01*
X0355631Y0146919D01*
X0332993Y0146919D01*
X0319213Y0160699D01*
X0311339Y0160699D01*
X0311300Y0161250D01*
X0304450Y0151841D02*
X0310355Y0145935D01*
X0316261Y0145935D01*
X0340867Y0121329D01*
X0341300Y0121250D01*
X0341851Y0120344D01*
X0346772Y0120344D01*
X0355631Y0111486D01*
X0356300Y0111250D01*
X0342835Y0105581D02*
X0376300Y0072116D01*
X0376300Y0071250D01*
X0376300Y0071132D01*
X0386143Y0071132D01*
X0386300Y0071250D01*
X0366457Y0072116D02*
X0366300Y0071250D01*
X0365473Y0071132D01*
X0356615Y0071132D01*
X0356300Y0071250D01*
X0346300Y0071250D02*
X0345788Y0072116D01*
X0340867Y0077037D01*
X0295591Y0077037D01*
X0291654Y0080974D01*
X0291300Y0081250D01*
X0290670Y0080974D01*
X0286733Y0077037D01*
X0267048Y0077037D01*
X0266300Y0076250D01*
X0266064Y0077037D01*
X0257206Y0077037D01*
X0256300Y0076250D01*
X0245394Y0090817D02*
X0238505Y0083927D01*
X0233583Y0083927D01*
X0226694Y0090817D01*
X0226300Y0091250D01*
X0229646Y0097707D02*
X0235552Y0091801D01*
X0236300Y0091250D01*
X0245394Y0090817D02*
X0246300Y0091250D01*
X0229646Y0097707D02*
X0222757Y0097707D01*
X0216300Y0091250D01*
X0219804Y0099675D02*
X0284765Y0099675D01*
X0292639Y0091801D01*
X0310355Y0091801D01*
X0311300Y0091250D01*
X0311339Y0090817D01*
X0311339Y0081959D01*
X0311300Y0081250D01*
X0323150Y0075069D02*
X0326103Y0072116D01*
X0326300Y0071250D01*
X0323150Y0075069D02*
X0294607Y0075069D01*
X0288702Y0069163D01*
X0139095Y0069163D01*
X0132206Y0076053D01*
X0131300Y0076250D01*
X0131221Y0077037D01*
X0109568Y0077037D01*
X0108800Y0076250D01*
X0108583Y0077037D01*
X0099725Y0077037D01*
X0098800Y0076250D01*
X0078072Y0090817D02*
X0071182Y0083927D01*
X0066261Y0083927D01*
X0059371Y0090817D01*
X0058800Y0091250D01*
X0068800Y0091250D02*
X0069213Y0091801D01*
X0075119Y0097707D01*
X0082009Y0097707D01*
X0087914Y0091801D01*
X0088800Y0091250D01*
X0078800Y0091250D02*
X0078072Y0090817D01*
X0058387Y0077037D02*
X0058800Y0076250D01*
X0058387Y0077037D02*
X0049528Y0077037D01*
X0048800Y0076250D01*
X0048544Y0077037D01*
X0045591Y0077037D01*
X0031812Y0090817D01*
X0031300Y0091250D01*
X0036300Y0101250D02*
X0036733Y0101644D01*
X0036733Y0110502D01*
X0036300Y0111250D01*
X0036300Y0121250D02*
X0036733Y0121329D01*
X0036733Y0131171D01*
X0036300Y0131250D01*
X0058800Y0121250D02*
X0059371Y0121329D01*
X0066261Y0128219D01*
X0081024Y0128219D01*
X0087914Y0121329D01*
X0088800Y0121250D01*
X0084961Y0114439D02*
X0079056Y0120344D01*
X0078800Y0121250D01*
X0084961Y0114439D02*
X0102678Y0114439D01*
X0108583Y0120344D01*
X0108800Y0121250D01*
X0118426Y0126250D02*
X0129253Y0115423D01*
X0204056Y0115423D01*
X0219804Y0099675D01*
X0222757Y0114439D02*
X0216851Y0120344D01*
X0216300Y0121250D01*
X0222757Y0114439D02*
X0239489Y0114439D01*
X0246300Y0121250D01*
X0243426Y0128219D02*
X0236536Y0121329D01*
X0236300Y0121250D01*
X0243426Y0128219D02*
X0259174Y0128219D01*
X0266064Y0121329D01*
X0266300Y0121250D01*
X0265080Y0128219D02*
X0268032Y0128219D01*
X0290670Y0105581D01*
X0342835Y0105581D01*
X0342835Y0095738D02*
X0366457Y0072116D01*
X0358583Y0049478D02*
X0336930Y0071132D01*
X0336300Y0071250D01*
X0358583Y0049478D02*
X0294607Y0049478D01*
X0291654Y0046526D01*
X0291300Y0046250D01*
X0290670Y0046526D01*
X0267048Y0046526D01*
X0266300Y0046250D01*
X0266064Y0046526D01*
X0257206Y0046526D01*
X0256300Y0046250D01*
X0246300Y0046250D02*
X0245394Y0045541D01*
X0239489Y0039636D01*
X0200119Y0039636D01*
X0179450Y0060305D01*
X0178800Y0061250D01*
X0178465Y0060305D01*
X0167639Y0049478D01*
X0156812Y0049478D01*
X0154843Y0047510D01*
X0154843Y0037667D01*
X0158780Y0037667D01*
X0158800Y0037250D01*
X0158780Y0036683D01*
X0143032Y0020935D01*
X0133347Y0020935D01*
X0123347Y0020935D01*
X0113505Y0020935D02*
X0113347Y0020935D01*
X0113505Y0020935D02*
X0147954Y0055384D01*
X0152875Y0055384D01*
X0153800Y0056250D01*
X0131221Y0044557D02*
X0131300Y0043750D01*
X0131221Y0044557D02*
X0130237Y0045541D01*
X0109568Y0045541D01*
X0108800Y0046250D01*
X0108583Y0046526D01*
X0099725Y0046526D01*
X0098800Y0046250D01*
X0058800Y0046250D02*
X0058387Y0046526D01*
X0049528Y0046526D01*
X0048800Y0046250D01*
X0034765Y0036683D02*
X0033800Y0037250D01*
X0034765Y0036683D02*
X0046576Y0024872D01*
X0072166Y0024872D01*
X0076103Y0020935D01*
X0086103Y0020935D01*
X0038859Y0020935D02*
X0028859Y0020935D01*
X0027875Y0020935D01*
X0012127Y0036683D01*
X0011300Y0037250D01*
X0007206Y0031762D02*
X0007206Y0057352D01*
X0021969Y0057352D01*
X0035749Y0071132D01*
X0036300Y0071250D01*
X0007206Y0031762D02*
X0018032Y0020935D01*
X0018859Y0020935D01*
X0170591Y0020935D02*
X0180591Y0020935D01*
X0181418Y0020935D01*
X0181418Y0036683D01*
X0181300Y0037250D01*
X0206300Y0046250D02*
X0207009Y0046526D01*
X0215867Y0046526D01*
X0216300Y0046250D01*
X0244213Y0025659D02*
X0251300Y0032746D01*
X0308387Y0032746D01*
X0316261Y0040620D01*
X0316300Y0041250D01*
X0326103Y0040620D02*
X0326300Y0041250D01*
X0326103Y0040620D02*
X0316261Y0030778D01*
X0296576Y0030778D01*
X0291457Y0025659D01*
X0290670Y0025856D01*
X0255237Y0025856D01*
X0254450Y0025659D01*
X0244213Y0025659D02*
X0243426Y0025856D01*
X0207993Y0025856D01*
X0207206Y0025659D01*
X0301694Y0025659D02*
X0302481Y0025856D01*
X0337914Y0025856D01*
X0338702Y0025659D01*
X0348938Y0025659D02*
X0349725Y0025856D01*
X0385158Y0025856D01*
X0385946Y0025659D01*
X0386300Y0041250D02*
X0386143Y0041604D01*
X0382206Y0045541D01*
X0362520Y0045541D01*
X0358583Y0049478D01*
X0342835Y0095738D02*
X0291654Y0095738D01*
X0274922Y0112470D01*
X0265080Y0128219D02*
X0257206Y0136093D01*
X0256300Y0136250D01*
X0246300Y0136250D02*
X0245394Y0137077D01*
X0239489Y0142982D01*
X0282796Y0142982D01*
X0288702Y0148888D01*
X0285749Y0141014D02*
X0281812Y0137077D01*
X0281300Y0136250D01*
X0270985Y0132156D02*
X0291654Y0132156D01*
X0295591Y0136093D01*
X0296300Y0136250D01*
X0285749Y0141014D02*
X0310355Y0141014D01*
X0311300Y0141250D01*
X0311300Y0131250D02*
X0311339Y0131171D01*
X0317245Y0131171D01*
X0317245Y0117392D01*
X0311339Y0111486D01*
X0311300Y0111250D01*
X0270985Y0132156D02*
X0267048Y0136093D01*
X0266300Y0136250D01*
X0239489Y0142982D02*
X0165670Y0142982D01*
X0159765Y0137077D01*
X0158800Y0136250D01*
X0153859Y0132156D02*
X0174528Y0132156D01*
X0178465Y0136093D01*
X0178800Y0136250D01*
X0186339Y0128219D02*
X0184371Y0126250D01*
X0183800Y0126250D01*
X0173800Y0126250D01*
X0186339Y0128219D02*
X0207993Y0128219D01*
X0215867Y0136093D01*
X0216300Y0136250D01*
X0223741Y0145935D02*
X0219804Y0149872D01*
X0043623Y0149872D01*
X0036733Y0156762D01*
X0012127Y0156762D01*
X0007206Y0151841D01*
X0006300Y0151250D01*
X0012127Y0156762D02*
X0016064Y0160699D01*
X0036300Y0181250D02*
X0036733Y0181368D01*
X0050513Y0181368D01*
X0051300Y0181250D01*
X0061300Y0181250D02*
X0061339Y0181368D01*
X0065276Y0185305D01*
X0099725Y0185305D01*
X0103662Y0181368D01*
X0103800Y0181250D01*
X0104646Y0181368D01*
X0115473Y0181368D01*
X0116300Y0181250D01*
X0136300Y0181250D02*
X0137127Y0181368D01*
X0142048Y0186289D01*
X0160749Y0186289D01*
X0165670Y0191211D01*
X0166300Y0191250D01*
X0164686Y0186289D02*
X0160749Y0182352D01*
X0160749Y0170541D01*
X0166654Y0180384D02*
X0173544Y0173494D01*
X0259174Y0173494D01*
X0266064Y0166604D01*
X0266300Y0166250D01*
X0267048Y0166604D01*
X0280828Y0166604D01*
X0281300Y0166250D01*
X0287717Y0177431D02*
X0254253Y0177431D01*
X0251300Y0180384D01*
X0251300Y0181250D01*
X0251300Y0181368D01*
X0236536Y0181368D01*
X0236300Y0181250D01*
X0216300Y0181250D02*
X0215867Y0181368D01*
X0213898Y0183337D01*
X0201103Y0183337D01*
X0198150Y0186289D01*
X0183387Y0186289D01*
X0178465Y0191211D01*
X0176497Y0191211D01*
X0176300Y0191250D01*
X0180434Y0186289D02*
X0164686Y0186289D01*
X0156300Y0191250D02*
X0155828Y0191211D01*
X0137127Y0191211D01*
X0136300Y0191250D01*
X0116300Y0191250D02*
X0115473Y0191211D01*
X0104646Y0191211D01*
X0103800Y0191250D01*
X0103662Y0192195D01*
X0100709Y0195148D01*
X0064292Y0195148D01*
X0061339Y0192195D01*
X0061300Y0191250D01*
X0051300Y0191250D02*
X0050513Y0191211D01*
X0036733Y0191211D01*
X0036300Y0191250D01*
X0008190Y0191211D02*
X0007206Y0191211D01*
X0006300Y0191250D01*
X0068800Y0166250D02*
X0069213Y0165620D01*
X0082993Y0151841D01*
X0304450Y0151841D01*
X0287717Y0177431D02*
X0290670Y0180384D01*
X0291300Y0181250D01*
X0291300Y0191250D02*
X0290670Y0192195D01*
X0287717Y0195148D01*
X0254253Y0195148D01*
X0251300Y0192195D01*
X0251300Y0191250D01*
X0251300Y0191211D01*
X0236536Y0191211D01*
X0236300Y0191250D01*
X0216300Y0191250D02*
X0215867Y0192195D01*
X0211930Y0196132D01*
X0190276Y0196132D01*
X0186339Y0192195D01*
X0186300Y0191250D01*
X0180434Y0186289D02*
X0185355Y0181368D01*
X0186300Y0181250D01*
X0166654Y0180384D02*
X0166300Y0181250D01*
X0086930Y0155778D02*
X0082993Y0159715D01*
X0088800Y0136250D02*
X0088898Y0136093D01*
X0095788Y0129203D01*
X0150906Y0129203D01*
X0153859Y0132156D01*
X0148800Y0136250D02*
X0147954Y0136093D01*
X0139095Y0136093D01*
X0138800Y0136250D01*
X0188800Y0081250D02*
X0189292Y0080974D01*
X0193229Y0077037D01*
X0206024Y0077037D01*
X0206300Y0076250D01*
X0207009Y0077037D01*
X0215867Y0077037D01*
X0216300Y0076250D01*
M02*
