G75*
%MOIN*%
%OFA0B0*%
%FSLAX25Y25*%
%IPPOS*%
%LPD*%
%AMOC8*
5,1,8,0,0,1.08239X$1,22.5*
%
%ADD10C,0.00000*%
D10*
X0001000Y0002875D02*
X0001000Y0167835D01*
X0392201Y0167835D01*
X0392201Y0002875D01*
X0001000Y0002875D01*
X0369701Y0065375D02*
X0369703Y0065533D01*
X0369709Y0065691D01*
X0369719Y0065849D01*
X0369733Y0066007D01*
X0369751Y0066164D01*
X0369772Y0066321D01*
X0369798Y0066477D01*
X0369828Y0066633D01*
X0369861Y0066788D01*
X0369899Y0066941D01*
X0369940Y0067094D01*
X0369985Y0067246D01*
X0370034Y0067397D01*
X0370087Y0067546D01*
X0370143Y0067694D01*
X0370203Y0067840D01*
X0370267Y0067985D01*
X0370335Y0068128D01*
X0370406Y0068270D01*
X0370480Y0068410D01*
X0370558Y0068547D01*
X0370640Y0068683D01*
X0370724Y0068817D01*
X0370813Y0068948D01*
X0370904Y0069077D01*
X0370999Y0069204D01*
X0371096Y0069329D01*
X0371197Y0069451D01*
X0371301Y0069570D01*
X0371408Y0069687D01*
X0371518Y0069801D01*
X0371631Y0069912D01*
X0371746Y0070021D01*
X0371864Y0070126D01*
X0371985Y0070228D01*
X0372108Y0070328D01*
X0372234Y0070424D01*
X0372362Y0070517D01*
X0372492Y0070607D01*
X0372625Y0070693D01*
X0372760Y0070777D01*
X0372896Y0070856D01*
X0373035Y0070933D01*
X0373176Y0071005D01*
X0373318Y0071075D01*
X0373462Y0071140D01*
X0373608Y0071202D01*
X0373755Y0071260D01*
X0373904Y0071315D01*
X0374054Y0071366D01*
X0374205Y0071413D01*
X0374357Y0071456D01*
X0374510Y0071495D01*
X0374665Y0071531D01*
X0374820Y0071562D01*
X0374976Y0071590D01*
X0375132Y0071614D01*
X0375289Y0071634D01*
X0375447Y0071650D01*
X0375604Y0071662D01*
X0375763Y0071670D01*
X0375921Y0071674D01*
X0376079Y0071674D01*
X0376237Y0071670D01*
X0376396Y0071662D01*
X0376553Y0071650D01*
X0376711Y0071634D01*
X0376868Y0071614D01*
X0377024Y0071590D01*
X0377180Y0071562D01*
X0377335Y0071531D01*
X0377490Y0071495D01*
X0377643Y0071456D01*
X0377795Y0071413D01*
X0377946Y0071366D01*
X0378096Y0071315D01*
X0378245Y0071260D01*
X0378392Y0071202D01*
X0378538Y0071140D01*
X0378682Y0071075D01*
X0378824Y0071005D01*
X0378965Y0070933D01*
X0379104Y0070856D01*
X0379240Y0070777D01*
X0379375Y0070693D01*
X0379508Y0070607D01*
X0379638Y0070517D01*
X0379766Y0070424D01*
X0379892Y0070328D01*
X0380015Y0070228D01*
X0380136Y0070126D01*
X0380254Y0070021D01*
X0380369Y0069912D01*
X0380482Y0069801D01*
X0380592Y0069687D01*
X0380699Y0069570D01*
X0380803Y0069451D01*
X0380904Y0069329D01*
X0381001Y0069204D01*
X0381096Y0069077D01*
X0381187Y0068948D01*
X0381276Y0068817D01*
X0381360Y0068683D01*
X0381442Y0068547D01*
X0381520Y0068410D01*
X0381594Y0068270D01*
X0381665Y0068128D01*
X0381733Y0067985D01*
X0381797Y0067840D01*
X0381857Y0067694D01*
X0381913Y0067546D01*
X0381966Y0067397D01*
X0382015Y0067246D01*
X0382060Y0067094D01*
X0382101Y0066941D01*
X0382139Y0066788D01*
X0382172Y0066633D01*
X0382202Y0066477D01*
X0382228Y0066321D01*
X0382249Y0066164D01*
X0382267Y0066007D01*
X0382281Y0065849D01*
X0382291Y0065691D01*
X0382297Y0065533D01*
X0382299Y0065375D01*
X0382297Y0065217D01*
X0382291Y0065059D01*
X0382281Y0064901D01*
X0382267Y0064743D01*
X0382249Y0064586D01*
X0382228Y0064429D01*
X0382202Y0064273D01*
X0382172Y0064117D01*
X0382139Y0063962D01*
X0382101Y0063809D01*
X0382060Y0063656D01*
X0382015Y0063504D01*
X0381966Y0063353D01*
X0381913Y0063204D01*
X0381857Y0063056D01*
X0381797Y0062910D01*
X0381733Y0062765D01*
X0381665Y0062622D01*
X0381594Y0062480D01*
X0381520Y0062340D01*
X0381442Y0062203D01*
X0381360Y0062067D01*
X0381276Y0061933D01*
X0381187Y0061802D01*
X0381096Y0061673D01*
X0381001Y0061546D01*
X0380904Y0061421D01*
X0380803Y0061299D01*
X0380699Y0061180D01*
X0380592Y0061063D01*
X0380482Y0060949D01*
X0380369Y0060838D01*
X0380254Y0060729D01*
X0380136Y0060624D01*
X0380015Y0060522D01*
X0379892Y0060422D01*
X0379766Y0060326D01*
X0379638Y0060233D01*
X0379508Y0060143D01*
X0379375Y0060057D01*
X0379240Y0059973D01*
X0379104Y0059894D01*
X0378965Y0059817D01*
X0378824Y0059745D01*
X0378682Y0059675D01*
X0378538Y0059610D01*
X0378392Y0059548D01*
X0378245Y0059490D01*
X0378096Y0059435D01*
X0377946Y0059384D01*
X0377795Y0059337D01*
X0377643Y0059294D01*
X0377490Y0059255D01*
X0377335Y0059219D01*
X0377180Y0059188D01*
X0377024Y0059160D01*
X0376868Y0059136D01*
X0376711Y0059116D01*
X0376553Y0059100D01*
X0376396Y0059088D01*
X0376237Y0059080D01*
X0376079Y0059076D01*
X0375921Y0059076D01*
X0375763Y0059080D01*
X0375604Y0059088D01*
X0375447Y0059100D01*
X0375289Y0059116D01*
X0375132Y0059136D01*
X0374976Y0059160D01*
X0374820Y0059188D01*
X0374665Y0059219D01*
X0374510Y0059255D01*
X0374357Y0059294D01*
X0374205Y0059337D01*
X0374054Y0059384D01*
X0373904Y0059435D01*
X0373755Y0059490D01*
X0373608Y0059548D01*
X0373462Y0059610D01*
X0373318Y0059675D01*
X0373176Y0059745D01*
X0373035Y0059817D01*
X0372896Y0059894D01*
X0372760Y0059973D01*
X0372625Y0060057D01*
X0372492Y0060143D01*
X0372362Y0060233D01*
X0372234Y0060326D01*
X0372108Y0060422D01*
X0371985Y0060522D01*
X0371864Y0060624D01*
X0371746Y0060729D01*
X0371631Y0060838D01*
X0371518Y0060949D01*
X0371408Y0061063D01*
X0371301Y0061180D01*
X0371197Y0061299D01*
X0371096Y0061421D01*
X0370999Y0061546D01*
X0370904Y0061673D01*
X0370813Y0061802D01*
X0370724Y0061933D01*
X0370640Y0062067D01*
X0370558Y0062203D01*
X0370480Y0062340D01*
X0370406Y0062480D01*
X0370335Y0062622D01*
X0370267Y0062765D01*
X0370203Y0062910D01*
X0370143Y0063056D01*
X0370087Y0063204D01*
X0370034Y0063353D01*
X0369985Y0063504D01*
X0369940Y0063656D01*
X0369899Y0063809D01*
X0369861Y0063962D01*
X0369828Y0064117D01*
X0369798Y0064273D01*
X0369772Y0064429D01*
X0369751Y0064586D01*
X0369733Y0064743D01*
X0369719Y0064901D01*
X0369709Y0065059D01*
X0369703Y0065217D01*
X0369701Y0065375D01*
M02*
