G75*
%MOIN*%
%OFA0B0*%
%FSLAX25Y25*%
%IPPOS*%
%LPD*%
%AMOC8*
5,1,8,0,0,1.08239X$1,22.5*
%
%ADD10C,0.00000*%
%ADD11C,0.05200*%
%ADD12OC8,0.06000*%
%ADD13OC8,0.05200*%
%ADD14R,0.07087X0.07087*%
%ADD15C,0.01200*%
%ADD16C,0.02000*%
D10*
X0001000Y0001250D02*
X0001000Y0086211D01*
X0394701Y0086211D01*
X0394701Y0001250D01*
X0001000Y0001250D01*
D11*
X0013400Y0071250D02*
X0018600Y0071250D01*
X0033400Y0071250D02*
X0038600Y0071250D01*
X0060900Y0071250D02*
X0066100Y0071250D01*
X0080900Y0071250D02*
X0086100Y0071250D01*
X0108400Y0071250D02*
X0113600Y0071250D01*
X0128400Y0071250D02*
X0133600Y0071250D01*
X0155900Y0071250D02*
X0161100Y0071250D01*
X0175900Y0071250D02*
X0181100Y0071250D01*
D12*
X0199701Y0066250D03*
X0209701Y0066250D03*
X0219701Y0066250D03*
X0229701Y0066250D03*
X0239701Y0066250D03*
X0239701Y0076250D03*
X0229701Y0076250D03*
X0219701Y0076250D03*
X0209701Y0076250D03*
X0199701Y0076250D03*
D13*
X0188500Y0061250D03*
X0158500Y0061250D03*
X0141000Y0061250D03*
X0111000Y0061250D03*
X0093500Y0061250D03*
X0063500Y0061250D03*
X0046000Y0061250D03*
X0016000Y0061250D03*
X0016000Y0051250D03*
X0046000Y0051250D03*
X0063500Y0051250D03*
X0093500Y0051250D03*
X0111000Y0051250D03*
X0141000Y0051250D03*
X0158500Y0051250D03*
X0188500Y0051250D03*
D14*
X0188795Y0025659D03*
X0206906Y0025659D03*
X0243913Y0025659D03*
X0254150Y0025659D03*
X0291157Y0025659D03*
X0301394Y0025659D03*
X0338402Y0025659D03*
X0348638Y0025659D03*
X0385646Y0025659D03*
X0385646Y0010699D03*
X0348638Y0010699D03*
X0338402Y0010699D03*
X0301394Y0010699D03*
X0291157Y0010699D03*
X0254150Y0010699D03*
X0243913Y0010699D03*
X0206906Y0010699D03*
X0188795Y0010699D03*
X0151787Y0010699D03*
X0141551Y0010699D03*
X0104543Y0010699D03*
X0094307Y0010699D03*
X0057299Y0010699D03*
X0047063Y0010699D03*
X0010055Y0010699D03*
X0010055Y0025659D03*
X0047063Y0025659D03*
X0057299Y0025659D03*
X0094307Y0025659D03*
X0104543Y0025659D03*
X0141551Y0025659D03*
X0151787Y0025659D03*
D15*
X0192700Y0020600D02*
X0052300Y0020600D01*
X0047350Y0025550D01*
X0047063Y0025659D01*
X0094307Y0025659D02*
X0094600Y0026000D01*
X0099100Y0030500D01*
X0248050Y0030500D01*
X0252550Y0026000D01*
X0253900Y0026000D01*
X0254150Y0025659D01*
X0249850Y0031400D02*
X0234100Y0047150D01*
X0145450Y0047150D01*
X0141400Y0051200D01*
X0141000Y0051250D01*
X0141000Y0061250D02*
X0141400Y0061550D01*
X0153100Y0061550D01*
X0158950Y0067400D01*
X0166600Y0067400D01*
X0174250Y0075050D01*
X0194950Y0075050D01*
X0198100Y0071900D01*
X0205300Y0071900D01*
X0209350Y0075950D01*
X0209701Y0076250D01*
X0215650Y0080450D02*
X0219700Y0076400D01*
X0219701Y0076250D01*
X0215650Y0080450D02*
X0159400Y0080450D01*
X0146350Y0067400D01*
X0111700Y0067400D01*
X0105850Y0061550D01*
X0093700Y0061550D01*
X0093500Y0061250D01*
X0188500Y0051250D02*
X0188650Y0051200D01*
X0232750Y0051200D01*
X0250750Y0033200D01*
X0302950Y0033200D01*
X0315550Y0020600D01*
X0342550Y0020600D01*
X0347500Y0025550D01*
X0348400Y0025550D01*
X0348638Y0025659D01*
X0338402Y0025659D02*
X0338050Y0026000D01*
X0329050Y0035000D01*
X0254800Y0035000D01*
X0223750Y0066050D01*
X0220150Y0066050D01*
X0219701Y0066250D01*
X0249850Y0031400D02*
X0294400Y0031400D01*
X0299800Y0026000D01*
X0301150Y0026000D01*
X0301394Y0025659D01*
X0206906Y0025659D02*
X0206650Y0025550D01*
X0197650Y0025550D01*
X0192700Y0020600D01*
D16*
X0199701Y0066250D02*
X0200350Y0066950D01*
X0203500Y0066950D01*
X0207550Y0071000D01*
X0231400Y0071000D01*
X0236350Y0075950D01*
X0239500Y0075950D01*
X0239701Y0076250D01*
X0199701Y0066250D02*
X0199450Y0066500D01*
X0194950Y0071000D01*
X0178750Y0071000D01*
X0178500Y0071250D01*
X0131000Y0071250D02*
X0130600Y0071450D01*
X0119350Y0071450D01*
X0115300Y0075500D01*
X0087850Y0075500D01*
X0084250Y0071900D01*
X0083500Y0071250D01*
X0083350Y0071450D01*
X0079300Y0075500D01*
X0059050Y0075500D01*
X0055000Y0071450D01*
X0036100Y0071450D01*
X0036000Y0071250D01*
M02*
