%
M48
M72
T01C0.03200
T02C0.04000
T03C0.04724
%
T01
X16000Y51250
X46000Y51250
X63500Y51250
X93500Y51250
X111000Y51250
X141000Y51250
X158500Y51250
X188500Y51250
X188500Y61250
X158500Y61250
X141000Y61250
X111000Y61250
X93500Y61250
X63500Y61250
X46000Y61250
X16000Y61250
X16000Y71250
X36000Y71250
X63500Y71250
X83500Y71250
X111000Y71250
X131000Y71250
X158500Y71250
X178500Y71250
T02
X199701Y76250
X209701Y76250
X219701Y76250
X229701Y76250
X239701Y76250
X239701Y66250
X229701Y66250
X219701Y66250
X209701Y66250
X199701Y66250
T03
X10055Y25659
X47063Y25659
X57299Y25659
X94307Y25659
X104543Y25659
X141551Y25659
X151787Y25659
X188795Y25659
X206906Y25659
X243913Y25659
X254150Y25659
X291157Y25659
X301394Y25659
X338402Y25659
X348638Y25659
X385646Y25659
X385646Y10699
X348638Y10699
X338402Y10699
X301394Y10699
X291157Y10699
X254150Y10699
X243913Y10699
X206906Y10699
X188795Y10699
X151787Y10699
X141551Y10699
X104543Y10699
X94307Y10699
X57299Y10699
X47063Y10699
X10055Y10699
M30
