%
M48
M72
T01C0.03200
T02C0.04000
T03C0.04724
%
T01
X16000Y46250
X46000Y46250
X61000Y46250
X91000Y46250
X106000Y46250
X136000Y46250
X151000Y46250
X181000Y46250
X201000Y46250
X231000Y46250
X246000Y46250
X276000Y46250
T02
X176000Y83750
X186000Y83750
X196000Y83750
X206000Y83750
X216000Y83750
X216000Y73750
X206000Y73750
X196000Y73750
X186000Y73750
X176000Y73750
T03
X10055Y25659
X47063Y25659
X57299Y25659
X94307Y25659
X104543Y25659
X141551Y25659
X151787Y25659
X188795Y25659
X199031Y25659
X236039Y25659
X246276Y25659
X283283Y25659
X283283Y10699
X246276Y10699
X236039Y10699
X199031Y10699
X188795Y10699
X151787Y10699
X141551Y10699
X104543Y10699
X94307Y10699
X57299Y10699
X47063Y10699
X10055Y10699
M30
