G75*
%MOIN*%
%OFA0B0*%
%FSLAX25Y25*%
%IPPOS*%
%LPD*%
%AMOC8*
5,1,8,0,0,1.08239X$1,22.5*
%
%ADD10C,0.00000*%
%ADD11R,0.07487X0.07487*%
%ADD12OC8,0.06400*%
%ADD13OC8,0.05600*%
D10*
X0001000Y0001250D02*
X0001000Y0091211D01*
X0292339Y0091211D01*
X0292339Y0001250D01*
X0001000Y0001250D01*
D11*
X0010055Y0010699D03*
X0047063Y0010699D03*
X0057299Y0010699D03*
X0094307Y0010699D03*
X0104543Y0010699D03*
X0141551Y0010699D03*
X0151787Y0010699D03*
X0188795Y0010699D03*
X0199031Y0010699D03*
X0236039Y0010699D03*
X0246276Y0010699D03*
X0283283Y0010699D03*
X0283283Y0025659D03*
X0246276Y0025659D03*
X0236039Y0025659D03*
X0199031Y0025659D03*
X0188795Y0025659D03*
X0151787Y0025659D03*
X0141551Y0025659D03*
X0104543Y0025659D03*
X0094307Y0025659D03*
X0057299Y0025659D03*
X0047063Y0025659D03*
X0010055Y0025659D03*
D12*
X0176000Y0073750D03*
X0186000Y0073750D03*
X0196000Y0073750D03*
X0206000Y0073750D03*
X0216000Y0073750D03*
X0216000Y0083750D03*
X0206000Y0083750D03*
X0196000Y0083750D03*
X0186000Y0083750D03*
X0176000Y0083750D03*
D13*
X0181000Y0046250D03*
X0201000Y0046250D03*
X0231000Y0046250D03*
X0246000Y0046250D03*
X0276000Y0046250D03*
X0151000Y0046250D03*
X0136000Y0046250D03*
X0106000Y0046250D03*
X0091000Y0046250D03*
X0061000Y0046250D03*
X0046000Y0046250D03*
X0016000Y0046250D03*
M02*
