G75*
%MOIN*%
%OFA0B0*%
%FSLAX25Y25*%
%IPPOS*%
%LPD*%
%AMOC8*
5,1,8,0,0,1.08239X$1,22.5*
%
%ADD10C,0.00000*%
%ADD11C,0.00500*%
%ADD12C,0.00400*%
%ADD13C,0.00600*%
D10*
X0001000Y0001250D02*
X0001000Y0091211D01*
X0292339Y0091211D01*
X0292339Y0001250D01*
X0001000Y0001250D01*
D11*
X0007299Y0001250D02*
X0007299Y0035108D01*
X0049819Y0035108D01*
X0049819Y0001250D01*
X0028559Y0001250D01*
X0028559Y0017785D01*
X0075803Y0017785D02*
X0075803Y0001250D01*
X0054543Y0001250D01*
X0054543Y0035108D01*
X0097063Y0035108D01*
X0097063Y0001250D01*
X0075803Y0001250D01*
X0101787Y0001250D02*
X0101787Y0035108D01*
X0144307Y0035108D01*
X0144307Y0001250D01*
X0123047Y0001250D01*
X0123047Y0017785D01*
X0170291Y0017785D02*
X0170291Y0001250D01*
X0149031Y0001250D01*
X0149031Y0035108D01*
X0191551Y0035108D01*
X0191551Y0001250D01*
X0170291Y0001250D01*
X0196276Y0001250D02*
X0196276Y0035108D01*
X0238795Y0035108D01*
X0238795Y0001250D01*
X0217535Y0001250D01*
X0217535Y0017785D01*
X0264780Y0017785D02*
X0264780Y0001250D01*
X0243520Y0001250D01*
X0243520Y0035108D01*
X0286039Y0035108D01*
X0286039Y0001250D01*
X0264780Y0001250D01*
X0217535Y0001250D02*
X0196276Y0001250D01*
X0123047Y0001250D02*
X0101787Y0001250D01*
X0028559Y0001250D02*
X0007299Y0001250D01*
X0021250Y0052000D02*
X0021250Y0056504D01*
X0023502Y0056504D01*
X0024253Y0055753D01*
X0024253Y0054252D01*
X0023502Y0053501D01*
X0021250Y0053501D01*
X0022751Y0053501D02*
X0024253Y0052000D01*
X0025854Y0052751D02*
X0026605Y0052000D01*
X0028106Y0052000D01*
X0028856Y0052751D01*
X0028856Y0053501D01*
X0028106Y0054252D01*
X0027355Y0054252D01*
X0028106Y0054252D02*
X0028856Y0055003D01*
X0028856Y0055753D01*
X0028106Y0056504D01*
X0026605Y0056504D01*
X0025854Y0055753D01*
X0066250Y0056504D02*
X0066250Y0052000D01*
X0067751Y0053501D02*
X0069253Y0052000D01*
X0070854Y0052000D02*
X0073856Y0055003D01*
X0073856Y0055753D01*
X0073106Y0056504D01*
X0071605Y0056504D01*
X0070854Y0055753D01*
X0069253Y0055753D02*
X0068502Y0056504D01*
X0066250Y0056504D01*
X0069253Y0055753D02*
X0069253Y0054252D01*
X0068502Y0053501D01*
X0066250Y0053501D01*
X0070854Y0052000D02*
X0073856Y0052000D01*
X0111250Y0052000D02*
X0111250Y0056504D01*
X0113502Y0056504D01*
X0114253Y0055753D01*
X0114253Y0054252D01*
X0113502Y0053501D01*
X0111250Y0053501D01*
X0112751Y0053501D02*
X0114253Y0052000D01*
X0115854Y0052000D02*
X0118856Y0052000D01*
X0117355Y0052000D02*
X0117355Y0056504D01*
X0115854Y0055003D01*
X0156250Y0056504D02*
X0156250Y0052000D01*
X0157751Y0053501D02*
X0159253Y0052000D01*
X0160854Y0052751D02*
X0161605Y0052000D01*
X0163106Y0052000D01*
X0163856Y0052751D01*
X0163856Y0053501D01*
X0163106Y0054252D01*
X0160854Y0054252D01*
X0160854Y0052751D01*
X0160854Y0054252D02*
X0162355Y0055753D01*
X0163856Y0056504D01*
X0159253Y0055753D02*
X0159253Y0054252D01*
X0158502Y0053501D01*
X0156250Y0053501D01*
X0158502Y0056504D02*
X0159253Y0055753D01*
X0158502Y0056504D02*
X0156250Y0056504D01*
X0206250Y0056504D02*
X0206250Y0052000D01*
X0207751Y0053501D02*
X0209253Y0052000D01*
X0210854Y0052751D02*
X0211605Y0052000D01*
X0213106Y0052000D01*
X0213856Y0052751D01*
X0213856Y0054252D01*
X0213106Y0055003D01*
X0212355Y0055003D01*
X0210854Y0054252D01*
X0210854Y0056504D01*
X0213856Y0056504D01*
X0209253Y0055753D02*
X0209253Y0054252D01*
X0208502Y0053501D01*
X0206250Y0053501D01*
X0208502Y0056504D02*
X0209253Y0055753D01*
X0208502Y0056504D02*
X0206250Y0056504D01*
X0232499Y0065188D02*
X0233250Y0065939D01*
X0233250Y0066689D01*
X0232499Y0067440D01*
X0228746Y0067440D01*
X0228746Y0066689D02*
X0228746Y0068191D01*
X0223500Y0068750D02*
X0223500Y0088750D01*
X0233250Y0077399D02*
X0233250Y0074396D01*
X0230247Y0074396D02*
X0228746Y0075897D01*
X0233250Y0075897D01*
X0230998Y0072795D02*
X0231749Y0072044D01*
X0231749Y0069792D01*
X0233250Y0069792D02*
X0228746Y0069792D01*
X0228746Y0072044D01*
X0229497Y0072795D01*
X0230998Y0072795D01*
X0251250Y0056504D02*
X0253502Y0056504D01*
X0254253Y0055753D01*
X0254253Y0054252D01*
X0253502Y0053501D01*
X0251250Y0053501D01*
X0252751Y0053501D02*
X0254253Y0052000D01*
X0251250Y0052000D02*
X0251250Y0056504D01*
X0255854Y0054252D02*
X0258106Y0056504D01*
X0258106Y0052000D01*
X0258856Y0054252D02*
X0255854Y0054252D01*
D12*
X0237854Y0040424D02*
X0234785Y0040424D01*
X0234785Y0038122D01*
X0236320Y0038889D01*
X0237087Y0038889D01*
X0237854Y0038122D01*
X0237854Y0036587D01*
X0237087Y0035820D01*
X0235552Y0035820D01*
X0234785Y0036587D01*
X0232483Y0036587D02*
X0232483Y0040424D01*
X0231716Y0040424D02*
X0233250Y0040424D01*
X0232483Y0036587D02*
X0231716Y0035820D01*
X0230948Y0035820D01*
X0230181Y0036587D01*
X0190610Y0036587D02*
X0189843Y0035820D01*
X0188308Y0035820D01*
X0187541Y0036587D01*
X0187541Y0038122D01*
X0189843Y0038122D01*
X0190610Y0037355D01*
X0190610Y0036587D01*
X0185239Y0036587D02*
X0185239Y0040424D01*
X0184472Y0040424D02*
X0186006Y0040424D01*
X0187541Y0038122D02*
X0189076Y0039657D01*
X0190610Y0040424D01*
X0185239Y0036587D02*
X0184472Y0035820D01*
X0183704Y0035820D01*
X0182937Y0036587D01*
X0143366Y0035820D02*
X0140297Y0035820D01*
X0141831Y0035820D02*
X0141831Y0040424D01*
X0140297Y0038889D01*
X0138762Y0040424D02*
X0137228Y0040424D01*
X0137995Y0040424D02*
X0137995Y0036587D01*
X0137228Y0035820D01*
X0136460Y0035820D01*
X0135693Y0036587D01*
X0096122Y0035820D02*
X0093053Y0035820D01*
X0096122Y0038889D01*
X0096122Y0039657D01*
X0095355Y0040424D01*
X0093820Y0040424D01*
X0093053Y0039657D01*
X0091518Y0040424D02*
X0089983Y0040424D01*
X0090751Y0040424D02*
X0090751Y0036587D01*
X0089983Y0035820D01*
X0089216Y0035820D01*
X0088449Y0036587D01*
X0048878Y0036587D02*
X0048111Y0035820D01*
X0046576Y0035820D01*
X0045809Y0036587D01*
X0043507Y0036587D02*
X0042739Y0035820D01*
X0041972Y0035820D01*
X0041205Y0036587D01*
X0043507Y0036587D02*
X0043507Y0040424D01*
X0044274Y0040424D02*
X0042739Y0040424D01*
X0045809Y0039657D02*
X0046576Y0040424D01*
X0048111Y0040424D01*
X0048878Y0039657D01*
X0048878Y0038889D01*
X0048111Y0038122D01*
X0048878Y0037355D01*
X0048878Y0036587D01*
X0048111Y0038122D02*
X0047343Y0038122D01*
X0277425Y0036587D02*
X0278193Y0035820D01*
X0278960Y0035820D01*
X0279727Y0036587D01*
X0279727Y0040424D01*
X0278960Y0040424D02*
X0280494Y0040424D01*
X0282029Y0038122D02*
X0284331Y0040424D01*
X0284331Y0035820D01*
X0285098Y0038122D02*
X0282029Y0038122D01*
D13*
X0272500Y0041750D02*
X0271000Y0041750D01*
X0270500Y0042250D01*
X0251500Y0042250D01*
X0251000Y0041750D01*
X0249500Y0041750D01*
X0249440Y0041752D01*
X0249379Y0041757D01*
X0249320Y0041766D01*
X0249261Y0041779D01*
X0249202Y0041795D01*
X0249145Y0041815D01*
X0249090Y0041838D01*
X0249035Y0041865D01*
X0248983Y0041894D01*
X0248932Y0041927D01*
X0248883Y0041963D01*
X0248837Y0042001D01*
X0248793Y0042043D01*
X0248751Y0042087D01*
X0248713Y0042133D01*
X0248677Y0042182D01*
X0248644Y0042233D01*
X0248615Y0042285D01*
X0248588Y0042340D01*
X0248565Y0042395D01*
X0248545Y0042452D01*
X0248529Y0042511D01*
X0248516Y0042570D01*
X0248507Y0042629D01*
X0248502Y0042690D01*
X0248500Y0042750D01*
X0248500Y0049750D02*
X0248502Y0049810D01*
X0248507Y0049871D01*
X0248516Y0049930D01*
X0248529Y0049989D01*
X0248545Y0050048D01*
X0248565Y0050105D01*
X0248588Y0050160D01*
X0248615Y0050215D01*
X0248644Y0050267D01*
X0248677Y0050318D01*
X0248713Y0050367D01*
X0248751Y0050413D01*
X0248793Y0050457D01*
X0248837Y0050499D01*
X0248883Y0050537D01*
X0248932Y0050573D01*
X0248983Y0050606D01*
X0249035Y0050635D01*
X0249090Y0050662D01*
X0249145Y0050685D01*
X0249202Y0050705D01*
X0249261Y0050721D01*
X0249320Y0050734D01*
X0249379Y0050743D01*
X0249440Y0050748D01*
X0249500Y0050750D01*
X0251000Y0050750D01*
X0251500Y0050250D01*
X0270500Y0050250D01*
X0271000Y0050750D01*
X0272500Y0050750D01*
X0272560Y0050748D01*
X0272621Y0050743D01*
X0272680Y0050734D01*
X0272739Y0050721D01*
X0272798Y0050705D01*
X0272855Y0050685D01*
X0272910Y0050662D01*
X0272965Y0050635D01*
X0273017Y0050606D01*
X0273068Y0050573D01*
X0273117Y0050537D01*
X0273163Y0050499D01*
X0273207Y0050457D01*
X0273249Y0050413D01*
X0273287Y0050367D01*
X0273323Y0050318D01*
X0273356Y0050267D01*
X0273385Y0050215D01*
X0273412Y0050160D01*
X0273435Y0050105D01*
X0273455Y0050048D01*
X0273471Y0049989D01*
X0273484Y0049930D01*
X0273493Y0049871D01*
X0273498Y0049810D01*
X0273500Y0049750D01*
X0273500Y0042750D02*
X0273498Y0042690D01*
X0273493Y0042629D01*
X0273484Y0042570D01*
X0273471Y0042511D01*
X0273455Y0042452D01*
X0273435Y0042395D01*
X0273412Y0042340D01*
X0273385Y0042285D01*
X0273356Y0042233D01*
X0273323Y0042182D01*
X0273287Y0042133D01*
X0273249Y0042087D01*
X0273207Y0042043D01*
X0273163Y0042001D01*
X0273117Y0041963D01*
X0273068Y0041927D01*
X0273017Y0041894D01*
X0272965Y0041865D01*
X0272910Y0041838D01*
X0272855Y0041815D01*
X0272798Y0041795D01*
X0272739Y0041779D01*
X0272680Y0041766D01*
X0272621Y0041757D01*
X0272560Y0041752D01*
X0272500Y0041750D01*
X0227500Y0041750D02*
X0226000Y0041750D01*
X0225500Y0042250D01*
X0206500Y0042250D01*
X0206000Y0041750D01*
X0204500Y0041750D01*
X0204440Y0041752D01*
X0204379Y0041757D01*
X0204320Y0041766D01*
X0204261Y0041779D01*
X0204202Y0041795D01*
X0204145Y0041815D01*
X0204090Y0041838D01*
X0204035Y0041865D01*
X0203983Y0041894D01*
X0203932Y0041927D01*
X0203883Y0041963D01*
X0203837Y0042001D01*
X0203793Y0042043D01*
X0203751Y0042087D01*
X0203713Y0042133D01*
X0203677Y0042182D01*
X0203644Y0042233D01*
X0203615Y0042285D01*
X0203588Y0042340D01*
X0203565Y0042395D01*
X0203545Y0042452D01*
X0203529Y0042511D01*
X0203516Y0042570D01*
X0203507Y0042629D01*
X0203502Y0042690D01*
X0203500Y0042750D01*
X0203500Y0049750D02*
X0203502Y0049810D01*
X0203507Y0049871D01*
X0203516Y0049930D01*
X0203529Y0049989D01*
X0203545Y0050048D01*
X0203565Y0050105D01*
X0203588Y0050160D01*
X0203615Y0050215D01*
X0203644Y0050267D01*
X0203677Y0050318D01*
X0203713Y0050367D01*
X0203751Y0050413D01*
X0203793Y0050457D01*
X0203837Y0050499D01*
X0203883Y0050537D01*
X0203932Y0050573D01*
X0203983Y0050606D01*
X0204035Y0050635D01*
X0204090Y0050662D01*
X0204145Y0050685D01*
X0204202Y0050705D01*
X0204261Y0050721D01*
X0204320Y0050734D01*
X0204379Y0050743D01*
X0204440Y0050748D01*
X0204500Y0050750D01*
X0206000Y0050750D01*
X0206500Y0050250D01*
X0225500Y0050250D01*
X0226000Y0050750D01*
X0227500Y0050750D01*
X0227560Y0050748D01*
X0227621Y0050743D01*
X0227680Y0050734D01*
X0227739Y0050721D01*
X0227798Y0050705D01*
X0227855Y0050685D01*
X0227910Y0050662D01*
X0227965Y0050635D01*
X0228017Y0050606D01*
X0228068Y0050573D01*
X0228117Y0050537D01*
X0228163Y0050499D01*
X0228207Y0050457D01*
X0228249Y0050413D01*
X0228287Y0050367D01*
X0228323Y0050318D01*
X0228356Y0050267D01*
X0228385Y0050215D01*
X0228412Y0050160D01*
X0228435Y0050105D01*
X0228455Y0050048D01*
X0228471Y0049989D01*
X0228484Y0049930D01*
X0228493Y0049871D01*
X0228498Y0049810D01*
X0228500Y0049750D01*
X0228500Y0042750D02*
X0228498Y0042690D01*
X0228493Y0042629D01*
X0228484Y0042570D01*
X0228471Y0042511D01*
X0228455Y0042452D01*
X0228435Y0042395D01*
X0228412Y0042340D01*
X0228385Y0042285D01*
X0228356Y0042233D01*
X0228323Y0042182D01*
X0228287Y0042133D01*
X0228249Y0042087D01*
X0228207Y0042043D01*
X0228163Y0042001D01*
X0228117Y0041963D01*
X0228068Y0041927D01*
X0228017Y0041894D01*
X0227965Y0041865D01*
X0227910Y0041838D01*
X0227855Y0041815D01*
X0227798Y0041795D01*
X0227739Y0041779D01*
X0227680Y0041766D01*
X0227621Y0041757D01*
X0227560Y0041752D01*
X0227500Y0041750D01*
X0177500Y0041750D02*
X0176000Y0041750D01*
X0175500Y0042250D01*
X0156500Y0042250D01*
X0156000Y0041750D01*
X0154500Y0041750D01*
X0154440Y0041752D01*
X0154379Y0041757D01*
X0154320Y0041766D01*
X0154261Y0041779D01*
X0154202Y0041795D01*
X0154145Y0041815D01*
X0154090Y0041838D01*
X0154035Y0041865D01*
X0153983Y0041894D01*
X0153932Y0041927D01*
X0153883Y0041963D01*
X0153837Y0042001D01*
X0153793Y0042043D01*
X0153751Y0042087D01*
X0153713Y0042133D01*
X0153677Y0042182D01*
X0153644Y0042233D01*
X0153615Y0042285D01*
X0153588Y0042340D01*
X0153565Y0042395D01*
X0153545Y0042452D01*
X0153529Y0042511D01*
X0153516Y0042570D01*
X0153507Y0042629D01*
X0153502Y0042690D01*
X0153500Y0042750D01*
X0153500Y0049750D02*
X0153502Y0049810D01*
X0153507Y0049871D01*
X0153516Y0049930D01*
X0153529Y0049989D01*
X0153545Y0050048D01*
X0153565Y0050105D01*
X0153588Y0050160D01*
X0153615Y0050215D01*
X0153644Y0050267D01*
X0153677Y0050318D01*
X0153713Y0050367D01*
X0153751Y0050413D01*
X0153793Y0050457D01*
X0153837Y0050499D01*
X0153883Y0050537D01*
X0153932Y0050573D01*
X0153983Y0050606D01*
X0154035Y0050635D01*
X0154090Y0050662D01*
X0154145Y0050685D01*
X0154202Y0050705D01*
X0154261Y0050721D01*
X0154320Y0050734D01*
X0154379Y0050743D01*
X0154440Y0050748D01*
X0154500Y0050750D01*
X0156000Y0050750D01*
X0156500Y0050250D01*
X0175500Y0050250D01*
X0176000Y0050750D01*
X0177500Y0050750D01*
X0177560Y0050748D01*
X0177621Y0050743D01*
X0177680Y0050734D01*
X0177739Y0050721D01*
X0177798Y0050705D01*
X0177855Y0050685D01*
X0177910Y0050662D01*
X0177965Y0050635D01*
X0178017Y0050606D01*
X0178068Y0050573D01*
X0178117Y0050537D01*
X0178163Y0050499D01*
X0178207Y0050457D01*
X0178249Y0050413D01*
X0178287Y0050367D01*
X0178323Y0050318D01*
X0178356Y0050267D01*
X0178385Y0050215D01*
X0178412Y0050160D01*
X0178435Y0050105D01*
X0178455Y0050048D01*
X0178471Y0049989D01*
X0178484Y0049930D01*
X0178493Y0049871D01*
X0178498Y0049810D01*
X0178500Y0049750D01*
X0178500Y0042750D02*
X0178498Y0042690D01*
X0178493Y0042629D01*
X0178484Y0042570D01*
X0178471Y0042511D01*
X0178455Y0042452D01*
X0178435Y0042395D01*
X0178412Y0042340D01*
X0178385Y0042285D01*
X0178356Y0042233D01*
X0178323Y0042182D01*
X0178287Y0042133D01*
X0178249Y0042087D01*
X0178207Y0042043D01*
X0178163Y0042001D01*
X0178117Y0041963D01*
X0178068Y0041927D01*
X0178017Y0041894D01*
X0177965Y0041865D01*
X0177910Y0041838D01*
X0177855Y0041815D01*
X0177798Y0041795D01*
X0177739Y0041779D01*
X0177680Y0041766D01*
X0177621Y0041757D01*
X0177560Y0041752D01*
X0177500Y0041750D01*
X0132500Y0041750D02*
X0131000Y0041750D01*
X0130500Y0042250D01*
X0111500Y0042250D01*
X0111000Y0041750D01*
X0109500Y0041750D01*
X0109440Y0041752D01*
X0109379Y0041757D01*
X0109320Y0041766D01*
X0109261Y0041779D01*
X0109202Y0041795D01*
X0109145Y0041815D01*
X0109090Y0041838D01*
X0109035Y0041865D01*
X0108983Y0041894D01*
X0108932Y0041927D01*
X0108883Y0041963D01*
X0108837Y0042001D01*
X0108793Y0042043D01*
X0108751Y0042087D01*
X0108713Y0042133D01*
X0108677Y0042182D01*
X0108644Y0042233D01*
X0108615Y0042285D01*
X0108588Y0042340D01*
X0108565Y0042395D01*
X0108545Y0042452D01*
X0108529Y0042511D01*
X0108516Y0042570D01*
X0108507Y0042629D01*
X0108502Y0042690D01*
X0108500Y0042750D01*
X0108500Y0049750D02*
X0108502Y0049810D01*
X0108507Y0049871D01*
X0108516Y0049930D01*
X0108529Y0049989D01*
X0108545Y0050048D01*
X0108565Y0050105D01*
X0108588Y0050160D01*
X0108615Y0050215D01*
X0108644Y0050267D01*
X0108677Y0050318D01*
X0108713Y0050367D01*
X0108751Y0050413D01*
X0108793Y0050457D01*
X0108837Y0050499D01*
X0108883Y0050537D01*
X0108932Y0050573D01*
X0108983Y0050606D01*
X0109035Y0050635D01*
X0109090Y0050662D01*
X0109145Y0050685D01*
X0109202Y0050705D01*
X0109261Y0050721D01*
X0109320Y0050734D01*
X0109379Y0050743D01*
X0109440Y0050748D01*
X0109500Y0050750D01*
X0111000Y0050750D01*
X0111500Y0050250D01*
X0130500Y0050250D01*
X0131000Y0050750D01*
X0132500Y0050750D01*
X0132560Y0050748D01*
X0132621Y0050743D01*
X0132680Y0050734D01*
X0132739Y0050721D01*
X0132798Y0050705D01*
X0132855Y0050685D01*
X0132910Y0050662D01*
X0132965Y0050635D01*
X0133017Y0050606D01*
X0133068Y0050573D01*
X0133117Y0050537D01*
X0133163Y0050499D01*
X0133207Y0050457D01*
X0133249Y0050413D01*
X0133287Y0050367D01*
X0133323Y0050318D01*
X0133356Y0050267D01*
X0133385Y0050215D01*
X0133412Y0050160D01*
X0133435Y0050105D01*
X0133455Y0050048D01*
X0133471Y0049989D01*
X0133484Y0049930D01*
X0133493Y0049871D01*
X0133498Y0049810D01*
X0133500Y0049750D01*
X0133500Y0042750D02*
X0133498Y0042690D01*
X0133493Y0042629D01*
X0133484Y0042570D01*
X0133471Y0042511D01*
X0133455Y0042452D01*
X0133435Y0042395D01*
X0133412Y0042340D01*
X0133385Y0042285D01*
X0133356Y0042233D01*
X0133323Y0042182D01*
X0133287Y0042133D01*
X0133249Y0042087D01*
X0133207Y0042043D01*
X0133163Y0042001D01*
X0133117Y0041963D01*
X0133068Y0041927D01*
X0133017Y0041894D01*
X0132965Y0041865D01*
X0132910Y0041838D01*
X0132855Y0041815D01*
X0132798Y0041795D01*
X0132739Y0041779D01*
X0132680Y0041766D01*
X0132621Y0041757D01*
X0132560Y0041752D01*
X0132500Y0041750D01*
X0087500Y0041750D02*
X0086000Y0041750D01*
X0085500Y0042250D01*
X0066500Y0042250D01*
X0066000Y0041750D01*
X0064500Y0041750D01*
X0064440Y0041752D01*
X0064379Y0041757D01*
X0064320Y0041766D01*
X0064261Y0041779D01*
X0064202Y0041795D01*
X0064145Y0041815D01*
X0064090Y0041838D01*
X0064035Y0041865D01*
X0063983Y0041894D01*
X0063932Y0041927D01*
X0063883Y0041963D01*
X0063837Y0042001D01*
X0063793Y0042043D01*
X0063751Y0042087D01*
X0063713Y0042133D01*
X0063677Y0042182D01*
X0063644Y0042233D01*
X0063615Y0042285D01*
X0063588Y0042340D01*
X0063565Y0042395D01*
X0063545Y0042452D01*
X0063529Y0042511D01*
X0063516Y0042570D01*
X0063507Y0042629D01*
X0063502Y0042690D01*
X0063500Y0042750D01*
X0063500Y0049750D02*
X0063502Y0049810D01*
X0063507Y0049871D01*
X0063516Y0049930D01*
X0063529Y0049989D01*
X0063545Y0050048D01*
X0063565Y0050105D01*
X0063588Y0050160D01*
X0063615Y0050215D01*
X0063644Y0050267D01*
X0063677Y0050318D01*
X0063713Y0050367D01*
X0063751Y0050413D01*
X0063793Y0050457D01*
X0063837Y0050499D01*
X0063883Y0050537D01*
X0063932Y0050573D01*
X0063983Y0050606D01*
X0064035Y0050635D01*
X0064090Y0050662D01*
X0064145Y0050685D01*
X0064202Y0050705D01*
X0064261Y0050721D01*
X0064320Y0050734D01*
X0064379Y0050743D01*
X0064440Y0050748D01*
X0064500Y0050750D01*
X0066000Y0050750D01*
X0066500Y0050250D01*
X0085500Y0050250D01*
X0086000Y0050750D01*
X0087500Y0050750D01*
X0087560Y0050748D01*
X0087621Y0050743D01*
X0087680Y0050734D01*
X0087739Y0050721D01*
X0087798Y0050705D01*
X0087855Y0050685D01*
X0087910Y0050662D01*
X0087965Y0050635D01*
X0088017Y0050606D01*
X0088068Y0050573D01*
X0088117Y0050537D01*
X0088163Y0050499D01*
X0088207Y0050457D01*
X0088249Y0050413D01*
X0088287Y0050367D01*
X0088323Y0050318D01*
X0088356Y0050267D01*
X0088385Y0050215D01*
X0088412Y0050160D01*
X0088435Y0050105D01*
X0088455Y0050048D01*
X0088471Y0049989D01*
X0088484Y0049930D01*
X0088493Y0049871D01*
X0088498Y0049810D01*
X0088500Y0049750D01*
X0088500Y0042750D02*
X0088498Y0042690D01*
X0088493Y0042629D01*
X0088484Y0042570D01*
X0088471Y0042511D01*
X0088455Y0042452D01*
X0088435Y0042395D01*
X0088412Y0042340D01*
X0088385Y0042285D01*
X0088356Y0042233D01*
X0088323Y0042182D01*
X0088287Y0042133D01*
X0088249Y0042087D01*
X0088207Y0042043D01*
X0088163Y0042001D01*
X0088117Y0041963D01*
X0088068Y0041927D01*
X0088017Y0041894D01*
X0087965Y0041865D01*
X0087910Y0041838D01*
X0087855Y0041815D01*
X0087798Y0041795D01*
X0087739Y0041779D01*
X0087680Y0041766D01*
X0087621Y0041757D01*
X0087560Y0041752D01*
X0087500Y0041750D01*
X0042500Y0041750D02*
X0041000Y0041750D01*
X0040500Y0042250D01*
X0021500Y0042250D01*
X0021000Y0041750D01*
X0019500Y0041750D01*
X0019440Y0041752D01*
X0019379Y0041757D01*
X0019320Y0041766D01*
X0019261Y0041779D01*
X0019202Y0041795D01*
X0019145Y0041815D01*
X0019090Y0041838D01*
X0019035Y0041865D01*
X0018983Y0041894D01*
X0018932Y0041927D01*
X0018883Y0041963D01*
X0018837Y0042001D01*
X0018793Y0042043D01*
X0018751Y0042087D01*
X0018713Y0042133D01*
X0018677Y0042182D01*
X0018644Y0042233D01*
X0018615Y0042285D01*
X0018588Y0042340D01*
X0018565Y0042395D01*
X0018545Y0042452D01*
X0018529Y0042511D01*
X0018516Y0042570D01*
X0018507Y0042629D01*
X0018502Y0042690D01*
X0018500Y0042750D01*
X0018500Y0049750D02*
X0018502Y0049810D01*
X0018507Y0049871D01*
X0018516Y0049930D01*
X0018529Y0049989D01*
X0018545Y0050048D01*
X0018565Y0050105D01*
X0018588Y0050160D01*
X0018615Y0050215D01*
X0018644Y0050267D01*
X0018677Y0050318D01*
X0018713Y0050367D01*
X0018751Y0050413D01*
X0018793Y0050457D01*
X0018837Y0050499D01*
X0018883Y0050537D01*
X0018932Y0050573D01*
X0018983Y0050606D01*
X0019035Y0050635D01*
X0019090Y0050662D01*
X0019145Y0050685D01*
X0019202Y0050705D01*
X0019261Y0050721D01*
X0019320Y0050734D01*
X0019379Y0050743D01*
X0019440Y0050748D01*
X0019500Y0050750D01*
X0021000Y0050750D01*
X0021500Y0050250D01*
X0040500Y0050250D01*
X0041000Y0050750D01*
X0042500Y0050750D01*
X0042560Y0050748D01*
X0042621Y0050743D01*
X0042680Y0050734D01*
X0042739Y0050721D01*
X0042798Y0050705D01*
X0042855Y0050685D01*
X0042910Y0050662D01*
X0042965Y0050635D01*
X0043017Y0050606D01*
X0043068Y0050573D01*
X0043117Y0050537D01*
X0043163Y0050499D01*
X0043207Y0050457D01*
X0043249Y0050413D01*
X0043287Y0050367D01*
X0043323Y0050318D01*
X0043356Y0050267D01*
X0043385Y0050215D01*
X0043412Y0050160D01*
X0043435Y0050105D01*
X0043455Y0050048D01*
X0043471Y0049989D01*
X0043484Y0049930D01*
X0043493Y0049871D01*
X0043498Y0049810D01*
X0043500Y0049750D01*
X0043500Y0042750D02*
X0043498Y0042690D01*
X0043493Y0042629D01*
X0043484Y0042570D01*
X0043471Y0042511D01*
X0043455Y0042452D01*
X0043435Y0042395D01*
X0043412Y0042340D01*
X0043385Y0042285D01*
X0043356Y0042233D01*
X0043323Y0042182D01*
X0043287Y0042133D01*
X0043249Y0042087D01*
X0043207Y0042043D01*
X0043163Y0042001D01*
X0043117Y0041963D01*
X0043068Y0041927D01*
X0043017Y0041894D01*
X0042965Y0041865D01*
X0042910Y0041838D01*
X0042855Y0041815D01*
X0042798Y0041795D01*
X0042739Y0041779D01*
X0042680Y0041766D01*
X0042621Y0041757D01*
X0042560Y0041752D01*
X0042500Y0041750D01*
X0171000Y0071250D02*
X0171000Y0086250D01*
X0173500Y0088750D01*
X0178500Y0088750D01*
X0181000Y0086250D01*
X0181000Y0071250D01*
X0178500Y0068750D01*
X0173500Y0068750D01*
X0171000Y0071250D01*
X0181000Y0071250D02*
X0183500Y0068750D01*
X0188500Y0068750D01*
X0191000Y0071250D01*
X0191000Y0086250D01*
X0188500Y0088750D01*
X0183500Y0088750D01*
X0181000Y0086250D01*
X0191000Y0086250D02*
X0193500Y0088750D01*
X0198500Y0088750D01*
X0201000Y0086250D01*
X0201000Y0071250D01*
X0198500Y0068750D01*
X0193500Y0068750D01*
X0191000Y0071250D01*
X0201000Y0071250D02*
X0203500Y0068750D01*
X0208500Y0068750D01*
X0211000Y0071250D01*
X0211000Y0086250D01*
X0208500Y0088750D01*
X0203500Y0088750D01*
X0201000Y0086250D01*
X0211000Y0086250D02*
X0213500Y0088750D01*
X0218500Y0088750D01*
X0221000Y0086250D01*
X0221000Y0071250D01*
X0218500Y0068750D01*
X0213500Y0068750D01*
X0211000Y0071250D01*
M02*
