G75*
%MOIN*%
%OFA0B0*%
%FSLAX25Y25*%
%IPPOS*%
%LPD*%
%AMOC8*
5,1,8,0,0,1.08239X$1,22.5*
%
%ADD10C,0.00000*%
%ADD11OC8,0.05200*%
%ADD12C,0.05200*%
%ADD13C,0.05200*%
%ADD14R,0.07087X0.07087*%
%ADD15OC8,0.06000*%
%ADD16R,0.05150X0.05150*%
%ADD17C,0.06000*%
%ADD18C,0.02000*%
%ADD19C,0.02400*%
%ADD20C,0.01200*%
D10*
X0001000Y0001250D02*
X0001000Y0201211D01*
X0389583Y0201211D01*
X0389583Y0001250D01*
X0001000Y0001250D01*
D11*
X0023500Y0049750D03*
X0023500Y0074750D03*
X0046000Y0086250D03*
X0076000Y0086250D03*
X0076000Y0106250D03*
X0076000Y0116250D03*
X0046000Y0116250D03*
X0046000Y0106250D03*
X0046000Y0136250D03*
X0076000Y0136250D03*
X0096000Y0136250D03*
X0096000Y0146250D03*
X0083500Y0157250D03*
X0063500Y0156250D03*
X0048500Y0156250D03*
X0033500Y0156250D03*
X0033500Y0166250D03*
X0048500Y0166250D03*
X0063500Y0166250D03*
X0126000Y0146250D03*
X0136000Y0146250D03*
X0136000Y0136250D03*
X0126000Y0136250D03*
X0148500Y0121250D03*
X0137500Y0118750D03*
X0148500Y0111250D03*
X0148500Y0101250D03*
X0137500Y0096250D03*
X0148500Y0091250D03*
X0148500Y0081250D03*
X0137500Y0073750D03*
X0148500Y0071250D03*
X0178500Y0071250D03*
X0178500Y0081250D03*
X0178500Y0091250D03*
X0178500Y0101250D03*
X0178500Y0111250D03*
X0178500Y0121250D03*
X0166000Y0136250D03*
X0176000Y0141250D03*
X0166000Y0146250D03*
X0176000Y0151250D03*
X0236000Y0151250D03*
X0246000Y0151250D03*
X0246000Y0141250D03*
X0236000Y0141250D03*
X0236000Y0131250D03*
X0236000Y0121250D03*
X0236000Y0111250D03*
X0266000Y0111250D03*
X0281000Y0126250D03*
X0281000Y0136250D03*
X0281000Y0146250D03*
X0291000Y0161250D03*
X0301000Y0161250D03*
X0311000Y0146250D03*
X0311000Y0136250D03*
X0311000Y0126250D03*
X0326000Y0098750D03*
X0356000Y0098750D03*
X0356000Y0078750D03*
X0356000Y0066250D03*
X0326000Y0066250D03*
X0326000Y0078750D03*
X0266000Y0081250D03*
X0266000Y0091250D03*
X0236000Y0091250D03*
X0236000Y0081250D03*
X0236000Y0061250D03*
X0236000Y0051250D03*
X0226000Y0046250D03*
X0196000Y0046250D03*
X0146000Y0041250D03*
X0136000Y0041250D03*
X0266000Y0051250D03*
X0266000Y0061250D03*
X0326000Y0046250D03*
X0356000Y0046250D03*
X0353500Y0011250D03*
X0363500Y0011250D03*
X0373500Y0011250D03*
X0383500Y0011250D03*
X0361000Y0161250D03*
X0351000Y0161250D03*
X0341000Y0161250D03*
X0331000Y0161250D03*
X0331000Y0191250D03*
X0341000Y0191250D03*
X0351000Y0191250D03*
X0361000Y0191250D03*
X0301000Y0191250D03*
X0291000Y0191250D03*
X0261000Y0186250D03*
X0251000Y0186250D03*
X0251000Y0176250D03*
X0261000Y0176250D03*
D12*
X0261000Y0155750D03*
X0261000Y0136750D03*
X0129500Y0118750D03*
X0116000Y0121250D03*
X0116000Y0111250D03*
X0116000Y0101250D03*
X0129500Y0096250D03*
X0116000Y0091250D03*
X0086000Y0091250D03*
X0086000Y0101250D03*
X0086000Y0111250D03*
X0086000Y0121250D03*
X0023500Y0082750D03*
X0023500Y0057750D03*
X0129500Y0073750D03*
X0083500Y0165250D03*
D13*
X0108500Y0163850D02*
X0108500Y0158650D01*
X0118500Y0158650D02*
X0118500Y0163850D01*
X0128500Y0163850D02*
X0128500Y0158650D01*
X0138500Y0158650D02*
X0138500Y0163850D01*
X0148500Y0163850D02*
X0148500Y0158650D01*
X0158500Y0158650D02*
X0158500Y0163850D01*
X0168500Y0163850D02*
X0168500Y0158650D01*
X0188400Y0161250D02*
X0193600Y0161250D01*
X0193600Y0151250D02*
X0188400Y0151250D01*
X0188400Y0141250D02*
X0193600Y0141250D01*
X0193600Y0131250D02*
X0188400Y0131250D01*
X0188400Y0121250D02*
X0193600Y0121250D01*
X0193600Y0111250D02*
X0188400Y0111250D01*
X0188400Y0101250D02*
X0193600Y0101250D01*
X0193600Y0091250D02*
X0188400Y0091250D01*
X0188400Y0081250D02*
X0193600Y0081250D01*
X0193600Y0071250D02*
X0188400Y0071250D01*
X0188400Y0061250D02*
X0193600Y0061250D01*
X0218400Y0061250D02*
X0223600Y0061250D01*
X0223600Y0071250D02*
X0218400Y0071250D01*
X0218400Y0081250D02*
X0223600Y0081250D01*
X0223600Y0091250D02*
X0218400Y0091250D01*
X0218400Y0101250D02*
X0223600Y0101250D01*
X0238400Y0101250D02*
X0243600Y0101250D01*
X0258400Y0101250D02*
X0263600Y0101250D01*
X0278400Y0101250D02*
X0283600Y0101250D01*
X0283600Y0091250D02*
X0278400Y0091250D01*
X0278400Y0081250D02*
X0283600Y0081250D01*
X0283600Y0071250D02*
X0278400Y0071250D01*
X0263600Y0071250D02*
X0258400Y0071250D01*
X0243600Y0071250D02*
X0238400Y0071250D01*
X0278400Y0061250D02*
X0283600Y0061250D01*
X0283600Y0051250D02*
X0278400Y0051250D01*
X0308400Y0051250D02*
X0313600Y0051250D01*
X0328400Y0056250D02*
X0333600Y0056250D01*
X0348400Y0056250D02*
X0353600Y0056250D01*
X0313600Y0061250D02*
X0308400Y0061250D01*
X0308400Y0071250D02*
X0313600Y0071250D01*
X0313600Y0081250D02*
X0308400Y0081250D01*
X0328400Y0088750D02*
X0333600Y0088750D01*
X0348400Y0088750D02*
X0353600Y0088750D01*
X0313600Y0091250D02*
X0308400Y0091250D01*
X0308400Y0101250D02*
X0313600Y0101250D01*
X0313600Y0111250D02*
X0308400Y0111250D01*
X0331000Y0118650D02*
X0331000Y0123850D01*
X0341000Y0123850D02*
X0341000Y0118650D01*
X0351000Y0118650D02*
X0351000Y0123850D01*
X0361000Y0123850D02*
X0361000Y0118650D01*
X0361000Y0148650D02*
X0361000Y0153850D01*
X0351000Y0153850D02*
X0351000Y0148650D01*
X0341000Y0148650D02*
X0341000Y0153850D01*
X0331000Y0153850D02*
X0331000Y0148650D01*
X0283600Y0111250D02*
X0278400Y0111250D01*
X0223600Y0111250D02*
X0218400Y0111250D01*
X0218400Y0121250D02*
X0223600Y0121250D01*
X0223600Y0131250D02*
X0218400Y0131250D01*
X0218400Y0141250D02*
X0223600Y0141250D01*
X0223600Y0151250D02*
X0218400Y0151250D01*
X0218400Y0161250D02*
X0223600Y0161250D01*
X0223600Y0171250D02*
X0218400Y0171250D01*
X0218400Y0181250D02*
X0223600Y0181250D01*
X0223600Y0191250D02*
X0218400Y0191250D01*
X0193600Y0191250D02*
X0188400Y0191250D01*
X0168500Y0188650D02*
X0168500Y0193850D01*
X0158500Y0193850D02*
X0158500Y0188650D01*
X0148500Y0188650D02*
X0148500Y0193850D01*
X0138500Y0193850D02*
X0138500Y0188650D01*
X0128500Y0188650D02*
X0128500Y0193850D01*
X0118500Y0193850D02*
X0118500Y0188650D01*
X0108500Y0188650D02*
X0108500Y0193850D01*
X0188400Y0181250D02*
X0193600Y0181250D01*
X0193600Y0171250D02*
X0188400Y0171250D01*
X0073600Y0126250D02*
X0068400Y0126250D01*
X0053600Y0126250D02*
X0048400Y0126250D01*
X0048400Y0096250D02*
X0053600Y0096250D01*
X0068400Y0096250D02*
X0073600Y0096250D01*
X0071000Y0076350D02*
X0071000Y0071150D01*
X0081000Y0071150D02*
X0081000Y0076350D01*
X0091000Y0076350D02*
X0091000Y0071150D01*
X0101000Y0071150D02*
X0101000Y0076350D01*
X0111000Y0076350D02*
X0111000Y0071150D01*
X0111000Y0046350D02*
X0111000Y0041150D01*
X0101000Y0041150D02*
X0101000Y0046350D01*
X0091000Y0046350D02*
X0091000Y0041150D01*
X0081000Y0041150D02*
X0081000Y0046350D01*
X0071000Y0046350D02*
X0071000Y0041150D01*
X0061000Y0041150D02*
X0061000Y0046350D01*
X0051000Y0046350D02*
X0051000Y0041150D01*
X0051000Y0071150D02*
X0051000Y0076350D01*
X0061000Y0076350D02*
X0061000Y0071150D01*
X0158400Y0041250D02*
X0163600Y0041250D01*
X0178400Y0041250D02*
X0183600Y0041250D01*
D14*
X0188795Y0025659D03*
X0199031Y0025659D03*
X0199031Y0010699D03*
X0188795Y0010699D03*
X0151787Y0010699D03*
X0141551Y0010699D03*
X0141551Y0025659D03*
X0151787Y0025659D03*
X0104543Y0025659D03*
X0094307Y0025659D03*
X0094307Y0010699D03*
X0104543Y0010699D03*
X0057299Y0010699D03*
X0047063Y0010699D03*
X0047063Y0025659D03*
X0057299Y0025659D03*
X0010055Y0025659D03*
X0010055Y0010699D03*
X0236039Y0010699D03*
X0246276Y0010699D03*
X0246276Y0025659D03*
X0236039Y0025659D03*
X0283283Y0025659D03*
X0283283Y0010699D03*
D15*
X0021000Y0101250D03*
X0011000Y0101250D03*
X0011000Y0111250D03*
X0021000Y0111250D03*
X0021000Y0121250D03*
X0011000Y0121250D03*
X0011000Y0131250D03*
X0021000Y0131250D03*
X0021000Y0141250D03*
X0011000Y0141250D03*
X0018500Y0181250D03*
X0028500Y0181250D03*
X0038500Y0181250D03*
X0048500Y0181250D03*
X0058500Y0181250D03*
X0068500Y0181250D03*
X0078500Y0181250D03*
X0088500Y0181250D03*
X0088500Y0191250D03*
X0078500Y0191250D03*
X0068500Y0191250D03*
X0058500Y0191250D03*
X0048500Y0191250D03*
X0038500Y0191250D03*
X0028500Y0191250D03*
X0018500Y0191250D03*
D16*
X0302024Y0020935D03*
X0312024Y0020935D03*
X0322024Y0020935D03*
D17*
X0168500Y0053250D02*
X0168500Y0059250D01*
X0158500Y0059250D02*
X0158500Y0053250D01*
X0148500Y0053250D02*
X0148500Y0059250D01*
X0138500Y0059250D02*
X0138500Y0053250D01*
D18*
X0143650Y0048500D02*
X0160750Y0048500D01*
X0168500Y0056250D01*
X0174250Y0052100D02*
X0174250Y0139850D01*
X0175600Y0141200D01*
X0176000Y0141250D01*
X0176950Y0141200D01*
X0190900Y0141200D01*
X0191000Y0141250D01*
X0191800Y0140750D01*
X0211150Y0121400D01*
X0220600Y0121400D01*
X0221000Y0121250D01*
X0217900Y0116900D02*
X0225550Y0116900D01*
X0235450Y0126800D01*
X0235450Y0130400D01*
X0236000Y0131250D01*
X0235900Y0131300D01*
X0245800Y0141200D01*
X0246000Y0141250D01*
X0246000Y0151250D02*
X0246250Y0151550D01*
X0265600Y0170900D01*
X0265600Y0177650D01*
X0261100Y0182150D01*
X0261100Y0186200D01*
X0261000Y0186250D01*
X0259300Y0190700D02*
X0255250Y0186650D01*
X0255250Y0180350D01*
X0251200Y0176300D01*
X0251000Y0176250D01*
X0250300Y0176750D01*
X0174250Y0176750D01*
X0163000Y0188000D01*
X0163000Y0195650D01*
X0160300Y0198350D01*
X0065350Y0198350D01*
X0058600Y0191600D01*
X0058500Y0191250D01*
X0038500Y0181250D02*
X0038350Y0181250D01*
X0038350Y0156500D01*
X0033850Y0156500D01*
X0033500Y0156250D01*
X0032950Y0155600D01*
X0021250Y0143900D01*
X0021250Y0141650D01*
X0021000Y0141250D01*
X0004150Y0141200D02*
X0028900Y0165950D01*
X0033400Y0165950D01*
X0033500Y0166250D01*
X0038350Y0156500D02*
X0048250Y0156500D01*
X0048500Y0156250D01*
X0046000Y0155600D01*
X0046000Y0136250D01*
X0048500Y0156250D02*
X0049150Y0156500D01*
X0063100Y0156500D01*
X0063500Y0156250D01*
X0064000Y0156950D01*
X0083350Y0156950D01*
X0083500Y0157250D01*
X0083500Y0165250D02*
X0083800Y0165500D01*
X0086500Y0168200D01*
X0130150Y0168200D01*
X0136900Y0161450D01*
X0138250Y0161450D01*
X0138500Y0161250D01*
X0146350Y0150650D02*
X0136450Y0140750D01*
X0134200Y0140750D01*
X0130600Y0137150D01*
X0130600Y0134900D01*
X0117100Y0121400D01*
X0116200Y0121400D01*
X0116000Y0121250D01*
X0136000Y0120500D02*
X0137350Y0119150D01*
X0137500Y0118750D01*
X0138250Y0118250D01*
X0145450Y0118250D01*
X0148150Y0115550D01*
X0150400Y0115550D01*
X0153100Y0112850D01*
X0153100Y0099350D01*
X0150400Y0096650D01*
X0149500Y0096200D01*
X0153100Y0092600D01*
X0153100Y0089900D01*
X0149050Y0085850D01*
X0146800Y0085850D01*
X0138250Y0077300D01*
X0138250Y0074600D01*
X0137500Y0073750D01*
X0137800Y0073700D01*
X0137800Y0066500D01*
X0143650Y0060650D01*
X0143650Y0048500D01*
X0143650Y0044450D01*
X0145900Y0042200D01*
X0146000Y0041250D01*
X0146350Y0040850D01*
X0146350Y0031400D01*
X0151750Y0026000D01*
X0151787Y0025659D01*
X0161000Y0041250D02*
X0161200Y0041300D01*
X0163450Y0041300D01*
X0174250Y0052100D01*
X0224200Y0086750D02*
X0229600Y0081350D01*
X0235900Y0081350D01*
X0236000Y0081250D01*
X0224200Y0086750D02*
X0216550Y0086750D01*
X0213850Y0089450D01*
X0213850Y0112850D01*
X0217900Y0116900D01*
X0175600Y0149750D02*
X0166600Y0140750D01*
X0140950Y0140750D01*
X0136900Y0136700D01*
X0136000Y0136250D01*
X0136000Y0120500D01*
X0137500Y0096250D02*
X0137800Y0096200D01*
X0149500Y0096200D01*
X0081000Y0073750D02*
X0080650Y0073700D01*
X0074800Y0067850D01*
X0073900Y0050750D02*
X0065350Y0050750D01*
X0041500Y0074600D01*
X0028000Y0074600D01*
X0028000Y0087650D01*
X0015850Y0099800D01*
X0015850Y0102950D01*
X0012250Y0106550D01*
X0009100Y0106550D01*
X0004150Y0111500D01*
X0004150Y0141200D01*
X0023500Y0082750D02*
X0023500Y0082700D01*
X0019000Y0078200D01*
X0019000Y0056150D01*
X0023500Y0051650D01*
X0023500Y0049750D01*
X0023500Y0074600D02*
X0023500Y0074750D01*
X0023500Y0074600D02*
X0028000Y0074600D01*
X0073900Y0050750D02*
X0080650Y0044000D01*
X0081000Y0043750D01*
X0094150Y0010700D02*
X0057700Y0010700D01*
X0057299Y0010699D01*
X0094150Y0010700D02*
X0094307Y0010699D01*
X0199031Y0010699D02*
X0199450Y0010700D01*
X0235900Y0010700D01*
X0236039Y0010699D01*
X0311000Y0081250D02*
X0311050Y0081350D01*
X0311050Y0082700D01*
X0317800Y0089450D01*
X0317800Y0145700D01*
X0306550Y0156950D01*
X0299350Y0156950D01*
X0295300Y0161000D01*
X0295300Y0163250D01*
X0267850Y0190700D01*
X0259300Y0190700D01*
X0261000Y0176250D02*
X0260650Y0175850D01*
X0256600Y0175850D01*
X0236350Y0155600D01*
X0171550Y0155600D01*
X0166600Y0150650D01*
X0146350Y0150650D01*
X0175600Y0151100D02*
X0176000Y0151250D01*
X0175600Y0151100D02*
X0175600Y0149750D01*
X0326800Y0165500D02*
X0330850Y0161450D01*
X0331000Y0161250D01*
X0326800Y0165500D02*
X0326800Y0193400D01*
X0329050Y0195650D01*
X0332650Y0195650D01*
X0336700Y0191600D01*
X0340750Y0191600D01*
X0341000Y0191250D01*
D19*
X0074800Y0067850D03*
X0056800Y0016100D03*
X0183700Y0045800D03*
D20*
X0212950Y0075050D01*
X0245350Y0075050D01*
X0263350Y0057050D01*
X0265600Y0057050D01*
X0275500Y0047150D01*
X0284950Y0047150D01*
X0302950Y0065150D01*
X0313300Y0065150D01*
X0325900Y0077750D01*
X0325900Y0078650D01*
X0326000Y0078750D01*
X0337150Y0090800D02*
X0383500Y0044450D01*
X0383500Y0011250D01*
X0312024Y0020935D02*
X0311950Y0021050D01*
X0308800Y0021050D01*
X0284500Y0045350D01*
X0260200Y0045350D01*
X0238150Y0067400D01*
X0224650Y0067400D01*
X0221050Y0071000D01*
X0221000Y0071250D01*
X0233200Y0065150D02*
X0198550Y0030500D01*
X0165700Y0030500D01*
X0155800Y0020600D01*
X0109900Y0020600D01*
X0104950Y0025550D01*
X0104543Y0025659D01*
X0101000Y0043750D02*
X0100900Y0044000D01*
X0094600Y0050300D01*
X0083350Y0050300D01*
X0065350Y0068300D01*
X0065350Y0077750D01*
X0062650Y0080450D01*
X0058600Y0080450D01*
X0033400Y0105650D01*
X0020350Y0105650D01*
X0014950Y0111050D01*
X0011350Y0111050D01*
X0011000Y0111250D01*
X0010450Y0115550D02*
X0031150Y0115550D01*
X0046450Y0100250D01*
X0081550Y0100250D01*
X0084700Y0097100D01*
X0111700Y0097100D01*
X0115750Y0101150D01*
X0116000Y0101250D01*
X0129250Y0096200D02*
X0129500Y0096250D01*
X0129700Y0095750D01*
X0134200Y0091250D01*
X0148500Y0091250D01*
X0148500Y0101250D02*
X0148150Y0101600D01*
X0131050Y0101600D01*
X0115300Y0117350D01*
X0089650Y0117350D01*
X0086050Y0120950D01*
X0086000Y0121250D01*
X0084700Y0125450D02*
X0080200Y0120950D01*
X0080200Y0110600D01*
X0076150Y0106550D01*
X0076000Y0106250D01*
X0067150Y0102050D02*
X0085600Y0102050D01*
X0086000Y0101250D01*
X0086050Y0101600D01*
X0086050Y0111050D01*
X0086000Y0111250D01*
X0067150Y0102050D02*
X0043750Y0125450D01*
X0019000Y0125450D01*
X0014950Y0121400D01*
X0011350Y0121400D01*
X0011000Y0121250D01*
X0006400Y0122750D02*
X0006400Y0119600D01*
X0010450Y0115550D01*
X0006400Y0122750D02*
X0010900Y0127250D01*
X0010900Y0130850D01*
X0011000Y0131250D01*
X0076000Y0136250D02*
X0076150Y0136250D01*
X0080200Y0140300D01*
X0105850Y0140300D01*
X0126550Y0161000D01*
X0128350Y0161000D01*
X0128500Y0161250D01*
X0135550Y0150200D02*
X0146350Y0161000D01*
X0148150Y0161000D01*
X0148500Y0161250D01*
X0135550Y0150200D02*
X0118450Y0150200D01*
X0093700Y0125450D01*
X0084700Y0125450D01*
X0129500Y0118750D02*
X0129700Y0118700D01*
X0136900Y0111500D01*
X0148150Y0111500D01*
X0148500Y0111250D01*
X0129250Y0096200D02*
X0120250Y0087200D01*
X0086050Y0087200D01*
X0073000Y0074150D01*
X0071200Y0074150D01*
X0071000Y0073750D01*
X0067150Y0078200D02*
X0067150Y0069200D01*
X0084250Y0052100D01*
X0115300Y0052100D01*
X0141400Y0026000D01*
X0141551Y0025659D01*
X0181900Y0018800D02*
X0188650Y0025550D01*
X0188795Y0025659D01*
X0181900Y0018800D02*
X0045100Y0018800D01*
X0038350Y0025550D01*
X0010450Y0025550D01*
X0010055Y0025659D01*
X0056800Y0016100D02*
X0198550Y0016100D01*
X0203950Y0021500D01*
X0203950Y0029600D01*
X0224650Y0050300D01*
X0225100Y0050300D01*
X0235900Y0061100D01*
X0236000Y0061250D01*
X0237700Y0065150D02*
X0233200Y0065150D01*
X0237700Y0065150D02*
X0276850Y0026000D01*
X0283150Y0026000D01*
X0283283Y0025659D01*
X0281000Y0051250D02*
X0280900Y0051650D01*
X0280900Y0061100D01*
X0281000Y0061250D01*
X0281350Y0061550D01*
X0287650Y0067850D01*
X0287650Y0118700D01*
X0310600Y0141650D01*
X0310600Y0146150D01*
X0311000Y0146250D01*
X0331000Y0151250D02*
X0331300Y0151550D01*
X0331300Y0156050D01*
X0334900Y0159650D01*
X0334900Y0187550D01*
X0331300Y0191150D01*
X0331000Y0191250D01*
X0301000Y0191250D02*
X0300700Y0191600D01*
X0296200Y0191600D01*
X0292600Y0195200D01*
X0172450Y0195200D01*
X0168500Y0191250D01*
X0153100Y0184850D02*
X0135100Y0184850D01*
X0128800Y0191150D01*
X0128500Y0191250D01*
X0148500Y0191250D02*
X0148600Y0191150D01*
X0149500Y0191150D01*
X0169300Y0171350D01*
X0190900Y0171350D01*
X0191000Y0171250D01*
X0190900Y0161450D02*
X0176500Y0161450D01*
X0153100Y0184850D01*
X0190900Y0161450D02*
X0191000Y0161250D01*
X0236350Y0117350D02*
X0262000Y0117350D01*
X0280900Y0136250D01*
X0281000Y0136250D01*
X0281000Y0126250D02*
X0280900Y0125900D01*
X0270550Y0115550D01*
X0247150Y0115550D01*
X0222850Y0091250D01*
X0221000Y0091250D01*
X0221000Y0101250D02*
X0221050Y0101600D01*
X0231850Y0112400D01*
X0231850Y0112850D01*
X0236350Y0117350D01*
X0301150Y0161000D02*
X0301000Y0161250D01*
X0301150Y0161000D02*
X0305650Y0161000D01*
X0337150Y0129500D01*
X0337150Y0090800D01*
X0076000Y0086250D02*
X0075700Y0085850D01*
X0074800Y0085850D01*
X0067150Y0078200D01*
M02*
