%
M48
M72
T01C0.01200
T02C0.03150
T03C0.03200
T04C0.04000
T05C0.04724
%
T01
X56800Y16100
X74800Y67850
X183700Y45800
T02
X302024Y20935
X312024Y20935
X322024Y20935
T03
X51000Y43750
X61000Y43750
X71000Y43750
X81000Y43750
X91000Y43750
X101000Y43750
X111000Y43750
X136000Y41250
X146000Y41250
X161000Y41250
X181000Y41250
X196000Y46250
X191000Y61250
X191000Y71250
X178500Y71250
X178500Y81250
X191000Y81250
X191000Y91250
X178500Y91250
X178500Y101250
X191000Y101250
X191000Y111250
X178500Y111250
X178500Y121250
X191000Y121250
X191000Y131250
X191000Y141250
X176000Y141250
X166000Y136250
X166000Y146250
X176000Y151250
X191000Y151250
X191000Y161250
X191000Y171250
X191000Y181250
X191000Y191250
X168500Y191250
X158500Y191250
X148500Y191250
X138500Y191250
X128500Y191250
X118500Y191250
X108500Y191250
X63500Y166250
X48500Y166250
X33500Y166250
X33500Y156250
X48500Y156250
X63500Y156250
X83500Y157250
X83500Y165250
X108500Y161250
X118500Y161250
X128500Y161250
X138500Y161250
X148500Y161250
X158500Y161250
X168500Y161250
X136000Y146250
X126000Y146250
X126000Y136250
X136000Y136250
X148500Y121250
X137500Y118750
X129500Y118750
X116000Y121250
X116000Y111250
X116000Y101250
X129500Y96250
X137500Y96250
X148500Y101250
X148500Y91250
X148500Y81250
X137500Y73750
X129500Y73750
X111000Y73750
X101000Y73750
X91000Y73750
X81000Y73750
X71000Y73750
X61000Y73750
X51000Y73750
X46000Y86250
X51000Y96250
X46000Y106250
X46000Y116250
X51000Y126250
X46000Y136250
X71000Y126250
X86000Y121250
X76000Y116250
X86000Y111250
X76000Y106250
X86000Y101250
X71000Y96250
X86000Y91250
X76000Y86250
X116000Y91250
X148500Y71250
X221000Y71250
X221000Y61250
X236000Y61250
X236000Y51250
X226000Y46250
X266000Y51250
X281000Y51250
X281000Y61250
X266000Y61250
X261000Y71250
X266000Y81250
X281000Y81250
X281000Y71250
X311000Y71250
X326000Y66250
X311000Y61250
X311000Y51250
X326000Y46250
X331000Y56250
X351000Y56250
X356000Y46250
X356000Y66250
X356000Y78750
X351000Y88750
X356000Y98750
X331000Y88750
X326000Y78750
X311000Y81250
X311000Y91250
X326000Y98750
X311000Y101250
X311000Y111250
X331000Y121250
X341000Y121250
X351000Y121250
X361000Y121250
X311000Y126250
X311000Y136250
X311000Y146250
X331000Y151250
X341000Y151250
X351000Y151250
X361000Y151250
X361000Y161250
X351000Y161250
X341000Y161250
X331000Y161250
X301000Y161250
X291000Y161250
X281000Y146250
X281000Y136250
X281000Y126250
X261000Y136750
X246000Y141250
X236000Y141250
X221000Y141250
X221000Y131250
X236000Y131250
X236000Y121250
X236000Y111250
X221000Y111250
X221000Y121250
X221000Y101250
X221000Y91250
X236000Y91250
X236000Y81250
X221000Y81250
X241000Y71250
X266000Y91250
X281000Y91250
X281000Y101250
X281000Y111250
X266000Y111250
X261000Y101250
X241000Y101250
X148500Y111250
X96000Y136250
X96000Y146250
X76000Y136250
X23500Y82750
X23500Y74750
X23500Y57750
X23500Y49750
X221000Y151250
X236000Y151250
X246000Y151250
X261000Y155750
X261000Y176250
X251000Y176250
X251000Y186250
X261000Y186250
X291000Y191250
X301000Y191250
X331000Y191250
X341000Y191250
X351000Y191250
X361000Y191250
X221000Y191250
X221000Y181250
X221000Y171250
X221000Y161250
X353500Y11250
X363500Y11250
X373500Y11250
X383500Y11250
T04
X138500Y56250
X148500Y56250
X158500Y56250
X168500Y56250
X21000Y101250
X11000Y101250
X11000Y111250
X21000Y111250
X21000Y121250
X11000Y121250
X11000Y131250
X21000Y131250
X21000Y141250
X11000Y141250
X18500Y181250
X28500Y181250
X38500Y181250
X48500Y181250
X58500Y181250
X68500Y181250
X78500Y181250
X88500Y181250
X88500Y191250
X78500Y191250
X68500Y191250
X58500Y191250
X48500Y191250
X38500Y191250
X28500Y191250
X18500Y191250
T05
X10055Y25659
X10055Y10699
X47063Y10699
X57299Y10699
X57299Y25659
X47063Y25659
X94307Y25659
X104543Y25659
X104543Y10699
X94307Y10699
X141551Y10699
X151787Y10699
X151787Y25659
X141551Y25659
X188795Y25659
X199031Y25659
X199031Y10699
X188795Y10699
X236039Y10699
X246276Y10699
X246276Y25659
X236039Y25659
X283283Y25659
X283283Y10699
M30
