G75*
%MOIN*%
%OFA0B0*%
%FSLAX25Y25*%
%IPPOS*%
%LPD*%
%AMOC8*
5,1,8,0,0,1.08239X$1,22.5*
%
%ADD10C,0.00000*%
%ADD11C,0.00600*%
%ADD12C,0.00500*%
D10*
X0001000Y0001250D02*
X0001000Y0201211D01*
X0389583Y0201211D01*
X0389583Y0001250D01*
X0001000Y0001250D01*
D11*
X0008500Y0096250D02*
X0023500Y0096250D01*
X0026000Y0098750D01*
X0026000Y0103750D01*
X0023500Y0106250D01*
X0008500Y0106250D01*
X0006000Y0103750D01*
X0006000Y0098750D01*
X0008500Y0096250D01*
X0008500Y0106250D02*
X0006000Y0108750D01*
X0006000Y0113750D01*
X0008500Y0116250D01*
X0023500Y0116250D01*
X0026000Y0113750D01*
X0026000Y0108750D01*
X0023500Y0106250D01*
X0023500Y0116250D02*
X0026000Y0118750D01*
X0026000Y0123750D01*
X0023500Y0126250D01*
X0008500Y0126250D01*
X0006000Y0123750D01*
X0006000Y0118750D01*
X0008500Y0116250D01*
X0008500Y0126250D02*
X0006000Y0128750D01*
X0006000Y0133750D01*
X0008500Y0136250D01*
X0023500Y0136250D01*
X0026000Y0133750D01*
X0026000Y0128750D01*
X0023500Y0126250D01*
X0023500Y0136250D02*
X0026000Y0138750D01*
X0026000Y0143750D01*
X0023500Y0146250D01*
X0008500Y0146250D01*
X0006000Y0143750D01*
X0006000Y0138750D01*
X0008500Y0136250D01*
D12*
X0006000Y0148750D02*
X0026000Y0148750D01*
X0018460Y0152247D02*
X0017710Y0151496D01*
X0016208Y0151496D01*
X0015458Y0152247D01*
X0013856Y0152247D02*
X0013856Y0153748D01*
X0013106Y0154499D01*
X0010854Y0154499D01*
X0010854Y0156000D02*
X0010854Y0151496D01*
X0013106Y0151496D01*
X0013856Y0152247D01*
X0015458Y0156000D02*
X0018460Y0152997D01*
X0018460Y0152247D01*
X0018460Y0156000D02*
X0015458Y0156000D01*
X0008502Y0155249D02*
X0008502Y0151496D01*
X0007751Y0151496D02*
X0009253Y0151496D01*
X0008502Y0155249D02*
X0007751Y0156000D01*
X0007001Y0156000D01*
X0006250Y0155249D01*
M02*
