M48
;GenerationSoftware,Autodesk,EAGLE,9.6.2*%
;CreationDate,2024-02-16T03:36:21Z*%
FMAT,2
ICI,OFF
METRIC,TZ,000.000
T4C0.350
T3C0.813
T2C1.016
T1C1.200
%
G90
M71
T1
X83900Y50800
X48100Y50800
X60960Y50800
X65960Y50800
X70960Y50800
X11940Y52070
X88900Y50800
X93900Y50800
X43100Y50800
X38100Y50800
X2540Y52070
X2540Y48270
X11940Y48270
X17780Y52070
X27180Y52070
X17780Y48270
X27180Y48270
T2
X64770Y35560
X90170Y29210
X87630Y24130
X92710Y24130
X52070Y10160
X64770Y15240
X13970Y5080
X46990Y10160
X41910Y10160
X69850Y35560
X44450Y15240
X62230Y10160
X67310Y10160
X57150Y10160
X67310Y40640
X54610Y15240
X3810Y2540
X3810Y5080
X6350Y2540
X6350Y5080
X8890Y2540
X8890Y5080
X11430Y2540
X11430Y5080
X13970Y2540
T3
X88900Y6350
X88900Y13970
X86360Y13970
X91440Y6350
X93980Y6350
X91440Y13970
X93980Y13970
X22860Y22860
X22860Y25400
X22860Y38100
X15240Y38100
X22860Y27940
X22860Y30480
X22860Y35560
X22860Y33020
X15240Y35560
X15240Y30480
X15240Y27940
X15240Y25400
X15240Y22860
X78740Y43180
X76200Y43180
X86360Y41910
X93980Y41910
X29210Y35560
X29210Y43180
X69850Y29210
X69850Y21590
X2540Y24130
X10160Y24130
X27940Y30480
X35560Y30480
X35560Y43180
X27940Y11430
X35560Y11430
X27940Y19050
X35560Y19050
X86360Y38100
X93980Y38100
X27940Y15240
X35560Y15240
X38100Y43180
X38100Y35560
X24130Y11430
X16510Y11430
X16510Y15240
X24130Y15240
X2540Y27940
X10160Y27940
X40640Y35560
X40640Y43180
X15240Y33020
X58420Y41910
X58420Y34290
X45720Y26670
X38100Y26670
X38100Y22860
X45720Y22860
X72390Y2540
X80010Y2540
X66040Y29210
X66040Y21590
X35560Y26670
X27940Y26670
X44450Y43180
X44450Y35560
X46990Y43180
X46990Y35560
X49530Y29210
X49530Y21590
X45720Y30480
X38100Y30480
X62230Y21590
X62230Y29210
X2540Y33020
X10160Y33020
X10160Y36830
X2540Y36830
X27940Y22860
X35560Y22860
X72390Y6350
X80010Y6350
X10160Y40640
X2540Y40640
X73660Y29210
X73660Y21590
X93980Y34290
X86360Y34290
X31750Y43180
X31750Y35560
X81280Y29210
X81280Y21590
X77470Y29210
X77470Y21590
X20320Y41910
X64770Y2794
X73660Y13970
X81280Y13970
X74930Y35560
X80010Y35560
X77470Y35560
X6350Y17780
X6350Y12700
X6350Y15240
X10160Y12700
X10160Y17780
X10160Y15240
X52070Y40640
X52070Y35560
X52070Y38100
X35560Y35560
X53340Y24130
X55880Y24130
X53340Y27940
X58420Y27940
X55880Y27940
X64770Y4826
X86360Y2540
X88900Y2540
X91440Y17780
X93980Y17780
X86360Y17780
X88900Y17780
X91440Y2540
X93980Y2540
X20320Y19050
X17780Y19050
X17780Y41910
X33020Y2794
X33020Y4826
X24130Y4826
X24130Y2794
X86360Y6350
X58420Y24130
T4
X73250Y32250
X23000Y8250
X12500Y8250
X57500Y46750
X36000Y46500
X9500Y9500
X32750Y38250
X26250Y44750
X25000Y32750
X27500Y35500
X18000Y22250
M30