%
M48
M72
T01C0.01200
T02C0.02400
T03C0.03200
T04C0.04000
%
T01
X227200Y75500
X235600Y71300
X287800Y59900
T02
X51000Y123500
X61000Y133500
X51000Y143500
X321000Y23500
X331000Y13500
X331000Y33500
T03
X11000Y13500
X21000Y13500
X31000Y13500
X31000Y23500
X21000Y23500
X11000Y23500
X51000Y23500
X51000Y13500
X81000Y13500
X81000Y23500
X81000Y33500
X91000Y33500
X91000Y43500
X81000Y43500
X81000Y53500
X91000Y53500
X81000Y63500
X81000Y73500
X81000Y83500
X92000Y83500
X100000Y83500
X111000Y83500
X111000Y93500
X111000Y103500
X121000Y103500
X131000Y103500
X141000Y103500
X151000Y103500
X161000Y103500
X161000Y93500
X161000Y83500
X161000Y73500
X171000Y73500
X181000Y73500
X161000Y63500
X151000Y63500
X141000Y63500
X131000Y63500
X121000Y63500
X111000Y63500
X111000Y73500
X131000Y53500
X141000Y53500
X131000Y43500
X131000Y33500
X141000Y33500
X151000Y33500
X161000Y33500
X171000Y33500
X181000Y33500
X191000Y33500
X211000Y33500
X221000Y33500
X221000Y43500
X211000Y43500
X211000Y53500
X221000Y53500
X221000Y63500
X211000Y63500
X201000Y63500
X221000Y73500
X221000Y83500
X211000Y84500
X211000Y92500
X191000Y93500
X191000Y83500
X231000Y93500
X241000Y93500
X251000Y93500
X261000Y93500
X271000Y93500
X271000Y83500
X261000Y83500
X261000Y73500
X271000Y73500
X271000Y63500
X261000Y63500
X261000Y53500
X271000Y53500
X271000Y43500
X261000Y43500
X261000Y33500
X271000Y33500
X271000Y23500
X261000Y23500
X261000Y13500
X271000Y13500
X231000Y13500
X221000Y23500
X211000Y23500
X211000Y13500
X171000Y53500
X81000Y93500
X81000Y103500
X92000Y103500
X100000Y103500
X111000Y113500
X121000Y113500
X131000Y118500
X141000Y118500
X151000Y118500
X161000Y113500
X161000Y123500
X161000Y133500
X151000Y138500
X141000Y138500
X131000Y138500
X121000Y133500
X111000Y133500
X101000Y143500
X121000Y143500
X161000Y143500
X191000Y143500
X201000Y143500
X191000Y133500
X191000Y123500
X211000Y123500
X221000Y123500
X231000Y123500
X241000Y123500
X251000Y123500
X261000Y123500
X271000Y123500
X271000Y113500
X271000Y103500
X301000Y103500
X301000Y93500
X311000Y93500
X321000Y93500
X321000Y83500
X336000Y83500
X336000Y72500
X321000Y73500
X336000Y64500
X321000Y63500
X311000Y63500
X301000Y63500
X301000Y73500
X301000Y83500
X321000Y103500
X321000Y113500
X321000Y123500
X336000Y123500
X335000Y138500
X327000Y138500
X301000Y123500
X301000Y113500
X221000Y113500
X211000Y113500
X191000Y113500
X191000Y103500
X201000Y103500
X211000Y103500
X221000Y103500
X121000Y123500
X101000Y123500
X91000Y123500
X81000Y123500
X71000Y123500
X81000Y113500
X41000Y113500
X41000Y103500
X41000Y93500
X41000Y83500
X41000Y73500
X51000Y73500
X51000Y63500
X41000Y63500
X41000Y53500
X31000Y53500
X51000Y53500
X51000Y43500
X41000Y43500
X31000Y43500
X20000Y43500
X12000Y43500
X51000Y33500
X71000Y133500
X71000Y143500
X311000Y53500
X321000Y53500
X321000Y43500
X311000Y43500
X311000Y33500
X311000Y23500
X311000Y13500
T04
X101000Y13500
X111000Y13500
X121000Y13500
X131000Y13500
X141000Y13500
X151000Y13500
X161000Y13500
X171000Y13500
X181000Y13500
X191000Y13500
X21000Y73500
X11000Y73500
X11000Y83500
X21000Y83500
X21000Y93500
X11000Y93500
X11000Y103500
X21000Y103500
X21000Y113500
X11000Y113500
X11000Y123500
X21000Y123500
X21000Y133500
X11000Y133500
X11000Y143500
X21000Y143500
X221000Y143500
X231000Y143500
X241000Y143500
X251000Y143500
X261000Y143500
X271000Y143500
X281000Y143500
X291000Y143500
X301000Y143500
X311000Y143500
M30
