G75*
%MOIN*%
%OFA0B0*%
%FSLAX25Y25*%
%IPPOS*%
%LPD*%
%AMOC8*
5,1,8,0,0,1.08239X$1,22.5*
%
%ADD10C,0.00000*%
%ADD11OC8,0.05200*%
%ADD12C,0.05200*%
%ADD13C,0.05200*%
%ADD14OC8,0.06000*%
%ADD15C,0.06000*%
%ADD16C,0.04400*%
%ADD17C,0.00600*%
%ADD18C,0.02400*%
D10*
X0001000Y0003500D02*
X0001000Y0153461D01*
X0347201Y0153461D01*
X0347201Y0003500D01*
X0001000Y0003500D01*
D11*
X0011000Y0013500D03*
X0021000Y0013500D03*
X0031000Y0013500D03*
X0031000Y0023500D03*
X0021000Y0023500D03*
X0011000Y0023500D03*
X0020000Y0043500D03*
X0031000Y0043500D03*
X0041000Y0043500D03*
X0041000Y0053500D03*
X0031000Y0053500D03*
X0041000Y0063500D03*
X0041000Y0073500D03*
X0041000Y0083500D03*
X0041000Y0093500D03*
X0041000Y0103500D03*
X0041000Y0113500D03*
X0071000Y0123500D03*
X0081000Y0123500D03*
X0091000Y0123500D03*
X0101000Y0123500D03*
X0121000Y0123500D03*
X0121000Y0113500D03*
X0111000Y0113500D03*
X0111000Y0103500D03*
X0121000Y0103500D03*
X0131000Y0103500D03*
X0141000Y0103500D03*
X0151000Y0103500D03*
X0111000Y0093500D03*
X0111000Y0083500D03*
X0092000Y0083500D03*
X0081000Y0083500D03*
X0081000Y0093500D03*
X0081000Y0103500D03*
X0092000Y0103500D03*
X0081000Y0113500D03*
X0071000Y0133500D03*
X0111000Y0133500D03*
X0121000Y0133500D03*
X0121000Y0143500D03*
X0201000Y0143500D03*
X0211000Y0123500D03*
X0221000Y0123500D03*
X0221000Y0113500D03*
X0211000Y0113500D03*
X0211000Y0103500D03*
X0201000Y0103500D03*
X0221000Y0103500D03*
X0211000Y0092500D03*
X0221000Y0083500D03*
X0221000Y0073500D03*
X0221000Y0063500D03*
X0221000Y0053500D03*
X0201000Y0063500D03*
X0161000Y0063500D03*
X0151000Y0063500D03*
X0141000Y0063500D03*
X0131000Y0063500D03*
X0121000Y0063500D03*
X0111000Y0063500D03*
X0111000Y0073500D03*
X0091000Y0053500D03*
X0091000Y0043500D03*
X0091000Y0033500D03*
X0131000Y0033500D03*
X0131000Y0043500D03*
X0131000Y0053500D03*
X0221000Y0043500D03*
X0221000Y0033500D03*
X0221000Y0023500D03*
X0261000Y0023500D03*
X0271000Y0023500D03*
X0271000Y0013500D03*
X0311000Y0013500D03*
X0311000Y0023500D03*
X0311000Y0033500D03*
X0311000Y0043500D03*
X0311000Y0053500D03*
X0271000Y0053500D03*
X0261000Y0053500D03*
X0261000Y0063500D03*
X0261000Y0073500D03*
X0261000Y0083500D03*
X0336000Y0083500D03*
X0336000Y0072500D03*
X0271000Y0043500D03*
X0261000Y0043500D03*
X0261000Y0033500D03*
X0271000Y0033500D03*
X0336000Y0123500D03*
X0335000Y0138500D03*
D12*
X0327000Y0138500D03*
X0261000Y0123500D03*
X0251000Y0123500D03*
X0241000Y0123500D03*
X0231000Y0123500D03*
X0231000Y0093500D03*
X0241000Y0093500D03*
X0251000Y0093500D03*
X0261000Y0093500D03*
X0211000Y0084500D03*
X0100000Y0083500D03*
X0100000Y0103500D03*
X0012000Y0043500D03*
X0336000Y0064500D03*
D13*
X0323600Y0063500D02*
X0318400Y0063500D01*
X0311000Y0066100D02*
X0311000Y0060900D01*
X0303600Y0063500D02*
X0298400Y0063500D01*
X0298400Y0073500D02*
X0303600Y0073500D01*
X0318400Y0073500D02*
X0323600Y0073500D01*
X0323600Y0083500D02*
X0318400Y0083500D01*
X0311000Y0090900D02*
X0311000Y0096100D01*
X0303600Y0093500D02*
X0298400Y0093500D01*
X0298400Y0083500D02*
X0303600Y0083500D01*
X0318400Y0093500D02*
X0323600Y0093500D01*
X0323600Y0103500D02*
X0318400Y0103500D01*
X0303600Y0103500D02*
X0298400Y0103500D01*
X0273600Y0103500D02*
X0268400Y0103500D01*
X0268400Y0093500D02*
X0273600Y0093500D01*
X0273600Y0083500D02*
X0268400Y0083500D01*
X0268400Y0073500D02*
X0273600Y0073500D01*
X0273600Y0063500D02*
X0268400Y0063500D01*
X0318400Y0053500D02*
X0323600Y0053500D01*
X0323600Y0043500D02*
X0318400Y0043500D01*
X0263600Y0013500D02*
X0258400Y0013500D01*
X0233600Y0013500D02*
X0228400Y0013500D01*
X0213600Y0013500D02*
X0208400Y0013500D01*
X0208400Y0023500D02*
X0213600Y0023500D01*
X0191000Y0030900D02*
X0191000Y0036100D01*
X0181000Y0036100D02*
X0181000Y0030900D01*
X0171000Y0030900D02*
X0171000Y0036100D01*
X0161000Y0036100D02*
X0161000Y0030900D01*
X0151000Y0030900D02*
X0151000Y0036100D01*
X0141000Y0036100D02*
X0141000Y0030900D01*
X0143600Y0053500D02*
X0138400Y0053500D01*
X0168400Y0053500D02*
X0173600Y0053500D01*
X0208400Y0053500D02*
X0213600Y0053500D01*
X0213600Y0063500D02*
X0208400Y0063500D01*
X0181000Y0070900D02*
X0181000Y0076100D01*
X0171000Y0076100D02*
X0171000Y0070900D01*
X0161000Y0070900D02*
X0161000Y0076100D01*
X0163600Y0083500D02*
X0158400Y0083500D01*
X0158400Y0093500D02*
X0163600Y0093500D01*
X0163600Y0103500D02*
X0158400Y0103500D01*
X0158400Y0113500D02*
X0163600Y0113500D01*
X0151000Y0115900D02*
X0151000Y0121100D01*
X0141000Y0121100D02*
X0141000Y0115900D01*
X0131000Y0115900D02*
X0131000Y0121100D01*
X0158400Y0123500D02*
X0163600Y0123500D01*
X0163600Y0133500D02*
X0158400Y0133500D01*
X0151000Y0135900D02*
X0151000Y0141100D01*
X0141000Y0141100D02*
X0141000Y0135900D01*
X0131000Y0135900D02*
X0131000Y0141100D01*
X0103600Y0143500D02*
X0098400Y0143500D01*
X0073600Y0143500D02*
X0068400Y0143500D01*
X0158400Y0143500D02*
X0163600Y0143500D01*
X0188400Y0143500D02*
X0193600Y0143500D01*
X0193600Y0133500D02*
X0188400Y0133500D01*
X0188400Y0123500D02*
X0193600Y0123500D01*
X0193600Y0113500D02*
X0188400Y0113500D01*
X0188400Y0103500D02*
X0193600Y0103500D01*
X0193600Y0093500D02*
X0188400Y0093500D01*
X0188400Y0083500D02*
X0193600Y0083500D01*
X0268400Y0113500D02*
X0273600Y0113500D01*
X0273600Y0123500D02*
X0268400Y0123500D01*
X0298400Y0123500D02*
X0303600Y0123500D01*
X0318400Y0123500D02*
X0323600Y0123500D01*
X0323600Y0113500D02*
X0318400Y0113500D01*
X0303600Y0113500D02*
X0298400Y0113500D01*
X0213600Y0043500D02*
X0208400Y0043500D01*
X0208400Y0033500D02*
X0213600Y0033500D01*
X0083600Y0033500D02*
X0078400Y0033500D01*
X0078400Y0043500D02*
X0083600Y0043500D01*
X0083600Y0053500D02*
X0078400Y0053500D01*
X0078400Y0063500D02*
X0083600Y0063500D01*
X0083600Y0073500D02*
X0078400Y0073500D01*
X0053600Y0073500D02*
X0048400Y0073500D01*
X0048400Y0063500D02*
X0053600Y0063500D01*
X0053600Y0053500D02*
X0048400Y0053500D01*
X0048400Y0043500D02*
X0053600Y0043500D01*
X0053600Y0033500D02*
X0048400Y0033500D01*
X0048400Y0023500D02*
X0053600Y0023500D01*
X0053600Y0013500D02*
X0048400Y0013500D01*
X0078400Y0013500D02*
X0083600Y0013500D01*
X0083600Y0023500D02*
X0078400Y0023500D01*
D14*
X0021000Y0073500D03*
X0011000Y0073500D03*
X0011000Y0083500D03*
X0021000Y0083500D03*
X0021000Y0093500D03*
X0011000Y0093500D03*
X0011000Y0103500D03*
X0021000Y0103500D03*
X0021000Y0113500D03*
X0011000Y0113500D03*
X0011000Y0123500D03*
X0021000Y0123500D03*
X0021000Y0133500D03*
X0011000Y0133500D03*
X0011000Y0143500D03*
X0021000Y0143500D03*
D15*
X0221000Y0140500D02*
X0221000Y0146500D01*
X0231000Y0146500D02*
X0231000Y0140500D01*
X0241000Y0140500D02*
X0241000Y0146500D01*
X0251000Y0146500D02*
X0251000Y0140500D01*
X0261000Y0140500D02*
X0261000Y0146500D01*
X0271000Y0146500D02*
X0271000Y0140500D01*
X0281000Y0140500D02*
X0281000Y0146500D01*
X0291000Y0146500D02*
X0291000Y0140500D01*
X0301000Y0140500D02*
X0301000Y0146500D01*
X0311000Y0146500D02*
X0311000Y0140500D01*
X0191000Y0016500D02*
X0191000Y0010500D01*
X0181000Y0010500D02*
X0181000Y0016500D01*
X0171000Y0016500D02*
X0171000Y0010500D01*
X0161000Y0010500D02*
X0161000Y0016500D01*
X0151000Y0016500D02*
X0151000Y0010500D01*
X0141000Y0010500D02*
X0141000Y0016500D01*
X0131000Y0016500D02*
X0131000Y0010500D01*
X0121000Y0010500D02*
X0121000Y0016500D01*
X0111000Y0016500D02*
X0111000Y0010500D01*
X0101000Y0010500D02*
X0101000Y0016500D01*
D16*
X0321000Y0023500D03*
X0331000Y0013500D03*
X0331000Y0033500D03*
X0061000Y0133500D03*
X0051000Y0143500D03*
X0051000Y0123500D03*
D17*
X0050800Y0123500D01*
X0050800Y0113300D01*
X0054400Y0109700D01*
X0094000Y0109700D01*
X0101800Y0117500D01*
X0122200Y0117500D01*
X0132400Y0107300D01*
X0164800Y0107300D01*
X0188200Y0083900D01*
X0190600Y0083900D01*
X0191000Y0083500D01*
X0197200Y0085100D02*
X0197200Y0066500D01*
X0185800Y0055100D01*
X0185800Y0028700D01*
X0178000Y0020900D01*
X0168400Y0020900D01*
X0161000Y0013500D01*
X0164200Y0006500D02*
X0170800Y0013100D01*
X0171000Y0013500D01*
X0171400Y0013700D01*
X0172600Y0013700D01*
X0190600Y0031700D01*
X0190600Y0033500D01*
X0191000Y0033500D01*
X0184600Y0029300D02*
X0177400Y0022100D01*
X0159400Y0022100D01*
X0151000Y0013700D01*
X0151000Y0013500D01*
X0146800Y0017900D02*
X0146800Y0008900D01*
X0149200Y0006500D01*
X0164200Y0006500D01*
X0182800Y0005300D02*
X0191000Y0013500D01*
X0182800Y0005300D02*
X0051400Y0005300D01*
X0033400Y0023300D01*
X0031000Y0023300D01*
X0031000Y0023500D01*
X0031000Y0023900D01*
X0021400Y0023900D01*
X0021000Y0023500D01*
X0020800Y0023900D01*
X0020200Y0024500D01*
X0020200Y0039500D01*
X0037000Y0039500D01*
X0041000Y0043500D01*
X0041200Y0043700D01*
X0050800Y0043700D01*
X0051000Y0043500D01*
X0041200Y0043700D02*
X0041200Y0053300D01*
X0041000Y0053500D01*
X0051000Y0053500D02*
X0051400Y0053300D01*
X0061600Y0053300D01*
X0076600Y0038300D01*
X0091000Y0038300D01*
X0094600Y0041900D01*
X0094600Y0049700D01*
X0091000Y0053300D01*
X0091000Y0053500D01*
X0082600Y0049700D02*
X0068800Y0049700D01*
X0055000Y0063500D01*
X0051000Y0063500D01*
X0050800Y0063500D01*
X0050800Y0073100D01*
X0051000Y0073500D01*
X0044800Y0069500D02*
X0041200Y0073100D01*
X0041000Y0073500D01*
X0040600Y0073700D01*
X0037000Y0077300D01*
X0037000Y0093500D01*
X0026200Y0104300D01*
X0049000Y0127100D01*
X0077200Y0127100D01*
X0080800Y0123500D01*
X0081000Y0123500D01*
X0080800Y0113900D02*
X0071200Y0123500D01*
X0071000Y0123500D01*
X0080800Y0113900D02*
X0081000Y0113500D01*
X0081400Y0113900D01*
X0096400Y0113900D01*
X0115600Y0133100D01*
X0121000Y0133100D01*
X0121000Y0133500D01*
X0124600Y0134900D02*
X0124600Y0127100D01*
X0121000Y0123500D01*
X0131000Y0118500D02*
X0131200Y0118100D01*
X0140800Y0108500D01*
X0193600Y0108500D01*
X0198400Y0103700D01*
X0200800Y0103700D01*
X0201000Y0103500D01*
X0205000Y0104300D02*
X0205000Y0072500D01*
X0197200Y0064700D01*
X0197200Y0047300D01*
X0211000Y0033500D01*
X0216400Y0043100D02*
X0224800Y0034700D01*
X0224800Y0027500D01*
X0221200Y0023900D01*
X0221000Y0023500D01*
X0220600Y0023300D01*
X0211000Y0013700D01*
X0211000Y0013500D01*
X0231000Y0013500D02*
X0231400Y0013700D01*
X0241000Y0013700D01*
X0260800Y0033500D01*
X0261000Y0033500D01*
X0271000Y0033500D02*
X0271000Y0038300D01*
X0267400Y0041900D01*
X0267400Y0055100D01*
X0272200Y0059900D01*
X0287800Y0059900D01*
X0274600Y0067100D02*
X0271000Y0063500D01*
X0274600Y0067100D02*
X0302200Y0067100D01*
X0305200Y0070100D01*
X0312400Y0070100D01*
X0313000Y0069500D01*
X0322600Y0069500D01*
X0327400Y0064700D01*
X0335800Y0064700D01*
X0336000Y0064500D01*
X0340000Y0063500D02*
X0323800Y0047300D01*
X0314800Y0047300D01*
X0311000Y0043500D01*
X0291400Y0023900D01*
X0271000Y0023900D01*
X0271000Y0023500D01*
X0267400Y0025100D02*
X0267400Y0017300D01*
X0271000Y0013700D01*
X0271000Y0013500D01*
X0267400Y0014900D02*
X0267400Y0011900D01*
X0269800Y0009500D01*
X0281800Y0009500D01*
X0311800Y0039500D01*
X0325000Y0039500D01*
X0341200Y0055700D01*
X0341200Y0132500D01*
X0335200Y0138500D01*
X0335000Y0138500D01*
X0327000Y0138500D02*
X0325000Y0138500D01*
X0313000Y0150500D01*
X0279400Y0150500D01*
X0275200Y0146300D01*
X0275200Y0127700D01*
X0271000Y0123500D01*
X0271000Y0113500D01*
X0255400Y0107900D02*
X0241000Y0093500D01*
X0241000Y0073700D01*
X0221200Y0053900D01*
X0221000Y0053500D01*
X0219400Y0049700D02*
X0215800Y0053300D01*
X0211000Y0053300D01*
X0211000Y0053500D01*
X0206800Y0049700D02*
X0204400Y0052100D01*
X0204400Y0054500D01*
X0209800Y0059900D01*
X0222400Y0059900D01*
X0224800Y0062300D01*
X0224800Y0074900D01*
X0220000Y0079700D01*
X0219400Y0079700D01*
X0214600Y0084500D01*
X0214600Y0099500D01*
X0211000Y0103100D01*
X0211000Y0103500D01*
X0207400Y0104900D02*
X0220600Y0118100D01*
X0220600Y0123500D01*
X0221000Y0123500D01*
X0219400Y0127100D02*
X0217000Y0124700D01*
X0217000Y0124100D01*
X0212800Y0119900D01*
X0212200Y0119900D01*
X0206200Y0113900D01*
X0191200Y0113900D01*
X0191000Y0113500D01*
X0190600Y0123500D02*
X0176800Y0109700D01*
X0152200Y0109700D01*
X0143800Y0118100D01*
X0141400Y0118100D01*
X0141000Y0118500D01*
X0151000Y0118500D02*
X0151000Y0118700D01*
X0155800Y0118700D01*
X0160600Y0123500D01*
X0161000Y0123500D01*
X0161200Y0113900D02*
X0161000Y0113500D01*
X0161200Y0113900D02*
X0173800Y0113900D01*
X0189400Y0129500D01*
X0206800Y0129500D01*
X0220600Y0143300D01*
X0221000Y0143500D01*
X0231000Y0143500D02*
X0211000Y0123500D01*
X0191000Y0123500D01*
X0190600Y0123500D01*
X0211000Y0113500D02*
X0211000Y0110300D01*
X0205000Y0104300D01*
X0207400Y0104900D02*
X0207400Y0082700D01*
X0211000Y0079100D01*
X0211000Y0063500D01*
X0221000Y0063500D02*
X0221200Y0063500D01*
X0221200Y0073100D01*
X0221000Y0073500D01*
X0227200Y0075500D02*
X0227200Y0107300D01*
X0221000Y0113500D01*
X0230800Y0123500D02*
X0231000Y0123500D01*
X0230800Y0123500D02*
X0227200Y0127100D01*
X0241000Y0140900D01*
X0241000Y0143500D01*
X0250600Y0143300D02*
X0250600Y0138500D01*
X0235600Y0123500D01*
X0235600Y0071300D01*
X0250600Y0077900D02*
X0250600Y0093500D01*
X0251000Y0093500D01*
X0261000Y0093500D02*
X0271000Y0093500D01*
X0271000Y0083900D02*
X0261400Y0083900D01*
X0261000Y0083500D01*
X0257200Y0082100D02*
X0257200Y0139700D01*
X0261000Y0143500D01*
X0255400Y0146900D02*
X0255400Y0107900D01*
X0221200Y0103100D02*
X0221000Y0103500D01*
X0221200Y0103100D02*
X0221200Y0083900D01*
X0221000Y0083500D01*
X0197200Y0085100D02*
X0191200Y0091100D01*
X0191200Y0093500D01*
X0191000Y0093500D01*
X0177400Y0074900D02*
X0161200Y0091100D01*
X0161200Y0093500D01*
X0161000Y0093500D01*
X0160600Y0083900D02*
X0150400Y0083900D01*
X0131200Y0103100D01*
X0131000Y0103500D01*
X0130600Y0103700D01*
X0125800Y0103700D01*
X0120400Y0109100D01*
X0110800Y0109100D01*
X0110800Y0113300D01*
X0111000Y0113500D01*
X0110800Y0109100D02*
X0100000Y0098300D01*
X0100000Y0083500D01*
X0092000Y0083500D02*
X0082000Y0093500D01*
X0081000Y0093500D01*
X0111000Y0093500D02*
X0111400Y0093500D01*
X0124600Y0080300D01*
X0124600Y0064700D01*
X0129400Y0059900D01*
X0147400Y0059900D01*
X0147400Y0018500D01*
X0146800Y0017900D01*
X0134800Y0017300D02*
X0131000Y0013500D01*
X0124000Y0006500D01*
X0099400Y0006500D01*
X0092800Y0013100D01*
X0081400Y0013100D01*
X0081000Y0013500D01*
X0101000Y0013500D02*
X0131000Y0043500D01*
X0134800Y0044900D02*
X0134800Y0017300D01*
X0131200Y0033500D02*
X0111400Y0013700D01*
X0111000Y0013500D01*
X0091000Y0033500D02*
X0091000Y0038300D01*
X0091000Y0043500D02*
X0091000Y0043700D01*
X0088600Y0043700D01*
X0082600Y0049700D01*
X0081000Y0053500D02*
X0100600Y0073100D01*
X0110800Y0073100D01*
X0111000Y0073500D01*
X0111400Y0073700D01*
X0111400Y0083300D01*
X0111000Y0083500D01*
X0111400Y0098300D02*
X0130600Y0079100D01*
X0130600Y0063500D01*
X0131000Y0063500D01*
X0141000Y0063500D01*
X0147400Y0059900D02*
X0152800Y0059900D01*
X0156400Y0063500D01*
X0161000Y0063500D01*
X0151000Y0063500D02*
X0151000Y0073100D01*
X0121000Y0103100D01*
X0121000Y0103500D01*
X0111400Y0103100D02*
X0111400Y0098300D01*
X0111400Y0103100D02*
X0111000Y0103500D01*
X0131000Y0118500D02*
X0131200Y0118700D01*
X0131200Y0138500D01*
X0131000Y0138500D01*
X0139000Y0138500D02*
X0130000Y0147500D01*
X0074800Y0147500D01*
X0071200Y0143900D01*
X0071000Y0143500D01*
X0070600Y0143300D01*
X0061000Y0133700D01*
X0061000Y0133500D01*
X0071000Y0133500D02*
X0071200Y0133700D01*
X0091000Y0133700D01*
X0100600Y0143300D01*
X0101000Y0143500D01*
X0121000Y0143500D02*
X0121000Y0138500D01*
X0124600Y0134900D01*
X0111000Y0133500D02*
X0110800Y0133100D01*
X0105400Y0133100D01*
X0095800Y0123500D01*
X0091000Y0123500D01*
X0050800Y0113300D02*
X0041000Y0103500D01*
X0026200Y0104300D02*
X0021400Y0109100D01*
X0021400Y0113300D01*
X0021000Y0113500D01*
X0020800Y0113900D01*
X0011200Y0113900D01*
X0011000Y0113500D01*
X0011200Y0103700D02*
X0011000Y0103500D01*
X0011200Y0103100D01*
X0011200Y0093500D01*
X0011000Y0093500D01*
X0011200Y0093500D02*
X0011200Y0083900D01*
X0011000Y0083500D01*
X0011200Y0083900D02*
X0020800Y0083900D01*
X0021000Y0083500D01*
X0021400Y0083300D01*
X0041200Y0063500D01*
X0041000Y0063500D01*
X0040600Y0063500D01*
X0031000Y0053900D01*
X0031000Y0053500D01*
X0031000Y0047300D01*
X0018400Y0047300D01*
X0014800Y0043700D01*
X0012400Y0043700D01*
X0012000Y0043500D01*
X0011800Y0043100D01*
X0011800Y0024500D01*
X0011200Y0023900D01*
X0011000Y0023500D01*
X0011200Y0023300D01*
X0011200Y0013700D01*
X0011000Y0013500D01*
X0011200Y0013100D01*
X0014800Y0009500D01*
X0022000Y0009500D01*
X0025600Y0013100D01*
X0031000Y0013100D01*
X0031000Y0013500D01*
X0021400Y0013700D02*
X0021000Y0013500D01*
X0021400Y0013700D02*
X0021400Y0023300D01*
X0021000Y0023500D01*
X0050800Y0023300D02*
X0050800Y0013700D01*
X0051000Y0013500D01*
X0050800Y0023300D02*
X0051000Y0023500D01*
X0051000Y0033500D02*
X0081000Y0033500D01*
X0081000Y0043500D02*
X0080800Y0043700D01*
X0073000Y0043700D01*
X0056800Y0059900D01*
X0046600Y0059900D01*
X0044800Y0061700D01*
X0044800Y0069500D01*
X0021000Y0073500D02*
X0020800Y0073700D01*
X0011200Y0073700D01*
X0011000Y0073500D01*
X0021000Y0083500D02*
X0021400Y0083900D01*
X0021400Y0093500D01*
X0021000Y0093500D01*
X0021000Y0103500D02*
X0020800Y0103700D01*
X0011200Y0103700D01*
X0041000Y0093500D02*
X0041200Y0093500D01*
X0071200Y0063500D01*
X0081000Y0063500D01*
X0131000Y0053500D02*
X0131200Y0053300D01*
X0131200Y0048500D01*
X0134800Y0044900D01*
X0131200Y0033500D02*
X0131000Y0033500D01*
X0151000Y0033500D02*
X0153400Y0033500D01*
X0160000Y0026900D01*
X0174400Y0026900D01*
X0181000Y0033500D01*
X0184600Y0029300D02*
X0184600Y0037700D01*
X0177400Y0044900D01*
X0177400Y0074900D01*
X0171400Y0073100D02*
X0171000Y0073500D01*
X0170800Y0073700D01*
X0161200Y0073700D01*
X0161000Y0073500D01*
X0171400Y0073100D02*
X0171400Y0053900D01*
X0171000Y0053500D01*
X0161200Y0043700D01*
X0161200Y0033500D01*
X0161000Y0033500D01*
X0206800Y0049700D02*
X0212800Y0049700D01*
X0218800Y0043700D01*
X0220600Y0043700D01*
X0221000Y0043500D01*
X0216400Y0043100D02*
X0211000Y0043100D01*
X0211000Y0043500D01*
X0219400Y0049700D02*
X0222400Y0049700D01*
X0250600Y0077900D01*
X0257200Y0082100D02*
X0259600Y0079700D01*
X0260200Y0079700D01*
X0266200Y0073700D01*
X0271000Y0073700D01*
X0271000Y0073500D01*
X0274600Y0069500D02*
X0265000Y0069500D01*
X0261000Y0073500D01*
X0268000Y0068300D02*
X0275200Y0068300D01*
X0293200Y0086300D01*
X0293200Y0135500D01*
X0301000Y0143300D01*
X0301000Y0143500D01*
X0281000Y0143500D02*
X0280600Y0143300D01*
X0280600Y0075500D01*
X0274600Y0069500D01*
X0268000Y0068300D02*
X0263200Y0063500D01*
X0261000Y0063500D01*
X0261000Y0053500D02*
X0261400Y0053300D01*
X0261400Y0048500D01*
X0266200Y0043700D01*
X0266200Y0016100D01*
X0267400Y0014900D01*
X0267400Y0025100D02*
X0269800Y0027500D01*
X0270400Y0027500D01*
X0274600Y0031700D01*
X0274600Y0044900D01*
X0271000Y0048500D01*
X0271000Y0053500D01*
X0311000Y0063500D02*
X0321000Y0063500D01*
X0340000Y0063500D02*
X0340000Y0084500D01*
X0327400Y0097100D01*
X0319600Y0097100D01*
X0303400Y0113300D01*
X0301000Y0113300D01*
X0301000Y0113500D01*
X0320800Y0113900D02*
X0320800Y0123500D01*
X0321000Y0123500D01*
X0320800Y0113900D02*
X0321000Y0113500D01*
X0301000Y0103500D02*
X0301000Y0103100D01*
X0294400Y0096500D01*
X0294400Y0092300D01*
X0301000Y0085700D01*
X0301000Y0083500D01*
X0311200Y0083300D02*
X0321000Y0073500D01*
X0336000Y0072500D02*
X0336400Y0072500D01*
X0336400Y0083300D01*
X0336000Y0083500D01*
X0311200Y0083300D02*
X0311200Y0093500D01*
X0311000Y0093500D01*
X0271000Y0083900D02*
X0271000Y0083500D01*
X0227200Y0127100D02*
X0219400Y0127100D01*
X0191000Y0133500D02*
X0190600Y0133700D01*
X0185800Y0138500D01*
X0151000Y0138500D01*
X0141000Y0138500D02*
X0139000Y0138500D01*
X0191000Y0143500D02*
X0191200Y0143900D01*
X0200800Y0143900D01*
X0201000Y0143500D01*
X0250600Y0143300D02*
X0251000Y0143500D01*
X0255400Y0146900D02*
X0259000Y0150500D01*
X0262600Y0150500D01*
X0269200Y0143900D01*
X0271000Y0143900D01*
X0271000Y0143500D01*
X0161000Y0083500D02*
X0160600Y0083900D01*
X0031000Y0047300D02*
X0031000Y0043500D01*
X0020200Y0043100D02*
X0020200Y0039500D01*
X0020200Y0043100D02*
X0020000Y0043500D01*
X0311000Y0033500D02*
X0331000Y0033500D01*
X0331000Y0013700D02*
X0311200Y0013700D01*
X0311000Y0013500D01*
X0331000Y0013700D02*
X0331000Y0013500D01*
D18*
X0287800Y0059900D03*
X0235600Y0071300D03*
X0227200Y0075500D03*
M02*
