G75*
%MOIN*%
%OFA0B0*%
%FSLAX25Y25*%
%IPPOS*%
%LPD*%
%AMOC8*
5,1,8,0,0,1.08239X$1,22.5*
%
%ADD10C,0.00000*%
%ADD11OC8,0.05200*%
%ADD12C,0.05200*%
%ADD13C,0.05200*%
%ADD14OC8,0.06000*%
%ADD15C,0.06000*%
%ADD16C,0.04400*%
%ADD17C,0.00600*%
%ADD18C,0.02400*%
D10*
X0001000Y0003500D02*
X0001000Y0153461D01*
X0347201Y0153461D01*
X0347201Y0003500D01*
X0001000Y0003500D01*
D11*
X0011000Y0013500D03*
X0021000Y0013500D03*
X0031000Y0013500D03*
X0031000Y0023500D03*
X0021000Y0023500D03*
X0011000Y0023500D03*
X0020000Y0043500D03*
X0031000Y0043500D03*
X0041000Y0043500D03*
X0041000Y0053500D03*
X0031000Y0053500D03*
X0041000Y0063500D03*
X0041000Y0073500D03*
X0041000Y0083500D03*
X0041000Y0093500D03*
X0041000Y0103500D03*
X0041000Y0113500D03*
X0071000Y0123500D03*
X0081000Y0123500D03*
X0091000Y0123500D03*
X0101000Y0123500D03*
X0121000Y0123500D03*
X0121000Y0113500D03*
X0111000Y0113500D03*
X0111000Y0103500D03*
X0121000Y0103500D03*
X0131000Y0103500D03*
X0141000Y0103500D03*
X0151000Y0103500D03*
X0111000Y0093500D03*
X0111000Y0083500D03*
X0092000Y0083500D03*
X0081000Y0083500D03*
X0081000Y0093500D03*
X0081000Y0103500D03*
X0092000Y0103500D03*
X0081000Y0113500D03*
X0071000Y0133500D03*
X0111000Y0133500D03*
X0121000Y0133500D03*
X0121000Y0143500D03*
X0201000Y0143500D03*
X0211000Y0123500D03*
X0221000Y0123500D03*
X0221000Y0113500D03*
X0211000Y0113500D03*
X0211000Y0103500D03*
X0201000Y0103500D03*
X0221000Y0103500D03*
X0211000Y0092500D03*
X0221000Y0083500D03*
X0221000Y0073500D03*
X0221000Y0063500D03*
X0221000Y0053500D03*
X0201000Y0063500D03*
X0161000Y0063500D03*
X0151000Y0063500D03*
X0141000Y0063500D03*
X0131000Y0063500D03*
X0121000Y0063500D03*
X0111000Y0063500D03*
X0111000Y0073500D03*
X0091000Y0053500D03*
X0091000Y0043500D03*
X0091000Y0033500D03*
X0131000Y0033500D03*
X0131000Y0043500D03*
X0131000Y0053500D03*
X0221000Y0043500D03*
X0221000Y0033500D03*
X0221000Y0023500D03*
X0261000Y0023500D03*
X0271000Y0023500D03*
X0271000Y0013500D03*
X0311000Y0013500D03*
X0311000Y0023500D03*
X0311000Y0033500D03*
X0311000Y0043500D03*
X0311000Y0053500D03*
X0271000Y0053500D03*
X0261000Y0053500D03*
X0261000Y0063500D03*
X0261000Y0073500D03*
X0261000Y0083500D03*
X0336000Y0083500D03*
X0336000Y0072500D03*
X0271000Y0043500D03*
X0261000Y0043500D03*
X0261000Y0033500D03*
X0271000Y0033500D03*
X0336000Y0123500D03*
X0335000Y0138500D03*
D12*
X0327000Y0138500D03*
X0261000Y0123500D03*
X0251000Y0123500D03*
X0241000Y0123500D03*
X0231000Y0123500D03*
X0231000Y0093500D03*
X0241000Y0093500D03*
X0251000Y0093500D03*
X0261000Y0093500D03*
X0211000Y0084500D03*
X0100000Y0083500D03*
X0100000Y0103500D03*
X0012000Y0043500D03*
X0336000Y0064500D03*
D13*
X0323600Y0063500D02*
X0318400Y0063500D01*
X0311000Y0066100D02*
X0311000Y0060900D01*
X0303600Y0063500D02*
X0298400Y0063500D01*
X0298400Y0073500D02*
X0303600Y0073500D01*
X0318400Y0073500D02*
X0323600Y0073500D01*
X0323600Y0083500D02*
X0318400Y0083500D01*
X0311000Y0090900D02*
X0311000Y0096100D01*
X0303600Y0093500D02*
X0298400Y0093500D01*
X0298400Y0083500D02*
X0303600Y0083500D01*
X0318400Y0093500D02*
X0323600Y0093500D01*
X0323600Y0103500D02*
X0318400Y0103500D01*
X0303600Y0103500D02*
X0298400Y0103500D01*
X0273600Y0103500D02*
X0268400Y0103500D01*
X0268400Y0093500D02*
X0273600Y0093500D01*
X0273600Y0083500D02*
X0268400Y0083500D01*
X0268400Y0073500D02*
X0273600Y0073500D01*
X0273600Y0063500D02*
X0268400Y0063500D01*
X0318400Y0053500D02*
X0323600Y0053500D01*
X0323600Y0043500D02*
X0318400Y0043500D01*
X0263600Y0013500D02*
X0258400Y0013500D01*
X0233600Y0013500D02*
X0228400Y0013500D01*
X0213600Y0013500D02*
X0208400Y0013500D01*
X0208400Y0023500D02*
X0213600Y0023500D01*
X0191000Y0030900D02*
X0191000Y0036100D01*
X0181000Y0036100D02*
X0181000Y0030900D01*
X0171000Y0030900D02*
X0171000Y0036100D01*
X0161000Y0036100D02*
X0161000Y0030900D01*
X0151000Y0030900D02*
X0151000Y0036100D01*
X0141000Y0036100D02*
X0141000Y0030900D01*
X0143600Y0053500D02*
X0138400Y0053500D01*
X0168400Y0053500D02*
X0173600Y0053500D01*
X0208400Y0053500D02*
X0213600Y0053500D01*
X0213600Y0063500D02*
X0208400Y0063500D01*
X0181000Y0070900D02*
X0181000Y0076100D01*
X0171000Y0076100D02*
X0171000Y0070900D01*
X0161000Y0070900D02*
X0161000Y0076100D01*
X0163600Y0083500D02*
X0158400Y0083500D01*
X0158400Y0093500D02*
X0163600Y0093500D01*
X0163600Y0103500D02*
X0158400Y0103500D01*
X0158400Y0113500D02*
X0163600Y0113500D01*
X0151000Y0115900D02*
X0151000Y0121100D01*
X0141000Y0121100D02*
X0141000Y0115900D01*
X0131000Y0115900D02*
X0131000Y0121100D01*
X0158400Y0123500D02*
X0163600Y0123500D01*
X0163600Y0133500D02*
X0158400Y0133500D01*
X0151000Y0135900D02*
X0151000Y0141100D01*
X0141000Y0141100D02*
X0141000Y0135900D01*
X0131000Y0135900D02*
X0131000Y0141100D01*
X0103600Y0143500D02*
X0098400Y0143500D01*
X0073600Y0143500D02*
X0068400Y0143500D01*
X0158400Y0143500D02*
X0163600Y0143500D01*
X0188400Y0143500D02*
X0193600Y0143500D01*
X0193600Y0133500D02*
X0188400Y0133500D01*
X0188400Y0123500D02*
X0193600Y0123500D01*
X0193600Y0113500D02*
X0188400Y0113500D01*
X0188400Y0103500D02*
X0193600Y0103500D01*
X0193600Y0093500D02*
X0188400Y0093500D01*
X0188400Y0083500D02*
X0193600Y0083500D01*
X0268400Y0113500D02*
X0273600Y0113500D01*
X0273600Y0123500D02*
X0268400Y0123500D01*
X0298400Y0123500D02*
X0303600Y0123500D01*
X0318400Y0123500D02*
X0323600Y0123500D01*
X0323600Y0113500D02*
X0318400Y0113500D01*
X0303600Y0113500D02*
X0298400Y0113500D01*
X0213600Y0043500D02*
X0208400Y0043500D01*
X0208400Y0033500D02*
X0213600Y0033500D01*
X0083600Y0033500D02*
X0078400Y0033500D01*
X0078400Y0043500D02*
X0083600Y0043500D01*
X0083600Y0053500D02*
X0078400Y0053500D01*
X0078400Y0063500D02*
X0083600Y0063500D01*
X0083600Y0073500D02*
X0078400Y0073500D01*
X0053600Y0073500D02*
X0048400Y0073500D01*
X0048400Y0063500D02*
X0053600Y0063500D01*
X0053600Y0053500D02*
X0048400Y0053500D01*
X0048400Y0043500D02*
X0053600Y0043500D01*
X0053600Y0033500D02*
X0048400Y0033500D01*
X0048400Y0023500D02*
X0053600Y0023500D01*
X0053600Y0013500D02*
X0048400Y0013500D01*
X0078400Y0013500D02*
X0083600Y0013500D01*
X0083600Y0023500D02*
X0078400Y0023500D01*
D14*
X0021000Y0073500D03*
X0011000Y0073500D03*
X0011000Y0083500D03*
X0021000Y0083500D03*
X0021000Y0093500D03*
X0011000Y0093500D03*
X0011000Y0103500D03*
X0021000Y0103500D03*
X0021000Y0113500D03*
X0011000Y0113500D03*
X0011000Y0123500D03*
X0021000Y0123500D03*
X0021000Y0133500D03*
X0011000Y0133500D03*
X0011000Y0143500D03*
X0021000Y0143500D03*
D15*
X0221000Y0140500D02*
X0221000Y0146500D01*
X0231000Y0146500D02*
X0231000Y0140500D01*
X0241000Y0140500D02*
X0241000Y0146500D01*
X0251000Y0146500D02*
X0251000Y0140500D01*
X0261000Y0140500D02*
X0261000Y0146500D01*
X0271000Y0146500D02*
X0271000Y0140500D01*
X0281000Y0140500D02*
X0281000Y0146500D01*
X0291000Y0146500D02*
X0291000Y0140500D01*
X0301000Y0140500D02*
X0301000Y0146500D01*
X0311000Y0146500D02*
X0311000Y0140500D01*
X0191000Y0016500D02*
X0191000Y0010500D01*
X0181000Y0010500D02*
X0181000Y0016500D01*
X0171000Y0016500D02*
X0171000Y0010500D01*
X0161000Y0010500D02*
X0161000Y0016500D01*
X0151000Y0016500D02*
X0151000Y0010500D01*
X0141000Y0010500D02*
X0141000Y0016500D01*
X0131000Y0016500D02*
X0131000Y0010500D01*
X0121000Y0010500D02*
X0121000Y0016500D01*
X0111000Y0016500D02*
X0111000Y0010500D01*
X0101000Y0010500D02*
X0101000Y0016500D01*
D16*
X0321000Y0023500D03*
X0331000Y0013500D03*
X0331000Y0033500D03*
X0061000Y0133500D03*
X0051000Y0143500D03*
X0051000Y0123500D03*
D17*
X0056200Y0123500D02*
X0040000Y0107300D01*
X0025000Y0107300D01*
X0021400Y0103700D01*
X0021000Y0103500D01*
X0041000Y0113500D02*
X0041200Y0113900D01*
X0041200Y0118100D01*
X0050800Y0127700D01*
X0050800Y0143300D01*
X0051000Y0143500D01*
X0074800Y0122300D02*
X0079600Y0127100D01*
X0109600Y0127100D01*
X0130000Y0147500D01*
X0164800Y0147500D01*
X0172600Y0139700D01*
X0192400Y0139700D01*
X0206200Y0125900D01*
X0206200Y0083900D01*
X0216400Y0073700D01*
X0220600Y0073700D01*
X0221000Y0073500D01*
X0224200Y0075500D02*
X0224800Y0074900D01*
X0224800Y0069500D01*
X0218800Y0069500D01*
X0205000Y0083300D01*
X0205000Y0087500D01*
X0195400Y0097100D01*
X0189400Y0097100D01*
X0184600Y0101900D01*
X0184600Y0104900D01*
X0190600Y0110900D01*
X0190600Y0113300D01*
X0191000Y0113500D01*
X0197200Y0112100D02*
X0197200Y0117500D01*
X0191200Y0123500D01*
X0191000Y0123500D01*
X0191000Y0133500D02*
X0177400Y0119900D01*
X0177400Y0089300D01*
X0200800Y0065900D01*
X0200800Y0063500D01*
X0201000Y0063500D01*
X0207400Y0057500D02*
X0191200Y0041300D01*
X0191200Y0033500D01*
X0191000Y0033500D01*
X0184600Y0032300D02*
X0184600Y0080300D01*
X0167200Y0097700D01*
X0167200Y0107300D01*
X0161000Y0113500D01*
X0154600Y0114500D02*
X0154600Y0115100D01*
X0159400Y0119900D01*
X0177400Y0119900D01*
X0191200Y0106100D02*
X0197200Y0112100D01*
X0191200Y0106100D02*
X0191200Y0103700D01*
X0191000Y0103500D01*
X0207400Y0101900D02*
X0207400Y0119900D01*
X0211000Y0123500D01*
X0217000Y0119900D02*
X0220600Y0123500D01*
X0221000Y0123500D01*
X0217000Y0119900D02*
X0217000Y0112100D01*
X0219400Y0109700D01*
X0221800Y0109700D01*
X0227800Y0103700D01*
X0257200Y0103700D01*
X0257200Y0124700D01*
X0259600Y0127100D01*
X0275200Y0127100D01*
X0282400Y0119900D01*
X0322600Y0119900D01*
X0327400Y0115100D01*
X0327400Y0101900D01*
X0321400Y0095900D01*
X0321400Y0093500D01*
X0321000Y0093500D01*
X0314800Y0097100D02*
X0320800Y0103100D01*
X0321000Y0103500D01*
X0320800Y0110900D02*
X0311200Y0101300D01*
X0311200Y0093500D01*
X0311000Y0093500D01*
X0314800Y0097100D02*
X0314800Y0059300D01*
X0311200Y0055700D01*
X0311200Y0053900D01*
X0311000Y0053500D01*
X0321000Y0053500D02*
X0321400Y0053900D01*
X0321400Y0056300D01*
X0327400Y0062300D01*
X0327400Y0077300D01*
X0321400Y0083300D01*
X0321000Y0083500D01*
X0301000Y0093500D02*
X0294400Y0086900D01*
X0294400Y0070100D01*
X0281800Y0057500D01*
X0309400Y0029900D01*
X0312400Y0029900D01*
X0320800Y0038300D01*
X0320800Y0043100D01*
X0321000Y0043500D01*
X0311000Y0033500D02*
X0310600Y0033500D01*
X0301000Y0043100D01*
X0301000Y0063500D01*
X0301000Y0073100D02*
X0287800Y0059900D01*
X0281800Y0057500D02*
X0271000Y0046700D01*
X0271000Y0043500D01*
X0271000Y0043100D01*
X0267400Y0043100D01*
X0263800Y0039500D01*
X0259600Y0039500D01*
X0238000Y0061100D01*
X0238000Y0071900D01*
X0232000Y0077900D01*
X0226600Y0077900D01*
X0224200Y0075500D01*
X0222400Y0077300D01*
X0221800Y0077300D01*
X0214600Y0084500D01*
X0211000Y0084500D01*
X0221000Y0083500D02*
X0221200Y0083300D01*
X0228400Y0083300D01*
X0242200Y0069500D01*
X0260200Y0069500D01*
X0266200Y0063500D01*
X0271000Y0063500D01*
X0277600Y0062300D02*
X0277600Y0074900D01*
X0274000Y0078500D01*
X0277600Y0082100D01*
X0277600Y0104900D01*
X0275200Y0107300D01*
X0269200Y0107300D01*
X0264400Y0112100D01*
X0264400Y0115100D01*
X0268000Y0118700D01*
X0263200Y0123500D01*
X0261000Y0123500D01*
X0256000Y0123500D02*
X0256000Y0125300D01*
X0259000Y0128300D01*
X0296200Y0128300D01*
X0301000Y0123500D01*
X0287200Y0117500D02*
X0301000Y0103700D01*
X0301000Y0103500D01*
X0320800Y0110900D02*
X0320800Y0113300D01*
X0321000Y0113500D01*
X0328600Y0123500D02*
X0316000Y0136100D01*
X0298600Y0136100D01*
X0291400Y0143300D01*
X0291000Y0143500D01*
X0291400Y0143300D02*
X0283000Y0134900D01*
X0263800Y0134900D01*
X0252400Y0123500D01*
X0251000Y0123500D01*
X0245800Y0123500D02*
X0258400Y0136100D01*
X0282400Y0136100D01*
X0286600Y0140300D01*
X0286600Y0148100D01*
X0289000Y0150500D01*
X0294400Y0150500D01*
X0301000Y0143900D01*
X0301000Y0143500D01*
X0328600Y0123500D02*
X0336000Y0123500D01*
X0287200Y0117500D02*
X0269200Y0117500D01*
X0268000Y0118700D01*
X0271000Y0113500D02*
X0271000Y0113300D01*
X0278800Y0105500D01*
X0278800Y0056300D01*
X0266200Y0043700D01*
X0261400Y0043700D01*
X0261000Y0043500D01*
X0260200Y0037100D02*
X0267400Y0037100D01*
X0271000Y0033500D01*
X0260200Y0037100D02*
X0235600Y0061700D01*
X0235600Y0071300D01*
X0227200Y0075500D02*
X0227200Y0054500D01*
X0222400Y0049700D01*
X0209200Y0049700D01*
X0204400Y0044900D01*
X0204400Y0032300D01*
X0206800Y0029900D01*
X0215200Y0029900D01*
X0218800Y0033500D01*
X0221000Y0033500D01*
X0251200Y0033500D01*
X0260800Y0023900D01*
X0261000Y0023500D01*
X0265600Y0023900D02*
X0271000Y0023900D01*
X0271000Y0023500D01*
X0265600Y0023900D02*
X0252400Y0037100D01*
X0219400Y0037100D01*
X0215800Y0033500D01*
X0211000Y0033500D01*
X0195400Y0037700D02*
X0195400Y0008900D01*
X0193000Y0006500D01*
X0187600Y0006500D01*
X0181000Y0013100D01*
X0181000Y0013500D01*
X0190600Y0013700D02*
X0191000Y0013500D01*
X0190600Y0013700D02*
X0190600Y0026300D01*
X0184600Y0032300D01*
X0195400Y0037700D02*
X0211000Y0053300D01*
X0211000Y0053500D01*
X0207400Y0057500D02*
X0220000Y0057500D01*
X0224800Y0062300D01*
X0224800Y0069500D01*
X0231400Y0093500D02*
X0251200Y0073700D01*
X0260800Y0073700D01*
X0261000Y0073500D01*
X0259600Y0079700D02*
X0251200Y0088100D01*
X0251200Y0093500D01*
X0251000Y0093500D01*
X0246400Y0093500D01*
X0242800Y0097100D01*
X0211000Y0097100D01*
X0211000Y0092500D01*
X0211000Y0097100D02*
X0211000Y0098300D01*
X0207400Y0101900D01*
X0211000Y0103100D02*
X0211000Y0103500D01*
X0211000Y0103100D02*
X0216400Y0103100D01*
X0221200Y0098300D01*
X0251200Y0098300D01*
X0260800Y0088700D01*
X0260800Y0083900D01*
X0261000Y0083500D01*
X0259600Y0079700D02*
X0272800Y0079700D01*
X0274000Y0078500D01*
X0301000Y0073500D02*
X0301000Y0073100D01*
X0277600Y0062300D02*
X0271000Y0055700D01*
X0271000Y0053500D01*
X0280000Y0027500D02*
X0266200Y0013700D01*
X0261400Y0013700D01*
X0261000Y0013500D01*
X0257200Y0017300D01*
X0221800Y0017300D01*
X0215800Y0023300D01*
X0211000Y0023300D01*
X0211000Y0023500D01*
X0171000Y0033500D02*
X0169000Y0033500D01*
X0149200Y0053300D01*
X0141400Y0053300D01*
X0141000Y0053500D01*
X0132400Y0047300D02*
X0140800Y0038900D01*
X0140800Y0033500D01*
X0141000Y0033500D01*
X0137200Y0032300D02*
X0137200Y0029300D01*
X0145600Y0020900D01*
X0153400Y0020900D01*
X0160600Y0013700D01*
X0161000Y0013500D01*
X0141000Y0013500D02*
X0140800Y0013100D01*
X0139600Y0013100D01*
X0133000Y0006500D01*
X0098200Y0006500D01*
X0081400Y0023300D01*
X0081000Y0023500D01*
X0080800Y0023900D01*
X0073600Y0031100D01*
X0073600Y0058700D01*
X0049000Y0083300D01*
X0041200Y0083300D01*
X0041000Y0083500D01*
X0021000Y0073500D02*
X0041000Y0053500D01*
X0031000Y0043500D02*
X0031000Y0043100D01*
X0040600Y0033500D01*
X0051000Y0033500D01*
X0074800Y0041900D02*
X0074800Y0047300D01*
X0081000Y0053500D01*
X0087400Y0052100D02*
X0087400Y0057500D01*
X0081400Y0063500D01*
X0081000Y0063500D01*
X0079600Y0067100D02*
X0085000Y0067100D01*
X0091000Y0061100D01*
X0091000Y0053500D01*
X0087400Y0052100D02*
X0121000Y0018500D01*
X0121000Y0013500D01*
X0137200Y0032300D02*
X0092200Y0077300D01*
X0082000Y0077300D01*
X0077200Y0082100D01*
X0077200Y0094700D01*
X0080800Y0098300D01*
X0080800Y0103100D01*
X0081000Y0103500D01*
X0082000Y0107300D02*
X0093400Y0107300D01*
X0096400Y0104300D01*
X0096400Y0101900D01*
X0104800Y0093500D01*
X0111000Y0093500D01*
X0111400Y0088700D02*
X0121000Y0098300D01*
X0121000Y0103500D01*
X0109600Y0107300D02*
X0137200Y0107300D01*
X0137800Y0106700D01*
X0145000Y0113900D01*
X0145000Y0120500D01*
X0157600Y0133100D01*
X0160600Y0133100D01*
X0161000Y0133500D01*
X0161200Y0133700D01*
X0161200Y0143300D01*
X0161000Y0143500D01*
X0165400Y0148700D02*
X0121000Y0148700D01*
X0111400Y0139100D01*
X0111400Y0133700D01*
X0111000Y0133500D01*
X0115600Y0123500D02*
X0121600Y0129500D01*
X0142000Y0129500D01*
X0151000Y0138500D01*
X0165400Y0148700D02*
X0170200Y0143900D01*
X0190600Y0143900D01*
X0191000Y0143500D01*
X0215800Y0138500D02*
X0220600Y0143300D01*
X0221000Y0143500D01*
X0215800Y0138500D02*
X0215800Y0111500D01*
X0218800Y0108500D01*
X0221200Y0108500D01*
X0227200Y0102500D01*
X0248800Y0102500D01*
X0257800Y0093500D01*
X0261000Y0093500D01*
X0271000Y0103500D02*
X0271000Y0103700D01*
X0257200Y0103700D01*
X0246400Y0113900D02*
X0256000Y0123500D01*
X0245800Y0123500D02*
X0241000Y0123500D01*
X0246400Y0113900D02*
X0221200Y0113900D01*
X0221000Y0113500D01*
X0231000Y0093500D02*
X0231400Y0093500D01*
X0181000Y0073500D02*
X0181000Y0073100D01*
X0167800Y0059900D01*
X0129400Y0059900D01*
X0125800Y0063500D01*
X0121000Y0063500D01*
X0115600Y0063500D02*
X0145000Y0092900D01*
X0145000Y0106700D01*
X0151000Y0112700D01*
X0151000Y0118500D01*
X0141000Y0118500D02*
X0140800Y0118100D01*
X0134800Y0112100D01*
X0129400Y0112100D01*
X0128200Y0113300D01*
X0121000Y0113300D01*
X0121000Y0113500D01*
X0121000Y0113900D01*
X0115600Y0113900D01*
X0112000Y0117500D01*
X0085000Y0117500D01*
X0081000Y0113500D01*
X0077200Y0112100D02*
X0082000Y0107300D01*
X0077200Y0112100D02*
X0077200Y0115100D01*
X0080800Y0118700D01*
X0080800Y0123500D01*
X0081000Y0123500D01*
X0085600Y0123500D01*
X0089200Y0119900D01*
X0117400Y0119900D01*
X0121000Y0123500D01*
X0115600Y0123500D02*
X0101000Y0123500D01*
X0074800Y0122300D02*
X0074800Y0071900D01*
X0079600Y0067100D01*
X0081400Y0073100D02*
X0081000Y0073500D01*
X0081400Y0073100D02*
X0091000Y0073100D01*
X0130600Y0033500D01*
X0131000Y0033500D01*
X0131800Y0047300D02*
X0132400Y0047300D01*
X0131800Y0047300D02*
X0115600Y0063500D01*
X0111000Y0063500D01*
X0141000Y0063500D02*
X0141400Y0063500D01*
X0141400Y0081500D01*
X0160600Y0100700D01*
X0160600Y0103100D01*
X0161000Y0103500D01*
X0151000Y0103500D02*
X0151000Y0110900D01*
X0154600Y0114500D01*
X0141000Y0103500D02*
X0137800Y0106700D01*
X0109600Y0107300D02*
X0106000Y0103700D01*
X0100000Y0103700D01*
X0100000Y0103500D01*
X0092000Y0103500D02*
X0091600Y0103100D01*
X0091600Y0098900D01*
X0081400Y0088700D01*
X0081400Y0083900D01*
X0081000Y0083500D01*
X0111000Y0083500D02*
X0111400Y0083900D01*
X0111400Y0088700D01*
X0071000Y0123500D02*
X0056200Y0123500D01*
X0074800Y0041900D02*
X0080800Y0035900D01*
X0080800Y0033500D01*
X0081000Y0033500D01*
X0271000Y0013700D02*
X0271000Y0013500D01*
X0271000Y0013700D02*
X0301000Y0013700D01*
X0310600Y0023300D01*
X0311000Y0023500D01*
X0312400Y0027500D02*
X0316000Y0023900D01*
X0320800Y0023900D01*
X0321000Y0023500D01*
X0312400Y0027500D02*
X0280000Y0027500D01*
D18*
X0287800Y0059900D03*
X0235600Y0071300D03*
X0227200Y0075500D03*
M02*
