G75*
%MOIN*%
%OFA0B0*%
%FSLAX25Y25*%
%IPPOS*%
%LPD*%
%AMOC8*
5,1,8,0,0,1.08239X$1,22.5*
%
%ADD10C,0.00000*%
%ADD11C,0.05600*%
%ADD12OC8,0.06400*%
%ADD13OC8,0.05600*%
%ADD14R,0.07487X0.07487*%
D10*
X0001000Y0001250D02*
X0001000Y0086211D01*
X0394701Y0086211D01*
X0394701Y0001250D01*
X0001000Y0001250D01*
D11*
X0013400Y0071250D02*
X0018600Y0071250D01*
X0033400Y0071250D02*
X0038600Y0071250D01*
X0060900Y0071250D02*
X0066100Y0071250D01*
X0080900Y0071250D02*
X0086100Y0071250D01*
X0108400Y0071250D02*
X0113600Y0071250D01*
X0128400Y0071250D02*
X0133600Y0071250D01*
X0155900Y0071250D02*
X0161100Y0071250D01*
X0175900Y0071250D02*
X0181100Y0071250D01*
D12*
X0199701Y0066250D03*
X0209701Y0066250D03*
X0219701Y0066250D03*
X0229701Y0066250D03*
X0239701Y0066250D03*
X0239701Y0076250D03*
X0229701Y0076250D03*
X0219701Y0076250D03*
X0209701Y0076250D03*
X0199701Y0076250D03*
D13*
X0188500Y0061250D03*
X0158500Y0061250D03*
X0141000Y0061250D03*
X0111000Y0061250D03*
X0093500Y0061250D03*
X0063500Y0061250D03*
X0046000Y0061250D03*
X0016000Y0061250D03*
X0016000Y0051250D03*
X0046000Y0051250D03*
X0063500Y0051250D03*
X0093500Y0051250D03*
X0111000Y0051250D03*
X0141000Y0051250D03*
X0158500Y0051250D03*
X0188500Y0051250D03*
D14*
X0188795Y0025659D03*
X0206906Y0025659D03*
X0243913Y0025659D03*
X0254150Y0025659D03*
X0291157Y0025659D03*
X0301394Y0025659D03*
X0338402Y0025659D03*
X0348638Y0025659D03*
X0385646Y0025659D03*
X0385646Y0010699D03*
X0348638Y0010699D03*
X0338402Y0010699D03*
X0301394Y0010699D03*
X0291157Y0010699D03*
X0254150Y0010699D03*
X0243913Y0010699D03*
X0206906Y0010699D03*
X0188795Y0010699D03*
X0151787Y0010699D03*
X0141551Y0010699D03*
X0104543Y0010699D03*
X0094307Y0010699D03*
X0057299Y0010699D03*
X0047063Y0010699D03*
X0010055Y0010699D03*
X0010055Y0025659D03*
X0047063Y0025659D03*
X0057299Y0025659D03*
X0094307Y0025659D03*
X0104543Y0025659D03*
X0141551Y0025659D03*
X0151787Y0025659D03*
M02*
