G75*
%MOIN*%
%OFA0B0*%
%FSLAX25Y25*%
%IPPOS*%
%LPD*%
%AMOC8*
5,1,8,0,0,1.08239X$1,22.5*
%
%ADD10C,0.00000*%
%ADD11OC8,0.05600*%
%ADD12C,0.05600*%
%ADD13C,0.05600*%
%ADD14C,0.04800*%
%ADD15OC8,0.06400*%
%ADD16C,0.06400*%
D10*
X0001000Y0006000D02*
X0001000Y0155961D01*
X0282201Y0155961D01*
X0282201Y0006000D01*
X0001000Y0006000D01*
D11*
X0011000Y0016000D03*
X0021000Y0016000D03*
X0031000Y0016000D03*
X0031000Y0026000D03*
X0021000Y0026000D03*
X0011000Y0026000D03*
X0020000Y0046000D03*
X0031000Y0046000D03*
X0041000Y0046000D03*
X0041000Y0056000D03*
X0031000Y0056000D03*
X0041000Y0086000D03*
X0041000Y0096000D03*
X0041000Y0106000D03*
X0081000Y0106000D03*
X0081000Y0096000D03*
X0081000Y0086000D03*
X0101000Y0097000D03*
X0131000Y0106000D03*
X0141000Y0106000D03*
X0151000Y0106000D03*
X0161000Y0106000D03*
X0131000Y0116000D03*
X0131000Y0126000D03*
X0121000Y0126000D03*
X0121000Y0136000D03*
X0131000Y0136000D03*
X0131000Y0146000D03*
X0081000Y0136000D03*
X0081000Y0126000D03*
X0121000Y0076000D03*
X0121000Y0066000D03*
X0131000Y0066000D03*
X0141000Y0066000D03*
X0151000Y0066000D03*
X0161000Y0066000D03*
X0141000Y0056000D03*
X0141000Y0046000D03*
X0131000Y0046000D03*
X0131000Y0036000D03*
X0141000Y0036000D03*
X0181000Y0036000D03*
X0181000Y0046000D03*
X0181000Y0056000D03*
X0201000Y0046000D03*
X0201000Y0036000D03*
X0221000Y0036000D03*
X0221000Y0046000D03*
X0101000Y0067000D03*
X0091000Y0046000D03*
X0091000Y0036000D03*
X0191000Y0136000D03*
X0191000Y0146000D03*
X0201000Y0146000D03*
X0211000Y0146000D03*
X0221000Y0146000D03*
X0231000Y0146000D03*
X0241000Y0146000D03*
X0231000Y0136000D03*
X0270000Y0146000D03*
D12*
X0262000Y0146000D03*
X0101000Y0105000D03*
X0101000Y0075000D03*
X0012000Y0046000D03*
D13*
X0048400Y0046000D02*
X0053600Y0046000D01*
X0053600Y0036000D02*
X0048400Y0036000D01*
X0048400Y0026000D02*
X0053600Y0026000D01*
X0053600Y0016000D02*
X0048400Y0016000D01*
X0078400Y0016000D02*
X0083600Y0016000D01*
X0083600Y0026000D02*
X0078400Y0026000D01*
X0078400Y0036000D02*
X0083600Y0036000D01*
X0083600Y0046000D02*
X0078400Y0046000D01*
X0078400Y0056000D02*
X0083600Y0056000D01*
X0083600Y0066000D02*
X0078400Y0066000D01*
X0078400Y0076000D02*
X0083600Y0076000D01*
X0053600Y0076000D02*
X0048400Y0076000D01*
X0048400Y0066000D02*
X0053600Y0066000D01*
X0053600Y0056000D02*
X0048400Y0056000D01*
X0188400Y0066000D02*
X0193600Y0066000D01*
X0193600Y0076000D02*
X0188400Y0076000D01*
X0188400Y0086000D02*
X0193600Y0086000D01*
X0193600Y0096000D02*
X0188400Y0096000D01*
X0188400Y0106000D02*
X0193600Y0106000D01*
X0193600Y0116000D02*
X0188400Y0116000D01*
X0188400Y0126000D02*
X0193600Y0126000D01*
X0218400Y0126000D02*
X0223600Y0126000D01*
X0238400Y0126000D02*
X0243600Y0126000D01*
X0243600Y0116000D02*
X0238400Y0116000D01*
X0223600Y0116000D02*
X0218400Y0116000D01*
X0218400Y0106000D02*
X0223600Y0106000D01*
X0238400Y0106000D02*
X0243600Y0106000D01*
X0243600Y0096000D02*
X0238400Y0096000D01*
X0223600Y0096000D02*
X0218400Y0096000D01*
X0218400Y0086000D02*
X0223600Y0086000D01*
X0238400Y0086000D02*
X0243600Y0086000D01*
X0243600Y0076000D02*
X0238400Y0076000D01*
X0223600Y0076000D02*
X0218400Y0076000D01*
X0218400Y0066000D02*
X0223600Y0066000D01*
X0238400Y0066000D02*
X0243600Y0066000D01*
X0268400Y0066000D02*
X0273600Y0066000D01*
X0273600Y0076000D02*
X0268400Y0076000D01*
X0268400Y0086000D02*
X0273600Y0086000D01*
X0273600Y0096000D02*
X0268400Y0096000D01*
X0268400Y0106000D02*
X0273600Y0106000D01*
X0273600Y0116000D02*
X0268400Y0116000D01*
X0268400Y0126000D02*
X0273600Y0126000D01*
X0273600Y0046000D02*
X0268400Y0046000D01*
X0268400Y0036000D02*
X0273600Y0036000D01*
X0273600Y0026000D02*
X0268400Y0026000D01*
X0268400Y0016000D02*
X0273600Y0016000D01*
X0243600Y0016000D02*
X0238400Y0016000D01*
X0231000Y0013400D02*
X0231000Y0018600D01*
X0221000Y0018600D02*
X0221000Y0013400D01*
X0211000Y0013400D02*
X0211000Y0018600D01*
X0238400Y0026000D02*
X0243600Y0026000D01*
X0243600Y0036000D02*
X0238400Y0036000D01*
X0238400Y0046000D02*
X0243600Y0046000D01*
X0113600Y0146000D02*
X0108400Y0146000D01*
X0083600Y0146000D02*
X0078400Y0146000D01*
D14*
X0061000Y0136000D03*
X0051000Y0146000D03*
X0051000Y0126000D03*
X0161000Y0136000D03*
X0171000Y0146000D03*
X0171000Y0126000D03*
D15*
X0021000Y0126000D03*
X0011000Y0126000D03*
X0011000Y0116000D03*
X0021000Y0116000D03*
X0021000Y0106000D03*
X0011000Y0106000D03*
X0011000Y0096000D03*
X0021000Y0096000D03*
X0021000Y0086000D03*
X0011000Y0086000D03*
X0011000Y0076000D03*
X0021000Y0076000D03*
X0021000Y0136000D03*
X0011000Y0136000D03*
X0011000Y0146000D03*
X0021000Y0146000D03*
D16*
X0101000Y0019000D02*
X0101000Y0013000D01*
X0111000Y0013000D02*
X0111000Y0019000D01*
X0121000Y0019000D02*
X0121000Y0013000D01*
X0131000Y0013000D02*
X0131000Y0019000D01*
X0141000Y0019000D02*
X0141000Y0013000D01*
X0151000Y0013000D02*
X0151000Y0019000D01*
X0161000Y0019000D02*
X0161000Y0013000D01*
X0171000Y0013000D02*
X0171000Y0019000D01*
X0181000Y0019000D02*
X0181000Y0013000D01*
X0191000Y0013000D02*
X0191000Y0019000D01*
M02*
