%
M48
M72
T01C0.02400
T02C0.03200
T03C0.04000
%
T01
X107200Y43800
X114400Y43800
X152200Y30300
X199000Y24000
X171000Y126000
X161000Y136000
X171000Y146000
X61000Y136000
X51000Y146000
X51000Y126000
T02
X81000Y146000
X81000Y136000
X81000Y126000
X81000Y106000
X81000Y96000
X81000Y86000
X81000Y76000
X81000Y66000
X81000Y56000
X81000Y46000
X91000Y46000
X91000Y36000
X81000Y36000
X81000Y26000
X81000Y16000
X51000Y16000
X51000Y26000
X51000Y36000
X51000Y46000
X41000Y46000
X31000Y46000
X20000Y46000
X12000Y46000
X31000Y56000
X41000Y56000
X51000Y56000
X51000Y66000
X51000Y76000
X41000Y86000
X41000Y96000
X41000Y106000
X101000Y105000
X101000Y97000
X131000Y106000
X141000Y106000
X151000Y106000
X161000Y106000
X191000Y106000
X191000Y96000
X191000Y86000
X191000Y76000
X191000Y66000
X181000Y56000
X181000Y46000
X181000Y36000
X201000Y36000
X201000Y46000
X221000Y46000
X221000Y36000
X241000Y36000
X241000Y26000
X241000Y16000
X231000Y16000
X221000Y16000
X211000Y16000
X241000Y46000
X271000Y46000
X271000Y36000
X271000Y26000
X271000Y16000
X271000Y66000
X271000Y76000
X271000Y86000
X271000Y96000
X271000Y106000
X271000Y116000
X271000Y126000
X241000Y126000
X241000Y116000
X241000Y106000
X241000Y96000
X241000Y86000
X241000Y76000
X241000Y66000
X221000Y66000
X221000Y76000
X221000Y86000
X221000Y96000
X221000Y106000
X221000Y116000
X221000Y126000
X231000Y136000
X231000Y146000
X241000Y146000
X221000Y146000
X211000Y146000
X201000Y146000
X191000Y146000
X191000Y136000
X191000Y126000
X191000Y116000
X131000Y116000
X131000Y126000
X121000Y126000
X121000Y136000
X131000Y136000
X131000Y146000
X111000Y146000
X121000Y76000
X121000Y66000
X131000Y66000
X141000Y66000
X151000Y66000
X161000Y66000
X141000Y56000
X141000Y46000
X131000Y46000
X131000Y36000
X141000Y36000
X101000Y67000
X101000Y75000
X31000Y26000
X21000Y26000
X11000Y26000
X11000Y16000
X21000Y16000
X31000Y16000
X262000Y146000
X270000Y146000
T03
X11000Y146000
X21000Y146000
X21000Y136000
X11000Y136000
X11000Y126000
X21000Y126000
X21000Y116000
X11000Y116000
X11000Y106000
X21000Y106000
X21000Y96000
X11000Y96000
X11000Y86000
X21000Y86000
X21000Y76000
X11000Y76000
X101000Y16000
X111000Y16000
X121000Y16000
X131000Y16000
X141000Y16000
X151000Y16000
X161000Y16000
X171000Y16000
X181000Y16000
X191000Y16000
M30
