G75*
%MOIN*%
%OFA0B0*%
%FSLAX25Y25*%
%IPPOS*%
%LPD*%
%AMOC8*
5,1,8,0,0,1.08239X$1,22.5*
%
%ADD10C,0.00000*%
%ADD11C,0.00300*%
%ADD12C,0.00600*%
%ADD13C,0.01200*%
%ADD14C,0.00500*%
%ADD15R,0.02000X0.08000*%
%ADD16R,0.02500X0.02000*%
%ADD17C,0.01000*%
%ADD18R,0.01181X0.08268*%
%ADD19C,0.00400*%
D10*
X0001000Y0006000D02*
X0001000Y0155961D01*
X0282201Y0155961D01*
X0282201Y0006000D01*
X0001000Y0006000D01*
D11*
X0032599Y0111863D02*
X0032115Y0112347D01*
X0032115Y0113798D01*
X0031148Y0113798D02*
X0034050Y0113798D01*
X0034050Y0112347D01*
X0033566Y0111863D01*
X0032599Y0111863D01*
X0034050Y0114810D02*
X0034050Y0115777D01*
X0034050Y0115293D02*
X0031148Y0115293D01*
X0031148Y0114810D01*
X0032115Y0116774D02*
X0032115Y0118225D01*
X0032599Y0118709D01*
X0033566Y0118709D01*
X0034050Y0118225D01*
X0034050Y0116774D01*
X0035017Y0116774D02*
X0032115Y0116774D01*
X0033566Y0119720D02*
X0033566Y0120204D01*
X0034050Y0120204D01*
X0034050Y0119720D01*
X0033566Y0119720D01*
X0032115Y0121194D02*
X0034050Y0122161D01*
X0032115Y0123129D01*
X0032599Y0124140D02*
X0032115Y0124624D01*
X0032115Y0126075D01*
X0032599Y0127087D02*
X0032115Y0127570D01*
X0032115Y0128538D01*
X0032599Y0129022D01*
X0033566Y0129022D01*
X0034050Y0128538D01*
X0034050Y0127570D01*
X0033566Y0127087D01*
X0032599Y0127087D01*
X0034050Y0126075D02*
X0034050Y0124624D01*
X0033566Y0124140D01*
X0032599Y0124140D01*
X0036915Y0128069D02*
X0038850Y0128069D01*
X0037883Y0128069D02*
X0036915Y0129036D01*
X0036915Y0129520D01*
X0037399Y0130524D02*
X0036915Y0131008D01*
X0036915Y0131976D01*
X0037399Y0132459D01*
X0037883Y0132459D01*
X0037883Y0130524D01*
X0038366Y0130524D02*
X0037399Y0130524D01*
X0038366Y0130524D02*
X0038850Y0131008D01*
X0038850Y0131976D01*
X0036915Y0133471D02*
X0038850Y0134438D01*
X0036915Y0135406D01*
X0034050Y0134937D02*
X0034050Y0136388D01*
X0032115Y0136388D01*
X0032115Y0137883D02*
X0032115Y0138851D01*
X0032599Y0139335D01*
X0034050Y0139335D01*
X0034050Y0137883D01*
X0033566Y0137400D01*
X0033083Y0137883D01*
X0033083Y0139335D01*
X0034050Y0140346D02*
X0034050Y0141314D01*
X0034050Y0140830D02*
X0031148Y0140830D01*
X0031148Y0140346D01*
X0032599Y0142310D02*
X0032115Y0142794D01*
X0032115Y0143762D01*
X0032599Y0144245D01*
X0033566Y0144245D01*
X0034050Y0143762D01*
X0034050Y0142794D01*
X0033566Y0142310D01*
X0032599Y0142310D01*
X0035948Y0144751D02*
X0038850Y0144751D01*
X0038850Y0143784D02*
X0038850Y0145719D01*
X0038850Y0146730D02*
X0038850Y0147214D01*
X0038366Y0147214D01*
X0038366Y0146730D01*
X0038850Y0146730D01*
X0038850Y0148203D02*
X0036915Y0150138D01*
X0036431Y0150138D01*
X0035948Y0149655D01*
X0035948Y0148687D01*
X0036431Y0148203D01*
X0038850Y0148203D02*
X0038850Y0150138D01*
X0034050Y0150138D02*
X0034050Y0148687D01*
X0033566Y0148203D01*
X0032599Y0148203D01*
X0032115Y0148687D01*
X0032115Y0150138D01*
X0032115Y0147192D02*
X0032115Y0145741D01*
X0032599Y0145257D01*
X0033083Y0145741D01*
X0033083Y0146708D01*
X0033566Y0147192D01*
X0034050Y0146708D01*
X0034050Y0145257D01*
X0035948Y0144751D02*
X0036915Y0143784D01*
X0038366Y0142794D02*
X0038850Y0142794D01*
X0038850Y0142310D01*
X0038366Y0142310D01*
X0038366Y0142794D01*
X0038850Y0141299D02*
X0038850Y0139364D01*
X0038850Y0140331D02*
X0035948Y0140331D01*
X0036915Y0139364D01*
X0034050Y0134937D02*
X0033566Y0134453D01*
X0032115Y0134453D01*
X0032115Y0133442D02*
X0032115Y0131990D01*
X0032599Y0131507D01*
X0033566Y0131507D01*
X0034050Y0131990D01*
X0034050Y0133442D01*
X0031148Y0133442D01*
X0033566Y0130517D02*
X0034050Y0130517D01*
X0034050Y0130033D01*
X0033566Y0130033D01*
X0033566Y0130517D01*
D12*
X0026000Y0128500D02*
X0026000Y0123500D01*
X0023500Y0121000D01*
X0008500Y0121000D01*
X0006000Y0123500D01*
X0006000Y0128500D01*
X0008500Y0131000D01*
X0023500Y0131000D01*
X0026000Y0133500D01*
X0026000Y0138500D01*
X0023500Y0141000D01*
X0026000Y0143500D01*
X0026000Y0148500D01*
X0023500Y0151000D01*
X0008500Y0151000D01*
X0006000Y0148500D01*
X0006000Y0143500D01*
X0008500Y0141000D01*
X0023500Y0141000D01*
X0008500Y0141000D02*
X0006000Y0138500D01*
X0006000Y0133500D01*
X0008500Y0131000D01*
X0023500Y0131000D02*
X0026000Y0128500D01*
X0023500Y0121000D02*
X0026000Y0118500D01*
X0026000Y0113500D01*
X0023500Y0111000D01*
X0008500Y0111000D01*
X0006000Y0113500D01*
X0006000Y0118500D01*
X0008500Y0121000D01*
X0008500Y0111000D02*
X0006000Y0108500D01*
X0006000Y0103500D01*
X0008500Y0101000D01*
X0023500Y0101000D01*
X0026000Y0103500D01*
X0026000Y0108500D01*
X0023500Y0111000D01*
X0023500Y0101000D02*
X0026000Y0098500D01*
X0026000Y0093500D01*
X0023500Y0091000D01*
X0008500Y0091000D01*
X0006000Y0093500D01*
X0006000Y0098500D01*
X0008500Y0101000D01*
X0008500Y0091000D02*
X0006000Y0088500D01*
X0006000Y0083500D01*
X0008500Y0081000D01*
X0023500Y0081000D01*
X0026000Y0083500D01*
X0026000Y0088500D01*
X0023500Y0091000D01*
X0023500Y0081000D02*
X0026000Y0078500D01*
X0026000Y0073500D01*
X0023500Y0071000D01*
X0008500Y0071000D01*
X0006000Y0073500D01*
X0006000Y0078500D01*
X0008500Y0081000D01*
X0029500Y0060500D02*
X0042500Y0060500D01*
X0042587Y0060498D01*
X0042674Y0060492D01*
X0042761Y0060483D01*
X0042847Y0060470D01*
X0042933Y0060453D01*
X0043018Y0060432D01*
X0043101Y0060407D01*
X0043184Y0060379D01*
X0043265Y0060348D01*
X0043345Y0060313D01*
X0043423Y0060274D01*
X0043500Y0060232D01*
X0043575Y0060187D01*
X0043647Y0060138D01*
X0043718Y0060087D01*
X0043786Y0060032D01*
X0043851Y0059975D01*
X0043914Y0059914D01*
X0043975Y0059851D01*
X0044032Y0059786D01*
X0044087Y0059718D01*
X0044138Y0059647D01*
X0044187Y0059575D01*
X0044232Y0059500D01*
X0044274Y0059423D01*
X0044313Y0059345D01*
X0044348Y0059265D01*
X0044379Y0059184D01*
X0044407Y0059101D01*
X0044432Y0059018D01*
X0044453Y0058933D01*
X0044470Y0058847D01*
X0044483Y0058761D01*
X0044492Y0058674D01*
X0044498Y0058587D01*
X0044500Y0058500D01*
X0044500Y0053500D01*
X0044498Y0053413D01*
X0044492Y0053326D01*
X0044483Y0053239D01*
X0044470Y0053153D01*
X0044453Y0053067D01*
X0044432Y0052982D01*
X0044407Y0052899D01*
X0044379Y0052816D01*
X0044348Y0052735D01*
X0044313Y0052655D01*
X0044274Y0052577D01*
X0044232Y0052500D01*
X0044187Y0052425D01*
X0044138Y0052353D01*
X0044087Y0052282D01*
X0044032Y0052214D01*
X0043975Y0052149D01*
X0043914Y0052086D01*
X0043851Y0052025D01*
X0043786Y0051968D01*
X0043718Y0051913D01*
X0043647Y0051862D01*
X0043575Y0051813D01*
X0043500Y0051768D01*
X0043423Y0051726D01*
X0043345Y0051687D01*
X0043265Y0051652D01*
X0043184Y0051621D01*
X0043101Y0051593D01*
X0043018Y0051568D01*
X0042933Y0051547D01*
X0042847Y0051530D01*
X0042761Y0051517D01*
X0042674Y0051508D01*
X0042587Y0051502D01*
X0042500Y0051500D01*
X0029500Y0051500D01*
X0029500Y0050500D02*
X0042500Y0050500D01*
X0042587Y0050498D01*
X0042674Y0050492D01*
X0042761Y0050483D01*
X0042847Y0050470D01*
X0042933Y0050453D01*
X0043018Y0050432D01*
X0043101Y0050407D01*
X0043184Y0050379D01*
X0043265Y0050348D01*
X0043345Y0050313D01*
X0043423Y0050274D01*
X0043500Y0050232D01*
X0043575Y0050187D01*
X0043647Y0050138D01*
X0043718Y0050087D01*
X0043786Y0050032D01*
X0043851Y0049975D01*
X0043914Y0049914D01*
X0043975Y0049851D01*
X0044032Y0049786D01*
X0044087Y0049718D01*
X0044138Y0049647D01*
X0044187Y0049575D01*
X0044232Y0049500D01*
X0044274Y0049423D01*
X0044313Y0049345D01*
X0044348Y0049265D01*
X0044379Y0049184D01*
X0044407Y0049101D01*
X0044432Y0049018D01*
X0044453Y0048933D01*
X0044470Y0048847D01*
X0044483Y0048761D01*
X0044492Y0048674D01*
X0044498Y0048587D01*
X0044500Y0048500D01*
X0044500Y0043500D01*
X0044498Y0043413D01*
X0044492Y0043326D01*
X0044483Y0043239D01*
X0044470Y0043153D01*
X0044453Y0043067D01*
X0044432Y0042982D01*
X0044407Y0042899D01*
X0044379Y0042816D01*
X0044348Y0042735D01*
X0044313Y0042655D01*
X0044274Y0042577D01*
X0044232Y0042500D01*
X0044187Y0042425D01*
X0044138Y0042353D01*
X0044087Y0042282D01*
X0044032Y0042214D01*
X0043975Y0042149D01*
X0043914Y0042086D01*
X0043851Y0042025D01*
X0043786Y0041968D01*
X0043718Y0041913D01*
X0043647Y0041862D01*
X0043575Y0041813D01*
X0043500Y0041768D01*
X0043423Y0041726D01*
X0043345Y0041687D01*
X0043265Y0041652D01*
X0043184Y0041621D01*
X0043101Y0041593D01*
X0043018Y0041568D01*
X0042933Y0041547D01*
X0042847Y0041530D01*
X0042761Y0041517D01*
X0042674Y0041508D01*
X0042587Y0041502D01*
X0042500Y0041500D01*
X0029500Y0041500D01*
X0029413Y0041502D01*
X0029326Y0041508D01*
X0029239Y0041517D01*
X0029153Y0041530D01*
X0029067Y0041547D01*
X0028982Y0041568D01*
X0028899Y0041593D01*
X0028816Y0041621D01*
X0028735Y0041652D01*
X0028655Y0041687D01*
X0028577Y0041726D01*
X0028500Y0041768D01*
X0028425Y0041813D01*
X0028353Y0041862D01*
X0028282Y0041913D01*
X0028214Y0041968D01*
X0028149Y0042025D01*
X0028086Y0042086D01*
X0028025Y0042149D01*
X0027968Y0042214D01*
X0027913Y0042282D01*
X0027862Y0042353D01*
X0027813Y0042425D01*
X0027768Y0042500D01*
X0027726Y0042577D01*
X0027687Y0042655D01*
X0027652Y0042735D01*
X0027621Y0042816D01*
X0027593Y0042899D01*
X0027568Y0042982D01*
X0027547Y0043067D01*
X0027530Y0043153D01*
X0027517Y0043239D01*
X0027508Y0043326D01*
X0027502Y0043413D01*
X0027500Y0043500D01*
X0027500Y0048500D01*
X0027502Y0048587D01*
X0027508Y0048674D01*
X0027517Y0048761D01*
X0027530Y0048847D01*
X0027547Y0048933D01*
X0027568Y0049018D01*
X0027593Y0049101D01*
X0027621Y0049184D01*
X0027652Y0049265D01*
X0027687Y0049345D01*
X0027726Y0049423D01*
X0027768Y0049500D01*
X0027813Y0049575D01*
X0027862Y0049647D01*
X0027913Y0049718D01*
X0027968Y0049786D01*
X0028025Y0049851D01*
X0028086Y0049914D01*
X0028149Y0049975D01*
X0028214Y0050032D01*
X0028282Y0050087D01*
X0028353Y0050138D01*
X0028425Y0050187D01*
X0028500Y0050232D01*
X0028577Y0050274D01*
X0028655Y0050313D01*
X0028735Y0050348D01*
X0028816Y0050379D01*
X0028899Y0050407D01*
X0028982Y0050432D01*
X0029067Y0050453D01*
X0029153Y0050470D01*
X0029239Y0050483D01*
X0029326Y0050492D01*
X0029413Y0050498D01*
X0029500Y0050500D01*
X0029500Y0051500D02*
X0029413Y0051502D01*
X0029326Y0051508D01*
X0029239Y0051517D01*
X0029153Y0051530D01*
X0029067Y0051547D01*
X0028982Y0051568D01*
X0028899Y0051593D01*
X0028816Y0051621D01*
X0028735Y0051652D01*
X0028655Y0051687D01*
X0028577Y0051726D01*
X0028500Y0051768D01*
X0028425Y0051813D01*
X0028353Y0051862D01*
X0028282Y0051913D01*
X0028214Y0051968D01*
X0028149Y0052025D01*
X0028086Y0052086D01*
X0028025Y0052149D01*
X0027968Y0052214D01*
X0027913Y0052282D01*
X0027862Y0052353D01*
X0027813Y0052425D01*
X0027768Y0052500D01*
X0027726Y0052577D01*
X0027687Y0052655D01*
X0027652Y0052735D01*
X0027621Y0052816D01*
X0027593Y0052899D01*
X0027568Y0052982D01*
X0027547Y0053067D01*
X0027530Y0053153D01*
X0027517Y0053239D01*
X0027508Y0053326D01*
X0027502Y0053413D01*
X0027500Y0053500D01*
X0027500Y0058500D01*
X0027502Y0058587D01*
X0027508Y0058674D01*
X0027517Y0058761D01*
X0027530Y0058847D01*
X0027547Y0058933D01*
X0027568Y0059018D01*
X0027593Y0059101D01*
X0027621Y0059184D01*
X0027652Y0059265D01*
X0027687Y0059345D01*
X0027726Y0059423D01*
X0027768Y0059500D01*
X0027813Y0059575D01*
X0027862Y0059647D01*
X0027913Y0059718D01*
X0027968Y0059786D01*
X0028025Y0059851D01*
X0028086Y0059914D01*
X0028149Y0059975D01*
X0028214Y0060032D01*
X0028282Y0060087D01*
X0028353Y0060138D01*
X0028425Y0060187D01*
X0028500Y0060232D01*
X0028577Y0060274D01*
X0028655Y0060313D01*
X0028735Y0060348D01*
X0028816Y0060379D01*
X0028899Y0060407D01*
X0028982Y0060432D01*
X0029067Y0060453D01*
X0029153Y0060470D01*
X0029239Y0060483D01*
X0029326Y0060492D01*
X0029413Y0060498D01*
X0029500Y0060500D01*
X0013000Y0053000D02*
X0011000Y0053000D01*
X0012000Y0052000D02*
X0012000Y0054000D01*
X0006000Y0046000D02*
X0006003Y0046245D01*
X0006012Y0046491D01*
X0006027Y0046736D01*
X0006048Y0046980D01*
X0006075Y0047224D01*
X0006108Y0047467D01*
X0006147Y0047710D01*
X0006192Y0047951D01*
X0006243Y0048191D01*
X0006300Y0048430D01*
X0006362Y0048667D01*
X0006431Y0048903D01*
X0006505Y0049137D01*
X0006585Y0049369D01*
X0006670Y0049599D01*
X0006761Y0049827D01*
X0006858Y0050052D01*
X0006960Y0050276D01*
X0007068Y0050496D01*
X0007181Y0050714D01*
X0007299Y0050929D01*
X0007423Y0051141D01*
X0007551Y0051350D01*
X0007685Y0051556D01*
X0007824Y0051758D01*
X0007968Y0051957D01*
X0008117Y0052152D01*
X0008270Y0052344D01*
X0008428Y0052532D01*
X0008590Y0052716D01*
X0008758Y0052895D01*
X0008929Y0053071D01*
X0009105Y0053242D01*
X0009284Y0053410D01*
X0009468Y0053572D01*
X0009656Y0053730D01*
X0009848Y0053883D01*
X0010043Y0054032D01*
X0010242Y0054176D01*
X0010444Y0054315D01*
X0010650Y0054449D01*
X0010859Y0054577D01*
X0011071Y0054701D01*
X0011286Y0054819D01*
X0011504Y0054932D01*
X0011724Y0055040D01*
X0011948Y0055142D01*
X0012173Y0055239D01*
X0012401Y0055330D01*
X0012631Y0055415D01*
X0012863Y0055495D01*
X0013097Y0055569D01*
X0013333Y0055638D01*
X0013570Y0055700D01*
X0013809Y0055757D01*
X0014049Y0055808D01*
X0014290Y0055853D01*
X0014533Y0055892D01*
X0014776Y0055925D01*
X0015020Y0055952D01*
X0015264Y0055973D01*
X0015509Y0055988D01*
X0015755Y0055997D01*
X0016000Y0056000D01*
X0016245Y0055997D01*
X0016491Y0055988D01*
X0016736Y0055973D01*
X0016980Y0055952D01*
X0017224Y0055925D01*
X0017467Y0055892D01*
X0017710Y0055853D01*
X0017951Y0055808D01*
X0018191Y0055757D01*
X0018430Y0055700D01*
X0018667Y0055638D01*
X0018903Y0055569D01*
X0019137Y0055495D01*
X0019369Y0055415D01*
X0019599Y0055330D01*
X0019827Y0055239D01*
X0020052Y0055142D01*
X0020276Y0055040D01*
X0020496Y0054932D01*
X0020714Y0054819D01*
X0020929Y0054701D01*
X0021141Y0054577D01*
X0021350Y0054449D01*
X0021556Y0054315D01*
X0021758Y0054176D01*
X0021957Y0054032D01*
X0022152Y0053883D01*
X0022344Y0053730D01*
X0022532Y0053572D01*
X0022716Y0053410D01*
X0022895Y0053242D01*
X0023071Y0053071D01*
X0023242Y0052895D01*
X0023410Y0052716D01*
X0023572Y0052532D01*
X0023730Y0052344D01*
X0023883Y0052152D01*
X0024032Y0051957D01*
X0024176Y0051758D01*
X0024315Y0051556D01*
X0024449Y0051350D01*
X0024577Y0051141D01*
X0024701Y0050929D01*
X0024819Y0050714D01*
X0024932Y0050496D01*
X0025040Y0050276D01*
X0025142Y0050052D01*
X0025239Y0049827D01*
X0025330Y0049599D01*
X0025415Y0049369D01*
X0025495Y0049137D01*
X0025569Y0048903D01*
X0025638Y0048667D01*
X0025700Y0048430D01*
X0025757Y0048191D01*
X0025808Y0047951D01*
X0025853Y0047710D01*
X0025892Y0047467D01*
X0025925Y0047224D01*
X0025952Y0046980D01*
X0025973Y0046736D01*
X0025988Y0046491D01*
X0025997Y0046245D01*
X0026000Y0046000D01*
X0025997Y0045755D01*
X0025988Y0045509D01*
X0025973Y0045264D01*
X0025952Y0045020D01*
X0025925Y0044776D01*
X0025892Y0044533D01*
X0025853Y0044290D01*
X0025808Y0044049D01*
X0025757Y0043809D01*
X0025700Y0043570D01*
X0025638Y0043333D01*
X0025569Y0043097D01*
X0025495Y0042863D01*
X0025415Y0042631D01*
X0025330Y0042401D01*
X0025239Y0042173D01*
X0025142Y0041948D01*
X0025040Y0041724D01*
X0024932Y0041504D01*
X0024819Y0041286D01*
X0024701Y0041071D01*
X0024577Y0040859D01*
X0024449Y0040650D01*
X0024315Y0040444D01*
X0024176Y0040242D01*
X0024032Y0040043D01*
X0023883Y0039848D01*
X0023730Y0039656D01*
X0023572Y0039468D01*
X0023410Y0039284D01*
X0023242Y0039105D01*
X0023071Y0038929D01*
X0022895Y0038758D01*
X0022716Y0038590D01*
X0022532Y0038428D01*
X0022344Y0038270D01*
X0022152Y0038117D01*
X0021957Y0037968D01*
X0021758Y0037824D01*
X0021556Y0037685D01*
X0021350Y0037551D01*
X0021141Y0037423D01*
X0020929Y0037299D01*
X0020714Y0037181D01*
X0020496Y0037068D01*
X0020276Y0036960D01*
X0020052Y0036858D01*
X0019827Y0036761D01*
X0019599Y0036670D01*
X0019369Y0036585D01*
X0019137Y0036505D01*
X0018903Y0036431D01*
X0018667Y0036362D01*
X0018430Y0036300D01*
X0018191Y0036243D01*
X0017951Y0036192D01*
X0017710Y0036147D01*
X0017467Y0036108D01*
X0017224Y0036075D01*
X0016980Y0036048D01*
X0016736Y0036027D01*
X0016491Y0036012D01*
X0016245Y0036003D01*
X0016000Y0036000D01*
X0015755Y0036003D01*
X0015509Y0036012D01*
X0015264Y0036027D01*
X0015020Y0036048D01*
X0014776Y0036075D01*
X0014533Y0036108D01*
X0014290Y0036147D01*
X0014049Y0036192D01*
X0013809Y0036243D01*
X0013570Y0036300D01*
X0013333Y0036362D01*
X0013097Y0036431D01*
X0012863Y0036505D01*
X0012631Y0036585D01*
X0012401Y0036670D01*
X0012173Y0036761D01*
X0011948Y0036858D01*
X0011724Y0036960D01*
X0011504Y0037068D01*
X0011286Y0037181D01*
X0011071Y0037299D01*
X0010859Y0037423D01*
X0010650Y0037551D01*
X0010444Y0037685D01*
X0010242Y0037824D01*
X0010043Y0037968D01*
X0009848Y0038117D01*
X0009656Y0038270D01*
X0009468Y0038428D01*
X0009284Y0038590D01*
X0009105Y0038758D01*
X0008929Y0038929D01*
X0008758Y0039105D01*
X0008590Y0039284D01*
X0008428Y0039468D01*
X0008270Y0039656D01*
X0008117Y0039848D01*
X0007968Y0040043D01*
X0007824Y0040242D01*
X0007685Y0040444D01*
X0007551Y0040650D01*
X0007423Y0040859D01*
X0007299Y0041071D01*
X0007181Y0041286D01*
X0007068Y0041504D01*
X0006960Y0041724D01*
X0006858Y0041948D01*
X0006761Y0042173D01*
X0006670Y0042401D01*
X0006585Y0042631D01*
X0006505Y0042863D01*
X0006431Y0043097D01*
X0006362Y0043333D01*
X0006300Y0043570D01*
X0006243Y0043809D01*
X0006192Y0044049D01*
X0006147Y0044290D01*
X0006108Y0044533D01*
X0006075Y0044776D01*
X0006048Y0045020D01*
X0006027Y0045264D01*
X0006012Y0045509D01*
X0006003Y0045755D01*
X0006000Y0046000D01*
X0009500Y0030500D02*
X0022500Y0030500D01*
X0022587Y0030498D01*
X0022674Y0030492D01*
X0022761Y0030483D01*
X0022847Y0030470D01*
X0022933Y0030453D01*
X0023018Y0030432D01*
X0023101Y0030407D01*
X0023184Y0030379D01*
X0023265Y0030348D01*
X0023345Y0030313D01*
X0023423Y0030274D01*
X0023500Y0030232D01*
X0023575Y0030187D01*
X0023647Y0030138D01*
X0023718Y0030087D01*
X0023786Y0030032D01*
X0023851Y0029975D01*
X0023914Y0029914D01*
X0023975Y0029851D01*
X0024032Y0029786D01*
X0024087Y0029718D01*
X0024138Y0029647D01*
X0024187Y0029575D01*
X0024232Y0029500D01*
X0024274Y0029423D01*
X0024313Y0029345D01*
X0024348Y0029265D01*
X0024379Y0029184D01*
X0024407Y0029101D01*
X0024432Y0029018D01*
X0024453Y0028933D01*
X0024470Y0028847D01*
X0024483Y0028761D01*
X0024492Y0028674D01*
X0024498Y0028587D01*
X0024500Y0028500D01*
X0024500Y0023500D01*
X0024498Y0023413D01*
X0024492Y0023326D01*
X0024483Y0023239D01*
X0024470Y0023153D01*
X0024453Y0023067D01*
X0024432Y0022982D01*
X0024407Y0022899D01*
X0024379Y0022816D01*
X0024348Y0022735D01*
X0024313Y0022655D01*
X0024274Y0022577D01*
X0024232Y0022500D01*
X0024187Y0022425D01*
X0024138Y0022353D01*
X0024087Y0022282D01*
X0024032Y0022214D01*
X0023975Y0022149D01*
X0023914Y0022086D01*
X0023851Y0022025D01*
X0023786Y0021968D01*
X0023718Y0021913D01*
X0023647Y0021862D01*
X0023575Y0021813D01*
X0023500Y0021768D01*
X0023423Y0021726D01*
X0023345Y0021687D01*
X0023265Y0021652D01*
X0023184Y0021621D01*
X0023101Y0021593D01*
X0023018Y0021568D01*
X0022933Y0021547D01*
X0022847Y0021530D01*
X0022761Y0021517D01*
X0022674Y0021508D01*
X0022587Y0021502D01*
X0022500Y0021500D01*
X0009500Y0021500D01*
X0009500Y0020500D02*
X0022500Y0020500D01*
X0022587Y0020498D01*
X0022674Y0020492D01*
X0022761Y0020483D01*
X0022847Y0020470D01*
X0022933Y0020453D01*
X0023018Y0020432D01*
X0023101Y0020407D01*
X0023184Y0020379D01*
X0023265Y0020348D01*
X0023345Y0020313D01*
X0023423Y0020274D01*
X0023500Y0020232D01*
X0023575Y0020187D01*
X0023647Y0020138D01*
X0023718Y0020087D01*
X0023786Y0020032D01*
X0023851Y0019975D01*
X0023914Y0019914D01*
X0023975Y0019851D01*
X0024032Y0019786D01*
X0024087Y0019718D01*
X0024138Y0019647D01*
X0024187Y0019575D01*
X0024232Y0019500D01*
X0024274Y0019423D01*
X0024313Y0019345D01*
X0024348Y0019265D01*
X0024379Y0019184D01*
X0024407Y0019101D01*
X0024432Y0019018D01*
X0024453Y0018933D01*
X0024470Y0018847D01*
X0024483Y0018761D01*
X0024492Y0018674D01*
X0024498Y0018587D01*
X0024500Y0018500D01*
X0024500Y0013500D01*
X0024498Y0013413D01*
X0024492Y0013326D01*
X0024483Y0013239D01*
X0024470Y0013153D01*
X0024453Y0013067D01*
X0024432Y0012982D01*
X0024407Y0012899D01*
X0024379Y0012816D01*
X0024348Y0012735D01*
X0024313Y0012655D01*
X0024274Y0012577D01*
X0024232Y0012500D01*
X0024187Y0012425D01*
X0024138Y0012353D01*
X0024087Y0012282D01*
X0024032Y0012214D01*
X0023975Y0012149D01*
X0023914Y0012086D01*
X0023851Y0012025D01*
X0023786Y0011968D01*
X0023718Y0011913D01*
X0023647Y0011862D01*
X0023575Y0011813D01*
X0023500Y0011768D01*
X0023423Y0011726D01*
X0023345Y0011687D01*
X0023265Y0011652D01*
X0023184Y0011621D01*
X0023101Y0011593D01*
X0023018Y0011568D01*
X0022933Y0011547D01*
X0022847Y0011530D01*
X0022761Y0011517D01*
X0022674Y0011508D01*
X0022587Y0011502D01*
X0022500Y0011500D01*
X0009500Y0011500D01*
X0009413Y0011502D01*
X0009326Y0011508D01*
X0009239Y0011517D01*
X0009153Y0011530D01*
X0009067Y0011547D01*
X0008982Y0011568D01*
X0008899Y0011593D01*
X0008816Y0011621D01*
X0008735Y0011652D01*
X0008655Y0011687D01*
X0008577Y0011726D01*
X0008500Y0011768D01*
X0008425Y0011813D01*
X0008353Y0011862D01*
X0008282Y0011913D01*
X0008214Y0011968D01*
X0008149Y0012025D01*
X0008086Y0012086D01*
X0008025Y0012149D01*
X0007968Y0012214D01*
X0007913Y0012282D01*
X0007862Y0012353D01*
X0007813Y0012425D01*
X0007768Y0012500D01*
X0007726Y0012577D01*
X0007687Y0012655D01*
X0007652Y0012735D01*
X0007621Y0012816D01*
X0007593Y0012899D01*
X0007568Y0012982D01*
X0007547Y0013067D01*
X0007530Y0013153D01*
X0007517Y0013239D01*
X0007508Y0013326D01*
X0007502Y0013413D01*
X0007500Y0013500D01*
X0007500Y0018500D01*
X0007502Y0018587D01*
X0007508Y0018674D01*
X0007517Y0018761D01*
X0007530Y0018847D01*
X0007547Y0018933D01*
X0007568Y0019018D01*
X0007593Y0019101D01*
X0007621Y0019184D01*
X0007652Y0019265D01*
X0007687Y0019345D01*
X0007726Y0019423D01*
X0007768Y0019500D01*
X0007813Y0019575D01*
X0007862Y0019647D01*
X0007913Y0019718D01*
X0007968Y0019786D01*
X0008025Y0019851D01*
X0008086Y0019914D01*
X0008149Y0019975D01*
X0008214Y0020032D01*
X0008282Y0020087D01*
X0008353Y0020138D01*
X0008425Y0020187D01*
X0008500Y0020232D01*
X0008577Y0020274D01*
X0008655Y0020313D01*
X0008735Y0020348D01*
X0008816Y0020379D01*
X0008899Y0020407D01*
X0008982Y0020432D01*
X0009067Y0020453D01*
X0009153Y0020470D01*
X0009239Y0020483D01*
X0009326Y0020492D01*
X0009413Y0020498D01*
X0009500Y0020500D01*
X0009500Y0021500D02*
X0009413Y0021502D01*
X0009326Y0021508D01*
X0009239Y0021517D01*
X0009153Y0021530D01*
X0009067Y0021547D01*
X0008982Y0021568D01*
X0008899Y0021593D01*
X0008816Y0021621D01*
X0008735Y0021652D01*
X0008655Y0021687D01*
X0008577Y0021726D01*
X0008500Y0021768D01*
X0008425Y0021813D01*
X0008353Y0021862D01*
X0008282Y0021913D01*
X0008214Y0021968D01*
X0008149Y0022025D01*
X0008086Y0022086D01*
X0008025Y0022149D01*
X0007968Y0022214D01*
X0007913Y0022282D01*
X0007862Y0022353D01*
X0007813Y0022425D01*
X0007768Y0022500D01*
X0007726Y0022577D01*
X0007687Y0022655D01*
X0007652Y0022735D01*
X0007621Y0022816D01*
X0007593Y0022899D01*
X0007568Y0022982D01*
X0007547Y0023067D01*
X0007530Y0023153D01*
X0007517Y0023239D01*
X0007508Y0023326D01*
X0007502Y0023413D01*
X0007500Y0023500D01*
X0007500Y0028500D01*
X0007502Y0028587D01*
X0007508Y0028674D01*
X0007517Y0028761D01*
X0007530Y0028847D01*
X0007547Y0028933D01*
X0007568Y0029018D01*
X0007593Y0029101D01*
X0007621Y0029184D01*
X0007652Y0029265D01*
X0007687Y0029345D01*
X0007726Y0029423D01*
X0007768Y0029500D01*
X0007813Y0029575D01*
X0007862Y0029647D01*
X0007913Y0029718D01*
X0007968Y0029786D01*
X0008025Y0029851D01*
X0008086Y0029914D01*
X0008149Y0029975D01*
X0008214Y0030032D01*
X0008282Y0030087D01*
X0008353Y0030138D01*
X0008425Y0030187D01*
X0008500Y0030232D01*
X0008577Y0030274D01*
X0008655Y0030313D01*
X0008735Y0030348D01*
X0008816Y0030379D01*
X0008899Y0030407D01*
X0008982Y0030432D01*
X0009067Y0030453D01*
X0009153Y0030470D01*
X0009239Y0030483D01*
X0009326Y0030492D01*
X0009413Y0030498D01*
X0009500Y0030500D01*
X0026500Y0027500D02*
X0026500Y0014500D01*
X0026502Y0014413D01*
X0026508Y0014326D01*
X0026517Y0014239D01*
X0026530Y0014153D01*
X0026547Y0014067D01*
X0026568Y0013982D01*
X0026593Y0013899D01*
X0026621Y0013816D01*
X0026652Y0013735D01*
X0026687Y0013655D01*
X0026726Y0013577D01*
X0026768Y0013500D01*
X0026813Y0013425D01*
X0026862Y0013353D01*
X0026913Y0013282D01*
X0026968Y0013214D01*
X0027025Y0013149D01*
X0027086Y0013086D01*
X0027149Y0013025D01*
X0027214Y0012968D01*
X0027282Y0012913D01*
X0027353Y0012862D01*
X0027425Y0012813D01*
X0027500Y0012768D01*
X0027577Y0012726D01*
X0027655Y0012687D01*
X0027735Y0012652D01*
X0027816Y0012621D01*
X0027899Y0012593D01*
X0027982Y0012568D01*
X0028067Y0012547D01*
X0028153Y0012530D01*
X0028239Y0012517D01*
X0028326Y0012508D01*
X0028413Y0012502D01*
X0028500Y0012500D01*
X0033500Y0012500D01*
X0033587Y0012502D01*
X0033674Y0012508D01*
X0033761Y0012517D01*
X0033847Y0012530D01*
X0033933Y0012547D01*
X0034018Y0012568D01*
X0034101Y0012593D01*
X0034184Y0012621D01*
X0034265Y0012652D01*
X0034345Y0012687D01*
X0034423Y0012726D01*
X0034500Y0012768D01*
X0034575Y0012813D01*
X0034647Y0012862D01*
X0034718Y0012913D01*
X0034786Y0012968D01*
X0034851Y0013025D01*
X0034914Y0013086D01*
X0034975Y0013149D01*
X0035032Y0013214D01*
X0035087Y0013282D01*
X0035138Y0013353D01*
X0035187Y0013425D01*
X0035232Y0013500D01*
X0035274Y0013577D01*
X0035313Y0013655D01*
X0035348Y0013735D01*
X0035379Y0013816D01*
X0035407Y0013899D01*
X0035432Y0013982D01*
X0035453Y0014067D01*
X0035470Y0014153D01*
X0035483Y0014239D01*
X0035492Y0014326D01*
X0035498Y0014413D01*
X0035500Y0014500D01*
X0035500Y0027500D01*
X0035498Y0027587D01*
X0035492Y0027674D01*
X0035483Y0027761D01*
X0035470Y0027847D01*
X0035453Y0027933D01*
X0035432Y0028018D01*
X0035407Y0028101D01*
X0035379Y0028184D01*
X0035348Y0028265D01*
X0035313Y0028345D01*
X0035274Y0028423D01*
X0035232Y0028500D01*
X0035187Y0028575D01*
X0035138Y0028647D01*
X0035087Y0028718D01*
X0035032Y0028786D01*
X0034975Y0028851D01*
X0034914Y0028914D01*
X0034851Y0028975D01*
X0034786Y0029032D01*
X0034718Y0029087D01*
X0034647Y0029138D01*
X0034575Y0029187D01*
X0034500Y0029232D01*
X0034423Y0029274D01*
X0034345Y0029313D01*
X0034265Y0029348D01*
X0034184Y0029379D01*
X0034101Y0029407D01*
X0034018Y0029432D01*
X0033933Y0029453D01*
X0033847Y0029470D01*
X0033761Y0029483D01*
X0033674Y0029492D01*
X0033587Y0029498D01*
X0033500Y0029500D01*
X0028500Y0029500D01*
X0028413Y0029498D01*
X0028326Y0029492D01*
X0028239Y0029483D01*
X0028153Y0029470D01*
X0028067Y0029453D01*
X0027982Y0029432D01*
X0027899Y0029407D01*
X0027816Y0029379D01*
X0027735Y0029348D01*
X0027655Y0029313D01*
X0027577Y0029274D01*
X0027500Y0029232D01*
X0027425Y0029187D01*
X0027353Y0029138D01*
X0027282Y0029087D01*
X0027214Y0029032D01*
X0027149Y0028975D01*
X0027086Y0028914D01*
X0027025Y0028851D01*
X0026968Y0028786D01*
X0026913Y0028718D01*
X0026862Y0028647D01*
X0026813Y0028575D01*
X0026768Y0028500D01*
X0026726Y0028423D01*
X0026687Y0028345D01*
X0026652Y0028265D01*
X0026621Y0028184D01*
X0026593Y0028101D01*
X0026568Y0028018D01*
X0026547Y0027933D01*
X0026530Y0027847D01*
X0026517Y0027761D01*
X0026508Y0027674D01*
X0026502Y0027587D01*
X0026500Y0027500D01*
X0054500Y0011000D02*
X0062000Y0011000D01*
X0062002Y0011126D01*
X0062008Y0011251D01*
X0062018Y0011376D01*
X0062032Y0011501D01*
X0062049Y0011626D01*
X0062071Y0011750D01*
X0062096Y0011873D01*
X0062126Y0011995D01*
X0062159Y0012116D01*
X0062196Y0012236D01*
X0062236Y0012355D01*
X0062281Y0012472D01*
X0062329Y0012589D01*
X0062381Y0012703D01*
X0062436Y0012816D01*
X0062495Y0012927D01*
X0062557Y0013036D01*
X0062623Y0013143D01*
X0062692Y0013248D01*
X0062764Y0013351D01*
X0062839Y0013452D01*
X0062918Y0013550D01*
X0063000Y0013645D01*
X0063084Y0013738D01*
X0063172Y0013828D01*
X0063262Y0013916D01*
X0063355Y0014000D01*
X0063450Y0014082D01*
X0063548Y0014161D01*
X0063649Y0014236D01*
X0063752Y0014308D01*
X0063857Y0014377D01*
X0063964Y0014443D01*
X0064073Y0014505D01*
X0064184Y0014564D01*
X0064297Y0014619D01*
X0064411Y0014671D01*
X0064528Y0014719D01*
X0064645Y0014764D01*
X0064764Y0014804D01*
X0064884Y0014841D01*
X0065005Y0014874D01*
X0065127Y0014904D01*
X0065250Y0014929D01*
X0065374Y0014951D01*
X0065499Y0014968D01*
X0065624Y0014982D01*
X0065749Y0014992D01*
X0065874Y0014998D01*
X0066000Y0015000D01*
X0066126Y0014998D01*
X0066251Y0014992D01*
X0066376Y0014982D01*
X0066501Y0014968D01*
X0066626Y0014951D01*
X0066750Y0014929D01*
X0066873Y0014904D01*
X0066995Y0014874D01*
X0067116Y0014841D01*
X0067236Y0014804D01*
X0067355Y0014764D01*
X0067472Y0014719D01*
X0067589Y0014671D01*
X0067703Y0014619D01*
X0067816Y0014564D01*
X0067927Y0014505D01*
X0068036Y0014443D01*
X0068143Y0014377D01*
X0068248Y0014308D01*
X0068351Y0014236D01*
X0068452Y0014161D01*
X0068550Y0014082D01*
X0068645Y0014000D01*
X0068738Y0013916D01*
X0068828Y0013828D01*
X0068916Y0013738D01*
X0069000Y0013645D01*
X0069082Y0013550D01*
X0069161Y0013452D01*
X0069236Y0013351D01*
X0069308Y0013248D01*
X0069377Y0013143D01*
X0069443Y0013036D01*
X0069505Y0012927D01*
X0069564Y0012816D01*
X0069619Y0012703D01*
X0069671Y0012589D01*
X0069719Y0012472D01*
X0069764Y0012355D01*
X0069804Y0012236D01*
X0069841Y0012116D01*
X0069874Y0011995D01*
X0069904Y0011873D01*
X0069929Y0011750D01*
X0069951Y0011626D01*
X0069968Y0011501D01*
X0069982Y0011376D01*
X0069992Y0011251D01*
X0069998Y0011126D01*
X0070000Y0011000D01*
X0077500Y0011000D01*
X0077500Y0081000D01*
X0054500Y0081000D01*
X0054500Y0011000D01*
X0096000Y0013500D02*
X0096000Y0018500D01*
X0098500Y0021000D01*
X0103500Y0021000D01*
X0106000Y0018500D01*
X0108500Y0021000D01*
X0113500Y0021000D01*
X0116000Y0018500D01*
X0118500Y0021000D01*
X0123500Y0021000D01*
X0126000Y0018500D01*
X0128500Y0021000D01*
X0133500Y0021000D01*
X0136000Y0018500D01*
X0138500Y0021000D01*
X0143500Y0021000D01*
X0146000Y0018500D01*
X0148500Y0021000D01*
X0153500Y0021000D01*
X0156000Y0018500D01*
X0158500Y0021000D01*
X0163500Y0021000D01*
X0166000Y0018500D01*
X0168500Y0021000D01*
X0173500Y0021000D01*
X0176000Y0018500D01*
X0178500Y0021000D01*
X0183500Y0021000D01*
X0186000Y0018500D01*
X0188500Y0021000D01*
X0193500Y0021000D01*
X0196000Y0018500D01*
X0196000Y0013500D01*
X0193500Y0011000D01*
X0188500Y0011000D01*
X0186000Y0013500D01*
X0183500Y0011000D01*
X0178500Y0011000D01*
X0176000Y0013500D01*
X0176000Y0018500D01*
X0176000Y0013500D02*
X0173500Y0011000D01*
X0168500Y0011000D01*
X0166000Y0013500D01*
X0163500Y0011000D01*
X0158500Y0011000D01*
X0156000Y0013500D01*
X0153500Y0011000D01*
X0148500Y0011000D01*
X0146000Y0013500D01*
X0146000Y0018500D01*
X0146000Y0013500D02*
X0143500Y0011000D01*
X0138500Y0011000D01*
X0136000Y0013500D01*
X0133500Y0011000D01*
X0128500Y0011000D01*
X0126000Y0013500D01*
X0123500Y0011000D01*
X0118500Y0011000D01*
X0116000Y0013500D01*
X0116000Y0018500D01*
X0116000Y0013500D02*
X0113500Y0011000D01*
X0108500Y0011000D01*
X0106000Y0013500D01*
X0103500Y0011000D01*
X0098500Y0011000D01*
X0096000Y0013500D01*
X0106000Y0013500D02*
X0106000Y0018500D01*
X0097500Y0030000D02*
X0095000Y0030000D01*
X0094940Y0030002D01*
X0094879Y0030007D01*
X0094820Y0030016D01*
X0094761Y0030029D01*
X0094702Y0030045D01*
X0094645Y0030065D01*
X0094590Y0030088D01*
X0094535Y0030115D01*
X0094483Y0030144D01*
X0094432Y0030177D01*
X0094383Y0030213D01*
X0094337Y0030251D01*
X0094293Y0030293D01*
X0094251Y0030337D01*
X0094213Y0030383D01*
X0094177Y0030432D01*
X0094144Y0030483D01*
X0094115Y0030535D01*
X0094088Y0030590D01*
X0094065Y0030645D01*
X0094045Y0030702D01*
X0094029Y0030761D01*
X0094016Y0030820D01*
X0094007Y0030879D01*
X0094002Y0030940D01*
X0094000Y0031000D01*
X0097500Y0030000D02*
X0098000Y0030500D01*
X0124000Y0030500D01*
X0124500Y0030000D01*
X0127000Y0030000D01*
X0127060Y0030002D01*
X0127121Y0030007D01*
X0127180Y0030016D01*
X0127239Y0030029D01*
X0127298Y0030045D01*
X0127355Y0030065D01*
X0127410Y0030088D01*
X0127465Y0030115D01*
X0127517Y0030144D01*
X0127568Y0030177D01*
X0127617Y0030213D01*
X0127663Y0030251D01*
X0127707Y0030293D01*
X0127749Y0030337D01*
X0127787Y0030383D01*
X0127823Y0030432D01*
X0127856Y0030483D01*
X0127885Y0030535D01*
X0127912Y0030590D01*
X0127935Y0030645D01*
X0127955Y0030702D01*
X0127971Y0030761D01*
X0127984Y0030820D01*
X0127993Y0030879D01*
X0127998Y0030940D01*
X0128000Y0031000D01*
X0127000Y0040000D02*
X0124500Y0040000D01*
X0124000Y0040500D01*
X0098000Y0040500D01*
X0097500Y0040000D01*
X0095000Y0040000D01*
X0094000Y0041000D02*
X0094002Y0041060D01*
X0094007Y0041121D01*
X0094016Y0041180D01*
X0094029Y0041239D01*
X0094045Y0041298D01*
X0094065Y0041355D01*
X0094088Y0041410D01*
X0094115Y0041465D01*
X0094144Y0041517D01*
X0094177Y0041568D01*
X0094213Y0041617D01*
X0094251Y0041663D01*
X0094293Y0041707D01*
X0094337Y0041749D01*
X0094383Y0041787D01*
X0094432Y0041823D01*
X0094483Y0041856D01*
X0094535Y0041885D01*
X0094590Y0041912D01*
X0094645Y0041935D01*
X0094702Y0041955D01*
X0094761Y0041971D01*
X0094820Y0041984D01*
X0094879Y0041993D01*
X0094940Y0041998D01*
X0095000Y0042000D01*
X0097500Y0042000D01*
X0098000Y0041500D01*
X0124000Y0041500D01*
X0124500Y0042000D01*
X0127000Y0042000D01*
X0127060Y0041998D01*
X0127121Y0041993D01*
X0127180Y0041984D01*
X0127239Y0041971D01*
X0127298Y0041955D01*
X0127355Y0041935D01*
X0127410Y0041912D01*
X0127465Y0041885D01*
X0127517Y0041856D01*
X0127568Y0041823D01*
X0127617Y0041787D01*
X0127663Y0041749D01*
X0127707Y0041707D01*
X0127749Y0041663D01*
X0127787Y0041617D01*
X0127823Y0041568D01*
X0127856Y0041517D01*
X0127885Y0041465D01*
X0127912Y0041410D01*
X0127935Y0041355D01*
X0127955Y0041298D01*
X0127971Y0041239D01*
X0127984Y0041180D01*
X0127993Y0041121D01*
X0127998Y0041060D01*
X0128000Y0041000D01*
X0127998Y0040940D01*
X0127993Y0040879D01*
X0127984Y0040820D01*
X0127971Y0040761D01*
X0127955Y0040702D01*
X0127935Y0040645D01*
X0127912Y0040590D01*
X0127885Y0040535D01*
X0127856Y0040483D01*
X0127823Y0040432D01*
X0127787Y0040383D01*
X0127749Y0040337D01*
X0127707Y0040293D01*
X0127663Y0040251D01*
X0127617Y0040213D01*
X0127568Y0040177D01*
X0127517Y0040144D01*
X0127465Y0040115D01*
X0127410Y0040088D01*
X0127355Y0040065D01*
X0127298Y0040045D01*
X0127239Y0040029D01*
X0127180Y0040016D01*
X0127121Y0040007D01*
X0127060Y0040002D01*
X0127000Y0040000D01*
X0128000Y0051000D02*
X0127998Y0051060D01*
X0127993Y0051121D01*
X0127984Y0051180D01*
X0127971Y0051239D01*
X0127955Y0051298D01*
X0127935Y0051355D01*
X0127912Y0051410D01*
X0127885Y0051465D01*
X0127856Y0051517D01*
X0127823Y0051568D01*
X0127787Y0051617D01*
X0127749Y0051663D01*
X0127707Y0051707D01*
X0127663Y0051749D01*
X0127617Y0051787D01*
X0127568Y0051823D01*
X0127517Y0051856D01*
X0127465Y0051885D01*
X0127410Y0051912D01*
X0127355Y0051935D01*
X0127298Y0051955D01*
X0127239Y0051971D01*
X0127180Y0051984D01*
X0127121Y0051993D01*
X0127060Y0051998D01*
X0127000Y0052000D01*
X0124500Y0052000D01*
X0124000Y0051500D01*
X0098000Y0051500D01*
X0097500Y0052000D01*
X0095000Y0052000D01*
X0094940Y0051998D01*
X0094879Y0051993D01*
X0094820Y0051984D01*
X0094761Y0051971D01*
X0094702Y0051955D01*
X0094645Y0051935D01*
X0094590Y0051912D01*
X0094535Y0051885D01*
X0094483Y0051856D01*
X0094432Y0051823D01*
X0094383Y0051787D01*
X0094337Y0051749D01*
X0094293Y0051707D01*
X0094251Y0051663D01*
X0094213Y0051617D01*
X0094177Y0051568D01*
X0094144Y0051517D01*
X0094115Y0051465D01*
X0094088Y0051410D01*
X0094065Y0051355D01*
X0094045Y0051298D01*
X0094029Y0051239D01*
X0094016Y0051180D01*
X0094007Y0051121D01*
X0094002Y0051060D01*
X0094000Y0051000D01*
X0094000Y0041000D02*
X0094002Y0040940D01*
X0094007Y0040879D01*
X0094016Y0040820D01*
X0094029Y0040761D01*
X0094045Y0040702D01*
X0094065Y0040645D01*
X0094088Y0040590D01*
X0094115Y0040535D01*
X0094144Y0040483D01*
X0094177Y0040432D01*
X0094213Y0040383D01*
X0094251Y0040337D01*
X0094293Y0040293D01*
X0094337Y0040251D01*
X0094383Y0040213D01*
X0094432Y0040177D01*
X0094483Y0040144D01*
X0094535Y0040115D01*
X0094590Y0040088D01*
X0094645Y0040065D01*
X0094702Y0040045D01*
X0094761Y0040029D01*
X0094820Y0040016D01*
X0094879Y0040007D01*
X0094940Y0040002D01*
X0095000Y0040000D01*
X0118500Y0062500D02*
X0123500Y0062500D01*
X0123587Y0062502D01*
X0123674Y0062508D01*
X0123761Y0062517D01*
X0123847Y0062530D01*
X0123933Y0062547D01*
X0124018Y0062568D01*
X0124101Y0062593D01*
X0124184Y0062621D01*
X0124265Y0062652D01*
X0124345Y0062687D01*
X0124423Y0062726D01*
X0124500Y0062768D01*
X0124575Y0062813D01*
X0124647Y0062862D01*
X0124718Y0062913D01*
X0124786Y0062968D01*
X0124851Y0063025D01*
X0124914Y0063086D01*
X0124975Y0063149D01*
X0125032Y0063214D01*
X0125087Y0063282D01*
X0125138Y0063353D01*
X0125187Y0063425D01*
X0125232Y0063500D01*
X0125274Y0063577D01*
X0125313Y0063655D01*
X0125348Y0063735D01*
X0125379Y0063816D01*
X0125407Y0063899D01*
X0125432Y0063982D01*
X0125453Y0064067D01*
X0125470Y0064153D01*
X0125483Y0064239D01*
X0125492Y0064326D01*
X0125498Y0064413D01*
X0125500Y0064500D01*
X0125500Y0077500D01*
X0125498Y0077587D01*
X0125492Y0077674D01*
X0125483Y0077761D01*
X0125470Y0077847D01*
X0125453Y0077933D01*
X0125432Y0078018D01*
X0125407Y0078101D01*
X0125379Y0078184D01*
X0125348Y0078265D01*
X0125313Y0078345D01*
X0125274Y0078423D01*
X0125232Y0078500D01*
X0125187Y0078575D01*
X0125138Y0078647D01*
X0125087Y0078718D01*
X0125032Y0078786D01*
X0124975Y0078851D01*
X0124914Y0078914D01*
X0124851Y0078975D01*
X0124786Y0079032D01*
X0124718Y0079087D01*
X0124647Y0079138D01*
X0124575Y0079187D01*
X0124500Y0079232D01*
X0124423Y0079274D01*
X0124345Y0079313D01*
X0124265Y0079348D01*
X0124184Y0079379D01*
X0124101Y0079407D01*
X0124018Y0079432D01*
X0123933Y0079453D01*
X0123847Y0079470D01*
X0123761Y0079483D01*
X0123674Y0079492D01*
X0123587Y0079498D01*
X0123500Y0079500D01*
X0118500Y0079500D01*
X0118413Y0079498D01*
X0118326Y0079492D01*
X0118239Y0079483D01*
X0118153Y0079470D01*
X0118067Y0079453D01*
X0117982Y0079432D01*
X0117899Y0079407D01*
X0117816Y0079379D01*
X0117735Y0079348D01*
X0117655Y0079313D01*
X0117577Y0079274D01*
X0117500Y0079232D01*
X0117425Y0079187D01*
X0117353Y0079138D01*
X0117282Y0079087D01*
X0117214Y0079032D01*
X0117149Y0078975D01*
X0117086Y0078914D01*
X0117025Y0078851D01*
X0116968Y0078786D01*
X0116913Y0078718D01*
X0116862Y0078647D01*
X0116813Y0078575D01*
X0116768Y0078500D01*
X0116726Y0078423D01*
X0116687Y0078345D01*
X0116652Y0078265D01*
X0116621Y0078184D01*
X0116593Y0078101D01*
X0116568Y0078018D01*
X0116547Y0077933D01*
X0116530Y0077847D01*
X0116517Y0077761D01*
X0116508Y0077674D01*
X0116502Y0077587D01*
X0116500Y0077500D01*
X0116500Y0064500D01*
X0116502Y0064413D01*
X0116508Y0064326D01*
X0116517Y0064239D01*
X0116530Y0064153D01*
X0116547Y0064067D01*
X0116568Y0063982D01*
X0116593Y0063899D01*
X0116621Y0063816D01*
X0116652Y0063735D01*
X0116687Y0063655D01*
X0116726Y0063577D01*
X0116768Y0063500D01*
X0116813Y0063425D01*
X0116862Y0063353D01*
X0116913Y0063282D01*
X0116968Y0063214D01*
X0117025Y0063149D01*
X0117086Y0063086D01*
X0117149Y0063025D01*
X0117214Y0062968D01*
X0117282Y0062913D01*
X0117353Y0062862D01*
X0117425Y0062813D01*
X0117500Y0062768D01*
X0117577Y0062726D01*
X0117655Y0062687D01*
X0117735Y0062652D01*
X0117816Y0062621D01*
X0117899Y0062593D01*
X0117982Y0062568D01*
X0118067Y0062547D01*
X0118153Y0062530D01*
X0118239Y0062517D01*
X0118326Y0062508D01*
X0118413Y0062502D01*
X0118500Y0062500D01*
X0125000Y0070000D02*
X0125000Y0072500D01*
X0125500Y0073000D01*
X0125500Y0099000D01*
X0125000Y0099500D01*
X0125000Y0102000D01*
X0125002Y0102060D01*
X0125007Y0102121D01*
X0125016Y0102180D01*
X0125029Y0102239D01*
X0125045Y0102298D01*
X0125065Y0102355D01*
X0125088Y0102410D01*
X0125115Y0102465D01*
X0125144Y0102517D01*
X0125177Y0102568D01*
X0125213Y0102617D01*
X0125251Y0102663D01*
X0125293Y0102707D01*
X0125337Y0102749D01*
X0125383Y0102787D01*
X0125432Y0102823D01*
X0125483Y0102856D01*
X0125535Y0102885D01*
X0125590Y0102912D01*
X0125645Y0102935D01*
X0125702Y0102955D01*
X0125761Y0102971D01*
X0125820Y0102984D01*
X0125879Y0102993D01*
X0125940Y0102998D01*
X0126000Y0103000D01*
X0135000Y0102000D02*
X0135000Y0099500D01*
X0135500Y0099000D01*
X0135500Y0073000D01*
X0135000Y0072500D01*
X0135000Y0070000D01*
X0136000Y0069000D02*
X0136060Y0069002D01*
X0136121Y0069007D01*
X0136180Y0069016D01*
X0136239Y0069029D01*
X0136298Y0069045D01*
X0136355Y0069065D01*
X0136410Y0069088D01*
X0136465Y0069115D01*
X0136517Y0069144D01*
X0136568Y0069177D01*
X0136617Y0069213D01*
X0136663Y0069251D01*
X0136707Y0069293D01*
X0136749Y0069337D01*
X0136787Y0069383D01*
X0136823Y0069432D01*
X0136856Y0069483D01*
X0136885Y0069535D01*
X0136912Y0069590D01*
X0136935Y0069645D01*
X0136955Y0069702D01*
X0136971Y0069761D01*
X0136984Y0069820D01*
X0136993Y0069879D01*
X0136998Y0069940D01*
X0137000Y0070000D01*
X0137000Y0072500D01*
X0136500Y0073000D01*
X0136500Y0099000D01*
X0137000Y0099500D01*
X0137000Y0102000D01*
X0136998Y0102060D01*
X0136993Y0102121D01*
X0136984Y0102180D01*
X0136971Y0102239D01*
X0136955Y0102298D01*
X0136935Y0102355D01*
X0136912Y0102410D01*
X0136885Y0102465D01*
X0136856Y0102517D01*
X0136823Y0102568D01*
X0136787Y0102617D01*
X0136749Y0102663D01*
X0136707Y0102707D01*
X0136663Y0102749D01*
X0136617Y0102787D01*
X0136568Y0102823D01*
X0136517Y0102856D01*
X0136465Y0102885D01*
X0136410Y0102912D01*
X0136355Y0102935D01*
X0136298Y0102955D01*
X0136239Y0102971D01*
X0136180Y0102984D01*
X0136121Y0102993D01*
X0136060Y0102998D01*
X0136000Y0103000D01*
X0135940Y0102998D01*
X0135879Y0102993D01*
X0135820Y0102984D01*
X0135761Y0102971D01*
X0135702Y0102955D01*
X0135645Y0102935D01*
X0135590Y0102912D01*
X0135535Y0102885D01*
X0135483Y0102856D01*
X0135432Y0102823D01*
X0135383Y0102787D01*
X0135337Y0102749D01*
X0135293Y0102707D01*
X0135251Y0102663D01*
X0135213Y0102617D01*
X0135177Y0102568D01*
X0135144Y0102517D01*
X0135115Y0102465D01*
X0135088Y0102410D01*
X0135065Y0102355D01*
X0135045Y0102298D01*
X0135029Y0102239D01*
X0135016Y0102180D01*
X0135007Y0102121D01*
X0135002Y0102060D01*
X0135000Y0102000D01*
X0145000Y0102000D02*
X0145000Y0099500D01*
X0145500Y0099000D01*
X0145500Y0073000D01*
X0145000Y0072500D01*
X0145000Y0070000D01*
X0145002Y0069940D01*
X0145007Y0069879D01*
X0145016Y0069820D01*
X0145029Y0069761D01*
X0145045Y0069702D01*
X0145065Y0069645D01*
X0145088Y0069590D01*
X0145115Y0069535D01*
X0145144Y0069483D01*
X0145177Y0069432D01*
X0145213Y0069383D01*
X0145251Y0069337D01*
X0145293Y0069293D01*
X0145337Y0069251D01*
X0145383Y0069213D01*
X0145432Y0069177D01*
X0145483Y0069144D01*
X0145535Y0069115D01*
X0145590Y0069088D01*
X0145645Y0069065D01*
X0145702Y0069045D01*
X0145761Y0069029D01*
X0145820Y0069016D01*
X0145879Y0069007D01*
X0145940Y0069002D01*
X0146000Y0069000D01*
X0146060Y0069002D01*
X0146121Y0069007D01*
X0146180Y0069016D01*
X0146239Y0069029D01*
X0146298Y0069045D01*
X0146355Y0069065D01*
X0146410Y0069088D01*
X0146465Y0069115D01*
X0146517Y0069144D01*
X0146568Y0069177D01*
X0146617Y0069213D01*
X0146663Y0069251D01*
X0146707Y0069293D01*
X0146749Y0069337D01*
X0146787Y0069383D01*
X0146823Y0069432D01*
X0146856Y0069483D01*
X0146885Y0069535D01*
X0146912Y0069590D01*
X0146935Y0069645D01*
X0146955Y0069702D01*
X0146971Y0069761D01*
X0146984Y0069820D01*
X0146993Y0069879D01*
X0146998Y0069940D01*
X0147000Y0070000D01*
X0147000Y0072500D01*
X0146500Y0073000D01*
X0146500Y0099000D01*
X0147000Y0099500D01*
X0147000Y0102000D01*
X0146000Y0103000D02*
X0145940Y0102998D01*
X0145879Y0102993D01*
X0145820Y0102984D01*
X0145761Y0102971D01*
X0145702Y0102955D01*
X0145645Y0102935D01*
X0145590Y0102912D01*
X0145535Y0102885D01*
X0145483Y0102856D01*
X0145432Y0102823D01*
X0145383Y0102787D01*
X0145337Y0102749D01*
X0145293Y0102707D01*
X0145251Y0102663D01*
X0145213Y0102617D01*
X0145177Y0102568D01*
X0145144Y0102517D01*
X0145115Y0102465D01*
X0145088Y0102410D01*
X0145065Y0102355D01*
X0145045Y0102298D01*
X0145029Y0102239D01*
X0145016Y0102180D01*
X0145007Y0102121D01*
X0145002Y0102060D01*
X0145000Y0102000D01*
X0146000Y0103000D02*
X0146060Y0102998D01*
X0146121Y0102993D01*
X0146180Y0102984D01*
X0146239Y0102971D01*
X0146298Y0102955D01*
X0146355Y0102935D01*
X0146410Y0102912D01*
X0146465Y0102885D01*
X0146517Y0102856D01*
X0146568Y0102823D01*
X0146617Y0102787D01*
X0146663Y0102749D01*
X0146707Y0102707D01*
X0146749Y0102663D01*
X0146787Y0102617D01*
X0146823Y0102568D01*
X0146856Y0102517D01*
X0146885Y0102465D01*
X0146912Y0102410D01*
X0146935Y0102355D01*
X0146955Y0102298D01*
X0146971Y0102239D01*
X0146984Y0102180D01*
X0146993Y0102121D01*
X0146998Y0102060D01*
X0147000Y0102000D01*
X0155000Y0102000D02*
X0155000Y0099500D01*
X0155500Y0099000D01*
X0155500Y0073000D01*
X0155000Y0072500D01*
X0155000Y0070000D01*
X0156000Y0069000D02*
X0156060Y0069002D01*
X0156121Y0069007D01*
X0156180Y0069016D01*
X0156239Y0069029D01*
X0156298Y0069045D01*
X0156355Y0069065D01*
X0156410Y0069088D01*
X0156465Y0069115D01*
X0156517Y0069144D01*
X0156568Y0069177D01*
X0156617Y0069213D01*
X0156663Y0069251D01*
X0156707Y0069293D01*
X0156749Y0069337D01*
X0156787Y0069383D01*
X0156823Y0069432D01*
X0156856Y0069483D01*
X0156885Y0069535D01*
X0156912Y0069590D01*
X0156935Y0069645D01*
X0156955Y0069702D01*
X0156971Y0069761D01*
X0156984Y0069820D01*
X0156993Y0069879D01*
X0156998Y0069940D01*
X0157000Y0070000D01*
X0157000Y0072500D01*
X0156500Y0073000D01*
X0156500Y0099000D01*
X0157000Y0099500D01*
X0157000Y0102000D01*
X0156998Y0102060D01*
X0156993Y0102121D01*
X0156984Y0102180D01*
X0156971Y0102239D01*
X0156955Y0102298D01*
X0156935Y0102355D01*
X0156912Y0102410D01*
X0156885Y0102465D01*
X0156856Y0102517D01*
X0156823Y0102568D01*
X0156787Y0102617D01*
X0156749Y0102663D01*
X0156707Y0102707D01*
X0156663Y0102749D01*
X0156617Y0102787D01*
X0156568Y0102823D01*
X0156517Y0102856D01*
X0156465Y0102885D01*
X0156410Y0102912D01*
X0156355Y0102935D01*
X0156298Y0102955D01*
X0156239Y0102971D01*
X0156180Y0102984D01*
X0156121Y0102993D01*
X0156060Y0102998D01*
X0156000Y0103000D01*
X0155940Y0102998D01*
X0155879Y0102993D01*
X0155820Y0102984D01*
X0155761Y0102971D01*
X0155702Y0102955D01*
X0155645Y0102935D01*
X0155590Y0102912D01*
X0155535Y0102885D01*
X0155483Y0102856D01*
X0155432Y0102823D01*
X0155383Y0102787D01*
X0155337Y0102749D01*
X0155293Y0102707D01*
X0155251Y0102663D01*
X0155213Y0102617D01*
X0155177Y0102568D01*
X0155144Y0102517D01*
X0155115Y0102465D01*
X0155088Y0102410D01*
X0155065Y0102355D01*
X0155045Y0102298D01*
X0155029Y0102239D01*
X0155016Y0102180D01*
X0155007Y0102121D01*
X0155002Y0102060D01*
X0155000Y0102000D01*
X0166000Y0103000D02*
X0166060Y0102998D01*
X0166121Y0102993D01*
X0166180Y0102984D01*
X0166239Y0102971D01*
X0166298Y0102955D01*
X0166355Y0102935D01*
X0166410Y0102912D01*
X0166465Y0102885D01*
X0166517Y0102856D01*
X0166568Y0102823D01*
X0166617Y0102787D01*
X0166663Y0102749D01*
X0166707Y0102707D01*
X0166749Y0102663D01*
X0166787Y0102617D01*
X0166823Y0102568D01*
X0166856Y0102517D01*
X0166885Y0102465D01*
X0166912Y0102410D01*
X0166935Y0102355D01*
X0166955Y0102298D01*
X0166971Y0102239D01*
X0166984Y0102180D01*
X0166993Y0102121D01*
X0166998Y0102060D01*
X0167000Y0102000D01*
X0167000Y0099500D01*
X0166500Y0099000D01*
X0166500Y0073000D01*
X0167000Y0072500D01*
X0167000Y0070000D01*
X0166998Y0069940D01*
X0166993Y0069879D01*
X0166984Y0069820D01*
X0166971Y0069761D01*
X0166955Y0069702D01*
X0166935Y0069645D01*
X0166912Y0069590D01*
X0166885Y0069535D01*
X0166856Y0069483D01*
X0166823Y0069432D01*
X0166787Y0069383D01*
X0166749Y0069337D01*
X0166707Y0069293D01*
X0166663Y0069251D01*
X0166617Y0069213D01*
X0166568Y0069177D01*
X0166517Y0069144D01*
X0166465Y0069115D01*
X0166410Y0069088D01*
X0166355Y0069065D01*
X0166298Y0069045D01*
X0166239Y0069029D01*
X0166180Y0069016D01*
X0166121Y0069007D01*
X0166060Y0069002D01*
X0166000Y0069000D01*
X0156000Y0069000D02*
X0155940Y0069002D01*
X0155879Y0069007D01*
X0155820Y0069016D01*
X0155761Y0069029D01*
X0155702Y0069045D01*
X0155645Y0069065D01*
X0155590Y0069088D01*
X0155535Y0069115D01*
X0155483Y0069144D01*
X0155432Y0069177D01*
X0155383Y0069213D01*
X0155337Y0069251D01*
X0155293Y0069293D01*
X0155251Y0069337D01*
X0155213Y0069383D01*
X0155177Y0069432D01*
X0155144Y0069483D01*
X0155115Y0069535D01*
X0155088Y0069590D01*
X0155065Y0069645D01*
X0155045Y0069702D01*
X0155029Y0069761D01*
X0155016Y0069820D01*
X0155007Y0069879D01*
X0155002Y0069940D01*
X0155000Y0070000D01*
X0147500Y0062000D02*
X0145000Y0062000D01*
X0144940Y0061998D01*
X0144879Y0061993D01*
X0144820Y0061984D01*
X0144761Y0061971D01*
X0144702Y0061955D01*
X0144645Y0061935D01*
X0144590Y0061912D01*
X0144535Y0061885D01*
X0144483Y0061856D01*
X0144432Y0061823D01*
X0144383Y0061787D01*
X0144337Y0061749D01*
X0144293Y0061707D01*
X0144251Y0061663D01*
X0144213Y0061617D01*
X0144177Y0061568D01*
X0144144Y0061517D01*
X0144115Y0061465D01*
X0144088Y0061410D01*
X0144065Y0061355D01*
X0144045Y0061298D01*
X0144029Y0061239D01*
X0144016Y0061180D01*
X0144007Y0061121D01*
X0144002Y0061060D01*
X0144000Y0061000D01*
X0147500Y0062000D02*
X0148000Y0061500D01*
X0174000Y0061500D01*
X0174500Y0062000D01*
X0177000Y0062000D01*
X0177060Y0061998D01*
X0177121Y0061993D01*
X0177180Y0061984D01*
X0177239Y0061971D01*
X0177298Y0061955D01*
X0177355Y0061935D01*
X0177410Y0061912D01*
X0177465Y0061885D01*
X0177517Y0061856D01*
X0177568Y0061823D01*
X0177617Y0061787D01*
X0177663Y0061749D01*
X0177707Y0061707D01*
X0177749Y0061663D01*
X0177787Y0061617D01*
X0177823Y0061568D01*
X0177856Y0061517D01*
X0177885Y0061465D01*
X0177912Y0061410D01*
X0177935Y0061355D01*
X0177955Y0061298D01*
X0177971Y0061239D01*
X0177984Y0061180D01*
X0177993Y0061121D01*
X0177998Y0061060D01*
X0178000Y0061000D01*
X0194500Y0061000D02*
X0202000Y0061000D01*
X0202002Y0061126D01*
X0202008Y0061251D01*
X0202018Y0061376D01*
X0202032Y0061501D01*
X0202049Y0061626D01*
X0202071Y0061750D01*
X0202096Y0061873D01*
X0202126Y0061995D01*
X0202159Y0062116D01*
X0202196Y0062236D01*
X0202236Y0062355D01*
X0202281Y0062472D01*
X0202329Y0062589D01*
X0202381Y0062703D01*
X0202436Y0062816D01*
X0202495Y0062927D01*
X0202557Y0063036D01*
X0202623Y0063143D01*
X0202692Y0063248D01*
X0202764Y0063351D01*
X0202839Y0063452D01*
X0202918Y0063550D01*
X0203000Y0063645D01*
X0203084Y0063738D01*
X0203172Y0063828D01*
X0203262Y0063916D01*
X0203355Y0064000D01*
X0203450Y0064082D01*
X0203548Y0064161D01*
X0203649Y0064236D01*
X0203752Y0064308D01*
X0203857Y0064377D01*
X0203964Y0064443D01*
X0204073Y0064505D01*
X0204184Y0064564D01*
X0204297Y0064619D01*
X0204411Y0064671D01*
X0204528Y0064719D01*
X0204645Y0064764D01*
X0204764Y0064804D01*
X0204884Y0064841D01*
X0205005Y0064874D01*
X0205127Y0064904D01*
X0205250Y0064929D01*
X0205374Y0064951D01*
X0205499Y0064968D01*
X0205624Y0064982D01*
X0205749Y0064992D01*
X0205874Y0064998D01*
X0206000Y0065000D01*
X0206126Y0064998D01*
X0206251Y0064992D01*
X0206376Y0064982D01*
X0206501Y0064968D01*
X0206626Y0064951D01*
X0206750Y0064929D01*
X0206873Y0064904D01*
X0206995Y0064874D01*
X0207116Y0064841D01*
X0207236Y0064804D01*
X0207355Y0064764D01*
X0207472Y0064719D01*
X0207589Y0064671D01*
X0207703Y0064619D01*
X0207816Y0064564D01*
X0207927Y0064505D01*
X0208036Y0064443D01*
X0208143Y0064377D01*
X0208248Y0064308D01*
X0208351Y0064236D01*
X0208452Y0064161D01*
X0208550Y0064082D01*
X0208645Y0064000D01*
X0208738Y0063916D01*
X0208828Y0063828D01*
X0208916Y0063738D01*
X0209000Y0063645D01*
X0209082Y0063550D01*
X0209161Y0063452D01*
X0209236Y0063351D01*
X0209308Y0063248D01*
X0209377Y0063143D01*
X0209443Y0063036D01*
X0209505Y0062927D01*
X0209564Y0062816D01*
X0209619Y0062703D01*
X0209671Y0062589D01*
X0209719Y0062472D01*
X0209764Y0062355D01*
X0209804Y0062236D01*
X0209841Y0062116D01*
X0209874Y0061995D01*
X0209904Y0061873D01*
X0209929Y0061750D01*
X0209951Y0061626D01*
X0209968Y0061501D01*
X0209982Y0061376D01*
X0209992Y0061251D01*
X0209998Y0061126D01*
X0210000Y0061000D01*
X0217500Y0061000D01*
X0217500Y0131000D01*
X0194500Y0131000D01*
X0194500Y0061000D01*
X0177000Y0052000D02*
X0174500Y0052000D01*
X0174000Y0051500D01*
X0148000Y0051500D01*
X0147500Y0052000D01*
X0145000Y0052000D01*
X0144940Y0051998D01*
X0144879Y0051993D01*
X0144820Y0051984D01*
X0144761Y0051971D01*
X0144702Y0051955D01*
X0144645Y0051935D01*
X0144590Y0051912D01*
X0144535Y0051885D01*
X0144483Y0051856D01*
X0144432Y0051823D01*
X0144383Y0051787D01*
X0144337Y0051749D01*
X0144293Y0051707D01*
X0144251Y0051663D01*
X0144213Y0051617D01*
X0144177Y0051568D01*
X0144144Y0051517D01*
X0144115Y0051465D01*
X0144088Y0051410D01*
X0144065Y0051355D01*
X0144045Y0051298D01*
X0144029Y0051239D01*
X0144016Y0051180D01*
X0144007Y0051121D01*
X0144002Y0051060D01*
X0144000Y0051000D01*
X0144002Y0050940D01*
X0144007Y0050879D01*
X0144016Y0050820D01*
X0144029Y0050761D01*
X0144045Y0050702D01*
X0144065Y0050645D01*
X0144088Y0050590D01*
X0144115Y0050535D01*
X0144144Y0050483D01*
X0144177Y0050432D01*
X0144213Y0050383D01*
X0144251Y0050337D01*
X0144293Y0050293D01*
X0144337Y0050251D01*
X0144383Y0050213D01*
X0144432Y0050177D01*
X0144483Y0050144D01*
X0144535Y0050115D01*
X0144590Y0050088D01*
X0144645Y0050065D01*
X0144702Y0050045D01*
X0144761Y0050029D01*
X0144820Y0050016D01*
X0144879Y0050007D01*
X0144940Y0050002D01*
X0145000Y0050000D01*
X0147500Y0050000D01*
X0148000Y0050500D01*
X0174000Y0050500D01*
X0174500Y0050000D01*
X0177000Y0050000D01*
X0178000Y0051000D02*
X0177998Y0051060D01*
X0177993Y0051121D01*
X0177984Y0051180D01*
X0177971Y0051239D01*
X0177955Y0051298D01*
X0177935Y0051355D01*
X0177912Y0051410D01*
X0177885Y0051465D01*
X0177856Y0051517D01*
X0177823Y0051568D01*
X0177787Y0051617D01*
X0177749Y0051663D01*
X0177707Y0051707D01*
X0177663Y0051749D01*
X0177617Y0051787D01*
X0177568Y0051823D01*
X0177517Y0051856D01*
X0177465Y0051885D01*
X0177410Y0051912D01*
X0177355Y0051935D01*
X0177298Y0051955D01*
X0177239Y0051971D01*
X0177180Y0051984D01*
X0177121Y0051993D01*
X0177060Y0051998D01*
X0177000Y0052000D01*
X0178000Y0051000D02*
X0177998Y0050940D01*
X0177993Y0050879D01*
X0177984Y0050820D01*
X0177971Y0050761D01*
X0177955Y0050702D01*
X0177935Y0050645D01*
X0177912Y0050590D01*
X0177885Y0050535D01*
X0177856Y0050483D01*
X0177823Y0050432D01*
X0177787Y0050383D01*
X0177749Y0050337D01*
X0177707Y0050293D01*
X0177663Y0050251D01*
X0177617Y0050213D01*
X0177568Y0050177D01*
X0177517Y0050144D01*
X0177465Y0050115D01*
X0177410Y0050088D01*
X0177355Y0050065D01*
X0177298Y0050045D01*
X0177239Y0050029D01*
X0177180Y0050016D01*
X0177121Y0050007D01*
X0177060Y0050002D01*
X0177000Y0050000D01*
X0177000Y0042000D02*
X0174500Y0042000D01*
X0174000Y0041500D01*
X0148000Y0041500D01*
X0147500Y0042000D01*
X0145000Y0042000D01*
X0144000Y0041000D02*
X0144002Y0040940D01*
X0144007Y0040879D01*
X0144016Y0040820D01*
X0144029Y0040761D01*
X0144045Y0040702D01*
X0144065Y0040645D01*
X0144088Y0040590D01*
X0144115Y0040535D01*
X0144144Y0040483D01*
X0144177Y0040432D01*
X0144213Y0040383D01*
X0144251Y0040337D01*
X0144293Y0040293D01*
X0144337Y0040251D01*
X0144383Y0040213D01*
X0144432Y0040177D01*
X0144483Y0040144D01*
X0144535Y0040115D01*
X0144590Y0040088D01*
X0144645Y0040065D01*
X0144702Y0040045D01*
X0144761Y0040029D01*
X0144820Y0040016D01*
X0144879Y0040007D01*
X0144940Y0040002D01*
X0145000Y0040000D01*
X0147500Y0040000D01*
X0148000Y0040500D01*
X0174000Y0040500D01*
X0174500Y0040000D01*
X0177000Y0040000D01*
X0177060Y0040002D01*
X0177121Y0040007D01*
X0177180Y0040016D01*
X0177239Y0040029D01*
X0177298Y0040045D01*
X0177355Y0040065D01*
X0177410Y0040088D01*
X0177465Y0040115D01*
X0177517Y0040144D01*
X0177568Y0040177D01*
X0177617Y0040213D01*
X0177663Y0040251D01*
X0177707Y0040293D01*
X0177749Y0040337D01*
X0177787Y0040383D01*
X0177823Y0040432D01*
X0177856Y0040483D01*
X0177885Y0040535D01*
X0177912Y0040590D01*
X0177935Y0040645D01*
X0177955Y0040702D01*
X0177971Y0040761D01*
X0177984Y0040820D01*
X0177993Y0040879D01*
X0177998Y0040940D01*
X0178000Y0041000D01*
X0177998Y0041060D01*
X0177993Y0041121D01*
X0177984Y0041180D01*
X0177971Y0041239D01*
X0177955Y0041298D01*
X0177935Y0041355D01*
X0177912Y0041410D01*
X0177885Y0041465D01*
X0177856Y0041517D01*
X0177823Y0041568D01*
X0177787Y0041617D01*
X0177749Y0041663D01*
X0177707Y0041707D01*
X0177663Y0041749D01*
X0177617Y0041787D01*
X0177568Y0041823D01*
X0177517Y0041856D01*
X0177465Y0041885D01*
X0177410Y0041912D01*
X0177355Y0041935D01*
X0177298Y0041955D01*
X0177239Y0041971D01*
X0177180Y0041984D01*
X0177121Y0041993D01*
X0177060Y0041998D01*
X0177000Y0042000D01*
X0196500Y0047500D02*
X0196500Y0034500D01*
X0196502Y0034413D01*
X0196508Y0034326D01*
X0196517Y0034239D01*
X0196530Y0034153D01*
X0196547Y0034067D01*
X0196568Y0033982D01*
X0196593Y0033899D01*
X0196621Y0033816D01*
X0196652Y0033735D01*
X0196687Y0033655D01*
X0196726Y0033577D01*
X0196768Y0033500D01*
X0196813Y0033425D01*
X0196862Y0033353D01*
X0196913Y0033282D01*
X0196968Y0033214D01*
X0197025Y0033149D01*
X0197086Y0033086D01*
X0197149Y0033025D01*
X0197214Y0032968D01*
X0197282Y0032913D01*
X0197353Y0032862D01*
X0197425Y0032813D01*
X0197500Y0032768D01*
X0197577Y0032726D01*
X0197655Y0032687D01*
X0197735Y0032652D01*
X0197816Y0032621D01*
X0197899Y0032593D01*
X0197982Y0032568D01*
X0198067Y0032547D01*
X0198153Y0032530D01*
X0198239Y0032517D01*
X0198326Y0032508D01*
X0198413Y0032502D01*
X0198500Y0032500D01*
X0203500Y0032500D01*
X0203587Y0032502D01*
X0203674Y0032508D01*
X0203761Y0032517D01*
X0203847Y0032530D01*
X0203933Y0032547D01*
X0204018Y0032568D01*
X0204101Y0032593D01*
X0204184Y0032621D01*
X0204265Y0032652D01*
X0204345Y0032687D01*
X0204423Y0032726D01*
X0204500Y0032768D01*
X0204575Y0032813D01*
X0204647Y0032862D01*
X0204718Y0032913D01*
X0204786Y0032968D01*
X0204851Y0033025D01*
X0204914Y0033086D01*
X0204975Y0033149D01*
X0205032Y0033214D01*
X0205087Y0033282D01*
X0205138Y0033353D01*
X0205187Y0033425D01*
X0205232Y0033500D01*
X0205274Y0033577D01*
X0205313Y0033655D01*
X0205348Y0033735D01*
X0205379Y0033816D01*
X0205407Y0033899D01*
X0205432Y0033982D01*
X0205453Y0034067D01*
X0205470Y0034153D01*
X0205483Y0034239D01*
X0205492Y0034326D01*
X0205498Y0034413D01*
X0205500Y0034500D01*
X0205500Y0047500D01*
X0205498Y0047587D01*
X0205492Y0047674D01*
X0205483Y0047761D01*
X0205470Y0047847D01*
X0205453Y0047933D01*
X0205432Y0048018D01*
X0205407Y0048101D01*
X0205379Y0048184D01*
X0205348Y0048265D01*
X0205313Y0048345D01*
X0205274Y0048423D01*
X0205232Y0048500D01*
X0205187Y0048575D01*
X0205138Y0048647D01*
X0205087Y0048718D01*
X0205032Y0048786D01*
X0204975Y0048851D01*
X0204914Y0048914D01*
X0204851Y0048975D01*
X0204786Y0049032D01*
X0204718Y0049087D01*
X0204647Y0049138D01*
X0204575Y0049187D01*
X0204500Y0049232D01*
X0204423Y0049274D01*
X0204345Y0049313D01*
X0204265Y0049348D01*
X0204184Y0049379D01*
X0204101Y0049407D01*
X0204018Y0049432D01*
X0203933Y0049453D01*
X0203847Y0049470D01*
X0203761Y0049483D01*
X0203674Y0049492D01*
X0203587Y0049498D01*
X0203500Y0049500D01*
X0198500Y0049500D01*
X0198413Y0049498D01*
X0198326Y0049492D01*
X0198239Y0049483D01*
X0198153Y0049470D01*
X0198067Y0049453D01*
X0197982Y0049432D01*
X0197899Y0049407D01*
X0197816Y0049379D01*
X0197735Y0049348D01*
X0197655Y0049313D01*
X0197577Y0049274D01*
X0197500Y0049232D01*
X0197425Y0049187D01*
X0197353Y0049138D01*
X0197282Y0049087D01*
X0197214Y0049032D01*
X0197149Y0048975D01*
X0197086Y0048914D01*
X0197025Y0048851D01*
X0196968Y0048786D01*
X0196913Y0048718D01*
X0196862Y0048647D01*
X0196813Y0048575D01*
X0196768Y0048500D01*
X0196726Y0048423D01*
X0196687Y0048345D01*
X0196652Y0048265D01*
X0196621Y0048184D01*
X0196593Y0048101D01*
X0196568Y0048018D01*
X0196547Y0047933D01*
X0196530Y0047847D01*
X0196517Y0047761D01*
X0196508Y0047674D01*
X0196502Y0047587D01*
X0196500Y0047500D01*
X0216500Y0047500D02*
X0216500Y0034500D01*
X0216502Y0034413D01*
X0216508Y0034326D01*
X0216517Y0034239D01*
X0216530Y0034153D01*
X0216547Y0034067D01*
X0216568Y0033982D01*
X0216593Y0033899D01*
X0216621Y0033816D01*
X0216652Y0033735D01*
X0216687Y0033655D01*
X0216726Y0033577D01*
X0216768Y0033500D01*
X0216813Y0033425D01*
X0216862Y0033353D01*
X0216913Y0033282D01*
X0216968Y0033214D01*
X0217025Y0033149D01*
X0217086Y0033086D01*
X0217149Y0033025D01*
X0217214Y0032968D01*
X0217282Y0032913D01*
X0217353Y0032862D01*
X0217425Y0032813D01*
X0217500Y0032768D01*
X0217577Y0032726D01*
X0217655Y0032687D01*
X0217735Y0032652D01*
X0217816Y0032621D01*
X0217899Y0032593D01*
X0217982Y0032568D01*
X0218067Y0032547D01*
X0218153Y0032530D01*
X0218239Y0032517D01*
X0218326Y0032508D01*
X0218413Y0032502D01*
X0218500Y0032500D01*
X0223500Y0032500D01*
X0223587Y0032502D01*
X0223674Y0032508D01*
X0223761Y0032517D01*
X0223847Y0032530D01*
X0223933Y0032547D01*
X0224018Y0032568D01*
X0224101Y0032593D01*
X0224184Y0032621D01*
X0224265Y0032652D01*
X0224345Y0032687D01*
X0224423Y0032726D01*
X0224500Y0032768D01*
X0224575Y0032813D01*
X0224647Y0032862D01*
X0224718Y0032913D01*
X0224786Y0032968D01*
X0224851Y0033025D01*
X0224914Y0033086D01*
X0224975Y0033149D01*
X0225032Y0033214D01*
X0225087Y0033282D01*
X0225138Y0033353D01*
X0225187Y0033425D01*
X0225232Y0033500D01*
X0225274Y0033577D01*
X0225313Y0033655D01*
X0225348Y0033735D01*
X0225379Y0033816D01*
X0225407Y0033899D01*
X0225432Y0033982D01*
X0225453Y0034067D01*
X0225470Y0034153D01*
X0225483Y0034239D01*
X0225492Y0034326D01*
X0225498Y0034413D01*
X0225500Y0034500D01*
X0225500Y0047500D01*
X0225498Y0047587D01*
X0225492Y0047674D01*
X0225483Y0047761D01*
X0225470Y0047847D01*
X0225453Y0047933D01*
X0225432Y0048018D01*
X0225407Y0048101D01*
X0225379Y0048184D01*
X0225348Y0048265D01*
X0225313Y0048345D01*
X0225274Y0048423D01*
X0225232Y0048500D01*
X0225187Y0048575D01*
X0225138Y0048647D01*
X0225087Y0048718D01*
X0225032Y0048786D01*
X0224975Y0048851D01*
X0224914Y0048914D01*
X0224851Y0048975D01*
X0224786Y0049032D01*
X0224718Y0049087D01*
X0224647Y0049138D01*
X0224575Y0049187D01*
X0224500Y0049232D01*
X0224423Y0049274D01*
X0224345Y0049313D01*
X0224265Y0049348D01*
X0224184Y0049379D01*
X0224101Y0049407D01*
X0224018Y0049432D01*
X0223933Y0049453D01*
X0223847Y0049470D01*
X0223761Y0049483D01*
X0223674Y0049492D01*
X0223587Y0049498D01*
X0223500Y0049500D01*
X0218500Y0049500D01*
X0218413Y0049498D01*
X0218326Y0049492D01*
X0218239Y0049483D01*
X0218153Y0049470D01*
X0218067Y0049453D01*
X0217982Y0049432D01*
X0217899Y0049407D01*
X0217816Y0049379D01*
X0217735Y0049348D01*
X0217655Y0049313D01*
X0217577Y0049274D01*
X0217500Y0049232D01*
X0217425Y0049187D01*
X0217353Y0049138D01*
X0217282Y0049087D01*
X0217214Y0049032D01*
X0217149Y0048975D01*
X0217086Y0048914D01*
X0217025Y0048851D01*
X0216968Y0048786D01*
X0216913Y0048718D01*
X0216862Y0048647D01*
X0216813Y0048575D01*
X0216768Y0048500D01*
X0216726Y0048423D01*
X0216687Y0048345D01*
X0216652Y0048265D01*
X0216621Y0048184D01*
X0216593Y0048101D01*
X0216568Y0048018D01*
X0216547Y0047933D01*
X0216530Y0047847D01*
X0216517Y0047761D01*
X0216508Y0047674D01*
X0216502Y0047587D01*
X0216500Y0047500D01*
X0244500Y0061000D02*
X0267500Y0061000D01*
X0267500Y0131000D01*
X0260000Y0131000D01*
X0259998Y0130874D01*
X0259992Y0130749D01*
X0259982Y0130624D01*
X0259968Y0130499D01*
X0259951Y0130374D01*
X0259929Y0130250D01*
X0259904Y0130127D01*
X0259874Y0130005D01*
X0259841Y0129884D01*
X0259804Y0129764D01*
X0259764Y0129645D01*
X0259719Y0129528D01*
X0259671Y0129411D01*
X0259619Y0129297D01*
X0259564Y0129184D01*
X0259505Y0129073D01*
X0259443Y0128964D01*
X0259377Y0128857D01*
X0259308Y0128752D01*
X0259236Y0128649D01*
X0259161Y0128548D01*
X0259082Y0128450D01*
X0259000Y0128355D01*
X0258916Y0128262D01*
X0258828Y0128172D01*
X0258738Y0128084D01*
X0258645Y0128000D01*
X0258550Y0127918D01*
X0258452Y0127839D01*
X0258351Y0127764D01*
X0258248Y0127692D01*
X0258143Y0127623D01*
X0258036Y0127557D01*
X0257927Y0127495D01*
X0257816Y0127436D01*
X0257703Y0127381D01*
X0257589Y0127329D01*
X0257472Y0127281D01*
X0257355Y0127236D01*
X0257236Y0127196D01*
X0257116Y0127159D01*
X0256995Y0127126D01*
X0256873Y0127096D01*
X0256750Y0127071D01*
X0256626Y0127049D01*
X0256501Y0127032D01*
X0256376Y0127018D01*
X0256251Y0127008D01*
X0256126Y0127002D01*
X0256000Y0127000D01*
X0255874Y0127002D01*
X0255749Y0127008D01*
X0255624Y0127018D01*
X0255499Y0127032D01*
X0255374Y0127049D01*
X0255250Y0127071D01*
X0255127Y0127096D01*
X0255005Y0127126D01*
X0254884Y0127159D01*
X0254764Y0127196D01*
X0254645Y0127236D01*
X0254528Y0127281D01*
X0254411Y0127329D01*
X0254297Y0127381D01*
X0254184Y0127436D01*
X0254073Y0127495D01*
X0253964Y0127557D01*
X0253857Y0127623D01*
X0253752Y0127692D01*
X0253649Y0127764D01*
X0253548Y0127839D01*
X0253450Y0127918D01*
X0253355Y0128000D01*
X0253262Y0128084D01*
X0253172Y0128172D01*
X0253084Y0128262D01*
X0253000Y0128355D01*
X0252918Y0128450D01*
X0252839Y0128548D01*
X0252764Y0128649D01*
X0252692Y0128752D01*
X0252623Y0128857D01*
X0252557Y0128964D01*
X0252495Y0129073D01*
X0252436Y0129184D01*
X0252381Y0129297D01*
X0252329Y0129411D01*
X0252281Y0129528D01*
X0252236Y0129645D01*
X0252196Y0129764D01*
X0252159Y0129884D01*
X0252126Y0130005D01*
X0252096Y0130127D01*
X0252071Y0130250D01*
X0252049Y0130374D01*
X0252032Y0130499D01*
X0252018Y0130624D01*
X0252008Y0130749D01*
X0252002Y0130874D01*
X0252000Y0131000D01*
X0244500Y0131000D01*
X0244500Y0061000D01*
X0178000Y0031000D02*
X0177998Y0030940D01*
X0177993Y0030879D01*
X0177984Y0030820D01*
X0177971Y0030761D01*
X0177955Y0030702D01*
X0177935Y0030645D01*
X0177912Y0030590D01*
X0177885Y0030535D01*
X0177856Y0030483D01*
X0177823Y0030432D01*
X0177787Y0030383D01*
X0177749Y0030337D01*
X0177707Y0030293D01*
X0177663Y0030251D01*
X0177617Y0030213D01*
X0177568Y0030177D01*
X0177517Y0030144D01*
X0177465Y0030115D01*
X0177410Y0030088D01*
X0177355Y0030065D01*
X0177298Y0030045D01*
X0177239Y0030029D01*
X0177180Y0030016D01*
X0177121Y0030007D01*
X0177060Y0030002D01*
X0177000Y0030000D01*
X0174500Y0030000D01*
X0174000Y0030500D01*
X0148000Y0030500D01*
X0147500Y0030000D01*
X0145000Y0030000D01*
X0144940Y0030002D01*
X0144879Y0030007D01*
X0144820Y0030016D01*
X0144761Y0030029D01*
X0144702Y0030045D01*
X0144645Y0030065D01*
X0144590Y0030088D01*
X0144535Y0030115D01*
X0144483Y0030144D01*
X0144432Y0030177D01*
X0144383Y0030213D01*
X0144337Y0030251D01*
X0144293Y0030293D01*
X0144251Y0030337D01*
X0144213Y0030383D01*
X0144177Y0030432D01*
X0144144Y0030483D01*
X0144115Y0030535D01*
X0144088Y0030590D01*
X0144065Y0030645D01*
X0144045Y0030702D01*
X0144029Y0030761D01*
X0144016Y0030820D01*
X0144007Y0030879D01*
X0144002Y0030940D01*
X0144000Y0031000D01*
X0144000Y0041000D02*
X0144002Y0041060D01*
X0144007Y0041121D01*
X0144016Y0041180D01*
X0144029Y0041239D01*
X0144045Y0041298D01*
X0144065Y0041355D01*
X0144088Y0041410D01*
X0144115Y0041465D01*
X0144144Y0041517D01*
X0144177Y0041568D01*
X0144213Y0041617D01*
X0144251Y0041663D01*
X0144293Y0041707D01*
X0144337Y0041749D01*
X0144383Y0041787D01*
X0144432Y0041823D01*
X0144483Y0041856D01*
X0144535Y0041885D01*
X0144590Y0041912D01*
X0144645Y0041935D01*
X0144702Y0041955D01*
X0144761Y0041971D01*
X0144820Y0041984D01*
X0144879Y0041993D01*
X0144940Y0041998D01*
X0145000Y0042000D01*
X0136000Y0018500D02*
X0136000Y0013500D01*
X0126000Y0013500D02*
X0126000Y0018500D01*
X0156000Y0018500D02*
X0156000Y0013500D01*
X0166000Y0013500D02*
X0166000Y0018500D01*
X0186000Y0018500D02*
X0186000Y0013500D01*
X0247000Y0013000D02*
X0247000Y0019000D01*
X0247002Y0019060D01*
X0247007Y0019121D01*
X0247016Y0019180D01*
X0247029Y0019239D01*
X0247045Y0019298D01*
X0247065Y0019355D01*
X0247088Y0019410D01*
X0247115Y0019465D01*
X0247144Y0019517D01*
X0247177Y0019568D01*
X0247213Y0019617D01*
X0247251Y0019663D01*
X0247293Y0019707D01*
X0247337Y0019749D01*
X0247383Y0019787D01*
X0247432Y0019823D01*
X0247483Y0019856D01*
X0247535Y0019885D01*
X0247590Y0019912D01*
X0247645Y0019935D01*
X0247702Y0019955D01*
X0247761Y0019971D01*
X0247820Y0019984D01*
X0247879Y0019993D01*
X0247940Y0019998D01*
X0248000Y0020000D01*
X0264000Y0020000D01*
X0264060Y0019998D01*
X0264121Y0019993D01*
X0264180Y0019984D01*
X0264239Y0019971D01*
X0264298Y0019955D01*
X0264355Y0019935D01*
X0264410Y0019912D01*
X0264465Y0019885D01*
X0264517Y0019856D01*
X0264568Y0019823D01*
X0264617Y0019787D01*
X0264663Y0019749D01*
X0264707Y0019707D01*
X0264749Y0019663D01*
X0264787Y0019617D01*
X0264823Y0019568D01*
X0264856Y0019517D01*
X0264885Y0019465D01*
X0264912Y0019410D01*
X0264935Y0019355D01*
X0264955Y0019298D01*
X0264971Y0019239D01*
X0264984Y0019180D01*
X0264993Y0019121D01*
X0264998Y0019060D01*
X0265000Y0019000D01*
X0265000Y0013000D01*
X0264998Y0012940D01*
X0264993Y0012879D01*
X0264984Y0012820D01*
X0264971Y0012761D01*
X0264955Y0012702D01*
X0264935Y0012645D01*
X0264912Y0012590D01*
X0264885Y0012535D01*
X0264856Y0012483D01*
X0264823Y0012432D01*
X0264787Y0012383D01*
X0264749Y0012337D01*
X0264707Y0012293D01*
X0264663Y0012251D01*
X0264617Y0012213D01*
X0264568Y0012177D01*
X0264517Y0012144D01*
X0264465Y0012115D01*
X0264410Y0012088D01*
X0264355Y0012065D01*
X0264298Y0012045D01*
X0264239Y0012029D01*
X0264180Y0012016D01*
X0264121Y0012007D01*
X0264060Y0012002D01*
X0264000Y0012000D01*
X0248000Y0012000D01*
X0247940Y0012002D01*
X0247879Y0012007D01*
X0247820Y0012016D01*
X0247761Y0012029D01*
X0247702Y0012045D01*
X0247645Y0012065D01*
X0247590Y0012088D01*
X0247535Y0012115D01*
X0247483Y0012144D01*
X0247432Y0012177D01*
X0247383Y0012213D01*
X0247337Y0012251D01*
X0247293Y0012293D01*
X0247251Y0012337D01*
X0247213Y0012383D01*
X0247177Y0012432D01*
X0247144Y0012483D01*
X0247115Y0012535D01*
X0247088Y0012590D01*
X0247065Y0012645D01*
X0247045Y0012702D01*
X0247029Y0012761D01*
X0247016Y0012820D01*
X0247007Y0012879D01*
X0247002Y0012940D01*
X0247000Y0013000D01*
X0253500Y0016000D02*
X0256000Y0016000D01*
X0256000Y0013500D01*
X0256000Y0016000D02*
X0256000Y0018500D01*
X0256000Y0016000D02*
X0260000Y0018500D01*
X0260000Y0013500D01*
X0256000Y0016000D01*
X0262000Y0016000D01*
X0136000Y0069000D02*
X0135940Y0069002D01*
X0135879Y0069007D01*
X0135820Y0069016D01*
X0135761Y0069029D01*
X0135702Y0069045D01*
X0135645Y0069065D01*
X0135590Y0069088D01*
X0135535Y0069115D01*
X0135483Y0069144D01*
X0135432Y0069177D01*
X0135383Y0069213D01*
X0135337Y0069251D01*
X0135293Y0069293D01*
X0135251Y0069337D01*
X0135213Y0069383D01*
X0135177Y0069432D01*
X0135144Y0069483D01*
X0135115Y0069535D01*
X0135088Y0069590D01*
X0135065Y0069645D01*
X0135045Y0069702D01*
X0135029Y0069761D01*
X0135016Y0069820D01*
X0135007Y0069879D01*
X0135002Y0069940D01*
X0135000Y0070000D01*
X0126000Y0069000D02*
X0125940Y0069002D01*
X0125879Y0069007D01*
X0125820Y0069016D01*
X0125761Y0069029D01*
X0125702Y0069045D01*
X0125645Y0069065D01*
X0125590Y0069088D01*
X0125535Y0069115D01*
X0125483Y0069144D01*
X0125432Y0069177D01*
X0125383Y0069213D01*
X0125337Y0069251D01*
X0125293Y0069293D01*
X0125251Y0069337D01*
X0125213Y0069383D01*
X0125177Y0069432D01*
X0125144Y0069483D01*
X0125115Y0069535D01*
X0125088Y0069590D01*
X0125065Y0069645D01*
X0125045Y0069702D01*
X0125029Y0069761D01*
X0125016Y0069820D01*
X0125007Y0069879D01*
X0125002Y0069940D01*
X0125000Y0070000D01*
X0109000Y0075000D02*
X0107000Y0075000D01*
X0108000Y0076000D02*
X0108000Y0074000D01*
X0091000Y0071000D02*
X0091003Y0071245D01*
X0091012Y0071491D01*
X0091027Y0071736D01*
X0091048Y0071980D01*
X0091075Y0072224D01*
X0091108Y0072467D01*
X0091147Y0072710D01*
X0091192Y0072951D01*
X0091243Y0073191D01*
X0091300Y0073430D01*
X0091362Y0073667D01*
X0091431Y0073903D01*
X0091505Y0074137D01*
X0091585Y0074369D01*
X0091670Y0074599D01*
X0091761Y0074827D01*
X0091858Y0075052D01*
X0091960Y0075276D01*
X0092068Y0075496D01*
X0092181Y0075714D01*
X0092299Y0075929D01*
X0092423Y0076141D01*
X0092551Y0076350D01*
X0092685Y0076556D01*
X0092824Y0076758D01*
X0092968Y0076957D01*
X0093117Y0077152D01*
X0093270Y0077344D01*
X0093428Y0077532D01*
X0093590Y0077716D01*
X0093758Y0077895D01*
X0093929Y0078071D01*
X0094105Y0078242D01*
X0094284Y0078410D01*
X0094468Y0078572D01*
X0094656Y0078730D01*
X0094848Y0078883D01*
X0095043Y0079032D01*
X0095242Y0079176D01*
X0095444Y0079315D01*
X0095650Y0079449D01*
X0095859Y0079577D01*
X0096071Y0079701D01*
X0096286Y0079819D01*
X0096504Y0079932D01*
X0096724Y0080040D01*
X0096948Y0080142D01*
X0097173Y0080239D01*
X0097401Y0080330D01*
X0097631Y0080415D01*
X0097863Y0080495D01*
X0098097Y0080569D01*
X0098333Y0080638D01*
X0098570Y0080700D01*
X0098809Y0080757D01*
X0099049Y0080808D01*
X0099290Y0080853D01*
X0099533Y0080892D01*
X0099776Y0080925D01*
X0100020Y0080952D01*
X0100264Y0080973D01*
X0100509Y0080988D01*
X0100755Y0080997D01*
X0101000Y0081000D01*
X0101245Y0080997D01*
X0101491Y0080988D01*
X0101736Y0080973D01*
X0101980Y0080952D01*
X0102224Y0080925D01*
X0102467Y0080892D01*
X0102710Y0080853D01*
X0102951Y0080808D01*
X0103191Y0080757D01*
X0103430Y0080700D01*
X0103667Y0080638D01*
X0103903Y0080569D01*
X0104137Y0080495D01*
X0104369Y0080415D01*
X0104599Y0080330D01*
X0104827Y0080239D01*
X0105052Y0080142D01*
X0105276Y0080040D01*
X0105496Y0079932D01*
X0105714Y0079819D01*
X0105929Y0079701D01*
X0106141Y0079577D01*
X0106350Y0079449D01*
X0106556Y0079315D01*
X0106758Y0079176D01*
X0106957Y0079032D01*
X0107152Y0078883D01*
X0107344Y0078730D01*
X0107532Y0078572D01*
X0107716Y0078410D01*
X0107895Y0078242D01*
X0108071Y0078071D01*
X0108242Y0077895D01*
X0108410Y0077716D01*
X0108572Y0077532D01*
X0108730Y0077344D01*
X0108883Y0077152D01*
X0109032Y0076957D01*
X0109176Y0076758D01*
X0109315Y0076556D01*
X0109449Y0076350D01*
X0109577Y0076141D01*
X0109701Y0075929D01*
X0109819Y0075714D01*
X0109932Y0075496D01*
X0110040Y0075276D01*
X0110142Y0075052D01*
X0110239Y0074827D01*
X0110330Y0074599D01*
X0110415Y0074369D01*
X0110495Y0074137D01*
X0110569Y0073903D01*
X0110638Y0073667D01*
X0110700Y0073430D01*
X0110757Y0073191D01*
X0110808Y0072951D01*
X0110853Y0072710D01*
X0110892Y0072467D01*
X0110925Y0072224D01*
X0110952Y0071980D01*
X0110973Y0071736D01*
X0110988Y0071491D01*
X0110997Y0071245D01*
X0111000Y0071000D01*
X0110997Y0070755D01*
X0110988Y0070509D01*
X0110973Y0070264D01*
X0110952Y0070020D01*
X0110925Y0069776D01*
X0110892Y0069533D01*
X0110853Y0069290D01*
X0110808Y0069049D01*
X0110757Y0068809D01*
X0110700Y0068570D01*
X0110638Y0068333D01*
X0110569Y0068097D01*
X0110495Y0067863D01*
X0110415Y0067631D01*
X0110330Y0067401D01*
X0110239Y0067173D01*
X0110142Y0066948D01*
X0110040Y0066724D01*
X0109932Y0066504D01*
X0109819Y0066286D01*
X0109701Y0066071D01*
X0109577Y0065859D01*
X0109449Y0065650D01*
X0109315Y0065444D01*
X0109176Y0065242D01*
X0109032Y0065043D01*
X0108883Y0064848D01*
X0108730Y0064656D01*
X0108572Y0064468D01*
X0108410Y0064284D01*
X0108242Y0064105D01*
X0108071Y0063929D01*
X0107895Y0063758D01*
X0107716Y0063590D01*
X0107532Y0063428D01*
X0107344Y0063270D01*
X0107152Y0063117D01*
X0106957Y0062968D01*
X0106758Y0062824D01*
X0106556Y0062685D01*
X0106350Y0062551D01*
X0106141Y0062423D01*
X0105929Y0062299D01*
X0105714Y0062181D01*
X0105496Y0062068D01*
X0105276Y0061960D01*
X0105052Y0061858D01*
X0104827Y0061761D01*
X0104599Y0061670D01*
X0104369Y0061585D01*
X0104137Y0061505D01*
X0103903Y0061431D01*
X0103667Y0061362D01*
X0103430Y0061300D01*
X0103191Y0061243D01*
X0102951Y0061192D01*
X0102710Y0061147D01*
X0102467Y0061108D01*
X0102224Y0061075D01*
X0101980Y0061048D01*
X0101736Y0061027D01*
X0101491Y0061012D01*
X0101245Y0061003D01*
X0101000Y0061000D01*
X0100755Y0061003D01*
X0100509Y0061012D01*
X0100264Y0061027D01*
X0100020Y0061048D01*
X0099776Y0061075D01*
X0099533Y0061108D01*
X0099290Y0061147D01*
X0099049Y0061192D01*
X0098809Y0061243D01*
X0098570Y0061300D01*
X0098333Y0061362D01*
X0098097Y0061431D01*
X0097863Y0061505D01*
X0097631Y0061585D01*
X0097401Y0061670D01*
X0097173Y0061761D01*
X0096948Y0061858D01*
X0096724Y0061960D01*
X0096504Y0062068D01*
X0096286Y0062181D01*
X0096071Y0062299D01*
X0095859Y0062423D01*
X0095650Y0062551D01*
X0095444Y0062685D01*
X0095242Y0062824D01*
X0095043Y0062968D01*
X0094848Y0063117D01*
X0094656Y0063270D01*
X0094468Y0063428D01*
X0094284Y0063590D01*
X0094105Y0063758D01*
X0093929Y0063929D01*
X0093758Y0064105D01*
X0093590Y0064284D01*
X0093428Y0064468D01*
X0093270Y0064656D01*
X0093117Y0064848D01*
X0092968Y0065043D01*
X0092824Y0065242D01*
X0092685Y0065444D01*
X0092551Y0065650D01*
X0092423Y0065859D01*
X0092299Y0066071D01*
X0092181Y0066286D01*
X0092068Y0066504D01*
X0091960Y0066724D01*
X0091858Y0066948D01*
X0091761Y0067173D01*
X0091670Y0067401D01*
X0091585Y0067631D01*
X0091505Y0067863D01*
X0091431Y0068097D01*
X0091362Y0068333D01*
X0091300Y0068570D01*
X0091243Y0068809D01*
X0091192Y0069049D01*
X0091147Y0069290D01*
X0091108Y0069533D01*
X0091075Y0069776D01*
X0091048Y0070020D01*
X0091027Y0070264D01*
X0091012Y0070509D01*
X0091003Y0070755D01*
X0091000Y0071000D01*
X0077000Y0080000D02*
X0074500Y0080000D01*
X0074000Y0080500D01*
X0048000Y0080500D01*
X0047500Y0080000D01*
X0045000Y0080000D01*
X0044940Y0080002D01*
X0044879Y0080007D01*
X0044820Y0080016D01*
X0044761Y0080029D01*
X0044702Y0080045D01*
X0044645Y0080065D01*
X0044590Y0080088D01*
X0044535Y0080115D01*
X0044483Y0080144D01*
X0044432Y0080177D01*
X0044383Y0080213D01*
X0044337Y0080251D01*
X0044293Y0080293D01*
X0044251Y0080337D01*
X0044213Y0080383D01*
X0044177Y0080432D01*
X0044144Y0080483D01*
X0044115Y0080535D01*
X0044088Y0080590D01*
X0044065Y0080645D01*
X0044045Y0080702D01*
X0044029Y0080761D01*
X0044016Y0080820D01*
X0044007Y0080879D01*
X0044002Y0080940D01*
X0044000Y0081000D01*
X0045000Y0090000D02*
X0047500Y0090000D01*
X0048000Y0090500D01*
X0074000Y0090500D01*
X0074500Y0090000D01*
X0077000Y0090000D01*
X0077060Y0090002D01*
X0077121Y0090007D01*
X0077180Y0090016D01*
X0077239Y0090029D01*
X0077298Y0090045D01*
X0077355Y0090065D01*
X0077410Y0090088D01*
X0077465Y0090115D01*
X0077517Y0090144D01*
X0077568Y0090177D01*
X0077617Y0090213D01*
X0077663Y0090251D01*
X0077707Y0090293D01*
X0077749Y0090337D01*
X0077787Y0090383D01*
X0077823Y0090432D01*
X0077856Y0090483D01*
X0077885Y0090535D01*
X0077912Y0090590D01*
X0077935Y0090645D01*
X0077955Y0090702D01*
X0077971Y0090761D01*
X0077984Y0090820D01*
X0077993Y0090879D01*
X0077998Y0090940D01*
X0078000Y0091000D01*
X0077998Y0091060D01*
X0077993Y0091121D01*
X0077984Y0091180D01*
X0077971Y0091239D01*
X0077955Y0091298D01*
X0077935Y0091355D01*
X0077912Y0091410D01*
X0077885Y0091465D01*
X0077856Y0091517D01*
X0077823Y0091568D01*
X0077787Y0091617D01*
X0077749Y0091663D01*
X0077707Y0091707D01*
X0077663Y0091749D01*
X0077617Y0091787D01*
X0077568Y0091823D01*
X0077517Y0091856D01*
X0077465Y0091885D01*
X0077410Y0091912D01*
X0077355Y0091935D01*
X0077298Y0091955D01*
X0077239Y0091971D01*
X0077180Y0091984D01*
X0077121Y0091993D01*
X0077060Y0091998D01*
X0077000Y0092000D01*
X0074500Y0092000D01*
X0074000Y0091500D01*
X0048000Y0091500D01*
X0047500Y0092000D01*
X0045000Y0092000D01*
X0044000Y0091000D02*
X0044002Y0090940D01*
X0044007Y0090879D01*
X0044016Y0090820D01*
X0044029Y0090761D01*
X0044045Y0090702D01*
X0044065Y0090645D01*
X0044088Y0090590D01*
X0044115Y0090535D01*
X0044144Y0090483D01*
X0044177Y0090432D01*
X0044213Y0090383D01*
X0044251Y0090337D01*
X0044293Y0090293D01*
X0044337Y0090251D01*
X0044383Y0090213D01*
X0044432Y0090177D01*
X0044483Y0090144D01*
X0044535Y0090115D01*
X0044590Y0090088D01*
X0044645Y0090065D01*
X0044702Y0090045D01*
X0044761Y0090029D01*
X0044820Y0090016D01*
X0044879Y0090007D01*
X0044940Y0090002D01*
X0045000Y0090000D01*
X0044000Y0091000D02*
X0044002Y0091060D01*
X0044007Y0091121D01*
X0044016Y0091180D01*
X0044029Y0091239D01*
X0044045Y0091298D01*
X0044065Y0091355D01*
X0044088Y0091410D01*
X0044115Y0091465D01*
X0044144Y0091517D01*
X0044177Y0091568D01*
X0044213Y0091617D01*
X0044251Y0091663D01*
X0044293Y0091707D01*
X0044337Y0091749D01*
X0044383Y0091787D01*
X0044432Y0091823D01*
X0044483Y0091856D01*
X0044535Y0091885D01*
X0044590Y0091912D01*
X0044645Y0091935D01*
X0044702Y0091955D01*
X0044761Y0091971D01*
X0044820Y0091984D01*
X0044879Y0091993D01*
X0044940Y0091998D01*
X0045000Y0092000D01*
X0045000Y0100000D02*
X0047500Y0100000D01*
X0048000Y0100500D01*
X0074000Y0100500D01*
X0074500Y0100000D01*
X0077000Y0100000D01*
X0078000Y0101000D02*
X0077998Y0101060D01*
X0077993Y0101121D01*
X0077984Y0101180D01*
X0077971Y0101239D01*
X0077955Y0101298D01*
X0077935Y0101355D01*
X0077912Y0101410D01*
X0077885Y0101465D01*
X0077856Y0101517D01*
X0077823Y0101568D01*
X0077787Y0101617D01*
X0077749Y0101663D01*
X0077707Y0101707D01*
X0077663Y0101749D01*
X0077617Y0101787D01*
X0077568Y0101823D01*
X0077517Y0101856D01*
X0077465Y0101885D01*
X0077410Y0101912D01*
X0077355Y0101935D01*
X0077298Y0101955D01*
X0077239Y0101971D01*
X0077180Y0101984D01*
X0077121Y0101993D01*
X0077060Y0101998D01*
X0077000Y0102000D01*
X0074500Y0102000D01*
X0074000Y0101500D01*
X0048000Y0101500D01*
X0047500Y0102000D01*
X0045000Y0102000D01*
X0044940Y0101998D01*
X0044879Y0101993D01*
X0044820Y0101984D01*
X0044761Y0101971D01*
X0044702Y0101955D01*
X0044645Y0101935D01*
X0044590Y0101912D01*
X0044535Y0101885D01*
X0044483Y0101856D01*
X0044432Y0101823D01*
X0044383Y0101787D01*
X0044337Y0101749D01*
X0044293Y0101707D01*
X0044251Y0101663D01*
X0044213Y0101617D01*
X0044177Y0101568D01*
X0044144Y0101517D01*
X0044115Y0101465D01*
X0044088Y0101410D01*
X0044065Y0101355D01*
X0044045Y0101298D01*
X0044029Y0101239D01*
X0044016Y0101180D01*
X0044007Y0101121D01*
X0044002Y0101060D01*
X0044000Y0101000D01*
X0044002Y0100940D01*
X0044007Y0100879D01*
X0044016Y0100820D01*
X0044029Y0100761D01*
X0044045Y0100702D01*
X0044065Y0100645D01*
X0044088Y0100590D01*
X0044115Y0100535D01*
X0044144Y0100483D01*
X0044177Y0100432D01*
X0044213Y0100383D01*
X0044251Y0100337D01*
X0044293Y0100293D01*
X0044337Y0100251D01*
X0044383Y0100213D01*
X0044432Y0100177D01*
X0044483Y0100144D01*
X0044535Y0100115D01*
X0044590Y0100088D01*
X0044645Y0100065D01*
X0044702Y0100045D01*
X0044761Y0100029D01*
X0044820Y0100016D01*
X0044879Y0100007D01*
X0044940Y0100002D01*
X0045000Y0100000D01*
X0044000Y0111000D02*
X0044002Y0111060D01*
X0044007Y0111121D01*
X0044016Y0111180D01*
X0044029Y0111239D01*
X0044045Y0111298D01*
X0044065Y0111355D01*
X0044088Y0111410D01*
X0044115Y0111465D01*
X0044144Y0111517D01*
X0044177Y0111568D01*
X0044213Y0111617D01*
X0044251Y0111663D01*
X0044293Y0111707D01*
X0044337Y0111749D01*
X0044383Y0111787D01*
X0044432Y0111823D01*
X0044483Y0111856D01*
X0044535Y0111885D01*
X0044590Y0111912D01*
X0044645Y0111935D01*
X0044702Y0111955D01*
X0044761Y0111971D01*
X0044820Y0111984D01*
X0044879Y0111993D01*
X0044940Y0111998D01*
X0045000Y0112000D01*
X0047500Y0112000D01*
X0048000Y0111500D01*
X0074000Y0111500D01*
X0074500Y0112000D01*
X0077000Y0112000D01*
X0077060Y0111998D01*
X0077121Y0111993D01*
X0077180Y0111984D01*
X0077239Y0111971D01*
X0077298Y0111955D01*
X0077355Y0111935D01*
X0077410Y0111912D01*
X0077465Y0111885D01*
X0077517Y0111856D01*
X0077568Y0111823D01*
X0077617Y0111787D01*
X0077663Y0111749D01*
X0077707Y0111707D01*
X0077749Y0111663D01*
X0077787Y0111617D01*
X0077823Y0111568D01*
X0077856Y0111517D01*
X0077885Y0111465D01*
X0077912Y0111410D01*
X0077935Y0111355D01*
X0077955Y0111298D01*
X0077971Y0111239D01*
X0077984Y0111180D01*
X0077993Y0111121D01*
X0077998Y0111060D01*
X0078000Y0111000D01*
X0078000Y0101000D02*
X0077998Y0100940D01*
X0077993Y0100879D01*
X0077984Y0100820D01*
X0077971Y0100761D01*
X0077955Y0100702D01*
X0077935Y0100645D01*
X0077912Y0100590D01*
X0077885Y0100535D01*
X0077856Y0100483D01*
X0077823Y0100432D01*
X0077787Y0100383D01*
X0077749Y0100337D01*
X0077707Y0100293D01*
X0077663Y0100251D01*
X0077617Y0100213D01*
X0077568Y0100177D01*
X0077517Y0100144D01*
X0077465Y0100115D01*
X0077410Y0100088D01*
X0077355Y0100065D01*
X0077298Y0100045D01*
X0077239Y0100029D01*
X0077180Y0100016D01*
X0077121Y0100007D01*
X0077060Y0100002D01*
X0077000Y0100000D01*
X0091000Y0101000D02*
X0091003Y0101245D01*
X0091012Y0101491D01*
X0091027Y0101736D01*
X0091048Y0101980D01*
X0091075Y0102224D01*
X0091108Y0102467D01*
X0091147Y0102710D01*
X0091192Y0102951D01*
X0091243Y0103191D01*
X0091300Y0103430D01*
X0091362Y0103667D01*
X0091431Y0103903D01*
X0091505Y0104137D01*
X0091585Y0104369D01*
X0091670Y0104599D01*
X0091761Y0104827D01*
X0091858Y0105052D01*
X0091960Y0105276D01*
X0092068Y0105496D01*
X0092181Y0105714D01*
X0092299Y0105929D01*
X0092423Y0106141D01*
X0092551Y0106350D01*
X0092685Y0106556D01*
X0092824Y0106758D01*
X0092968Y0106957D01*
X0093117Y0107152D01*
X0093270Y0107344D01*
X0093428Y0107532D01*
X0093590Y0107716D01*
X0093758Y0107895D01*
X0093929Y0108071D01*
X0094105Y0108242D01*
X0094284Y0108410D01*
X0094468Y0108572D01*
X0094656Y0108730D01*
X0094848Y0108883D01*
X0095043Y0109032D01*
X0095242Y0109176D01*
X0095444Y0109315D01*
X0095650Y0109449D01*
X0095859Y0109577D01*
X0096071Y0109701D01*
X0096286Y0109819D01*
X0096504Y0109932D01*
X0096724Y0110040D01*
X0096948Y0110142D01*
X0097173Y0110239D01*
X0097401Y0110330D01*
X0097631Y0110415D01*
X0097863Y0110495D01*
X0098097Y0110569D01*
X0098333Y0110638D01*
X0098570Y0110700D01*
X0098809Y0110757D01*
X0099049Y0110808D01*
X0099290Y0110853D01*
X0099533Y0110892D01*
X0099776Y0110925D01*
X0100020Y0110952D01*
X0100264Y0110973D01*
X0100509Y0110988D01*
X0100755Y0110997D01*
X0101000Y0111000D01*
X0101245Y0110997D01*
X0101491Y0110988D01*
X0101736Y0110973D01*
X0101980Y0110952D01*
X0102224Y0110925D01*
X0102467Y0110892D01*
X0102710Y0110853D01*
X0102951Y0110808D01*
X0103191Y0110757D01*
X0103430Y0110700D01*
X0103667Y0110638D01*
X0103903Y0110569D01*
X0104137Y0110495D01*
X0104369Y0110415D01*
X0104599Y0110330D01*
X0104827Y0110239D01*
X0105052Y0110142D01*
X0105276Y0110040D01*
X0105496Y0109932D01*
X0105714Y0109819D01*
X0105929Y0109701D01*
X0106141Y0109577D01*
X0106350Y0109449D01*
X0106556Y0109315D01*
X0106758Y0109176D01*
X0106957Y0109032D01*
X0107152Y0108883D01*
X0107344Y0108730D01*
X0107532Y0108572D01*
X0107716Y0108410D01*
X0107895Y0108242D01*
X0108071Y0108071D01*
X0108242Y0107895D01*
X0108410Y0107716D01*
X0108572Y0107532D01*
X0108730Y0107344D01*
X0108883Y0107152D01*
X0109032Y0106957D01*
X0109176Y0106758D01*
X0109315Y0106556D01*
X0109449Y0106350D01*
X0109577Y0106141D01*
X0109701Y0105929D01*
X0109819Y0105714D01*
X0109932Y0105496D01*
X0110040Y0105276D01*
X0110142Y0105052D01*
X0110239Y0104827D01*
X0110330Y0104599D01*
X0110415Y0104369D01*
X0110495Y0104137D01*
X0110569Y0103903D01*
X0110638Y0103667D01*
X0110700Y0103430D01*
X0110757Y0103191D01*
X0110808Y0102951D01*
X0110853Y0102710D01*
X0110892Y0102467D01*
X0110925Y0102224D01*
X0110952Y0101980D01*
X0110973Y0101736D01*
X0110988Y0101491D01*
X0110997Y0101245D01*
X0111000Y0101000D01*
X0110997Y0100755D01*
X0110988Y0100509D01*
X0110973Y0100264D01*
X0110952Y0100020D01*
X0110925Y0099776D01*
X0110892Y0099533D01*
X0110853Y0099290D01*
X0110808Y0099049D01*
X0110757Y0098809D01*
X0110700Y0098570D01*
X0110638Y0098333D01*
X0110569Y0098097D01*
X0110495Y0097863D01*
X0110415Y0097631D01*
X0110330Y0097401D01*
X0110239Y0097173D01*
X0110142Y0096948D01*
X0110040Y0096724D01*
X0109932Y0096504D01*
X0109819Y0096286D01*
X0109701Y0096071D01*
X0109577Y0095859D01*
X0109449Y0095650D01*
X0109315Y0095444D01*
X0109176Y0095242D01*
X0109032Y0095043D01*
X0108883Y0094848D01*
X0108730Y0094656D01*
X0108572Y0094468D01*
X0108410Y0094284D01*
X0108242Y0094105D01*
X0108071Y0093929D01*
X0107895Y0093758D01*
X0107716Y0093590D01*
X0107532Y0093428D01*
X0107344Y0093270D01*
X0107152Y0093117D01*
X0106957Y0092968D01*
X0106758Y0092824D01*
X0106556Y0092685D01*
X0106350Y0092551D01*
X0106141Y0092423D01*
X0105929Y0092299D01*
X0105714Y0092181D01*
X0105496Y0092068D01*
X0105276Y0091960D01*
X0105052Y0091858D01*
X0104827Y0091761D01*
X0104599Y0091670D01*
X0104369Y0091585D01*
X0104137Y0091505D01*
X0103903Y0091431D01*
X0103667Y0091362D01*
X0103430Y0091300D01*
X0103191Y0091243D01*
X0102951Y0091192D01*
X0102710Y0091147D01*
X0102467Y0091108D01*
X0102224Y0091075D01*
X0101980Y0091048D01*
X0101736Y0091027D01*
X0101491Y0091012D01*
X0101245Y0091003D01*
X0101000Y0091000D01*
X0100755Y0091003D01*
X0100509Y0091012D01*
X0100264Y0091027D01*
X0100020Y0091048D01*
X0099776Y0091075D01*
X0099533Y0091108D01*
X0099290Y0091147D01*
X0099049Y0091192D01*
X0098809Y0091243D01*
X0098570Y0091300D01*
X0098333Y0091362D01*
X0098097Y0091431D01*
X0097863Y0091505D01*
X0097631Y0091585D01*
X0097401Y0091670D01*
X0097173Y0091761D01*
X0096948Y0091858D01*
X0096724Y0091960D01*
X0096504Y0092068D01*
X0096286Y0092181D01*
X0096071Y0092299D01*
X0095859Y0092423D01*
X0095650Y0092551D01*
X0095444Y0092685D01*
X0095242Y0092824D01*
X0095043Y0092968D01*
X0094848Y0093117D01*
X0094656Y0093270D01*
X0094468Y0093428D01*
X0094284Y0093590D01*
X0094105Y0093758D01*
X0093929Y0093929D01*
X0093758Y0094105D01*
X0093590Y0094284D01*
X0093428Y0094468D01*
X0093270Y0094656D01*
X0093117Y0094848D01*
X0092968Y0095043D01*
X0092824Y0095242D01*
X0092685Y0095444D01*
X0092551Y0095650D01*
X0092423Y0095859D01*
X0092299Y0096071D01*
X0092181Y0096286D01*
X0092068Y0096504D01*
X0091960Y0096724D01*
X0091858Y0096948D01*
X0091761Y0097173D01*
X0091670Y0097401D01*
X0091585Y0097631D01*
X0091505Y0097863D01*
X0091431Y0098097D01*
X0091362Y0098333D01*
X0091300Y0098570D01*
X0091243Y0098809D01*
X0091192Y0099049D01*
X0091147Y0099290D01*
X0091108Y0099533D01*
X0091075Y0099776D01*
X0091048Y0100020D01*
X0091027Y0100264D01*
X0091012Y0100509D01*
X0091003Y0100755D01*
X0091000Y0101000D01*
X0107000Y0105000D02*
X0109000Y0105000D01*
X0108000Y0106000D02*
X0108000Y0104000D01*
X0126500Y0114500D02*
X0126500Y0127500D01*
X0126502Y0127587D01*
X0126508Y0127674D01*
X0126517Y0127761D01*
X0126530Y0127847D01*
X0126547Y0127933D01*
X0126568Y0128018D01*
X0126593Y0128101D01*
X0126621Y0128184D01*
X0126652Y0128265D01*
X0126687Y0128345D01*
X0126726Y0128423D01*
X0126768Y0128500D01*
X0126813Y0128575D01*
X0126862Y0128647D01*
X0126913Y0128718D01*
X0126968Y0128786D01*
X0127025Y0128851D01*
X0127086Y0128914D01*
X0127149Y0128975D01*
X0127214Y0129032D01*
X0127282Y0129087D01*
X0127353Y0129138D01*
X0127425Y0129187D01*
X0127500Y0129232D01*
X0127577Y0129274D01*
X0127655Y0129313D01*
X0127735Y0129348D01*
X0127816Y0129379D01*
X0127899Y0129407D01*
X0127982Y0129432D01*
X0128067Y0129453D01*
X0128153Y0129470D01*
X0128239Y0129483D01*
X0128326Y0129492D01*
X0128413Y0129498D01*
X0128500Y0129500D01*
X0133500Y0129500D01*
X0133587Y0129498D01*
X0133674Y0129492D01*
X0133761Y0129483D01*
X0133847Y0129470D01*
X0133933Y0129453D01*
X0134018Y0129432D01*
X0134101Y0129407D01*
X0134184Y0129379D01*
X0134265Y0129348D01*
X0134345Y0129313D01*
X0134423Y0129274D01*
X0134500Y0129232D01*
X0134575Y0129187D01*
X0134647Y0129138D01*
X0134718Y0129087D01*
X0134786Y0129032D01*
X0134851Y0128975D01*
X0134914Y0128914D01*
X0134975Y0128851D01*
X0135032Y0128786D01*
X0135087Y0128718D01*
X0135138Y0128647D01*
X0135187Y0128575D01*
X0135232Y0128500D01*
X0135274Y0128423D01*
X0135313Y0128345D01*
X0135348Y0128265D01*
X0135379Y0128184D01*
X0135407Y0128101D01*
X0135432Y0128018D01*
X0135453Y0127933D01*
X0135470Y0127847D01*
X0135483Y0127761D01*
X0135492Y0127674D01*
X0135498Y0127587D01*
X0135500Y0127500D01*
X0135500Y0114500D01*
X0135498Y0114413D01*
X0135492Y0114326D01*
X0135483Y0114239D01*
X0135470Y0114153D01*
X0135453Y0114067D01*
X0135432Y0113982D01*
X0135407Y0113899D01*
X0135379Y0113816D01*
X0135348Y0113735D01*
X0135313Y0113655D01*
X0135274Y0113577D01*
X0135232Y0113500D01*
X0135187Y0113425D01*
X0135138Y0113353D01*
X0135087Y0113282D01*
X0135032Y0113214D01*
X0134975Y0113149D01*
X0134914Y0113086D01*
X0134851Y0113025D01*
X0134786Y0112968D01*
X0134718Y0112913D01*
X0134647Y0112862D01*
X0134575Y0112813D01*
X0134500Y0112768D01*
X0134423Y0112726D01*
X0134345Y0112687D01*
X0134265Y0112652D01*
X0134184Y0112621D01*
X0134101Y0112593D01*
X0134018Y0112568D01*
X0133933Y0112547D01*
X0133847Y0112530D01*
X0133761Y0112517D01*
X0133674Y0112508D01*
X0133587Y0112502D01*
X0133500Y0112500D01*
X0128500Y0112500D01*
X0128413Y0112502D01*
X0128326Y0112508D01*
X0128239Y0112517D01*
X0128153Y0112530D01*
X0128067Y0112547D01*
X0127982Y0112568D01*
X0127899Y0112593D01*
X0127816Y0112621D01*
X0127735Y0112652D01*
X0127655Y0112687D01*
X0127577Y0112726D01*
X0127500Y0112768D01*
X0127425Y0112813D01*
X0127353Y0112862D01*
X0127282Y0112913D01*
X0127214Y0112968D01*
X0127149Y0113025D01*
X0127086Y0113086D01*
X0127025Y0113149D01*
X0126968Y0113214D01*
X0126913Y0113282D01*
X0126862Y0113353D01*
X0126813Y0113425D01*
X0126768Y0113500D01*
X0126726Y0113577D01*
X0126687Y0113655D01*
X0126652Y0113735D01*
X0126621Y0113816D01*
X0126593Y0113899D01*
X0126568Y0113982D01*
X0126547Y0114067D01*
X0126530Y0114153D01*
X0126517Y0114239D01*
X0126508Y0114326D01*
X0126502Y0114413D01*
X0126500Y0114500D01*
X0117000Y0120000D02*
X0114500Y0120000D01*
X0114000Y0120500D01*
X0088000Y0120500D01*
X0087500Y0120000D01*
X0085000Y0120000D01*
X0084940Y0120002D01*
X0084879Y0120007D01*
X0084820Y0120016D01*
X0084761Y0120029D01*
X0084702Y0120045D01*
X0084645Y0120065D01*
X0084590Y0120088D01*
X0084535Y0120115D01*
X0084483Y0120144D01*
X0084432Y0120177D01*
X0084383Y0120213D01*
X0084337Y0120251D01*
X0084293Y0120293D01*
X0084251Y0120337D01*
X0084213Y0120383D01*
X0084177Y0120432D01*
X0084144Y0120483D01*
X0084115Y0120535D01*
X0084088Y0120590D01*
X0084065Y0120645D01*
X0084045Y0120702D01*
X0084029Y0120761D01*
X0084016Y0120820D01*
X0084007Y0120879D01*
X0084002Y0120940D01*
X0084000Y0121000D01*
X0085000Y0130000D02*
X0087500Y0130000D01*
X0088000Y0130500D01*
X0114000Y0130500D01*
X0114500Y0130000D01*
X0117000Y0130000D01*
X0117060Y0130002D01*
X0117121Y0130007D01*
X0117180Y0130016D01*
X0117239Y0130029D01*
X0117298Y0130045D01*
X0117355Y0130065D01*
X0117410Y0130088D01*
X0117465Y0130115D01*
X0117517Y0130144D01*
X0117568Y0130177D01*
X0117617Y0130213D01*
X0117663Y0130251D01*
X0117707Y0130293D01*
X0117749Y0130337D01*
X0117787Y0130383D01*
X0117823Y0130432D01*
X0117856Y0130483D01*
X0117885Y0130535D01*
X0117912Y0130590D01*
X0117935Y0130645D01*
X0117955Y0130702D01*
X0117971Y0130761D01*
X0117984Y0130820D01*
X0117993Y0130879D01*
X0117998Y0130940D01*
X0118000Y0131000D01*
X0117998Y0131060D01*
X0117993Y0131121D01*
X0117984Y0131180D01*
X0117971Y0131239D01*
X0117955Y0131298D01*
X0117935Y0131355D01*
X0117912Y0131410D01*
X0117885Y0131465D01*
X0117856Y0131517D01*
X0117823Y0131568D01*
X0117787Y0131617D01*
X0117749Y0131663D01*
X0117707Y0131707D01*
X0117663Y0131749D01*
X0117617Y0131787D01*
X0117568Y0131823D01*
X0117517Y0131856D01*
X0117465Y0131885D01*
X0117410Y0131912D01*
X0117355Y0131935D01*
X0117298Y0131955D01*
X0117239Y0131971D01*
X0117180Y0131984D01*
X0117121Y0131993D01*
X0117060Y0131998D01*
X0117000Y0132000D01*
X0114500Y0132000D01*
X0114000Y0131500D01*
X0088000Y0131500D01*
X0087500Y0132000D01*
X0085000Y0132000D01*
X0084000Y0131000D02*
X0084002Y0130940D01*
X0084007Y0130879D01*
X0084016Y0130820D01*
X0084029Y0130761D01*
X0084045Y0130702D01*
X0084065Y0130645D01*
X0084088Y0130590D01*
X0084115Y0130535D01*
X0084144Y0130483D01*
X0084177Y0130432D01*
X0084213Y0130383D01*
X0084251Y0130337D01*
X0084293Y0130293D01*
X0084337Y0130251D01*
X0084383Y0130213D01*
X0084432Y0130177D01*
X0084483Y0130144D01*
X0084535Y0130115D01*
X0084590Y0130088D01*
X0084645Y0130065D01*
X0084702Y0130045D01*
X0084761Y0130029D01*
X0084820Y0130016D01*
X0084879Y0130007D01*
X0084940Y0130002D01*
X0085000Y0130000D01*
X0084000Y0131000D02*
X0084002Y0131060D01*
X0084007Y0131121D01*
X0084016Y0131180D01*
X0084029Y0131239D01*
X0084045Y0131298D01*
X0084065Y0131355D01*
X0084088Y0131410D01*
X0084115Y0131465D01*
X0084144Y0131517D01*
X0084177Y0131568D01*
X0084213Y0131617D01*
X0084251Y0131663D01*
X0084293Y0131707D01*
X0084337Y0131749D01*
X0084383Y0131787D01*
X0084432Y0131823D01*
X0084483Y0131856D01*
X0084535Y0131885D01*
X0084590Y0131912D01*
X0084645Y0131935D01*
X0084702Y0131955D01*
X0084761Y0131971D01*
X0084820Y0131984D01*
X0084879Y0131993D01*
X0084940Y0131998D01*
X0085000Y0132000D01*
X0084000Y0141000D02*
X0084002Y0141060D01*
X0084007Y0141121D01*
X0084016Y0141180D01*
X0084029Y0141239D01*
X0084045Y0141298D01*
X0084065Y0141355D01*
X0084088Y0141410D01*
X0084115Y0141465D01*
X0084144Y0141517D01*
X0084177Y0141568D01*
X0084213Y0141617D01*
X0084251Y0141663D01*
X0084293Y0141707D01*
X0084337Y0141749D01*
X0084383Y0141787D01*
X0084432Y0141823D01*
X0084483Y0141856D01*
X0084535Y0141885D01*
X0084590Y0141912D01*
X0084645Y0141935D01*
X0084702Y0141955D01*
X0084761Y0141971D01*
X0084820Y0141984D01*
X0084879Y0141993D01*
X0084940Y0141998D01*
X0085000Y0142000D01*
X0087500Y0142000D01*
X0088000Y0141500D01*
X0114000Y0141500D01*
X0114500Y0142000D01*
X0117000Y0142000D01*
X0117060Y0141998D01*
X0117121Y0141993D01*
X0117180Y0141984D01*
X0117239Y0141971D01*
X0117298Y0141955D01*
X0117355Y0141935D01*
X0117410Y0141912D01*
X0117465Y0141885D01*
X0117517Y0141856D01*
X0117568Y0141823D01*
X0117617Y0141787D01*
X0117663Y0141749D01*
X0117707Y0141707D01*
X0117749Y0141663D01*
X0117787Y0141617D01*
X0117823Y0141568D01*
X0117856Y0141517D01*
X0117885Y0141465D01*
X0117912Y0141410D01*
X0117935Y0141355D01*
X0117955Y0141298D01*
X0117971Y0141239D01*
X0117984Y0141180D01*
X0117993Y0141121D01*
X0117998Y0141060D01*
X0118000Y0141000D01*
X0126500Y0147500D02*
X0126500Y0134500D01*
X0126502Y0134413D01*
X0126508Y0134326D01*
X0126517Y0134239D01*
X0126530Y0134153D01*
X0126547Y0134067D01*
X0126568Y0133982D01*
X0126593Y0133899D01*
X0126621Y0133816D01*
X0126652Y0133735D01*
X0126687Y0133655D01*
X0126726Y0133577D01*
X0126768Y0133500D01*
X0126813Y0133425D01*
X0126862Y0133353D01*
X0126913Y0133282D01*
X0126968Y0133214D01*
X0127025Y0133149D01*
X0127086Y0133086D01*
X0127149Y0133025D01*
X0127214Y0132968D01*
X0127282Y0132913D01*
X0127353Y0132862D01*
X0127425Y0132813D01*
X0127500Y0132768D01*
X0127577Y0132726D01*
X0127655Y0132687D01*
X0127735Y0132652D01*
X0127816Y0132621D01*
X0127899Y0132593D01*
X0127982Y0132568D01*
X0128067Y0132547D01*
X0128153Y0132530D01*
X0128239Y0132517D01*
X0128326Y0132508D01*
X0128413Y0132502D01*
X0128500Y0132500D01*
X0133500Y0132500D01*
X0133587Y0132502D01*
X0133674Y0132508D01*
X0133761Y0132517D01*
X0133847Y0132530D01*
X0133933Y0132547D01*
X0134018Y0132568D01*
X0134101Y0132593D01*
X0134184Y0132621D01*
X0134265Y0132652D01*
X0134345Y0132687D01*
X0134423Y0132726D01*
X0134500Y0132768D01*
X0134575Y0132813D01*
X0134647Y0132862D01*
X0134718Y0132913D01*
X0134786Y0132968D01*
X0134851Y0133025D01*
X0134914Y0133086D01*
X0134975Y0133149D01*
X0135032Y0133214D01*
X0135087Y0133282D01*
X0135138Y0133353D01*
X0135187Y0133425D01*
X0135232Y0133500D01*
X0135274Y0133577D01*
X0135313Y0133655D01*
X0135348Y0133735D01*
X0135379Y0133816D01*
X0135407Y0133899D01*
X0135432Y0133982D01*
X0135453Y0134067D01*
X0135470Y0134153D01*
X0135483Y0134239D01*
X0135492Y0134326D01*
X0135498Y0134413D01*
X0135500Y0134500D01*
X0135500Y0147500D01*
X0135498Y0147587D01*
X0135492Y0147674D01*
X0135483Y0147761D01*
X0135470Y0147847D01*
X0135453Y0147933D01*
X0135432Y0148018D01*
X0135407Y0148101D01*
X0135379Y0148184D01*
X0135348Y0148265D01*
X0135313Y0148345D01*
X0135274Y0148423D01*
X0135232Y0148500D01*
X0135187Y0148575D01*
X0135138Y0148647D01*
X0135087Y0148718D01*
X0135032Y0148786D01*
X0134975Y0148851D01*
X0134914Y0148914D01*
X0134851Y0148975D01*
X0134786Y0149032D01*
X0134718Y0149087D01*
X0134647Y0149138D01*
X0134575Y0149187D01*
X0134500Y0149232D01*
X0134423Y0149274D01*
X0134345Y0149313D01*
X0134265Y0149348D01*
X0134184Y0149379D01*
X0134101Y0149407D01*
X0134018Y0149432D01*
X0133933Y0149453D01*
X0133847Y0149470D01*
X0133761Y0149483D01*
X0133674Y0149492D01*
X0133587Y0149498D01*
X0133500Y0149500D01*
X0128500Y0149500D01*
X0128413Y0149498D01*
X0128326Y0149492D01*
X0128239Y0149483D01*
X0128153Y0149470D01*
X0128067Y0149453D01*
X0127982Y0149432D01*
X0127899Y0149407D01*
X0127816Y0149379D01*
X0127735Y0149348D01*
X0127655Y0149313D01*
X0127577Y0149274D01*
X0127500Y0149232D01*
X0127425Y0149187D01*
X0127353Y0149138D01*
X0127282Y0149087D01*
X0127214Y0149032D01*
X0127149Y0148975D01*
X0127086Y0148914D01*
X0127025Y0148851D01*
X0126968Y0148786D01*
X0126913Y0148718D01*
X0126862Y0148647D01*
X0126813Y0148575D01*
X0126768Y0148500D01*
X0126726Y0148423D01*
X0126687Y0148345D01*
X0126652Y0148265D01*
X0126621Y0148184D01*
X0126593Y0148101D01*
X0126568Y0148018D01*
X0126547Y0147933D01*
X0126530Y0147847D01*
X0126517Y0147761D01*
X0126508Y0147674D01*
X0126502Y0147587D01*
X0126500Y0147500D01*
X0105000Y0149000D02*
X0105000Y0143000D01*
X0104998Y0142940D01*
X0104993Y0142879D01*
X0104984Y0142820D01*
X0104971Y0142761D01*
X0104955Y0142702D01*
X0104935Y0142645D01*
X0104912Y0142590D01*
X0104885Y0142535D01*
X0104856Y0142483D01*
X0104823Y0142432D01*
X0104787Y0142383D01*
X0104749Y0142337D01*
X0104707Y0142293D01*
X0104663Y0142251D01*
X0104617Y0142213D01*
X0104568Y0142177D01*
X0104517Y0142144D01*
X0104465Y0142115D01*
X0104410Y0142088D01*
X0104355Y0142065D01*
X0104298Y0142045D01*
X0104239Y0142029D01*
X0104180Y0142016D01*
X0104121Y0142007D01*
X0104060Y0142002D01*
X0104000Y0142000D01*
X0088000Y0142000D01*
X0087940Y0142002D01*
X0087879Y0142007D01*
X0087820Y0142016D01*
X0087761Y0142029D01*
X0087702Y0142045D01*
X0087645Y0142065D01*
X0087590Y0142088D01*
X0087535Y0142115D01*
X0087483Y0142144D01*
X0087432Y0142177D01*
X0087383Y0142213D01*
X0087337Y0142251D01*
X0087293Y0142293D01*
X0087251Y0142337D01*
X0087213Y0142383D01*
X0087177Y0142432D01*
X0087144Y0142483D01*
X0087115Y0142535D01*
X0087088Y0142590D01*
X0087065Y0142645D01*
X0087045Y0142702D01*
X0087029Y0142761D01*
X0087016Y0142820D01*
X0087007Y0142879D01*
X0087002Y0142940D01*
X0087000Y0143000D01*
X0087000Y0149000D01*
X0087002Y0149060D01*
X0087007Y0149121D01*
X0087016Y0149180D01*
X0087029Y0149239D01*
X0087045Y0149298D01*
X0087065Y0149355D01*
X0087088Y0149410D01*
X0087115Y0149465D01*
X0087144Y0149517D01*
X0087177Y0149568D01*
X0087213Y0149617D01*
X0087251Y0149663D01*
X0087293Y0149707D01*
X0087337Y0149749D01*
X0087383Y0149787D01*
X0087432Y0149823D01*
X0087483Y0149856D01*
X0087535Y0149885D01*
X0087590Y0149912D01*
X0087645Y0149935D01*
X0087702Y0149955D01*
X0087761Y0149971D01*
X0087820Y0149984D01*
X0087879Y0149993D01*
X0087940Y0149998D01*
X0088000Y0150000D01*
X0104000Y0150000D01*
X0104060Y0149998D01*
X0104121Y0149993D01*
X0104180Y0149984D01*
X0104239Y0149971D01*
X0104298Y0149955D01*
X0104355Y0149935D01*
X0104410Y0149912D01*
X0104465Y0149885D01*
X0104517Y0149856D01*
X0104568Y0149823D01*
X0104617Y0149787D01*
X0104663Y0149749D01*
X0104707Y0149707D01*
X0104749Y0149663D01*
X0104787Y0149617D01*
X0104823Y0149568D01*
X0104856Y0149517D01*
X0104885Y0149465D01*
X0104912Y0149410D01*
X0104935Y0149355D01*
X0104955Y0149298D01*
X0104971Y0149239D01*
X0104984Y0149180D01*
X0104993Y0149121D01*
X0104998Y0149060D01*
X0105000Y0149000D01*
X0098500Y0146000D02*
X0096000Y0146000D01*
X0096000Y0148500D01*
X0096000Y0146000D02*
X0092000Y0148500D01*
X0092000Y0143500D01*
X0096000Y0146000D01*
X0096000Y0143500D01*
X0096000Y0146000D02*
X0090000Y0146000D01*
X0117000Y0120000D02*
X0117060Y0120002D01*
X0117121Y0120007D01*
X0117180Y0120016D01*
X0117239Y0120029D01*
X0117298Y0120045D01*
X0117355Y0120065D01*
X0117410Y0120088D01*
X0117465Y0120115D01*
X0117517Y0120144D01*
X0117568Y0120177D01*
X0117617Y0120213D01*
X0117663Y0120251D01*
X0117707Y0120293D01*
X0117749Y0120337D01*
X0117787Y0120383D01*
X0117823Y0120432D01*
X0117856Y0120483D01*
X0117885Y0120535D01*
X0117912Y0120590D01*
X0117935Y0120645D01*
X0117955Y0120702D01*
X0117971Y0120761D01*
X0117984Y0120820D01*
X0117993Y0120879D01*
X0117998Y0120940D01*
X0118000Y0121000D01*
X0187500Y0143500D02*
X0187500Y0148500D01*
X0187502Y0148587D01*
X0187508Y0148674D01*
X0187517Y0148761D01*
X0187530Y0148847D01*
X0187547Y0148933D01*
X0187568Y0149018D01*
X0187593Y0149101D01*
X0187621Y0149184D01*
X0187652Y0149265D01*
X0187687Y0149345D01*
X0187726Y0149423D01*
X0187768Y0149500D01*
X0187813Y0149575D01*
X0187862Y0149647D01*
X0187913Y0149718D01*
X0187968Y0149786D01*
X0188025Y0149851D01*
X0188086Y0149914D01*
X0188149Y0149975D01*
X0188214Y0150032D01*
X0188282Y0150087D01*
X0188353Y0150138D01*
X0188425Y0150187D01*
X0188500Y0150232D01*
X0188577Y0150274D01*
X0188655Y0150313D01*
X0188735Y0150348D01*
X0188816Y0150379D01*
X0188899Y0150407D01*
X0188982Y0150432D01*
X0189067Y0150453D01*
X0189153Y0150470D01*
X0189239Y0150483D01*
X0189326Y0150492D01*
X0189413Y0150498D01*
X0189500Y0150500D01*
X0202500Y0150500D01*
X0202587Y0150498D01*
X0202674Y0150492D01*
X0202761Y0150483D01*
X0202847Y0150470D01*
X0202933Y0150453D01*
X0203018Y0150432D01*
X0203101Y0150407D01*
X0203184Y0150379D01*
X0203265Y0150348D01*
X0203345Y0150313D01*
X0203423Y0150274D01*
X0203500Y0150232D01*
X0203575Y0150187D01*
X0203647Y0150138D01*
X0203718Y0150087D01*
X0203786Y0150032D01*
X0203851Y0149975D01*
X0203914Y0149914D01*
X0203975Y0149851D01*
X0204032Y0149786D01*
X0204087Y0149718D01*
X0204138Y0149647D01*
X0204187Y0149575D01*
X0204232Y0149500D01*
X0204274Y0149423D01*
X0204313Y0149345D01*
X0204348Y0149265D01*
X0204379Y0149184D01*
X0204407Y0149101D01*
X0204432Y0149018D01*
X0204453Y0148933D01*
X0204470Y0148847D01*
X0204483Y0148761D01*
X0204492Y0148674D01*
X0204498Y0148587D01*
X0204500Y0148500D01*
X0204500Y0143500D01*
X0204498Y0143413D01*
X0204492Y0143326D01*
X0204483Y0143239D01*
X0204470Y0143153D01*
X0204453Y0143067D01*
X0204432Y0142982D01*
X0204407Y0142899D01*
X0204379Y0142816D01*
X0204348Y0142735D01*
X0204313Y0142655D01*
X0204274Y0142577D01*
X0204232Y0142500D01*
X0204187Y0142425D01*
X0204138Y0142353D01*
X0204087Y0142282D01*
X0204032Y0142214D01*
X0203975Y0142149D01*
X0203914Y0142086D01*
X0203851Y0142025D01*
X0203786Y0141968D01*
X0203718Y0141913D01*
X0203647Y0141862D01*
X0203575Y0141813D01*
X0203500Y0141768D01*
X0203423Y0141726D01*
X0203345Y0141687D01*
X0203265Y0141652D01*
X0203184Y0141621D01*
X0203101Y0141593D01*
X0203018Y0141568D01*
X0202933Y0141547D01*
X0202847Y0141530D01*
X0202761Y0141517D01*
X0202674Y0141508D01*
X0202587Y0141502D01*
X0202500Y0141500D01*
X0189500Y0141500D01*
X0189413Y0141502D01*
X0189326Y0141508D01*
X0189239Y0141517D01*
X0189153Y0141530D01*
X0189067Y0141547D01*
X0188982Y0141568D01*
X0188899Y0141593D01*
X0188816Y0141621D01*
X0188735Y0141652D01*
X0188655Y0141687D01*
X0188577Y0141726D01*
X0188500Y0141768D01*
X0188425Y0141813D01*
X0188353Y0141862D01*
X0188282Y0141913D01*
X0188214Y0141968D01*
X0188149Y0142025D01*
X0188086Y0142086D01*
X0188025Y0142149D01*
X0187968Y0142214D01*
X0187913Y0142282D01*
X0187862Y0142353D01*
X0187813Y0142425D01*
X0187768Y0142500D01*
X0187726Y0142577D01*
X0187687Y0142655D01*
X0187652Y0142735D01*
X0187621Y0142816D01*
X0187593Y0142899D01*
X0187568Y0142982D01*
X0187547Y0143067D01*
X0187530Y0143153D01*
X0187517Y0143239D01*
X0187508Y0143326D01*
X0187502Y0143413D01*
X0187500Y0143500D01*
X0195000Y0142000D02*
X0197500Y0142000D01*
X0198000Y0141500D01*
X0224000Y0141500D01*
X0224500Y0142000D01*
X0227000Y0142000D01*
X0227060Y0141998D01*
X0227121Y0141993D01*
X0227180Y0141984D01*
X0227239Y0141971D01*
X0227298Y0141955D01*
X0227355Y0141935D01*
X0227410Y0141912D01*
X0227465Y0141885D01*
X0227517Y0141856D01*
X0227568Y0141823D01*
X0227617Y0141787D01*
X0227663Y0141749D01*
X0227707Y0141707D01*
X0227749Y0141663D01*
X0227787Y0141617D01*
X0227823Y0141568D01*
X0227856Y0141517D01*
X0227885Y0141465D01*
X0227912Y0141410D01*
X0227935Y0141355D01*
X0227955Y0141298D01*
X0227971Y0141239D01*
X0227984Y0141180D01*
X0227993Y0141121D01*
X0227998Y0141060D01*
X0228000Y0141000D01*
X0229500Y0141500D02*
X0242500Y0141500D01*
X0242587Y0141502D01*
X0242674Y0141508D01*
X0242761Y0141517D01*
X0242847Y0141530D01*
X0242933Y0141547D01*
X0243018Y0141568D01*
X0243101Y0141593D01*
X0243184Y0141621D01*
X0243265Y0141652D01*
X0243345Y0141687D01*
X0243423Y0141726D01*
X0243500Y0141768D01*
X0243575Y0141813D01*
X0243647Y0141862D01*
X0243718Y0141913D01*
X0243786Y0141968D01*
X0243851Y0142025D01*
X0243914Y0142086D01*
X0243975Y0142149D01*
X0244032Y0142214D01*
X0244087Y0142282D01*
X0244138Y0142353D01*
X0244187Y0142425D01*
X0244232Y0142500D01*
X0244274Y0142577D01*
X0244313Y0142655D01*
X0244348Y0142735D01*
X0244379Y0142816D01*
X0244407Y0142899D01*
X0244432Y0142982D01*
X0244453Y0143067D01*
X0244470Y0143153D01*
X0244483Y0143239D01*
X0244492Y0143326D01*
X0244498Y0143413D01*
X0244500Y0143500D01*
X0244500Y0148500D01*
X0244498Y0148587D01*
X0244492Y0148674D01*
X0244483Y0148761D01*
X0244470Y0148847D01*
X0244453Y0148933D01*
X0244432Y0149018D01*
X0244407Y0149101D01*
X0244379Y0149184D01*
X0244348Y0149265D01*
X0244313Y0149345D01*
X0244274Y0149423D01*
X0244232Y0149500D01*
X0244187Y0149575D01*
X0244138Y0149647D01*
X0244087Y0149718D01*
X0244032Y0149786D01*
X0243975Y0149851D01*
X0243914Y0149914D01*
X0243851Y0149975D01*
X0243786Y0150032D01*
X0243718Y0150087D01*
X0243647Y0150138D01*
X0243575Y0150187D01*
X0243500Y0150232D01*
X0243423Y0150274D01*
X0243345Y0150313D01*
X0243265Y0150348D01*
X0243184Y0150379D01*
X0243101Y0150407D01*
X0243018Y0150432D01*
X0242933Y0150453D01*
X0242847Y0150470D01*
X0242761Y0150483D01*
X0242674Y0150492D01*
X0242587Y0150498D01*
X0242500Y0150500D01*
X0229500Y0150500D01*
X0229413Y0150498D01*
X0229326Y0150492D01*
X0229239Y0150483D01*
X0229153Y0150470D01*
X0229067Y0150453D01*
X0228982Y0150432D01*
X0228899Y0150407D01*
X0228816Y0150379D01*
X0228735Y0150348D01*
X0228655Y0150313D01*
X0228577Y0150274D01*
X0228500Y0150232D01*
X0228425Y0150187D01*
X0228353Y0150138D01*
X0228282Y0150087D01*
X0228214Y0150032D01*
X0228149Y0149975D01*
X0228086Y0149914D01*
X0228025Y0149851D01*
X0227968Y0149786D01*
X0227913Y0149718D01*
X0227862Y0149647D01*
X0227813Y0149575D01*
X0227768Y0149500D01*
X0227726Y0149423D01*
X0227687Y0149345D01*
X0227652Y0149265D01*
X0227621Y0149184D01*
X0227593Y0149101D01*
X0227568Y0149018D01*
X0227547Y0148933D01*
X0227530Y0148847D01*
X0227517Y0148761D01*
X0227508Y0148674D01*
X0227502Y0148587D01*
X0227500Y0148500D01*
X0227500Y0143500D01*
X0227502Y0143413D01*
X0227508Y0143326D01*
X0227517Y0143239D01*
X0227530Y0143153D01*
X0227547Y0143067D01*
X0227568Y0142982D01*
X0227593Y0142899D01*
X0227621Y0142816D01*
X0227652Y0142735D01*
X0227687Y0142655D01*
X0227726Y0142577D01*
X0227768Y0142500D01*
X0227813Y0142425D01*
X0227862Y0142353D01*
X0227913Y0142282D01*
X0227968Y0142214D01*
X0228025Y0142149D01*
X0228086Y0142086D01*
X0228149Y0142025D01*
X0228214Y0141968D01*
X0228282Y0141913D01*
X0228353Y0141862D01*
X0228425Y0141813D01*
X0228500Y0141768D01*
X0228577Y0141726D01*
X0228655Y0141687D01*
X0228735Y0141652D01*
X0228816Y0141621D01*
X0228899Y0141593D01*
X0228982Y0141568D01*
X0229067Y0141547D01*
X0229153Y0141530D01*
X0229239Y0141517D01*
X0229326Y0141508D01*
X0229413Y0141502D01*
X0229500Y0141500D01*
X0224500Y0143500D02*
X0224500Y0148500D01*
X0224498Y0148587D01*
X0224492Y0148674D01*
X0224483Y0148761D01*
X0224470Y0148847D01*
X0224453Y0148933D01*
X0224432Y0149018D01*
X0224407Y0149101D01*
X0224379Y0149184D01*
X0224348Y0149265D01*
X0224313Y0149345D01*
X0224274Y0149423D01*
X0224232Y0149500D01*
X0224187Y0149575D01*
X0224138Y0149647D01*
X0224087Y0149718D01*
X0224032Y0149786D01*
X0223975Y0149851D01*
X0223914Y0149914D01*
X0223851Y0149975D01*
X0223786Y0150032D01*
X0223718Y0150087D01*
X0223647Y0150138D01*
X0223575Y0150187D01*
X0223500Y0150232D01*
X0223423Y0150274D01*
X0223345Y0150313D01*
X0223265Y0150348D01*
X0223184Y0150379D01*
X0223101Y0150407D01*
X0223018Y0150432D01*
X0222933Y0150453D01*
X0222847Y0150470D01*
X0222761Y0150483D01*
X0222674Y0150492D01*
X0222587Y0150498D01*
X0222500Y0150500D01*
X0209500Y0150500D01*
X0209413Y0150498D01*
X0209326Y0150492D01*
X0209239Y0150483D01*
X0209153Y0150470D01*
X0209067Y0150453D01*
X0208982Y0150432D01*
X0208899Y0150407D01*
X0208816Y0150379D01*
X0208735Y0150348D01*
X0208655Y0150313D01*
X0208577Y0150274D01*
X0208500Y0150232D01*
X0208425Y0150187D01*
X0208353Y0150138D01*
X0208282Y0150087D01*
X0208214Y0150032D01*
X0208149Y0149975D01*
X0208086Y0149914D01*
X0208025Y0149851D01*
X0207968Y0149786D01*
X0207913Y0149718D01*
X0207862Y0149647D01*
X0207813Y0149575D01*
X0207768Y0149500D01*
X0207726Y0149423D01*
X0207687Y0149345D01*
X0207652Y0149265D01*
X0207621Y0149184D01*
X0207593Y0149101D01*
X0207568Y0149018D01*
X0207547Y0148933D01*
X0207530Y0148847D01*
X0207517Y0148761D01*
X0207508Y0148674D01*
X0207502Y0148587D01*
X0207500Y0148500D01*
X0207500Y0143500D01*
X0207502Y0143413D01*
X0207508Y0143326D01*
X0207517Y0143239D01*
X0207530Y0143153D01*
X0207547Y0143067D01*
X0207568Y0142982D01*
X0207593Y0142899D01*
X0207621Y0142816D01*
X0207652Y0142735D01*
X0207687Y0142655D01*
X0207726Y0142577D01*
X0207768Y0142500D01*
X0207813Y0142425D01*
X0207862Y0142353D01*
X0207913Y0142282D01*
X0207968Y0142214D01*
X0208025Y0142149D01*
X0208086Y0142086D01*
X0208149Y0142025D01*
X0208214Y0141968D01*
X0208282Y0141913D01*
X0208353Y0141862D01*
X0208425Y0141813D01*
X0208500Y0141768D01*
X0208577Y0141726D01*
X0208655Y0141687D01*
X0208735Y0141652D01*
X0208816Y0141621D01*
X0208899Y0141593D01*
X0208982Y0141568D01*
X0209067Y0141547D01*
X0209153Y0141530D01*
X0209239Y0141517D01*
X0209326Y0141508D01*
X0209413Y0141502D01*
X0209500Y0141500D01*
X0222500Y0141500D01*
X0222587Y0141502D01*
X0222674Y0141508D01*
X0222761Y0141517D01*
X0222847Y0141530D01*
X0222933Y0141547D01*
X0223018Y0141568D01*
X0223101Y0141593D01*
X0223184Y0141621D01*
X0223265Y0141652D01*
X0223345Y0141687D01*
X0223423Y0141726D01*
X0223500Y0141768D01*
X0223575Y0141813D01*
X0223647Y0141862D01*
X0223718Y0141913D01*
X0223786Y0141968D01*
X0223851Y0142025D01*
X0223914Y0142086D01*
X0223975Y0142149D01*
X0224032Y0142214D01*
X0224087Y0142282D01*
X0224138Y0142353D01*
X0224187Y0142425D01*
X0224232Y0142500D01*
X0224274Y0142577D01*
X0224313Y0142655D01*
X0224348Y0142735D01*
X0224379Y0142816D01*
X0224407Y0142899D01*
X0224432Y0142982D01*
X0224453Y0143067D01*
X0224470Y0143153D01*
X0224483Y0143239D01*
X0224492Y0143326D01*
X0224498Y0143413D01*
X0224500Y0143500D01*
X0228000Y0131000D02*
X0227998Y0130940D01*
X0227993Y0130879D01*
X0227984Y0130820D01*
X0227971Y0130761D01*
X0227955Y0130702D01*
X0227935Y0130645D01*
X0227912Y0130590D01*
X0227885Y0130535D01*
X0227856Y0130483D01*
X0227823Y0130432D01*
X0227787Y0130383D01*
X0227749Y0130337D01*
X0227707Y0130293D01*
X0227663Y0130251D01*
X0227617Y0130213D01*
X0227568Y0130177D01*
X0227517Y0130144D01*
X0227465Y0130115D01*
X0227410Y0130088D01*
X0227355Y0130065D01*
X0227298Y0130045D01*
X0227239Y0130029D01*
X0227180Y0130016D01*
X0227121Y0130007D01*
X0227060Y0130002D01*
X0227000Y0130000D01*
X0224500Y0130000D01*
X0224000Y0130500D01*
X0198000Y0130500D01*
X0197500Y0130000D01*
X0195000Y0130000D01*
X0194940Y0130002D01*
X0194879Y0130007D01*
X0194820Y0130016D01*
X0194761Y0130029D01*
X0194702Y0130045D01*
X0194645Y0130065D01*
X0194590Y0130088D01*
X0194535Y0130115D01*
X0194483Y0130144D01*
X0194432Y0130177D01*
X0194383Y0130213D01*
X0194337Y0130251D01*
X0194293Y0130293D01*
X0194251Y0130337D01*
X0194213Y0130383D01*
X0194177Y0130432D01*
X0194144Y0130483D01*
X0194115Y0130535D01*
X0194088Y0130590D01*
X0194065Y0130645D01*
X0194045Y0130702D01*
X0194029Y0130761D01*
X0194016Y0130820D01*
X0194007Y0130879D01*
X0194002Y0130940D01*
X0194000Y0131000D01*
X0194000Y0141000D02*
X0194002Y0141060D01*
X0194007Y0141121D01*
X0194016Y0141180D01*
X0194029Y0141239D01*
X0194045Y0141298D01*
X0194065Y0141355D01*
X0194088Y0141410D01*
X0194115Y0141465D01*
X0194144Y0141517D01*
X0194177Y0141568D01*
X0194213Y0141617D01*
X0194251Y0141663D01*
X0194293Y0141707D01*
X0194337Y0141749D01*
X0194383Y0141787D01*
X0194432Y0141823D01*
X0194483Y0141856D01*
X0194535Y0141885D01*
X0194590Y0141912D01*
X0194645Y0141935D01*
X0194702Y0141955D01*
X0194761Y0141971D01*
X0194820Y0141984D01*
X0194879Y0141993D01*
X0194940Y0141998D01*
X0195000Y0142000D01*
X0261000Y0153000D02*
X0263000Y0153000D01*
X0262000Y0152000D02*
X0262000Y0154000D01*
X0256000Y0146000D02*
X0256003Y0146245D01*
X0256012Y0146491D01*
X0256027Y0146736D01*
X0256048Y0146980D01*
X0256075Y0147224D01*
X0256108Y0147467D01*
X0256147Y0147710D01*
X0256192Y0147951D01*
X0256243Y0148191D01*
X0256300Y0148430D01*
X0256362Y0148667D01*
X0256431Y0148903D01*
X0256505Y0149137D01*
X0256585Y0149369D01*
X0256670Y0149599D01*
X0256761Y0149827D01*
X0256858Y0150052D01*
X0256960Y0150276D01*
X0257068Y0150496D01*
X0257181Y0150714D01*
X0257299Y0150929D01*
X0257423Y0151141D01*
X0257551Y0151350D01*
X0257685Y0151556D01*
X0257824Y0151758D01*
X0257968Y0151957D01*
X0258117Y0152152D01*
X0258270Y0152344D01*
X0258428Y0152532D01*
X0258590Y0152716D01*
X0258758Y0152895D01*
X0258929Y0153071D01*
X0259105Y0153242D01*
X0259284Y0153410D01*
X0259468Y0153572D01*
X0259656Y0153730D01*
X0259848Y0153883D01*
X0260043Y0154032D01*
X0260242Y0154176D01*
X0260444Y0154315D01*
X0260650Y0154449D01*
X0260859Y0154577D01*
X0261071Y0154701D01*
X0261286Y0154819D01*
X0261504Y0154932D01*
X0261724Y0155040D01*
X0261948Y0155142D01*
X0262173Y0155239D01*
X0262401Y0155330D01*
X0262631Y0155415D01*
X0262863Y0155495D01*
X0263097Y0155569D01*
X0263333Y0155638D01*
X0263570Y0155700D01*
X0263809Y0155757D01*
X0264049Y0155808D01*
X0264290Y0155853D01*
X0264533Y0155892D01*
X0264776Y0155925D01*
X0265020Y0155952D01*
X0265264Y0155973D01*
X0265509Y0155988D01*
X0265755Y0155997D01*
X0266000Y0156000D01*
X0266245Y0155997D01*
X0266491Y0155988D01*
X0266736Y0155973D01*
X0266980Y0155952D01*
X0267224Y0155925D01*
X0267467Y0155892D01*
X0267710Y0155853D01*
X0267951Y0155808D01*
X0268191Y0155757D01*
X0268430Y0155700D01*
X0268667Y0155638D01*
X0268903Y0155569D01*
X0269137Y0155495D01*
X0269369Y0155415D01*
X0269599Y0155330D01*
X0269827Y0155239D01*
X0270052Y0155142D01*
X0270276Y0155040D01*
X0270496Y0154932D01*
X0270714Y0154819D01*
X0270929Y0154701D01*
X0271141Y0154577D01*
X0271350Y0154449D01*
X0271556Y0154315D01*
X0271758Y0154176D01*
X0271957Y0154032D01*
X0272152Y0153883D01*
X0272344Y0153730D01*
X0272532Y0153572D01*
X0272716Y0153410D01*
X0272895Y0153242D01*
X0273071Y0153071D01*
X0273242Y0152895D01*
X0273410Y0152716D01*
X0273572Y0152532D01*
X0273730Y0152344D01*
X0273883Y0152152D01*
X0274032Y0151957D01*
X0274176Y0151758D01*
X0274315Y0151556D01*
X0274449Y0151350D01*
X0274577Y0151141D01*
X0274701Y0150929D01*
X0274819Y0150714D01*
X0274932Y0150496D01*
X0275040Y0150276D01*
X0275142Y0150052D01*
X0275239Y0149827D01*
X0275330Y0149599D01*
X0275415Y0149369D01*
X0275495Y0149137D01*
X0275569Y0148903D01*
X0275638Y0148667D01*
X0275700Y0148430D01*
X0275757Y0148191D01*
X0275808Y0147951D01*
X0275853Y0147710D01*
X0275892Y0147467D01*
X0275925Y0147224D01*
X0275952Y0146980D01*
X0275973Y0146736D01*
X0275988Y0146491D01*
X0275997Y0146245D01*
X0276000Y0146000D01*
X0275997Y0145755D01*
X0275988Y0145509D01*
X0275973Y0145264D01*
X0275952Y0145020D01*
X0275925Y0144776D01*
X0275892Y0144533D01*
X0275853Y0144290D01*
X0275808Y0144049D01*
X0275757Y0143809D01*
X0275700Y0143570D01*
X0275638Y0143333D01*
X0275569Y0143097D01*
X0275495Y0142863D01*
X0275415Y0142631D01*
X0275330Y0142401D01*
X0275239Y0142173D01*
X0275142Y0141948D01*
X0275040Y0141724D01*
X0274932Y0141504D01*
X0274819Y0141286D01*
X0274701Y0141071D01*
X0274577Y0140859D01*
X0274449Y0140650D01*
X0274315Y0140444D01*
X0274176Y0140242D01*
X0274032Y0140043D01*
X0273883Y0139848D01*
X0273730Y0139656D01*
X0273572Y0139468D01*
X0273410Y0139284D01*
X0273242Y0139105D01*
X0273071Y0138929D01*
X0272895Y0138758D01*
X0272716Y0138590D01*
X0272532Y0138428D01*
X0272344Y0138270D01*
X0272152Y0138117D01*
X0271957Y0137968D01*
X0271758Y0137824D01*
X0271556Y0137685D01*
X0271350Y0137551D01*
X0271141Y0137423D01*
X0270929Y0137299D01*
X0270714Y0137181D01*
X0270496Y0137068D01*
X0270276Y0136960D01*
X0270052Y0136858D01*
X0269827Y0136761D01*
X0269599Y0136670D01*
X0269369Y0136585D01*
X0269137Y0136505D01*
X0268903Y0136431D01*
X0268667Y0136362D01*
X0268430Y0136300D01*
X0268191Y0136243D01*
X0267951Y0136192D01*
X0267710Y0136147D01*
X0267467Y0136108D01*
X0267224Y0136075D01*
X0266980Y0136048D01*
X0266736Y0136027D01*
X0266491Y0136012D01*
X0266245Y0136003D01*
X0266000Y0136000D01*
X0265755Y0136003D01*
X0265509Y0136012D01*
X0265264Y0136027D01*
X0265020Y0136048D01*
X0264776Y0136075D01*
X0264533Y0136108D01*
X0264290Y0136147D01*
X0264049Y0136192D01*
X0263809Y0136243D01*
X0263570Y0136300D01*
X0263333Y0136362D01*
X0263097Y0136431D01*
X0262863Y0136505D01*
X0262631Y0136585D01*
X0262401Y0136670D01*
X0262173Y0136761D01*
X0261948Y0136858D01*
X0261724Y0136960D01*
X0261504Y0137068D01*
X0261286Y0137181D01*
X0261071Y0137299D01*
X0260859Y0137423D01*
X0260650Y0137551D01*
X0260444Y0137685D01*
X0260242Y0137824D01*
X0260043Y0137968D01*
X0259848Y0138117D01*
X0259656Y0138270D01*
X0259468Y0138428D01*
X0259284Y0138590D01*
X0259105Y0138758D01*
X0258929Y0138929D01*
X0258758Y0139105D01*
X0258590Y0139284D01*
X0258428Y0139468D01*
X0258270Y0139656D01*
X0258117Y0139848D01*
X0257968Y0140043D01*
X0257824Y0140242D01*
X0257685Y0140444D01*
X0257551Y0140650D01*
X0257423Y0140859D01*
X0257299Y0141071D01*
X0257181Y0141286D01*
X0257068Y0141504D01*
X0256960Y0141724D01*
X0256858Y0141948D01*
X0256761Y0142173D01*
X0256670Y0142401D01*
X0256585Y0142631D01*
X0256505Y0142863D01*
X0256431Y0143097D01*
X0256362Y0143333D01*
X0256300Y0143570D01*
X0256243Y0143809D01*
X0256192Y0144049D01*
X0256147Y0144290D01*
X0256108Y0144533D01*
X0256075Y0144776D01*
X0256048Y0145020D01*
X0256027Y0145264D01*
X0256012Y0145509D01*
X0256003Y0145755D01*
X0256000Y0146000D01*
X0078000Y0081000D02*
X0077998Y0080940D01*
X0077993Y0080879D01*
X0077984Y0080820D01*
X0077971Y0080761D01*
X0077955Y0080702D01*
X0077935Y0080645D01*
X0077912Y0080590D01*
X0077885Y0080535D01*
X0077856Y0080483D01*
X0077823Y0080432D01*
X0077787Y0080383D01*
X0077749Y0080337D01*
X0077707Y0080293D01*
X0077663Y0080251D01*
X0077617Y0080213D01*
X0077568Y0080177D01*
X0077517Y0080144D01*
X0077465Y0080115D01*
X0077410Y0080088D01*
X0077355Y0080065D01*
X0077298Y0080045D01*
X0077239Y0080029D01*
X0077180Y0080016D01*
X0077121Y0080007D01*
X0077060Y0080002D01*
X0077000Y0080000D01*
D13*
X0118000Y0072300D02*
X0124000Y0072300D01*
X0124000Y0069800D02*
X0118000Y0069800D01*
X0198000Y0042300D02*
X0204000Y0042300D01*
X0204000Y0039800D02*
X0198000Y0039800D01*
X0218000Y0039700D02*
X0224000Y0039700D01*
X0224000Y0042200D02*
X0218000Y0042200D01*
X0134000Y0119800D02*
X0128000Y0119800D01*
X0128000Y0122300D02*
X0134000Y0122300D01*
X0134000Y0139800D02*
X0128000Y0139800D01*
X0128000Y0142300D02*
X0134000Y0142300D01*
X0194700Y0143000D02*
X0194700Y0149000D01*
X0197200Y0149000D02*
X0197200Y0143000D01*
X0214800Y0143000D02*
X0214800Y0149000D01*
X0217300Y0149000D02*
X0217300Y0143000D01*
X0234700Y0143000D02*
X0234700Y0149000D01*
X0237200Y0149000D02*
X0237200Y0143000D01*
X0037300Y0059000D02*
X0037300Y0053000D01*
X0034800Y0053000D02*
X0034800Y0059000D01*
X0034800Y0049000D02*
X0034800Y0043000D01*
X0037300Y0043000D02*
X0037300Y0049000D01*
X0017300Y0029000D02*
X0017300Y0023000D01*
X0014800Y0023000D02*
X0014800Y0029000D01*
X0028000Y0022300D02*
X0034000Y0022300D01*
X0034000Y0019800D02*
X0028000Y0019800D01*
X0017300Y0019000D02*
X0017300Y0013000D01*
X0014800Y0013000D02*
X0014800Y0019000D01*
D14*
X0014208Y0013754D02*
X0013458Y0013003D01*
X0014208Y0013754D02*
X0015710Y0013754D01*
X0016460Y0013003D01*
X0016460Y0012253D01*
X0013458Y0009250D01*
X0016460Y0009250D01*
X0011856Y0009250D02*
X0008854Y0009250D01*
X0011856Y0012253D01*
X0011856Y0013003D01*
X0011106Y0013754D01*
X0009605Y0013754D01*
X0008854Y0013003D01*
X0007253Y0013003D02*
X0006502Y0013754D01*
X0005001Y0013754D01*
X0004250Y0013003D01*
X0004250Y0010001D01*
X0005001Y0009250D01*
X0006502Y0009250D01*
X0007253Y0010001D01*
X0035746Y0015001D02*
X0036497Y0014250D01*
X0039499Y0014250D01*
X0040250Y0015001D01*
X0040250Y0016502D01*
X0039499Y0017253D01*
X0040250Y0018854D02*
X0037247Y0021856D01*
X0036497Y0021856D01*
X0035746Y0021106D01*
X0035746Y0019605D01*
X0036497Y0018854D01*
X0036497Y0017253D02*
X0035746Y0016502D01*
X0035746Y0015001D01*
X0040250Y0018854D02*
X0040250Y0021856D01*
X0039499Y0023458D02*
X0040250Y0024208D01*
X0040250Y0025710D01*
X0039499Y0026460D01*
X0038749Y0026460D01*
X0037998Y0025710D01*
X0037998Y0024959D01*
X0037998Y0025710D02*
X0037247Y0026460D01*
X0036497Y0026460D01*
X0035746Y0025710D01*
X0035746Y0024208D01*
X0036497Y0023458D01*
X0016460Y0030001D02*
X0015710Y0029250D01*
X0014208Y0029250D01*
X0013458Y0030001D01*
X0016460Y0033003D01*
X0016460Y0030001D01*
X0013458Y0030001D02*
X0013458Y0033003D01*
X0014208Y0033754D01*
X0015710Y0033754D01*
X0016460Y0033003D01*
X0011856Y0033003D02*
X0011106Y0033754D01*
X0009605Y0033754D01*
X0008854Y0033003D01*
X0007253Y0033003D02*
X0006502Y0033754D01*
X0005001Y0033754D01*
X0004250Y0033003D01*
X0004250Y0030001D01*
X0005001Y0029250D01*
X0006502Y0029250D01*
X0007253Y0030001D01*
X0008854Y0029250D02*
X0011856Y0032253D01*
X0011856Y0033003D01*
X0011856Y0029250D02*
X0008854Y0029250D01*
X0026750Y0037501D02*
X0027501Y0036750D01*
X0029002Y0036750D01*
X0029753Y0037501D01*
X0031354Y0036750D02*
X0034356Y0039753D01*
X0034356Y0040503D01*
X0033606Y0041254D01*
X0032105Y0041254D01*
X0031354Y0040503D01*
X0029753Y0040503D02*
X0029002Y0041254D01*
X0027501Y0041254D01*
X0026750Y0040503D01*
X0026750Y0037501D01*
X0031354Y0036750D02*
X0034356Y0036750D01*
X0035958Y0036750D02*
X0038960Y0036750D01*
X0037459Y0036750D02*
X0037459Y0041254D01*
X0035958Y0039753D01*
X0017710Y0057750D02*
X0016208Y0057750D01*
X0015458Y0058501D01*
X0015458Y0060002D02*
X0016959Y0060753D01*
X0017710Y0060753D01*
X0018460Y0060002D01*
X0018460Y0058501D01*
X0017710Y0057750D01*
X0015458Y0060002D02*
X0015458Y0062254D01*
X0018460Y0062254D01*
X0014649Y0063750D02*
X0011646Y0063750D01*
X0011605Y0062254D02*
X0010854Y0061503D01*
X0011605Y0062254D02*
X0013106Y0062254D01*
X0013856Y0061503D01*
X0013856Y0060753D01*
X0010854Y0057750D01*
X0013856Y0057750D01*
X0009253Y0058501D02*
X0008502Y0057750D01*
X0007001Y0057750D01*
X0006250Y0058501D01*
X0006250Y0061503D01*
X0007001Y0062254D01*
X0008502Y0062254D01*
X0009253Y0061503D01*
X0007042Y0063750D02*
X0007042Y0068254D01*
X0009294Y0068254D01*
X0010045Y0067503D01*
X0010045Y0066002D01*
X0009294Y0065251D01*
X0007042Y0065251D01*
X0004690Y0064501D02*
X0003939Y0063750D01*
X0003189Y0063750D01*
X0002438Y0064501D01*
X0004690Y0064501D02*
X0004690Y0068254D01*
X0003939Y0068254D02*
X0005441Y0068254D01*
X0011646Y0066753D02*
X0013147Y0068254D01*
X0013147Y0063750D01*
X0029250Y0062501D02*
X0030001Y0061750D01*
X0031502Y0061750D01*
X0032253Y0062501D01*
X0033854Y0061750D02*
X0036856Y0064753D01*
X0036856Y0065503D01*
X0036106Y0066254D01*
X0034605Y0066254D01*
X0033854Y0065503D01*
X0032253Y0065503D02*
X0031502Y0066254D01*
X0030001Y0066254D01*
X0029250Y0065503D01*
X0029250Y0062501D01*
X0033854Y0061750D02*
X0036856Y0061750D01*
X0040710Y0061750D02*
X0040710Y0066254D01*
X0038458Y0064002D01*
X0041460Y0064002D01*
X0038146Y0078750D02*
X0038146Y0079501D01*
X0041149Y0082503D01*
X0041149Y0083254D01*
X0038146Y0083254D01*
X0035043Y0083254D02*
X0033542Y0081753D01*
X0031941Y0082503D02*
X0031941Y0081002D01*
X0031190Y0080251D01*
X0028938Y0080251D01*
X0028938Y0078750D02*
X0028938Y0083254D01*
X0031190Y0083254D01*
X0031941Y0082503D01*
X0030439Y0080251D02*
X0031941Y0078750D01*
X0033542Y0078750D02*
X0036545Y0078750D01*
X0035043Y0078750D02*
X0035043Y0083254D01*
X0035043Y0088750D02*
X0035043Y0093254D01*
X0033542Y0091753D01*
X0031941Y0092503D02*
X0031190Y0093254D01*
X0028938Y0093254D01*
X0028938Y0088750D01*
X0028938Y0090251D02*
X0031190Y0090251D01*
X0031941Y0091002D01*
X0031941Y0092503D01*
X0030439Y0090251D02*
X0031941Y0088750D01*
X0033542Y0088750D02*
X0036545Y0088750D01*
X0038146Y0089501D02*
X0038146Y0090251D01*
X0038897Y0091002D01*
X0040398Y0091002D01*
X0041149Y0090251D01*
X0041149Y0089501D01*
X0040398Y0088750D01*
X0038897Y0088750D01*
X0038146Y0089501D01*
X0038897Y0091002D02*
X0038146Y0091753D01*
X0038146Y0092503D01*
X0038897Y0093254D01*
X0040398Y0093254D01*
X0041149Y0092503D01*
X0041149Y0091753D01*
X0040398Y0091002D01*
X0041149Y0098750D02*
X0038146Y0098750D01*
X0041149Y0101753D01*
X0041149Y0102503D01*
X0040398Y0103254D01*
X0038897Y0103254D01*
X0038146Y0102503D01*
X0035043Y0103254D02*
X0033542Y0101753D01*
X0031941Y0102503D02*
X0031941Y0101002D01*
X0031190Y0100251D01*
X0028938Y0100251D01*
X0028938Y0098750D02*
X0028938Y0103254D01*
X0031190Y0103254D01*
X0031941Y0102503D01*
X0035043Y0103254D02*
X0035043Y0098750D01*
X0033542Y0098750D02*
X0036545Y0098750D01*
X0031941Y0098750D02*
X0030439Y0100251D01*
X0083542Y0113750D02*
X0083542Y0118254D01*
X0085794Y0118254D01*
X0086545Y0117503D01*
X0086545Y0116002D01*
X0085794Y0115251D01*
X0083542Y0115251D01*
X0085043Y0115251D02*
X0086545Y0113750D01*
X0088146Y0114501D02*
X0088146Y0115251D01*
X0088897Y0116002D01*
X0090398Y0116002D01*
X0091149Y0115251D01*
X0091149Y0114501D01*
X0090398Y0113750D01*
X0088897Y0113750D01*
X0088146Y0114501D01*
X0088897Y0116002D02*
X0088146Y0116753D01*
X0088146Y0117503D01*
X0088897Y0118254D01*
X0090398Y0118254D01*
X0091149Y0117503D01*
X0091149Y0116753D01*
X0090398Y0116002D01*
X0123746Y0110398D02*
X0123746Y0108897D01*
X0124497Y0108146D01*
X0124497Y0106545D02*
X0123746Y0105794D01*
X0123746Y0103542D01*
X0128250Y0103542D01*
X0126749Y0103542D02*
X0126749Y0105794D01*
X0125998Y0106545D01*
X0124497Y0106545D01*
X0126749Y0105043D02*
X0128250Y0106545D01*
X0127499Y0108146D02*
X0128250Y0108897D01*
X0128250Y0110398D01*
X0127499Y0111149D01*
X0126749Y0111149D01*
X0125998Y0110398D01*
X0125998Y0109647D01*
X0125998Y0110398D02*
X0125247Y0111149D01*
X0124497Y0111149D01*
X0123746Y0110398D01*
X0133746Y0110398D02*
X0133746Y0108897D01*
X0134497Y0108146D01*
X0134497Y0106545D02*
X0135998Y0106545D01*
X0136749Y0105794D01*
X0136749Y0103542D01*
X0138250Y0103542D02*
X0133746Y0103542D01*
X0133746Y0105794D01*
X0134497Y0106545D01*
X0136749Y0105043D02*
X0138250Y0106545D01*
X0138250Y0108146D02*
X0135247Y0111149D01*
X0134497Y0111149D01*
X0133746Y0110398D01*
X0138250Y0111149D02*
X0138250Y0108146D01*
X0146246Y0105794D02*
X0146246Y0103542D01*
X0150750Y0103542D01*
X0149249Y0103542D02*
X0149249Y0105794D01*
X0148498Y0106545D01*
X0146997Y0106545D01*
X0146246Y0105794D01*
X0149249Y0105043D02*
X0150750Y0106545D01*
X0149999Y0108146D02*
X0150750Y0108897D01*
X0150750Y0110398D01*
X0149999Y0111149D01*
X0149249Y0111149D01*
X0148498Y0110398D01*
X0148498Y0108146D01*
X0149999Y0108146D01*
X0148498Y0108146D02*
X0146997Y0109647D01*
X0146246Y0111149D01*
X0156246Y0110398D02*
X0156246Y0108897D01*
X0156997Y0108146D01*
X0159999Y0108146D01*
X0156997Y0111149D01*
X0159999Y0111149D01*
X0160750Y0110398D01*
X0160750Y0108897D01*
X0159999Y0108146D01*
X0160750Y0106545D02*
X0160750Y0103542D01*
X0160750Y0105043D02*
X0156246Y0105043D01*
X0157747Y0103542D01*
X0156997Y0101941D02*
X0156246Y0101190D01*
X0156246Y0098938D01*
X0160750Y0098938D01*
X0159249Y0098938D02*
X0159249Y0101190D01*
X0158498Y0101941D01*
X0156997Y0101941D01*
X0159249Y0100439D02*
X0160750Y0101941D01*
X0156246Y0110398D02*
X0156997Y0111149D01*
X0140250Y0117501D02*
X0140250Y0119002D01*
X0139499Y0119753D01*
X0140250Y0121354D02*
X0140250Y0124356D01*
X0140250Y0122855D02*
X0135746Y0122855D01*
X0137247Y0121354D01*
X0136497Y0119753D02*
X0135746Y0119002D01*
X0135746Y0117501D01*
X0136497Y0116750D01*
X0139499Y0116750D01*
X0140250Y0117501D01*
X0139499Y0125958D02*
X0137998Y0125958D01*
X0137998Y0128210D01*
X0138749Y0128960D01*
X0139499Y0128960D01*
X0140250Y0128210D01*
X0140250Y0126708D01*
X0139499Y0125958D01*
X0137998Y0125958D02*
X0136497Y0127459D01*
X0135746Y0128960D01*
X0136497Y0136750D02*
X0139499Y0136750D01*
X0140250Y0137501D01*
X0140250Y0139002D01*
X0139499Y0139753D01*
X0139499Y0141354D02*
X0140250Y0142105D01*
X0140250Y0143606D01*
X0139499Y0144356D01*
X0138749Y0144356D01*
X0137998Y0143606D01*
X0137998Y0142855D01*
X0137998Y0143606D02*
X0137247Y0144356D01*
X0136497Y0144356D01*
X0135746Y0143606D01*
X0135746Y0142105D01*
X0136497Y0141354D01*
X0136497Y0139753D02*
X0135746Y0139002D01*
X0135746Y0137501D01*
X0136497Y0136750D01*
X0123649Y0139501D02*
X0122898Y0138750D01*
X0121397Y0138750D01*
X0120646Y0139501D01*
X0121397Y0141002D02*
X0120646Y0141753D01*
X0120646Y0142503D01*
X0121397Y0143254D01*
X0122898Y0143254D01*
X0123649Y0142503D01*
X0123649Y0139501D01*
X0123649Y0141002D02*
X0121397Y0141002D01*
X0119045Y0141002D02*
X0118294Y0140251D01*
X0116042Y0140251D01*
X0116042Y0138750D02*
X0116042Y0143254D01*
X0118294Y0143254D01*
X0119045Y0142503D01*
X0119045Y0141002D01*
X0117543Y0140251D02*
X0119045Y0138750D01*
X0113649Y0148750D02*
X0110646Y0148750D01*
X0113649Y0151753D01*
X0113649Y0152503D01*
X0112898Y0153254D01*
X0111397Y0153254D01*
X0110646Y0152503D01*
X0109045Y0152503D02*
X0108294Y0153254D01*
X0106042Y0153254D01*
X0106042Y0148750D01*
X0108294Y0148750D01*
X0109045Y0149501D01*
X0109045Y0152503D01*
X0181746Y0146649D02*
X0181746Y0143646D01*
X0181746Y0146649D02*
X0182497Y0146649D01*
X0185499Y0143646D01*
X0186250Y0143646D01*
X0186250Y0142045D02*
X0186250Y0139042D01*
X0186250Y0140543D02*
X0181746Y0140543D01*
X0183247Y0139042D01*
X0182497Y0137441D02*
X0181746Y0136690D01*
X0181746Y0135189D01*
X0182497Y0134438D01*
X0185499Y0134438D01*
X0186250Y0135189D01*
X0186250Y0136690D01*
X0185499Y0137441D01*
X0194750Y0143750D02*
X0194750Y0148254D01*
X0197002Y0148254D01*
X0197753Y0147503D01*
X0197753Y0146002D01*
X0197002Y0145251D01*
X0194750Y0145251D01*
X0196251Y0145251D02*
X0197753Y0143750D01*
X0199354Y0144501D02*
X0200105Y0143750D01*
X0201606Y0143750D01*
X0202356Y0144501D01*
X0202356Y0146002D01*
X0201606Y0146753D01*
X0200855Y0146753D01*
X0199354Y0146002D01*
X0199354Y0148254D01*
X0202356Y0148254D01*
X0214250Y0150001D02*
X0215001Y0149250D01*
X0216502Y0149250D01*
X0217253Y0150001D01*
X0218854Y0149250D02*
X0221856Y0149250D01*
X0220355Y0149250D02*
X0220355Y0153754D01*
X0218854Y0152253D01*
X0217253Y0153003D02*
X0216502Y0153754D01*
X0215001Y0153754D01*
X0214250Y0153003D01*
X0214250Y0150001D01*
X0223458Y0151502D02*
X0226460Y0151502D01*
X0225710Y0149250D02*
X0225710Y0153754D01*
X0223458Y0151502D01*
X0236938Y0139503D02*
X0236938Y0136501D01*
X0237689Y0135750D01*
X0239190Y0135750D01*
X0239941Y0136501D01*
X0241542Y0135750D02*
X0244545Y0135750D01*
X0243043Y0135750D02*
X0243043Y0140254D01*
X0241542Y0138753D01*
X0239941Y0139503D02*
X0239190Y0140254D01*
X0237689Y0140254D01*
X0236938Y0139503D01*
X0246146Y0139503D02*
X0246146Y0138753D01*
X0246897Y0138002D01*
X0248398Y0138002D01*
X0249149Y0137251D01*
X0249149Y0136501D01*
X0248398Y0135750D01*
X0246897Y0135750D01*
X0246146Y0136501D01*
X0246146Y0137251D01*
X0246897Y0138002D01*
X0248398Y0138002D02*
X0249149Y0138753D01*
X0249149Y0139503D01*
X0248398Y0140254D01*
X0246897Y0140254D01*
X0246146Y0139503D01*
X0268750Y0139003D02*
X0268750Y0136001D01*
X0269501Y0135250D01*
X0271002Y0135250D01*
X0271753Y0136001D01*
X0273354Y0135250D02*
X0276356Y0135250D01*
X0274855Y0135250D02*
X0274855Y0139754D01*
X0273354Y0138253D01*
X0271753Y0139003D02*
X0271002Y0139754D01*
X0269501Y0139754D01*
X0268750Y0139003D01*
X0277958Y0139003D02*
X0277958Y0138253D01*
X0278708Y0137502D01*
X0280960Y0137502D01*
X0280960Y0139003D02*
X0280210Y0139754D01*
X0278708Y0139754D01*
X0277958Y0139003D01*
X0280960Y0139003D02*
X0280960Y0136001D01*
X0280210Y0135250D01*
X0278708Y0135250D01*
X0277958Y0136001D01*
X0177147Y0068254D02*
X0177147Y0063750D01*
X0175646Y0063750D02*
X0178649Y0063750D01*
X0174045Y0063750D02*
X0172543Y0065251D01*
X0173294Y0065251D02*
X0171042Y0065251D01*
X0171042Y0063750D02*
X0171042Y0068254D01*
X0173294Y0068254D01*
X0174045Y0067503D01*
X0174045Y0066002D01*
X0173294Y0065251D01*
X0175646Y0066753D02*
X0177147Y0068254D01*
X0178938Y0053254D02*
X0181190Y0053254D01*
X0181941Y0052503D01*
X0181941Y0051002D01*
X0181190Y0050251D01*
X0178938Y0050251D01*
X0178938Y0048750D02*
X0178938Y0053254D01*
X0180439Y0050251D02*
X0181941Y0048750D01*
X0183542Y0051002D02*
X0186545Y0051002D01*
X0188146Y0051002D02*
X0189647Y0051753D01*
X0190398Y0051753D01*
X0191149Y0051002D01*
X0191149Y0049501D01*
X0190398Y0048750D01*
X0188897Y0048750D01*
X0188146Y0049501D01*
X0188146Y0051002D02*
X0188146Y0053254D01*
X0191149Y0053254D01*
X0185794Y0053254D02*
X0183542Y0051002D01*
X0185794Y0048750D02*
X0185794Y0053254D01*
X0190746Y0046460D02*
X0190746Y0043458D01*
X0192998Y0043458D01*
X0192247Y0044959D01*
X0192247Y0045710D01*
X0192998Y0046460D01*
X0194499Y0046460D01*
X0195250Y0045710D01*
X0195250Y0044208D01*
X0194499Y0043458D01*
X0195250Y0041856D02*
X0195250Y0038854D01*
X0195250Y0040355D02*
X0190746Y0040355D01*
X0192247Y0038854D01*
X0191497Y0037253D02*
X0190746Y0036502D01*
X0190746Y0035001D01*
X0191497Y0034250D01*
X0194499Y0034250D01*
X0195250Y0035001D01*
X0195250Y0036502D01*
X0194499Y0037253D01*
X0206250Y0027003D02*
X0207001Y0027754D01*
X0208502Y0027754D01*
X0209253Y0027003D01*
X0209253Y0024001D01*
X0208502Y0023250D01*
X0207001Y0023250D01*
X0206250Y0024001D01*
X0206250Y0027003D01*
X0207751Y0024751D02*
X0209253Y0023250D01*
X0210854Y0023250D02*
X0213856Y0023250D01*
X0212355Y0023250D02*
X0212355Y0027754D01*
X0210854Y0026253D01*
X0202950Y0019949D02*
X0202950Y0016946D01*
X0199947Y0019949D01*
X0199197Y0019949D01*
X0198446Y0019198D01*
X0198446Y0017697D01*
X0199197Y0016946D01*
X0199197Y0015345D02*
X0200698Y0015345D01*
X0201449Y0014594D01*
X0201449Y0012342D01*
X0202950Y0012342D02*
X0198446Y0012342D01*
X0198446Y0014594D01*
X0199197Y0015345D01*
X0198446Y0010741D02*
X0198446Y0009239D01*
X0198446Y0009990D02*
X0202199Y0009990D01*
X0202950Y0009239D01*
X0202950Y0008489D01*
X0202199Y0007738D01*
X0212752Y0009500D02*
X0229248Y0009500D01*
X0226528Y0015500D02*
X0225472Y0015500D01*
X0230546Y0011622D02*
X0230439Y0011397D01*
X0230327Y0011174D01*
X0230210Y0010954D01*
X0230088Y0010737D01*
X0229960Y0010522D01*
X0229827Y0010311D01*
X0229690Y0010103D01*
X0229547Y0009899D01*
X0229400Y0009697D01*
X0229248Y0009500D01*
X0216528Y0015500D02*
X0215472Y0015500D01*
X0211498Y0011528D02*
X0211602Y0011313D01*
X0211711Y0011100D01*
X0211825Y0010890D01*
X0211944Y0010683D01*
X0212067Y0010478D01*
X0212195Y0010276D01*
X0212328Y0010077D01*
X0212465Y0009882D01*
X0212606Y0009689D01*
X0212752Y0009500D01*
X0211500Y0020472D02*
X0211612Y0020702D01*
X0211729Y0020929D01*
X0211851Y0021153D01*
X0211979Y0021374D01*
X0212113Y0021591D01*
X0212251Y0021806D01*
X0212395Y0022017D01*
X0212544Y0022224D01*
X0212698Y0022428D01*
X0212856Y0022628D01*
X0213020Y0022824D01*
X0213188Y0023016D01*
X0213361Y0023204D01*
X0213539Y0023388D01*
X0213720Y0023567D01*
X0213907Y0023742D01*
X0214097Y0023912D01*
X0214291Y0024077D01*
X0214490Y0024238D01*
X0214692Y0024394D01*
X0214898Y0024545D01*
X0215108Y0024691D01*
X0215321Y0024831D01*
X0215537Y0024967D01*
X0215757Y0025097D01*
X0215980Y0025222D01*
X0216205Y0025341D01*
X0216434Y0025455D01*
X0216665Y0025563D01*
X0216899Y0025666D01*
X0217135Y0025763D01*
X0217374Y0025854D01*
X0217614Y0025939D01*
X0217857Y0026019D01*
X0218102Y0026092D01*
X0218348Y0026160D01*
X0218596Y0026221D01*
X0218845Y0026276D01*
X0219095Y0026326D01*
X0219347Y0026369D01*
X0219600Y0026406D01*
X0219853Y0026437D01*
X0220107Y0026462D01*
X0220362Y0026481D01*
X0220617Y0026493D01*
X0220872Y0026499D01*
X0221128Y0026499D01*
X0221383Y0026493D01*
X0221638Y0026481D01*
X0221893Y0026462D01*
X0222147Y0026437D01*
X0222400Y0026406D01*
X0222653Y0026369D01*
X0222905Y0026326D01*
X0223155Y0026276D01*
X0223404Y0026221D01*
X0223652Y0026160D01*
X0223898Y0026092D01*
X0224143Y0026019D01*
X0224386Y0025939D01*
X0224626Y0025854D01*
X0224865Y0025763D01*
X0225101Y0025666D01*
X0225335Y0025563D01*
X0225566Y0025455D01*
X0225795Y0025341D01*
X0226020Y0025222D01*
X0226243Y0025097D01*
X0226463Y0024967D01*
X0226679Y0024831D01*
X0226892Y0024691D01*
X0227102Y0024545D01*
X0227308Y0024394D01*
X0227510Y0024238D01*
X0227709Y0024077D01*
X0227903Y0023912D01*
X0228093Y0023742D01*
X0228280Y0023567D01*
X0228461Y0023388D01*
X0228639Y0023204D01*
X0228812Y0023016D01*
X0228980Y0022824D01*
X0229144Y0022628D01*
X0229302Y0022428D01*
X0229456Y0022224D01*
X0229605Y0022017D01*
X0229749Y0021806D01*
X0229887Y0021591D01*
X0230021Y0021374D01*
X0230149Y0021153D01*
X0230271Y0020929D01*
X0230388Y0020702D01*
X0230500Y0020472D01*
X0234500Y0027752D02*
X0234500Y0044248D01*
X0231250Y0043646D02*
X0231250Y0046649D01*
X0231250Y0045147D02*
X0226746Y0045147D01*
X0228247Y0043646D01*
X0227497Y0042045D02*
X0226746Y0041294D01*
X0226746Y0039793D01*
X0227497Y0039042D01*
X0230499Y0039042D01*
X0231250Y0039793D01*
X0231250Y0041294D01*
X0230499Y0042045D01*
X0240500Y0041528D02*
X0240500Y0040472D01*
X0236528Y0045502D02*
X0236313Y0045398D01*
X0236100Y0045289D01*
X0235890Y0045175D01*
X0235683Y0045056D01*
X0235478Y0044933D01*
X0235276Y0044805D01*
X0235077Y0044672D01*
X0234882Y0044535D01*
X0234689Y0044394D01*
X0234500Y0044248D01*
X0245472Y0045500D02*
X0245702Y0045388D01*
X0245929Y0045271D01*
X0246153Y0045149D01*
X0246374Y0045021D01*
X0246591Y0044887D01*
X0246806Y0044749D01*
X0247017Y0044605D01*
X0247224Y0044456D01*
X0247428Y0044302D01*
X0247628Y0044144D01*
X0247824Y0043980D01*
X0248016Y0043812D01*
X0248204Y0043639D01*
X0248388Y0043461D01*
X0248567Y0043280D01*
X0248742Y0043093D01*
X0248912Y0042903D01*
X0249077Y0042709D01*
X0249238Y0042510D01*
X0249394Y0042308D01*
X0249545Y0042102D01*
X0249691Y0041892D01*
X0249831Y0041679D01*
X0249967Y0041463D01*
X0250097Y0041243D01*
X0250222Y0041020D01*
X0250341Y0040795D01*
X0250455Y0040566D01*
X0250563Y0040335D01*
X0250666Y0040101D01*
X0250763Y0039865D01*
X0250854Y0039626D01*
X0250939Y0039386D01*
X0251019Y0039143D01*
X0251092Y0038898D01*
X0251160Y0038652D01*
X0251221Y0038404D01*
X0251276Y0038155D01*
X0251326Y0037905D01*
X0251369Y0037653D01*
X0251406Y0037400D01*
X0251437Y0037147D01*
X0251462Y0036893D01*
X0251481Y0036638D01*
X0251493Y0036383D01*
X0251499Y0036128D01*
X0251499Y0035872D01*
X0251493Y0035617D01*
X0251481Y0035362D01*
X0251462Y0035107D01*
X0251437Y0034853D01*
X0251406Y0034600D01*
X0251369Y0034347D01*
X0251326Y0034095D01*
X0251276Y0033845D01*
X0251221Y0033596D01*
X0251160Y0033348D01*
X0251092Y0033102D01*
X0251019Y0032857D01*
X0250939Y0032614D01*
X0250854Y0032374D01*
X0250763Y0032135D01*
X0250666Y0031899D01*
X0250563Y0031665D01*
X0250455Y0031434D01*
X0250341Y0031205D01*
X0250222Y0030980D01*
X0250097Y0030757D01*
X0249967Y0030537D01*
X0249831Y0030321D01*
X0249691Y0030108D01*
X0249545Y0029898D01*
X0249394Y0029692D01*
X0249238Y0029490D01*
X0249077Y0029291D01*
X0248912Y0029097D01*
X0248742Y0028907D01*
X0248567Y0028720D01*
X0248388Y0028539D01*
X0248204Y0028361D01*
X0248016Y0028188D01*
X0247824Y0028020D01*
X0247628Y0027856D01*
X0247428Y0027698D01*
X0247224Y0027544D01*
X0247017Y0027395D01*
X0246806Y0027251D01*
X0246591Y0027113D01*
X0246374Y0026979D01*
X0246153Y0026851D01*
X0245929Y0026729D01*
X0245702Y0026612D01*
X0245472Y0026500D01*
X0247250Y0025754D02*
X0249502Y0025754D01*
X0250253Y0025003D01*
X0250253Y0022001D01*
X0249502Y0021250D01*
X0247250Y0021250D01*
X0247250Y0025754D01*
X0251854Y0024253D02*
X0253355Y0025754D01*
X0253355Y0021250D01*
X0251854Y0021250D02*
X0254856Y0021250D01*
X0240500Y0030472D02*
X0240500Y0031528D01*
X0236622Y0026454D02*
X0236397Y0026561D01*
X0236174Y0026673D01*
X0235954Y0026790D01*
X0235737Y0026912D01*
X0235522Y0027040D01*
X0235311Y0027173D01*
X0235103Y0027310D01*
X0234899Y0027453D01*
X0234697Y0027600D01*
X0234500Y0027752D01*
X0248997Y0042042D02*
X0248246Y0042793D01*
X0248246Y0044294D01*
X0248997Y0045045D01*
X0251999Y0045045D01*
X0252750Y0044294D01*
X0252750Y0042793D01*
X0251999Y0042042D01*
X0248997Y0042042D01*
X0251249Y0043543D02*
X0252750Y0045045D01*
X0252750Y0046646D02*
X0249747Y0049649D01*
X0248997Y0049649D01*
X0248246Y0048898D01*
X0248246Y0047397D01*
X0248997Y0046646D01*
X0252750Y0046646D02*
X0252750Y0049649D01*
X0259246Y0049105D02*
X0259246Y0050606D01*
X0259997Y0051356D01*
X0260747Y0051356D01*
X0261498Y0050606D01*
X0262249Y0051356D01*
X0262999Y0051356D01*
X0263750Y0050606D01*
X0263750Y0049105D01*
X0262999Y0048354D01*
X0262999Y0046753D02*
X0259997Y0046753D01*
X0259246Y0046002D01*
X0259246Y0044501D01*
X0259997Y0043750D01*
X0262999Y0043750D01*
X0263750Y0044501D01*
X0263750Y0046002D01*
X0262999Y0046753D01*
X0263750Y0046753D02*
X0262249Y0045251D01*
X0259997Y0048354D02*
X0259246Y0049105D01*
X0261498Y0049855D02*
X0261498Y0050606D01*
X0260751Y0055250D02*
X0259250Y0055250D01*
X0260001Y0055250D02*
X0260001Y0059754D01*
X0260751Y0059754D02*
X0259250Y0059754D01*
X0262319Y0059003D02*
X0262319Y0056001D01*
X0263070Y0055250D01*
X0264571Y0055250D01*
X0265322Y0056001D01*
X0266923Y0055250D02*
X0269926Y0055250D01*
X0268424Y0055250D02*
X0268424Y0059754D01*
X0266923Y0058253D01*
X0265322Y0059003D02*
X0264571Y0059754D01*
X0263070Y0059754D01*
X0262319Y0059003D01*
X0277500Y0044248D02*
X0277500Y0027752D01*
X0271500Y0030472D02*
X0271500Y0031528D01*
X0275472Y0026498D02*
X0275687Y0026602D01*
X0275900Y0026711D01*
X0276110Y0026825D01*
X0276317Y0026944D01*
X0276522Y0027067D01*
X0276724Y0027195D01*
X0276923Y0027328D01*
X0277118Y0027465D01*
X0277311Y0027606D01*
X0277500Y0027752D01*
X0266528Y0026500D02*
X0266298Y0026612D01*
X0266071Y0026729D01*
X0265847Y0026851D01*
X0265626Y0026979D01*
X0265409Y0027113D01*
X0265194Y0027251D01*
X0264983Y0027395D01*
X0264776Y0027544D01*
X0264572Y0027698D01*
X0264372Y0027856D01*
X0264176Y0028020D01*
X0263984Y0028188D01*
X0263796Y0028361D01*
X0263612Y0028539D01*
X0263433Y0028720D01*
X0263258Y0028907D01*
X0263088Y0029097D01*
X0262923Y0029291D01*
X0262762Y0029490D01*
X0262606Y0029692D01*
X0262455Y0029898D01*
X0262309Y0030108D01*
X0262169Y0030321D01*
X0262033Y0030537D01*
X0261903Y0030757D01*
X0261778Y0030980D01*
X0261659Y0031205D01*
X0261545Y0031434D01*
X0261437Y0031665D01*
X0261334Y0031899D01*
X0261237Y0032135D01*
X0261146Y0032374D01*
X0261061Y0032614D01*
X0260981Y0032857D01*
X0260908Y0033102D01*
X0260840Y0033348D01*
X0260779Y0033596D01*
X0260724Y0033845D01*
X0260674Y0034095D01*
X0260631Y0034347D01*
X0260594Y0034600D01*
X0260563Y0034853D01*
X0260538Y0035107D01*
X0260519Y0035362D01*
X0260507Y0035617D01*
X0260501Y0035872D01*
X0260501Y0036128D01*
X0260507Y0036383D01*
X0260519Y0036638D01*
X0260538Y0036893D01*
X0260563Y0037147D01*
X0260594Y0037400D01*
X0260631Y0037653D01*
X0260674Y0037905D01*
X0260724Y0038155D01*
X0260779Y0038404D01*
X0260840Y0038652D01*
X0260908Y0038898D01*
X0260981Y0039143D01*
X0261061Y0039386D01*
X0261146Y0039626D01*
X0261237Y0039865D01*
X0261334Y0040101D01*
X0261437Y0040335D01*
X0261545Y0040566D01*
X0261659Y0040795D01*
X0261778Y0041020D01*
X0261903Y0041243D01*
X0262033Y0041463D01*
X0262169Y0041679D01*
X0262309Y0041892D01*
X0262455Y0042102D01*
X0262606Y0042308D01*
X0262762Y0042510D01*
X0262923Y0042709D01*
X0263088Y0042903D01*
X0263258Y0043093D01*
X0263433Y0043280D01*
X0263612Y0043461D01*
X0263796Y0043639D01*
X0263984Y0043812D01*
X0264176Y0043980D01*
X0264372Y0044144D01*
X0264572Y0044302D01*
X0264776Y0044456D01*
X0264983Y0044605D01*
X0265194Y0044749D01*
X0265409Y0044887D01*
X0265626Y0045021D01*
X0265847Y0045149D01*
X0266071Y0045271D01*
X0266298Y0045388D01*
X0266528Y0045500D01*
X0271500Y0041528D02*
X0271500Y0040472D01*
X0275378Y0045546D02*
X0275603Y0045439D01*
X0275826Y0045327D01*
X0276046Y0045210D01*
X0276263Y0045088D01*
X0276478Y0044960D01*
X0276689Y0044827D01*
X0276897Y0044690D01*
X0277101Y0044547D01*
X0277303Y0044400D01*
X0277500Y0044248D01*
X0216649Y0054750D02*
X0213646Y0054750D01*
X0216649Y0057753D01*
X0216649Y0058503D01*
X0215898Y0059254D01*
X0214397Y0059254D01*
X0213646Y0058503D01*
X0212045Y0058503D02*
X0211294Y0059254D01*
X0209793Y0059254D01*
X0209042Y0058503D01*
X0209042Y0055501D01*
X0209793Y0054750D01*
X0211294Y0054750D01*
X0212045Y0055501D01*
X0207474Y0054750D02*
X0205973Y0054750D01*
X0206723Y0054750D02*
X0206723Y0059254D01*
X0205973Y0059254D02*
X0207474Y0059254D01*
X0179647Y0028254D02*
X0179647Y0023750D01*
X0178146Y0023750D02*
X0181149Y0023750D01*
X0178146Y0026753D02*
X0179647Y0028254D01*
X0175043Y0028254D02*
X0175043Y0023750D01*
X0173542Y0023750D02*
X0176545Y0023750D01*
X0171941Y0023750D02*
X0170439Y0025251D01*
X0171190Y0025251D02*
X0168938Y0025251D01*
X0168938Y0023750D02*
X0168938Y0028254D01*
X0171190Y0028254D01*
X0171941Y0027503D01*
X0171941Y0026002D01*
X0171190Y0025251D01*
X0173542Y0026753D02*
X0175043Y0028254D01*
X0126149Y0028254D02*
X0126149Y0027503D01*
X0123146Y0024501D01*
X0123146Y0023750D01*
X0121545Y0023750D02*
X0120043Y0025251D01*
X0120794Y0025251D02*
X0118542Y0025251D01*
X0118542Y0023750D02*
X0118542Y0028254D01*
X0120794Y0028254D01*
X0121545Y0027503D01*
X0121545Y0026002D01*
X0120794Y0025251D01*
X0123146Y0028254D02*
X0126149Y0028254D01*
X0126606Y0053750D02*
X0126606Y0058254D01*
X0124354Y0056002D01*
X0127356Y0056002D01*
X0122753Y0056002D02*
X0122002Y0055251D01*
X0119750Y0055251D01*
X0119750Y0053750D02*
X0119750Y0058254D01*
X0122002Y0058254D01*
X0122753Y0057503D01*
X0122753Y0056002D01*
X0121251Y0055251D02*
X0122753Y0053750D01*
X0111356Y0058501D02*
X0111356Y0060002D01*
X0110606Y0060753D01*
X0109855Y0060753D01*
X0108354Y0060002D01*
X0108354Y0062254D01*
X0111356Y0062254D01*
X0106753Y0061503D02*
X0106002Y0062254D01*
X0104501Y0062254D01*
X0103750Y0061503D01*
X0103750Y0058501D01*
X0104501Y0057750D01*
X0106002Y0057750D01*
X0106753Y0058501D01*
X0108354Y0058501D02*
X0109105Y0057750D01*
X0110606Y0057750D01*
X0111356Y0058501D01*
X0114793Y0080750D02*
X0116294Y0080750D01*
X0117045Y0081501D01*
X0118646Y0080750D02*
X0121649Y0083753D01*
X0121649Y0084503D01*
X0120898Y0085254D01*
X0119397Y0085254D01*
X0118646Y0084503D01*
X0117045Y0084503D02*
X0116294Y0085254D01*
X0114793Y0085254D01*
X0114042Y0084503D01*
X0114042Y0081501D01*
X0114793Y0080750D01*
X0118646Y0080750D02*
X0121649Y0080750D01*
X0113106Y0090250D02*
X0111605Y0090250D01*
X0110854Y0091001D01*
X0110854Y0092502D01*
X0113106Y0092502D01*
X0113856Y0091751D01*
X0113856Y0091001D01*
X0113106Y0090250D01*
X0110854Y0092502D02*
X0112355Y0094003D01*
X0113856Y0094754D01*
X0109253Y0094003D02*
X0108502Y0094754D01*
X0107001Y0094754D01*
X0106250Y0094003D01*
X0106250Y0091001D01*
X0107001Y0090250D01*
X0108502Y0090250D01*
X0109253Y0091001D01*
X0069175Y0012254D02*
X0067674Y0012254D01*
X0066923Y0011503D01*
X0065322Y0011503D02*
X0064571Y0012254D01*
X0063070Y0012254D01*
X0062319Y0011503D01*
X0062319Y0008501D01*
X0063070Y0007750D01*
X0064571Y0007750D01*
X0065322Y0008501D01*
X0066923Y0008501D02*
X0067674Y0007750D01*
X0069175Y0007750D01*
X0069926Y0008501D01*
X0069926Y0009251D01*
X0069175Y0010002D01*
X0068424Y0010002D01*
X0069175Y0010002D02*
X0069926Y0010753D01*
X0069926Y0011503D01*
X0069175Y0012254D01*
X0060751Y0012254D02*
X0059250Y0012254D01*
X0060001Y0012254D02*
X0060001Y0007750D01*
X0060751Y0007750D02*
X0059250Y0007750D01*
D15*
X0249500Y0016000D03*
X0102500Y0146000D03*
D16*
X0106250Y0146000D03*
X0085750Y0146000D03*
X0245750Y0016000D03*
X0266250Y0016000D03*
D17*
X0174858Y0117693D02*
X0157142Y0117693D01*
X0157142Y0154307D01*
X0174858Y0154307D01*
X0174858Y0117693D01*
X0064858Y0117693D02*
X0064858Y0154307D01*
X0047142Y0154307D01*
X0047142Y0117693D01*
X0064858Y0117693D01*
D18*
X0056000Y0146039D03*
X0166000Y0125961D03*
D19*
X0155367Y0123087D02*
X0150763Y0123087D01*
X0150763Y0126157D01*
X0153065Y0127691D02*
X0153065Y0130761D01*
X0150763Y0132295D02*
X0150763Y0135365D01*
X0150763Y0136899D02*
X0150763Y0139201D01*
X0151530Y0139968D01*
X0153065Y0139968D01*
X0153832Y0139201D01*
X0153832Y0136899D01*
X0153832Y0138434D02*
X0155367Y0139968D01*
X0155367Y0141503D02*
X0155367Y0143038D01*
X0155367Y0142270D02*
X0150763Y0142270D01*
X0150763Y0141503D02*
X0150763Y0143038D01*
X0150763Y0144572D02*
X0152298Y0146107D01*
X0150763Y0147642D01*
X0155367Y0147642D01*
X0155367Y0149176D02*
X0155367Y0152246D01*
X0155367Y0150711D02*
X0150763Y0150711D01*
X0152298Y0149176D01*
X0150763Y0144572D02*
X0155367Y0144572D01*
X0155367Y0136899D02*
X0150763Y0136899D01*
X0150763Y0133830D02*
X0155367Y0133830D01*
X0153065Y0124622D02*
X0153065Y0123087D01*
X0153065Y0121553D02*
X0153065Y0118483D01*
X0155367Y0118483D02*
X0150763Y0118483D01*
X0150763Y0121553D02*
X0155367Y0121553D01*
X0071233Y0127828D02*
X0069698Y0129362D01*
X0066629Y0129362D01*
X0066629Y0126293D02*
X0069698Y0126293D01*
X0071233Y0127828D01*
X0071233Y0130897D02*
X0066629Y0133966D01*
X0067396Y0135501D02*
X0070466Y0135501D01*
X0071233Y0136268D01*
X0071233Y0137803D01*
X0070466Y0138570D01*
X0067396Y0138570D01*
X0066629Y0137803D01*
X0066629Y0136268D01*
X0067396Y0135501D01*
X0067396Y0140105D02*
X0070466Y0140105D01*
X0071233Y0140872D01*
X0071233Y0142407D01*
X0070466Y0143174D01*
X0067396Y0143174D02*
X0066629Y0142407D01*
X0066629Y0140872D01*
X0067396Y0140105D01*
X0066629Y0144709D02*
X0066629Y0147778D01*
X0066629Y0146243D02*
X0071233Y0146243D01*
X0071233Y0149313D02*
X0071233Y0152382D01*
X0071233Y0150847D02*
X0066629Y0150847D01*
X0068164Y0149313D01*
M02*
