%
M48
M72
T01C0.01200
T02C0.03200
T03C0.03937
T04C0.04000
T05C0.05906
%
T01
X138795Y20685
X63992Y83677
X75803Y87614
X323835Y62024
T02
X6000Y6000
X36000Y6000
X43500Y6000
X73500Y6000
X81000Y6000
X111000Y6000
X121000Y6000
X151000Y6000
X161000Y6000
X191000Y6000
X201000Y6000
X231000Y6000
X241000Y6000
X271000Y6000
X281000Y6000
X311000Y6000
X318500Y6000
X348500Y6000
X356000Y6000
X386000Y6000
X366000Y151000
X336000Y151000
X301000Y151000
X271000Y151000
X236000Y151000
X206000Y151000
X166000Y151000
X136000Y151000
X106000Y151000
X76000Y151000
X41000Y151000
X11000Y151000
T03
X23165Y89268
X88165Y89268
X153165Y89268
X218165Y89268
X283165Y89268
X348165Y89268
X348165Y19268
X283165Y19268
X218165Y19268
X153165Y19268
X88165Y19268
X23165Y19268
T04
X38500Y33500
X38500Y43500
X38500Y53500
X38500Y63500
X38500Y73500
X38500Y83500
X38500Y93500
X38500Y103500
X38500Y113500
X38500Y123500
X363500Y123500
X363500Y113500
X363500Y103500
X363500Y93500
X363500Y83500
X363500Y73500
X363500Y63500
X363500Y53500
X363500Y43500
X363500Y33500
T05
X51000Y26000
X72496Y42181
X116000Y26000
X137496Y42181
X181000Y26000
X202496Y42181
X246000Y26000
X267496Y42181
X311000Y26000
X332496Y42181
X376000Y26000
X376000Y96000
X332496Y112181
X311000Y96000
X267496Y112181
X246000Y96000
X202496Y112181
X181000Y96000
X137496Y112181
X116000Y96000
X72496Y112181
X51000Y96000
X7496Y112181
X7496Y42181
M30
