G75*
%MOIN*%
%OFA0B0*%
%FSLAX25Y25*%
%IPPOS*%
%LPD*%
%AMOC8*
5,1,8,0,0,1.08239X$1,22.5*
%
%ADD10C,0.00000*%
%ADD11C,0.00600*%
%ADD12C,0.00500*%
D10*
X0001000Y0001000D02*
X0001000Y0155961D01*
X0389701Y0155961D01*
X0389701Y0001000D01*
X0001000Y0001000D01*
D11*
X0033500Y0031000D02*
X0036000Y0028500D01*
X0041000Y0028500D01*
X0043500Y0031000D01*
X0043500Y0036000D01*
X0041000Y0038500D01*
X0043500Y0041000D01*
X0043500Y0046000D01*
X0041000Y0048500D01*
X0036000Y0048500D01*
X0033500Y0046000D01*
X0033500Y0041000D01*
X0036000Y0038500D01*
X0033500Y0036000D01*
X0033500Y0031000D01*
X0036000Y0038500D02*
X0041000Y0038500D01*
X0041000Y0048500D02*
X0043500Y0051000D01*
X0043500Y0056000D01*
X0041000Y0058500D01*
X0043500Y0061000D01*
X0043500Y0066000D01*
X0041000Y0068500D01*
X0043500Y0071000D01*
X0043500Y0076000D01*
X0041000Y0078500D01*
X0036000Y0078500D01*
X0033500Y0076000D01*
X0033500Y0071000D01*
X0036000Y0068500D01*
X0033500Y0066000D01*
X0033500Y0061000D01*
X0036000Y0058500D01*
X0033500Y0056000D01*
X0033500Y0051000D01*
X0036000Y0048500D01*
X0036000Y0058500D02*
X0041000Y0058500D01*
X0041000Y0068500D02*
X0036000Y0068500D01*
X0036000Y0078500D02*
X0033500Y0081000D01*
X0033500Y0086000D01*
X0036000Y0088500D01*
X0033500Y0091000D01*
X0033500Y0096000D01*
X0036000Y0098500D01*
X0033500Y0101000D01*
X0033500Y0106000D01*
X0036000Y0108500D01*
X0041000Y0108500D01*
X0043500Y0106000D01*
X0043500Y0101000D01*
X0041000Y0098500D01*
X0036000Y0098500D01*
X0041000Y0098500D02*
X0043500Y0096000D01*
X0043500Y0091000D01*
X0041000Y0088500D01*
X0036000Y0088500D01*
X0041000Y0088500D02*
X0043500Y0086000D01*
X0043500Y0081000D01*
X0041000Y0078500D01*
X0041000Y0108500D02*
X0043500Y0111000D01*
X0043500Y0116000D01*
X0041000Y0118500D01*
X0043500Y0121000D01*
X0043500Y0126000D01*
X0041000Y0128500D01*
X0036000Y0128500D01*
X0033500Y0126000D01*
X0033500Y0121000D01*
X0036000Y0118500D01*
X0033500Y0116000D01*
X0033500Y0111000D01*
X0036000Y0108500D01*
X0036000Y0118500D02*
X0041000Y0118500D01*
X0042231Y0131300D02*
X0043299Y0131300D01*
X0043299Y0132368D01*
X0042231Y0132368D01*
X0042231Y0131300D01*
X0040076Y0132368D02*
X0035806Y0136638D01*
X0035806Y0132368D01*
X0036873Y0131300D01*
X0039009Y0131300D01*
X0040076Y0132368D01*
X0040076Y0136638D01*
X0039009Y0137705D01*
X0036873Y0137705D01*
X0035806Y0136638D01*
X0030408Y0135570D02*
X0030408Y0131300D01*
X0032563Y0131300D02*
X0032563Y0132368D01*
X0033631Y0132368D01*
X0033631Y0131300D01*
X0032563Y0131300D01*
X0030408Y0133435D02*
X0028273Y0135570D01*
X0027205Y0135570D01*
X0025037Y0134503D02*
X0023969Y0135570D01*
X0021834Y0135570D01*
X0020766Y0134503D01*
X0020766Y0133435D01*
X0025037Y0133435D01*
X0025037Y0132368D02*
X0025037Y0134503D01*
X0025037Y0132368D02*
X0023969Y0131300D01*
X0021834Y0131300D01*
X0018591Y0135570D02*
X0016456Y0131300D01*
X0014321Y0135570D01*
X0012146Y0135570D02*
X0010010Y0137705D01*
X0010010Y0131300D01*
X0007875Y0131300D02*
X0012146Y0131300D01*
X0022888Y0139665D02*
X0022888Y0146070D01*
X0019685Y0146070D01*
X0018618Y0145003D01*
X0018618Y0142868D01*
X0019685Y0141800D01*
X0022888Y0141800D01*
X0025043Y0141800D02*
X0025043Y0142868D01*
X0026111Y0142868D01*
X0026111Y0141800D01*
X0025043Y0141800D01*
X0028286Y0141800D02*
X0031489Y0141800D01*
X0032556Y0142868D01*
X0031489Y0143935D01*
X0028286Y0143935D01*
X0028286Y0145003D02*
X0028286Y0141800D01*
X0034732Y0141800D02*
X0037934Y0141800D01*
X0039002Y0142868D01*
X0039002Y0145003D01*
X0037934Y0146070D01*
X0034732Y0146070D01*
X0031489Y0146070D02*
X0029354Y0146070D01*
X0028286Y0145003D01*
X0016443Y0146070D02*
X0016443Y0141800D01*
X0012172Y0141800D02*
X0012172Y0145003D01*
X0013240Y0146070D01*
X0016443Y0146070D01*
X0009997Y0148205D02*
X0008930Y0148205D01*
X0008930Y0141800D01*
X0009997Y0141800D02*
X0007862Y0141800D01*
X0041177Y0146070D02*
X0043312Y0141800D01*
X0045447Y0146070D01*
X0047603Y0142868D02*
X0047603Y0141800D01*
X0048670Y0141800D01*
X0048670Y0142868D01*
X0047603Y0142868D01*
X0050845Y0142868D02*
X0051913Y0141800D01*
X0055116Y0141800D01*
X0057291Y0141800D02*
X0061561Y0146070D01*
X0063736Y0145003D02*
X0063736Y0143935D01*
X0068007Y0143935D01*
X0068007Y0142868D02*
X0068007Y0145003D01*
X0066939Y0146070D01*
X0064804Y0146070D01*
X0063736Y0145003D01*
X0066939Y0141800D02*
X0068007Y0142868D01*
X0066939Y0141800D02*
X0064804Y0141800D01*
X0061561Y0141800D02*
X0057291Y0146070D01*
X0055116Y0146070D02*
X0051913Y0146070D01*
X0050845Y0145003D01*
X0050845Y0142868D01*
X0055116Y0139665D02*
X0055116Y0146070D01*
X0070162Y0142868D02*
X0070162Y0141800D01*
X0071229Y0141800D01*
X0071229Y0142868D01*
X0070162Y0142868D01*
X0073405Y0141800D02*
X0076607Y0141800D01*
X0077675Y0142868D01*
X0077675Y0145003D01*
X0076607Y0146070D01*
X0073405Y0146070D01*
X0073405Y0148205D02*
X0073405Y0141800D01*
X0079850Y0141800D02*
X0079850Y0145003D01*
X0080918Y0146070D01*
X0083053Y0146070D01*
X0086296Y0146070D02*
X0086296Y0141800D01*
X0089498Y0141800D01*
X0090566Y0142868D01*
X0090566Y0146070D01*
X0092741Y0146070D02*
X0095944Y0146070D01*
X0097011Y0145003D01*
X0097011Y0142868D01*
X0095944Y0141800D01*
X0092741Y0141800D01*
X0092741Y0139665D02*
X0092741Y0146070D01*
X0099167Y0142868D02*
X0099167Y0141800D01*
X0100234Y0141800D01*
X0100234Y0142868D01*
X0099167Y0142868D01*
X0102409Y0142868D02*
X0103477Y0141800D01*
X0106680Y0141800D01*
X0108841Y0141800D02*
X0110977Y0141800D01*
X0109909Y0141800D02*
X0109909Y0148205D01*
X0110977Y0148205D01*
X0113152Y0148205D02*
X0113152Y0141800D01*
X0116355Y0141800D01*
X0117422Y0142868D01*
X0117422Y0145003D01*
X0116355Y0146070D01*
X0113152Y0146070D01*
X0106680Y0146070D02*
X0103477Y0146070D01*
X0102409Y0145003D01*
X0102409Y0142868D01*
X0106680Y0139665D02*
X0106680Y0146070D01*
X0084120Y0142868D02*
X0083053Y0141800D01*
X0079850Y0141800D01*
X0079850Y0143935D02*
X0083053Y0143935D01*
X0084120Y0142868D01*
X0065858Y0135570D02*
X0063723Y0131300D01*
X0061588Y0135570D01*
X0059413Y0136638D02*
X0058345Y0137705D01*
X0056210Y0137705D01*
X0055142Y0136638D01*
X0055142Y0135570D01*
X0059413Y0131300D01*
X0055142Y0131300D01*
X0052967Y0131300D02*
X0052967Y0132368D01*
X0051900Y0132368D01*
X0051900Y0131300D01*
X0052967Y0131300D01*
X0049744Y0132368D02*
X0045474Y0136638D01*
X0045474Y0132368D01*
X0046542Y0131300D01*
X0048677Y0131300D01*
X0049744Y0132368D01*
X0049744Y0136638D01*
X0048677Y0137705D01*
X0046542Y0137705D01*
X0045474Y0136638D01*
X0358500Y0126000D02*
X0358500Y0121000D01*
X0361000Y0118500D01*
X0358500Y0116000D01*
X0358500Y0111000D01*
X0361000Y0108500D01*
X0358500Y0106000D01*
X0358500Y0101000D01*
X0361000Y0098500D01*
X0358500Y0096000D01*
X0358500Y0091000D01*
X0361000Y0088500D01*
X0358500Y0086000D01*
X0358500Y0081000D01*
X0361000Y0078500D01*
X0358500Y0076000D01*
X0358500Y0071000D01*
X0361000Y0068500D01*
X0358500Y0066000D01*
X0358500Y0061000D01*
X0361000Y0058500D01*
X0358500Y0056000D01*
X0358500Y0051000D01*
X0361000Y0048500D01*
X0358500Y0046000D01*
X0358500Y0041000D01*
X0361000Y0038500D01*
X0358500Y0036000D01*
X0358500Y0031000D01*
X0361000Y0028500D01*
X0366000Y0028500D01*
X0368500Y0031000D01*
X0368500Y0036000D01*
X0366000Y0038500D01*
X0368500Y0041000D01*
X0368500Y0046000D01*
X0366000Y0048500D01*
X0361000Y0048500D01*
X0366000Y0048500D02*
X0368500Y0051000D01*
X0368500Y0056000D01*
X0366000Y0058500D01*
X0368500Y0061000D01*
X0368500Y0066000D01*
X0366000Y0068500D01*
X0368500Y0071000D01*
X0368500Y0076000D01*
X0366000Y0078500D01*
X0361000Y0078500D01*
X0366000Y0078500D02*
X0368500Y0081000D01*
X0368500Y0086000D01*
X0366000Y0088500D01*
X0368500Y0091000D01*
X0368500Y0096000D01*
X0366000Y0098500D01*
X0368500Y0101000D01*
X0368500Y0106000D01*
X0366000Y0108500D01*
X0361000Y0108500D01*
X0366000Y0108500D02*
X0368500Y0111000D01*
X0368500Y0116000D01*
X0366000Y0118500D01*
X0368500Y0121000D01*
X0368500Y0126000D01*
X0366000Y0128500D01*
X0361000Y0128500D01*
X0358500Y0126000D01*
X0361000Y0118500D02*
X0366000Y0118500D01*
X0366000Y0098500D02*
X0361000Y0098500D01*
X0361000Y0088500D02*
X0366000Y0088500D01*
X0366000Y0068500D02*
X0361000Y0068500D01*
X0361000Y0058500D02*
X0366000Y0058500D01*
X0366000Y0038500D02*
X0361000Y0038500D01*
D12*
X0370950Y0037658D02*
X0373953Y0040660D01*
X0374703Y0040660D01*
X0375454Y0039910D01*
X0375454Y0038408D01*
X0374703Y0037658D01*
X0374703Y0036056D02*
X0373202Y0036056D01*
X0372451Y0035306D01*
X0372451Y0033054D01*
X0370950Y0033054D02*
X0375454Y0033054D01*
X0375454Y0035306D01*
X0374703Y0036056D01*
X0370950Y0037658D02*
X0370950Y0040660D01*
X0375454Y0031453D02*
X0375454Y0029951D01*
X0375454Y0030702D02*
X0371701Y0030702D01*
X0370950Y0029951D01*
X0370950Y0029201D01*
X0371701Y0028450D01*
X0050454Y0029951D02*
X0050454Y0031453D01*
X0050454Y0030702D02*
X0046701Y0030702D01*
X0045950Y0029951D01*
X0045950Y0029201D01*
X0046701Y0028450D01*
X0047451Y0033054D02*
X0047451Y0035306D01*
X0048202Y0036056D01*
X0049703Y0036056D01*
X0050454Y0035306D01*
X0050454Y0033054D01*
X0045950Y0033054D01*
X0045950Y0037658D02*
X0045950Y0040660D01*
X0045950Y0039159D02*
X0050454Y0039159D01*
X0048953Y0037658D01*
M02*
