G75*
%MOIN*%
%OFA0B0*%
%FSLAX25Y25*%
%IPPOS*%
%LPD*%
%AMOC8*
5,1,8,0,0,1.08239X$1,22.5*
%
%ADD10C,0.00000*%
%ADD11C,0.00500*%
%ADD12C,0.00400*%
%ADD13C,0.00600*%
D10*
X0001000Y0001000D02*
X0001000Y0155961D01*
X0389701Y0155961D01*
X0389701Y0001000D01*
X0001000Y0001000D01*
D11*
X0011250Y0004250D02*
X0011250Y0008754D01*
X0013502Y0008754D01*
X0014253Y0008003D01*
X0014253Y0006502D01*
X0013502Y0005751D01*
X0011250Y0005751D01*
X0012751Y0005751D02*
X0014253Y0004250D01*
X0018106Y0004250D02*
X0018106Y0008754D01*
X0015854Y0006502D01*
X0018856Y0006502D01*
X0001512Y0013283D02*
X0001512Y0075488D01*
X0063717Y0075488D01*
X0063717Y0026000D01*
X0051000Y0013283D01*
X0001512Y0013283D01*
X0049542Y0007754D02*
X0049542Y0003250D01*
X0049542Y0004751D02*
X0051794Y0004751D01*
X0052545Y0005502D01*
X0052545Y0007003D01*
X0051794Y0007754D01*
X0049542Y0007754D01*
X0051043Y0004751D02*
X0052545Y0003250D01*
X0054146Y0004001D02*
X0054897Y0003250D01*
X0056398Y0003250D01*
X0057149Y0004001D01*
X0057149Y0005502D01*
X0056398Y0006253D01*
X0055647Y0006253D01*
X0054146Y0005502D01*
X0054146Y0007754D01*
X0057149Y0007754D01*
X0066512Y0013283D02*
X0066512Y0075488D01*
X0128717Y0075488D01*
X0128717Y0026000D01*
X0116000Y0013283D01*
X0066512Y0013283D01*
X0087042Y0007754D02*
X0089294Y0007754D01*
X0090045Y0007003D01*
X0090045Y0005502D01*
X0089294Y0004751D01*
X0087042Y0004751D01*
X0087042Y0003250D02*
X0087042Y0007754D01*
X0088543Y0004751D02*
X0090045Y0003250D01*
X0091646Y0003250D02*
X0094649Y0003250D01*
X0093147Y0003250D02*
X0093147Y0007754D01*
X0091646Y0006253D01*
X0126250Y0005751D02*
X0128502Y0005751D01*
X0129253Y0006502D01*
X0129253Y0008003D01*
X0128502Y0008754D01*
X0126250Y0008754D01*
X0126250Y0004250D01*
X0127751Y0005751D02*
X0129253Y0004250D01*
X0130854Y0004250D02*
X0133856Y0004250D01*
X0132355Y0004250D02*
X0132355Y0008754D01*
X0130854Y0007253D01*
X0135458Y0007253D02*
X0135458Y0008003D01*
X0136208Y0008754D01*
X0137710Y0008754D01*
X0138460Y0008003D01*
X0138460Y0005001D01*
X0137710Y0004250D01*
X0136208Y0004250D01*
X0135458Y0005001D01*
X0136208Y0006502D02*
X0138460Y0006502D01*
X0136208Y0006502D02*
X0135458Y0007253D01*
X0131512Y0013283D02*
X0131512Y0075488D01*
X0193717Y0075488D01*
X0193717Y0026000D01*
X0181000Y0013283D01*
X0131512Y0013283D01*
X0164938Y0007754D02*
X0164938Y0003250D01*
X0164938Y0004751D02*
X0167190Y0004751D01*
X0167941Y0005502D01*
X0167941Y0007003D01*
X0167190Y0007754D01*
X0164938Y0007754D01*
X0166439Y0004751D02*
X0167941Y0003250D01*
X0169542Y0003250D02*
X0172545Y0006253D01*
X0172545Y0007003D01*
X0171794Y0007754D01*
X0170293Y0007754D01*
X0169542Y0007003D01*
X0174146Y0007003D02*
X0174897Y0007754D01*
X0176398Y0007754D01*
X0177149Y0007003D01*
X0174146Y0004001D01*
X0174897Y0003250D01*
X0176398Y0003250D01*
X0177149Y0004001D01*
X0177149Y0007003D01*
X0174146Y0007003D02*
X0174146Y0004001D01*
X0172545Y0003250D02*
X0169542Y0003250D01*
X0196512Y0013283D02*
X0196512Y0075488D01*
X0258717Y0075488D01*
X0258717Y0026000D01*
X0246000Y0013283D01*
X0196512Y0013283D01*
X0206250Y0008754D02*
X0208502Y0008754D01*
X0209253Y0008003D01*
X0209253Y0006502D01*
X0208502Y0005751D01*
X0206250Y0005751D01*
X0206250Y0004250D02*
X0206250Y0008754D01*
X0210854Y0008003D02*
X0211605Y0008754D01*
X0213106Y0008754D01*
X0213856Y0008003D01*
X0213856Y0007253D01*
X0213106Y0006502D01*
X0213856Y0005751D01*
X0213856Y0005001D01*
X0213106Y0004250D01*
X0211605Y0004250D01*
X0210854Y0005001D01*
X0209253Y0004250D02*
X0207751Y0005751D01*
X0212355Y0006502D02*
X0213106Y0006502D01*
X0215458Y0006502D02*
X0217710Y0008754D01*
X0217710Y0004250D01*
X0218460Y0006502D02*
X0215458Y0006502D01*
X0244938Y0007754D02*
X0244938Y0003250D01*
X0244938Y0004751D02*
X0247190Y0004751D01*
X0247941Y0005502D01*
X0247941Y0007003D01*
X0247190Y0007754D01*
X0244938Y0007754D01*
X0246439Y0004751D02*
X0247941Y0003250D01*
X0249542Y0004001D02*
X0250293Y0003250D01*
X0251794Y0003250D01*
X0252545Y0004001D01*
X0252545Y0004751D01*
X0251794Y0005502D01*
X0251043Y0005502D01*
X0251794Y0005502D02*
X0252545Y0006253D01*
X0252545Y0007003D01*
X0251794Y0007754D01*
X0250293Y0007754D01*
X0249542Y0007003D01*
X0254146Y0007754D02*
X0254146Y0005502D01*
X0255647Y0006253D01*
X0256398Y0006253D01*
X0257149Y0005502D01*
X0257149Y0004001D01*
X0256398Y0003250D01*
X0254897Y0003250D01*
X0254146Y0004001D01*
X0254146Y0007754D02*
X0257149Y0007754D01*
X0261512Y0013283D02*
X0261512Y0075488D01*
X0323717Y0075488D01*
X0323717Y0026000D01*
X0311000Y0013283D01*
X0261512Y0013283D01*
X0284938Y0007754D02*
X0284938Y0003250D01*
X0284938Y0004751D02*
X0287190Y0004751D01*
X0287941Y0005502D01*
X0287941Y0007003D01*
X0287190Y0007754D01*
X0284938Y0007754D01*
X0286439Y0004751D02*
X0287941Y0003250D01*
X0289542Y0004001D02*
X0290293Y0003250D01*
X0291794Y0003250D01*
X0292545Y0004001D01*
X0292545Y0004751D01*
X0291794Y0005502D01*
X0291043Y0005502D01*
X0291794Y0005502D02*
X0292545Y0006253D01*
X0292545Y0007003D01*
X0291794Y0007754D01*
X0290293Y0007754D01*
X0289542Y0007003D01*
X0294146Y0006253D02*
X0295647Y0007754D01*
X0295647Y0003250D01*
X0294146Y0003250D02*
X0297149Y0003250D01*
X0323750Y0004250D02*
X0323750Y0008754D01*
X0326002Y0008754D01*
X0326753Y0008003D01*
X0326753Y0006502D01*
X0326002Y0005751D01*
X0323750Y0005751D01*
X0325251Y0005751D02*
X0326753Y0004250D01*
X0330606Y0004250D02*
X0330606Y0008754D01*
X0328354Y0006502D01*
X0331356Y0006502D01*
X0332958Y0007253D02*
X0332958Y0008003D01*
X0333708Y0008754D01*
X0335210Y0008754D01*
X0335960Y0008003D01*
X0335960Y0005001D01*
X0335210Y0004250D01*
X0333708Y0004250D01*
X0332958Y0005001D01*
X0333708Y0006502D02*
X0335960Y0006502D01*
X0333708Y0006502D02*
X0332958Y0007253D01*
X0326512Y0013283D02*
X0326512Y0075488D01*
X0388717Y0075488D01*
X0388717Y0026000D01*
X0376000Y0013283D01*
X0326512Y0013283D01*
X0359938Y0007754D02*
X0359938Y0003250D01*
X0359938Y0004751D02*
X0362190Y0004751D01*
X0362941Y0005502D01*
X0362941Y0007003D01*
X0362190Y0007754D01*
X0359938Y0007754D01*
X0361439Y0004751D02*
X0362941Y0003250D01*
X0364542Y0004001D02*
X0365293Y0003250D01*
X0366794Y0003250D01*
X0367545Y0004001D01*
X0367545Y0005502D01*
X0366794Y0006253D01*
X0366043Y0006253D01*
X0364542Y0005502D01*
X0364542Y0007754D01*
X0367545Y0007754D01*
X0369146Y0007003D02*
X0369897Y0007754D01*
X0371398Y0007754D01*
X0372149Y0007003D01*
X0369146Y0004001D01*
X0369897Y0003250D01*
X0371398Y0003250D01*
X0372149Y0004001D01*
X0372149Y0007003D01*
X0369146Y0007003D02*
X0369146Y0004001D01*
X0376000Y0083283D02*
X0326512Y0083283D01*
X0326512Y0145488D01*
X0388717Y0145488D01*
X0388717Y0096000D01*
X0376000Y0083283D01*
X0323717Y0096000D02*
X0323717Y0145488D01*
X0261512Y0145488D01*
X0261512Y0083283D01*
X0311000Y0083283D01*
X0323717Y0096000D01*
X0258717Y0096000D02*
X0258717Y0145488D01*
X0196512Y0145488D01*
X0196512Y0083283D01*
X0246000Y0083283D01*
X0258717Y0096000D01*
X0193717Y0096000D02*
X0193717Y0145488D01*
X0131512Y0145488D01*
X0131512Y0083283D01*
X0181000Y0083283D01*
X0193717Y0096000D01*
X0128717Y0096000D02*
X0128717Y0145488D01*
X0066512Y0145488D01*
X0066512Y0083283D01*
X0116000Y0083283D01*
X0128717Y0096000D01*
X0063717Y0096000D02*
X0063717Y0145488D01*
X0001512Y0145488D01*
X0001512Y0083283D01*
X0051000Y0083283D01*
X0063717Y0096000D01*
X0079938Y0148250D02*
X0079938Y0152754D01*
X0082190Y0152754D01*
X0082941Y0152003D01*
X0082941Y0150502D01*
X0082190Y0149751D01*
X0079938Y0149751D01*
X0081439Y0149751D02*
X0082941Y0148250D01*
X0084542Y0148250D02*
X0087545Y0148250D01*
X0086043Y0148250D02*
X0086043Y0152754D01*
X0084542Y0151253D01*
X0089146Y0150502D02*
X0091398Y0150502D01*
X0092149Y0149751D01*
X0092149Y0149001D01*
X0091398Y0148250D01*
X0089897Y0148250D01*
X0089146Y0149001D01*
X0089146Y0150502D01*
X0090647Y0152003D01*
X0092149Y0152754D01*
X0141250Y0153754D02*
X0141250Y0149250D01*
X0141250Y0150751D02*
X0143502Y0150751D01*
X0144253Y0151502D01*
X0144253Y0153003D01*
X0143502Y0153754D01*
X0141250Y0153754D01*
X0142751Y0150751D02*
X0144253Y0149250D01*
X0145854Y0149250D02*
X0148856Y0152253D01*
X0148856Y0153003D01*
X0148106Y0153754D01*
X0146605Y0153754D01*
X0145854Y0153003D01*
X0150458Y0153003D02*
X0150458Y0152253D01*
X0151208Y0151502D01*
X0152710Y0151502D01*
X0153460Y0150751D01*
X0153460Y0150001D01*
X0152710Y0149250D01*
X0151208Y0149250D01*
X0150458Y0150001D01*
X0150458Y0150751D01*
X0151208Y0151502D01*
X0152710Y0151502D02*
X0153460Y0152253D01*
X0153460Y0153003D01*
X0152710Y0153754D01*
X0151208Y0153754D01*
X0150458Y0153003D01*
X0148856Y0149250D02*
X0145854Y0149250D01*
X0209938Y0149751D02*
X0212190Y0149751D01*
X0212941Y0150502D01*
X0212941Y0152003D01*
X0212190Y0152754D01*
X0209938Y0152754D01*
X0209938Y0148250D01*
X0211439Y0149751D02*
X0212941Y0148250D01*
X0214542Y0150502D02*
X0217545Y0150502D01*
X0219146Y0152003D02*
X0219897Y0152754D01*
X0221398Y0152754D01*
X0222149Y0152003D01*
X0222149Y0151253D01*
X0221398Y0150502D01*
X0222149Y0149751D01*
X0222149Y0149001D01*
X0221398Y0148250D01*
X0219897Y0148250D01*
X0219146Y0149001D01*
X0220647Y0150502D02*
X0221398Y0150502D01*
X0216794Y0148250D02*
X0216794Y0152754D01*
X0214542Y0150502D01*
X0274938Y0149751D02*
X0277190Y0149751D01*
X0277941Y0150502D01*
X0277941Y0152003D01*
X0277190Y0152754D01*
X0274938Y0152754D01*
X0274938Y0148250D01*
X0276439Y0149751D02*
X0277941Y0148250D01*
X0279542Y0150502D02*
X0282545Y0150502D01*
X0284146Y0150502D02*
X0286398Y0150502D01*
X0287149Y0149751D01*
X0287149Y0149001D01*
X0286398Y0148250D01*
X0284897Y0148250D01*
X0284146Y0149001D01*
X0284146Y0150502D01*
X0285647Y0152003D01*
X0287149Y0152754D01*
X0281794Y0152754D02*
X0279542Y0150502D01*
X0281794Y0148250D02*
X0281794Y0152754D01*
X0339938Y0152754D02*
X0339938Y0148250D01*
X0339938Y0149751D02*
X0342190Y0149751D01*
X0342941Y0150502D01*
X0342941Y0152003D01*
X0342190Y0152754D01*
X0339938Y0152754D01*
X0341439Y0149751D02*
X0342941Y0148250D01*
X0344542Y0149001D02*
X0345293Y0148250D01*
X0346794Y0148250D01*
X0347545Y0149001D01*
X0347545Y0150502D01*
X0346794Y0151253D01*
X0346043Y0151253D01*
X0344542Y0150502D01*
X0344542Y0152754D01*
X0347545Y0152754D01*
X0349146Y0152003D02*
X0349146Y0151253D01*
X0349897Y0150502D01*
X0351398Y0150502D01*
X0352149Y0149751D01*
X0352149Y0149001D01*
X0351398Y0148250D01*
X0349897Y0148250D01*
X0349146Y0149001D01*
X0349146Y0149751D01*
X0349897Y0150502D01*
X0351398Y0150502D02*
X0352149Y0151253D01*
X0352149Y0152003D01*
X0351398Y0152754D01*
X0349897Y0152754D01*
X0349146Y0152003D01*
X0024649Y0152003D02*
X0024649Y0151253D01*
X0023898Y0150502D01*
X0024649Y0149751D01*
X0024649Y0149001D01*
X0023898Y0148250D01*
X0022397Y0148250D01*
X0021646Y0149001D01*
X0020045Y0148250D02*
X0017042Y0148250D01*
X0018543Y0148250D02*
X0018543Y0152754D01*
X0017042Y0151253D01*
X0015441Y0152003D02*
X0015441Y0150502D01*
X0014690Y0149751D01*
X0012438Y0149751D01*
X0012438Y0148250D02*
X0012438Y0152754D01*
X0014690Y0152754D01*
X0015441Y0152003D01*
X0013939Y0149751D02*
X0015441Y0148250D01*
X0021646Y0152003D02*
X0022397Y0152754D01*
X0023898Y0152754D01*
X0024649Y0152003D01*
X0023898Y0150502D02*
X0023147Y0150502D01*
D12*
X0023502Y0135804D02*
X0023502Y0131967D01*
X0022735Y0131200D01*
X0021967Y0131200D01*
X0021200Y0131967D01*
X0025804Y0131967D02*
X0026571Y0131200D01*
X0028106Y0131200D01*
X0028873Y0131967D01*
X0028873Y0132735D01*
X0028106Y0133502D01*
X0027339Y0133502D01*
X0028106Y0133502D02*
X0028873Y0134269D01*
X0028873Y0135037D01*
X0028106Y0135804D01*
X0026571Y0135804D01*
X0025804Y0135037D01*
X0024269Y0135804D02*
X0022735Y0135804D01*
X0086200Y0131967D02*
X0086967Y0131200D01*
X0087735Y0131200D01*
X0088502Y0131967D01*
X0088502Y0135804D01*
X0087735Y0135804D02*
X0089269Y0135804D01*
X0090804Y0133502D02*
X0093873Y0133502D01*
X0093106Y0135804D02*
X0090804Y0133502D01*
X0093106Y0131200D02*
X0093106Y0135804D01*
X0151200Y0131967D02*
X0151967Y0131200D01*
X0152735Y0131200D01*
X0153502Y0131967D01*
X0153502Y0135804D01*
X0152735Y0135804D02*
X0154269Y0135804D01*
X0155804Y0133502D02*
X0158106Y0133502D01*
X0158873Y0132735D01*
X0158873Y0131967D01*
X0158106Y0131200D01*
X0156571Y0131200D01*
X0155804Y0131967D01*
X0155804Y0133502D01*
X0157339Y0135037D01*
X0158873Y0135804D01*
X0216200Y0131967D02*
X0216967Y0131200D01*
X0217735Y0131200D01*
X0218502Y0131967D01*
X0218502Y0135804D01*
X0217735Y0135804D02*
X0219269Y0135804D01*
X0220804Y0135037D02*
X0220804Y0134269D01*
X0221571Y0133502D01*
X0223873Y0133502D01*
X0223873Y0131967D02*
X0223873Y0135037D01*
X0223106Y0135804D01*
X0221571Y0135804D01*
X0220804Y0135037D01*
X0220804Y0131967D02*
X0221571Y0131200D01*
X0223106Y0131200D01*
X0223873Y0131967D01*
X0281200Y0131967D02*
X0281967Y0131200D01*
X0282735Y0131200D01*
X0283502Y0131967D01*
X0283502Y0135804D01*
X0282735Y0135804D02*
X0284269Y0135804D01*
X0285804Y0134269D02*
X0287339Y0135804D01*
X0287339Y0131200D01*
X0288873Y0131200D02*
X0285804Y0131200D01*
X0290408Y0131967D02*
X0293477Y0135037D01*
X0293477Y0131967D01*
X0292710Y0131200D01*
X0291175Y0131200D01*
X0290408Y0131967D01*
X0290408Y0135037D01*
X0291175Y0135804D01*
X0292710Y0135804D01*
X0293477Y0135037D01*
X0346200Y0131967D02*
X0346967Y0131200D01*
X0347735Y0131200D01*
X0348502Y0131967D01*
X0348502Y0135804D01*
X0347735Y0135804D02*
X0349269Y0135804D01*
X0350804Y0134269D02*
X0352339Y0135804D01*
X0352339Y0131200D01*
X0353873Y0131200D02*
X0350804Y0131200D01*
X0355408Y0131200D02*
X0358477Y0134269D01*
X0358477Y0135037D01*
X0357710Y0135804D01*
X0356175Y0135804D01*
X0355408Y0135037D01*
X0355408Y0131200D02*
X0358477Y0131200D01*
X0356942Y0065804D02*
X0356942Y0061200D01*
X0355408Y0061200D02*
X0358477Y0061200D01*
X0353873Y0061200D02*
X0350804Y0061200D01*
X0352339Y0061200D02*
X0352339Y0065804D01*
X0350804Y0064269D01*
X0349269Y0065804D02*
X0347735Y0065804D01*
X0348502Y0065804D02*
X0348502Y0061967D01*
X0347735Y0061200D01*
X0346967Y0061200D01*
X0346200Y0061967D01*
X0355408Y0064269D02*
X0356942Y0065804D01*
X0288873Y0065804D02*
X0288873Y0065037D01*
X0285804Y0061967D01*
X0285804Y0061200D01*
X0283502Y0061967D02*
X0283502Y0065804D01*
X0282735Y0065804D02*
X0284269Y0065804D01*
X0285804Y0065804D02*
X0288873Y0065804D01*
X0283502Y0061967D02*
X0282735Y0061200D01*
X0281967Y0061200D01*
X0281200Y0061967D01*
X0223873Y0061967D02*
X0223106Y0061200D01*
X0221571Y0061200D01*
X0220804Y0061967D01*
X0220804Y0062735D01*
X0221571Y0063502D01*
X0223106Y0063502D01*
X0223873Y0062735D01*
X0223873Y0061967D01*
X0223106Y0063502D02*
X0223873Y0064269D01*
X0223873Y0065037D01*
X0223106Y0065804D01*
X0221571Y0065804D01*
X0220804Y0065037D01*
X0220804Y0064269D01*
X0221571Y0063502D01*
X0219269Y0065804D02*
X0217735Y0065804D01*
X0218502Y0065804D02*
X0218502Y0061967D01*
X0217735Y0061200D01*
X0216967Y0061200D01*
X0216200Y0061967D01*
X0158873Y0061967D02*
X0158106Y0061200D01*
X0156571Y0061200D01*
X0155804Y0061967D01*
X0155804Y0063502D02*
X0157339Y0064269D01*
X0158106Y0064269D01*
X0158873Y0063502D01*
X0158873Y0061967D01*
X0155804Y0063502D02*
X0155804Y0065804D01*
X0158873Y0065804D01*
X0154269Y0065804D02*
X0152735Y0065804D01*
X0153502Y0065804D02*
X0153502Y0061967D01*
X0152735Y0061200D01*
X0151967Y0061200D01*
X0151200Y0061967D01*
X0093873Y0061200D02*
X0090804Y0061200D01*
X0092339Y0061200D02*
X0092339Y0065804D01*
X0090804Y0064269D01*
X0089269Y0065804D02*
X0087735Y0065804D01*
X0088502Y0065804D02*
X0088502Y0061967D01*
X0087735Y0061200D01*
X0086967Y0061200D01*
X0086200Y0061967D01*
X0028873Y0061200D02*
X0025804Y0061200D01*
X0028873Y0064269D01*
X0028873Y0065037D01*
X0028106Y0065804D01*
X0026571Y0065804D01*
X0025804Y0065037D01*
X0024269Y0065804D02*
X0022735Y0065804D01*
X0023502Y0065804D02*
X0023502Y0061967D01*
X0022735Y0061200D01*
X0021967Y0061200D01*
X0021200Y0061967D01*
D13*
X0031000Y0010500D02*
X0032500Y0010500D01*
X0032560Y0010498D01*
X0032621Y0010493D01*
X0032680Y0010484D01*
X0032739Y0010471D01*
X0032798Y0010455D01*
X0032855Y0010435D01*
X0032910Y0010412D01*
X0032965Y0010385D01*
X0033017Y0010356D01*
X0033068Y0010323D01*
X0033117Y0010287D01*
X0033163Y0010249D01*
X0033207Y0010207D01*
X0033249Y0010163D01*
X0033287Y0010117D01*
X0033323Y0010068D01*
X0033356Y0010017D01*
X0033385Y0009965D01*
X0033412Y0009910D01*
X0033435Y0009855D01*
X0033455Y0009798D01*
X0033471Y0009739D01*
X0033484Y0009680D01*
X0033493Y0009621D01*
X0033498Y0009560D01*
X0033500Y0009500D01*
X0031000Y0010500D02*
X0030500Y0010000D01*
X0011500Y0010000D01*
X0011000Y0010500D01*
X0009500Y0010500D01*
X0009440Y0010498D01*
X0009379Y0010493D01*
X0009320Y0010484D01*
X0009261Y0010471D01*
X0009202Y0010455D01*
X0009145Y0010435D01*
X0009090Y0010412D01*
X0009035Y0010385D01*
X0008983Y0010356D01*
X0008932Y0010323D01*
X0008883Y0010287D01*
X0008837Y0010249D01*
X0008793Y0010207D01*
X0008751Y0010163D01*
X0008713Y0010117D01*
X0008677Y0010068D01*
X0008644Y0010017D01*
X0008615Y0009965D01*
X0008588Y0009910D01*
X0008565Y0009855D01*
X0008545Y0009798D01*
X0008529Y0009739D01*
X0008516Y0009680D01*
X0008507Y0009621D01*
X0008502Y0009560D01*
X0008500Y0009500D01*
X0008500Y0002500D02*
X0008502Y0002440D01*
X0008507Y0002379D01*
X0008516Y0002320D01*
X0008529Y0002261D01*
X0008545Y0002202D01*
X0008565Y0002145D01*
X0008588Y0002090D01*
X0008615Y0002035D01*
X0008644Y0001983D01*
X0008677Y0001932D01*
X0008713Y0001883D01*
X0008751Y0001837D01*
X0008793Y0001793D01*
X0008837Y0001751D01*
X0008883Y0001713D01*
X0008932Y0001677D01*
X0008983Y0001644D01*
X0009035Y0001615D01*
X0009090Y0001588D01*
X0009145Y0001565D01*
X0009202Y0001545D01*
X0009261Y0001529D01*
X0009320Y0001516D01*
X0009379Y0001507D01*
X0009440Y0001502D01*
X0009500Y0001500D01*
X0011000Y0001500D01*
X0011500Y0002000D01*
X0030500Y0002000D01*
X0031000Y0001500D01*
X0032500Y0001500D01*
X0032560Y0001502D01*
X0032621Y0001507D01*
X0032680Y0001516D01*
X0032739Y0001529D01*
X0032798Y0001545D01*
X0032855Y0001565D01*
X0032910Y0001588D01*
X0032965Y0001615D01*
X0033017Y0001644D01*
X0033068Y0001677D01*
X0033117Y0001713D01*
X0033163Y0001751D01*
X0033207Y0001793D01*
X0033249Y0001837D01*
X0033287Y0001883D01*
X0033323Y0001932D01*
X0033356Y0001983D01*
X0033385Y0002035D01*
X0033412Y0002090D01*
X0033435Y0002145D01*
X0033455Y0002202D01*
X0033471Y0002261D01*
X0033484Y0002320D01*
X0033493Y0002379D01*
X0033498Y0002440D01*
X0033500Y0002500D01*
X0046000Y0002500D02*
X0046002Y0002440D01*
X0046007Y0002379D01*
X0046016Y0002320D01*
X0046029Y0002261D01*
X0046045Y0002202D01*
X0046065Y0002145D01*
X0046088Y0002090D01*
X0046115Y0002035D01*
X0046144Y0001983D01*
X0046177Y0001932D01*
X0046213Y0001883D01*
X0046251Y0001837D01*
X0046293Y0001793D01*
X0046337Y0001751D01*
X0046383Y0001713D01*
X0046432Y0001677D01*
X0046483Y0001644D01*
X0046535Y0001615D01*
X0046590Y0001588D01*
X0046645Y0001565D01*
X0046702Y0001545D01*
X0046761Y0001529D01*
X0046820Y0001516D01*
X0046879Y0001507D01*
X0046940Y0001502D01*
X0047000Y0001500D01*
X0048500Y0001500D01*
X0049000Y0002000D01*
X0068000Y0002000D01*
X0068500Y0001500D01*
X0070000Y0001500D01*
X0070060Y0001502D01*
X0070121Y0001507D01*
X0070180Y0001516D01*
X0070239Y0001529D01*
X0070298Y0001545D01*
X0070355Y0001565D01*
X0070410Y0001588D01*
X0070465Y0001615D01*
X0070517Y0001644D01*
X0070568Y0001677D01*
X0070617Y0001713D01*
X0070663Y0001751D01*
X0070707Y0001793D01*
X0070749Y0001837D01*
X0070787Y0001883D01*
X0070823Y0001932D01*
X0070856Y0001983D01*
X0070885Y0002035D01*
X0070912Y0002090D01*
X0070935Y0002145D01*
X0070955Y0002202D01*
X0070971Y0002261D01*
X0070984Y0002320D01*
X0070993Y0002379D01*
X0070998Y0002440D01*
X0071000Y0002500D01*
X0083500Y0002500D02*
X0083502Y0002440D01*
X0083507Y0002379D01*
X0083516Y0002320D01*
X0083529Y0002261D01*
X0083545Y0002202D01*
X0083565Y0002145D01*
X0083588Y0002090D01*
X0083615Y0002035D01*
X0083644Y0001983D01*
X0083677Y0001932D01*
X0083713Y0001883D01*
X0083751Y0001837D01*
X0083793Y0001793D01*
X0083837Y0001751D01*
X0083883Y0001713D01*
X0083932Y0001677D01*
X0083983Y0001644D01*
X0084035Y0001615D01*
X0084090Y0001588D01*
X0084145Y0001565D01*
X0084202Y0001545D01*
X0084261Y0001529D01*
X0084320Y0001516D01*
X0084379Y0001507D01*
X0084440Y0001502D01*
X0084500Y0001500D01*
X0086000Y0001500D01*
X0086500Y0002000D01*
X0105500Y0002000D01*
X0106000Y0001500D01*
X0107500Y0001500D01*
X0107560Y0001502D01*
X0107621Y0001507D01*
X0107680Y0001516D01*
X0107739Y0001529D01*
X0107798Y0001545D01*
X0107855Y0001565D01*
X0107910Y0001588D01*
X0107965Y0001615D01*
X0108017Y0001644D01*
X0108068Y0001677D01*
X0108117Y0001713D01*
X0108163Y0001751D01*
X0108207Y0001793D01*
X0108249Y0001837D01*
X0108287Y0001883D01*
X0108323Y0001932D01*
X0108356Y0001983D01*
X0108385Y0002035D01*
X0108412Y0002090D01*
X0108435Y0002145D01*
X0108455Y0002202D01*
X0108471Y0002261D01*
X0108484Y0002320D01*
X0108493Y0002379D01*
X0108498Y0002440D01*
X0108500Y0002500D01*
X0123500Y0002500D02*
X0123502Y0002440D01*
X0123507Y0002379D01*
X0123516Y0002320D01*
X0123529Y0002261D01*
X0123545Y0002202D01*
X0123565Y0002145D01*
X0123588Y0002090D01*
X0123615Y0002035D01*
X0123644Y0001983D01*
X0123677Y0001932D01*
X0123713Y0001883D01*
X0123751Y0001837D01*
X0123793Y0001793D01*
X0123837Y0001751D01*
X0123883Y0001713D01*
X0123932Y0001677D01*
X0123983Y0001644D01*
X0124035Y0001615D01*
X0124090Y0001588D01*
X0124145Y0001565D01*
X0124202Y0001545D01*
X0124261Y0001529D01*
X0124320Y0001516D01*
X0124379Y0001507D01*
X0124440Y0001502D01*
X0124500Y0001500D01*
X0126000Y0001500D01*
X0126500Y0002000D01*
X0145500Y0002000D01*
X0146000Y0001500D01*
X0147500Y0001500D01*
X0147560Y0001502D01*
X0147621Y0001507D01*
X0147680Y0001516D01*
X0147739Y0001529D01*
X0147798Y0001545D01*
X0147855Y0001565D01*
X0147910Y0001588D01*
X0147965Y0001615D01*
X0148017Y0001644D01*
X0148068Y0001677D01*
X0148117Y0001713D01*
X0148163Y0001751D01*
X0148207Y0001793D01*
X0148249Y0001837D01*
X0148287Y0001883D01*
X0148323Y0001932D01*
X0148356Y0001983D01*
X0148385Y0002035D01*
X0148412Y0002090D01*
X0148435Y0002145D01*
X0148455Y0002202D01*
X0148471Y0002261D01*
X0148484Y0002320D01*
X0148493Y0002379D01*
X0148498Y0002440D01*
X0148500Y0002500D01*
X0148500Y0009500D02*
X0148498Y0009560D01*
X0148493Y0009621D01*
X0148484Y0009680D01*
X0148471Y0009739D01*
X0148455Y0009798D01*
X0148435Y0009855D01*
X0148412Y0009910D01*
X0148385Y0009965D01*
X0148356Y0010017D01*
X0148323Y0010068D01*
X0148287Y0010117D01*
X0148249Y0010163D01*
X0148207Y0010207D01*
X0148163Y0010249D01*
X0148117Y0010287D01*
X0148068Y0010323D01*
X0148017Y0010356D01*
X0147965Y0010385D01*
X0147910Y0010412D01*
X0147855Y0010435D01*
X0147798Y0010455D01*
X0147739Y0010471D01*
X0147680Y0010484D01*
X0147621Y0010493D01*
X0147560Y0010498D01*
X0147500Y0010500D01*
X0146000Y0010500D01*
X0145500Y0010000D01*
X0126500Y0010000D01*
X0126000Y0010500D01*
X0124500Y0010500D01*
X0124440Y0010498D01*
X0124379Y0010493D01*
X0124320Y0010484D01*
X0124261Y0010471D01*
X0124202Y0010455D01*
X0124145Y0010435D01*
X0124090Y0010412D01*
X0124035Y0010385D01*
X0123983Y0010356D01*
X0123932Y0010323D01*
X0123883Y0010287D01*
X0123837Y0010249D01*
X0123793Y0010207D01*
X0123751Y0010163D01*
X0123713Y0010117D01*
X0123677Y0010068D01*
X0123644Y0010017D01*
X0123615Y0009965D01*
X0123588Y0009910D01*
X0123565Y0009855D01*
X0123545Y0009798D01*
X0123529Y0009739D01*
X0123516Y0009680D01*
X0123507Y0009621D01*
X0123502Y0009560D01*
X0123500Y0009500D01*
X0108500Y0009500D02*
X0108498Y0009560D01*
X0108493Y0009621D01*
X0108484Y0009680D01*
X0108471Y0009739D01*
X0108455Y0009798D01*
X0108435Y0009855D01*
X0108412Y0009910D01*
X0108385Y0009965D01*
X0108356Y0010017D01*
X0108323Y0010068D01*
X0108287Y0010117D01*
X0108249Y0010163D01*
X0108207Y0010207D01*
X0108163Y0010249D01*
X0108117Y0010287D01*
X0108068Y0010323D01*
X0108017Y0010356D01*
X0107965Y0010385D01*
X0107910Y0010412D01*
X0107855Y0010435D01*
X0107798Y0010455D01*
X0107739Y0010471D01*
X0107680Y0010484D01*
X0107621Y0010493D01*
X0107560Y0010498D01*
X0107500Y0010500D01*
X0106000Y0010500D01*
X0105500Y0010000D01*
X0086500Y0010000D01*
X0086000Y0010500D01*
X0084500Y0010500D01*
X0084440Y0010498D01*
X0084379Y0010493D01*
X0084320Y0010484D01*
X0084261Y0010471D01*
X0084202Y0010455D01*
X0084145Y0010435D01*
X0084090Y0010412D01*
X0084035Y0010385D01*
X0083983Y0010356D01*
X0083932Y0010323D01*
X0083883Y0010287D01*
X0083837Y0010249D01*
X0083793Y0010207D01*
X0083751Y0010163D01*
X0083713Y0010117D01*
X0083677Y0010068D01*
X0083644Y0010017D01*
X0083615Y0009965D01*
X0083588Y0009910D01*
X0083565Y0009855D01*
X0083545Y0009798D01*
X0083529Y0009739D01*
X0083516Y0009680D01*
X0083507Y0009621D01*
X0083502Y0009560D01*
X0083500Y0009500D01*
X0071000Y0009500D02*
X0070998Y0009560D01*
X0070993Y0009621D01*
X0070984Y0009680D01*
X0070971Y0009739D01*
X0070955Y0009798D01*
X0070935Y0009855D01*
X0070912Y0009910D01*
X0070885Y0009965D01*
X0070856Y0010017D01*
X0070823Y0010068D01*
X0070787Y0010117D01*
X0070749Y0010163D01*
X0070707Y0010207D01*
X0070663Y0010249D01*
X0070617Y0010287D01*
X0070568Y0010323D01*
X0070517Y0010356D01*
X0070465Y0010385D01*
X0070410Y0010412D01*
X0070355Y0010435D01*
X0070298Y0010455D01*
X0070239Y0010471D01*
X0070180Y0010484D01*
X0070121Y0010493D01*
X0070060Y0010498D01*
X0070000Y0010500D01*
X0068500Y0010500D01*
X0068000Y0010000D01*
X0049000Y0010000D01*
X0048500Y0010500D01*
X0047000Y0010500D01*
X0046940Y0010498D01*
X0046879Y0010493D01*
X0046820Y0010484D01*
X0046761Y0010471D01*
X0046702Y0010455D01*
X0046645Y0010435D01*
X0046590Y0010412D01*
X0046535Y0010385D01*
X0046483Y0010356D01*
X0046432Y0010323D01*
X0046383Y0010287D01*
X0046337Y0010249D01*
X0046293Y0010207D01*
X0046251Y0010163D01*
X0046213Y0010117D01*
X0046177Y0010068D01*
X0046144Y0010017D01*
X0046115Y0009965D01*
X0046088Y0009910D01*
X0046065Y0009855D01*
X0046045Y0009798D01*
X0046029Y0009739D01*
X0046016Y0009680D01*
X0046007Y0009621D01*
X0046002Y0009560D01*
X0046000Y0009500D01*
X0163500Y0009500D02*
X0163502Y0009560D01*
X0163507Y0009621D01*
X0163516Y0009680D01*
X0163529Y0009739D01*
X0163545Y0009798D01*
X0163565Y0009855D01*
X0163588Y0009910D01*
X0163615Y0009965D01*
X0163644Y0010017D01*
X0163677Y0010068D01*
X0163713Y0010117D01*
X0163751Y0010163D01*
X0163793Y0010207D01*
X0163837Y0010249D01*
X0163883Y0010287D01*
X0163932Y0010323D01*
X0163983Y0010356D01*
X0164035Y0010385D01*
X0164090Y0010412D01*
X0164145Y0010435D01*
X0164202Y0010455D01*
X0164261Y0010471D01*
X0164320Y0010484D01*
X0164379Y0010493D01*
X0164440Y0010498D01*
X0164500Y0010500D01*
X0166000Y0010500D01*
X0166500Y0010000D01*
X0185500Y0010000D01*
X0186000Y0010500D01*
X0187500Y0010500D01*
X0187560Y0010498D01*
X0187621Y0010493D01*
X0187680Y0010484D01*
X0187739Y0010471D01*
X0187798Y0010455D01*
X0187855Y0010435D01*
X0187910Y0010412D01*
X0187965Y0010385D01*
X0188017Y0010356D01*
X0188068Y0010323D01*
X0188117Y0010287D01*
X0188163Y0010249D01*
X0188207Y0010207D01*
X0188249Y0010163D01*
X0188287Y0010117D01*
X0188323Y0010068D01*
X0188356Y0010017D01*
X0188385Y0009965D01*
X0188412Y0009910D01*
X0188435Y0009855D01*
X0188455Y0009798D01*
X0188471Y0009739D01*
X0188484Y0009680D01*
X0188493Y0009621D01*
X0188498Y0009560D01*
X0188500Y0009500D01*
X0203500Y0009500D02*
X0203502Y0009560D01*
X0203507Y0009621D01*
X0203516Y0009680D01*
X0203529Y0009739D01*
X0203545Y0009798D01*
X0203565Y0009855D01*
X0203588Y0009910D01*
X0203615Y0009965D01*
X0203644Y0010017D01*
X0203677Y0010068D01*
X0203713Y0010117D01*
X0203751Y0010163D01*
X0203793Y0010207D01*
X0203837Y0010249D01*
X0203883Y0010287D01*
X0203932Y0010323D01*
X0203983Y0010356D01*
X0204035Y0010385D01*
X0204090Y0010412D01*
X0204145Y0010435D01*
X0204202Y0010455D01*
X0204261Y0010471D01*
X0204320Y0010484D01*
X0204379Y0010493D01*
X0204440Y0010498D01*
X0204500Y0010500D01*
X0206000Y0010500D01*
X0206500Y0010000D01*
X0225500Y0010000D01*
X0226000Y0010500D01*
X0227500Y0010500D01*
X0227560Y0010498D01*
X0227621Y0010493D01*
X0227680Y0010484D01*
X0227739Y0010471D01*
X0227798Y0010455D01*
X0227855Y0010435D01*
X0227910Y0010412D01*
X0227965Y0010385D01*
X0228017Y0010356D01*
X0228068Y0010323D01*
X0228117Y0010287D01*
X0228163Y0010249D01*
X0228207Y0010207D01*
X0228249Y0010163D01*
X0228287Y0010117D01*
X0228323Y0010068D01*
X0228356Y0010017D01*
X0228385Y0009965D01*
X0228412Y0009910D01*
X0228435Y0009855D01*
X0228455Y0009798D01*
X0228471Y0009739D01*
X0228484Y0009680D01*
X0228493Y0009621D01*
X0228498Y0009560D01*
X0228500Y0009500D01*
X0243500Y0009500D02*
X0243502Y0009560D01*
X0243507Y0009621D01*
X0243516Y0009680D01*
X0243529Y0009739D01*
X0243545Y0009798D01*
X0243565Y0009855D01*
X0243588Y0009910D01*
X0243615Y0009965D01*
X0243644Y0010017D01*
X0243677Y0010068D01*
X0243713Y0010117D01*
X0243751Y0010163D01*
X0243793Y0010207D01*
X0243837Y0010249D01*
X0243883Y0010287D01*
X0243932Y0010323D01*
X0243983Y0010356D01*
X0244035Y0010385D01*
X0244090Y0010412D01*
X0244145Y0010435D01*
X0244202Y0010455D01*
X0244261Y0010471D01*
X0244320Y0010484D01*
X0244379Y0010493D01*
X0244440Y0010498D01*
X0244500Y0010500D01*
X0246000Y0010500D01*
X0246500Y0010000D01*
X0265500Y0010000D01*
X0266000Y0010500D01*
X0267500Y0010500D01*
X0267560Y0010498D01*
X0267621Y0010493D01*
X0267680Y0010484D01*
X0267739Y0010471D01*
X0267798Y0010455D01*
X0267855Y0010435D01*
X0267910Y0010412D01*
X0267965Y0010385D01*
X0268017Y0010356D01*
X0268068Y0010323D01*
X0268117Y0010287D01*
X0268163Y0010249D01*
X0268207Y0010207D01*
X0268249Y0010163D01*
X0268287Y0010117D01*
X0268323Y0010068D01*
X0268356Y0010017D01*
X0268385Y0009965D01*
X0268412Y0009910D01*
X0268435Y0009855D01*
X0268455Y0009798D01*
X0268471Y0009739D01*
X0268484Y0009680D01*
X0268493Y0009621D01*
X0268498Y0009560D01*
X0268500Y0009500D01*
X0283500Y0009500D02*
X0283502Y0009560D01*
X0283507Y0009621D01*
X0283516Y0009680D01*
X0283529Y0009739D01*
X0283545Y0009798D01*
X0283565Y0009855D01*
X0283588Y0009910D01*
X0283615Y0009965D01*
X0283644Y0010017D01*
X0283677Y0010068D01*
X0283713Y0010117D01*
X0283751Y0010163D01*
X0283793Y0010207D01*
X0283837Y0010249D01*
X0283883Y0010287D01*
X0283932Y0010323D01*
X0283983Y0010356D01*
X0284035Y0010385D01*
X0284090Y0010412D01*
X0284145Y0010435D01*
X0284202Y0010455D01*
X0284261Y0010471D01*
X0284320Y0010484D01*
X0284379Y0010493D01*
X0284440Y0010498D01*
X0284500Y0010500D01*
X0286000Y0010500D01*
X0286500Y0010000D01*
X0305500Y0010000D01*
X0306000Y0010500D01*
X0307500Y0010500D01*
X0307560Y0010498D01*
X0307621Y0010493D01*
X0307680Y0010484D01*
X0307739Y0010471D01*
X0307798Y0010455D01*
X0307855Y0010435D01*
X0307910Y0010412D01*
X0307965Y0010385D01*
X0308017Y0010356D01*
X0308068Y0010323D01*
X0308117Y0010287D01*
X0308163Y0010249D01*
X0308207Y0010207D01*
X0308249Y0010163D01*
X0308287Y0010117D01*
X0308323Y0010068D01*
X0308356Y0010017D01*
X0308385Y0009965D01*
X0308412Y0009910D01*
X0308435Y0009855D01*
X0308455Y0009798D01*
X0308471Y0009739D01*
X0308484Y0009680D01*
X0308493Y0009621D01*
X0308498Y0009560D01*
X0308500Y0009500D01*
X0321000Y0009500D02*
X0321002Y0009560D01*
X0321007Y0009621D01*
X0321016Y0009680D01*
X0321029Y0009739D01*
X0321045Y0009798D01*
X0321065Y0009855D01*
X0321088Y0009910D01*
X0321115Y0009965D01*
X0321144Y0010017D01*
X0321177Y0010068D01*
X0321213Y0010117D01*
X0321251Y0010163D01*
X0321293Y0010207D01*
X0321337Y0010249D01*
X0321383Y0010287D01*
X0321432Y0010323D01*
X0321483Y0010356D01*
X0321535Y0010385D01*
X0321590Y0010412D01*
X0321645Y0010435D01*
X0321702Y0010455D01*
X0321761Y0010471D01*
X0321820Y0010484D01*
X0321879Y0010493D01*
X0321940Y0010498D01*
X0322000Y0010500D01*
X0323500Y0010500D01*
X0324000Y0010000D01*
X0343000Y0010000D01*
X0343500Y0010500D01*
X0345000Y0010500D01*
X0345060Y0010498D01*
X0345121Y0010493D01*
X0345180Y0010484D01*
X0345239Y0010471D01*
X0345298Y0010455D01*
X0345355Y0010435D01*
X0345410Y0010412D01*
X0345465Y0010385D01*
X0345517Y0010356D01*
X0345568Y0010323D01*
X0345617Y0010287D01*
X0345663Y0010249D01*
X0345707Y0010207D01*
X0345749Y0010163D01*
X0345787Y0010117D01*
X0345823Y0010068D01*
X0345856Y0010017D01*
X0345885Y0009965D01*
X0345912Y0009910D01*
X0345935Y0009855D01*
X0345955Y0009798D01*
X0345971Y0009739D01*
X0345984Y0009680D01*
X0345993Y0009621D01*
X0345998Y0009560D01*
X0346000Y0009500D01*
X0358500Y0009500D02*
X0358502Y0009560D01*
X0358507Y0009621D01*
X0358516Y0009680D01*
X0358529Y0009739D01*
X0358545Y0009798D01*
X0358565Y0009855D01*
X0358588Y0009910D01*
X0358615Y0009965D01*
X0358644Y0010017D01*
X0358677Y0010068D01*
X0358713Y0010117D01*
X0358751Y0010163D01*
X0358793Y0010207D01*
X0358837Y0010249D01*
X0358883Y0010287D01*
X0358932Y0010323D01*
X0358983Y0010356D01*
X0359035Y0010385D01*
X0359090Y0010412D01*
X0359145Y0010435D01*
X0359202Y0010455D01*
X0359261Y0010471D01*
X0359320Y0010484D01*
X0359379Y0010493D01*
X0359440Y0010498D01*
X0359500Y0010500D01*
X0361000Y0010500D01*
X0361500Y0010000D01*
X0380500Y0010000D01*
X0381000Y0010500D01*
X0382500Y0010500D01*
X0382560Y0010498D01*
X0382621Y0010493D01*
X0382680Y0010484D01*
X0382739Y0010471D01*
X0382798Y0010455D01*
X0382855Y0010435D01*
X0382910Y0010412D01*
X0382965Y0010385D01*
X0383017Y0010356D01*
X0383068Y0010323D01*
X0383117Y0010287D01*
X0383163Y0010249D01*
X0383207Y0010207D01*
X0383249Y0010163D01*
X0383287Y0010117D01*
X0383323Y0010068D01*
X0383356Y0010017D01*
X0383385Y0009965D01*
X0383412Y0009910D01*
X0383435Y0009855D01*
X0383455Y0009798D01*
X0383471Y0009739D01*
X0383484Y0009680D01*
X0383493Y0009621D01*
X0383498Y0009560D01*
X0383500Y0009500D01*
X0383500Y0002500D02*
X0383498Y0002440D01*
X0383493Y0002379D01*
X0383484Y0002320D01*
X0383471Y0002261D01*
X0383455Y0002202D01*
X0383435Y0002145D01*
X0383412Y0002090D01*
X0383385Y0002035D01*
X0383356Y0001983D01*
X0383323Y0001932D01*
X0383287Y0001883D01*
X0383249Y0001837D01*
X0383207Y0001793D01*
X0383163Y0001751D01*
X0383117Y0001713D01*
X0383068Y0001677D01*
X0383017Y0001644D01*
X0382965Y0001615D01*
X0382910Y0001588D01*
X0382855Y0001565D01*
X0382798Y0001545D01*
X0382739Y0001529D01*
X0382680Y0001516D01*
X0382621Y0001507D01*
X0382560Y0001502D01*
X0382500Y0001500D01*
X0381000Y0001500D01*
X0380500Y0002000D01*
X0361500Y0002000D01*
X0361000Y0001500D01*
X0359500Y0001500D01*
X0359440Y0001502D01*
X0359379Y0001507D01*
X0359320Y0001516D01*
X0359261Y0001529D01*
X0359202Y0001545D01*
X0359145Y0001565D01*
X0359090Y0001588D01*
X0359035Y0001615D01*
X0358983Y0001644D01*
X0358932Y0001677D01*
X0358883Y0001713D01*
X0358837Y0001751D01*
X0358793Y0001793D01*
X0358751Y0001837D01*
X0358713Y0001883D01*
X0358677Y0001932D01*
X0358644Y0001983D01*
X0358615Y0002035D01*
X0358588Y0002090D01*
X0358565Y0002145D01*
X0358545Y0002202D01*
X0358529Y0002261D01*
X0358516Y0002320D01*
X0358507Y0002379D01*
X0358502Y0002440D01*
X0358500Y0002500D01*
X0346000Y0002500D02*
X0345998Y0002440D01*
X0345993Y0002379D01*
X0345984Y0002320D01*
X0345971Y0002261D01*
X0345955Y0002202D01*
X0345935Y0002145D01*
X0345912Y0002090D01*
X0345885Y0002035D01*
X0345856Y0001983D01*
X0345823Y0001932D01*
X0345787Y0001883D01*
X0345749Y0001837D01*
X0345707Y0001793D01*
X0345663Y0001751D01*
X0345617Y0001713D01*
X0345568Y0001677D01*
X0345517Y0001644D01*
X0345465Y0001615D01*
X0345410Y0001588D01*
X0345355Y0001565D01*
X0345298Y0001545D01*
X0345239Y0001529D01*
X0345180Y0001516D01*
X0345121Y0001507D01*
X0345060Y0001502D01*
X0345000Y0001500D01*
X0343500Y0001500D01*
X0343000Y0002000D01*
X0324000Y0002000D01*
X0323500Y0001500D01*
X0322000Y0001500D01*
X0321940Y0001502D01*
X0321879Y0001507D01*
X0321820Y0001516D01*
X0321761Y0001529D01*
X0321702Y0001545D01*
X0321645Y0001565D01*
X0321590Y0001588D01*
X0321535Y0001615D01*
X0321483Y0001644D01*
X0321432Y0001677D01*
X0321383Y0001713D01*
X0321337Y0001751D01*
X0321293Y0001793D01*
X0321251Y0001837D01*
X0321213Y0001883D01*
X0321177Y0001932D01*
X0321144Y0001983D01*
X0321115Y0002035D01*
X0321088Y0002090D01*
X0321065Y0002145D01*
X0321045Y0002202D01*
X0321029Y0002261D01*
X0321016Y0002320D01*
X0321007Y0002379D01*
X0321002Y0002440D01*
X0321000Y0002500D01*
X0308500Y0002500D02*
X0308498Y0002440D01*
X0308493Y0002379D01*
X0308484Y0002320D01*
X0308471Y0002261D01*
X0308455Y0002202D01*
X0308435Y0002145D01*
X0308412Y0002090D01*
X0308385Y0002035D01*
X0308356Y0001983D01*
X0308323Y0001932D01*
X0308287Y0001883D01*
X0308249Y0001837D01*
X0308207Y0001793D01*
X0308163Y0001751D01*
X0308117Y0001713D01*
X0308068Y0001677D01*
X0308017Y0001644D01*
X0307965Y0001615D01*
X0307910Y0001588D01*
X0307855Y0001565D01*
X0307798Y0001545D01*
X0307739Y0001529D01*
X0307680Y0001516D01*
X0307621Y0001507D01*
X0307560Y0001502D01*
X0307500Y0001500D01*
X0306000Y0001500D01*
X0305500Y0002000D01*
X0286500Y0002000D01*
X0286000Y0001500D01*
X0284500Y0001500D01*
X0284440Y0001502D01*
X0284379Y0001507D01*
X0284320Y0001516D01*
X0284261Y0001529D01*
X0284202Y0001545D01*
X0284145Y0001565D01*
X0284090Y0001588D01*
X0284035Y0001615D01*
X0283983Y0001644D01*
X0283932Y0001677D01*
X0283883Y0001713D01*
X0283837Y0001751D01*
X0283793Y0001793D01*
X0283751Y0001837D01*
X0283713Y0001883D01*
X0283677Y0001932D01*
X0283644Y0001983D01*
X0283615Y0002035D01*
X0283588Y0002090D01*
X0283565Y0002145D01*
X0283545Y0002202D01*
X0283529Y0002261D01*
X0283516Y0002320D01*
X0283507Y0002379D01*
X0283502Y0002440D01*
X0283500Y0002500D01*
X0268500Y0002500D02*
X0268498Y0002440D01*
X0268493Y0002379D01*
X0268484Y0002320D01*
X0268471Y0002261D01*
X0268455Y0002202D01*
X0268435Y0002145D01*
X0268412Y0002090D01*
X0268385Y0002035D01*
X0268356Y0001983D01*
X0268323Y0001932D01*
X0268287Y0001883D01*
X0268249Y0001837D01*
X0268207Y0001793D01*
X0268163Y0001751D01*
X0268117Y0001713D01*
X0268068Y0001677D01*
X0268017Y0001644D01*
X0267965Y0001615D01*
X0267910Y0001588D01*
X0267855Y0001565D01*
X0267798Y0001545D01*
X0267739Y0001529D01*
X0267680Y0001516D01*
X0267621Y0001507D01*
X0267560Y0001502D01*
X0267500Y0001500D01*
X0266000Y0001500D01*
X0265500Y0002000D01*
X0246500Y0002000D01*
X0246000Y0001500D01*
X0244500Y0001500D01*
X0244440Y0001502D01*
X0244379Y0001507D01*
X0244320Y0001516D01*
X0244261Y0001529D01*
X0244202Y0001545D01*
X0244145Y0001565D01*
X0244090Y0001588D01*
X0244035Y0001615D01*
X0243983Y0001644D01*
X0243932Y0001677D01*
X0243883Y0001713D01*
X0243837Y0001751D01*
X0243793Y0001793D01*
X0243751Y0001837D01*
X0243713Y0001883D01*
X0243677Y0001932D01*
X0243644Y0001983D01*
X0243615Y0002035D01*
X0243588Y0002090D01*
X0243565Y0002145D01*
X0243545Y0002202D01*
X0243529Y0002261D01*
X0243516Y0002320D01*
X0243507Y0002379D01*
X0243502Y0002440D01*
X0243500Y0002500D01*
X0228500Y0002500D02*
X0228498Y0002440D01*
X0228493Y0002379D01*
X0228484Y0002320D01*
X0228471Y0002261D01*
X0228455Y0002202D01*
X0228435Y0002145D01*
X0228412Y0002090D01*
X0228385Y0002035D01*
X0228356Y0001983D01*
X0228323Y0001932D01*
X0228287Y0001883D01*
X0228249Y0001837D01*
X0228207Y0001793D01*
X0228163Y0001751D01*
X0228117Y0001713D01*
X0228068Y0001677D01*
X0228017Y0001644D01*
X0227965Y0001615D01*
X0227910Y0001588D01*
X0227855Y0001565D01*
X0227798Y0001545D01*
X0227739Y0001529D01*
X0227680Y0001516D01*
X0227621Y0001507D01*
X0227560Y0001502D01*
X0227500Y0001500D01*
X0226000Y0001500D01*
X0225500Y0002000D01*
X0206500Y0002000D01*
X0206000Y0001500D01*
X0204500Y0001500D01*
X0204440Y0001502D01*
X0204379Y0001507D01*
X0204320Y0001516D01*
X0204261Y0001529D01*
X0204202Y0001545D01*
X0204145Y0001565D01*
X0204090Y0001588D01*
X0204035Y0001615D01*
X0203983Y0001644D01*
X0203932Y0001677D01*
X0203883Y0001713D01*
X0203837Y0001751D01*
X0203793Y0001793D01*
X0203751Y0001837D01*
X0203713Y0001883D01*
X0203677Y0001932D01*
X0203644Y0001983D01*
X0203615Y0002035D01*
X0203588Y0002090D01*
X0203565Y0002145D01*
X0203545Y0002202D01*
X0203529Y0002261D01*
X0203516Y0002320D01*
X0203507Y0002379D01*
X0203502Y0002440D01*
X0203500Y0002500D01*
X0188500Y0002500D02*
X0188498Y0002440D01*
X0188493Y0002379D01*
X0188484Y0002320D01*
X0188471Y0002261D01*
X0188455Y0002202D01*
X0188435Y0002145D01*
X0188412Y0002090D01*
X0188385Y0002035D01*
X0188356Y0001983D01*
X0188323Y0001932D01*
X0188287Y0001883D01*
X0188249Y0001837D01*
X0188207Y0001793D01*
X0188163Y0001751D01*
X0188117Y0001713D01*
X0188068Y0001677D01*
X0188017Y0001644D01*
X0187965Y0001615D01*
X0187910Y0001588D01*
X0187855Y0001565D01*
X0187798Y0001545D01*
X0187739Y0001529D01*
X0187680Y0001516D01*
X0187621Y0001507D01*
X0187560Y0001502D01*
X0187500Y0001500D01*
X0186000Y0001500D01*
X0185500Y0002000D01*
X0166500Y0002000D01*
X0166000Y0001500D01*
X0164500Y0001500D01*
X0164440Y0001502D01*
X0164379Y0001507D01*
X0164320Y0001516D01*
X0164261Y0001529D01*
X0164202Y0001545D01*
X0164145Y0001565D01*
X0164090Y0001588D01*
X0164035Y0001615D01*
X0163983Y0001644D01*
X0163932Y0001677D01*
X0163883Y0001713D01*
X0163837Y0001751D01*
X0163793Y0001793D01*
X0163751Y0001837D01*
X0163713Y0001883D01*
X0163677Y0001932D01*
X0163644Y0001983D01*
X0163615Y0002035D01*
X0163588Y0002090D01*
X0163565Y0002145D01*
X0163545Y0002202D01*
X0163529Y0002261D01*
X0163516Y0002320D01*
X0163507Y0002379D01*
X0163502Y0002440D01*
X0163500Y0002500D01*
X0162500Y0146500D02*
X0161000Y0146500D01*
X0160500Y0147000D01*
X0141500Y0147000D01*
X0141000Y0146500D01*
X0139500Y0146500D01*
X0139440Y0146502D01*
X0139379Y0146507D01*
X0139320Y0146516D01*
X0139261Y0146529D01*
X0139202Y0146545D01*
X0139145Y0146565D01*
X0139090Y0146588D01*
X0139035Y0146615D01*
X0138983Y0146644D01*
X0138932Y0146677D01*
X0138883Y0146713D01*
X0138837Y0146751D01*
X0138793Y0146793D01*
X0138751Y0146837D01*
X0138713Y0146883D01*
X0138677Y0146932D01*
X0138644Y0146983D01*
X0138615Y0147035D01*
X0138588Y0147090D01*
X0138565Y0147145D01*
X0138545Y0147202D01*
X0138529Y0147261D01*
X0138516Y0147320D01*
X0138507Y0147379D01*
X0138502Y0147440D01*
X0138500Y0147500D01*
X0138500Y0154500D02*
X0138502Y0154560D01*
X0138507Y0154621D01*
X0138516Y0154680D01*
X0138529Y0154739D01*
X0138545Y0154798D01*
X0138565Y0154855D01*
X0138588Y0154910D01*
X0138615Y0154965D01*
X0138644Y0155017D01*
X0138677Y0155068D01*
X0138713Y0155117D01*
X0138751Y0155163D01*
X0138793Y0155207D01*
X0138837Y0155249D01*
X0138883Y0155287D01*
X0138932Y0155323D01*
X0138983Y0155356D01*
X0139035Y0155385D01*
X0139090Y0155412D01*
X0139145Y0155435D01*
X0139202Y0155455D01*
X0139261Y0155471D01*
X0139320Y0155484D01*
X0139379Y0155493D01*
X0139440Y0155498D01*
X0139500Y0155500D01*
X0141000Y0155500D01*
X0141500Y0155000D01*
X0160500Y0155000D01*
X0161000Y0155500D01*
X0162500Y0155500D01*
X0162560Y0155498D01*
X0162621Y0155493D01*
X0162680Y0155484D01*
X0162739Y0155471D01*
X0162798Y0155455D01*
X0162855Y0155435D01*
X0162910Y0155412D01*
X0162965Y0155385D01*
X0163017Y0155356D01*
X0163068Y0155323D01*
X0163117Y0155287D01*
X0163163Y0155249D01*
X0163207Y0155207D01*
X0163249Y0155163D01*
X0163287Y0155117D01*
X0163323Y0155068D01*
X0163356Y0155017D01*
X0163385Y0154965D01*
X0163412Y0154910D01*
X0163435Y0154855D01*
X0163455Y0154798D01*
X0163471Y0154739D01*
X0163484Y0154680D01*
X0163493Y0154621D01*
X0163498Y0154560D01*
X0163500Y0154500D01*
X0163500Y0147500D02*
X0163498Y0147440D01*
X0163493Y0147379D01*
X0163484Y0147320D01*
X0163471Y0147261D01*
X0163455Y0147202D01*
X0163435Y0147145D01*
X0163412Y0147090D01*
X0163385Y0147035D01*
X0163356Y0146983D01*
X0163323Y0146932D01*
X0163287Y0146883D01*
X0163249Y0146837D01*
X0163207Y0146793D01*
X0163163Y0146751D01*
X0163117Y0146713D01*
X0163068Y0146677D01*
X0163017Y0146644D01*
X0162965Y0146615D01*
X0162910Y0146588D01*
X0162855Y0146565D01*
X0162798Y0146545D01*
X0162739Y0146529D01*
X0162680Y0146516D01*
X0162621Y0146507D01*
X0162560Y0146502D01*
X0162500Y0146500D01*
X0209500Y0146500D02*
X0211000Y0146500D01*
X0211500Y0147000D01*
X0230500Y0147000D01*
X0231000Y0146500D01*
X0232500Y0146500D01*
X0232560Y0146502D01*
X0232621Y0146507D01*
X0232680Y0146516D01*
X0232739Y0146529D01*
X0232798Y0146545D01*
X0232855Y0146565D01*
X0232910Y0146588D01*
X0232965Y0146615D01*
X0233017Y0146644D01*
X0233068Y0146677D01*
X0233117Y0146713D01*
X0233163Y0146751D01*
X0233207Y0146793D01*
X0233249Y0146837D01*
X0233287Y0146883D01*
X0233323Y0146932D01*
X0233356Y0146983D01*
X0233385Y0147035D01*
X0233412Y0147090D01*
X0233435Y0147145D01*
X0233455Y0147202D01*
X0233471Y0147261D01*
X0233484Y0147320D01*
X0233493Y0147379D01*
X0233498Y0147440D01*
X0233500Y0147500D01*
X0233500Y0154500D02*
X0233498Y0154560D01*
X0233493Y0154621D01*
X0233484Y0154680D01*
X0233471Y0154739D01*
X0233455Y0154798D01*
X0233435Y0154855D01*
X0233412Y0154910D01*
X0233385Y0154965D01*
X0233356Y0155017D01*
X0233323Y0155068D01*
X0233287Y0155117D01*
X0233249Y0155163D01*
X0233207Y0155207D01*
X0233163Y0155249D01*
X0233117Y0155287D01*
X0233068Y0155323D01*
X0233017Y0155356D01*
X0232965Y0155385D01*
X0232910Y0155412D01*
X0232855Y0155435D01*
X0232798Y0155455D01*
X0232739Y0155471D01*
X0232680Y0155484D01*
X0232621Y0155493D01*
X0232560Y0155498D01*
X0232500Y0155500D01*
X0231000Y0155500D01*
X0230500Y0155000D01*
X0211500Y0155000D01*
X0211000Y0155500D01*
X0209500Y0155500D01*
X0209440Y0155498D01*
X0209379Y0155493D01*
X0209320Y0155484D01*
X0209261Y0155471D01*
X0209202Y0155455D01*
X0209145Y0155435D01*
X0209090Y0155412D01*
X0209035Y0155385D01*
X0208983Y0155356D01*
X0208932Y0155323D01*
X0208883Y0155287D01*
X0208837Y0155249D01*
X0208793Y0155207D01*
X0208751Y0155163D01*
X0208713Y0155117D01*
X0208677Y0155068D01*
X0208644Y0155017D01*
X0208615Y0154965D01*
X0208588Y0154910D01*
X0208565Y0154855D01*
X0208545Y0154798D01*
X0208529Y0154739D01*
X0208516Y0154680D01*
X0208507Y0154621D01*
X0208502Y0154560D01*
X0208500Y0154500D01*
X0208500Y0147500D02*
X0208502Y0147440D01*
X0208507Y0147379D01*
X0208516Y0147320D01*
X0208529Y0147261D01*
X0208545Y0147202D01*
X0208565Y0147145D01*
X0208588Y0147090D01*
X0208615Y0147035D01*
X0208644Y0146983D01*
X0208677Y0146932D01*
X0208713Y0146883D01*
X0208751Y0146837D01*
X0208793Y0146793D01*
X0208837Y0146751D01*
X0208883Y0146713D01*
X0208932Y0146677D01*
X0208983Y0146644D01*
X0209035Y0146615D01*
X0209090Y0146588D01*
X0209145Y0146565D01*
X0209202Y0146545D01*
X0209261Y0146529D01*
X0209320Y0146516D01*
X0209379Y0146507D01*
X0209440Y0146502D01*
X0209500Y0146500D01*
X0274500Y0146500D02*
X0276000Y0146500D01*
X0276500Y0147000D01*
X0295500Y0147000D01*
X0296000Y0146500D01*
X0297500Y0146500D01*
X0297560Y0146502D01*
X0297621Y0146507D01*
X0297680Y0146516D01*
X0297739Y0146529D01*
X0297798Y0146545D01*
X0297855Y0146565D01*
X0297910Y0146588D01*
X0297965Y0146615D01*
X0298017Y0146644D01*
X0298068Y0146677D01*
X0298117Y0146713D01*
X0298163Y0146751D01*
X0298207Y0146793D01*
X0298249Y0146837D01*
X0298287Y0146883D01*
X0298323Y0146932D01*
X0298356Y0146983D01*
X0298385Y0147035D01*
X0298412Y0147090D01*
X0298435Y0147145D01*
X0298455Y0147202D01*
X0298471Y0147261D01*
X0298484Y0147320D01*
X0298493Y0147379D01*
X0298498Y0147440D01*
X0298500Y0147500D01*
X0298500Y0154500D02*
X0298498Y0154560D01*
X0298493Y0154621D01*
X0298484Y0154680D01*
X0298471Y0154739D01*
X0298455Y0154798D01*
X0298435Y0154855D01*
X0298412Y0154910D01*
X0298385Y0154965D01*
X0298356Y0155017D01*
X0298323Y0155068D01*
X0298287Y0155117D01*
X0298249Y0155163D01*
X0298207Y0155207D01*
X0298163Y0155249D01*
X0298117Y0155287D01*
X0298068Y0155323D01*
X0298017Y0155356D01*
X0297965Y0155385D01*
X0297910Y0155412D01*
X0297855Y0155435D01*
X0297798Y0155455D01*
X0297739Y0155471D01*
X0297680Y0155484D01*
X0297621Y0155493D01*
X0297560Y0155498D01*
X0297500Y0155500D01*
X0296000Y0155500D01*
X0295500Y0155000D01*
X0276500Y0155000D01*
X0276000Y0155500D01*
X0274500Y0155500D01*
X0274440Y0155498D01*
X0274379Y0155493D01*
X0274320Y0155484D01*
X0274261Y0155471D01*
X0274202Y0155455D01*
X0274145Y0155435D01*
X0274090Y0155412D01*
X0274035Y0155385D01*
X0273983Y0155356D01*
X0273932Y0155323D01*
X0273883Y0155287D01*
X0273837Y0155249D01*
X0273793Y0155207D01*
X0273751Y0155163D01*
X0273713Y0155117D01*
X0273677Y0155068D01*
X0273644Y0155017D01*
X0273615Y0154965D01*
X0273588Y0154910D01*
X0273565Y0154855D01*
X0273545Y0154798D01*
X0273529Y0154739D01*
X0273516Y0154680D01*
X0273507Y0154621D01*
X0273502Y0154560D01*
X0273500Y0154500D01*
X0273500Y0147500D02*
X0273502Y0147440D01*
X0273507Y0147379D01*
X0273516Y0147320D01*
X0273529Y0147261D01*
X0273545Y0147202D01*
X0273565Y0147145D01*
X0273588Y0147090D01*
X0273615Y0147035D01*
X0273644Y0146983D01*
X0273677Y0146932D01*
X0273713Y0146883D01*
X0273751Y0146837D01*
X0273793Y0146793D01*
X0273837Y0146751D01*
X0273883Y0146713D01*
X0273932Y0146677D01*
X0273983Y0146644D01*
X0274035Y0146615D01*
X0274090Y0146588D01*
X0274145Y0146565D01*
X0274202Y0146545D01*
X0274261Y0146529D01*
X0274320Y0146516D01*
X0274379Y0146507D01*
X0274440Y0146502D01*
X0274500Y0146500D01*
X0339500Y0146500D02*
X0341000Y0146500D01*
X0341500Y0147000D01*
X0360500Y0147000D01*
X0361000Y0146500D01*
X0362500Y0146500D01*
X0362560Y0146502D01*
X0362621Y0146507D01*
X0362680Y0146516D01*
X0362739Y0146529D01*
X0362798Y0146545D01*
X0362855Y0146565D01*
X0362910Y0146588D01*
X0362965Y0146615D01*
X0363017Y0146644D01*
X0363068Y0146677D01*
X0363117Y0146713D01*
X0363163Y0146751D01*
X0363207Y0146793D01*
X0363249Y0146837D01*
X0363287Y0146883D01*
X0363323Y0146932D01*
X0363356Y0146983D01*
X0363385Y0147035D01*
X0363412Y0147090D01*
X0363435Y0147145D01*
X0363455Y0147202D01*
X0363471Y0147261D01*
X0363484Y0147320D01*
X0363493Y0147379D01*
X0363498Y0147440D01*
X0363500Y0147500D01*
X0363500Y0154500D02*
X0363498Y0154560D01*
X0363493Y0154621D01*
X0363484Y0154680D01*
X0363471Y0154739D01*
X0363455Y0154798D01*
X0363435Y0154855D01*
X0363412Y0154910D01*
X0363385Y0154965D01*
X0363356Y0155017D01*
X0363323Y0155068D01*
X0363287Y0155117D01*
X0363249Y0155163D01*
X0363207Y0155207D01*
X0363163Y0155249D01*
X0363117Y0155287D01*
X0363068Y0155323D01*
X0363017Y0155356D01*
X0362965Y0155385D01*
X0362910Y0155412D01*
X0362855Y0155435D01*
X0362798Y0155455D01*
X0362739Y0155471D01*
X0362680Y0155484D01*
X0362621Y0155493D01*
X0362560Y0155498D01*
X0362500Y0155500D01*
X0361000Y0155500D01*
X0360500Y0155000D01*
X0341500Y0155000D01*
X0341000Y0155500D01*
X0339500Y0155500D01*
X0339440Y0155498D01*
X0339379Y0155493D01*
X0339320Y0155484D01*
X0339261Y0155471D01*
X0339202Y0155455D01*
X0339145Y0155435D01*
X0339090Y0155412D01*
X0339035Y0155385D01*
X0338983Y0155356D01*
X0338932Y0155323D01*
X0338883Y0155287D01*
X0338837Y0155249D01*
X0338793Y0155207D01*
X0338751Y0155163D01*
X0338713Y0155117D01*
X0338677Y0155068D01*
X0338644Y0155017D01*
X0338615Y0154965D01*
X0338588Y0154910D01*
X0338565Y0154855D01*
X0338545Y0154798D01*
X0338529Y0154739D01*
X0338516Y0154680D01*
X0338507Y0154621D01*
X0338502Y0154560D01*
X0338500Y0154500D01*
X0338500Y0147500D02*
X0338502Y0147440D01*
X0338507Y0147379D01*
X0338516Y0147320D01*
X0338529Y0147261D01*
X0338545Y0147202D01*
X0338565Y0147145D01*
X0338588Y0147090D01*
X0338615Y0147035D01*
X0338644Y0146983D01*
X0338677Y0146932D01*
X0338713Y0146883D01*
X0338751Y0146837D01*
X0338793Y0146793D01*
X0338837Y0146751D01*
X0338883Y0146713D01*
X0338932Y0146677D01*
X0338983Y0146644D01*
X0339035Y0146615D01*
X0339090Y0146588D01*
X0339145Y0146565D01*
X0339202Y0146545D01*
X0339261Y0146529D01*
X0339320Y0146516D01*
X0339379Y0146507D01*
X0339440Y0146502D01*
X0339500Y0146500D01*
X0102500Y0146500D02*
X0101000Y0146500D01*
X0100500Y0147000D01*
X0081500Y0147000D01*
X0081000Y0146500D01*
X0079500Y0146500D01*
X0079440Y0146502D01*
X0079379Y0146507D01*
X0079320Y0146516D01*
X0079261Y0146529D01*
X0079202Y0146545D01*
X0079145Y0146565D01*
X0079090Y0146588D01*
X0079035Y0146615D01*
X0078983Y0146644D01*
X0078932Y0146677D01*
X0078883Y0146713D01*
X0078837Y0146751D01*
X0078793Y0146793D01*
X0078751Y0146837D01*
X0078713Y0146883D01*
X0078677Y0146932D01*
X0078644Y0146983D01*
X0078615Y0147035D01*
X0078588Y0147090D01*
X0078565Y0147145D01*
X0078545Y0147202D01*
X0078529Y0147261D01*
X0078516Y0147320D01*
X0078507Y0147379D01*
X0078502Y0147440D01*
X0078500Y0147500D01*
X0078500Y0154500D02*
X0078502Y0154560D01*
X0078507Y0154621D01*
X0078516Y0154680D01*
X0078529Y0154739D01*
X0078545Y0154798D01*
X0078565Y0154855D01*
X0078588Y0154910D01*
X0078615Y0154965D01*
X0078644Y0155017D01*
X0078677Y0155068D01*
X0078713Y0155117D01*
X0078751Y0155163D01*
X0078793Y0155207D01*
X0078837Y0155249D01*
X0078883Y0155287D01*
X0078932Y0155323D01*
X0078983Y0155356D01*
X0079035Y0155385D01*
X0079090Y0155412D01*
X0079145Y0155435D01*
X0079202Y0155455D01*
X0079261Y0155471D01*
X0079320Y0155484D01*
X0079379Y0155493D01*
X0079440Y0155498D01*
X0079500Y0155500D01*
X0081000Y0155500D01*
X0081500Y0155000D01*
X0100500Y0155000D01*
X0101000Y0155500D01*
X0102500Y0155500D01*
X0102560Y0155498D01*
X0102621Y0155493D01*
X0102680Y0155484D01*
X0102739Y0155471D01*
X0102798Y0155455D01*
X0102855Y0155435D01*
X0102910Y0155412D01*
X0102965Y0155385D01*
X0103017Y0155356D01*
X0103068Y0155323D01*
X0103117Y0155287D01*
X0103163Y0155249D01*
X0103207Y0155207D01*
X0103249Y0155163D01*
X0103287Y0155117D01*
X0103323Y0155068D01*
X0103356Y0155017D01*
X0103385Y0154965D01*
X0103412Y0154910D01*
X0103435Y0154855D01*
X0103455Y0154798D01*
X0103471Y0154739D01*
X0103484Y0154680D01*
X0103493Y0154621D01*
X0103498Y0154560D01*
X0103500Y0154500D01*
X0103500Y0147500D02*
X0103498Y0147440D01*
X0103493Y0147379D01*
X0103484Y0147320D01*
X0103471Y0147261D01*
X0103455Y0147202D01*
X0103435Y0147145D01*
X0103412Y0147090D01*
X0103385Y0147035D01*
X0103356Y0146983D01*
X0103323Y0146932D01*
X0103287Y0146883D01*
X0103249Y0146837D01*
X0103207Y0146793D01*
X0103163Y0146751D01*
X0103117Y0146713D01*
X0103068Y0146677D01*
X0103017Y0146644D01*
X0102965Y0146615D01*
X0102910Y0146588D01*
X0102855Y0146565D01*
X0102798Y0146545D01*
X0102739Y0146529D01*
X0102680Y0146516D01*
X0102621Y0146507D01*
X0102560Y0146502D01*
X0102500Y0146500D01*
X0037500Y0146500D02*
X0036000Y0146500D01*
X0035500Y0147000D01*
X0016500Y0147000D01*
X0016000Y0146500D01*
X0014500Y0146500D01*
X0014440Y0146502D01*
X0014379Y0146507D01*
X0014320Y0146516D01*
X0014261Y0146529D01*
X0014202Y0146545D01*
X0014145Y0146565D01*
X0014090Y0146588D01*
X0014035Y0146615D01*
X0013983Y0146644D01*
X0013932Y0146677D01*
X0013883Y0146713D01*
X0013837Y0146751D01*
X0013793Y0146793D01*
X0013751Y0146837D01*
X0013713Y0146883D01*
X0013677Y0146932D01*
X0013644Y0146983D01*
X0013615Y0147035D01*
X0013588Y0147090D01*
X0013565Y0147145D01*
X0013545Y0147202D01*
X0013529Y0147261D01*
X0013516Y0147320D01*
X0013507Y0147379D01*
X0013502Y0147440D01*
X0013500Y0147500D01*
X0013500Y0154500D02*
X0013502Y0154560D01*
X0013507Y0154621D01*
X0013516Y0154680D01*
X0013529Y0154739D01*
X0013545Y0154798D01*
X0013565Y0154855D01*
X0013588Y0154910D01*
X0013615Y0154965D01*
X0013644Y0155017D01*
X0013677Y0155068D01*
X0013713Y0155117D01*
X0013751Y0155163D01*
X0013793Y0155207D01*
X0013837Y0155249D01*
X0013883Y0155287D01*
X0013932Y0155323D01*
X0013983Y0155356D01*
X0014035Y0155385D01*
X0014090Y0155412D01*
X0014145Y0155435D01*
X0014202Y0155455D01*
X0014261Y0155471D01*
X0014320Y0155484D01*
X0014379Y0155493D01*
X0014440Y0155498D01*
X0014500Y0155500D01*
X0016000Y0155500D01*
X0016500Y0155000D01*
X0035500Y0155000D01*
X0036000Y0155500D01*
X0037500Y0155500D01*
X0037560Y0155498D01*
X0037621Y0155493D01*
X0037680Y0155484D01*
X0037739Y0155471D01*
X0037798Y0155455D01*
X0037855Y0155435D01*
X0037910Y0155412D01*
X0037965Y0155385D01*
X0038017Y0155356D01*
X0038068Y0155323D01*
X0038117Y0155287D01*
X0038163Y0155249D01*
X0038207Y0155207D01*
X0038249Y0155163D01*
X0038287Y0155117D01*
X0038323Y0155068D01*
X0038356Y0155017D01*
X0038385Y0154965D01*
X0038412Y0154910D01*
X0038435Y0154855D01*
X0038455Y0154798D01*
X0038471Y0154739D01*
X0038484Y0154680D01*
X0038493Y0154621D01*
X0038498Y0154560D01*
X0038500Y0154500D01*
X0038500Y0147500D02*
X0038498Y0147440D01*
X0038493Y0147379D01*
X0038484Y0147320D01*
X0038471Y0147261D01*
X0038455Y0147202D01*
X0038435Y0147145D01*
X0038412Y0147090D01*
X0038385Y0147035D01*
X0038356Y0146983D01*
X0038323Y0146932D01*
X0038287Y0146883D01*
X0038249Y0146837D01*
X0038207Y0146793D01*
X0038163Y0146751D01*
X0038117Y0146713D01*
X0038068Y0146677D01*
X0038017Y0146644D01*
X0037965Y0146615D01*
X0037910Y0146588D01*
X0037855Y0146565D01*
X0037798Y0146545D01*
X0037739Y0146529D01*
X0037680Y0146516D01*
X0037621Y0146507D01*
X0037560Y0146502D01*
X0037500Y0146500D01*
M02*
