G75*
%MOIN*%
%OFA0B0*%
%FSLAX25Y25*%
%IPPOS*%
%LPD*%
%AMOC8*
5,1,8,0,0,1.08239X$1,22.5*
%
%ADD10C,0.00000*%
%ADD11R,0.08858X0.08858*%
%ADD12R,0.05937X0.05937*%
%ADD13OC8,0.05200*%
%ADD14C,0.06000*%
%ADD15C,0.01200*%
%ADD16C,0.02400*%
D10*
X0001000Y0001000D02*
X0001000Y0155961D01*
X0389701Y0155961D01*
X0389701Y0001000D01*
X0001000Y0001000D01*
D11*
X0051000Y0026000D03*
X0072496Y0042181D03*
X0116000Y0026000D03*
X0137496Y0042181D03*
X0181000Y0026000D03*
X0202496Y0042181D03*
X0246000Y0026000D03*
X0267496Y0042181D03*
X0311000Y0026000D03*
X0332496Y0042181D03*
X0376000Y0026000D03*
X0376000Y0096000D03*
X0332496Y0112181D03*
X0311000Y0096000D03*
X0267496Y0112181D03*
X0246000Y0096000D03*
X0202496Y0112181D03*
X0181000Y0096000D03*
X0137496Y0112181D03*
X0116000Y0096000D03*
X0072496Y0112181D03*
X0051000Y0096000D03*
X0007496Y0112181D03*
X0007496Y0042181D03*
D12*
X0023165Y0019268D03*
X0088165Y0019268D03*
X0153165Y0019268D03*
X0218165Y0019268D03*
X0283165Y0019268D03*
X0348165Y0019268D03*
X0348165Y0089268D03*
X0283165Y0089268D03*
X0218165Y0089268D03*
X0153165Y0089268D03*
X0088165Y0089268D03*
X0023165Y0089268D03*
D13*
X0011000Y0151000D03*
X0041000Y0151000D03*
X0076000Y0151000D03*
X0106000Y0151000D03*
X0136000Y0151000D03*
X0166000Y0151000D03*
X0206000Y0151000D03*
X0236000Y0151000D03*
X0271000Y0151000D03*
X0301000Y0151000D03*
X0336000Y0151000D03*
X0366000Y0151000D03*
X0356000Y0006000D03*
X0348500Y0006000D03*
X0318500Y0006000D03*
X0311000Y0006000D03*
X0281000Y0006000D03*
X0271000Y0006000D03*
X0241000Y0006000D03*
X0231000Y0006000D03*
X0201000Y0006000D03*
X0191000Y0006000D03*
X0161000Y0006000D03*
X0151000Y0006000D03*
X0121000Y0006000D03*
X0111000Y0006000D03*
X0081000Y0006000D03*
X0073500Y0006000D03*
X0043500Y0006000D03*
X0036000Y0006000D03*
X0006000Y0006000D03*
X0386000Y0006000D03*
D14*
X0366500Y0033500D02*
X0360500Y0033500D01*
X0360500Y0043500D02*
X0366500Y0043500D01*
X0366500Y0053500D02*
X0360500Y0053500D01*
X0360500Y0063500D02*
X0366500Y0063500D01*
X0366500Y0073500D02*
X0360500Y0073500D01*
X0360500Y0083500D02*
X0366500Y0083500D01*
X0366500Y0093500D02*
X0360500Y0093500D01*
X0360500Y0103500D02*
X0366500Y0103500D01*
X0366500Y0113500D02*
X0360500Y0113500D01*
X0360500Y0123500D02*
X0366500Y0123500D01*
X0041500Y0123500D02*
X0035500Y0123500D01*
X0035500Y0113500D02*
X0041500Y0113500D01*
X0041500Y0103500D02*
X0035500Y0103500D01*
X0035500Y0093500D02*
X0041500Y0093500D01*
X0041500Y0083500D02*
X0035500Y0083500D01*
X0035500Y0073500D02*
X0041500Y0073500D01*
X0041500Y0063500D02*
X0035500Y0063500D01*
X0035500Y0053500D02*
X0041500Y0053500D01*
X0041500Y0043500D02*
X0035500Y0043500D01*
X0035500Y0033500D02*
X0041500Y0033500D01*
D15*
X0040370Y0034465D02*
X0038500Y0033500D01*
X0040370Y0032496D01*
X0050213Y0032496D01*
X0050213Y0026591D01*
X0051000Y0026000D01*
X0058087Y0020685D02*
X0044307Y0006906D01*
X0043500Y0006000D01*
X0024622Y0020685D02*
X0023165Y0019268D01*
X0024622Y0020685D02*
X0038402Y0034465D01*
X0038500Y0033500D01*
X0040370Y0034465D02*
X0040370Y0042339D01*
X0038500Y0043500D01*
X0040370Y0052181D02*
X0038500Y0053500D01*
X0040370Y0052181D02*
X0058087Y0034465D01*
X0058087Y0020685D01*
X0073835Y0034465D02*
X0073835Y0040370D01*
X0072496Y0042181D01*
X0073835Y0042339D01*
X0073835Y0073835D01*
X0087614Y0087614D01*
X0088165Y0089268D01*
X0091551Y0093520D02*
X0093520Y0091551D01*
X0093520Y0022654D01*
X0109268Y0006906D01*
X0111000Y0006000D01*
X0121000Y0006000D02*
X0121079Y0006906D01*
X0128953Y0014780D01*
X0182102Y0014780D01*
X0188008Y0020685D01*
X0188008Y0048244D01*
X0207693Y0048244D01*
X0209661Y0046276D01*
X0209661Y0028559D01*
X0217535Y0020685D01*
X0218165Y0019268D01*
X0246000Y0026000D02*
X0247063Y0026591D01*
X0247063Y0062024D01*
X0182102Y0062024D01*
X0117142Y0062024D01*
X0117142Y0026591D01*
X0116000Y0026000D01*
X0128953Y0014780D02*
X0136827Y0022654D01*
X0136827Y0040370D01*
X0137496Y0042181D01*
X0181000Y0026000D02*
X0182102Y0026591D01*
X0182102Y0062024D01*
X0182102Y0095488D01*
X0181000Y0096000D01*
X0188008Y0101394D02*
X0186039Y0103362D01*
X0158480Y0103362D01*
X0158480Y0085646D01*
X0156512Y0083677D01*
X0123047Y0083677D01*
X0123047Y0105331D01*
X0077772Y0150606D01*
X0076000Y0151000D01*
X0075803Y0150606D01*
X0073835Y0148638D01*
X0073835Y0113205D01*
X0072496Y0112181D01*
X0050213Y0103362D02*
X0050213Y0097457D01*
X0051000Y0096000D01*
X0052181Y0097457D01*
X0115173Y0097457D01*
X0116000Y0096000D01*
X0117142Y0095488D01*
X0117142Y0062024D01*
X0079740Y0087614D02*
X0065961Y0073835D01*
X0040370Y0073835D01*
X0038500Y0073500D01*
X0030528Y0071866D02*
X0038402Y0063992D01*
X0038500Y0063500D01*
X0030528Y0071866D02*
X0030528Y0140764D01*
X0040370Y0150606D01*
X0041000Y0151000D01*
X0011000Y0151000D02*
X0010843Y0150606D01*
X0008874Y0148638D01*
X0008874Y0113205D01*
X0007496Y0112181D01*
X0008874Y0111236D01*
X0008874Y0103362D01*
X0022654Y0089583D01*
X0023165Y0089268D01*
X0038500Y0093500D02*
X0040370Y0091551D01*
X0044307Y0091551D01*
X0048244Y0087614D01*
X0075803Y0087614D01*
X0079740Y0087614D02*
X0079740Y0093520D01*
X0091551Y0093520D01*
X0063992Y0083677D02*
X0040370Y0083677D01*
X0038500Y0083500D01*
X0050213Y0103362D02*
X0040370Y0113205D01*
X0038500Y0113500D01*
X0137496Y0112181D02*
X0138795Y0111236D01*
X0138795Y0103362D01*
X0152575Y0089583D01*
X0153165Y0089268D01*
X0188008Y0083677D02*
X0188008Y0101394D01*
X0203756Y0103362D02*
X0203756Y0111236D01*
X0202496Y0112181D01*
X0203756Y0113205D01*
X0203756Y0148638D01*
X0205724Y0150606D01*
X0206000Y0151000D01*
X0166000Y0151000D02*
X0164386Y0150606D01*
X0138795Y0125016D01*
X0138795Y0113205D01*
X0137496Y0112181D01*
X0203756Y0103362D02*
X0217535Y0089583D01*
X0218165Y0089268D01*
X0223441Y0085646D02*
X0221472Y0083677D01*
X0188008Y0083677D01*
X0223441Y0085646D02*
X0223441Y0103362D01*
X0278559Y0103362D01*
X0288402Y0093520D01*
X0288402Y0024622D01*
X0284465Y0020685D01*
X0283165Y0019268D01*
X0280528Y0006906D02*
X0268717Y0018717D01*
X0268717Y0040370D01*
X0267496Y0042181D01*
X0268717Y0042339D01*
X0268717Y0073835D01*
X0282496Y0087614D01*
X0283165Y0089268D01*
X0311000Y0096000D02*
X0312024Y0095488D01*
X0312024Y0026591D01*
X0311000Y0026000D01*
X0319898Y0006906D02*
X0331709Y0018717D01*
X0331709Y0040370D01*
X0332496Y0042181D01*
X0339583Y0046276D02*
X0323835Y0062024D01*
X0339583Y0046276D02*
X0339583Y0028559D01*
X0347457Y0020685D01*
X0348165Y0019268D01*
X0375016Y0026591D02*
X0376000Y0026000D01*
X0376984Y0024622D01*
X0376984Y0014780D01*
X0384858Y0006906D01*
X0386000Y0006000D01*
X0356000Y0006000D02*
X0355331Y0006906D01*
X0355331Y0038402D01*
X0369110Y0038402D01*
X0371079Y0040370D01*
X0371079Y0085646D01*
X0365173Y0091551D01*
X0363500Y0093500D01*
X0375016Y0095488D02*
X0376000Y0096000D01*
X0375016Y0095488D02*
X0375016Y0032496D01*
X0375016Y0026591D01*
X0375016Y0032496D02*
X0365173Y0032496D01*
X0363500Y0033500D01*
X0319898Y0006906D02*
X0318500Y0006000D01*
X0281000Y0006000D02*
X0280528Y0006906D01*
X0271000Y0006000D02*
X0270685Y0006906D01*
X0247063Y0006906D01*
X0247063Y0024622D01*
X0246000Y0026000D01*
X0202496Y0042181D02*
X0201787Y0040370D01*
X0201787Y0006906D01*
X0201000Y0006000D01*
X0153165Y0019268D02*
X0152575Y0020685D01*
X0138795Y0020685D01*
X0088165Y0019268D02*
X0087614Y0018717D01*
X0087614Y0012811D01*
X0081709Y0006906D01*
X0081000Y0006000D01*
X0088165Y0019268D02*
X0087614Y0020685D01*
X0073835Y0034465D01*
X0007496Y0042181D02*
X0006906Y0040370D01*
X0006906Y0006906D01*
X0006000Y0006000D01*
X0246000Y0096000D02*
X0247063Y0095488D01*
X0247063Y0062024D01*
X0333677Y0103362D02*
X0347457Y0089583D01*
X0348165Y0089268D01*
X0333677Y0103362D02*
X0333677Y0111236D01*
X0332496Y0112181D01*
X0333677Y0113205D01*
X0333677Y0148638D01*
X0335646Y0150606D01*
X0336000Y0151000D01*
X0366000Y0151000D02*
X0367142Y0150606D01*
X0371079Y0146669D01*
X0371079Y0111236D01*
X0365173Y0105331D01*
X0363500Y0103500D01*
X0268717Y0113205D02*
X0267496Y0112181D01*
X0268717Y0113205D02*
X0268717Y0148638D01*
X0270685Y0150606D01*
X0271000Y0151000D01*
D16*
X0075803Y0087614D03*
X0063992Y0083677D03*
X0138795Y0020685D03*
X0323835Y0062024D03*
M02*
