G04 EAGLE Gerber RS-274X export*
G75*
%MOMM*%
%FSLAX34Y34*%
%LPD*%
%INSilkscreen Bottom*%
%IPPOS*%
%AMOC8*
5,1,8,0,0,1.08239X$1,22.5*%
G01*
%ADD10C,0.101600*%
%ADD11C,0.152400*%


D10*
X507492Y193294D02*
X507492Y206502D01*
X503823Y206502D01*
X503703Y206500D01*
X503583Y206494D01*
X503463Y206484D01*
X503344Y206471D01*
X503225Y206453D01*
X503107Y206432D01*
X502990Y206406D01*
X502873Y206377D01*
X502758Y206344D01*
X502644Y206307D01*
X502531Y206267D01*
X502419Y206223D01*
X502309Y206175D01*
X502200Y206124D01*
X502093Y206069D01*
X501989Y206010D01*
X501886Y205949D01*
X501785Y205884D01*
X501686Y205815D01*
X501589Y205744D01*
X501495Y205669D01*
X501404Y205592D01*
X501315Y205511D01*
X501229Y205427D01*
X501145Y205341D01*
X501064Y205252D01*
X500987Y205161D01*
X500912Y205067D01*
X500841Y204970D01*
X500772Y204871D01*
X500707Y204770D01*
X500646Y204668D01*
X500587Y204563D01*
X500532Y204456D01*
X500481Y204347D01*
X500433Y204237D01*
X500389Y204125D01*
X500349Y204012D01*
X500312Y203898D01*
X500279Y203783D01*
X500250Y203666D01*
X500224Y203549D01*
X500203Y203431D01*
X500185Y203312D01*
X500172Y203193D01*
X500162Y203073D01*
X500156Y202953D01*
X500154Y202833D01*
X500156Y202713D01*
X500162Y202593D01*
X500172Y202473D01*
X500185Y202354D01*
X500203Y202235D01*
X500224Y202117D01*
X500250Y202000D01*
X500279Y201883D01*
X500312Y201768D01*
X500349Y201654D01*
X500389Y201541D01*
X500433Y201429D01*
X500481Y201319D01*
X500532Y201210D01*
X500587Y201103D01*
X500646Y200998D01*
X500707Y200896D01*
X500772Y200795D01*
X500841Y200696D01*
X500912Y200599D01*
X500987Y200505D01*
X501064Y200414D01*
X501145Y200325D01*
X501229Y200239D01*
X501315Y200155D01*
X501404Y200074D01*
X501495Y199997D01*
X501589Y199922D01*
X501686Y199851D01*
X501785Y199782D01*
X501886Y199717D01*
X501989Y199656D01*
X502093Y199597D01*
X502200Y199542D01*
X502309Y199491D01*
X502419Y199443D01*
X502531Y199399D01*
X502644Y199359D01*
X502758Y199322D01*
X502873Y199289D01*
X502990Y199260D01*
X503107Y199234D01*
X503225Y199213D01*
X503344Y199195D01*
X503463Y199182D01*
X503583Y199172D01*
X503703Y199166D01*
X503823Y199164D01*
X507492Y199164D01*
X494919Y202099D02*
X494919Y193294D01*
X494919Y202099D02*
X490517Y202099D01*
X490517Y200632D01*
X486455Y199164D02*
X486455Y196229D01*
X486455Y199164D02*
X486453Y199271D01*
X486447Y199378D01*
X486437Y199485D01*
X486424Y199591D01*
X486406Y199697D01*
X486385Y199802D01*
X486360Y199906D01*
X486331Y200010D01*
X486298Y200112D01*
X486261Y200212D01*
X486221Y200312D01*
X486177Y200410D01*
X486130Y200506D01*
X486079Y200600D01*
X486025Y200693D01*
X485968Y200783D01*
X485907Y200872D01*
X485843Y200958D01*
X485776Y201041D01*
X485706Y201123D01*
X485633Y201201D01*
X485557Y201277D01*
X485479Y201350D01*
X485397Y201420D01*
X485314Y201487D01*
X485228Y201551D01*
X485139Y201612D01*
X485049Y201669D01*
X484956Y201723D01*
X484862Y201774D01*
X484766Y201821D01*
X484668Y201865D01*
X484568Y201905D01*
X484468Y201942D01*
X484366Y201975D01*
X484262Y202004D01*
X484158Y202029D01*
X484053Y202050D01*
X483947Y202068D01*
X483841Y202081D01*
X483734Y202091D01*
X483627Y202097D01*
X483520Y202099D01*
X483413Y202097D01*
X483306Y202091D01*
X483199Y202081D01*
X483093Y202068D01*
X482987Y202050D01*
X482882Y202029D01*
X482778Y202004D01*
X482674Y201975D01*
X482572Y201942D01*
X482472Y201905D01*
X482372Y201865D01*
X482274Y201821D01*
X482178Y201774D01*
X482084Y201723D01*
X481991Y201669D01*
X481901Y201612D01*
X481812Y201551D01*
X481726Y201487D01*
X481643Y201420D01*
X481561Y201350D01*
X481483Y201277D01*
X481407Y201201D01*
X481334Y201123D01*
X481264Y201041D01*
X481197Y200958D01*
X481133Y200872D01*
X481072Y200783D01*
X481015Y200693D01*
X480961Y200600D01*
X480910Y200506D01*
X480863Y200410D01*
X480819Y200312D01*
X480779Y200212D01*
X480742Y200112D01*
X480709Y200010D01*
X480680Y199906D01*
X480655Y199802D01*
X480634Y199697D01*
X480616Y199591D01*
X480603Y199485D01*
X480593Y199378D01*
X480587Y199271D01*
X480585Y199164D01*
X480585Y196229D01*
X480587Y196122D01*
X480593Y196015D01*
X480603Y195908D01*
X480616Y195802D01*
X480634Y195696D01*
X480655Y195591D01*
X480680Y195487D01*
X480709Y195383D01*
X480742Y195281D01*
X480779Y195181D01*
X480819Y195081D01*
X480863Y194983D01*
X480910Y194887D01*
X480961Y194793D01*
X481015Y194700D01*
X481072Y194610D01*
X481133Y194521D01*
X481197Y194435D01*
X481264Y194352D01*
X481334Y194270D01*
X481407Y194192D01*
X481483Y194116D01*
X481561Y194043D01*
X481643Y193973D01*
X481726Y193906D01*
X481812Y193842D01*
X481901Y193781D01*
X481991Y193724D01*
X482084Y193670D01*
X482178Y193619D01*
X482274Y193572D01*
X482372Y193528D01*
X482472Y193488D01*
X482572Y193451D01*
X482674Y193418D01*
X482778Y193389D01*
X482882Y193364D01*
X482987Y193343D01*
X483093Y193325D01*
X483199Y193312D01*
X483306Y193302D01*
X483413Y193296D01*
X483520Y193294D01*
X483627Y193296D01*
X483734Y193302D01*
X483841Y193312D01*
X483947Y193325D01*
X484053Y193343D01*
X484158Y193364D01*
X484262Y193389D01*
X484366Y193418D01*
X484468Y193451D01*
X484568Y193488D01*
X484668Y193528D01*
X484766Y193572D01*
X484862Y193619D01*
X484956Y193670D01*
X485049Y193724D01*
X485139Y193781D01*
X485228Y193842D01*
X485314Y193906D01*
X485397Y193973D01*
X485479Y194043D01*
X485557Y194116D01*
X485633Y194192D01*
X485706Y194270D01*
X485776Y194352D01*
X485843Y194435D01*
X485907Y194521D01*
X485968Y194610D01*
X486025Y194700D01*
X486079Y194793D01*
X486130Y194887D01*
X486177Y194983D01*
X486221Y195081D01*
X486261Y195181D01*
X486298Y195281D01*
X486331Y195383D01*
X486360Y195487D01*
X486385Y195591D01*
X486406Y195696D01*
X486424Y195802D01*
X486437Y195908D01*
X486447Y196015D01*
X486453Y196122D01*
X486455Y196229D01*
X476432Y202099D02*
X472029Y202099D01*
X474964Y206502D02*
X474964Y195495D01*
X474962Y195404D01*
X474956Y195313D01*
X474947Y195223D01*
X474934Y195133D01*
X474917Y195043D01*
X474897Y194955D01*
X474872Y194867D01*
X474845Y194780D01*
X474813Y194695D01*
X474779Y194611D01*
X474740Y194528D01*
X474699Y194447D01*
X474654Y194368D01*
X474606Y194291D01*
X474554Y194216D01*
X474500Y194143D01*
X474443Y194072D01*
X474382Y194004D01*
X474319Y193939D01*
X474254Y193876D01*
X474186Y193815D01*
X474115Y193758D01*
X474042Y193704D01*
X473967Y193652D01*
X473890Y193604D01*
X473811Y193559D01*
X473730Y193518D01*
X473647Y193479D01*
X473563Y193445D01*
X473478Y193413D01*
X473391Y193386D01*
X473303Y193361D01*
X473215Y193341D01*
X473125Y193324D01*
X473035Y193311D01*
X472945Y193302D01*
X472854Y193296D01*
X472763Y193294D01*
X472029Y193294D01*
X467253Y196229D02*
X467253Y199164D01*
X467251Y199271D01*
X467245Y199378D01*
X467235Y199485D01*
X467222Y199591D01*
X467204Y199697D01*
X467183Y199802D01*
X467158Y199906D01*
X467129Y200010D01*
X467096Y200112D01*
X467059Y200212D01*
X467019Y200312D01*
X466975Y200410D01*
X466928Y200506D01*
X466877Y200600D01*
X466823Y200693D01*
X466766Y200783D01*
X466705Y200872D01*
X466641Y200958D01*
X466574Y201041D01*
X466504Y201123D01*
X466431Y201201D01*
X466355Y201277D01*
X466277Y201350D01*
X466195Y201420D01*
X466112Y201487D01*
X466026Y201551D01*
X465937Y201612D01*
X465847Y201669D01*
X465754Y201723D01*
X465660Y201774D01*
X465564Y201821D01*
X465466Y201865D01*
X465366Y201905D01*
X465266Y201942D01*
X465164Y201975D01*
X465060Y202004D01*
X464956Y202029D01*
X464851Y202050D01*
X464745Y202068D01*
X464639Y202081D01*
X464532Y202091D01*
X464425Y202097D01*
X464318Y202099D01*
X464211Y202097D01*
X464104Y202091D01*
X463997Y202081D01*
X463891Y202068D01*
X463785Y202050D01*
X463680Y202029D01*
X463576Y202004D01*
X463472Y201975D01*
X463370Y201942D01*
X463270Y201905D01*
X463170Y201865D01*
X463072Y201821D01*
X462976Y201774D01*
X462882Y201723D01*
X462789Y201669D01*
X462699Y201612D01*
X462610Y201551D01*
X462524Y201487D01*
X462441Y201420D01*
X462359Y201350D01*
X462281Y201277D01*
X462205Y201201D01*
X462132Y201123D01*
X462062Y201041D01*
X461995Y200958D01*
X461931Y200872D01*
X461870Y200783D01*
X461813Y200693D01*
X461759Y200600D01*
X461708Y200506D01*
X461661Y200410D01*
X461617Y200312D01*
X461577Y200212D01*
X461540Y200112D01*
X461507Y200010D01*
X461478Y199906D01*
X461453Y199802D01*
X461432Y199697D01*
X461414Y199591D01*
X461401Y199485D01*
X461391Y199378D01*
X461385Y199271D01*
X461383Y199164D01*
X461383Y196229D01*
X461385Y196122D01*
X461391Y196015D01*
X461401Y195908D01*
X461414Y195802D01*
X461432Y195696D01*
X461453Y195591D01*
X461478Y195487D01*
X461507Y195383D01*
X461540Y195281D01*
X461577Y195181D01*
X461617Y195081D01*
X461661Y194983D01*
X461708Y194887D01*
X461759Y194793D01*
X461813Y194700D01*
X461870Y194610D01*
X461931Y194521D01*
X461995Y194435D01*
X462062Y194352D01*
X462132Y194270D01*
X462205Y194192D01*
X462281Y194116D01*
X462359Y194043D01*
X462441Y193973D01*
X462524Y193906D01*
X462610Y193842D01*
X462699Y193781D01*
X462789Y193724D01*
X462882Y193670D01*
X462976Y193619D01*
X463072Y193572D01*
X463170Y193528D01*
X463270Y193488D01*
X463370Y193451D01*
X463472Y193418D01*
X463576Y193389D01*
X463680Y193364D01*
X463785Y193343D01*
X463891Y193325D01*
X463997Y193312D01*
X464104Y193302D01*
X464211Y193296D01*
X464318Y193294D01*
X464425Y193296D01*
X464532Y193302D01*
X464639Y193312D01*
X464745Y193325D01*
X464851Y193343D01*
X464956Y193364D01*
X465060Y193389D01*
X465164Y193418D01*
X465266Y193451D01*
X465366Y193488D01*
X465466Y193528D01*
X465564Y193572D01*
X465660Y193619D01*
X465754Y193670D01*
X465847Y193724D01*
X465937Y193781D01*
X466026Y193842D01*
X466112Y193906D01*
X466195Y193973D01*
X466277Y194043D01*
X466355Y194116D01*
X466431Y194192D01*
X466504Y194270D01*
X466574Y194352D01*
X466641Y194435D01*
X466705Y194521D01*
X466766Y194610D01*
X466823Y194700D01*
X466877Y194793D01*
X466928Y194887D01*
X466975Y194983D01*
X467019Y195081D01*
X467059Y195181D01*
X467096Y195281D01*
X467129Y195383D01*
X467158Y195487D01*
X467183Y195591D01*
X467204Y195696D01*
X467222Y195802D01*
X467235Y195908D01*
X467245Y196015D01*
X467251Y196122D01*
X467253Y196229D01*
X457229Y202099D02*
X452827Y202099D01*
X455762Y206502D02*
X455762Y195495D01*
X455761Y195495D02*
X455759Y195404D01*
X455753Y195313D01*
X455744Y195223D01*
X455731Y195133D01*
X455714Y195043D01*
X455694Y194955D01*
X455669Y194867D01*
X455642Y194780D01*
X455610Y194695D01*
X455576Y194611D01*
X455537Y194528D01*
X455496Y194447D01*
X455451Y194368D01*
X455403Y194291D01*
X455351Y194216D01*
X455297Y194143D01*
X455240Y194072D01*
X455179Y194004D01*
X455116Y193939D01*
X455051Y193876D01*
X454983Y193815D01*
X454912Y193758D01*
X454839Y193704D01*
X454764Y193652D01*
X454687Y193604D01*
X454608Y193559D01*
X454527Y193518D01*
X454444Y193479D01*
X454360Y193445D01*
X454275Y193413D01*
X454188Y193386D01*
X454100Y193361D01*
X454012Y193341D01*
X453922Y193324D01*
X453832Y193311D01*
X453742Y193302D01*
X453651Y193296D01*
X453560Y193294D01*
X452827Y193294D01*
X448477Y188891D02*
X447010Y188891D01*
X442607Y202099D01*
X448477Y202099D02*
X445542Y193294D01*
X437320Y188891D02*
X437320Y202099D01*
X433651Y202099D01*
X433558Y202097D01*
X433464Y202091D01*
X433371Y202081D01*
X433279Y202067D01*
X433187Y202050D01*
X433096Y202028D01*
X433007Y202003D01*
X432918Y201973D01*
X432830Y201940D01*
X432744Y201904D01*
X432660Y201863D01*
X432578Y201820D01*
X432497Y201772D01*
X432419Y201722D01*
X432342Y201668D01*
X432268Y201610D01*
X432197Y201550D01*
X432128Y201487D01*
X432062Y201421D01*
X431999Y201352D01*
X431939Y201281D01*
X431881Y201207D01*
X431827Y201131D01*
X431777Y201052D01*
X431730Y200971D01*
X431686Y200889D01*
X431645Y200805D01*
X431609Y200719D01*
X431576Y200631D01*
X431546Y200543D01*
X431521Y200453D01*
X431499Y200362D01*
X431482Y200270D01*
X431468Y200178D01*
X431458Y200085D01*
X431452Y199991D01*
X431450Y199898D01*
X431450Y195495D01*
X431452Y195404D01*
X431458Y195313D01*
X431467Y195223D01*
X431480Y195133D01*
X431497Y195043D01*
X431517Y194955D01*
X431542Y194867D01*
X431569Y194780D01*
X431601Y194695D01*
X431635Y194611D01*
X431674Y194528D01*
X431715Y194447D01*
X431760Y194368D01*
X431808Y194291D01*
X431860Y194216D01*
X431914Y194143D01*
X431971Y194072D01*
X432032Y194004D01*
X432095Y193939D01*
X432160Y193876D01*
X432229Y193815D01*
X432299Y193758D01*
X432372Y193704D01*
X432447Y193652D01*
X432524Y193604D01*
X432603Y193559D01*
X432684Y193518D01*
X432767Y193479D01*
X432851Y193445D01*
X432936Y193413D01*
X433023Y193385D01*
X433111Y193361D01*
X433199Y193341D01*
X433289Y193324D01*
X433379Y193311D01*
X433469Y193302D01*
X433560Y193296D01*
X433651Y193294D01*
X437320Y193294D01*
X424087Y193294D02*
X420418Y193294D01*
X424087Y193294D02*
X424178Y193296D01*
X424269Y193302D01*
X424359Y193311D01*
X424449Y193324D01*
X424539Y193341D01*
X424627Y193361D01*
X424715Y193386D01*
X424802Y193413D01*
X424887Y193445D01*
X424971Y193479D01*
X425054Y193518D01*
X425135Y193559D01*
X425214Y193604D01*
X425291Y193652D01*
X425366Y193704D01*
X425439Y193758D01*
X425510Y193815D01*
X425578Y193876D01*
X425643Y193939D01*
X425706Y194004D01*
X425767Y194072D01*
X425824Y194143D01*
X425878Y194216D01*
X425930Y194291D01*
X425978Y194368D01*
X426023Y194447D01*
X426064Y194528D01*
X426103Y194611D01*
X426137Y194695D01*
X426169Y194780D01*
X426196Y194867D01*
X426221Y194955D01*
X426241Y195043D01*
X426258Y195133D01*
X426271Y195223D01*
X426280Y195313D01*
X426286Y195404D01*
X426288Y195495D01*
X426288Y199164D01*
X426286Y199271D01*
X426280Y199378D01*
X426270Y199485D01*
X426257Y199591D01*
X426239Y199697D01*
X426218Y199802D01*
X426193Y199906D01*
X426164Y200010D01*
X426131Y200112D01*
X426094Y200212D01*
X426054Y200312D01*
X426010Y200410D01*
X425963Y200506D01*
X425912Y200600D01*
X425858Y200693D01*
X425801Y200783D01*
X425740Y200872D01*
X425676Y200958D01*
X425609Y201041D01*
X425539Y201123D01*
X425466Y201201D01*
X425390Y201277D01*
X425312Y201350D01*
X425230Y201420D01*
X425147Y201487D01*
X425061Y201551D01*
X424972Y201612D01*
X424882Y201669D01*
X424789Y201723D01*
X424695Y201774D01*
X424599Y201821D01*
X424501Y201865D01*
X424401Y201905D01*
X424301Y201942D01*
X424199Y201975D01*
X424095Y202004D01*
X423991Y202029D01*
X423886Y202050D01*
X423780Y202068D01*
X423674Y202081D01*
X423567Y202091D01*
X423460Y202097D01*
X423353Y202099D01*
X423246Y202097D01*
X423139Y202091D01*
X423032Y202081D01*
X422926Y202068D01*
X422820Y202050D01*
X422715Y202029D01*
X422611Y202004D01*
X422507Y201975D01*
X422405Y201942D01*
X422305Y201905D01*
X422205Y201865D01*
X422107Y201821D01*
X422011Y201774D01*
X421917Y201723D01*
X421824Y201669D01*
X421734Y201612D01*
X421645Y201551D01*
X421559Y201487D01*
X421476Y201420D01*
X421394Y201350D01*
X421316Y201277D01*
X421240Y201201D01*
X421167Y201123D01*
X421097Y201041D01*
X421030Y200958D01*
X420966Y200872D01*
X420905Y200783D01*
X420848Y200693D01*
X420794Y200600D01*
X420743Y200506D01*
X420696Y200410D01*
X420652Y200312D01*
X420612Y200212D01*
X420575Y200112D01*
X420542Y200010D01*
X420513Y199906D01*
X420488Y199802D01*
X420467Y199697D01*
X420449Y199591D01*
X420436Y199485D01*
X420426Y199378D01*
X420420Y199271D01*
X420418Y199164D01*
X420418Y197697D01*
X426288Y197697D01*
X407640Y200632D02*
X403971Y200632D01*
X403851Y200630D01*
X403731Y200624D01*
X403611Y200614D01*
X403492Y200601D01*
X403373Y200583D01*
X403255Y200562D01*
X403138Y200536D01*
X403021Y200507D01*
X402906Y200474D01*
X402792Y200437D01*
X402679Y200397D01*
X402567Y200353D01*
X402457Y200305D01*
X402348Y200254D01*
X402241Y200199D01*
X402137Y200140D01*
X402034Y200079D01*
X401933Y200014D01*
X401834Y199945D01*
X401737Y199874D01*
X401643Y199799D01*
X401552Y199722D01*
X401463Y199641D01*
X401377Y199557D01*
X401293Y199471D01*
X401212Y199382D01*
X401135Y199291D01*
X401060Y199197D01*
X400989Y199100D01*
X400920Y199001D01*
X400855Y198900D01*
X400794Y198798D01*
X400735Y198693D01*
X400680Y198586D01*
X400629Y198477D01*
X400581Y198367D01*
X400537Y198255D01*
X400497Y198142D01*
X400460Y198028D01*
X400427Y197913D01*
X400398Y197796D01*
X400372Y197679D01*
X400351Y197561D01*
X400333Y197442D01*
X400320Y197323D01*
X400310Y197203D01*
X400304Y197083D01*
X400302Y196963D01*
X400304Y196843D01*
X400310Y196723D01*
X400320Y196603D01*
X400333Y196484D01*
X400351Y196365D01*
X400372Y196247D01*
X400398Y196130D01*
X400427Y196013D01*
X400460Y195898D01*
X400497Y195784D01*
X400537Y195671D01*
X400581Y195559D01*
X400629Y195449D01*
X400680Y195340D01*
X400735Y195233D01*
X400794Y195128D01*
X400855Y195026D01*
X400920Y194925D01*
X400989Y194826D01*
X401060Y194729D01*
X401135Y194635D01*
X401212Y194544D01*
X401293Y194455D01*
X401377Y194369D01*
X401463Y194285D01*
X401552Y194204D01*
X401643Y194127D01*
X401737Y194052D01*
X401834Y193981D01*
X401933Y193912D01*
X402034Y193847D01*
X402137Y193786D01*
X402241Y193727D01*
X402348Y193672D01*
X402457Y193621D01*
X402567Y193573D01*
X402679Y193529D01*
X402792Y193489D01*
X402906Y193452D01*
X403021Y193419D01*
X403138Y193390D01*
X403255Y193364D01*
X403373Y193343D01*
X403492Y193325D01*
X403611Y193312D01*
X403731Y193302D01*
X403851Y193296D01*
X403971Y193294D01*
X407640Y193294D01*
X407640Y206502D01*
X403971Y206502D01*
X403864Y206500D01*
X403757Y206494D01*
X403650Y206484D01*
X403544Y206471D01*
X403438Y206453D01*
X403333Y206432D01*
X403229Y206407D01*
X403125Y206378D01*
X403023Y206345D01*
X402923Y206308D01*
X402823Y206268D01*
X402725Y206224D01*
X402629Y206177D01*
X402535Y206126D01*
X402442Y206072D01*
X402352Y206015D01*
X402263Y205954D01*
X402177Y205890D01*
X402094Y205823D01*
X402012Y205753D01*
X401934Y205680D01*
X401858Y205604D01*
X401785Y205526D01*
X401715Y205444D01*
X401648Y205361D01*
X401584Y205275D01*
X401523Y205186D01*
X401466Y205096D01*
X401412Y205003D01*
X401361Y204909D01*
X401314Y204813D01*
X401270Y204715D01*
X401230Y204615D01*
X401193Y204515D01*
X401160Y204413D01*
X401131Y204309D01*
X401106Y204205D01*
X401085Y204100D01*
X401067Y203994D01*
X401054Y203888D01*
X401044Y203781D01*
X401038Y203674D01*
X401036Y203567D01*
X401038Y203460D01*
X401044Y203353D01*
X401054Y203246D01*
X401067Y203140D01*
X401085Y203034D01*
X401106Y202929D01*
X401131Y202825D01*
X401160Y202721D01*
X401193Y202619D01*
X401230Y202519D01*
X401270Y202419D01*
X401314Y202321D01*
X401361Y202225D01*
X401412Y202131D01*
X401466Y202038D01*
X401523Y201948D01*
X401584Y201859D01*
X401648Y201773D01*
X401715Y201690D01*
X401785Y201608D01*
X401858Y201530D01*
X401934Y201454D01*
X402012Y201381D01*
X402094Y201311D01*
X402177Y201244D01*
X402263Y201180D01*
X402352Y201119D01*
X402442Y201062D01*
X402535Y201008D01*
X402629Y200957D01*
X402725Y200910D01*
X402823Y200866D01*
X402923Y200826D01*
X403023Y200789D01*
X403125Y200756D01*
X403229Y200727D01*
X403333Y200702D01*
X403438Y200681D01*
X403544Y200663D01*
X403650Y200650D01*
X403757Y200640D01*
X403864Y200634D01*
X403971Y200632D01*
X395564Y199164D02*
X395564Y196229D01*
X395564Y199164D02*
X395562Y199271D01*
X395556Y199378D01*
X395546Y199485D01*
X395533Y199591D01*
X395515Y199697D01*
X395494Y199802D01*
X395469Y199906D01*
X395440Y200010D01*
X395407Y200112D01*
X395370Y200212D01*
X395330Y200312D01*
X395286Y200410D01*
X395239Y200506D01*
X395188Y200600D01*
X395134Y200693D01*
X395077Y200783D01*
X395016Y200872D01*
X394952Y200958D01*
X394885Y201041D01*
X394815Y201123D01*
X394742Y201201D01*
X394666Y201277D01*
X394588Y201350D01*
X394506Y201420D01*
X394423Y201487D01*
X394337Y201551D01*
X394248Y201612D01*
X394158Y201669D01*
X394065Y201723D01*
X393971Y201774D01*
X393875Y201821D01*
X393777Y201865D01*
X393677Y201905D01*
X393577Y201942D01*
X393475Y201975D01*
X393371Y202004D01*
X393267Y202029D01*
X393162Y202050D01*
X393056Y202068D01*
X392950Y202081D01*
X392843Y202091D01*
X392736Y202097D01*
X392629Y202099D01*
X392522Y202097D01*
X392415Y202091D01*
X392308Y202081D01*
X392202Y202068D01*
X392096Y202050D01*
X391991Y202029D01*
X391887Y202004D01*
X391783Y201975D01*
X391681Y201942D01*
X391581Y201905D01*
X391481Y201865D01*
X391383Y201821D01*
X391287Y201774D01*
X391193Y201723D01*
X391100Y201669D01*
X391010Y201612D01*
X390921Y201551D01*
X390835Y201487D01*
X390752Y201420D01*
X390670Y201350D01*
X390592Y201277D01*
X390516Y201201D01*
X390443Y201123D01*
X390373Y201041D01*
X390306Y200958D01*
X390242Y200872D01*
X390181Y200783D01*
X390124Y200693D01*
X390070Y200600D01*
X390019Y200506D01*
X389972Y200410D01*
X389928Y200312D01*
X389888Y200212D01*
X389851Y200112D01*
X389818Y200010D01*
X389789Y199906D01*
X389764Y199802D01*
X389743Y199697D01*
X389725Y199591D01*
X389712Y199485D01*
X389702Y199378D01*
X389696Y199271D01*
X389694Y199164D01*
X389694Y196229D01*
X389696Y196122D01*
X389702Y196015D01*
X389712Y195908D01*
X389725Y195802D01*
X389743Y195696D01*
X389764Y195591D01*
X389789Y195487D01*
X389818Y195383D01*
X389851Y195281D01*
X389888Y195181D01*
X389928Y195081D01*
X389972Y194983D01*
X390019Y194887D01*
X390070Y194793D01*
X390124Y194700D01*
X390181Y194610D01*
X390242Y194521D01*
X390306Y194435D01*
X390373Y194352D01*
X390443Y194270D01*
X390516Y194192D01*
X390592Y194116D01*
X390670Y194043D01*
X390752Y193973D01*
X390835Y193906D01*
X390921Y193842D01*
X391010Y193781D01*
X391100Y193724D01*
X391193Y193670D01*
X391287Y193619D01*
X391383Y193572D01*
X391481Y193528D01*
X391581Y193488D01*
X391681Y193451D01*
X391783Y193418D01*
X391887Y193389D01*
X391991Y193364D01*
X392096Y193343D01*
X392202Y193325D01*
X392308Y193312D01*
X392415Y193302D01*
X392522Y193296D01*
X392629Y193294D01*
X392736Y193296D01*
X392843Y193302D01*
X392950Y193312D01*
X393056Y193325D01*
X393162Y193343D01*
X393267Y193364D01*
X393371Y193389D01*
X393475Y193418D01*
X393577Y193451D01*
X393677Y193488D01*
X393777Y193528D01*
X393875Y193572D01*
X393971Y193619D01*
X394065Y193670D01*
X394158Y193724D01*
X394248Y193781D01*
X394337Y193842D01*
X394423Y193906D01*
X394506Y193973D01*
X394588Y194043D01*
X394666Y194116D01*
X394742Y194192D01*
X394815Y194270D01*
X394885Y194352D01*
X394952Y194435D01*
X395016Y194521D01*
X395077Y194610D01*
X395134Y194700D01*
X395188Y194793D01*
X395239Y194887D01*
X395286Y194983D01*
X395330Y195081D01*
X395370Y195181D01*
X395407Y195281D01*
X395440Y195383D01*
X395469Y195487D01*
X395494Y195591D01*
X395515Y195696D01*
X395533Y195802D01*
X395546Y195908D01*
X395556Y196015D01*
X395562Y196122D01*
X395564Y196229D01*
X381964Y198430D02*
X378662Y198430D01*
X381964Y198430D02*
X382064Y198428D01*
X382163Y198422D01*
X382262Y198413D01*
X382361Y198399D01*
X382459Y198382D01*
X382556Y198361D01*
X382653Y198336D01*
X382748Y198307D01*
X382842Y198275D01*
X382935Y198239D01*
X383027Y198200D01*
X383117Y198157D01*
X383205Y198110D01*
X383291Y198061D01*
X383375Y198008D01*
X383457Y197951D01*
X383537Y197892D01*
X383615Y197829D01*
X383690Y197764D01*
X383762Y197695D01*
X383832Y197624D01*
X383899Y197551D01*
X383963Y197474D01*
X384024Y197396D01*
X384082Y197314D01*
X384136Y197231D01*
X384188Y197146D01*
X384236Y197059D01*
X384281Y196970D01*
X384322Y196879D01*
X384360Y196787D01*
X384394Y196693D01*
X384424Y196599D01*
X384451Y196503D01*
X384474Y196406D01*
X384493Y196308D01*
X384508Y196210D01*
X384520Y196111D01*
X384528Y196011D01*
X384532Y195912D01*
X384532Y195812D01*
X384528Y195713D01*
X384520Y195613D01*
X384508Y195514D01*
X384493Y195416D01*
X384474Y195318D01*
X384451Y195221D01*
X384424Y195125D01*
X384394Y195031D01*
X384360Y194937D01*
X384322Y194845D01*
X384281Y194754D01*
X384236Y194665D01*
X384188Y194578D01*
X384136Y194493D01*
X384082Y194410D01*
X384024Y194328D01*
X383963Y194250D01*
X383899Y194173D01*
X383832Y194100D01*
X383762Y194029D01*
X383690Y193960D01*
X383615Y193895D01*
X383537Y193832D01*
X383457Y193773D01*
X383375Y193716D01*
X383291Y193663D01*
X383205Y193614D01*
X383117Y193567D01*
X383027Y193524D01*
X382935Y193485D01*
X382842Y193449D01*
X382748Y193417D01*
X382653Y193388D01*
X382556Y193363D01*
X382459Y193342D01*
X382361Y193325D01*
X382262Y193311D01*
X382163Y193302D01*
X382064Y193296D01*
X381964Y193294D01*
X378662Y193294D01*
X378662Y199898D01*
X378664Y199989D01*
X378670Y200080D01*
X378679Y200170D01*
X378692Y200260D01*
X378709Y200350D01*
X378729Y200438D01*
X378754Y200526D01*
X378781Y200613D01*
X378813Y200698D01*
X378847Y200782D01*
X378886Y200865D01*
X378927Y200946D01*
X378972Y201025D01*
X379020Y201102D01*
X379072Y201177D01*
X379126Y201250D01*
X379183Y201321D01*
X379244Y201389D01*
X379307Y201454D01*
X379372Y201517D01*
X379441Y201578D01*
X379511Y201635D01*
X379584Y201689D01*
X379659Y201741D01*
X379736Y201789D01*
X379815Y201834D01*
X379896Y201875D01*
X379979Y201914D01*
X380063Y201948D01*
X380148Y201980D01*
X380235Y202008D01*
X380323Y202032D01*
X380411Y202052D01*
X380501Y202069D01*
X380591Y202082D01*
X380681Y202091D01*
X380772Y202097D01*
X380863Y202099D01*
X383798Y202099D01*
X372451Y202099D02*
X372451Y193294D01*
X372451Y202099D02*
X368048Y202099D01*
X368048Y200632D01*
X358179Y206502D02*
X358179Y193294D01*
X361848Y193294D01*
X361939Y193296D01*
X362030Y193302D01*
X362120Y193311D01*
X362210Y193324D01*
X362300Y193341D01*
X362388Y193361D01*
X362476Y193386D01*
X362563Y193413D01*
X362648Y193445D01*
X362732Y193479D01*
X362815Y193518D01*
X362896Y193559D01*
X362975Y193604D01*
X363052Y193652D01*
X363127Y193704D01*
X363200Y193758D01*
X363271Y193815D01*
X363339Y193876D01*
X363404Y193939D01*
X363467Y194004D01*
X363528Y194072D01*
X363585Y194143D01*
X363639Y194216D01*
X363691Y194291D01*
X363739Y194368D01*
X363784Y194447D01*
X363825Y194528D01*
X363864Y194611D01*
X363898Y194695D01*
X363930Y194780D01*
X363957Y194867D01*
X363982Y194955D01*
X364002Y195043D01*
X364019Y195133D01*
X364032Y195223D01*
X364041Y195313D01*
X364047Y195404D01*
X364049Y195495D01*
X364049Y199898D01*
X364047Y199989D01*
X364041Y200080D01*
X364032Y200170D01*
X364019Y200260D01*
X364002Y200350D01*
X363982Y200438D01*
X363957Y200526D01*
X363930Y200613D01*
X363898Y200698D01*
X363864Y200782D01*
X363825Y200865D01*
X363784Y200946D01*
X363739Y201025D01*
X363691Y201102D01*
X363639Y201177D01*
X363585Y201250D01*
X363528Y201321D01*
X363467Y201389D01*
X363404Y201454D01*
X363339Y201517D01*
X363271Y201578D01*
X363200Y201635D01*
X363127Y201689D01*
X363052Y201741D01*
X362975Y201789D01*
X362896Y201834D01*
X362815Y201875D01*
X362732Y201914D01*
X362648Y201948D01*
X362563Y201980D01*
X362476Y202007D01*
X362388Y202032D01*
X362300Y202052D01*
X362210Y202069D01*
X362120Y202082D01*
X362030Y202091D01*
X361939Y202097D01*
X361848Y202099D01*
X358179Y202099D01*
X507492Y180763D02*
X507492Y171958D01*
X507492Y180763D02*
X503089Y180763D01*
X503089Y179296D01*
X496827Y171958D02*
X493158Y171958D01*
X496827Y171958D02*
X496918Y171960D01*
X497009Y171966D01*
X497099Y171975D01*
X497189Y171988D01*
X497279Y172005D01*
X497367Y172025D01*
X497455Y172050D01*
X497542Y172077D01*
X497627Y172109D01*
X497711Y172143D01*
X497794Y172182D01*
X497875Y172223D01*
X497954Y172268D01*
X498031Y172316D01*
X498106Y172368D01*
X498179Y172422D01*
X498250Y172479D01*
X498318Y172540D01*
X498383Y172603D01*
X498446Y172668D01*
X498507Y172736D01*
X498564Y172807D01*
X498618Y172880D01*
X498670Y172955D01*
X498718Y173032D01*
X498763Y173111D01*
X498804Y173192D01*
X498843Y173275D01*
X498877Y173359D01*
X498909Y173444D01*
X498936Y173531D01*
X498961Y173619D01*
X498981Y173707D01*
X498998Y173797D01*
X499011Y173887D01*
X499020Y173977D01*
X499026Y174068D01*
X499028Y174159D01*
X499028Y177828D01*
X499026Y177935D01*
X499020Y178042D01*
X499010Y178149D01*
X498997Y178255D01*
X498979Y178361D01*
X498958Y178466D01*
X498933Y178570D01*
X498904Y178674D01*
X498871Y178776D01*
X498834Y178876D01*
X498794Y178976D01*
X498750Y179074D01*
X498703Y179170D01*
X498652Y179264D01*
X498598Y179357D01*
X498541Y179447D01*
X498480Y179536D01*
X498416Y179622D01*
X498349Y179705D01*
X498279Y179787D01*
X498206Y179865D01*
X498130Y179941D01*
X498052Y180014D01*
X497970Y180084D01*
X497887Y180151D01*
X497801Y180215D01*
X497712Y180276D01*
X497622Y180333D01*
X497529Y180387D01*
X497435Y180438D01*
X497339Y180485D01*
X497241Y180529D01*
X497141Y180569D01*
X497041Y180606D01*
X496939Y180639D01*
X496835Y180668D01*
X496731Y180693D01*
X496626Y180714D01*
X496520Y180732D01*
X496414Y180745D01*
X496307Y180755D01*
X496200Y180761D01*
X496093Y180763D01*
X495986Y180761D01*
X495879Y180755D01*
X495772Y180745D01*
X495666Y180732D01*
X495560Y180714D01*
X495455Y180693D01*
X495351Y180668D01*
X495247Y180639D01*
X495145Y180606D01*
X495045Y180569D01*
X494945Y180529D01*
X494847Y180485D01*
X494751Y180438D01*
X494657Y180387D01*
X494564Y180333D01*
X494474Y180276D01*
X494385Y180215D01*
X494299Y180151D01*
X494216Y180084D01*
X494134Y180014D01*
X494056Y179941D01*
X493980Y179865D01*
X493907Y179787D01*
X493837Y179705D01*
X493770Y179622D01*
X493706Y179536D01*
X493645Y179447D01*
X493588Y179357D01*
X493534Y179264D01*
X493483Y179170D01*
X493436Y179074D01*
X493392Y178976D01*
X493352Y178876D01*
X493315Y178776D01*
X493282Y178674D01*
X493253Y178570D01*
X493228Y178466D01*
X493207Y178361D01*
X493189Y178255D01*
X493176Y178149D01*
X493166Y178042D01*
X493160Y177935D01*
X493158Y177828D01*
X493158Y176361D01*
X499028Y176361D01*
X488360Y180763D02*
X485425Y171958D01*
X482490Y180763D01*
X477572Y178562D02*
X477569Y178822D01*
X477560Y179081D01*
X477544Y179341D01*
X477522Y179600D01*
X477495Y179858D01*
X477461Y180116D01*
X477420Y180372D01*
X477374Y180628D01*
X477322Y180883D01*
X477263Y181136D01*
X477199Y181387D01*
X477128Y181638D01*
X477052Y181886D01*
X476970Y182132D01*
X476882Y182377D01*
X476788Y182619D01*
X476688Y182859D01*
X476582Y183096D01*
X476471Y183331D01*
X476471Y183332D02*
X476436Y183427D01*
X476398Y183522D01*
X476356Y183615D01*
X476310Y183706D01*
X476261Y183796D01*
X476209Y183884D01*
X476154Y183969D01*
X476095Y184053D01*
X476033Y184134D01*
X475969Y184213D01*
X475901Y184289D01*
X475830Y184363D01*
X475757Y184434D01*
X475681Y184502D01*
X475603Y184568D01*
X475522Y184630D01*
X475439Y184690D01*
X475354Y184746D01*
X475267Y184799D01*
X475178Y184848D01*
X475087Y184894D01*
X474994Y184937D01*
X474900Y184976D01*
X474804Y185012D01*
X474707Y185044D01*
X474609Y185073D01*
X474510Y185097D01*
X474410Y185118D01*
X474310Y185135D01*
X474209Y185149D01*
X474107Y185158D01*
X474005Y185164D01*
X473903Y185166D01*
X473801Y185164D01*
X473699Y185158D01*
X473597Y185149D01*
X473496Y185135D01*
X473396Y185118D01*
X473296Y185097D01*
X473197Y185073D01*
X473099Y185044D01*
X473002Y185012D01*
X472906Y184976D01*
X472812Y184937D01*
X472719Y184894D01*
X472628Y184848D01*
X472539Y184799D01*
X472452Y184746D01*
X472367Y184690D01*
X472284Y184630D01*
X472203Y184568D01*
X472125Y184502D01*
X472049Y184434D01*
X471976Y184363D01*
X471905Y184289D01*
X471837Y184213D01*
X471773Y184134D01*
X471711Y184053D01*
X471652Y183969D01*
X471597Y183884D01*
X471545Y183796D01*
X471496Y183706D01*
X471450Y183615D01*
X471408Y183522D01*
X471370Y183427D01*
X471335Y183332D01*
X471336Y183331D02*
X471225Y183097D01*
X471119Y182859D01*
X471019Y182619D01*
X470925Y182377D01*
X470837Y182132D01*
X470755Y181886D01*
X470679Y181638D01*
X470608Y181388D01*
X470544Y181136D01*
X470485Y180883D01*
X470433Y180628D01*
X470387Y180372D01*
X470346Y180116D01*
X470312Y179858D01*
X470285Y179600D01*
X470263Y179341D01*
X470247Y179081D01*
X470238Y178822D01*
X470235Y178562D01*
X477573Y178562D02*
X477570Y178302D01*
X477561Y178042D01*
X477545Y177783D01*
X477523Y177524D01*
X477496Y177266D01*
X477462Y177008D01*
X477421Y176751D01*
X477375Y176496D01*
X477323Y176241D01*
X477264Y175988D01*
X477200Y175736D01*
X477129Y175486D01*
X477053Y175238D01*
X476971Y174991D01*
X476883Y174747D01*
X476789Y174505D01*
X476689Y174265D01*
X476583Y174027D01*
X476472Y173792D01*
X476471Y173792D02*
X476436Y173697D01*
X476398Y173602D01*
X476356Y173509D01*
X476310Y173418D01*
X476261Y173328D01*
X476209Y173240D01*
X476154Y173155D01*
X476095Y173071D01*
X476033Y172990D01*
X475969Y172911D01*
X475901Y172835D01*
X475830Y172761D01*
X475757Y172690D01*
X475681Y172622D01*
X475603Y172556D01*
X475522Y172494D01*
X475439Y172434D01*
X475354Y172378D01*
X475267Y172325D01*
X475178Y172276D01*
X475087Y172230D01*
X474994Y172187D01*
X474900Y172148D01*
X474804Y172112D01*
X474707Y172080D01*
X474609Y172051D01*
X474510Y172027D01*
X474410Y172006D01*
X474310Y171989D01*
X474209Y171975D01*
X474107Y171966D01*
X474005Y171960D01*
X473903Y171958D01*
X471336Y173793D02*
X471225Y174028D01*
X471119Y174265D01*
X471019Y174505D01*
X470925Y174747D01*
X470837Y174992D01*
X470755Y175238D01*
X470679Y175486D01*
X470608Y175737D01*
X470544Y175988D01*
X470485Y176241D01*
X470433Y176496D01*
X470387Y176752D01*
X470346Y177008D01*
X470312Y177266D01*
X470285Y177524D01*
X470263Y177783D01*
X470247Y178043D01*
X470238Y178302D01*
X470235Y178562D01*
X471335Y173792D02*
X471370Y173697D01*
X471408Y173602D01*
X471450Y173509D01*
X471496Y173418D01*
X471545Y173328D01*
X471597Y173240D01*
X471652Y173155D01*
X471711Y173071D01*
X471773Y172990D01*
X471837Y172911D01*
X471905Y172835D01*
X471976Y172761D01*
X472049Y172690D01*
X472125Y172622D01*
X472203Y172556D01*
X472284Y172494D01*
X472367Y172434D01*
X472452Y172378D01*
X472539Y172325D01*
X472628Y172276D01*
X472719Y172230D01*
X472812Y172187D01*
X472906Y172148D01*
X473002Y172112D01*
X473099Y172080D01*
X473197Y172051D01*
X473296Y172027D01*
X473396Y172006D01*
X473496Y171989D01*
X473597Y171975D01*
X473699Y171966D01*
X473801Y171960D01*
X473903Y171958D01*
X476839Y174893D02*
X470968Y182231D01*
X464771Y182231D02*
X461102Y185166D01*
X461102Y171958D01*
X464771Y171958D02*
X457433Y171958D01*
X445022Y177094D02*
X436217Y177094D01*
X423379Y171958D02*
X423379Y185166D01*
X416041Y171958D01*
X416041Y185166D01*
X410270Y177828D02*
X410270Y174893D01*
X410270Y177828D02*
X410268Y177935D01*
X410262Y178042D01*
X410252Y178149D01*
X410239Y178255D01*
X410221Y178361D01*
X410200Y178466D01*
X410175Y178570D01*
X410146Y178674D01*
X410113Y178776D01*
X410076Y178876D01*
X410036Y178976D01*
X409992Y179074D01*
X409945Y179170D01*
X409894Y179264D01*
X409840Y179357D01*
X409783Y179447D01*
X409722Y179536D01*
X409658Y179622D01*
X409591Y179705D01*
X409521Y179787D01*
X409448Y179865D01*
X409372Y179941D01*
X409294Y180014D01*
X409212Y180084D01*
X409129Y180151D01*
X409043Y180215D01*
X408954Y180276D01*
X408864Y180333D01*
X408771Y180387D01*
X408677Y180438D01*
X408581Y180485D01*
X408483Y180529D01*
X408383Y180569D01*
X408283Y180606D01*
X408181Y180639D01*
X408077Y180668D01*
X407973Y180693D01*
X407868Y180714D01*
X407762Y180732D01*
X407656Y180745D01*
X407549Y180755D01*
X407442Y180761D01*
X407335Y180763D01*
X407228Y180761D01*
X407121Y180755D01*
X407014Y180745D01*
X406908Y180732D01*
X406802Y180714D01*
X406697Y180693D01*
X406593Y180668D01*
X406489Y180639D01*
X406387Y180606D01*
X406287Y180569D01*
X406187Y180529D01*
X406089Y180485D01*
X405993Y180438D01*
X405899Y180387D01*
X405806Y180333D01*
X405716Y180276D01*
X405627Y180215D01*
X405541Y180151D01*
X405458Y180084D01*
X405376Y180014D01*
X405298Y179941D01*
X405222Y179865D01*
X405149Y179787D01*
X405079Y179705D01*
X405012Y179622D01*
X404948Y179536D01*
X404887Y179447D01*
X404830Y179357D01*
X404776Y179264D01*
X404725Y179170D01*
X404678Y179074D01*
X404634Y178976D01*
X404594Y178876D01*
X404557Y178776D01*
X404524Y178674D01*
X404495Y178570D01*
X404470Y178466D01*
X404449Y178361D01*
X404431Y178255D01*
X404418Y178149D01*
X404408Y178042D01*
X404402Y177935D01*
X404400Y177828D01*
X404400Y174893D01*
X404402Y174786D01*
X404408Y174679D01*
X404418Y174572D01*
X404431Y174466D01*
X404449Y174360D01*
X404470Y174255D01*
X404495Y174151D01*
X404524Y174047D01*
X404557Y173945D01*
X404594Y173845D01*
X404634Y173745D01*
X404678Y173647D01*
X404725Y173551D01*
X404776Y173457D01*
X404830Y173364D01*
X404887Y173274D01*
X404948Y173185D01*
X405012Y173099D01*
X405079Y173016D01*
X405149Y172934D01*
X405222Y172856D01*
X405298Y172780D01*
X405376Y172707D01*
X405458Y172637D01*
X405541Y172570D01*
X405627Y172506D01*
X405716Y172445D01*
X405806Y172388D01*
X405899Y172334D01*
X405993Y172283D01*
X406089Y172236D01*
X406187Y172192D01*
X406287Y172152D01*
X406387Y172115D01*
X406489Y172082D01*
X406593Y172053D01*
X406697Y172028D01*
X406802Y172007D01*
X406908Y171989D01*
X407014Y171976D01*
X407121Y171966D01*
X407228Y171960D01*
X407335Y171958D01*
X407442Y171960D01*
X407549Y171966D01*
X407656Y171976D01*
X407762Y171989D01*
X407868Y172007D01*
X407973Y172028D01*
X408077Y172053D01*
X408181Y172082D01*
X408283Y172115D01*
X408383Y172152D01*
X408483Y172192D01*
X408581Y172236D01*
X408677Y172283D01*
X408771Y172334D01*
X408864Y172388D01*
X408954Y172445D01*
X409043Y172506D01*
X409129Y172570D01*
X409212Y172637D01*
X409294Y172707D01*
X409372Y172780D01*
X409448Y172856D01*
X409521Y172934D01*
X409591Y173016D01*
X409658Y173099D01*
X409722Y173185D01*
X409783Y173274D01*
X409840Y173364D01*
X409894Y173457D01*
X409945Y173551D01*
X409992Y173647D01*
X410036Y173745D01*
X410076Y173845D01*
X410113Y173945D01*
X410146Y174047D01*
X410175Y174151D01*
X410200Y174255D01*
X410221Y174360D01*
X410239Y174466D01*
X410252Y174572D01*
X410262Y174679D01*
X410268Y174786D01*
X410270Y174893D01*
X399602Y180763D02*
X396667Y171958D01*
X393732Y180763D01*
X377951Y185166D02*
X377838Y185164D01*
X377726Y185158D01*
X377613Y185149D01*
X377501Y185135D01*
X377390Y185118D01*
X377279Y185097D01*
X377169Y185072D01*
X377060Y185044D01*
X376952Y185011D01*
X376845Y184975D01*
X376740Y184936D01*
X376635Y184893D01*
X376533Y184846D01*
X376432Y184796D01*
X376333Y184742D01*
X376235Y184685D01*
X376140Y184625D01*
X376047Y184562D01*
X375956Y184495D01*
X375867Y184425D01*
X375781Y184353D01*
X375697Y184277D01*
X375616Y184199D01*
X375538Y184118D01*
X375462Y184034D01*
X375390Y183948D01*
X375320Y183859D01*
X375253Y183768D01*
X375190Y183675D01*
X375130Y183580D01*
X375073Y183482D01*
X375019Y183383D01*
X374969Y183282D01*
X374922Y183180D01*
X374879Y183075D01*
X374840Y182970D01*
X374804Y182863D01*
X374771Y182755D01*
X374743Y182646D01*
X374718Y182536D01*
X374697Y182425D01*
X374680Y182314D01*
X374666Y182202D01*
X374657Y182089D01*
X374651Y181977D01*
X374649Y181864D01*
X377951Y185166D02*
X378078Y185164D01*
X378205Y185158D01*
X378332Y185149D01*
X378458Y185136D01*
X378584Y185119D01*
X378709Y185098D01*
X378834Y185073D01*
X378957Y185045D01*
X379080Y185013D01*
X379202Y184977D01*
X379323Y184938D01*
X379443Y184895D01*
X379561Y184849D01*
X379678Y184799D01*
X379793Y184745D01*
X379906Y184688D01*
X380018Y184628D01*
X380128Y184565D01*
X380236Y184498D01*
X380342Y184428D01*
X380446Y184355D01*
X380548Y184278D01*
X380647Y184199D01*
X380744Y184117D01*
X380838Y184032D01*
X380930Y183944D01*
X381019Y183854D01*
X381105Y183760D01*
X381189Y183665D01*
X381269Y183567D01*
X381347Y183466D01*
X381422Y183363D01*
X381493Y183258D01*
X381561Y183151D01*
X381626Y183042D01*
X381688Y182931D01*
X381747Y182818D01*
X381802Y182704D01*
X381853Y182588D01*
X381901Y182470D01*
X381946Y182351D01*
X381987Y182231D01*
X375750Y179296D02*
X375668Y179376D01*
X375589Y179459D01*
X375512Y179545D01*
X375438Y179633D01*
X375368Y179724D01*
X375300Y179816D01*
X375235Y179911D01*
X375173Y180008D01*
X375115Y180107D01*
X375059Y180208D01*
X375007Y180310D01*
X374959Y180414D01*
X374914Y180520D01*
X374872Y180627D01*
X374833Y180735D01*
X374799Y180845D01*
X374767Y180955D01*
X374740Y181067D01*
X374716Y181179D01*
X374695Y181292D01*
X374679Y181406D01*
X374666Y181520D01*
X374656Y181634D01*
X374651Y181749D01*
X374649Y181864D01*
X375750Y179296D02*
X381987Y171958D01*
X374649Y171958D01*
X369185Y178562D02*
X369182Y178822D01*
X369173Y179081D01*
X369157Y179341D01*
X369135Y179600D01*
X369108Y179858D01*
X369074Y180116D01*
X369033Y180372D01*
X368987Y180628D01*
X368935Y180883D01*
X368876Y181136D01*
X368812Y181387D01*
X368741Y181638D01*
X368665Y181886D01*
X368583Y182132D01*
X368495Y182377D01*
X368401Y182619D01*
X368301Y182859D01*
X368195Y183096D01*
X368084Y183331D01*
X368085Y183332D02*
X368050Y183427D01*
X368012Y183522D01*
X367970Y183615D01*
X367924Y183706D01*
X367875Y183796D01*
X367823Y183884D01*
X367768Y183969D01*
X367709Y184053D01*
X367647Y184134D01*
X367583Y184213D01*
X367515Y184289D01*
X367444Y184363D01*
X367371Y184434D01*
X367295Y184502D01*
X367217Y184568D01*
X367136Y184630D01*
X367053Y184690D01*
X366968Y184746D01*
X366881Y184799D01*
X366792Y184848D01*
X366701Y184894D01*
X366608Y184937D01*
X366514Y184976D01*
X366418Y185012D01*
X366321Y185044D01*
X366223Y185073D01*
X366124Y185097D01*
X366024Y185118D01*
X365924Y185135D01*
X365823Y185149D01*
X365721Y185158D01*
X365619Y185164D01*
X365517Y185166D01*
X365415Y185164D01*
X365313Y185158D01*
X365211Y185149D01*
X365110Y185135D01*
X365010Y185118D01*
X364910Y185097D01*
X364811Y185073D01*
X364713Y185044D01*
X364616Y185012D01*
X364520Y184976D01*
X364426Y184937D01*
X364333Y184894D01*
X364242Y184848D01*
X364153Y184799D01*
X364066Y184746D01*
X363981Y184690D01*
X363898Y184630D01*
X363817Y184568D01*
X363739Y184502D01*
X363663Y184434D01*
X363590Y184363D01*
X363519Y184289D01*
X363451Y184213D01*
X363387Y184134D01*
X363325Y184053D01*
X363266Y183969D01*
X363211Y183884D01*
X363159Y183796D01*
X363110Y183706D01*
X363064Y183615D01*
X363022Y183522D01*
X362984Y183427D01*
X362949Y183332D01*
X362949Y183331D02*
X362838Y183097D01*
X362732Y182859D01*
X362632Y182619D01*
X362538Y182377D01*
X362450Y182132D01*
X362368Y181886D01*
X362292Y181638D01*
X362221Y181388D01*
X362157Y181136D01*
X362098Y180883D01*
X362046Y180628D01*
X362000Y180372D01*
X361959Y180116D01*
X361925Y179858D01*
X361898Y179600D01*
X361876Y179341D01*
X361860Y179081D01*
X361851Y178822D01*
X361848Y178562D01*
X369186Y178562D02*
X369183Y178302D01*
X369174Y178042D01*
X369158Y177783D01*
X369136Y177524D01*
X369109Y177266D01*
X369075Y177008D01*
X369034Y176751D01*
X368988Y176496D01*
X368936Y176241D01*
X368877Y175988D01*
X368813Y175736D01*
X368742Y175486D01*
X368666Y175238D01*
X368584Y174991D01*
X368496Y174747D01*
X368402Y174505D01*
X368302Y174265D01*
X368196Y174027D01*
X368085Y173792D01*
X368050Y173697D01*
X368012Y173602D01*
X367970Y173509D01*
X367924Y173418D01*
X367875Y173328D01*
X367823Y173240D01*
X367768Y173155D01*
X367709Y173071D01*
X367647Y172990D01*
X367583Y172911D01*
X367515Y172835D01*
X367444Y172761D01*
X367371Y172690D01*
X367295Y172622D01*
X367217Y172556D01*
X367136Y172494D01*
X367053Y172434D01*
X366968Y172378D01*
X366881Y172325D01*
X366792Y172276D01*
X366701Y172230D01*
X366608Y172187D01*
X366514Y172148D01*
X366418Y172112D01*
X366321Y172080D01*
X366223Y172051D01*
X366124Y172027D01*
X366024Y172006D01*
X365924Y171989D01*
X365823Y171975D01*
X365721Y171966D01*
X365619Y171960D01*
X365517Y171958D01*
X362949Y173793D02*
X362838Y174028D01*
X362732Y174265D01*
X362632Y174505D01*
X362538Y174747D01*
X362450Y174992D01*
X362368Y175238D01*
X362292Y175486D01*
X362221Y175737D01*
X362157Y175988D01*
X362098Y176241D01*
X362046Y176496D01*
X362000Y176752D01*
X361959Y177008D01*
X361925Y177266D01*
X361898Y177524D01*
X361876Y177783D01*
X361860Y178043D01*
X361851Y178302D01*
X361848Y178562D01*
X362949Y173792D02*
X362984Y173697D01*
X363022Y173602D01*
X363064Y173509D01*
X363110Y173418D01*
X363159Y173328D01*
X363211Y173240D01*
X363266Y173155D01*
X363325Y173071D01*
X363387Y172990D01*
X363451Y172911D01*
X363519Y172835D01*
X363590Y172761D01*
X363663Y172690D01*
X363739Y172622D01*
X363817Y172556D01*
X363898Y172494D01*
X363981Y172434D01*
X364066Y172378D01*
X364153Y172325D01*
X364242Y172276D01*
X364333Y172230D01*
X364426Y172187D01*
X364520Y172148D01*
X364616Y172112D01*
X364713Y172080D01*
X364811Y172051D01*
X364910Y172027D01*
X365010Y172006D01*
X365110Y171989D01*
X365211Y171975D01*
X365313Y171966D01*
X365415Y171960D01*
X365517Y171958D01*
X368452Y174893D02*
X362582Y182231D01*
X352348Y185166D02*
X352235Y185164D01*
X352123Y185158D01*
X352010Y185149D01*
X351898Y185135D01*
X351787Y185118D01*
X351676Y185097D01*
X351566Y185072D01*
X351457Y185044D01*
X351349Y185011D01*
X351242Y184975D01*
X351137Y184936D01*
X351032Y184893D01*
X350930Y184846D01*
X350829Y184796D01*
X350730Y184742D01*
X350632Y184685D01*
X350537Y184625D01*
X350444Y184562D01*
X350353Y184495D01*
X350264Y184425D01*
X350178Y184353D01*
X350094Y184277D01*
X350013Y184199D01*
X349935Y184118D01*
X349859Y184034D01*
X349787Y183948D01*
X349717Y183859D01*
X349650Y183768D01*
X349587Y183675D01*
X349527Y183580D01*
X349470Y183482D01*
X349416Y183383D01*
X349366Y183282D01*
X349319Y183180D01*
X349276Y183075D01*
X349237Y182970D01*
X349201Y182863D01*
X349168Y182755D01*
X349140Y182646D01*
X349115Y182536D01*
X349094Y182425D01*
X349077Y182314D01*
X349063Y182202D01*
X349054Y182089D01*
X349048Y181977D01*
X349046Y181864D01*
X352348Y185166D02*
X352475Y185164D01*
X352602Y185158D01*
X352729Y185149D01*
X352855Y185136D01*
X352981Y185119D01*
X353106Y185098D01*
X353231Y185073D01*
X353354Y185045D01*
X353477Y185013D01*
X353599Y184977D01*
X353720Y184938D01*
X353840Y184895D01*
X353958Y184849D01*
X354075Y184799D01*
X354190Y184745D01*
X354303Y184688D01*
X354415Y184628D01*
X354525Y184565D01*
X354633Y184498D01*
X354739Y184428D01*
X354843Y184355D01*
X354945Y184278D01*
X355044Y184199D01*
X355141Y184117D01*
X355235Y184032D01*
X355327Y183944D01*
X355416Y183854D01*
X355502Y183760D01*
X355586Y183665D01*
X355666Y183567D01*
X355744Y183466D01*
X355819Y183363D01*
X355890Y183258D01*
X355958Y183151D01*
X356023Y183042D01*
X356085Y182931D01*
X356144Y182818D01*
X356199Y182704D01*
X356250Y182588D01*
X356298Y182470D01*
X356343Y182351D01*
X356384Y182231D01*
X350147Y179296D02*
X350065Y179376D01*
X349986Y179459D01*
X349909Y179545D01*
X349835Y179633D01*
X349765Y179724D01*
X349697Y179816D01*
X349632Y179911D01*
X349570Y180008D01*
X349512Y180107D01*
X349456Y180208D01*
X349404Y180310D01*
X349356Y180414D01*
X349311Y180520D01*
X349269Y180627D01*
X349230Y180735D01*
X349196Y180845D01*
X349164Y180955D01*
X349137Y181067D01*
X349113Y181179D01*
X349092Y181292D01*
X349076Y181406D01*
X349063Y181520D01*
X349053Y181634D01*
X349048Y181749D01*
X349046Y181864D01*
X350147Y179296D02*
X356384Y171958D01*
X349046Y171958D01*
X343583Y182231D02*
X339914Y185166D01*
X339914Y171958D01*
X343583Y171958D02*
X336245Y171958D01*
D11*
X692150Y774700D02*
X685800Y781050D01*
X685800Y793750D02*
X692150Y800100D01*
X685800Y806450D01*
X685800Y819150D02*
X692150Y825500D01*
X685800Y831850D01*
X685800Y844550D02*
X692150Y850900D01*
X685800Y857250D01*
X685800Y869950D02*
X692150Y876300D01*
X685800Y882650D01*
X685800Y895350D02*
X692150Y901700D01*
X685800Y908050D01*
X685800Y920750D02*
X692150Y927100D01*
X692150Y774700D02*
X730250Y774700D01*
X736600Y781050D01*
X736600Y793750D01*
X730250Y800100D01*
X736600Y806450D01*
X736600Y819150D01*
X730250Y825500D01*
X736600Y831850D01*
X736600Y844550D01*
X730250Y850900D01*
X736600Y857250D01*
X736600Y869950D01*
X730250Y876300D01*
X736600Y882650D01*
X736600Y895350D01*
X730250Y901700D01*
X736600Y908050D01*
X736600Y920750D01*
X730250Y927100D01*
X736600Y933450D01*
X736600Y946150D01*
X730250Y952500D01*
X692150Y952500D02*
X685800Y946150D01*
X685800Y933450D02*
X692150Y927100D01*
X692150Y800100D02*
X730250Y800100D01*
X730250Y825500D02*
X692150Y825500D01*
X692150Y850900D02*
X730250Y850900D01*
X730250Y876300D02*
X692150Y876300D01*
X692150Y901700D02*
X730250Y901700D01*
X730250Y927100D02*
X692150Y927100D01*
X692150Y952500D02*
X730250Y952500D01*
X685800Y946150D02*
X685800Y933450D01*
X685800Y920750D02*
X685800Y908050D01*
X685800Y895350D02*
X685800Y882650D01*
X685800Y869950D02*
X685800Y857250D01*
X685800Y844550D02*
X685800Y831850D01*
X685800Y819150D02*
X685800Y806450D01*
X685800Y793750D02*
X685800Y781050D01*
X730250Y952500D02*
X736600Y958850D01*
X736600Y971550D01*
X730250Y977900D01*
X692150Y977900D02*
X685800Y971550D01*
X685800Y958850D02*
X692150Y952500D01*
X692150Y977900D02*
X730250Y977900D01*
X685800Y971550D02*
X685800Y958850D01*
M02*
