G04 EAGLE Gerber RS-274X export*
G75*
%MOMM*%
%FSLAX34Y34*%
%LPD*%
%INSilkscreen Top*%
%IPPOS*%
%AMOC8*
5,1,8,0,0,1.08239X$1,22.5*%
G01*
%ADD10C,0.152400*%


D10*
X148753Y976872D02*
X148753Y993128D01*
X153269Y993128D01*
X153402Y993126D01*
X153534Y993120D01*
X153666Y993110D01*
X153798Y993097D01*
X153930Y993079D01*
X154060Y993058D01*
X154191Y993033D01*
X154320Y993004D01*
X154448Y992971D01*
X154576Y992935D01*
X154702Y992895D01*
X154827Y992851D01*
X154951Y992803D01*
X155073Y992752D01*
X155194Y992697D01*
X155313Y992639D01*
X155431Y992577D01*
X155546Y992512D01*
X155660Y992443D01*
X155771Y992372D01*
X155880Y992296D01*
X155987Y992218D01*
X156092Y992137D01*
X156194Y992052D01*
X156294Y991965D01*
X156391Y991875D01*
X156486Y991782D01*
X156577Y991686D01*
X156666Y991588D01*
X156752Y991487D01*
X156835Y991383D01*
X156915Y991277D01*
X156991Y991169D01*
X157065Y991059D01*
X157135Y990946D01*
X157202Y990832D01*
X157265Y990715D01*
X157325Y990597D01*
X157382Y990477D01*
X157435Y990355D01*
X157484Y990232D01*
X157530Y990108D01*
X157572Y989982D01*
X157610Y989855D01*
X157645Y989727D01*
X157676Y989598D01*
X157703Y989469D01*
X157726Y989338D01*
X157746Y989207D01*
X157761Y989075D01*
X157773Y988943D01*
X157781Y988811D01*
X157785Y988678D01*
X157785Y988546D01*
X157781Y988413D01*
X157773Y988281D01*
X157761Y988149D01*
X157746Y988017D01*
X157726Y987886D01*
X157703Y987755D01*
X157676Y987626D01*
X157645Y987497D01*
X157610Y987369D01*
X157572Y987242D01*
X157530Y987116D01*
X157484Y986992D01*
X157435Y986869D01*
X157382Y986747D01*
X157325Y986627D01*
X157265Y986509D01*
X157202Y986392D01*
X157135Y986278D01*
X157065Y986165D01*
X156991Y986055D01*
X156915Y985947D01*
X156835Y985841D01*
X156752Y985737D01*
X156666Y985636D01*
X156577Y985538D01*
X156486Y985442D01*
X156391Y985349D01*
X156294Y985259D01*
X156194Y985172D01*
X156092Y985087D01*
X155987Y985006D01*
X155880Y984928D01*
X155771Y984852D01*
X155660Y984781D01*
X155546Y984712D01*
X155431Y984647D01*
X155313Y984585D01*
X155194Y984527D01*
X155073Y984472D01*
X154951Y984421D01*
X154827Y984373D01*
X154702Y984329D01*
X154576Y984289D01*
X154448Y984253D01*
X154320Y984220D01*
X154191Y984191D01*
X154060Y984166D01*
X153930Y984145D01*
X153798Y984127D01*
X153666Y984114D01*
X153534Y984104D01*
X153402Y984098D01*
X153269Y984096D01*
X153269Y984097D02*
X148753Y984097D01*
X154172Y984097D02*
X157784Y976872D01*
X163390Y976872D02*
X168808Y993128D01*
X174227Y976872D01*
X172872Y980936D02*
X164744Y980936D01*
X183398Y976872D02*
X183398Y993128D01*
X187913Y993128D02*
X178882Y993128D01*
X194022Y976872D02*
X201247Y976872D01*
X194022Y976872D02*
X194022Y993128D01*
X201247Y993128D01*
X199441Y985903D02*
X194022Y985903D01*
X135575Y758612D02*
X135575Y751388D01*
X135574Y758612D02*
X135576Y758745D01*
X135582Y758877D01*
X135592Y759009D01*
X135605Y759141D01*
X135623Y759273D01*
X135644Y759403D01*
X135669Y759534D01*
X135698Y759663D01*
X135731Y759791D01*
X135767Y759919D01*
X135807Y760045D01*
X135851Y760170D01*
X135899Y760294D01*
X135950Y760416D01*
X136005Y760537D01*
X136063Y760656D01*
X136125Y760774D01*
X136190Y760889D01*
X136259Y761003D01*
X136330Y761114D01*
X136406Y761223D01*
X136484Y761330D01*
X136565Y761435D01*
X136650Y761537D01*
X136737Y761637D01*
X136827Y761734D01*
X136920Y761829D01*
X137016Y761920D01*
X137114Y762009D01*
X137215Y762095D01*
X137319Y762178D01*
X137425Y762258D01*
X137533Y762334D01*
X137643Y762408D01*
X137756Y762478D01*
X137870Y762545D01*
X137987Y762608D01*
X138105Y762668D01*
X138225Y762725D01*
X138347Y762778D01*
X138470Y762827D01*
X138594Y762873D01*
X138720Y762915D01*
X138847Y762953D01*
X138975Y762988D01*
X139104Y763019D01*
X139233Y763046D01*
X139364Y763069D01*
X139495Y763089D01*
X139627Y763104D01*
X139759Y763116D01*
X139891Y763124D01*
X140024Y763128D01*
X140156Y763128D01*
X140289Y763124D01*
X140421Y763116D01*
X140553Y763104D01*
X140685Y763089D01*
X140816Y763069D01*
X140947Y763046D01*
X141076Y763019D01*
X141205Y762988D01*
X141333Y762953D01*
X141460Y762915D01*
X141586Y762873D01*
X141710Y762827D01*
X141833Y762778D01*
X141955Y762725D01*
X142075Y762668D01*
X142193Y762608D01*
X142310Y762545D01*
X142424Y762478D01*
X142537Y762408D01*
X142647Y762334D01*
X142755Y762258D01*
X142861Y762178D01*
X142965Y762095D01*
X143066Y762009D01*
X143164Y761920D01*
X143260Y761829D01*
X143353Y761734D01*
X143443Y761637D01*
X143530Y761537D01*
X143615Y761435D01*
X143696Y761330D01*
X143774Y761223D01*
X143850Y761114D01*
X143921Y761003D01*
X143990Y760889D01*
X144055Y760774D01*
X144117Y760656D01*
X144175Y760537D01*
X144230Y760416D01*
X144281Y760294D01*
X144329Y760170D01*
X144373Y760045D01*
X144413Y759919D01*
X144449Y759791D01*
X144482Y759663D01*
X144511Y759534D01*
X144536Y759403D01*
X144557Y759273D01*
X144575Y759141D01*
X144588Y759009D01*
X144598Y758877D01*
X144604Y758745D01*
X144606Y758612D01*
X144606Y751388D01*
X144604Y751255D01*
X144598Y751123D01*
X144588Y750991D01*
X144575Y750859D01*
X144557Y750727D01*
X144536Y750597D01*
X144511Y750466D01*
X144482Y750337D01*
X144449Y750209D01*
X144413Y750081D01*
X144373Y749955D01*
X144329Y749830D01*
X144281Y749706D01*
X144230Y749584D01*
X144175Y749463D01*
X144117Y749344D01*
X144055Y749226D01*
X143990Y749111D01*
X143921Y748997D01*
X143850Y748886D01*
X143774Y748777D01*
X143696Y748670D01*
X143615Y748565D01*
X143530Y748463D01*
X143443Y748363D01*
X143353Y748266D01*
X143260Y748171D01*
X143164Y748080D01*
X143066Y747991D01*
X142965Y747905D01*
X142861Y747822D01*
X142755Y747742D01*
X142647Y747666D01*
X142537Y747592D01*
X142424Y747522D01*
X142310Y747455D01*
X142193Y747392D01*
X142075Y747332D01*
X141955Y747275D01*
X141833Y747222D01*
X141710Y747173D01*
X141586Y747127D01*
X141460Y747085D01*
X141333Y747047D01*
X141205Y747012D01*
X141076Y746981D01*
X140947Y746954D01*
X140816Y746931D01*
X140685Y746911D01*
X140553Y746896D01*
X140421Y746884D01*
X140289Y746876D01*
X140156Y746872D01*
X140024Y746872D01*
X139891Y746876D01*
X139759Y746884D01*
X139627Y746896D01*
X139495Y746911D01*
X139364Y746931D01*
X139233Y746954D01*
X139104Y746981D01*
X138975Y747012D01*
X138847Y747047D01*
X138720Y747085D01*
X138594Y747127D01*
X138470Y747173D01*
X138347Y747222D01*
X138225Y747275D01*
X138105Y747332D01*
X137987Y747392D01*
X137870Y747455D01*
X137756Y747522D01*
X137643Y747592D01*
X137533Y747666D01*
X137425Y747742D01*
X137319Y747822D01*
X137215Y747905D01*
X137114Y747991D01*
X137016Y748080D01*
X136920Y748171D01*
X136827Y748266D01*
X136737Y748363D01*
X136650Y748463D01*
X136565Y748565D01*
X136484Y748670D01*
X136406Y748777D01*
X136330Y748886D01*
X136259Y748997D01*
X136190Y749111D01*
X136125Y749226D01*
X136063Y749344D01*
X136005Y749463D01*
X135950Y749584D01*
X135899Y749706D01*
X135851Y749830D01*
X135807Y749955D01*
X135767Y750081D01*
X135731Y750209D01*
X135698Y750337D01*
X135669Y750466D01*
X135644Y750597D01*
X135623Y750727D01*
X135605Y750859D01*
X135592Y750991D01*
X135582Y751123D01*
X135576Y751255D01*
X135574Y751388D01*
X151757Y746872D02*
X151757Y763128D01*
X158982Y763128D01*
X158982Y755903D02*
X151757Y755903D01*
X165304Y763128D02*
X165304Y746872D01*
X165304Y763128D02*
X172529Y763128D01*
X172529Y755903D02*
X165304Y755903D01*
X183198Y746872D02*
X183316Y746874D01*
X183434Y746880D01*
X183552Y746889D01*
X183669Y746903D01*
X183786Y746920D01*
X183903Y746941D01*
X184018Y746966D01*
X184133Y746995D01*
X184247Y747028D01*
X184359Y747064D01*
X184470Y747104D01*
X184580Y747147D01*
X184689Y747194D01*
X184796Y747244D01*
X184901Y747299D01*
X185004Y747356D01*
X185105Y747417D01*
X185205Y747481D01*
X185302Y747548D01*
X185397Y747618D01*
X185489Y747692D01*
X185580Y747768D01*
X185667Y747848D01*
X185752Y747930D01*
X185834Y748015D01*
X185914Y748102D01*
X185990Y748193D01*
X186064Y748285D01*
X186134Y748380D01*
X186201Y748477D01*
X186265Y748577D01*
X186326Y748678D01*
X186383Y748781D01*
X186438Y748886D01*
X186488Y748993D01*
X186535Y749102D01*
X186578Y749212D01*
X186618Y749323D01*
X186654Y749435D01*
X186687Y749549D01*
X186716Y749664D01*
X186741Y749779D01*
X186762Y749896D01*
X186779Y750013D01*
X186793Y750130D01*
X186802Y750248D01*
X186808Y750366D01*
X186810Y750484D01*
X183198Y746872D02*
X183015Y746874D01*
X182833Y746881D01*
X182651Y746892D01*
X182469Y746907D01*
X182287Y746927D01*
X182106Y746950D01*
X181926Y746979D01*
X181746Y747011D01*
X181567Y747048D01*
X181390Y747089D01*
X181213Y747135D01*
X181037Y747184D01*
X180863Y747238D01*
X180689Y747296D01*
X180518Y747358D01*
X180348Y747424D01*
X180179Y747495D01*
X180012Y747569D01*
X179847Y747647D01*
X179684Y747729D01*
X179523Y747815D01*
X179364Y747905D01*
X179207Y747999D01*
X179053Y748096D01*
X178901Y748197D01*
X178751Y748302D01*
X178604Y748410D01*
X178460Y748521D01*
X178318Y748636D01*
X178179Y748755D01*
X178043Y748877D01*
X177910Y749002D01*
X177780Y749130D01*
X178231Y759516D02*
X178233Y759634D01*
X178239Y759752D01*
X178248Y759870D01*
X178262Y759987D01*
X178279Y760104D01*
X178300Y760221D01*
X178325Y760336D01*
X178354Y760451D01*
X178387Y760565D01*
X178423Y760677D01*
X178463Y760788D01*
X178506Y760898D01*
X178553Y761007D01*
X178603Y761114D01*
X178658Y761219D01*
X178715Y761322D01*
X178776Y761423D01*
X178840Y761523D01*
X178907Y761620D01*
X178977Y761715D01*
X179051Y761807D01*
X179127Y761898D01*
X179207Y761985D01*
X179289Y762070D01*
X179374Y762152D01*
X179461Y762232D01*
X179552Y762308D01*
X179644Y762382D01*
X179739Y762452D01*
X179836Y762519D01*
X179936Y762583D01*
X180037Y762644D01*
X180140Y762702D01*
X180245Y762756D01*
X180352Y762806D01*
X180461Y762853D01*
X180571Y762897D01*
X180682Y762936D01*
X180795Y762972D01*
X180908Y763005D01*
X181023Y763034D01*
X181138Y763059D01*
X181255Y763080D01*
X181372Y763097D01*
X181489Y763111D01*
X181607Y763120D01*
X181725Y763126D01*
X181843Y763128D01*
X182004Y763126D01*
X182166Y763120D01*
X182327Y763111D01*
X182488Y763097D01*
X182648Y763080D01*
X182808Y763059D01*
X182968Y763034D01*
X183127Y763005D01*
X183285Y762973D01*
X183442Y762937D01*
X183598Y762897D01*
X183754Y762853D01*
X183908Y762805D01*
X184061Y762754D01*
X184213Y762700D01*
X184364Y762641D01*
X184513Y762580D01*
X184660Y762514D01*
X184806Y762445D01*
X184951Y762373D01*
X185093Y762297D01*
X185234Y762218D01*
X185373Y762136D01*
X185509Y762050D01*
X185644Y761961D01*
X185777Y761869D01*
X185907Y761773D01*
X180036Y756355D02*
X179935Y756417D01*
X179835Y756482D01*
X179738Y756551D01*
X179643Y756623D01*
X179550Y756697D01*
X179460Y756775D01*
X179372Y756856D01*
X179287Y756939D01*
X179205Y757025D01*
X179126Y757114D01*
X179049Y757205D01*
X178976Y757299D01*
X178905Y757395D01*
X178838Y757493D01*
X178774Y757593D01*
X178713Y757696D01*
X178656Y757800D01*
X178602Y757906D01*
X178552Y758014D01*
X178505Y758123D01*
X178461Y758234D01*
X178421Y758346D01*
X178385Y758460D01*
X178353Y758574D01*
X178324Y758690D01*
X178299Y758806D01*
X178278Y758923D01*
X178261Y759041D01*
X178247Y759159D01*
X178238Y759278D01*
X178232Y759397D01*
X178230Y759516D01*
X185004Y753645D02*
X185105Y753583D01*
X185205Y753518D01*
X185302Y753449D01*
X185397Y753377D01*
X185490Y753303D01*
X185580Y753225D01*
X185668Y753144D01*
X185753Y753061D01*
X185835Y752975D01*
X185914Y752886D01*
X185991Y752795D01*
X186064Y752701D01*
X186135Y752605D01*
X186202Y752507D01*
X186266Y752407D01*
X186327Y752304D01*
X186384Y752200D01*
X186438Y752094D01*
X186488Y751986D01*
X186535Y751877D01*
X186579Y751766D01*
X186619Y751654D01*
X186655Y751540D01*
X186687Y751426D01*
X186716Y751310D01*
X186741Y751194D01*
X186762Y751077D01*
X186779Y750959D01*
X186793Y750841D01*
X186802Y750722D01*
X186808Y750603D01*
X186810Y750484D01*
X185004Y753645D02*
X180037Y756355D01*
X193440Y746872D02*
X200665Y746872D01*
X193440Y746872D02*
X193440Y763128D01*
X200665Y763128D01*
X198859Y755903D02*
X193440Y755903D01*
X209910Y763128D02*
X209910Y746872D01*
X205394Y763128D02*
X214425Y763128D01*
X147055Y533128D02*
X141636Y516872D01*
X152473Y516872D02*
X147055Y533128D01*
X151119Y520936D02*
X142991Y520936D01*
X161644Y516872D02*
X161644Y533128D01*
X157128Y533128D02*
X166160Y533128D01*
X175191Y533128D02*
X175191Y516872D01*
X170676Y533128D02*
X179707Y533128D01*
X185816Y516872D02*
X193040Y516872D01*
X185816Y516872D02*
X185816Y533128D01*
X193040Y533128D01*
X191234Y525903D02*
X185816Y525903D01*
X199333Y533128D02*
X199333Y516872D01*
X208364Y516872D02*
X199333Y533128D01*
X208364Y533128D02*
X208364Y516872D01*
X105725Y311872D02*
X102113Y311872D01*
X101995Y311874D01*
X101877Y311880D01*
X101759Y311889D01*
X101642Y311903D01*
X101525Y311920D01*
X101408Y311941D01*
X101293Y311966D01*
X101178Y311995D01*
X101064Y312028D01*
X100952Y312064D01*
X100841Y312104D01*
X100731Y312147D01*
X100622Y312194D01*
X100515Y312244D01*
X100410Y312299D01*
X100307Y312356D01*
X100206Y312417D01*
X100106Y312481D01*
X100009Y312548D01*
X99914Y312618D01*
X99822Y312692D01*
X99731Y312768D01*
X99644Y312848D01*
X99559Y312930D01*
X99477Y313015D01*
X99397Y313102D01*
X99321Y313193D01*
X99247Y313285D01*
X99177Y313380D01*
X99110Y313477D01*
X99046Y313577D01*
X98985Y313678D01*
X98928Y313781D01*
X98873Y313886D01*
X98823Y313993D01*
X98776Y314102D01*
X98733Y314212D01*
X98693Y314323D01*
X98657Y314435D01*
X98624Y314549D01*
X98595Y314664D01*
X98570Y314779D01*
X98549Y314896D01*
X98532Y315013D01*
X98518Y315130D01*
X98509Y315248D01*
X98503Y315366D01*
X98501Y315484D01*
X98500Y315484D02*
X98500Y324516D01*
X98501Y324516D02*
X98503Y324634D01*
X98509Y324752D01*
X98518Y324870D01*
X98532Y324987D01*
X98549Y325104D01*
X98570Y325221D01*
X98595Y325336D01*
X98624Y325451D01*
X98657Y325565D01*
X98693Y325677D01*
X98733Y325788D01*
X98776Y325898D01*
X98823Y326007D01*
X98873Y326114D01*
X98927Y326219D01*
X98985Y326322D01*
X99046Y326423D01*
X99110Y326523D01*
X99177Y326620D01*
X99247Y326715D01*
X99321Y326807D01*
X99397Y326898D01*
X99477Y326985D01*
X99559Y327070D01*
X99644Y327152D01*
X99731Y327232D01*
X99822Y327308D01*
X99914Y327382D01*
X100009Y327452D01*
X100106Y327519D01*
X100206Y327583D01*
X100307Y327644D01*
X100410Y327701D01*
X100515Y327755D01*
X100622Y327806D01*
X100731Y327853D01*
X100841Y327896D01*
X100952Y327936D01*
X101064Y327972D01*
X101178Y328005D01*
X101293Y328034D01*
X101408Y328059D01*
X101525Y328080D01*
X101642Y328097D01*
X101759Y328111D01*
X101877Y328120D01*
X101995Y328126D01*
X102113Y328128D01*
X105725Y328128D01*
X110663Y328128D02*
X116081Y311872D01*
X121500Y328128D01*
X89853Y168612D02*
X89853Y161388D01*
X89853Y168612D02*
X89855Y168745D01*
X89861Y168877D01*
X89871Y169009D01*
X89884Y169141D01*
X89902Y169273D01*
X89923Y169403D01*
X89948Y169534D01*
X89977Y169663D01*
X90010Y169791D01*
X90046Y169919D01*
X90086Y170045D01*
X90130Y170170D01*
X90178Y170294D01*
X90229Y170416D01*
X90284Y170537D01*
X90342Y170656D01*
X90404Y170774D01*
X90469Y170889D01*
X90538Y171003D01*
X90609Y171114D01*
X90685Y171223D01*
X90763Y171330D01*
X90844Y171435D01*
X90929Y171537D01*
X91016Y171637D01*
X91106Y171734D01*
X91199Y171829D01*
X91295Y171920D01*
X91393Y172009D01*
X91494Y172095D01*
X91598Y172178D01*
X91704Y172258D01*
X91812Y172334D01*
X91922Y172408D01*
X92035Y172478D01*
X92149Y172545D01*
X92266Y172608D01*
X92384Y172668D01*
X92504Y172725D01*
X92626Y172778D01*
X92749Y172827D01*
X92873Y172873D01*
X92999Y172915D01*
X93126Y172953D01*
X93254Y172988D01*
X93383Y173019D01*
X93512Y173046D01*
X93643Y173069D01*
X93774Y173089D01*
X93906Y173104D01*
X94038Y173116D01*
X94170Y173124D01*
X94303Y173128D01*
X94435Y173128D01*
X94568Y173124D01*
X94700Y173116D01*
X94832Y173104D01*
X94964Y173089D01*
X95095Y173069D01*
X95226Y173046D01*
X95355Y173019D01*
X95484Y172988D01*
X95612Y172953D01*
X95739Y172915D01*
X95865Y172873D01*
X95989Y172827D01*
X96112Y172778D01*
X96234Y172725D01*
X96354Y172668D01*
X96472Y172608D01*
X96589Y172545D01*
X96703Y172478D01*
X96816Y172408D01*
X96926Y172334D01*
X97034Y172258D01*
X97140Y172178D01*
X97244Y172095D01*
X97345Y172009D01*
X97443Y171920D01*
X97539Y171829D01*
X97632Y171734D01*
X97722Y171637D01*
X97809Y171537D01*
X97894Y171435D01*
X97975Y171330D01*
X98053Y171223D01*
X98129Y171114D01*
X98200Y171003D01*
X98269Y170889D01*
X98334Y170774D01*
X98396Y170656D01*
X98454Y170537D01*
X98509Y170416D01*
X98560Y170294D01*
X98608Y170170D01*
X98652Y170045D01*
X98692Y169919D01*
X98728Y169791D01*
X98761Y169663D01*
X98790Y169534D01*
X98815Y169403D01*
X98836Y169273D01*
X98854Y169141D01*
X98867Y169009D01*
X98877Y168877D01*
X98883Y168745D01*
X98885Y168612D01*
X98884Y168612D02*
X98884Y161388D01*
X98885Y161388D02*
X98883Y161255D01*
X98877Y161123D01*
X98867Y160991D01*
X98854Y160859D01*
X98836Y160727D01*
X98815Y160597D01*
X98790Y160466D01*
X98761Y160337D01*
X98728Y160209D01*
X98692Y160081D01*
X98652Y159955D01*
X98608Y159830D01*
X98560Y159706D01*
X98509Y159584D01*
X98454Y159463D01*
X98396Y159344D01*
X98334Y159226D01*
X98269Y159111D01*
X98200Y158997D01*
X98129Y158886D01*
X98053Y158777D01*
X97975Y158670D01*
X97894Y158565D01*
X97809Y158463D01*
X97722Y158363D01*
X97632Y158266D01*
X97539Y158171D01*
X97443Y158080D01*
X97345Y157991D01*
X97244Y157905D01*
X97140Y157822D01*
X97034Y157742D01*
X96926Y157666D01*
X96816Y157592D01*
X96703Y157522D01*
X96589Y157455D01*
X96472Y157392D01*
X96354Y157332D01*
X96234Y157275D01*
X96112Y157222D01*
X95989Y157173D01*
X95865Y157127D01*
X95739Y157085D01*
X95612Y157047D01*
X95484Y157012D01*
X95355Y156981D01*
X95226Y156954D01*
X95095Y156931D01*
X94964Y156911D01*
X94832Y156896D01*
X94700Y156884D01*
X94568Y156876D01*
X94435Y156872D01*
X94303Y156872D01*
X94170Y156876D01*
X94038Y156884D01*
X93906Y156896D01*
X93774Y156911D01*
X93643Y156931D01*
X93512Y156954D01*
X93383Y156981D01*
X93254Y157012D01*
X93126Y157047D01*
X92999Y157085D01*
X92873Y157127D01*
X92749Y157173D01*
X92626Y157222D01*
X92504Y157275D01*
X92384Y157332D01*
X92266Y157392D01*
X92149Y157455D01*
X92035Y157522D01*
X91922Y157592D01*
X91812Y157666D01*
X91704Y157742D01*
X91598Y157822D01*
X91494Y157905D01*
X91393Y157991D01*
X91295Y158080D01*
X91199Y158171D01*
X91106Y158266D01*
X91016Y158363D01*
X90929Y158463D01*
X90844Y158565D01*
X90763Y158670D01*
X90685Y158777D01*
X90609Y158886D01*
X90538Y158997D01*
X90469Y159111D01*
X90404Y159226D01*
X90342Y159344D01*
X90284Y159463D01*
X90229Y159584D01*
X90178Y159706D01*
X90130Y159830D01*
X90086Y159955D01*
X90046Y160081D01*
X90010Y160209D01*
X89977Y160337D01*
X89948Y160466D01*
X89923Y160597D01*
X89902Y160727D01*
X89884Y160859D01*
X89871Y160991D01*
X89861Y161123D01*
X89855Y161255D01*
X89853Y161388D01*
X106006Y161388D02*
X106006Y173128D01*
X106005Y161388D02*
X106007Y161255D01*
X106013Y161123D01*
X106023Y160991D01*
X106036Y160859D01*
X106054Y160727D01*
X106075Y160597D01*
X106100Y160466D01*
X106129Y160337D01*
X106162Y160209D01*
X106198Y160081D01*
X106238Y159955D01*
X106282Y159830D01*
X106330Y159706D01*
X106381Y159584D01*
X106436Y159463D01*
X106494Y159344D01*
X106556Y159226D01*
X106621Y159111D01*
X106690Y158997D01*
X106761Y158886D01*
X106837Y158777D01*
X106915Y158670D01*
X106996Y158565D01*
X107081Y158463D01*
X107168Y158363D01*
X107258Y158266D01*
X107351Y158171D01*
X107447Y158080D01*
X107545Y157991D01*
X107646Y157905D01*
X107750Y157822D01*
X107856Y157742D01*
X107964Y157666D01*
X108074Y157592D01*
X108187Y157522D01*
X108301Y157455D01*
X108418Y157392D01*
X108536Y157332D01*
X108656Y157275D01*
X108778Y157222D01*
X108901Y157173D01*
X109025Y157127D01*
X109151Y157085D01*
X109278Y157047D01*
X109406Y157012D01*
X109535Y156981D01*
X109664Y156954D01*
X109795Y156931D01*
X109926Y156911D01*
X110058Y156896D01*
X110190Y156884D01*
X110322Y156876D01*
X110455Y156872D01*
X110587Y156872D01*
X110720Y156876D01*
X110852Y156884D01*
X110984Y156896D01*
X111116Y156911D01*
X111247Y156931D01*
X111378Y156954D01*
X111507Y156981D01*
X111636Y157012D01*
X111764Y157047D01*
X111891Y157085D01*
X112017Y157127D01*
X112141Y157173D01*
X112264Y157222D01*
X112386Y157275D01*
X112506Y157332D01*
X112624Y157392D01*
X112741Y157455D01*
X112855Y157522D01*
X112968Y157592D01*
X113078Y157666D01*
X113186Y157742D01*
X113292Y157822D01*
X113396Y157905D01*
X113497Y157991D01*
X113595Y158080D01*
X113691Y158171D01*
X113784Y158266D01*
X113874Y158363D01*
X113961Y158463D01*
X114046Y158565D01*
X114127Y158670D01*
X114205Y158777D01*
X114281Y158886D01*
X114352Y158997D01*
X114421Y159111D01*
X114486Y159226D01*
X114548Y159344D01*
X114606Y159463D01*
X114661Y159584D01*
X114712Y159706D01*
X114760Y159830D01*
X114804Y159955D01*
X114844Y160081D01*
X114880Y160209D01*
X114913Y160337D01*
X114942Y160466D01*
X114967Y160597D01*
X114988Y160727D01*
X115006Y160859D01*
X115019Y160991D01*
X115029Y161123D01*
X115035Y161255D01*
X115037Y161388D01*
X115037Y173128D01*
X125631Y173128D02*
X125631Y156872D01*
X121116Y173128D02*
X130147Y173128D01*
X189693Y241872D02*
X189693Y258128D01*
X189693Y250903D02*
X198724Y250903D01*
X198724Y258128D02*
X198724Y241872D01*
X207235Y241872D02*
X207235Y258128D01*
X205428Y241872D02*
X209041Y241872D01*
X209041Y258128D02*
X205428Y258128D01*
X221789Y259934D02*
X214564Y240066D01*
X228280Y241872D02*
X228280Y258128D01*
X228280Y241872D02*
X235505Y241872D01*
X241276Y246388D02*
X241276Y253612D01*
X241275Y253612D02*
X241277Y253745D01*
X241283Y253877D01*
X241293Y254009D01*
X241306Y254141D01*
X241324Y254273D01*
X241345Y254403D01*
X241370Y254534D01*
X241399Y254663D01*
X241432Y254791D01*
X241468Y254919D01*
X241508Y255045D01*
X241552Y255170D01*
X241600Y255294D01*
X241651Y255416D01*
X241706Y255537D01*
X241764Y255656D01*
X241826Y255774D01*
X241891Y255889D01*
X241960Y256003D01*
X242031Y256114D01*
X242107Y256223D01*
X242185Y256330D01*
X242266Y256435D01*
X242351Y256537D01*
X242438Y256637D01*
X242528Y256734D01*
X242621Y256829D01*
X242717Y256920D01*
X242815Y257009D01*
X242916Y257095D01*
X243020Y257178D01*
X243126Y257258D01*
X243234Y257334D01*
X243344Y257408D01*
X243457Y257478D01*
X243571Y257545D01*
X243688Y257608D01*
X243806Y257668D01*
X243926Y257725D01*
X244048Y257778D01*
X244171Y257827D01*
X244295Y257873D01*
X244421Y257915D01*
X244548Y257953D01*
X244676Y257988D01*
X244805Y258019D01*
X244934Y258046D01*
X245065Y258069D01*
X245196Y258089D01*
X245328Y258104D01*
X245460Y258116D01*
X245592Y258124D01*
X245725Y258128D01*
X245857Y258128D01*
X245990Y258124D01*
X246122Y258116D01*
X246254Y258104D01*
X246386Y258089D01*
X246517Y258069D01*
X246648Y258046D01*
X246777Y258019D01*
X246906Y257988D01*
X247034Y257953D01*
X247161Y257915D01*
X247287Y257873D01*
X247411Y257827D01*
X247534Y257778D01*
X247656Y257725D01*
X247776Y257668D01*
X247894Y257608D01*
X248011Y257545D01*
X248125Y257478D01*
X248238Y257408D01*
X248348Y257334D01*
X248456Y257258D01*
X248562Y257178D01*
X248666Y257095D01*
X248767Y257009D01*
X248865Y256920D01*
X248961Y256829D01*
X249054Y256734D01*
X249144Y256637D01*
X249231Y256537D01*
X249316Y256435D01*
X249397Y256330D01*
X249475Y256223D01*
X249551Y256114D01*
X249622Y256003D01*
X249691Y255889D01*
X249756Y255774D01*
X249818Y255656D01*
X249876Y255537D01*
X249931Y255416D01*
X249982Y255294D01*
X250030Y255170D01*
X250074Y255045D01*
X250114Y254919D01*
X250150Y254791D01*
X250183Y254663D01*
X250212Y254534D01*
X250237Y254403D01*
X250258Y254273D01*
X250276Y254141D01*
X250289Y254009D01*
X250299Y253877D01*
X250305Y253745D01*
X250307Y253612D01*
X250307Y246388D01*
X250305Y246255D01*
X250299Y246123D01*
X250289Y245991D01*
X250276Y245859D01*
X250258Y245727D01*
X250237Y245597D01*
X250212Y245466D01*
X250183Y245337D01*
X250150Y245209D01*
X250114Y245081D01*
X250074Y244955D01*
X250030Y244830D01*
X249982Y244706D01*
X249931Y244584D01*
X249876Y244463D01*
X249818Y244344D01*
X249756Y244226D01*
X249691Y244111D01*
X249622Y243997D01*
X249551Y243886D01*
X249475Y243777D01*
X249397Y243670D01*
X249316Y243565D01*
X249231Y243463D01*
X249144Y243363D01*
X249054Y243266D01*
X248961Y243171D01*
X248865Y243080D01*
X248767Y242991D01*
X248666Y242905D01*
X248562Y242822D01*
X248456Y242742D01*
X248348Y242666D01*
X248238Y242592D01*
X248125Y242522D01*
X248011Y242455D01*
X247894Y242392D01*
X247776Y242332D01*
X247656Y242275D01*
X247534Y242222D01*
X247411Y242173D01*
X247287Y242127D01*
X247161Y242085D01*
X247034Y242047D01*
X246906Y242012D01*
X246777Y241981D01*
X246648Y241954D01*
X246517Y241931D01*
X246386Y241911D01*
X246254Y241896D01*
X246122Y241884D01*
X245990Y241876D01*
X245857Y241872D01*
X245725Y241872D01*
X245592Y241876D01*
X245460Y241884D01*
X245328Y241896D01*
X245196Y241911D01*
X245065Y241931D01*
X244934Y241954D01*
X244805Y241981D01*
X244676Y242012D01*
X244548Y242047D01*
X244421Y242085D01*
X244295Y242127D01*
X244171Y242173D01*
X244048Y242222D01*
X243926Y242275D01*
X243806Y242332D01*
X243688Y242392D01*
X243571Y242455D01*
X243457Y242522D01*
X243344Y242592D01*
X243234Y242666D01*
X243126Y242742D01*
X243020Y242822D01*
X242916Y242905D01*
X242815Y242991D01*
X242717Y243080D01*
X242621Y243171D01*
X242528Y243266D01*
X242438Y243363D01*
X242351Y243463D01*
X242266Y243565D01*
X242185Y243670D01*
X242107Y243777D01*
X242031Y243886D01*
X241960Y243997D01*
X241891Y244111D01*
X241826Y244226D01*
X241764Y244344D01*
X241706Y244463D01*
X241651Y244584D01*
X241600Y244706D01*
X241552Y244830D01*
X241508Y244955D01*
X241468Y245081D01*
X241432Y245209D01*
X241399Y245337D01*
X241370Y245466D01*
X241345Y245597D01*
X241324Y245727D01*
X241306Y245859D01*
X241293Y245991D01*
X241283Y246123D01*
X241277Y246255D01*
X241275Y246388D01*
M02*
