%
M48
M72
T01C0.03200
T02C0.04000
T03C0.05200
T04C0.11000
T05C0.12598
%
T01
X141000Y140375
X141000Y130375
X166000Y130375
X166000Y140375
X193500Y140375
X216000Y147875
X246000Y150375
X246000Y140375
X246000Y130375
X246000Y120375
X246000Y110375
X246000Y100375
X246000Y90375
X246000Y80375
X246000Y70375
X246000Y60375
X246000Y50375
X226000Y46875
X226000Y38875
X246000Y40375
X246000Y30375
X246000Y20375
X276000Y20375
X291000Y17875
X276000Y30375
X293500Y35375
X276000Y40375
X293500Y45375
X276000Y50375
X293500Y55375
X276000Y60375
X293500Y65375
X276000Y70375
X276000Y80375
X276000Y90375
X296000Y90875
X276000Y100375
X276000Y110375
X296000Y109875
X276000Y120375
X276000Y130375
X291000Y135375
X301000Y135375
X276000Y140375
X276000Y150375
X291000Y152875
X301000Y152875
X323500Y65375
X323500Y55375
X323500Y45375
X346000Y42875
X323500Y35375
X341000Y25375
X321000Y17875
X341000Y12875
X381000Y12875
X381000Y25375
X376000Y42875
X216000Y60375
X203500Y47875
X181000Y47875
X181000Y37875
X203500Y37875
X158500Y38875
X158500Y46875
X136000Y47875
X136000Y37875
X113500Y37875
X91000Y37875
X91000Y47875
X113500Y47875
X111000Y62875
X88500Y62875
X88500Y77875
X111000Y77875
X111000Y92875
X88500Y92875
X88500Y107875
X111000Y107875
X151000Y107875
X151000Y92875
X151000Y77875
X151000Y62875
X193500Y75375
X216000Y100375
X216000Y107875
X193500Y105375
X193500Y130375
X48500Y107875
X48500Y92875
X48500Y77875
X48500Y62875
X68500Y47875
X68500Y37875
X46000Y38875
X46000Y46875
T02
X11000Y50375
X21000Y50375
X21000Y60375
X11000Y60375
X11000Y70375
X21000Y70375
X21000Y80375
X11000Y80375
X11000Y90375
X21000Y90375
X21000Y100375
X11000Y100375
X11000Y110375
X21000Y110375
X21000Y120375
X11000Y120375
X41000Y142875
X51000Y142875
X61000Y142875
X71000Y142875
X81000Y142875
X91000Y142875
X101000Y142875
X111000Y142875
X111000Y152875
X101000Y152875
X91000Y152875
X81000Y152875
X71000Y152875
X61000Y152875
X51000Y152875
X41000Y152875
X206000Y12875
X196000Y12875
X186000Y12875
X176000Y12875
T03
X331000Y97875
X341000Y87875
X381000Y107875
X341000Y117875
X381000Y127875
X341000Y147875
X331000Y137875
T04
X361000Y87875
X361000Y147875
T05
X376000Y65375
M30
