G75*
%MOIN*%
%OFA0B0*%
%FSLAX25Y25*%
%IPPOS*%
%LPD*%
%AMOC8*
5,1,8,0,0,1.08239X$1,22.5*
%
%ADD10C,0.00000*%
%ADD11C,0.00600*%
%ADD12C,0.01200*%
%ADD13C,0.00500*%
%ADD14R,0.02000X0.08000*%
%ADD15R,0.02500X0.02000*%
%ADD16R,0.08000X0.02000*%
%ADD17R,0.02000X0.02500*%
%ADD18C,0.00700*%
%ADD19C,0.01600*%
%ADD20R,0.07500X0.06000*%
D10*
X0001000Y0002875D02*
X0001000Y0167835D01*
X0392201Y0167835D01*
X0392201Y0002875D01*
X0001000Y0002875D01*
X0355500Y0087875D02*
X0355502Y0088023D01*
X0355508Y0088171D01*
X0355518Y0088319D01*
X0355532Y0088467D01*
X0355550Y0088614D01*
X0355572Y0088761D01*
X0355598Y0088907D01*
X0355627Y0089052D01*
X0355661Y0089197D01*
X0355699Y0089340D01*
X0355740Y0089483D01*
X0355785Y0089624D01*
X0355835Y0089764D01*
X0355887Y0089902D01*
X0355944Y0090040D01*
X0356004Y0090175D01*
X0356068Y0090309D01*
X0356135Y0090441D01*
X0356206Y0090571D01*
X0356281Y0090700D01*
X0356359Y0090826D01*
X0356440Y0090950D01*
X0356524Y0091072D01*
X0356612Y0091191D01*
X0356703Y0091308D01*
X0356797Y0091423D01*
X0356895Y0091535D01*
X0356995Y0091644D01*
X0357098Y0091751D01*
X0357204Y0091855D01*
X0357312Y0091956D01*
X0357424Y0092054D01*
X0357538Y0092149D01*
X0357654Y0092240D01*
X0357773Y0092329D01*
X0357894Y0092414D01*
X0358018Y0092496D01*
X0358144Y0092575D01*
X0358271Y0092650D01*
X0358401Y0092722D01*
X0358533Y0092791D01*
X0358666Y0092855D01*
X0358801Y0092916D01*
X0358938Y0092974D01*
X0359076Y0093028D01*
X0359216Y0093078D01*
X0359357Y0093124D01*
X0359499Y0093166D01*
X0359642Y0093205D01*
X0359786Y0093239D01*
X0359932Y0093270D01*
X0360077Y0093297D01*
X0360224Y0093320D01*
X0360371Y0093339D01*
X0360519Y0093354D01*
X0360666Y0093365D01*
X0360815Y0093372D01*
X0360963Y0093375D01*
X0361111Y0093374D01*
X0361259Y0093369D01*
X0361407Y0093360D01*
X0361555Y0093347D01*
X0361703Y0093330D01*
X0361849Y0093309D01*
X0361996Y0093284D01*
X0362141Y0093255D01*
X0362286Y0093223D01*
X0362429Y0093186D01*
X0362572Y0093146D01*
X0362714Y0093101D01*
X0362854Y0093053D01*
X0362993Y0093001D01*
X0363130Y0092946D01*
X0363266Y0092886D01*
X0363401Y0092823D01*
X0363533Y0092757D01*
X0363664Y0092687D01*
X0363793Y0092613D01*
X0363919Y0092536D01*
X0364044Y0092456D01*
X0364166Y0092372D01*
X0364287Y0092285D01*
X0364404Y0092195D01*
X0364520Y0092101D01*
X0364632Y0092005D01*
X0364742Y0091906D01*
X0364850Y0091803D01*
X0364954Y0091698D01*
X0365056Y0091590D01*
X0365154Y0091479D01*
X0365250Y0091366D01*
X0365343Y0091250D01*
X0365432Y0091132D01*
X0365518Y0091011D01*
X0365601Y0090888D01*
X0365681Y0090763D01*
X0365757Y0090636D01*
X0365830Y0090506D01*
X0365899Y0090375D01*
X0365964Y0090242D01*
X0366027Y0090108D01*
X0366085Y0089971D01*
X0366140Y0089833D01*
X0366190Y0089694D01*
X0366238Y0089553D01*
X0366281Y0089412D01*
X0366321Y0089269D01*
X0366356Y0089125D01*
X0366388Y0088980D01*
X0366416Y0088834D01*
X0366440Y0088688D01*
X0366460Y0088541D01*
X0366476Y0088393D01*
X0366488Y0088246D01*
X0366496Y0088097D01*
X0366500Y0087949D01*
X0366500Y0087801D01*
X0366496Y0087653D01*
X0366488Y0087504D01*
X0366476Y0087357D01*
X0366460Y0087209D01*
X0366440Y0087062D01*
X0366416Y0086916D01*
X0366388Y0086770D01*
X0366356Y0086625D01*
X0366321Y0086481D01*
X0366281Y0086338D01*
X0366238Y0086197D01*
X0366190Y0086056D01*
X0366140Y0085917D01*
X0366085Y0085779D01*
X0366027Y0085642D01*
X0365964Y0085508D01*
X0365899Y0085375D01*
X0365830Y0085244D01*
X0365757Y0085114D01*
X0365681Y0084987D01*
X0365601Y0084862D01*
X0365518Y0084739D01*
X0365432Y0084618D01*
X0365343Y0084500D01*
X0365250Y0084384D01*
X0365154Y0084271D01*
X0365056Y0084160D01*
X0364954Y0084052D01*
X0364850Y0083947D01*
X0364742Y0083844D01*
X0364632Y0083745D01*
X0364520Y0083649D01*
X0364404Y0083555D01*
X0364287Y0083465D01*
X0364166Y0083378D01*
X0364044Y0083294D01*
X0363919Y0083214D01*
X0363793Y0083137D01*
X0363664Y0083063D01*
X0363533Y0082993D01*
X0363401Y0082927D01*
X0363266Y0082864D01*
X0363130Y0082804D01*
X0362993Y0082749D01*
X0362854Y0082697D01*
X0362714Y0082649D01*
X0362572Y0082604D01*
X0362429Y0082564D01*
X0362286Y0082527D01*
X0362141Y0082495D01*
X0361996Y0082466D01*
X0361849Y0082441D01*
X0361703Y0082420D01*
X0361555Y0082403D01*
X0361407Y0082390D01*
X0361259Y0082381D01*
X0361111Y0082376D01*
X0360963Y0082375D01*
X0360815Y0082378D01*
X0360666Y0082385D01*
X0360519Y0082396D01*
X0360371Y0082411D01*
X0360224Y0082430D01*
X0360077Y0082453D01*
X0359932Y0082480D01*
X0359786Y0082511D01*
X0359642Y0082545D01*
X0359499Y0082584D01*
X0359357Y0082626D01*
X0359216Y0082672D01*
X0359076Y0082722D01*
X0358938Y0082776D01*
X0358801Y0082834D01*
X0358666Y0082895D01*
X0358533Y0082959D01*
X0358401Y0083028D01*
X0358271Y0083100D01*
X0358144Y0083175D01*
X0358018Y0083254D01*
X0357894Y0083336D01*
X0357773Y0083421D01*
X0357654Y0083510D01*
X0357538Y0083601D01*
X0357424Y0083696D01*
X0357312Y0083794D01*
X0357204Y0083895D01*
X0357098Y0083999D01*
X0356995Y0084106D01*
X0356895Y0084215D01*
X0356797Y0084327D01*
X0356703Y0084442D01*
X0356612Y0084559D01*
X0356524Y0084678D01*
X0356440Y0084800D01*
X0356359Y0084924D01*
X0356281Y0085050D01*
X0356206Y0085179D01*
X0356135Y0085309D01*
X0356068Y0085441D01*
X0356004Y0085575D01*
X0355944Y0085710D01*
X0355887Y0085848D01*
X0355835Y0085986D01*
X0355785Y0086126D01*
X0355740Y0086267D01*
X0355699Y0086410D01*
X0355661Y0086553D01*
X0355627Y0086698D01*
X0355598Y0086843D01*
X0355572Y0086989D01*
X0355550Y0087136D01*
X0355532Y0087283D01*
X0355518Y0087431D01*
X0355508Y0087579D01*
X0355502Y0087727D01*
X0355500Y0087875D01*
X0369701Y0065375D02*
X0369703Y0065533D01*
X0369709Y0065691D01*
X0369719Y0065849D01*
X0369733Y0066007D01*
X0369751Y0066164D01*
X0369772Y0066321D01*
X0369798Y0066477D01*
X0369828Y0066633D01*
X0369861Y0066788D01*
X0369899Y0066941D01*
X0369940Y0067094D01*
X0369985Y0067246D01*
X0370034Y0067397D01*
X0370087Y0067546D01*
X0370143Y0067694D01*
X0370203Y0067840D01*
X0370267Y0067985D01*
X0370335Y0068128D01*
X0370406Y0068270D01*
X0370480Y0068410D01*
X0370558Y0068547D01*
X0370640Y0068683D01*
X0370724Y0068817D01*
X0370813Y0068948D01*
X0370904Y0069077D01*
X0370999Y0069204D01*
X0371096Y0069329D01*
X0371197Y0069451D01*
X0371301Y0069570D01*
X0371408Y0069687D01*
X0371518Y0069801D01*
X0371631Y0069912D01*
X0371746Y0070021D01*
X0371864Y0070126D01*
X0371985Y0070228D01*
X0372108Y0070328D01*
X0372234Y0070424D01*
X0372362Y0070517D01*
X0372492Y0070607D01*
X0372625Y0070693D01*
X0372760Y0070777D01*
X0372896Y0070856D01*
X0373035Y0070933D01*
X0373176Y0071005D01*
X0373318Y0071075D01*
X0373462Y0071140D01*
X0373608Y0071202D01*
X0373755Y0071260D01*
X0373904Y0071315D01*
X0374054Y0071366D01*
X0374205Y0071413D01*
X0374357Y0071456D01*
X0374510Y0071495D01*
X0374665Y0071531D01*
X0374820Y0071562D01*
X0374976Y0071590D01*
X0375132Y0071614D01*
X0375289Y0071634D01*
X0375447Y0071650D01*
X0375604Y0071662D01*
X0375763Y0071670D01*
X0375921Y0071674D01*
X0376079Y0071674D01*
X0376237Y0071670D01*
X0376396Y0071662D01*
X0376553Y0071650D01*
X0376711Y0071634D01*
X0376868Y0071614D01*
X0377024Y0071590D01*
X0377180Y0071562D01*
X0377335Y0071531D01*
X0377490Y0071495D01*
X0377643Y0071456D01*
X0377795Y0071413D01*
X0377946Y0071366D01*
X0378096Y0071315D01*
X0378245Y0071260D01*
X0378392Y0071202D01*
X0378538Y0071140D01*
X0378682Y0071075D01*
X0378824Y0071005D01*
X0378965Y0070933D01*
X0379104Y0070856D01*
X0379240Y0070777D01*
X0379375Y0070693D01*
X0379508Y0070607D01*
X0379638Y0070517D01*
X0379766Y0070424D01*
X0379892Y0070328D01*
X0380015Y0070228D01*
X0380136Y0070126D01*
X0380254Y0070021D01*
X0380369Y0069912D01*
X0380482Y0069801D01*
X0380592Y0069687D01*
X0380699Y0069570D01*
X0380803Y0069451D01*
X0380904Y0069329D01*
X0381001Y0069204D01*
X0381096Y0069077D01*
X0381187Y0068948D01*
X0381276Y0068817D01*
X0381360Y0068683D01*
X0381442Y0068547D01*
X0381520Y0068410D01*
X0381594Y0068270D01*
X0381665Y0068128D01*
X0381733Y0067985D01*
X0381797Y0067840D01*
X0381857Y0067694D01*
X0381913Y0067546D01*
X0381966Y0067397D01*
X0382015Y0067246D01*
X0382060Y0067094D01*
X0382101Y0066941D01*
X0382139Y0066788D01*
X0382172Y0066633D01*
X0382202Y0066477D01*
X0382228Y0066321D01*
X0382249Y0066164D01*
X0382267Y0066007D01*
X0382281Y0065849D01*
X0382291Y0065691D01*
X0382297Y0065533D01*
X0382299Y0065375D01*
X0382297Y0065217D01*
X0382291Y0065059D01*
X0382281Y0064901D01*
X0382267Y0064743D01*
X0382249Y0064586D01*
X0382228Y0064429D01*
X0382202Y0064273D01*
X0382172Y0064117D01*
X0382139Y0063962D01*
X0382101Y0063809D01*
X0382060Y0063656D01*
X0382015Y0063504D01*
X0381966Y0063353D01*
X0381913Y0063204D01*
X0381857Y0063056D01*
X0381797Y0062910D01*
X0381733Y0062765D01*
X0381665Y0062622D01*
X0381594Y0062480D01*
X0381520Y0062340D01*
X0381442Y0062203D01*
X0381360Y0062067D01*
X0381276Y0061933D01*
X0381187Y0061802D01*
X0381096Y0061673D01*
X0381001Y0061546D01*
X0380904Y0061421D01*
X0380803Y0061299D01*
X0380699Y0061180D01*
X0380592Y0061063D01*
X0380482Y0060949D01*
X0380369Y0060838D01*
X0380254Y0060729D01*
X0380136Y0060624D01*
X0380015Y0060522D01*
X0379892Y0060422D01*
X0379766Y0060326D01*
X0379638Y0060233D01*
X0379508Y0060143D01*
X0379375Y0060057D01*
X0379240Y0059973D01*
X0379104Y0059894D01*
X0378965Y0059817D01*
X0378824Y0059745D01*
X0378682Y0059675D01*
X0378538Y0059610D01*
X0378392Y0059548D01*
X0378245Y0059490D01*
X0378096Y0059435D01*
X0377946Y0059384D01*
X0377795Y0059337D01*
X0377643Y0059294D01*
X0377490Y0059255D01*
X0377335Y0059219D01*
X0377180Y0059188D01*
X0377024Y0059160D01*
X0376868Y0059136D01*
X0376711Y0059116D01*
X0376553Y0059100D01*
X0376396Y0059088D01*
X0376237Y0059080D01*
X0376079Y0059076D01*
X0375921Y0059076D01*
X0375763Y0059080D01*
X0375604Y0059088D01*
X0375447Y0059100D01*
X0375289Y0059116D01*
X0375132Y0059136D01*
X0374976Y0059160D01*
X0374820Y0059188D01*
X0374665Y0059219D01*
X0374510Y0059255D01*
X0374357Y0059294D01*
X0374205Y0059337D01*
X0374054Y0059384D01*
X0373904Y0059435D01*
X0373755Y0059490D01*
X0373608Y0059548D01*
X0373462Y0059610D01*
X0373318Y0059675D01*
X0373176Y0059745D01*
X0373035Y0059817D01*
X0372896Y0059894D01*
X0372760Y0059973D01*
X0372625Y0060057D01*
X0372492Y0060143D01*
X0372362Y0060233D01*
X0372234Y0060326D01*
X0372108Y0060422D01*
X0371985Y0060522D01*
X0371864Y0060624D01*
X0371746Y0060729D01*
X0371631Y0060838D01*
X0371518Y0060949D01*
X0371408Y0061063D01*
X0371301Y0061180D01*
X0371197Y0061299D01*
X0371096Y0061421D01*
X0370999Y0061546D01*
X0370904Y0061673D01*
X0370813Y0061802D01*
X0370724Y0061933D01*
X0370640Y0062067D01*
X0370558Y0062203D01*
X0370480Y0062340D01*
X0370406Y0062480D01*
X0370335Y0062622D01*
X0370267Y0062765D01*
X0370203Y0062910D01*
X0370143Y0063056D01*
X0370087Y0063204D01*
X0370034Y0063353D01*
X0369985Y0063504D01*
X0369940Y0063656D01*
X0369899Y0063809D01*
X0369861Y0063962D01*
X0369828Y0064117D01*
X0369798Y0064273D01*
X0369772Y0064429D01*
X0369751Y0064586D01*
X0369733Y0064743D01*
X0369719Y0064901D01*
X0369709Y0065059D01*
X0369703Y0065217D01*
X0369701Y0065375D01*
X0355500Y0147875D02*
X0355502Y0148023D01*
X0355508Y0148171D01*
X0355518Y0148319D01*
X0355532Y0148467D01*
X0355550Y0148614D01*
X0355572Y0148761D01*
X0355598Y0148907D01*
X0355627Y0149052D01*
X0355661Y0149197D01*
X0355699Y0149340D01*
X0355740Y0149483D01*
X0355785Y0149624D01*
X0355835Y0149764D01*
X0355887Y0149902D01*
X0355944Y0150040D01*
X0356004Y0150175D01*
X0356068Y0150309D01*
X0356135Y0150441D01*
X0356206Y0150571D01*
X0356281Y0150700D01*
X0356359Y0150826D01*
X0356440Y0150950D01*
X0356524Y0151072D01*
X0356612Y0151191D01*
X0356703Y0151308D01*
X0356797Y0151423D01*
X0356895Y0151535D01*
X0356995Y0151644D01*
X0357098Y0151751D01*
X0357204Y0151855D01*
X0357312Y0151956D01*
X0357424Y0152054D01*
X0357538Y0152149D01*
X0357654Y0152240D01*
X0357773Y0152329D01*
X0357894Y0152414D01*
X0358018Y0152496D01*
X0358144Y0152575D01*
X0358271Y0152650D01*
X0358401Y0152722D01*
X0358533Y0152791D01*
X0358666Y0152855D01*
X0358801Y0152916D01*
X0358938Y0152974D01*
X0359076Y0153028D01*
X0359216Y0153078D01*
X0359357Y0153124D01*
X0359499Y0153166D01*
X0359642Y0153205D01*
X0359786Y0153239D01*
X0359932Y0153270D01*
X0360077Y0153297D01*
X0360224Y0153320D01*
X0360371Y0153339D01*
X0360519Y0153354D01*
X0360666Y0153365D01*
X0360815Y0153372D01*
X0360963Y0153375D01*
X0361111Y0153374D01*
X0361259Y0153369D01*
X0361407Y0153360D01*
X0361555Y0153347D01*
X0361703Y0153330D01*
X0361849Y0153309D01*
X0361996Y0153284D01*
X0362141Y0153255D01*
X0362286Y0153223D01*
X0362429Y0153186D01*
X0362572Y0153146D01*
X0362714Y0153101D01*
X0362854Y0153053D01*
X0362993Y0153001D01*
X0363130Y0152946D01*
X0363266Y0152886D01*
X0363401Y0152823D01*
X0363533Y0152757D01*
X0363664Y0152687D01*
X0363793Y0152613D01*
X0363919Y0152536D01*
X0364044Y0152456D01*
X0364166Y0152372D01*
X0364287Y0152285D01*
X0364404Y0152195D01*
X0364520Y0152101D01*
X0364632Y0152005D01*
X0364742Y0151906D01*
X0364850Y0151803D01*
X0364954Y0151698D01*
X0365056Y0151590D01*
X0365154Y0151479D01*
X0365250Y0151366D01*
X0365343Y0151250D01*
X0365432Y0151132D01*
X0365518Y0151011D01*
X0365601Y0150888D01*
X0365681Y0150763D01*
X0365757Y0150636D01*
X0365830Y0150506D01*
X0365899Y0150375D01*
X0365964Y0150242D01*
X0366027Y0150108D01*
X0366085Y0149971D01*
X0366140Y0149833D01*
X0366190Y0149694D01*
X0366238Y0149553D01*
X0366281Y0149412D01*
X0366321Y0149269D01*
X0366356Y0149125D01*
X0366388Y0148980D01*
X0366416Y0148834D01*
X0366440Y0148688D01*
X0366460Y0148541D01*
X0366476Y0148393D01*
X0366488Y0148246D01*
X0366496Y0148097D01*
X0366500Y0147949D01*
X0366500Y0147801D01*
X0366496Y0147653D01*
X0366488Y0147504D01*
X0366476Y0147357D01*
X0366460Y0147209D01*
X0366440Y0147062D01*
X0366416Y0146916D01*
X0366388Y0146770D01*
X0366356Y0146625D01*
X0366321Y0146481D01*
X0366281Y0146338D01*
X0366238Y0146197D01*
X0366190Y0146056D01*
X0366140Y0145917D01*
X0366085Y0145779D01*
X0366027Y0145642D01*
X0365964Y0145508D01*
X0365899Y0145375D01*
X0365830Y0145244D01*
X0365757Y0145114D01*
X0365681Y0144987D01*
X0365601Y0144862D01*
X0365518Y0144739D01*
X0365432Y0144618D01*
X0365343Y0144500D01*
X0365250Y0144384D01*
X0365154Y0144271D01*
X0365056Y0144160D01*
X0364954Y0144052D01*
X0364850Y0143947D01*
X0364742Y0143844D01*
X0364632Y0143745D01*
X0364520Y0143649D01*
X0364404Y0143555D01*
X0364287Y0143465D01*
X0364166Y0143378D01*
X0364044Y0143294D01*
X0363919Y0143214D01*
X0363793Y0143137D01*
X0363664Y0143063D01*
X0363533Y0142993D01*
X0363401Y0142927D01*
X0363266Y0142864D01*
X0363130Y0142804D01*
X0362993Y0142749D01*
X0362854Y0142697D01*
X0362714Y0142649D01*
X0362572Y0142604D01*
X0362429Y0142564D01*
X0362286Y0142527D01*
X0362141Y0142495D01*
X0361996Y0142466D01*
X0361849Y0142441D01*
X0361703Y0142420D01*
X0361555Y0142403D01*
X0361407Y0142390D01*
X0361259Y0142381D01*
X0361111Y0142376D01*
X0360963Y0142375D01*
X0360815Y0142378D01*
X0360666Y0142385D01*
X0360519Y0142396D01*
X0360371Y0142411D01*
X0360224Y0142430D01*
X0360077Y0142453D01*
X0359932Y0142480D01*
X0359786Y0142511D01*
X0359642Y0142545D01*
X0359499Y0142584D01*
X0359357Y0142626D01*
X0359216Y0142672D01*
X0359076Y0142722D01*
X0358938Y0142776D01*
X0358801Y0142834D01*
X0358666Y0142895D01*
X0358533Y0142959D01*
X0358401Y0143028D01*
X0358271Y0143100D01*
X0358144Y0143175D01*
X0358018Y0143254D01*
X0357894Y0143336D01*
X0357773Y0143421D01*
X0357654Y0143510D01*
X0357538Y0143601D01*
X0357424Y0143696D01*
X0357312Y0143794D01*
X0357204Y0143895D01*
X0357098Y0143999D01*
X0356995Y0144106D01*
X0356895Y0144215D01*
X0356797Y0144327D01*
X0356703Y0144442D01*
X0356612Y0144559D01*
X0356524Y0144678D01*
X0356440Y0144800D01*
X0356359Y0144924D01*
X0356281Y0145050D01*
X0356206Y0145179D01*
X0356135Y0145309D01*
X0356068Y0145441D01*
X0356004Y0145575D01*
X0355944Y0145710D01*
X0355887Y0145848D01*
X0355835Y0145986D01*
X0355785Y0146126D01*
X0355740Y0146267D01*
X0355699Y0146410D01*
X0355661Y0146553D01*
X0355627Y0146698D01*
X0355598Y0146843D01*
X0355572Y0146989D01*
X0355550Y0147136D01*
X0355532Y0147283D01*
X0355518Y0147431D01*
X0355508Y0147579D01*
X0355502Y0147727D01*
X0355500Y0147875D01*
D11*
X0304500Y0150375D02*
X0304500Y0155375D01*
X0304498Y0155462D01*
X0304492Y0155549D01*
X0304483Y0155636D01*
X0304470Y0155722D01*
X0304453Y0155808D01*
X0304432Y0155893D01*
X0304407Y0155976D01*
X0304379Y0156059D01*
X0304348Y0156140D01*
X0304313Y0156220D01*
X0304274Y0156298D01*
X0304232Y0156375D01*
X0304187Y0156450D01*
X0304138Y0156522D01*
X0304087Y0156593D01*
X0304032Y0156661D01*
X0303975Y0156726D01*
X0303914Y0156789D01*
X0303851Y0156850D01*
X0303786Y0156907D01*
X0303718Y0156962D01*
X0303647Y0157013D01*
X0303575Y0157062D01*
X0303500Y0157107D01*
X0303423Y0157149D01*
X0303345Y0157188D01*
X0303265Y0157223D01*
X0303184Y0157254D01*
X0303101Y0157282D01*
X0303018Y0157307D01*
X0302933Y0157328D01*
X0302847Y0157345D01*
X0302761Y0157358D01*
X0302674Y0157367D01*
X0302587Y0157373D01*
X0302500Y0157375D01*
X0289500Y0157375D01*
X0289413Y0157373D01*
X0289326Y0157367D01*
X0289239Y0157358D01*
X0289153Y0157345D01*
X0289067Y0157328D01*
X0288982Y0157307D01*
X0288899Y0157282D01*
X0288816Y0157254D01*
X0288735Y0157223D01*
X0288655Y0157188D01*
X0288577Y0157149D01*
X0288500Y0157107D01*
X0288425Y0157062D01*
X0288353Y0157013D01*
X0288282Y0156962D01*
X0288214Y0156907D01*
X0288149Y0156850D01*
X0288086Y0156789D01*
X0288025Y0156726D01*
X0287968Y0156661D01*
X0287913Y0156593D01*
X0287862Y0156522D01*
X0287813Y0156450D01*
X0287768Y0156375D01*
X0287726Y0156298D01*
X0287687Y0156220D01*
X0287652Y0156140D01*
X0287621Y0156059D01*
X0287593Y0155976D01*
X0287568Y0155893D01*
X0287547Y0155808D01*
X0287530Y0155722D01*
X0287517Y0155636D01*
X0287508Y0155549D01*
X0287502Y0155462D01*
X0287500Y0155375D01*
X0287500Y0150375D01*
X0287502Y0150288D01*
X0287508Y0150201D01*
X0287517Y0150114D01*
X0287530Y0150028D01*
X0287547Y0149942D01*
X0287568Y0149857D01*
X0287593Y0149774D01*
X0287621Y0149691D01*
X0287652Y0149610D01*
X0287687Y0149530D01*
X0287726Y0149452D01*
X0287768Y0149375D01*
X0287813Y0149300D01*
X0287862Y0149228D01*
X0287913Y0149157D01*
X0287968Y0149089D01*
X0288025Y0149024D01*
X0288086Y0148961D01*
X0288149Y0148900D01*
X0288214Y0148843D01*
X0288282Y0148788D01*
X0288353Y0148737D01*
X0288425Y0148688D01*
X0288500Y0148643D01*
X0288577Y0148601D01*
X0288655Y0148562D01*
X0288735Y0148527D01*
X0288816Y0148496D01*
X0288899Y0148468D01*
X0288982Y0148443D01*
X0289067Y0148422D01*
X0289153Y0148405D01*
X0289239Y0148392D01*
X0289326Y0148383D01*
X0289413Y0148377D01*
X0289500Y0148375D01*
X0302500Y0148375D01*
X0302587Y0148377D01*
X0302674Y0148383D01*
X0302761Y0148392D01*
X0302847Y0148405D01*
X0302933Y0148422D01*
X0303018Y0148443D01*
X0303101Y0148468D01*
X0303184Y0148496D01*
X0303265Y0148527D01*
X0303345Y0148562D01*
X0303423Y0148601D01*
X0303500Y0148643D01*
X0303575Y0148688D01*
X0303647Y0148737D01*
X0303718Y0148788D01*
X0303786Y0148843D01*
X0303851Y0148900D01*
X0303914Y0148961D01*
X0303975Y0149024D01*
X0304032Y0149089D01*
X0304087Y0149157D01*
X0304138Y0149228D01*
X0304187Y0149300D01*
X0304232Y0149375D01*
X0304274Y0149452D01*
X0304313Y0149530D01*
X0304348Y0149610D01*
X0304379Y0149691D01*
X0304407Y0149774D01*
X0304432Y0149857D01*
X0304453Y0149942D01*
X0304470Y0150028D01*
X0304483Y0150114D01*
X0304492Y0150201D01*
X0304498Y0150288D01*
X0304500Y0150375D01*
X0302500Y0139875D02*
X0289500Y0139875D01*
X0289413Y0139873D01*
X0289326Y0139867D01*
X0289239Y0139858D01*
X0289153Y0139845D01*
X0289067Y0139828D01*
X0288982Y0139807D01*
X0288899Y0139782D01*
X0288816Y0139754D01*
X0288735Y0139723D01*
X0288655Y0139688D01*
X0288577Y0139649D01*
X0288500Y0139607D01*
X0288425Y0139562D01*
X0288353Y0139513D01*
X0288282Y0139462D01*
X0288214Y0139407D01*
X0288149Y0139350D01*
X0288086Y0139289D01*
X0288025Y0139226D01*
X0287968Y0139161D01*
X0287913Y0139093D01*
X0287862Y0139022D01*
X0287813Y0138950D01*
X0287768Y0138875D01*
X0287726Y0138798D01*
X0287687Y0138720D01*
X0287652Y0138640D01*
X0287621Y0138559D01*
X0287593Y0138476D01*
X0287568Y0138393D01*
X0287547Y0138308D01*
X0287530Y0138222D01*
X0287517Y0138136D01*
X0287508Y0138049D01*
X0287502Y0137962D01*
X0287500Y0137875D01*
X0287500Y0132875D01*
X0287502Y0132788D01*
X0287508Y0132701D01*
X0287517Y0132614D01*
X0287530Y0132528D01*
X0287547Y0132442D01*
X0287568Y0132357D01*
X0287593Y0132274D01*
X0287621Y0132191D01*
X0287652Y0132110D01*
X0287687Y0132030D01*
X0287726Y0131952D01*
X0287768Y0131875D01*
X0287813Y0131800D01*
X0287862Y0131728D01*
X0287913Y0131657D01*
X0287968Y0131589D01*
X0288025Y0131524D01*
X0288086Y0131461D01*
X0288149Y0131400D01*
X0288214Y0131343D01*
X0288282Y0131288D01*
X0288353Y0131237D01*
X0288425Y0131188D01*
X0288500Y0131143D01*
X0288577Y0131101D01*
X0288655Y0131062D01*
X0288735Y0131027D01*
X0288816Y0130996D01*
X0288899Y0130968D01*
X0288982Y0130943D01*
X0289067Y0130922D01*
X0289153Y0130905D01*
X0289239Y0130892D01*
X0289326Y0130883D01*
X0289413Y0130877D01*
X0289500Y0130875D01*
X0302500Y0130875D01*
X0302587Y0130877D01*
X0302674Y0130883D01*
X0302761Y0130892D01*
X0302847Y0130905D01*
X0302933Y0130922D01*
X0303018Y0130943D01*
X0303101Y0130968D01*
X0303184Y0130996D01*
X0303265Y0131027D01*
X0303345Y0131062D01*
X0303423Y0131101D01*
X0303500Y0131143D01*
X0303575Y0131188D01*
X0303647Y0131237D01*
X0303718Y0131288D01*
X0303786Y0131343D01*
X0303851Y0131400D01*
X0303914Y0131461D01*
X0303975Y0131524D01*
X0304032Y0131589D01*
X0304087Y0131657D01*
X0304138Y0131728D01*
X0304187Y0131800D01*
X0304232Y0131875D01*
X0304274Y0131952D01*
X0304313Y0132030D01*
X0304348Y0132110D01*
X0304379Y0132191D01*
X0304407Y0132274D01*
X0304432Y0132357D01*
X0304453Y0132442D01*
X0304470Y0132528D01*
X0304483Y0132614D01*
X0304492Y0132701D01*
X0304498Y0132788D01*
X0304500Y0132875D01*
X0304500Y0137875D01*
X0304498Y0137962D01*
X0304492Y0138049D01*
X0304483Y0138136D01*
X0304470Y0138222D01*
X0304453Y0138308D01*
X0304432Y0138393D01*
X0304407Y0138476D01*
X0304379Y0138559D01*
X0304348Y0138640D01*
X0304313Y0138720D01*
X0304274Y0138798D01*
X0304232Y0138875D01*
X0304187Y0138950D01*
X0304138Y0139022D01*
X0304087Y0139093D01*
X0304032Y0139161D01*
X0303975Y0139226D01*
X0303914Y0139289D01*
X0303851Y0139350D01*
X0303786Y0139407D01*
X0303718Y0139462D01*
X0303647Y0139513D01*
X0303575Y0139562D01*
X0303500Y0139607D01*
X0303423Y0139649D01*
X0303345Y0139688D01*
X0303265Y0139723D01*
X0303184Y0139754D01*
X0303101Y0139782D01*
X0303018Y0139807D01*
X0302933Y0139828D01*
X0302847Y0139845D01*
X0302761Y0139858D01*
X0302674Y0139867D01*
X0302587Y0139873D01*
X0302500Y0139875D01*
X0271000Y0155375D02*
X0271000Y0015875D01*
X0271000Y0015375D02*
X0266000Y0015375D01*
X0265998Y0015515D01*
X0265992Y0015655D01*
X0265982Y0015795D01*
X0265969Y0015935D01*
X0265951Y0016074D01*
X0265929Y0016213D01*
X0265904Y0016350D01*
X0265875Y0016488D01*
X0265842Y0016624D01*
X0265805Y0016759D01*
X0265764Y0016893D01*
X0265719Y0017026D01*
X0265671Y0017158D01*
X0265619Y0017288D01*
X0265564Y0017417D01*
X0265505Y0017544D01*
X0265442Y0017670D01*
X0265376Y0017794D01*
X0265307Y0017915D01*
X0265234Y0018035D01*
X0265157Y0018153D01*
X0265078Y0018268D01*
X0264995Y0018382D01*
X0264909Y0018492D01*
X0264820Y0018601D01*
X0264728Y0018707D01*
X0264633Y0018810D01*
X0264536Y0018911D01*
X0264435Y0019008D01*
X0264332Y0019103D01*
X0264226Y0019195D01*
X0264117Y0019284D01*
X0264007Y0019370D01*
X0263893Y0019453D01*
X0263778Y0019532D01*
X0263660Y0019609D01*
X0263540Y0019682D01*
X0263419Y0019751D01*
X0263295Y0019817D01*
X0263169Y0019880D01*
X0263042Y0019939D01*
X0262913Y0019994D01*
X0262783Y0020046D01*
X0262651Y0020094D01*
X0262518Y0020139D01*
X0262384Y0020180D01*
X0262249Y0020217D01*
X0262113Y0020250D01*
X0261975Y0020279D01*
X0261838Y0020304D01*
X0261699Y0020326D01*
X0261560Y0020344D01*
X0261420Y0020357D01*
X0261280Y0020367D01*
X0261140Y0020373D01*
X0261000Y0020375D01*
X0260860Y0020373D01*
X0260720Y0020367D01*
X0260580Y0020357D01*
X0260440Y0020344D01*
X0260301Y0020326D01*
X0260162Y0020304D01*
X0260025Y0020279D01*
X0259887Y0020250D01*
X0259751Y0020217D01*
X0259616Y0020180D01*
X0259482Y0020139D01*
X0259349Y0020094D01*
X0259217Y0020046D01*
X0259087Y0019994D01*
X0258958Y0019939D01*
X0258831Y0019880D01*
X0258705Y0019817D01*
X0258581Y0019751D01*
X0258460Y0019682D01*
X0258340Y0019609D01*
X0258222Y0019532D01*
X0258107Y0019453D01*
X0257993Y0019370D01*
X0257883Y0019284D01*
X0257774Y0019195D01*
X0257668Y0019103D01*
X0257565Y0019008D01*
X0257464Y0018911D01*
X0257367Y0018810D01*
X0257272Y0018707D01*
X0257180Y0018601D01*
X0257091Y0018492D01*
X0257005Y0018382D01*
X0256922Y0018268D01*
X0256843Y0018153D01*
X0256766Y0018035D01*
X0256693Y0017915D01*
X0256624Y0017794D01*
X0256558Y0017670D01*
X0256495Y0017544D01*
X0256436Y0017417D01*
X0256381Y0017288D01*
X0256329Y0017158D01*
X0256281Y0017026D01*
X0256236Y0016893D01*
X0256195Y0016759D01*
X0256158Y0016624D01*
X0256125Y0016488D01*
X0256096Y0016350D01*
X0256071Y0016213D01*
X0256049Y0016074D01*
X0256031Y0015935D01*
X0256018Y0015795D01*
X0256008Y0015655D01*
X0256002Y0015515D01*
X0256000Y0015375D01*
X0251000Y0015375D01*
X0251000Y0155375D01*
X0271000Y0155375D01*
X0222000Y0143875D02*
X0222000Y0141375D01*
X0221500Y0140875D01*
X0221500Y0114875D01*
X0222000Y0114375D01*
X0222000Y0111875D01*
X0221998Y0111815D01*
X0221993Y0111754D01*
X0221984Y0111695D01*
X0221971Y0111636D01*
X0221955Y0111577D01*
X0221935Y0111520D01*
X0221912Y0111465D01*
X0221885Y0111410D01*
X0221856Y0111358D01*
X0221823Y0111307D01*
X0221787Y0111258D01*
X0221749Y0111212D01*
X0221707Y0111168D01*
X0221663Y0111126D01*
X0221617Y0111088D01*
X0221568Y0111052D01*
X0221517Y0111019D01*
X0221465Y0110990D01*
X0221410Y0110963D01*
X0221355Y0110940D01*
X0221298Y0110920D01*
X0221239Y0110904D01*
X0221180Y0110891D01*
X0221121Y0110882D01*
X0221060Y0110877D01*
X0221000Y0110875D01*
X0211000Y0110875D02*
X0210940Y0110877D01*
X0210879Y0110882D01*
X0210820Y0110891D01*
X0210761Y0110904D01*
X0210702Y0110920D01*
X0210645Y0110940D01*
X0210590Y0110963D01*
X0210535Y0110990D01*
X0210483Y0111019D01*
X0210432Y0111052D01*
X0210383Y0111088D01*
X0210337Y0111126D01*
X0210293Y0111168D01*
X0210251Y0111212D01*
X0210213Y0111258D01*
X0210177Y0111307D01*
X0210144Y0111358D01*
X0210115Y0111410D01*
X0210088Y0111465D01*
X0210065Y0111520D01*
X0210045Y0111577D01*
X0210029Y0111636D01*
X0210016Y0111695D01*
X0210007Y0111754D01*
X0210002Y0111815D01*
X0210000Y0111875D01*
X0210000Y0114375D01*
X0210500Y0114875D01*
X0210500Y0140875D01*
X0210000Y0141375D01*
X0210000Y0143875D01*
X0210002Y0143935D01*
X0210007Y0143996D01*
X0210016Y0144055D01*
X0210029Y0144114D01*
X0210045Y0144173D01*
X0210065Y0144230D01*
X0210088Y0144285D01*
X0210115Y0144340D01*
X0210144Y0144392D01*
X0210177Y0144443D01*
X0210213Y0144492D01*
X0210251Y0144538D01*
X0210293Y0144582D01*
X0210337Y0144624D01*
X0210383Y0144662D01*
X0210432Y0144698D01*
X0210483Y0144731D01*
X0210535Y0144760D01*
X0210590Y0144787D01*
X0210645Y0144810D01*
X0210702Y0144830D01*
X0210761Y0144846D01*
X0210820Y0144859D01*
X0210879Y0144868D01*
X0210940Y0144873D01*
X0211000Y0144875D01*
X0221000Y0144875D02*
X0221060Y0144873D01*
X0221121Y0144868D01*
X0221180Y0144859D01*
X0221239Y0144846D01*
X0221298Y0144830D01*
X0221355Y0144810D01*
X0221410Y0144787D01*
X0221465Y0144760D01*
X0221517Y0144731D01*
X0221568Y0144698D01*
X0221617Y0144662D01*
X0221663Y0144624D01*
X0221707Y0144582D01*
X0221749Y0144538D01*
X0221787Y0144492D01*
X0221823Y0144443D01*
X0221856Y0144392D01*
X0221885Y0144340D01*
X0221912Y0144285D01*
X0221935Y0144230D01*
X0221955Y0144173D01*
X0221971Y0144114D01*
X0221984Y0144055D01*
X0221993Y0143996D01*
X0221998Y0143935D01*
X0222000Y0143875D01*
X0198000Y0141875D02*
X0198000Y0128875D01*
X0197998Y0128788D01*
X0197992Y0128701D01*
X0197983Y0128614D01*
X0197970Y0128528D01*
X0197953Y0128442D01*
X0197932Y0128357D01*
X0197907Y0128274D01*
X0197879Y0128191D01*
X0197848Y0128110D01*
X0197813Y0128030D01*
X0197774Y0127952D01*
X0197732Y0127875D01*
X0197687Y0127800D01*
X0197638Y0127728D01*
X0197587Y0127657D01*
X0197532Y0127589D01*
X0197475Y0127524D01*
X0197414Y0127461D01*
X0197351Y0127400D01*
X0197286Y0127343D01*
X0197218Y0127288D01*
X0197147Y0127237D01*
X0197075Y0127188D01*
X0197000Y0127143D01*
X0196923Y0127101D01*
X0196845Y0127062D01*
X0196765Y0127027D01*
X0196684Y0126996D01*
X0196601Y0126968D01*
X0196518Y0126943D01*
X0196433Y0126922D01*
X0196347Y0126905D01*
X0196261Y0126892D01*
X0196174Y0126883D01*
X0196087Y0126877D01*
X0196000Y0126875D01*
X0191000Y0126875D01*
X0190913Y0126877D01*
X0190826Y0126883D01*
X0190739Y0126892D01*
X0190653Y0126905D01*
X0190567Y0126922D01*
X0190482Y0126943D01*
X0190399Y0126968D01*
X0190316Y0126996D01*
X0190235Y0127027D01*
X0190155Y0127062D01*
X0190077Y0127101D01*
X0190000Y0127143D01*
X0189925Y0127188D01*
X0189853Y0127237D01*
X0189782Y0127288D01*
X0189714Y0127343D01*
X0189649Y0127400D01*
X0189586Y0127461D01*
X0189525Y0127524D01*
X0189468Y0127589D01*
X0189413Y0127657D01*
X0189362Y0127728D01*
X0189313Y0127800D01*
X0189268Y0127875D01*
X0189226Y0127952D01*
X0189187Y0128030D01*
X0189152Y0128110D01*
X0189121Y0128191D01*
X0189093Y0128274D01*
X0189068Y0128357D01*
X0189047Y0128442D01*
X0189030Y0128528D01*
X0189017Y0128614D01*
X0189008Y0128701D01*
X0189002Y0128788D01*
X0189000Y0128875D01*
X0189000Y0141875D01*
X0189002Y0141962D01*
X0189008Y0142049D01*
X0189017Y0142136D01*
X0189030Y0142222D01*
X0189047Y0142308D01*
X0189068Y0142393D01*
X0189093Y0142476D01*
X0189121Y0142559D01*
X0189152Y0142640D01*
X0189187Y0142720D01*
X0189226Y0142798D01*
X0189268Y0142875D01*
X0189313Y0142950D01*
X0189362Y0143022D01*
X0189413Y0143093D01*
X0189468Y0143161D01*
X0189525Y0143226D01*
X0189586Y0143289D01*
X0189649Y0143350D01*
X0189714Y0143407D01*
X0189782Y0143462D01*
X0189853Y0143513D01*
X0189925Y0143562D01*
X0190000Y0143607D01*
X0190077Y0143649D01*
X0190155Y0143688D01*
X0190235Y0143723D01*
X0190316Y0143754D01*
X0190399Y0143782D01*
X0190482Y0143807D01*
X0190567Y0143828D01*
X0190653Y0143845D01*
X0190739Y0143858D01*
X0190826Y0143867D01*
X0190913Y0143873D01*
X0191000Y0143875D01*
X0196000Y0143875D01*
X0196087Y0143873D01*
X0196174Y0143867D01*
X0196261Y0143858D01*
X0196347Y0143845D01*
X0196433Y0143828D01*
X0196518Y0143807D01*
X0196601Y0143782D01*
X0196684Y0143754D01*
X0196765Y0143723D01*
X0196845Y0143688D01*
X0196923Y0143649D01*
X0197000Y0143607D01*
X0197075Y0143562D01*
X0197147Y0143513D01*
X0197218Y0143462D01*
X0197286Y0143407D01*
X0197351Y0143350D01*
X0197414Y0143289D01*
X0197475Y0143226D01*
X0197532Y0143161D01*
X0197587Y0143093D01*
X0197638Y0143022D01*
X0197687Y0142950D01*
X0197732Y0142875D01*
X0197774Y0142798D01*
X0197813Y0142720D01*
X0197848Y0142640D01*
X0197879Y0142559D01*
X0197907Y0142476D01*
X0197932Y0142393D01*
X0197953Y0142308D01*
X0197970Y0142222D01*
X0197983Y0142136D01*
X0197992Y0142049D01*
X0197998Y0141962D01*
X0198000Y0141875D01*
X0170500Y0141875D02*
X0170500Y0128875D01*
X0170498Y0128788D01*
X0170492Y0128701D01*
X0170483Y0128614D01*
X0170470Y0128528D01*
X0170453Y0128442D01*
X0170432Y0128357D01*
X0170407Y0128274D01*
X0170379Y0128191D01*
X0170348Y0128110D01*
X0170313Y0128030D01*
X0170274Y0127952D01*
X0170232Y0127875D01*
X0170187Y0127800D01*
X0170138Y0127728D01*
X0170087Y0127657D01*
X0170032Y0127589D01*
X0169975Y0127524D01*
X0169914Y0127461D01*
X0169851Y0127400D01*
X0169786Y0127343D01*
X0169718Y0127288D01*
X0169647Y0127237D01*
X0169575Y0127188D01*
X0169500Y0127143D01*
X0169423Y0127101D01*
X0169345Y0127062D01*
X0169265Y0127027D01*
X0169184Y0126996D01*
X0169101Y0126968D01*
X0169018Y0126943D01*
X0168933Y0126922D01*
X0168847Y0126905D01*
X0168761Y0126892D01*
X0168674Y0126883D01*
X0168587Y0126877D01*
X0168500Y0126875D01*
X0163500Y0126875D01*
X0163413Y0126877D01*
X0163326Y0126883D01*
X0163239Y0126892D01*
X0163153Y0126905D01*
X0163067Y0126922D01*
X0162982Y0126943D01*
X0162899Y0126968D01*
X0162816Y0126996D01*
X0162735Y0127027D01*
X0162655Y0127062D01*
X0162577Y0127101D01*
X0162500Y0127143D01*
X0162425Y0127188D01*
X0162353Y0127237D01*
X0162282Y0127288D01*
X0162214Y0127343D01*
X0162149Y0127400D01*
X0162086Y0127461D01*
X0162025Y0127524D01*
X0161968Y0127589D01*
X0161913Y0127657D01*
X0161862Y0127728D01*
X0161813Y0127800D01*
X0161768Y0127875D01*
X0161726Y0127952D01*
X0161687Y0128030D01*
X0161652Y0128110D01*
X0161621Y0128191D01*
X0161593Y0128274D01*
X0161568Y0128357D01*
X0161547Y0128442D01*
X0161530Y0128528D01*
X0161517Y0128614D01*
X0161508Y0128701D01*
X0161502Y0128788D01*
X0161500Y0128875D01*
X0161500Y0141875D01*
X0161502Y0141962D01*
X0161508Y0142049D01*
X0161517Y0142136D01*
X0161530Y0142222D01*
X0161547Y0142308D01*
X0161568Y0142393D01*
X0161593Y0142476D01*
X0161621Y0142559D01*
X0161652Y0142640D01*
X0161687Y0142720D01*
X0161726Y0142798D01*
X0161768Y0142875D01*
X0161813Y0142950D01*
X0161862Y0143022D01*
X0161913Y0143093D01*
X0161968Y0143161D01*
X0162025Y0143226D01*
X0162086Y0143289D01*
X0162149Y0143350D01*
X0162214Y0143407D01*
X0162282Y0143462D01*
X0162353Y0143513D01*
X0162425Y0143562D01*
X0162500Y0143607D01*
X0162577Y0143649D01*
X0162655Y0143688D01*
X0162735Y0143723D01*
X0162816Y0143754D01*
X0162899Y0143782D01*
X0162982Y0143807D01*
X0163067Y0143828D01*
X0163153Y0143845D01*
X0163239Y0143858D01*
X0163326Y0143867D01*
X0163413Y0143873D01*
X0163500Y0143875D01*
X0168500Y0143875D01*
X0168587Y0143873D01*
X0168674Y0143867D01*
X0168761Y0143858D01*
X0168847Y0143845D01*
X0168933Y0143828D01*
X0169018Y0143807D01*
X0169101Y0143782D01*
X0169184Y0143754D01*
X0169265Y0143723D01*
X0169345Y0143688D01*
X0169423Y0143649D01*
X0169500Y0143607D01*
X0169575Y0143562D01*
X0169647Y0143513D01*
X0169718Y0143462D01*
X0169786Y0143407D01*
X0169851Y0143350D01*
X0169914Y0143289D01*
X0169975Y0143226D01*
X0170032Y0143161D01*
X0170087Y0143093D01*
X0170138Y0143022D01*
X0170187Y0142950D01*
X0170232Y0142875D01*
X0170274Y0142798D01*
X0170313Y0142720D01*
X0170348Y0142640D01*
X0170379Y0142559D01*
X0170407Y0142476D01*
X0170432Y0142393D01*
X0170453Y0142308D01*
X0170470Y0142222D01*
X0170483Y0142136D01*
X0170492Y0142049D01*
X0170498Y0141962D01*
X0170500Y0141875D01*
X0145500Y0141875D02*
X0145500Y0128875D01*
X0145498Y0128788D01*
X0145492Y0128701D01*
X0145483Y0128614D01*
X0145470Y0128528D01*
X0145453Y0128442D01*
X0145432Y0128357D01*
X0145407Y0128274D01*
X0145379Y0128191D01*
X0145348Y0128110D01*
X0145313Y0128030D01*
X0145274Y0127952D01*
X0145232Y0127875D01*
X0145187Y0127800D01*
X0145138Y0127728D01*
X0145087Y0127657D01*
X0145032Y0127589D01*
X0144975Y0127524D01*
X0144914Y0127461D01*
X0144851Y0127400D01*
X0144786Y0127343D01*
X0144718Y0127288D01*
X0144647Y0127237D01*
X0144575Y0127188D01*
X0144500Y0127143D01*
X0144423Y0127101D01*
X0144345Y0127062D01*
X0144265Y0127027D01*
X0144184Y0126996D01*
X0144101Y0126968D01*
X0144018Y0126943D01*
X0143933Y0126922D01*
X0143847Y0126905D01*
X0143761Y0126892D01*
X0143674Y0126883D01*
X0143587Y0126877D01*
X0143500Y0126875D01*
X0138500Y0126875D01*
X0138413Y0126877D01*
X0138326Y0126883D01*
X0138239Y0126892D01*
X0138153Y0126905D01*
X0138067Y0126922D01*
X0137982Y0126943D01*
X0137899Y0126968D01*
X0137816Y0126996D01*
X0137735Y0127027D01*
X0137655Y0127062D01*
X0137577Y0127101D01*
X0137500Y0127143D01*
X0137425Y0127188D01*
X0137353Y0127237D01*
X0137282Y0127288D01*
X0137214Y0127343D01*
X0137149Y0127400D01*
X0137086Y0127461D01*
X0137025Y0127524D01*
X0136968Y0127589D01*
X0136913Y0127657D01*
X0136862Y0127728D01*
X0136813Y0127800D01*
X0136768Y0127875D01*
X0136726Y0127952D01*
X0136687Y0128030D01*
X0136652Y0128110D01*
X0136621Y0128191D01*
X0136593Y0128274D01*
X0136568Y0128357D01*
X0136547Y0128442D01*
X0136530Y0128528D01*
X0136517Y0128614D01*
X0136508Y0128701D01*
X0136502Y0128788D01*
X0136500Y0128875D01*
X0136500Y0141875D01*
X0136502Y0141962D01*
X0136508Y0142049D01*
X0136517Y0142136D01*
X0136530Y0142222D01*
X0136547Y0142308D01*
X0136568Y0142393D01*
X0136593Y0142476D01*
X0136621Y0142559D01*
X0136652Y0142640D01*
X0136687Y0142720D01*
X0136726Y0142798D01*
X0136768Y0142875D01*
X0136813Y0142950D01*
X0136862Y0143022D01*
X0136913Y0143093D01*
X0136968Y0143161D01*
X0137025Y0143226D01*
X0137086Y0143289D01*
X0137149Y0143350D01*
X0137214Y0143407D01*
X0137282Y0143462D01*
X0137353Y0143513D01*
X0137425Y0143562D01*
X0137500Y0143607D01*
X0137577Y0143649D01*
X0137655Y0143688D01*
X0137735Y0143723D01*
X0137816Y0143754D01*
X0137899Y0143782D01*
X0137982Y0143807D01*
X0138067Y0143828D01*
X0138153Y0143845D01*
X0138239Y0143858D01*
X0138326Y0143867D01*
X0138413Y0143873D01*
X0138500Y0143875D01*
X0143500Y0143875D01*
X0143587Y0143873D01*
X0143674Y0143867D01*
X0143761Y0143858D01*
X0143847Y0143845D01*
X0143933Y0143828D01*
X0144018Y0143807D01*
X0144101Y0143782D01*
X0144184Y0143754D01*
X0144265Y0143723D01*
X0144345Y0143688D01*
X0144423Y0143649D01*
X0144500Y0143607D01*
X0144575Y0143562D01*
X0144647Y0143513D01*
X0144718Y0143462D01*
X0144786Y0143407D01*
X0144851Y0143350D01*
X0144914Y0143289D01*
X0144975Y0143226D01*
X0145032Y0143161D01*
X0145087Y0143093D01*
X0145138Y0143022D01*
X0145187Y0142950D01*
X0145232Y0142875D01*
X0145274Y0142798D01*
X0145313Y0142720D01*
X0145348Y0142640D01*
X0145379Y0142559D01*
X0145407Y0142476D01*
X0145432Y0142393D01*
X0145453Y0142308D01*
X0145470Y0142222D01*
X0145483Y0142136D01*
X0145492Y0142049D01*
X0145498Y0141962D01*
X0145500Y0141875D01*
X0144500Y0113875D02*
X0147000Y0113875D01*
X0147060Y0113873D01*
X0147121Y0113868D01*
X0147180Y0113859D01*
X0147239Y0113846D01*
X0147298Y0113830D01*
X0147355Y0113810D01*
X0147410Y0113787D01*
X0147465Y0113760D01*
X0147517Y0113731D01*
X0147568Y0113698D01*
X0147617Y0113662D01*
X0147663Y0113624D01*
X0147707Y0113582D01*
X0147749Y0113538D01*
X0147787Y0113492D01*
X0147823Y0113443D01*
X0147856Y0113392D01*
X0147885Y0113340D01*
X0147912Y0113285D01*
X0147935Y0113230D01*
X0147955Y0113173D01*
X0147971Y0113114D01*
X0147984Y0113055D01*
X0147993Y0112996D01*
X0147998Y0112935D01*
X0148000Y0112875D01*
X0144500Y0113875D02*
X0144000Y0113375D01*
X0118000Y0113375D01*
X0117500Y0113875D01*
X0115000Y0113875D01*
X0114940Y0113873D01*
X0114879Y0113868D01*
X0114820Y0113859D01*
X0114761Y0113846D01*
X0114702Y0113830D01*
X0114645Y0113810D01*
X0114590Y0113787D01*
X0114535Y0113760D01*
X0114483Y0113731D01*
X0114432Y0113698D01*
X0114383Y0113662D01*
X0114337Y0113624D01*
X0114293Y0113582D01*
X0114251Y0113538D01*
X0114213Y0113492D01*
X0114177Y0113443D01*
X0114144Y0113392D01*
X0114115Y0113340D01*
X0114088Y0113285D01*
X0114065Y0113230D01*
X0114045Y0113173D01*
X0114029Y0113114D01*
X0114016Y0113055D01*
X0114007Y0112996D01*
X0114002Y0112935D01*
X0114000Y0112875D01*
X0114000Y0102875D02*
X0114002Y0102815D01*
X0114007Y0102754D01*
X0114016Y0102695D01*
X0114029Y0102636D01*
X0114045Y0102577D01*
X0114065Y0102520D01*
X0114088Y0102465D01*
X0114115Y0102410D01*
X0114144Y0102358D01*
X0114177Y0102307D01*
X0114213Y0102258D01*
X0114251Y0102212D01*
X0114293Y0102168D01*
X0114337Y0102126D01*
X0114383Y0102088D01*
X0114432Y0102052D01*
X0114483Y0102019D01*
X0114535Y0101990D01*
X0114590Y0101963D01*
X0114645Y0101940D01*
X0114702Y0101920D01*
X0114761Y0101904D01*
X0114820Y0101891D01*
X0114879Y0101882D01*
X0114940Y0101877D01*
X0115000Y0101875D01*
X0117500Y0101875D01*
X0118000Y0102375D01*
X0144000Y0102375D01*
X0144500Y0101875D01*
X0147000Y0101875D01*
X0147060Y0101877D01*
X0147121Y0101882D01*
X0147180Y0101891D01*
X0147239Y0101904D01*
X0147298Y0101920D01*
X0147355Y0101940D01*
X0147410Y0101963D01*
X0147465Y0101990D01*
X0147517Y0102019D01*
X0147568Y0102052D01*
X0147617Y0102088D01*
X0147663Y0102126D01*
X0147707Y0102168D01*
X0147749Y0102212D01*
X0147787Y0102258D01*
X0147823Y0102307D01*
X0147856Y0102358D01*
X0147885Y0102410D01*
X0147912Y0102465D01*
X0147935Y0102520D01*
X0147955Y0102577D01*
X0147971Y0102636D01*
X0147984Y0102695D01*
X0147993Y0102754D01*
X0147998Y0102815D01*
X0148000Y0102875D01*
X0147000Y0098875D02*
X0144500Y0098875D01*
X0144000Y0098375D01*
X0118000Y0098375D01*
X0117500Y0098875D01*
X0115000Y0098875D01*
X0114940Y0098873D01*
X0114879Y0098868D01*
X0114820Y0098859D01*
X0114761Y0098846D01*
X0114702Y0098830D01*
X0114645Y0098810D01*
X0114590Y0098787D01*
X0114535Y0098760D01*
X0114483Y0098731D01*
X0114432Y0098698D01*
X0114383Y0098662D01*
X0114337Y0098624D01*
X0114293Y0098582D01*
X0114251Y0098538D01*
X0114213Y0098492D01*
X0114177Y0098443D01*
X0114144Y0098392D01*
X0114115Y0098340D01*
X0114088Y0098285D01*
X0114065Y0098230D01*
X0114045Y0098173D01*
X0114029Y0098114D01*
X0114016Y0098055D01*
X0114007Y0097996D01*
X0114002Y0097935D01*
X0114000Y0097875D01*
X0114000Y0087875D02*
X0114002Y0087815D01*
X0114007Y0087754D01*
X0114016Y0087695D01*
X0114029Y0087636D01*
X0114045Y0087577D01*
X0114065Y0087520D01*
X0114088Y0087465D01*
X0114115Y0087410D01*
X0114144Y0087358D01*
X0114177Y0087307D01*
X0114213Y0087258D01*
X0114251Y0087212D01*
X0114293Y0087168D01*
X0114337Y0087126D01*
X0114383Y0087088D01*
X0114432Y0087052D01*
X0114483Y0087019D01*
X0114535Y0086990D01*
X0114590Y0086963D01*
X0114645Y0086940D01*
X0114702Y0086920D01*
X0114761Y0086904D01*
X0114820Y0086891D01*
X0114879Y0086882D01*
X0114940Y0086877D01*
X0115000Y0086875D01*
X0117500Y0086875D01*
X0118000Y0087375D01*
X0144000Y0087375D01*
X0144500Y0086875D01*
X0147000Y0086875D01*
X0147060Y0086877D01*
X0147121Y0086882D01*
X0147180Y0086891D01*
X0147239Y0086904D01*
X0147298Y0086920D01*
X0147355Y0086940D01*
X0147410Y0086963D01*
X0147465Y0086990D01*
X0147517Y0087019D01*
X0147568Y0087052D01*
X0147617Y0087088D01*
X0147663Y0087126D01*
X0147707Y0087168D01*
X0147749Y0087212D01*
X0147787Y0087258D01*
X0147823Y0087307D01*
X0147856Y0087358D01*
X0147885Y0087410D01*
X0147912Y0087465D01*
X0147935Y0087520D01*
X0147955Y0087577D01*
X0147971Y0087636D01*
X0147984Y0087695D01*
X0147993Y0087754D01*
X0147998Y0087815D01*
X0148000Y0087875D01*
X0147000Y0083875D02*
X0144500Y0083875D01*
X0144000Y0083375D01*
X0118000Y0083375D01*
X0117500Y0083875D01*
X0115000Y0083875D01*
X0114940Y0083873D01*
X0114879Y0083868D01*
X0114820Y0083859D01*
X0114761Y0083846D01*
X0114702Y0083830D01*
X0114645Y0083810D01*
X0114590Y0083787D01*
X0114535Y0083760D01*
X0114483Y0083731D01*
X0114432Y0083698D01*
X0114383Y0083662D01*
X0114337Y0083624D01*
X0114293Y0083582D01*
X0114251Y0083538D01*
X0114213Y0083492D01*
X0114177Y0083443D01*
X0114144Y0083392D01*
X0114115Y0083340D01*
X0114088Y0083285D01*
X0114065Y0083230D01*
X0114045Y0083173D01*
X0114029Y0083114D01*
X0114016Y0083055D01*
X0114007Y0082996D01*
X0114002Y0082935D01*
X0114000Y0082875D01*
X0114000Y0072875D02*
X0114002Y0072815D01*
X0114007Y0072754D01*
X0114016Y0072695D01*
X0114029Y0072636D01*
X0114045Y0072577D01*
X0114065Y0072520D01*
X0114088Y0072465D01*
X0114115Y0072410D01*
X0114144Y0072358D01*
X0114177Y0072307D01*
X0114213Y0072258D01*
X0114251Y0072212D01*
X0114293Y0072168D01*
X0114337Y0072126D01*
X0114383Y0072088D01*
X0114432Y0072052D01*
X0114483Y0072019D01*
X0114535Y0071990D01*
X0114590Y0071963D01*
X0114645Y0071940D01*
X0114702Y0071920D01*
X0114761Y0071904D01*
X0114820Y0071891D01*
X0114879Y0071882D01*
X0114940Y0071877D01*
X0115000Y0071875D01*
X0117500Y0071875D01*
X0118000Y0072375D01*
X0144000Y0072375D01*
X0144500Y0071875D01*
X0147000Y0071875D01*
X0147060Y0071877D01*
X0147121Y0071882D01*
X0147180Y0071891D01*
X0147239Y0071904D01*
X0147298Y0071920D01*
X0147355Y0071940D01*
X0147410Y0071963D01*
X0147465Y0071990D01*
X0147517Y0072019D01*
X0147568Y0072052D01*
X0147617Y0072088D01*
X0147663Y0072126D01*
X0147707Y0072168D01*
X0147749Y0072212D01*
X0147787Y0072258D01*
X0147823Y0072307D01*
X0147856Y0072358D01*
X0147885Y0072410D01*
X0147912Y0072465D01*
X0147935Y0072520D01*
X0147955Y0072577D01*
X0147971Y0072636D01*
X0147984Y0072695D01*
X0147993Y0072754D01*
X0147998Y0072815D01*
X0148000Y0072875D01*
X0147000Y0068875D02*
X0144500Y0068875D01*
X0144000Y0068375D01*
X0118000Y0068375D01*
X0117500Y0068875D01*
X0115000Y0068875D01*
X0114940Y0068873D01*
X0114879Y0068868D01*
X0114820Y0068859D01*
X0114761Y0068846D01*
X0114702Y0068830D01*
X0114645Y0068810D01*
X0114590Y0068787D01*
X0114535Y0068760D01*
X0114483Y0068731D01*
X0114432Y0068698D01*
X0114383Y0068662D01*
X0114337Y0068624D01*
X0114293Y0068582D01*
X0114251Y0068538D01*
X0114213Y0068492D01*
X0114177Y0068443D01*
X0114144Y0068392D01*
X0114115Y0068340D01*
X0114088Y0068285D01*
X0114065Y0068230D01*
X0114045Y0068173D01*
X0114029Y0068114D01*
X0114016Y0068055D01*
X0114007Y0067996D01*
X0114002Y0067935D01*
X0114000Y0067875D01*
X0114000Y0057875D02*
X0114002Y0057815D01*
X0114007Y0057754D01*
X0114016Y0057695D01*
X0114029Y0057636D01*
X0114045Y0057577D01*
X0114065Y0057520D01*
X0114088Y0057465D01*
X0114115Y0057410D01*
X0114144Y0057358D01*
X0114177Y0057307D01*
X0114213Y0057258D01*
X0114251Y0057212D01*
X0114293Y0057168D01*
X0114337Y0057126D01*
X0114383Y0057088D01*
X0114432Y0057052D01*
X0114483Y0057019D01*
X0114535Y0056990D01*
X0114590Y0056963D01*
X0114645Y0056940D01*
X0114702Y0056920D01*
X0114761Y0056904D01*
X0114820Y0056891D01*
X0114879Y0056882D01*
X0114940Y0056877D01*
X0115000Y0056875D01*
X0117500Y0056875D01*
X0118000Y0057375D01*
X0144000Y0057375D01*
X0144500Y0056875D01*
X0147000Y0056875D01*
X0147060Y0056877D01*
X0147121Y0056882D01*
X0147180Y0056891D01*
X0147239Y0056904D01*
X0147298Y0056920D01*
X0147355Y0056940D01*
X0147410Y0056963D01*
X0147465Y0056990D01*
X0147517Y0057019D01*
X0147568Y0057052D01*
X0147617Y0057088D01*
X0147663Y0057126D01*
X0147707Y0057168D01*
X0147749Y0057212D01*
X0147787Y0057258D01*
X0147823Y0057307D01*
X0147856Y0057358D01*
X0147885Y0057410D01*
X0147912Y0057465D01*
X0147935Y0057520D01*
X0147955Y0057577D01*
X0147971Y0057636D01*
X0147984Y0057695D01*
X0147993Y0057754D01*
X0147998Y0057815D01*
X0148000Y0057875D01*
X0138500Y0051375D02*
X0133500Y0051375D01*
X0133413Y0051373D01*
X0133326Y0051367D01*
X0133239Y0051358D01*
X0133153Y0051345D01*
X0133067Y0051328D01*
X0132982Y0051307D01*
X0132899Y0051282D01*
X0132816Y0051254D01*
X0132735Y0051223D01*
X0132655Y0051188D01*
X0132577Y0051149D01*
X0132500Y0051107D01*
X0132425Y0051062D01*
X0132353Y0051013D01*
X0132282Y0050962D01*
X0132214Y0050907D01*
X0132149Y0050850D01*
X0132086Y0050789D01*
X0132025Y0050726D01*
X0131968Y0050661D01*
X0131913Y0050593D01*
X0131862Y0050522D01*
X0131813Y0050450D01*
X0131768Y0050375D01*
X0131726Y0050298D01*
X0131687Y0050220D01*
X0131652Y0050140D01*
X0131621Y0050059D01*
X0131593Y0049976D01*
X0131568Y0049893D01*
X0131547Y0049808D01*
X0131530Y0049722D01*
X0131517Y0049636D01*
X0131508Y0049549D01*
X0131502Y0049462D01*
X0131500Y0049375D01*
X0131500Y0036375D01*
X0131502Y0036288D01*
X0131508Y0036201D01*
X0131517Y0036114D01*
X0131530Y0036028D01*
X0131547Y0035942D01*
X0131568Y0035857D01*
X0131593Y0035774D01*
X0131621Y0035691D01*
X0131652Y0035610D01*
X0131687Y0035530D01*
X0131726Y0035452D01*
X0131768Y0035375D01*
X0131813Y0035300D01*
X0131862Y0035228D01*
X0131913Y0035157D01*
X0131968Y0035089D01*
X0132025Y0035024D01*
X0132086Y0034961D01*
X0132149Y0034900D01*
X0132214Y0034843D01*
X0132282Y0034788D01*
X0132353Y0034737D01*
X0132425Y0034688D01*
X0132500Y0034643D01*
X0132577Y0034601D01*
X0132655Y0034562D01*
X0132735Y0034527D01*
X0132816Y0034496D01*
X0132899Y0034468D01*
X0132982Y0034443D01*
X0133067Y0034422D01*
X0133153Y0034405D01*
X0133239Y0034392D01*
X0133326Y0034383D01*
X0133413Y0034377D01*
X0133500Y0034375D01*
X0138500Y0034375D01*
X0138587Y0034377D01*
X0138674Y0034383D01*
X0138761Y0034392D01*
X0138847Y0034405D01*
X0138933Y0034422D01*
X0139018Y0034443D01*
X0139101Y0034468D01*
X0139184Y0034496D01*
X0139265Y0034527D01*
X0139345Y0034562D01*
X0139423Y0034601D01*
X0139500Y0034643D01*
X0139575Y0034688D01*
X0139647Y0034737D01*
X0139718Y0034788D01*
X0139786Y0034843D01*
X0139851Y0034900D01*
X0139914Y0034961D01*
X0139975Y0035024D01*
X0140032Y0035089D01*
X0140087Y0035157D01*
X0140138Y0035228D01*
X0140187Y0035300D01*
X0140232Y0035375D01*
X0140274Y0035452D01*
X0140313Y0035530D01*
X0140348Y0035610D01*
X0140379Y0035691D01*
X0140407Y0035774D01*
X0140432Y0035857D01*
X0140453Y0035942D01*
X0140470Y0036028D01*
X0140483Y0036114D01*
X0140492Y0036201D01*
X0140498Y0036288D01*
X0140500Y0036375D01*
X0140500Y0049375D01*
X0140498Y0049462D01*
X0140492Y0049549D01*
X0140483Y0049636D01*
X0140470Y0049722D01*
X0140453Y0049808D01*
X0140432Y0049893D01*
X0140407Y0049976D01*
X0140379Y0050059D01*
X0140348Y0050140D01*
X0140313Y0050220D01*
X0140274Y0050298D01*
X0140232Y0050375D01*
X0140187Y0050450D01*
X0140138Y0050522D01*
X0140087Y0050593D01*
X0140032Y0050661D01*
X0139975Y0050726D01*
X0139914Y0050789D01*
X0139851Y0050850D01*
X0139786Y0050907D01*
X0139718Y0050962D01*
X0139647Y0051013D01*
X0139575Y0051062D01*
X0139500Y0051107D01*
X0139423Y0051149D01*
X0139345Y0051188D01*
X0139265Y0051223D01*
X0139184Y0051254D01*
X0139101Y0051282D01*
X0139018Y0051307D01*
X0138933Y0051328D01*
X0138847Y0051345D01*
X0138761Y0051358D01*
X0138674Y0051367D01*
X0138587Y0051373D01*
X0138500Y0051375D01*
X0118000Y0049375D02*
X0118000Y0036375D01*
X0117998Y0036288D01*
X0117992Y0036201D01*
X0117983Y0036114D01*
X0117970Y0036028D01*
X0117953Y0035942D01*
X0117932Y0035857D01*
X0117907Y0035774D01*
X0117879Y0035691D01*
X0117848Y0035610D01*
X0117813Y0035530D01*
X0117774Y0035452D01*
X0117732Y0035375D01*
X0117687Y0035300D01*
X0117638Y0035228D01*
X0117587Y0035157D01*
X0117532Y0035089D01*
X0117475Y0035024D01*
X0117414Y0034961D01*
X0117351Y0034900D01*
X0117286Y0034843D01*
X0117218Y0034788D01*
X0117147Y0034737D01*
X0117075Y0034688D01*
X0117000Y0034643D01*
X0116923Y0034601D01*
X0116845Y0034562D01*
X0116765Y0034527D01*
X0116684Y0034496D01*
X0116601Y0034468D01*
X0116518Y0034443D01*
X0116433Y0034422D01*
X0116347Y0034405D01*
X0116261Y0034392D01*
X0116174Y0034383D01*
X0116087Y0034377D01*
X0116000Y0034375D01*
X0111000Y0034375D01*
X0110913Y0034377D01*
X0110826Y0034383D01*
X0110739Y0034392D01*
X0110653Y0034405D01*
X0110567Y0034422D01*
X0110482Y0034443D01*
X0110399Y0034468D01*
X0110316Y0034496D01*
X0110235Y0034527D01*
X0110155Y0034562D01*
X0110077Y0034601D01*
X0110000Y0034643D01*
X0109925Y0034688D01*
X0109853Y0034737D01*
X0109782Y0034788D01*
X0109714Y0034843D01*
X0109649Y0034900D01*
X0109586Y0034961D01*
X0109525Y0035024D01*
X0109468Y0035089D01*
X0109413Y0035157D01*
X0109362Y0035228D01*
X0109313Y0035300D01*
X0109268Y0035375D01*
X0109226Y0035452D01*
X0109187Y0035530D01*
X0109152Y0035610D01*
X0109121Y0035691D01*
X0109093Y0035774D01*
X0109068Y0035857D01*
X0109047Y0035942D01*
X0109030Y0036028D01*
X0109017Y0036114D01*
X0109008Y0036201D01*
X0109002Y0036288D01*
X0109000Y0036375D01*
X0109000Y0049375D01*
X0109002Y0049462D01*
X0109008Y0049549D01*
X0109017Y0049636D01*
X0109030Y0049722D01*
X0109047Y0049808D01*
X0109068Y0049893D01*
X0109093Y0049976D01*
X0109121Y0050059D01*
X0109152Y0050140D01*
X0109187Y0050220D01*
X0109226Y0050298D01*
X0109268Y0050375D01*
X0109313Y0050450D01*
X0109362Y0050522D01*
X0109413Y0050593D01*
X0109468Y0050661D01*
X0109525Y0050726D01*
X0109586Y0050789D01*
X0109649Y0050850D01*
X0109714Y0050907D01*
X0109782Y0050962D01*
X0109853Y0051013D01*
X0109925Y0051062D01*
X0110000Y0051107D01*
X0110077Y0051149D01*
X0110155Y0051188D01*
X0110235Y0051223D01*
X0110316Y0051254D01*
X0110399Y0051282D01*
X0110482Y0051307D01*
X0110567Y0051328D01*
X0110653Y0051345D01*
X0110739Y0051358D01*
X0110826Y0051367D01*
X0110913Y0051373D01*
X0111000Y0051375D01*
X0116000Y0051375D01*
X0116087Y0051373D01*
X0116174Y0051367D01*
X0116261Y0051358D01*
X0116347Y0051345D01*
X0116433Y0051328D01*
X0116518Y0051307D01*
X0116601Y0051282D01*
X0116684Y0051254D01*
X0116765Y0051223D01*
X0116845Y0051188D01*
X0116923Y0051149D01*
X0117000Y0051107D01*
X0117075Y0051062D01*
X0117147Y0051013D01*
X0117218Y0050962D01*
X0117286Y0050907D01*
X0117351Y0050850D01*
X0117414Y0050789D01*
X0117475Y0050726D01*
X0117532Y0050661D01*
X0117587Y0050593D01*
X0117638Y0050522D01*
X0117687Y0050450D01*
X0117732Y0050375D01*
X0117774Y0050298D01*
X0117813Y0050220D01*
X0117848Y0050140D01*
X0117879Y0050059D01*
X0117907Y0049976D01*
X0117932Y0049893D01*
X0117953Y0049808D01*
X0117970Y0049722D01*
X0117983Y0049636D01*
X0117992Y0049549D01*
X0117998Y0049462D01*
X0118000Y0049375D01*
X0095500Y0049375D02*
X0095500Y0036375D01*
X0095498Y0036288D01*
X0095492Y0036201D01*
X0095483Y0036114D01*
X0095470Y0036028D01*
X0095453Y0035942D01*
X0095432Y0035857D01*
X0095407Y0035774D01*
X0095379Y0035691D01*
X0095348Y0035610D01*
X0095313Y0035530D01*
X0095274Y0035452D01*
X0095232Y0035375D01*
X0095187Y0035300D01*
X0095138Y0035228D01*
X0095087Y0035157D01*
X0095032Y0035089D01*
X0094975Y0035024D01*
X0094914Y0034961D01*
X0094851Y0034900D01*
X0094786Y0034843D01*
X0094718Y0034788D01*
X0094647Y0034737D01*
X0094575Y0034688D01*
X0094500Y0034643D01*
X0094423Y0034601D01*
X0094345Y0034562D01*
X0094265Y0034527D01*
X0094184Y0034496D01*
X0094101Y0034468D01*
X0094018Y0034443D01*
X0093933Y0034422D01*
X0093847Y0034405D01*
X0093761Y0034392D01*
X0093674Y0034383D01*
X0093587Y0034377D01*
X0093500Y0034375D01*
X0088500Y0034375D01*
X0088413Y0034377D01*
X0088326Y0034383D01*
X0088239Y0034392D01*
X0088153Y0034405D01*
X0088067Y0034422D01*
X0087982Y0034443D01*
X0087899Y0034468D01*
X0087816Y0034496D01*
X0087735Y0034527D01*
X0087655Y0034562D01*
X0087577Y0034601D01*
X0087500Y0034643D01*
X0087425Y0034688D01*
X0087353Y0034737D01*
X0087282Y0034788D01*
X0087214Y0034843D01*
X0087149Y0034900D01*
X0087086Y0034961D01*
X0087025Y0035024D01*
X0086968Y0035089D01*
X0086913Y0035157D01*
X0086862Y0035228D01*
X0086813Y0035300D01*
X0086768Y0035375D01*
X0086726Y0035452D01*
X0086687Y0035530D01*
X0086652Y0035610D01*
X0086621Y0035691D01*
X0086593Y0035774D01*
X0086568Y0035857D01*
X0086547Y0035942D01*
X0086530Y0036028D01*
X0086517Y0036114D01*
X0086508Y0036201D01*
X0086502Y0036288D01*
X0086500Y0036375D01*
X0086500Y0049375D01*
X0086502Y0049462D01*
X0086508Y0049549D01*
X0086517Y0049636D01*
X0086530Y0049722D01*
X0086547Y0049808D01*
X0086568Y0049893D01*
X0086593Y0049976D01*
X0086621Y0050059D01*
X0086652Y0050140D01*
X0086687Y0050220D01*
X0086726Y0050298D01*
X0086768Y0050375D01*
X0086813Y0050450D01*
X0086862Y0050522D01*
X0086913Y0050593D01*
X0086968Y0050661D01*
X0087025Y0050726D01*
X0087086Y0050789D01*
X0087149Y0050850D01*
X0087214Y0050907D01*
X0087282Y0050962D01*
X0087353Y0051013D01*
X0087425Y0051062D01*
X0087500Y0051107D01*
X0087577Y0051149D01*
X0087655Y0051188D01*
X0087735Y0051223D01*
X0087816Y0051254D01*
X0087899Y0051282D01*
X0087982Y0051307D01*
X0088067Y0051328D01*
X0088153Y0051345D01*
X0088239Y0051358D01*
X0088326Y0051367D01*
X0088413Y0051373D01*
X0088500Y0051375D01*
X0093500Y0051375D01*
X0093587Y0051373D01*
X0093674Y0051367D01*
X0093761Y0051358D01*
X0093847Y0051345D01*
X0093933Y0051328D01*
X0094018Y0051307D01*
X0094101Y0051282D01*
X0094184Y0051254D01*
X0094265Y0051223D01*
X0094345Y0051188D01*
X0094423Y0051149D01*
X0094500Y0051107D01*
X0094575Y0051062D01*
X0094647Y0051013D01*
X0094718Y0050962D01*
X0094786Y0050907D01*
X0094851Y0050850D01*
X0094914Y0050789D01*
X0094975Y0050726D01*
X0095032Y0050661D01*
X0095087Y0050593D01*
X0095138Y0050522D01*
X0095187Y0050450D01*
X0095232Y0050375D01*
X0095274Y0050298D01*
X0095313Y0050220D01*
X0095348Y0050140D01*
X0095379Y0050059D01*
X0095407Y0049976D01*
X0095432Y0049893D01*
X0095453Y0049808D01*
X0095470Y0049722D01*
X0095483Y0049636D01*
X0095492Y0049549D01*
X0095498Y0049462D01*
X0095500Y0049375D01*
X0084500Y0056875D02*
X0082000Y0056875D01*
X0081500Y0057375D01*
X0055500Y0057375D01*
X0055000Y0056875D01*
X0052500Y0056875D01*
X0052440Y0056877D01*
X0052379Y0056882D01*
X0052320Y0056891D01*
X0052261Y0056904D01*
X0052202Y0056920D01*
X0052145Y0056940D01*
X0052090Y0056963D01*
X0052035Y0056990D01*
X0051983Y0057019D01*
X0051932Y0057052D01*
X0051883Y0057088D01*
X0051837Y0057126D01*
X0051793Y0057168D01*
X0051751Y0057212D01*
X0051713Y0057258D01*
X0051677Y0057307D01*
X0051644Y0057358D01*
X0051615Y0057410D01*
X0051588Y0057465D01*
X0051565Y0057520D01*
X0051545Y0057577D01*
X0051529Y0057636D01*
X0051516Y0057695D01*
X0051507Y0057754D01*
X0051502Y0057815D01*
X0051500Y0057875D01*
X0066000Y0051375D02*
X0071000Y0051375D01*
X0071087Y0051373D01*
X0071174Y0051367D01*
X0071261Y0051358D01*
X0071347Y0051345D01*
X0071433Y0051328D01*
X0071518Y0051307D01*
X0071601Y0051282D01*
X0071684Y0051254D01*
X0071765Y0051223D01*
X0071845Y0051188D01*
X0071923Y0051149D01*
X0072000Y0051107D01*
X0072075Y0051062D01*
X0072147Y0051013D01*
X0072218Y0050962D01*
X0072286Y0050907D01*
X0072351Y0050850D01*
X0072414Y0050789D01*
X0072475Y0050726D01*
X0072532Y0050661D01*
X0072587Y0050593D01*
X0072638Y0050522D01*
X0072687Y0050450D01*
X0072732Y0050375D01*
X0072774Y0050298D01*
X0072813Y0050220D01*
X0072848Y0050140D01*
X0072879Y0050059D01*
X0072907Y0049976D01*
X0072932Y0049893D01*
X0072953Y0049808D01*
X0072970Y0049722D01*
X0072983Y0049636D01*
X0072992Y0049549D01*
X0072998Y0049462D01*
X0073000Y0049375D01*
X0073000Y0036375D01*
X0072998Y0036288D01*
X0072992Y0036201D01*
X0072983Y0036114D01*
X0072970Y0036028D01*
X0072953Y0035942D01*
X0072932Y0035857D01*
X0072907Y0035774D01*
X0072879Y0035691D01*
X0072848Y0035610D01*
X0072813Y0035530D01*
X0072774Y0035452D01*
X0072732Y0035375D01*
X0072687Y0035300D01*
X0072638Y0035228D01*
X0072587Y0035157D01*
X0072532Y0035089D01*
X0072475Y0035024D01*
X0072414Y0034961D01*
X0072351Y0034900D01*
X0072286Y0034843D01*
X0072218Y0034788D01*
X0072147Y0034737D01*
X0072075Y0034688D01*
X0072000Y0034643D01*
X0071923Y0034601D01*
X0071845Y0034562D01*
X0071765Y0034527D01*
X0071684Y0034496D01*
X0071601Y0034468D01*
X0071518Y0034443D01*
X0071433Y0034422D01*
X0071347Y0034405D01*
X0071261Y0034392D01*
X0071174Y0034383D01*
X0071087Y0034377D01*
X0071000Y0034375D01*
X0066000Y0034375D01*
X0065913Y0034377D01*
X0065826Y0034383D01*
X0065739Y0034392D01*
X0065653Y0034405D01*
X0065567Y0034422D01*
X0065482Y0034443D01*
X0065399Y0034468D01*
X0065316Y0034496D01*
X0065235Y0034527D01*
X0065155Y0034562D01*
X0065077Y0034601D01*
X0065000Y0034643D01*
X0064925Y0034688D01*
X0064853Y0034737D01*
X0064782Y0034788D01*
X0064714Y0034843D01*
X0064649Y0034900D01*
X0064586Y0034961D01*
X0064525Y0035024D01*
X0064468Y0035089D01*
X0064413Y0035157D01*
X0064362Y0035228D01*
X0064313Y0035300D01*
X0064268Y0035375D01*
X0064226Y0035452D01*
X0064187Y0035530D01*
X0064152Y0035610D01*
X0064121Y0035691D01*
X0064093Y0035774D01*
X0064068Y0035857D01*
X0064047Y0035942D01*
X0064030Y0036028D01*
X0064017Y0036114D01*
X0064008Y0036201D01*
X0064002Y0036288D01*
X0064000Y0036375D01*
X0064000Y0049375D01*
X0064002Y0049462D01*
X0064008Y0049549D01*
X0064017Y0049636D01*
X0064030Y0049722D01*
X0064047Y0049808D01*
X0064068Y0049893D01*
X0064093Y0049976D01*
X0064121Y0050059D01*
X0064152Y0050140D01*
X0064187Y0050220D01*
X0064226Y0050298D01*
X0064268Y0050375D01*
X0064313Y0050450D01*
X0064362Y0050522D01*
X0064413Y0050593D01*
X0064468Y0050661D01*
X0064525Y0050726D01*
X0064586Y0050789D01*
X0064649Y0050850D01*
X0064714Y0050907D01*
X0064782Y0050962D01*
X0064853Y0051013D01*
X0064925Y0051062D01*
X0065000Y0051107D01*
X0065077Y0051149D01*
X0065155Y0051188D01*
X0065235Y0051223D01*
X0065316Y0051254D01*
X0065399Y0051282D01*
X0065482Y0051307D01*
X0065567Y0051328D01*
X0065653Y0051345D01*
X0065739Y0051358D01*
X0065826Y0051367D01*
X0065913Y0051373D01*
X0066000Y0051375D01*
X0054000Y0046875D02*
X0052000Y0046875D01*
X0053000Y0047875D02*
X0053000Y0045875D01*
X0036000Y0042875D02*
X0036003Y0043120D01*
X0036012Y0043366D01*
X0036027Y0043611D01*
X0036048Y0043855D01*
X0036075Y0044099D01*
X0036108Y0044342D01*
X0036147Y0044585D01*
X0036192Y0044826D01*
X0036243Y0045066D01*
X0036300Y0045305D01*
X0036362Y0045542D01*
X0036431Y0045778D01*
X0036505Y0046012D01*
X0036585Y0046244D01*
X0036670Y0046474D01*
X0036761Y0046702D01*
X0036858Y0046927D01*
X0036960Y0047151D01*
X0037068Y0047371D01*
X0037181Y0047589D01*
X0037299Y0047804D01*
X0037423Y0048016D01*
X0037551Y0048225D01*
X0037685Y0048431D01*
X0037824Y0048633D01*
X0037968Y0048832D01*
X0038117Y0049027D01*
X0038270Y0049219D01*
X0038428Y0049407D01*
X0038590Y0049591D01*
X0038758Y0049770D01*
X0038929Y0049946D01*
X0039105Y0050117D01*
X0039284Y0050285D01*
X0039468Y0050447D01*
X0039656Y0050605D01*
X0039848Y0050758D01*
X0040043Y0050907D01*
X0040242Y0051051D01*
X0040444Y0051190D01*
X0040650Y0051324D01*
X0040859Y0051452D01*
X0041071Y0051576D01*
X0041286Y0051694D01*
X0041504Y0051807D01*
X0041724Y0051915D01*
X0041948Y0052017D01*
X0042173Y0052114D01*
X0042401Y0052205D01*
X0042631Y0052290D01*
X0042863Y0052370D01*
X0043097Y0052444D01*
X0043333Y0052513D01*
X0043570Y0052575D01*
X0043809Y0052632D01*
X0044049Y0052683D01*
X0044290Y0052728D01*
X0044533Y0052767D01*
X0044776Y0052800D01*
X0045020Y0052827D01*
X0045264Y0052848D01*
X0045509Y0052863D01*
X0045755Y0052872D01*
X0046000Y0052875D01*
X0046245Y0052872D01*
X0046491Y0052863D01*
X0046736Y0052848D01*
X0046980Y0052827D01*
X0047224Y0052800D01*
X0047467Y0052767D01*
X0047710Y0052728D01*
X0047951Y0052683D01*
X0048191Y0052632D01*
X0048430Y0052575D01*
X0048667Y0052513D01*
X0048903Y0052444D01*
X0049137Y0052370D01*
X0049369Y0052290D01*
X0049599Y0052205D01*
X0049827Y0052114D01*
X0050052Y0052017D01*
X0050276Y0051915D01*
X0050496Y0051807D01*
X0050714Y0051694D01*
X0050929Y0051576D01*
X0051141Y0051452D01*
X0051350Y0051324D01*
X0051556Y0051190D01*
X0051758Y0051051D01*
X0051957Y0050907D01*
X0052152Y0050758D01*
X0052344Y0050605D01*
X0052532Y0050447D01*
X0052716Y0050285D01*
X0052895Y0050117D01*
X0053071Y0049946D01*
X0053242Y0049770D01*
X0053410Y0049591D01*
X0053572Y0049407D01*
X0053730Y0049219D01*
X0053883Y0049027D01*
X0054032Y0048832D01*
X0054176Y0048633D01*
X0054315Y0048431D01*
X0054449Y0048225D01*
X0054577Y0048016D01*
X0054701Y0047804D01*
X0054819Y0047589D01*
X0054932Y0047371D01*
X0055040Y0047151D01*
X0055142Y0046927D01*
X0055239Y0046702D01*
X0055330Y0046474D01*
X0055415Y0046244D01*
X0055495Y0046012D01*
X0055569Y0045778D01*
X0055638Y0045542D01*
X0055700Y0045305D01*
X0055757Y0045066D01*
X0055808Y0044826D01*
X0055853Y0044585D01*
X0055892Y0044342D01*
X0055925Y0044099D01*
X0055952Y0043855D01*
X0055973Y0043611D01*
X0055988Y0043366D01*
X0055997Y0043120D01*
X0056000Y0042875D01*
X0055997Y0042630D01*
X0055988Y0042384D01*
X0055973Y0042139D01*
X0055952Y0041895D01*
X0055925Y0041651D01*
X0055892Y0041408D01*
X0055853Y0041165D01*
X0055808Y0040924D01*
X0055757Y0040684D01*
X0055700Y0040445D01*
X0055638Y0040208D01*
X0055569Y0039972D01*
X0055495Y0039738D01*
X0055415Y0039506D01*
X0055330Y0039276D01*
X0055239Y0039048D01*
X0055142Y0038823D01*
X0055040Y0038599D01*
X0054932Y0038379D01*
X0054819Y0038161D01*
X0054701Y0037946D01*
X0054577Y0037734D01*
X0054449Y0037525D01*
X0054315Y0037319D01*
X0054176Y0037117D01*
X0054032Y0036918D01*
X0053883Y0036723D01*
X0053730Y0036531D01*
X0053572Y0036343D01*
X0053410Y0036159D01*
X0053242Y0035980D01*
X0053071Y0035804D01*
X0052895Y0035633D01*
X0052716Y0035465D01*
X0052532Y0035303D01*
X0052344Y0035145D01*
X0052152Y0034992D01*
X0051957Y0034843D01*
X0051758Y0034699D01*
X0051556Y0034560D01*
X0051350Y0034426D01*
X0051141Y0034298D01*
X0050929Y0034174D01*
X0050714Y0034056D01*
X0050496Y0033943D01*
X0050276Y0033835D01*
X0050052Y0033733D01*
X0049827Y0033636D01*
X0049599Y0033545D01*
X0049369Y0033460D01*
X0049137Y0033380D01*
X0048903Y0033306D01*
X0048667Y0033237D01*
X0048430Y0033175D01*
X0048191Y0033118D01*
X0047951Y0033067D01*
X0047710Y0033022D01*
X0047467Y0032983D01*
X0047224Y0032950D01*
X0046980Y0032923D01*
X0046736Y0032902D01*
X0046491Y0032887D01*
X0046245Y0032878D01*
X0046000Y0032875D01*
X0045755Y0032878D01*
X0045509Y0032887D01*
X0045264Y0032902D01*
X0045020Y0032923D01*
X0044776Y0032950D01*
X0044533Y0032983D01*
X0044290Y0033022D01*
X0044049Y0033067D01*
X0043809Y0033118D01*
X0043570Y0033175D01*
X0043333Y0033237D01*
X0043097Y0033306D01*
X0042863Y0033380D01*
X0042631Y0033460D01*
X0042401Y0033545D01*
X0042173Y0033636D01*
X0041948Y0033733D01*
X0041724Y0033835D01*
X0041504Y0033943D01*
X0041286Y0034056D01*
X0041071Y0034174D01*
X0040859Y0034298D01*
X0040650Y0034426D01*
X0040444Y0034560D01*
X0040242Y0034699D01*
X0040043Y0034843D01*
X0039848Y0034992D01*
X0039656Y0035145D01*
X0039468Y0035303D01*
X0039284Y0035465D01*
X0039105Y0035633D01*
X0038929Y0035804D01*
X0038758Y0035980D01*
X0038590Y0036159D01*
X0038428Y0036343D01*
X0038270Y0036531D01*
X0038117Y0036723D01*
X0037968Y0036918D01*
X0037824Y0037117D01*
X0037685Y0037319D01*
X0037551Y0037525D01*
X0037423Y0037734D01*
X0037299Y0037946D01*
X0037181Y0038161D01*
X0037068Y0038379D01*
X0036960Y0038599D01*
X0036858Y0038823D01*
X0036761Y0039048D01*
X0036670Y0039276D01*
X0036585Y0039506D01*
X0036505Y0039738D01*
X0036431Y0039972D01*
X0036362Y0040208D01*
X0036300Y0040445D01*
X0036243Y0040684D01*
X0036192Y0040924D01*
X0036147Y0041165D01*
X0036108Y0041408D01*
X0036075Y0041651D01*
X0036048Y0041895D01*
X0036027Y0042139D01*
X0036012Y0042384D01*
X0036003Y0042630D01*
X0036000Y0042875D01*
X0026000Y0047875D02*
X0026000Y0052875D01*
X0023500Y0055375D01*
X0008500Y0055375D01*
X0006000Y0057875D01*
X0006000Y0062875D01*
X0008500Y0065375D01*
X0023500Y0065375D01*
X0026000Y0067875D01*
X0026000Y0072875D01*
X0023500Y0075375D01*
X0008500Y0075375D01*
X0006000Y0077875D01*
X0006000Y0082875D01*
X0008500Y0085375D01*
X0023500Y0085375D01*
X0026000Y0087875D01*
X0026000Y0092875D01*
X0023500Y0095375D01*
X0008500Y0095375D01*
X0006000Y0097875D01*
X0006000Y0102875D01*
X0008500Y0105375D01*
X0023500Y0105375D01*
X0026000Y0107875D01*
X0026000Y0112875D01*
X0023500Y0115375D01*
X0026000Y0117875D01*
X0026000Y0122875D01*
X0023500Y0125375D01*
X0008500Y0125375D01*
X0006000Y0122875D01*
X0006000Y0117875D01*
X0008500Y0115375D01*
X0023500Y0115375D01*
X0008500Y0115375D02*
X0006000Y0112875D01*
X0006000Y0107875D01*
X0008500Y0105375D01*
X0023500Y0105375D02*
X0026000Y0102875D01*
X0026000Y0097875D01*
X0023500Y0095375D01*
X0008500Y0095375D02*
X0006000Y0092875D01*
X0006000Y0087875D01*
X0008500Y0085375D01*
X0023500Y0085375D02*
X0026000Y0082875D01*
X0026000Y0077875D01*
X0023500Y0075375D01*
X0008500Y0075375D02*
X0006000Y0072875D01*
X0006000Y0067875D01*
X0008500Y0065375D01*
X0023500Y0065375D02*
X0026000Y0062875D01*
X0026000Y0057875D01*
X0023500Y0055375D01*
X0008500Y0055375D02*
X0006000Y0052875D01*
X0006000Y0047875D01*
X0008500Y0045375D01*
X0023500Y0045375D01*
X0026000Y0047875D01*
X0051500Y0067875D02*
X0051502Y0067935D01*
X0051507Y0067996D01*
X0051516Y0068055D01*
X0051529Y0068114D01*
X0051545Y0068173D01*
X0051565Y0068230D01*
X0051588Y0068285D01*
X0051615Y0068340D01*
X0051644Y0068392D01*
X0051677Y0068443D01*
X0051713Y0068492D01*
X0051751Y0068538D01*
X0051793Y0068582D01*
X0051837Y0068624D01*
X0051883Y0068662D01*
X0051932Y0068698D01*
X0051983Y0068731D01*
X0052035Y0068760D01*
X0052090Y0068787D01*
X0052145Y0068810D01*
X0052202Y0068830D01*
X0052261Y0068846D01*
X0052320Y0068859D01*
X0052379Y0068868D01*
X0052440Y0068873D01*
X0052500Y0068875D01*
X0055000Y0068875D01*
X0055500Y0068375D01*
X0081500Y0068375D01*
X0082000Y0068875D01*
X0084500Y0068875D01*
X0084560Y0068873D01*
X0084621Y0068868D01*
X0084680Y0068859D01*
X0084739Y0068846D01*
X0084798Y0068830D01*
X0084855Y0068810D01*
X0084910Y0068787D01*
X0084965Y0068760D01*
X0085017Y0068731D01*
X0085068Y0068698D01*
X0085117Y0068662D01*
X0085163Y0068624D01*
X0085207Y0068582D01*
X0085249Y0068538D01*
X0085287Y0068492D01*
X0085323Y0068443D01*
X0085356Y0068392D01*
X0085385Y0068340D01*
X0085412Y0068285D01*
X0085435Y0068230D01*
X0085455Y0068173D01*
X0085471Y0068114D01*
X0085484Y0068055D01*
X0085493Y0067996D01*
X0085498Y0067935D01*
X0085500Y0067875D01*
X0084500Y0071875D02*
X0082000Y0071875D01*
X0081500Y0072375D01*
X0055500Y0072375D01*
X0055000Y0071875D01*
X0052500Y0071875D01*
X0052440Y0071877D01*
X0052379Y0071882D01*
X0052320Y0071891D01*
X0052261Y0071904D01*
X0052202Y0071920D01*
X0052145Y0071940D01*
X0052090Y0071963D01*
X0052035Y0071990D01*
X0051983Y0072019D01*
X0051932Y0072052D01*
X0051883Y0072088D01*
X0051837Y0072126D01*
X0051793Y0072168D01*
X0051751Y0072212D01*
X0051713Y0072258D01*
X0051677Y0072307D01*
X0051644Y0072358D01*
X0051615Y0072410D01*
X0051588Y0072465D01*
X0051565Y0072520D01*
X0051545Y0072577D01*
X0051529Y0072636D01*
X0051516Y0072695D01*
X0051507Y0072754D01*
X0051502Y0072815D01*
X0051500Y0072875D01*
X0051500Y0082875D02*
X0051502Y0082935D01*
X0051507Y0082996D01*
X0051516Y0083055D01*
X0051529Y0083114D01*
X0051545Y0083173D01*
X0051565Y0083230D01*
X0051588Y0083285D01*
X0051615Y0083340D01*
X0051644Y0083392D01*
X0051677Y0083443D01*
X0051713Y0083492D01*
X0051751Y0083538D01*
X0051793Y0083582D01*
X0051837Y0083624D01*
X0051883Y0083662D01*
X0051932Y0083698D01*
X0051983Y0083731D01*
X0052035Y0083760D01*
X0052090Y0083787D01*
X0052145Y0083810D01*
X0052202Y0083830D01*
X0052261Y0083846D01*
X0052320Y0083859D01*
X0052379Y0083868D01*
X0052440Y0083873D01*
X0052500Y0083875D01*
X0055000Y0083875D01*
X0055500Y0083375D01*
X0081500Y0083375D01*
X0082000Y0083875D01*
X0084500Y0083875D01*
X0084560Y0083873D01*
X0084621Y0083868D01*
X0084680Y0083859D01*
X0084739Y0083846D01*
X0084798Y0083830D01*
X0084855Y0083810D01*
X0084910Y0083787D01*
X0084965Y0083760D01*
X0085017Y0083731D01*
X0085068Y0083698D01*
X0085117Y0083662D01*
X0085163Y0083624D01*
X0085207Y0083582D01*
X0085249Y0083538D01*
X0085287Y0083492D01*
X0085323Y0083443D01*
X0085356Y0083392D01*
X0085385Y0083340D01*
X0085412Y0083285D01*
X0085435Y0083230D01*
X0085455Y0083173D01*
X0085471Y0083114D01*
X0085484Y0083055D01*
X0085493Y0082996D01*
X0085498Y0082935D01*
X0085500Y0082875D01*
X0084500Y0086875D02*
X0082000Y0086875D01*
X0081500Y0087375D01*
X0055500Y0087375D01*
X0055000Y0086875D01*
X0052500Y0086875D01*
X0052440Y0086877D01*
X0052379Y0086882D01*
X0052320Y0086891D01*
X0052261Y0086904D01*
X0052202Y0086920D01*
X0052145Y0086940D01*
X0052090Y0086963D01*
X0052035Y0086990D01*
X0051983Y0087019D01*
X0051932Y0087052D01*
X0051883Y0087088D01*
X0051837Y0087126D01*
X0051793Y0087168D01*
X0051751Y0087212D01*
X0051713Y0087258D01*
X0051677Y0087307D01*
X0051644Y0087358D01*
X0051615Y0087410D01*
X0051588Y0087465D01*
X0051565Y0087520D01*
X0051545Y0087577D01*
X0051529Y0087636D01*
X0051516Y0087695D01*
X0051507Y0087754D01*
X0051502Y0087815D01*
X0051500Y0087875D01*
X0051500Y0097875D02*
X0051502Y0097935D01*
X0051507Y0097996D01*
X0051516Y0098055D01*
X0051529Y0098114D01*
X0051545Y0098173D01*
X0051565Y0098230D01*
X0051588Y0098285D01*
X0051615Y0098340D01*
X0051644Y0098392D01*
X0051677Y0098443D01*
X0051713Y0098492D01*
X0051751Y0098538D01*
X0051793Y0098582D01*
X0051837Y0098624D01*
X0051883Y0098662D01*
X0051932Y0098698D01*
X0051983Y0098731D01*
X0052035Y0098760D01*
X0052090Y0098787D01*
X0052145Y0098810D01*
X0052202Y0098830D01*
X0052261Y0098846D01*
X0052320Y0098859D01*
X0052379Y0098868D01*
X0052440Y0098873D01*
X0052500Y0098875D01*
X0055000Y0098875D01*
X0055500Y0098375D01*
X0081500Y0098375D01*
X0082000Y0098875D01*
X0084500Y0098875D01*
X0084560Y0098873D01*
X0084621Y0098868D01*
X0084680Y0098859D01*
X0084739Y0098846D01*
X0084798Y0098830D01*
X0084855Y0098810D01*
X0084910Y0098787D01*
X0084965Y0098760D01*
X0085017Y0098731D01*
X0085068Y0098698D01*
X0085117Y0098662D01*
X0085163Y0098624D01*
X0085207Y0098582D01*
X0085249Y0098538D01*
X0085287Y0098492D01*
X0085323Y0098443D01*
X0085356Y0098392D01*
X0085385Y0098340D01*
X0085412Y0098285D01*
X0085435Y0098230D01*
X0085455Y0098173D01*
X0085471Y0098114D01*
X0085484Y0098055D01*
X0085493Y0097996D01*
X0085498Y0097935D01*
X0085500Y0097875D01*
X0084500Y0101875D02*
X0082000Y0101875D01*
X0081500Y0102375D01*
X0055500Y0102375D01*
X0055000Y0101875D01*
X0052500Y0101875D01*
X0052440Y0101877D01*
X0052379Y0101882D01*
X0052320Y0101891D01*
X0052261Y0101904D01*
X0052202Y0101920D01*
X0052145Y0101940D01*
X0052090Y0101963D01*
X0052035Y0101990D01*
X0051983Y0102019D01*
X0051932Y0102052D01*
X0051883Y0102088D01*
X0051837Y0102126D01*
X0051793Y0102168D01*
X0051751Y0102212D01*
X0051713Y0102258D01*
X0051677Y0102307D01*
X0051644Y0102358D01*
X0051615Y0102410D01*
X0051588Y0102465D01*
X0051565Y0102520D01*
X0051545Y0102577D01*
X0051529Y0102636D01*
X0051516Y0102695D01*
X0051507Y0102754D01*
X0051502Y0102815D01*
X0051500Y0102875D01*
X0051500Y0112875D02*
X0051502Y0112935D01*
X0051507Y0112996D01*
X0051516Y0113055D01*
X0051529Y0113114D01*
X0051545Y0113173D01*
X0051565Y0113230D01*
X0051588Y0113285D01*
X0051615Y0113340D01*
X0051644Y0113392D01*
X0051677Y0113443D01*
X0051713Y0113492D01*
X0051751Y0113538D01*
X0051793Y0113582D01*
X0051837Y0113624D01*
X0051883Y0113662D01*
X0051932Y0113698D01*
X0051983Y0113731D01*
X0052035Y0113760D01*
X0052090Y0113787D01*
X0052145Y0113810D01*
X0052202Y0113830D01*
X0052261Y0113846D01*
X0052320Y0113859D01*
X0052379Y0113868D01*
X0052440Y0113873D01*
X0052500Y0113875D01*
X0055000Y0113875D01*
X0055500Y0113375D01*
X0081500Y0113375D01*
X0082000Y0113875D01*
X0084500Y0113875D01*
X0084560Y0113873D01*
X0084621Y0113868D01*
X0084680Y0113859D01*
X0084739Y0113846D01*
X0084798Y0113830D01*
X0084855Y0113810D01*
X0084910Y0113787D01*
X0084965Y0113760D01*
X0085017Y0113731D01*
X0085068Y0113698D01*
X0085117Y0113662D01*
X0085163Y0113624D01*
X0085207Y0113582D01*
X0085249Y0113538D01*
X0085287Y0113492D01*
X0085323Y0113443D01*
X0085356Y0113392D01*
X0085385Y0113340D01*
X0085412Y0113285D01*
X0085435Y0113230D01*
X0085455Y0113173D01*
X0085471Y0113114D01*
X0085484Y0113055D01*
X0085493Y0112996D01*
X0085498Y0112935D01*
X0085500Y0112875D01*
X0085500Y0102875D02*
X0085498Y0102815D01*
X0085493Y0102754D01*
X0085484Y0102695D01*
X0085471Y0102636D01*
X0085455Y0102577D01*
X0085435Y0102520D01*
X0085412Y0102465D01*
X0085385Y0102410D01*
X0085356Y0102358D01*
X0085323Y0102307D01*
X0085287Y0102258D01*
X0085249Y0102212D01*
X0085207Y0102168D01*
X0085163Y0102126D01*
X0085117Y0102088D01*
X0085068Y0102052D01*
X0085017Y0102019D01*
X0084965Y0101990D01*
X0084910Y0101963D01*
X0084855Y0101940D01*
X0084798Y0101920D01*
X0084739Y0101904D01*
X0084680Y0101891D01*
X0084621Y0101882D01*
X0084560Y0101877D01*
X0084500Y0101875D01*
X0085500Y0087875D02*
X0085498Y0087815D01*
X0085493Y0087754D01*
X0085484Y0087695D01*
X0085471Y0087636D01*
X0085455Y0087577D01*
X0085435Y0087520D01*
X0085412Y0087465D01*
X0085385Y0087410D01*
X0085356Y0087358D01*
X0085323Y0087307D01*
X0085287Y0087258D01*
X0085249Y0087212D01*
X0085207Y0087168D01*
X0085163Y0087126D01*
X0085117Y0087088D01*
X0085068Y0087052D01*
X0085017Y0087019D01*
X0084965Y0086990D01*
X0084910Y0086963D01*
X0084855Y0086940D01*
X0084798Y0086920D01*
X0084739Y0086904D01*
X0084680Y0086891D01*
X0084621Y0086882D01*
X0084560Y0086877D01*
X0084500Y0086875D01*
X0085500Y0072875D02*
X0085498Y0072815D01*
X0085493Y0072754D01*
X0085484Y0072695D01*
X0085471Y0072636D01*
X0085455Y0072577D01*
X0085435Y0072520D01*
X0085412Y0072465D01*
X0085385Y0072410D01*
X0085356Y0072358D01*
X0085323Y0072307D01*
X0085287Y0072258D01*
X0085249Y0072212D01*
X0085207Y0072168D01*
X0085163Y0072126D01*
X0085117Y0072088D01*
X0085068Y0072052D01*
X0085017Y0072019D01*
X0084965Y0071990D01*
X0084910Y0071963D01*
X0084855Y0071940D01*
X0084798Y0071920D01*
X0084739Y0071904D01*
X0084680Y0071891D01*
X0084621Y0071882D01*
X0084560Y0071877D01*
X0084500Y0071875D01*
X0085500Y0057875D02*
X0085498Y0057815D01*
X0085493Y0057754D01*
X0085484Y0057695D01*
X0085471Y0057636D01*
X0085455Y0057577D01*
X0085435Y0057520D01*
X0085412Y0057465D01*
X0085385Y0057410D01*
X0085356Y0057358D01*
X0085323Y0057307D01*
X0085287Y0057258D01*
X0085249Y0057212D01*
X0085207Y0057168D01*
X0085163Y0057126D01*
X0085117Y0057088D01*
X0085068Y0057052D01*
X0085017Y0057019D01*
X0084965Y0056990D01*
X0084910Y0056963D01*
X0084855Y0056940D01*
X0084798Y0056920D01*
X0084739Y0056904D01*
X0084680Y0056891D01*
X0084621Y0056882D01*
X0084560Y0056877D01*
X0084500Y0056875D01*
X0147000Y0068875D02*
X0147060Y0068873D01*
X0147121Y0068868D01*
X0147180Y0068859D01*
X0147239Y0068846D01*
X0147298Y0068830D01*
X0147355Y0068810D01*
X0147410Y0068787D01*
X0147465Y0068760D01*
X0147517Y0068731D01*
X0147568Y0068698D01*
X0147617Y0068662D01*
X0147663Y0068624D01*
X0147707Y0068582D01*
X0147749Y0068538D01*
X0147787Y0068492D01*
X0147823Y0068443D01*
X0147856Y0068392D01*
X0147885Y0068340D01*
X0147912Y0068285D01*
X0147935Y0068230D01*
X0147955Y0068173D01*
X0147971Y0068114D01*
X0147984Y0068055D01*
X0147993Y0067996D01*
X0147998Y0067935D01*
X0148000Y0067875D01*
X0148000Y0082875D02*
X0147998Y0082935D01*
X0147993Y0082996D01*
X0147984Y0083055D01*
X0147971Y0083114D01*
X0147955Y0083173D01*
X0147935Y0083230D01*
X0147912Y0083285D01*
X0147885Y0083340D01*
X0147856Y0083392D01*
X0147823Y0083443D01*
X0147787Y0083492D01*
X0147749Y0083538D01*
X0147707Y0083582D01*
X0147663Y0083624D01*
X0147617Y0083662D01*
X0147568Y0083698D01*
X0147517Y0083731D01*
X0147465Y0083760D01*
X0147410Y0083787D01*
X0147355Y0083810D01*
X0147298Y0083830D01*
X0147239Y0083846D01*
X0147180Y0083859D01*
X0147121Y0083868D01*
X0147060Y0083873D01*
X0147000Y0083875D01*
X0148000Y0097875D02*
X0147998Y0097935D01*
X0147993Y0097996D01*
X0147984Y0098055D01*
X0147971Y0098114D01*
X0147955Y0098173D01*
X0147935Y0098230D01*
X0147912Y0098285D01*
X0147885Y0098340D01*
X0147856Y0098392D01*
X0147823Y0098443D01*
X0147787Y0098492D01*
X0147749Y0098538D01*
X0147707Y0098582D01*
X0147663Y0098624D01*
X0147617Y0098662D01*
X0147568Y0098698D01*
X0147517Y0098731D01*
X0147465Y0098760D01*
X0147410Y0098787D01*
X0147355Y0098810D01*
X0147298Y0098830D01*
X0147239Y0098846D01*
X0147180Y0098859D01*
X0147121Y0098868D01*
X0147060Y0098873D01*
X0147000Y0098875D01*
X0189500Y0098375D02*
X0189500Y0082375D01*
X0189502Y0082315D01*
X0189507Y0082254D01*
X0189516Y0082195D01*
X0189529Y0082136D01*
X0189545Y0082077D01*
X0189565Y0082020D01*
X0189588Y0081965D01*
X0189615Y0081910D01*
X0189644Y0081858D01*
X0189677Y0081807D01*
X0189713Y0081758D01*
X0189751Y0081712D01*
X0189793Y0081668D01*
X0189837Y0081626D01*
X0189883Y0081588D01*
X0189932Y0081552D01*
X0189983Y0081519D01*
X0190035Y0081490D01*
X0190090Y0081463D01*
X0190145Y0081440D01*
X0190202Y0081420D01*
X0190261Y0081404D01*
X0190320Y0081391D01*
X0190379Y0081382D01*
X0190440Y0081377D01*
X0190500Y0081375D01*
X0196500Y0081375D01*
X0196560Y0081377D01*
X0196621Y0081382D01*
X0196680Y0081391D01*
X0196739Y0081404D01*
X0196798Y0081420D01*
X0196855Y0081440D01*
X0196910Y0081463D01*
X0196965Y0081490D01*
X0197017Y0081519D01*
X0197068Y0081552D01*
X0197117Y0081588D01*
X0197163Y0081626D01*
X0197207Y0081668D01*
X0197249Y0081712D01*
X0197287Y0081758D01*
X0197323Y0081807D01*
X0197356Y0081858D01*
X0197385Y0081910D01*
X0197412Y0081965D01*
X0197435Y0082020D01*
X0197455Y0082077D01*
X0197471Y0082136D01*
X0197484Y0082195D01*
X0197493Y0082254D01*
X0197498Y0082315D01*
X0197500Y0082375D01*
X0197500Y0098375D01*
X0197498Y0098435D01*
X0197493Y0098496D01*
X0197484Y0098555D01*
X0197471Y0098614D01*
X0197455Y0098673D01*
X0197435Y0098730D01*
X0197412Y0098785D01*
X0197385Y0098840D01*
X0197356Y0098892D01*
X0197323Y0098943D01*
X0197287Y0098992D01*
X0197249Y0099038D01*
X0197207Y0099082D01*
X0197163Y0099124D01*
X0197117Y0099162D01*
X0197068Y0099198D01*
X0197017Y0099231D01*
X0196965Y0099260D01*
X0196910Y0099287D01*
X0196855Y0099310D01*
X0196798Y0099330D01*
X0196739Y0099346D01*
X0196680Y0099359D01*
X0196621Y0099368D01*
X0196560Y0099373D01*
X0196500Y0099375D01*
X0190500Y0099375D01*
X0190440Y0099373D01*
X0190379Y0099368D01*
X0190320Y0099359D01*
X0190261Y0099346D01*
X0190202Y0099330D01*
X0190145Y0099310D01*
X0190090Y0099287D01*
X0190035Y0099260D01*
X0189983Y0099231D01*
X0189932Y0099198D01*
X0189883Y0099162D01*
X0189837Y0099124D01*
X0189793Y0099082D01*
X0189751Y0099038D01*
X0189713Y0098992D01*
X0189677Y0098943D01*
X0189644Y0098892D01*
X0189615Y0098840D01*
X0189588Y0098785D01*
X0189565Y0098730D01*
X0189545Y0098673D01*
X0189529Y0098614D01*
X0189516Y0098555D01*
X0189507Y0098496D01*
X0189502Y0098435D01*
X0189500Y0098375D01*
X0193500Y0096375D02*
X0193500Y0090375D01*
X0196000Y0090375D01*
X0193500Y0090375D02*
X0191000Y0090375D01*
X0193500Y0090375D02*
X0193500Y0087875D01*
X0193500Y0090375D02*
X0191000Y0094375D01*
X0196000Y0094375D01*
X0193500Y0090375D01*
X0210000Y0093875D02*
X0210000Y0096375D01*
X0210002Y0096435D01*
X0210007Y0096496D01*
X0210016Y0096555D01*
X0210029Y0096614D01*
X0210045Y0096673D01*
X0210065Y0096730D01*
X0210088Y0096785D01*
X0210115Y0096840D01*
X0210144Y0096892D01*
X0210177Y0096943D01*
X0210213Y0096992D01*
X0210251Y0097038D01*
X0210293Y0097082D01*
X0210337Y0097124D01*
X0210383Y0097162D01*
X0210432Y0097198D01*
X0210483Y0097231D01*
X0210535Y0097260D01*
X0210590Y0097287D01*
X0210645Y0097310D01*
X0210702Y0097330D01*
X0210761Y0097346D01*
X0210820Y0097359D01*
X0210879Y0097368D01*
X0210940Y0097373D01*
X0211000Y0097375D01*
X0210000Y0093875D02*
X0210500Y0093375D01*
X0210500Y0067375D01*
X0210000Y0066875D01*
X0210000Y0064375D01*
X0210002Y0064315D01*
X0210007Y0064254D01*
X0210016Y0064195D01*
X0210029Y0064136D01*
X0210045Y0064077D01*
X0210065Y0064020D01*
X0210088Y0063965D01*
X0210115Y0063910D01*
X0210144Y0063858D01*
X0210177Y0063807D01*
X0210213Y0063758D01*
X0210251Y0063712D01*
X0210293Y0063668D01*
X0210337Y0063626D01*
X0210383Y0063588D01*
X0210432Y0063552D01*
X0210483Y0063519D01*
X0210535Y0063490D01*
X0210590Y0063463D01*
X0210645Y0063440D01*
X0210702Y0063420D01*
X0210761Y0063404D01*
X0210820Y0063391D01*
X0210879Y0063382D01*
X0210940Y0063377D01*
X0211000Y0063375D01*
X0221000Y0063375D02*
X0221060Y0063377D01*
X0221121Y0063382D01*
X0221180Y0063391D01*
X0221239Y0063404D01*
X0221298Y0063420D01*
X0221355Y0063440D01*
X0221410Y0063463D01*
X0221465Y0063490D01*
X0221517Y0063519D01*
X0221568Y0063552D01*
X0221617Y0063588D01*
X0221663Y0063626D01*
X0221707Y0063668D01*
X0221749Y0063712D01*
X0221787Y0063758D01*
X0221823Y0063807D01*
X0221856Y0063858D01*
X0221885Y0063910D01*
X0221912Y0063965D01*
X0221935Y0064020D01*
X0221955Y0064077D01*
X0221971Y0064136D01*
X0221984Y0064195D01*
X0221993Y0064254D01*
X0221998Y0064315D01*
X0222000Y0064375D01*
X0222000Y0066875D01*
X0221500Y0067375D01*
X0221500Y0093375D01*
X0222000Y0093875D01*
X0222000Y0096375D01*
X0221998Y0096435D01*
X0221993Y0096496D01*
X0221984Y0096555D01*
X0221971Y0096614D01*
X0221955Y0096673D01*
X0221935Y0096730D01*
X0221912Y0096785D01*
X0221885Y0096840D01*
X0221856Y0096892D01*
X0221823Y0096943D01*
X0221787Y0096992D01*
X0221749Y0097038D01*
X0221707Y0097082D01*
X0221663Y0097124D01*
X0221617Y0097162D01*
X0221568Y0097198D01*
X0221517Y0097231D01*
X0221465Y0097260D01*
X0221410Y0097287D01*
X0221355Y0097310D01*
X0221298Y0097330D01*
X0221239Y0097346D01*
X0221180Y0097359D01*
X0221121Y0097368D01*
X0221060Y0097373D01*
X0221000Y0097375D01*
X0289500Y0088375D02*
X0289500Y0112375D01*
X0289502Y0112535D01*
X0289508Y0112694D01*
X0289518Y0112853D01*
X0289531Y0113012D01*
X0289549Y0113171D01*
X0289570Y0113329D01*
X0289596Y0113486D01*
X0289625Y0113643D01*
X0289658Y0113799D01*
X0289695Y0113954D01*
X0289735Y0114109D01*
X0289780Y0114262D01*
X0289828Y0114414D01*
X0289880Y0114565D01*
X0289936Y0114714D01*
X0289995Y0114862D01*
X0290058Y0115009D01*
X0290124Y0115154D01*
X0290194Y0115297D01*
X0290268Y0115439D01*
X0290344Y0115579D01*
X0290425Y0115717D01*
X0290508Y0115852D01*
X0290595Y0115986D01*
X0290686Y0116118D01*
X0290779Y0116247D01*
X0290876Y0116374D01*
X0290975Y0116499D01*
X0291078Y0116621D01*
X0291184Y0116740D01*
X0291292Y0116857D01*
X0291404Y0116971D01*
X0291518Y0117083D01*
X0291635Y0117191D01*
X0291754Y0117297D01*
X0291876Y0117400D01*
X0292001Y0117499D01*
X0292128Y0117596D01*
X0292257Y0117689D01*
X0292389Y0117780D01*
X0292523Y0117867D01*
X0292658Y0117950D01*
X0292796Y0118031D01*
X0292936Y0118107D01*
X0293078Y0118181D01*
X0293221Y0118251D01*
X0293366Y0118317D01*
X0293513Y0118380D01*
X0293661Y0118439D01*
X0293810Y0118495D01*
X0293961Y0118547D01*
X0294113Y0118595D01*
X0294266Y0118640D01*
X0294421Y0118680D01*
X0294576Y0118717D01*
X0294732Y0118750D01*
X0294889Y0118779D01*
X0295046Y0118805D01*
X0295204Y0118826D01*
X0295363Y0118844D01*
X0295522Y0118857D01*
X0295681Y0118867D01*
X0295840Y0118873D01*
X0296000Y0118875D01*
X0296160Y0118873D01*
X0296319Y0118867D01*
X0296478Y0118857D01*
X0296637Y0118844D01*
X0296796Y0118826D01*
X0296954Y0118805D01*
X0297111Y0118779D01*
X0297268Y0118750D01*
X0297424Y0118717D01*
X0297579Y0118680D01*
X0297734Y0118640D01*
X0297887Y0118595D01*
X0298039Y0118547D01*
X0298190Y0118495D01*
X0298339Y0118439D01*
X0298487Y0118380D01*
X0298634Y0118317D01*
X0298779Y0118251D01*
X0298922Y0118181D01*
X0299064Y0118107D01*
X0299204Y0118031D01*
X0299342Y0117950D01*
X0299477Y0117867D01*
X0299611Y0117780D01*
X0299743Y0117689D01*
X0299872Y0117596D01*
X0299999Y0117499D01*
X0300124Y0117400D01*
X0300246Y0117297D01*
X0300365Y0117191D01*
X0300482Y0117083D01*
X0300596Y0116971D01*
X0300708Y0116857D01*
X0300816Y0116740D01*
X0300922Y0116621D01*
X0301025Y0116499D01*
X0301124Y0116374D01*
X0301221Y0116247D01*
X0301314Y0116118D01*
X0301405Y0115986D01*
X0301492Y0115852D01*
X0301575Y0115717D01*
X0301656Y0115579D01*
X0301732Y0115439D01*
X0301806Y0115297D01*
X0301876Y0115154D01*
X0301942Y0115009D01*
X0302005Y0114862D01*
X0302064Y0114714D01*
X0302120Y0114565D01*
X0302172Y0114414D01*
X0302220Y0114262D01*
X0302265Y0114109D01*
X0302305Y0113954D01*
X0302342Y0113799D01*
X0302375Y0113643D01*
X0302404Y0113486D01*
X0302430Y0113329D01*
X0302451Y0113171D01*
X0302469Y0113012D01*
X0302482Y0112853D01*
X0302492Y0112694D01*
X0302498Y0112535D01*
X0302500Y0112375D01*
X0302500Y0088375D01*
X0302498Y0088215D01*
X0302492Y0088056D01*
X0302482Y0087897D01*
X0302469Y0087738D01*
X0302451Y0087579D01*
X0302430Y0087421D01*
X0302404Y0087264D01*
X0302375Y0087107D01*
X0302342Y0086951D01*
X0302305Y0086796D01*
X0302265Y0086641D01*
X0302220Y0086488D01*
X0302172Y0086336D01*
X0302120Y0086185D01*
X0302064Y0086036D01*
X0302005Y0085888D01*
X0301942Y0085741D01*
X0301876Y0085596D01*
X0301806Y0085453D01*
X0301732Y0085311D01*
X0301656Y0085171D01*
X0301575Y0085033D01*
X0301492Y0084898D01*
X0301405Y0084764D01*
X0301314Y0084632D01*
X0301221Y0084503D01*
X0301124Y0084376D01*
X0301025Y0084251D01*
X0300922Y0084129D01*
X0300816Y0084010D01*
X0300708Y0083893D01*
X0300596Y0083779D01*
X0300482Y0083667D01*
X0300365Y0083559D01*
X0300246Y0083453D01*
X0300124Y0083350D01*
X0299999Y0083251D01*
X0299872Y0083154D01*
X0299743Y0083061D01*
X0299611Y0082970D01*
X0299477Y0082883D01*
X0299342Y0082800D01*
X0299204Y0082719D01*
X0299064Y0082643D01*
X0298922Y0082569D01*
X0298779Y0082499D01*
X0298634Y0082433D01*
X0298487Y0082370D01*
X0298339Y0082311D01*
X0298190Y0082255D01*
X0298039Y0082203D01*
X0297887Y0082155D01*
X0297734Y0082110D01*
X0297579Y0082070D01*
X0297424Y0082033D01*
X0297268Y0082000D01*
X0297111Y0081971D01*
X0296954Y0081945D01*
X0296796Y0081924D01*
X0296637Y0081906D01*
X0296478Y0081893D01*
X0296319Y0081883D01*
X0296160Y0081877D01*
X0296000Y0081875D01*
X0295840Y0081877D01*
X0295681Y0081883D01*
X0295522Y0081893D01*
X0295363Y0081906D01*
X0295204Y0081924D01*
X0295046Y0081945D01*
X0294889Y0081971D01*
X0294732Y0082000D01*
X0294576Y0082033D01*
X0294421Y0082070D01*
X0294266Y0082110D01*
X0294113Y0082155D01*
X0293961Y0082203D01*
X0293810Y0082255D01*
X0293661Y0082311D01*
X0293513Y0082370D01*
X0293366Y0082433D01*
X0293221Y0082499D01*
X0293078Y0082569D01*
X0292936Y0082643D01*
X0292796Y0082719D01*
X0292658Y0082800D01*
X0292523Y0082883D01*
X0292389Y0082970D01*
X0292257Y0083061D01*
X0292128Y0083154D01*
X0292001Y0083251D01*
X0291876Y0083350D01*
X0291754Y0083453D01*
X0291635Y0083559D01*
X0291518Y0083667D01*
X0291404Y0083779D01*
X0291292Y0083893D01*
X0291184Y0084010D01*
X0291078Y0084129D01*
X0290975Y0084251D01*
X0290876Y0084376D01*
X0290779Y0084503D01*
X0290686Y0084632D01*
X0290595Y0084764D01*
X0290508Y0084898D01*
X0290425Y0085033D01*
X0290344Y0085171D01*
X0290268Y0085311D01*
X0290194Y0085453D01*
X0290124Y0085596D01*
X0290058Y0085741D01*
X0289995Y0085888D01*
X0289936Y0086036D01*
X0289880Y0086185D01*
X0289828Y0086336D01*
X0289780Y0086488D01*
X0289735Y0086641D01*
X0289695Y0086796D01*
X0289658Y0086951D01*
X0289625Y0087107D01*
X0289596Y0087264D01*
X0289570Y0087421D01*
X0289549Y0087579D01*
X0289531Y0087738D01*
X0289518Y0087897D01*
X0289508Y0088056D01*
X0289502Y0088215D01*
X0289500Y0088375D01*
X0296000Y0095375D02*
X0296000Y0097875D01*
X0293000Y0097875D01*
X0293000Y0099375D02*
X0293000Y0101375D01*
X0299000Y0101375D01*
X0299000Y0099375D01*
X0293000Y0099375D01*
X0296000Y0097875D02*
X0299000Y0097875D01*
X0299000Y0102875D02*
X0296000Y0102875D01*
X0296000Y0105375D01*
X0296000Y0102875D02*
X0293000Y0102875D01*
X0297000Y0070375D02*
X0320000Y0070375D01*
X0320000Y0030375D01*
X0312500Y0030375D01*
X0312498Y0030501D01*
X0312492Y0030626D01*
X0312482Y0030751D01*
X0312468Y0030876D01*
X0312451Y0031001D01*
X0312429Y0031125D01*
X0312404Y0031248D01*
X0312374Y0031370D01*
X0312341Y0031491D01*
X0312304Y0031611D01*
X0312264Y0031730D01*
X0312219Y0031847D01*
X0312171Y0031964D01*
X0312119Y0032078D01*
X0312064Y0032191D01*
X0312005Y0032302D01*
X0311943Y0032411D01*
X0311877Y0032518D01*
X0311808Y0032623D01*
X0311736Y0032726D01*
X0311661Y0032827D01*
X0311582Y0032925D01*
X0311500Y0033020D01*
X0311416Y0033113D01*
X0311328Y0033203D01*
X0311238Y0033291D01*
X0311145Y0033375D01*
X0311050Y0033457D01*
X0310952Y0033536D01*
X0310851Y0033611D01*
X0310748Y0033683D01*
X0310643Y0033752D01*
X0310536Y0033818D01*
X0310427Y0033880D01*
X0310316Y0033939D01*
X0310203Y0033994D01*
X0310089Y0034046D01*
X0309972Y0034094D01*
X0309855Y0034139D01*
X0309736Y0034179D01*
X0309616Y0034216D01*
X0309495Y0034249D01*
X0309373Y0034279D01*
X0309250Y0034304D01*
X0309126Y0034326D01*
X0309001Y0034343D01*
X0308876Y0034357D01*
X0308751Y0034367D01*
X0308626Y0034373D01*
X0308500Y0034375D01*
X0308374Y0034373D01*
X0308249Y0034367D01*
X0308124Y0034357D01*
X0307999Y0034343D01*
X0307874Y0034326D01*
X0307750Y0034304D01*
X0307627Y0034279D01*
X0307505Y0034249D01*
X0307384Y0034216D01*
X0307264Y0034179D01*
X0307145Y0034139D01*
X0307028Y0034094D01*
X0306911Y0034046D01*
X0306797Y0033994D01*
X0306684Y0033939D01*
X0306573Y0033880D01*
X0306464Y0033818D01*
X0306357Y0033752D01*
X0306252Y0033683D01*
X0306149Y0033611D01*
X0306048Y0033536D01*
X0305950Y0033457D01*
X0305855Y0033375D01*
X0305762Y0033291D01*
X0305672Y0033203D01*
X0305584Y0033113D01*
X0305500Y0033020D01*
X0305418Y0032925D01*
X0305339Y0032827D01*
X0305264Y0032726D01*
X0305192Y0032623D01*
X0305123Y0032518D01*
X0305057Y0032411D01*
X0304995Y0032302D01*
X0304936Y0032191D01*
X0304881Y0032078D01*
X0304829Y0031964D01*
X0304781Y0031847D01*
X0304736Y0031730D01*
X0304696Y0031611D01*
X0304659Y0031491D01*
X0304626Y0031370D01*
X0304596Y0031248D01*
X0304571Y0031125D01*
X0304549Y0031001D01*
X0304532Y0030876D01*
X0304518Y0030751D01*
X0304508Y0030626D01*
X0304502Y0030501D01*
X0304500Y0030375D01*
X0297000Y0030375D01*
X0297000Y0070375D01*
X0341000Y0050875D02*
X0353500Y0050875D01*
X0353500Y0048375D01*
X0368500Y0048375D01*
X0368500Y0050875D01*
X0353500Y0050875D01*
X0353500Y0045875D02*
X0353500Y0039875D01*
X0368500Y0039875D01*
X0368500Y0045875D01*
X0353500Y0045875D01*
X0341000Y0050875D02*
X0341000Y0034875D01*
X0381000Y0034875D01*
X0381000Y0050875D01*
X0368500Y0050875D01*
X0374500Y0031375D02*
X0377000Y0031375D01*
X0377060Y0031373D01*
X0377121Y0031368D01*
X0377180Y0031359D01*
X0377239Y0031346D01*
X0377298Y0031330D01*
X0377355Y0031310D01*
X0377410Y0031287D01*
X0377465Y0031260D01*
X0377517Y0031231D01*
X0377568Y0031198D01*
X0377617Y0031162D01*
X0377663Y0031124D01*
X0377707Y0031082D01*
X0377749Y0031038D01*
X0377787Y0030992D01*
X0377823Y0030943D01*
X0377856Y0030892D01*
X0377885Y0030840D01*
X0377912Y0030785D01*
X0377935Y0030730D01*
X0377955Y0030673D01*
X0377971Y0030614D01*
X0377984Y0030555D01*
X0377993Y0030496D01*
X0377998Y0030435D01*
X0378000Y0030375D01*
X0374500Y0031375D02*
X0374000Y0030875D01*
X0348000Y0030875D01*
X0347500Y0031375D01*
X0345000Y0031375D01*
X0344940Y0031373D01*
X0344879Y0031368D01*
X0344820Y0031359D01*
X0344761Y0031346D01*
X0344702Y0031330D01*
X0344645Y0031310D01*
X0344590Y0031287D01*
X0344535Y0031260D01*
X0344483Y0031231D01*
X0344432Y0031198D01*
X0344383Y0031162D01*
X0344337Y0031124D01*
X0344293Y0031082D01*
X0344251Y0031038D01*
X0344213Y0030992D01*
X0344177Y0030943D01*
X0344144Y0030892D01*
X0344115Y0030840D01*
X0344088Y0030785D01*
X0344065Y0030730D01*
X0344045Y0030673D01*
X0344029Y0030614D01*
X0344016Y0030555D01*
X0344007Y0030496D01*
X0344002Y0030435D01*
X0344000Y0030375D01*
X0344000Y0020375D02*
X0344002Y0020315D01*
X0344007Y0020254D01*
X0344016Y0020195D01*
X0344029Y0020136D01*
X0344045Y0020077D01*
X0344065Y0020020D01*
X0344088Y0019965D01*
X0344115Y0019910D01*
X0344144Y0019858D01*
X0344177Y0019807D01*
X0344213Y0019758D01*
X0344251Y0019712D01*
X0344293Y0019668D01*
X0344337Y0019626D01*
X0344383Y0019588D01*
X0344432Y0019552D01*
X0344483Y0019519D01*
X0344535Y0019490D01*
X0344590Y0019463D01*
X0344645Y0019440D01*
X0344702Y0019420D01*
X0344761Y0019404D01*
X0344820Y0019391D01*
X0344879Y0019382D01*
X0344940Y0019377D01*
X0345000Y0019375D01*
X0347500Y0019375D01*
X0348000Y0019875D01*
X0374000Y0019875D01*
X0374500Y0019375D01*
X0377000Y0019375D01*
X0377000Y0018875D02*
X0374500Y0018875D01*
X0374000Y0018375D01*
X0348000Y0018375D01*
X0347500Y0018875D01*
X0345000Y0018875D01*
X0344940Y0018873D01*
X0344879Y0018868D01*
X0344820Y0018859D01*
X0344761Y0018846D01*
X0344702Y0018830D01*
X0344645Y0018810D01*
X0344590Y0018787D01*
X0344535Y0018760D01*
X0344483Y0018731D01*
X0344432Y0018698D01*
X0344383Y0018662D01*
X0344337Y0018624D01*
X0344293Y0018582D01*
X0344251Y0018538D01*
X0344213Y0018492D01*
X0344177Y0018443D01*
X0344144Y0018392D01*
X0344115Y0018340D01*
X0344088Y0018285D01*
X0344065Y0018230D01*
X0344045Y0018173D01*
X0344029Y0018114D01*
X0344016Y0018055D01*
X0344007Y0017996D01*
X0344002Y0017935D01*
X0344000Y0017875D01*
X0344000Y0007875D02*
X0344002Y0007815D01*
X0344007Y0007754D01*
X0344016Y0007695D01*
X0344029Y0007636D01*
X0344045Y0007577D01*
X0344065Y0007520D01*
X0344088Y0007465D01*
X0344115Y0007410D01*
X0344144Y0007358D01*
X0344177Y0007307D01*
X0344213Y0007258D01*
X0344251Y0007212D01*
X0344293Y0007168D01*
X0344337Y0007126D01*
X0344383Y0007088D01*
X0344432Y0007052D01*
X0344483Y0007019D01*
X0344535Y0006990D01*
X0344590Y0006963D01*
X0344645Y0006940D01*
X0344702Y0006920D01*
X0344761Y0006904D01*
X0344820Y0006891D01*
X0344879Y0006882D01*
X0344940Y0006877D01*
X0345000Y0006875D01*
X0347500Y0006875D01*
X0348000Y0007375D01*
X0374000Y0007375D01*
X0374500Y0006875D01*
X0377000Y0006875D01*
X0377060Y0006877D01*
X0377121Y0006882D01*
X0377180Y0006891D01*
X0377239Y0006904D01*
X0377298Y0006920D01*
X0377355Y0006940D01*
X0377410Y0006963D01*
X0377465Y0006990D01*
X0377517Y0007019D01*
X0377568Y0007052D01*
X0377617Y0007088D01*
X0377663Y0007126D01*
X0377707Y0007168D01*
X0377749Y0007212D01*
X0377787Y0007258D01*
X0377823Y0007307D01*
X0377856Y0007358D01*
X0377885Y0007410D01*
X0377912Y0007465D01*
X0377935Y0007520D01*
X0377955Y0007577D01*
X0377971Y0007636D01*
X0377984Y0007695D01*
X0377993Y0007754D01*
X0377998Y0007815D01*
X0378000Y0007875D01*
X0378000Y0017875D02*
X0377998Y0017935D01*
X0377993Y0017996D01*
X0377984Y0018055D01*
X0377971Y0018114D01*
X0377955Y0018173D01*
X0377935Y0018230D01*
X0377912Y0018285D01*
X0377885Y0018340D01*
X0377856Y0018392D01*
X0377823Y0018443D01*
X0377787Y0018492D01*
X0377749Y0018538D01*
X0377707Y0018582D01*
X0377663Y0018624D01*
X0377617Y0018662D01*
X0377568Y0018698D01*
X0377517Y0018731D01*
X0377465Y0018760D01*
X0377410Y0018787D01*
X0377355Y0018810D01*
X0377298Y0018830D01*
X0377239Y0018846D01*
X0377180Y0018859D01*
X0377121Y0018868D01*
X0377060Y0018873D01*
X0377000Y0018875D01*
X0377000Y0019375D02*
X0377060Y0019377D01*
X0377121Y0019382D01*
X0377180Y0019391D01*
X0377239Y0019404D01*
X0377298Y0019420D01*
X0377355Y0019440D01*
X0377410Y0019463D01*
X0377465Y0019490D01*
X0377517Y0019519D01*
X0377568Y0019552D01*
X0377617Y0019588D01*
X0377663Y0019626D01*
X0377707Y0019668D01*
X0377749Y0019712D01*
X0377787Y0019758D01*
X0377823Y0019807D01*
X0377856Y0019858D01*
X0377885Y0019910D01*
X0377912Y0019965D01*
X0377935Y0020020D01*
X0377955Y0020077D01*
X0377971Y0020136D01*
X0377984Y0020195D01*
X0377993Y0020254D01*
X0377998Y0020315D01*
X0378000Y0020375D01*
X0315000Y0020875D02*
X0315000Y0014875D01*
X0314998Y0014815D01*
X0314993Y0014754D01*
X0314984Y0014695D01*
X0314971Y0014636D01*
X0314955Y0014577D01*
X0314935Y0014520D01*
X0314912Y0014465D01*
X0314885Y0014410D01*
X0314856Y0014358D01*
X0314823Y0014307D01*
X0314787Y0014258D01*
X0314749Y0014212D01*
X0314707Y0014168D01*
X0314663Y0014126D01*
X0314617Y0014088D01*
X0314568Y0014052D01*
X0314517Y0014019D01*
X0314465Y0013990D01*
X0314410Y0013963D01*
X0314355Y0013940D01*
X0314298Y0013920D01*
X0314239Y0013904D01*
X0314180Y0013891D01*
X0314121Y0013882D01*
X0314060Y0013877D01*
X0314000Y0013875D01*
X0298000Y0013875D01*
X0297940Y0013877D01*
X0297879Y0013882D01*
X0297820Y0013891D01*
X0297761Y0013904D01*
X0297702Y0013920D01*
X0297645Y0013940D01*
X0297590Y0013963D01*
X0297535Y0013990D01*
X0297483Y0014019D01*
X0297432Y0014052D01*
X0297383Y0014088D01*
X0297337Y0014126D01*
X0297293Y0014168D01*
X0297251Y0014212D01*
X0297213Y0014258D01*
X0297177Y0014307D01*
X0297144Y0014358D01*
X0297115Y0014410D01*
X0297088Y0014465D01*
X0297065Y0014520D01*
X0297045Y0014577D01*
X0297029Y0014636D01*
X0297016Y0014695D01*
X0297007Y0014754D01*
X0297002Y0014815D01*
X0297000Y0014875D01*
X0297000Y0020875D01*
X0297002Y0020935D01*
X0297007Y0020996D01*
X0297016Y0021055D01*
X0297029Y0021114D01*
X0297045Y0021173D01*
X0297065Y0021230D01*
X0297088Y0021285D01*
X0297115Y0021340D01*
X0297144Y0021392D01*
X0297177Y0021443D01*
X0297213Y0021492D01*
X0297251Y0021538D01*
X0297293Y0021582D01*
X0297337Y0021624D01*
X0297383Y0021662D01*
X0297432Y0021698D01*
X0297483Y0021731D01*
X0297535Y0021760D01*
X0297590Y0021787D01*
X0297645Y0021810D01*
X0297702Y0021830D01*
X0297761Y0021846D01*
X0297820Y0021859D01*
X0297879Y0021868D01*
X0297940Y0021873D01*
X0298000Y0021875D01*
X0314000Y0021875D01*
X0314060Y0021873D01*
X0314121Y0021868D01*
X0314180Y0021859D01*
X0314239Y0021846D01*
X0314298Y0021830D01*
X0314355Y0021810D01*
X0314410Y0021787D01*
X0314465Y0021760D01*
X0314517Y0021731D01*
X0314568Y0021698D01*
X0314617Y0021662D01*
X0314663Y0021624D01*
X0314707Y0021582D01*
X0314749Y0021538D01*
X0314787Y0021492D01*
X0314823Y0021443D01*
X0314856Y0021392D01*
X0314885Y0021340D01*
X0314912Y0021285D01*
X0314935Y0021230D01*
X0314955Y0021173D01*
X0314971Y0021114D01*
X0314984Y0021055D01*
X0314993Y0020996D01*
X0314998Y0020935D01*
X0315000Y0020875D01*
X0312000Y0017875D02*
X0306000Y0017875D01*
X0306000Y0015375D01*
X0306000Y0017875D02*
X0306000Y0020375D01*
X0306000Y0017875D02*
X0310000Y0020375D01*
X0310000Y0015375D01*
X0306000Y0017875D01*
X0303500Y0017875D01*
X0234000Y0046875D02*
X0232000Y0046875D01*
X0233000Y0047875D02*
X0233000Y0045875D01*
X0216000Y0042875D02*
X0216003Y0043120D01*
X0216012Y0043366D01*
X0216027Y0043611D01*
X0216048Y0043855D01*
X0216075Y0044099D01*
X0216108Y0044342D01*
X0216147Y0044585D01*
X0216192Y0044826D01*
X0216243Y0045066D01*
X0216300Y0045305D01*
X0216362Y0045542D01*
X0216431Y0045778D01*
X0216505Y0046012D01*
X0216585Y0046244D01*
X0216670Y0046474D01*
X0216761Y0046702D01*
X0216858Y0046927D01*
X0216960Y0047151D01*
X0217068Y0047371D01*
X0217181Y0047589D01*
X0217299Y0047804D01*
X0217423Y0048016D01*
X0217551Y0048225D01*
X0217685Y0048431D01*
X0217824Y0048633D01*
X0217968Y0048832D01*
X0218117Y0049027D01*
X0218270Y0049219D01*
X0218428Y0049407D01*
X0218590Y0049591D01*
X0218758Y0049770D01*
X0218929Y0049946D01*
X0219105Y0050117D01*
X0219284Y0050285D01*
X0219468Y0050447D01*
X0219656Y0050605D01*
X0219848Y0050758D01*
X0220043Y0050907D01*
X0220242Y0051051D01*
X0220444Y0051190D01*
X0220650Y0051324D01*
X0220859Y0051452D01*
X0221071Y0051576D01*
X0221286Y0051694D01*
X0221504Y0051807D01*
X0221724Y0051915D01*
X0221948Y0052017D01*
X0222173Y0052114D01*
X0222401Y0052205D01*
X0222631Y0052290D01*
X0222863Y0052370D01*
X0223097Y0052444D01*
X0223333Y0052513D01*
X0223570Y0052575D01*
X0223809Y0052632D01*
X0224049Y0052683D01*
X0224290Y0052728D01*
X0224533Y0052767D01*
X0224776Y0052800D01*
X0225020Y0052827D01*
X0225264Y0052848D01*
X0225509Y0052863D01*
X0225755Y0052872D01*
X0226000Y0052875D01*
X0226245Y0052872D01*
X0226491Y0052863D01*
X0226736Y0052848D01*
X0226980Y0052827D01*
X0227224Y0052800D01*
X0227467Y0052767D01*
X0227710Y0052728D01*
X0227951Y0052683D01*
X0228191Y0052632D01*
X0228430Y0052575D01*
X0228667Y0052513D01*
X0228903Y0052444D01*
X0229137Y0052370D01*
X0229369Y0052290D01*
X0229599Y0052205D01*
X0229827Y0052114D01*
X0230052Y0052017D01*
X0230276Y0051915D01*
X0230496Y0051807D01*
X0230714Y0051694D01*
X0230929Y0051576D01*
X0231141Y0051452D01*
X0231350Y0051324D01*
X0231556Y0051190D01*
X0231758Y0051051D01*
X0231957Y0050907D01*
X0232152Y0050758D01*
X0232344Y0050605D01*
X0232532Y0050447D01*
X0232716Y0050285D01*
X0232895Y0050117D01*
X0233071Y0049946D01*
X0233242Y0049770D01*
X0233410Y0049591D01*
X0233572Y0049407D01*
X0233730Y0049219D01*
X0233883Y0049027D01*
X0234032Y0048832D01*
X0234176Y0048633D01*
X0234315Y0048431D01*
X0234449Y0048225D01*
X0234577Y0048016D01*
X0234701Y0047804D01*
X0234819Y0047589D01*
X0234932Y0047371D01*
X0235040Y0047151D01*
X0235142Y0046927D01*
X0235239Y0046702D01*
X0235330Y0046474D01*
X0235415Y0046244D01*
X0235495Y0046012D01*
X0235569Y0045778D01*
X0235638Y0045542D01*
X0235700Y0045305D01*
X0235757Y0045066D01*
X0235808Y0044826D01*
X0235853Y0044585D01*
X0235892Y0044342D01*
X0235925Y0044099D01*
X0235952Y0043855D01*
X0235973Y0043611D01*
X0235988Y0043366D01*
X0235997Y0043120D01*
X0236000Y0042875D01*
X0235997Y0042630D01*
X0235988Y0042384D01*
X0235973Y0042139D01*
X0235952Y0041895D01*
X0235925Y0041651D01*
X0235892Y0041408D01*
X0235853Y0041165D01*
X0235808Y0040924D01*
X0235757Y0040684D01*
X0235700Y0040445D01*
X0235638Y0040208D01*
X0235569Y0039972D01*
X0235495Y0039738D01*
X0235415Y0039506D01*
X0235330Y0039276D01*
X0235239Y0039048D01*
X0235142Y0038823D01*
X0235040Y0038599D01*
X0234932Y0038379D01*
X0234819Y0038161D01*
X0234701Y0037946D01*
X0234577Y0037734D01*
X0234449Y0037525D01*
X0234315Y0037319D01*
X0234176Y0037117D01*
X0234032Y0036918D01*
X0233883Y0036723D01*
X0233730Y0036531D01*
X0233572Y0036343D01*
X0233410Y0036159D01*
X0233242Y0035980D01*
X0233071Y0035804D01*
X0232895Y0035633D01*
X0232716Y0035465D01*
X0232532Y0035303D01*
X0232344Y0035145D01*
X0232152Y0034992D01*
X0231957Y0034843D01*
X0231758Y0034699D01*
X0231556Y0034560D01*
X0231350Y0034426D01*
X0231141Y0034298D01*
X0230929Y0034174D01*
X0230714Y0034056D01*
X0230496Y0033943D01*
X0230276Y0033835D01*
X0230052Y0033733D01*
X0229827Y0033636D01*
X0229599Y0033545D01*
X0229369Y0033460D01*
X0229137Y0033380D01*
X0228903Y0033306D01*
X0228667Y0033237D01*
X0228430Y0033175D01*
X0228191Y0033118D01*
X0227951Y0033067D01*
X0227710Y0033022D01*
X0227467Y0032983D01*
X0227224Y0032950D01*
X0226980Y0032923D01*
X0226736Y0032902D01*
X0226491Y0032887D01*
X0226245Y0032878D01*
X0226000Y0032875D01*
X0225755Y0032878D01*
X0225509Y0032887D01*
X0225264Y0032902D01*
X0225020Y0032923D01*
X0224776Y0032950D01*
X0224533Y0032983D01*
X0224290Y0033022D01*
X0224049Y0033067D01*
X0223809Y0033118D01*
X0223570Y0033175D01*
X0223333Y0033237D01*
X0223097Y0033306D01*
X0222863Y0033380D01*
X0222631Y0033460D01*
X0222401Y0033545D01*
X0222173Y0033636D01*
X0221948Y0033733D01*
X0221724Y0033835D01*
X0221504Y0033943D01*
X0221286Y0034056D01*
X0221071Y0034174D01*
X0220859Y0034298D01*
X0220650Y0034426D01*
X0220444Y0034560D01*
X0220242Y0034699D01*
X0220043Y0034843D01*
X0219848Y0034992D01*
X0219656Y0035145D01*
X0219468Y0035303D01*
X0219284Y0035465D01*
X0219105Y0035633D01*
X0218929Y0035804D01*
X0218758Y0035980D01*
X0218590Y0036159D01*
X0218428Y0036343D01*
X0218270Y0036531D01*
X0218117Y0036723D01*
X0217968Y0036918D01*
X0217824Y0037117D01*
X0217685Y0037319D01*
X0217551Y0037525D01*
X0217423Y0037734D01*
X0217299Y0037946D01*
X0217181Y0038161D01*
X0217068Y0038379D01*
X0216960Y0038599D01*
X0216858Y0038823D01*
X0216761Y0039048D01*
X0216670Y0039276D01*
X0216585Y0039506D01*
X0216505Y0039738D01*
X0216431Y0039972D01*
X0216362Y0040208D01*
X0216300Y0040445D01*
X0216243Y0040684D01*
X0216192Y0040924D01*
X0216147Y0041165D01*
X0216108Y0041408D01*
X0216075Y0041651D01*
X0216048Y0041895D01*
X0216027Y0042139D01*
X0216012Y0042384D01*
X0216003Y0042630D01*
X0216000Y0042875D01*
X0208000Y0036375D02*
X0208000Y0049375D01*
X0207998Y0049462D01*
X0207992Y0049549D01*
X0207983Y0049636D01*
X0207970Y0049722D01*
X0207953Y0049808D01*
X0207932Y0049893D01*
X0207907Y0049976D01*
X0207879Y0050059D01*
X0207848Y0050140D01*
X0207813Y0050220D01*
X0207774Y0050298D01*
X0207732Y0050375D01*
X0207687Y0050450D01*
X0207638Y0050522D01*
X0207587Y0050593D01*
X0207532Y0050661D01*
X0207475Y0050726D01*
X0207414Y0050789D01*
X0207351Y0050850D01*
X0207286Y0050907D01*
X0207218Y0050962D01*
X0207147Y0051013D01*
X0207075Y0051062D01*
X0207000Y0051107D01*
X0206923Y0051149D01*
X0206845Y0051188D01*
X0206765Y0051223D01*
X0206684Y0051254D01*
X0206601Y0051282D01*
X0206518Y0051307D01*
X0206433Y0051328D01*
X0206347Y0051345D01*
X0206261Y0051358D01*
X0206174Y0051367D01*
X0206087Y0051373D01*
X0206000Y0051375D01*
X0201000Y0051375D01*
X0200913Y0051373D01*
X0200826Y0051367D01*
X0200739Y0051358D01*
X0200653Y0051345D01*
X0200567Y0051328D01*
X0200482Y0051307D01*
X0200399Y0051282D01*
X0200316Y0051254D01*
X0200235Y0051223D01*
X0200155Y0051188D01*
X0200077Y0051149D01*
X0200000Y0051107D01*
X0199925Y0051062D01*
X0199853Y0051013D01*
X0199782Y0050962D01*
X0199714Y0050907D01*
X0199649Y0050850D01*
X0199586Y0050789D01*
X0199525Y0050726D01*
X0199468Y0050661D01*
X0199413Y0050593D01*
X0199362Y0050522D01*
X0199313Y0050450D01*
X0199268Y0050375D01*
X0199226Y0050298D01*
X0199187Y0050220D01*
X0199152Y0050140D01*
X0199121Y0050059D01*
X0199093Y0049976D01*
X0199068Y0049893D01*
X0199047Y0049808D01*
X0199030Y0049722D01*
X0199017Y0049636D01*
X0199008Y0049549D01*
X0199002Y0049462D01*
X0199000Y0049375D01*
X0199000Y0036375D01*
X0199002Y0036288D01*
X0199008Y0036201D01*
X0199017Y0036114D01*
X0199030Y0036028D01*
X0199047Y0035942D01*
X0199068Y0035857D01*
X0199093Y0035774D01*
X0199121Y0035691D01*
X0199152Y0035610D01*
X0199187Y0035530D01*
X0199226Y0035452D01*
X0199268Y0035375D01*
X0199313Y0035300D01*
X0199362Y0035228D01*
X0199413Y0035157D01*
X0199468Y0035089D01*
X0199525Y0035024D01*
X0199586Y0034961D01*
X0199649Y0034900D01*
X0199714Y0034843D01*
X0199782Y0034788D01*
X0199853Y0034737D01*
X0199925Y0034688D01*
X0200000Y0034643D01*
X0200077Y0034601D01*
X0200155Y0034562D01*
X0200235Y0034527D01*
X0200316Y0034496D01*
X0200399Y0034468D01*
X0200482Y0034443D01*
X0200567Y0034422D01*
X0200653Y0034405D01*
X0200739Y0034392D01*
X0200826Y0034383D01*
X0200913Y0034377D01*
X0201000Y0034375D01*
X0206000Y0034375D01*
X0206087Y0034377D01*
X0206174Y0034383D01*
X0206261Y0034392D01*
X0206347Y0034405D01*
X0206433Y0034422D01*
X0206518Y0034443D01*
X0206601Y0034468D01*
X0206684Y0034496D01*
X0206765Y0034527D01*
X0206845Y0034562D01*
X0206923Y0034601D01*
X0207000Y0034643D01*
X0207075Y0034688D01*
X0207147Y0034737D01*
X0207218Y0034788D01*
X0207286Y0034843D01*
X0207351Y0034900D01*
X0207414Y0034961D01*
X0207475Y0035024D01*
X0207532Y0035089D01*
X0207587Y0035157D01*
X0207638Y0035228D01*
X0207687Y0035300D01*
X0207732Y0035375D01*
X0207774Y0035452D01*
X0207813Y0035530D01*
X0207848Y0035610D01*
X0207879Y0035691D01*
X0207907Y0035774D01*
X0207932Y0035857D01*
X0207953Y0035942D01*
X0207970Y0036028D01*
X0207983Y0036114D01*
X0207992Y0036201D01*
X0207998Y0036288D01*
X0208000Y0036375D01*
X0185500Y0036375D02*
X0185500Y0049375D01*
X0185498Y0049462D01*
X0185492Y0049549D01*
X0185483Y0049636D01*
X0185470Y0049722D01*
X0185453Y0049808D01*
X0185432Y0049893D01*
X0185407Y0049976D01*
X0185379Y0050059D01*
X0185348Y0050140D01*
X0185313Y0050220D01*
X0185274Y0050298D01*
X0185232Y0050375D01*
X0185187Y0050450D01*
X0185138Y0050522D01*
X0185087Y0050593D01*
X0185032Y0050661D01*
X0184975Y0050726D01*
X0184914Y0050789D01*
X0184851Y0050850D01*
X0184786Y0050907D01*
X0184718Y0050962D01*
X0184647Y0051013D01*
X0184575Y0051062D01*
X0184500Y0051107D01*
X0184423Y0051149D01*
X0184345Y0051188D01*
X0184265Y0051223D01*
X0184184Y0051254D01*
X0184101Y0051282D01*
X0184018Y0051307D01*
X0183933Y0051328D01*
X0183847Y0051345D01*
X0183761Y0051358D01*
X0183674Y0051367D01*
X0183587Y0051373D01*
X0183500Y0051375D01*
X0178500Y0051375D01*
X0178413Y0051373D01*
X0178326Y0051367D01*
X0178239Y0051358D01*
X0178153Y0051345D01*
X0178067Y0051328D01*
X0177982Y0051307D01*
X0177899Y0051282D01*
X0177816Y0051254D01*
X0177735Y0051223D01*
X0177655Y0051188D01*
X0177577Y0051149D01*
X0177500Y0051107D01*
X0177425Y0051062D01*
X0177353Y0051013D01*
X0177282Y0050962D01*
X0177214Y0050907D01*
X0177149Y0050850D01*
X0177086Y0050789D01*
X0177025Y0050726D01*
X0176968Y0050661D01*
X0176913Y0050593D01*
X0176862Y0050522D01*
X0176813Y0050450D01*
X0176768Y0050375D01*
X0176726Y0050298D01*
X0176687Y0050220D01*
X0176652Y0050140D01*
X0176621Y0050059D01*
X0176593Y0049976D01*
X0176568Y0049893D01*
X0176547Y0049808D01*
X0176530Y0049722D01*
X0176517Y0049636D01*
X0176508Y0049549D01*
X0176502Y0049462D01*
X0176500Y0049375D01*
X0176500Y0036375D01*
X0176502Y0036288D01*
X0176508Y0036201D01*
X0176517Y0036114D01*
X0176530Y0036028D01*
X0176547Y0035942D01*
X0176568Y0035857D01*
X0176593Y0035774D01*
X0176621Y0035691D01*
X0176652Y0035610D01*
X0176687Y0035530D01*
X0176726Y0035452D01*
X0176768Y0035375D01*
X0176813Y0035300D01*
X0176862Y0035228D01*
X0176913Y0035157D01*
X0176968Y0035089D01*
X0177025Y0035024D01*
X0177086Y0034961D01*
X0177149Y0034900D01*
X0177214Y0034843D01*
X0177282Y0034788D01*
X0177353Y0034737D01*
X0177425Y0034688D01*
X0177500Y0034643D01*
X0177577Y0034601D01*
X0177655Y0034562D01*
X0177735Y0034527D01*
X0177816Y0034496D01*
X0177899Y0034468D01*
X0177982Y0034443D01*
X0178067Y0034422D01*
X0178153Y0034405D01*
X0178239Y0034392D01*
X0178326Y0034383D01*
X0178413Y0034377D01*
X0178500Y0034375D01*
X0183500Y0034375D01*
X0183587Y0034377D01*
X0183674Y0034383D01*
X0183761Y0034392D01*
X0183847Y0034405D01*
X0183933Y0034422D01*
X0184018Y0034443D01*
X0184101Y0034468D01*
X0184184Y0034496D01*
X0184265Y0034527D01*
X0184345Y0034562D01*
X0184423Y0034601D01*
X0184500Y0034643D01*
X0184575Y0034688D01*
X0184647Y0034737D01*
X0184718Y0034788D01*
X0184786Y0034843D01*
X0184851Y0034900D01*
X0184914Y0034961D01*
X0184975Y0035024D01*
X0185032Y0035089D01*
X0185087Y0035157D01*
X0185138Y0035228D01*
X0185187Y0035300D01*
X0185232Y0035375D01*
X0185274Y0035452D01*
X0185313Y0035530D01*
X0185348Y0035610D01*
X0185379Y0035691D01*
X0185407Y0035774D01*
X0185432Y0035857D01*
X0185453Y0035942D01*
X0185470Y0036028D01*
X0185483Y0036114D01*
X0185492Y0036201D01*
X0185498Y0036288D01*
X0185500Y0036375D01*
X0166500Y0046875D02*
X0164500Y0046875D01*
X0165500Y0047875D02*
X0165500Y0045875D01*
X0148500Y0042875D02*
X0148503Y0043120D01*
X0148512Y0043366D01*
X0148527Y0043611D01*
X0148548Y0043855D01*
X0148575Y0044099D01*
X0148608Y0044342D01*
X0148647Y0044585D01*
X0148692Y0044826D01*
X0148743Y0045066D01*
X0148800Y0045305D01*
X0148862Y0045542D01*
X0148931Y0045778D01*
X0149005Y0046012D01*
X0149085Y0046244D01*
X0149170Y0046474D01*
X0149261Y0046702D01*
X0149358Y0046927D01*
X0149460Y0047151D01*
X0149568Y0047371D01*
X0149681Y0047589D01*
X0149799Y0047804D01*
X0149923Y0048016D01*
X0150051Y0048225D01*
X0150185Y0048431D01*
X0150324Y0048633D01*
X0150468Y0048832D01*
X0150617Y0049027D01*
X0150770Y0049219D01*
X0150928Y0049407D01*
X0151090Y0049591D01*
X0151258Y0049770D01*
X0151429Y0049946D01*
X0151605Y0050117D01*
X0151784Y0050285D01*
X0151968Y0050447D01*
X0152156Y0050605D01*
X0152348Y0050758D01*
X0152543Y0050907D01*
X0152742Y0051051D01*
X0152944Y0051190D01*
X0153150Y0051324D01*
X0153359Y0051452D01*
X0153571Y0051576D01*
X0153786Y0051694D01*
X0154004Y0051807D01*
X0154224Y0051915D01*
X0154448Y0052017D01*
X0154673Y0052114D01*
X0154901Y0052205D01*
X0155131Y0052290D01*
X0155363Y0052370D01*
X0155597Y0052444D01*
X0155833Y0052513D01*
X0156070Y0052575D01*
X0156309Y0052632D01*
X0156549Y0052683D01*
X0156790Y0052728D01*
X0157033Y0052767D01*
X0157276Y0052800D01*
X0157520Y0052827D01*
X0157764Y0052848D01*
X0158009Y0052863D01*
X0158255Y0052872D01*
X0158500Y0052875D01*
X0158745Y0052872D01*
X0158991Y0052863D01*
X0159236Y0052848D01*
X0159480Y0052827D01*
X0159724Y0052800D01*
X0159967Y0052767D01*
X0160210Y0052728D01*
X0160451Y0052683D01*
X0160691Y0052632D01*
X0160930Y0052575D01*
X0161167Y0052513D01*
X0161403Y0052444D01*
X0161637Y0052370D01*
X0161869Y0052290D01*
X0162099Y0052205D01*
X0162327Y0052114D01*
X0162552Y0052017D01*
X0162776Y0051915D01*
X0162996Y0051807D01*
X0163214Y0051694D01*
X0163429Y0051576D01*
X0163641Y0051452D01*
X0163850Y0051324D01*
X0164056Y0051190D01*
X0164258Y0051051D01*
X0164457Y0050907D01*
X0164652Y0050758D01*
X0164844Y0050605D01*
X0165032Y0050447D01*
X0165216Y0050285D01*
X0165395Y0050117D01*
X0165571Y0049946D01*
X0165742Y0049770D01*
X0165910Y0049591D01*
X0166072Y0049407D01*
X0166230Y0049219D01*
X0166383Y0049027D01*
X0166532Y0048832D01*
X0166676Y0048633D01*
X0166815Y0048431D01*
X0166949Y0048225D01*
X0167077Y0048016D01*
X0167201Y0047804D01*
X0167319Y0047589D01*
X0167432Y0047371D01*
X0167540Y0047151D01*
X0167642Y0046927D01*
X0167739Y0046702D01*
X0167830Y0046474D01*
X0167915Y0046244D01*
X0167995Y0046012D01*
X0168069Y0045778D01*
X0168138Y0045542D01*
X0168200Y0045305D01*
X0168257Y0045066D01*
X0168308Y0044826D01*
X0168353Y0044585D01*
X0168392Y0044342D01*
X0168425Y0044099D01*
X0168452Y0043855D01*
X0168473Y0043611D01*
X0168488Y0043366D01*
X0168497Y0043120D01*
X0168500Y0042875D01*
X0168497Y0042630D01*
X0168488Y0042384D01*
X0168473Y0042139D01*
X0168452Y0041895D01*
X0168425Y0041651D01*
X0168392Y0041408D01*
X0168353Y0041165D01*
X0168308Y0040924D01*
X0168257Y0040684D01*
X0168200Y0040445D01*
X0168138Y0040208D01*
X0168069Y0039972D01*
X0167995Y0039738D01*
X0167915Y0039506D01*
X0167830Y0039276D01*
X0167739Y0039048D01*
X0167642Y0038823D01*
X0167540Y0038599D01*
X0167432Y0038379D01*
X0167319Y0038161D01*
X0167201Y0037946D01*
X0167077Y0037734D01*
X0166949Y0037525D01*
X0166815Y0037319D01*
X0166676Y0037117D01*
X0166532Y0036918D01*
X0166383Y0036723D01*
X0166230Y0036531D01*
X0166072Y0036343D01*
X0165910Y0036159D01*
X0165742Y0035980D01*
X0165571Y0035804D01*
X0165395Y0035633D01*
X0165216Y0035465D01*
X0165032Y0035303D01*
X0164844Y0035145D01*
X0164652Y0034992D01*
X0164457Y0034843D01*
X0164258Y0034699D01*
X0164056Y0034560D01*
X0163850Y0034426D01*
X0163641Y0034298D01*
X0163429Y0034174D01*
X0163214Y0034056D01*
X0162996Y0033943D01*
X0162776Y0033835D01*
X0162552Y0033733D01*
X0162327Y0033636D01*
X0162099Y0033545D01*
X0161869Y0033460D01*
X0161637Y0033380D01*
X0161403Y0033306D01*
X0161167Y0033237D01*
X0160930Y0033175D01*
X0160691Y0033118D01*
X0160451Y0033067D01*
X0160210Y0033022D01*
X0159967Y0032983D01*
X0159724Y0032950D01*
X0159480Y0032923D01*
X0159236Y0032902D01*
X0158991Y0032887D01*
X0158745Y0032878D01*
X0158500Y0032875D01*
X0158255Y0032878D01*
X0158009Y0032887D01*
X0157764Y0032902D01*
X0157520Y0032923D01*
X0157276Y0032950D01*
X0157033Y0032983D01*
X0156790Y0033022D01*
X0156549Y0033067D01*
X0156309Y0033118D01*
X0156070Y0033175D01*
X0155833Y0033237D01*
X0155597Y0033306D01*
X0155363Y0033380D01*
X0155131Y0033460D01*
X0154901Y0033545D01*
X0154673Y0033636D01*
X0154448Y0033733D01*
X0154224Y0033835D01*
X0154004Y0033943D01*
X0153786Y0034056D01*
X0153571Y0034174D01*
X0153359Y0034298D01*
X0153150Y0034426D01*
X0152944Y0034560D01*
X0152742Y0034699D01*
X0152543Y0034843D01*
X0152348Y0034992D01*
X0152156Y0035145D01*
X0151968Y0035303D01*
X0151784Y0035465D01*
X0151605Y0035633D01*
X0151429Y0035804D01*
X0151258Y0035980D01*
X0151090Y0036159D01*
X0150928Y0036343D01*
X0150770Y0036531D01*
X0150617Y0036723D01*
X0150468Y0036918D01*
X0150324Y0037117D01*
X0150185Y0037319D01*
X0150051Y0037525D01*
X0149923Y0037734D01*
X0149799Y0037946D01*
X0149681Y0038161D01*
X0149568Y0038379D01*
X0149460Y0038599D01*
X0149358Y0038823D01*
X0149261Y0039048D01*
X0149170Y0039276D01*
X0149085Y0039506D01*
X0149005Y0039738D01*
X0148931Y0039972D01*
X0148862Y0040208D01*
X0148800Y0040445D01*
X0148743Y0040684D01*
X0148692Y0040924D01*
X0148647Y0041165D01*
X0148608Y0041408D01*
X0148575Y0041651D01*
X0148548Y0041895D01*
X0148527Y0042139D01*
X0148512Y0042384D01*
X0148503Y0042630D01*
X0148500Y0042875D01*
X0133639Y0018148D02*
X0133639Y0017080D01*
X0133639Y0014945D02*
X0133639Y0010675D01*
X0132572Y0010675D02*
X0134707Y0010675D01*
X0136869Y0010675D02*
X0136869Y0014945D01*
X0140071Y0014945D01*
X0141139Y0013877D01*
X0141139Y0010675D01*
X0133639Y0014945D02*
X0132572Y0014945D01*
X0130397Y0013877D02*
X0130397Y0010675D01*
X0127194Y0010675D01*
X0126126Y0011742D01*
X0127194Y0012810D01*
X0130397Y0012810D01*
X0130397Y0013877D02*
X0129329Y0014945D01*
X0127194Y0014945D01*
X0123951Y0013877D02*
X0123951Y0010675D01*
X0121816Y0010675D02*
X0121816Y0013877D01*
X0122883Y0014945D01*
X0123951Y0013877D01*
X0121816Y0013877D02*
X0120748Y0014945D01*
X0119681Y0014945D01*
X0119681Y0010675D01*
X0117526Y0010675D02*
X0116458Y0010675D01*
X0116458Y0011742D01*
X0117526Y0011742D01*
X0117526Y0010675D01*
X0114283Y0010675D02*
X0110012Y0010675D01*
X0112148Y0010675D02*
X0112148Y0017080D01*
X0110012Y0014945D01*
X0104615Y0014945D02*
X0104615Y0016012D01*
X0103547Y0017080D01*
X0101412Y0017080D01*
X0100344Y0016012D01*
X0104615Y0014945D02*
X0100344Y0010675D01*
X0104615Y0010675D01*
X0106790Y0010675D02*
X0107857Y0010675D01*
X0107857Y0011742D01*
X0106790Y0011742D01*
X0106790Y0010675D01*
X0098189Y0010675D02*
X0097121Y0010675D01*
X0097121Y0011742D01*
X0098189Y0011742D01*
X0098189Y0010675D01*
X0094946Y0014945D02*
X0092811Y0010675D01*
X0090676Y0014945D01*
X0088501Y0014945D02*
X0085298Y0014945D01*
X0084230Y0013877D01*
X0084230Y0011742D01*
X0085298Y0010675D01*
X0088501Y0010675D01*
X0082055Y0010675D02*
X0077785Y0010675D01*
X0082055Y0014945D01*
X0082055Y0016012D01*
X0080988Y0017080D01*
X0078853Y0017080D01*
X0077785Y0016012D01*
X0074556Y0014945D02*
X0074556Y0010675D01*
X0075623Y0010675D02*
X0073488Y0010675D01*
X0071313Y0010675D02*
X0068110Y0010675D01*
X0067042Y0011742D01*
X0067042Y0013877D01*
X0068110Y0014945D01*
X0071313Y0014945D01*
X0073488Y0014945D02*
X0074556Y0014945D01*
X0074556Y0017080D02*
X0074556Y0018148D01*
X0071313Y0017080D02*
X0071313Y0010675D01*
X0064881Y0010675D02*
X0062745Y0010675D01*
X0063813Y0010675D02*
X0063813Y0014945D01*
X0062745Y0014945D01*
X0060570Y0013877D02*
X0060570Y0010675D01*
X0058435Y0010675D02*
X0058435Y0013877D01*
X0059503Y0014945D01*
X0060570Y0013877D01*
X0058435Y0013877D02*
X0057368Y0014945D01*
X0056300Y0014945D01*
X0056300Y0010675D01*
X0063813Y0017080D02*
X0063813Y0018148D01*
X0171000Y0015375D02*
X0171000Y0010375D01*
X0173500Y0007875D01*
X0178500Y0007875D01*
X0181000Y0010375D01*
X0183500Y0007875D01*
X0188500Y0007875D01*
X0191000Y0010375D01*
X0193500Y0007875D01*
X0198500Y0007875D01*
X0201000Y0010375D01*
X0203500Y0007875D01*
X0208500Y0007875D01*
X0211000Y0010375D01*
X0211000Y0015375D01*
X0208500Y0017875D01*
X0203500Y0017875D01*
X0201000Y0015375D01*
X0198500Y0017875D01*
X0193500Y0017875D01*
X0191000Y0015375D01*
X0188500Y0017875D01*
X0183500Y0017875D01*
X0181000Y0015375D01*
X0178500Y0017875D01*
X0173500Y0017875D01*
X0171000Y0015375D01*
D12*
X0178000Y0041575D02*
X0184000Y0041575D01*
X0184000Y0044075D02*
X0178000Y0044075D01*
X0200500Y0044075D02*
X0206500Y0044075D01*
X0206500Y0041575D02*
X0200500Y0041575D01*
X0139000Y0041575D02*
X0133000Y0041575D01*
X0133000Y0044075D02*
X0139000Y0044075D01*
X0116500Y0044075D02*
X0110500Y0044075D01*
X0110500Y0041575D02*
X0116500Y0041575D01*
X0094000Y0041575D02*
X0088000Y0041575D01*
X0088000Y0044075D02*
X0094000Y0044075D01*
X0071500Y0044075D02*
X0065500Y0044075D01*
X0065500Y0041575D02*
X0071500Y0041575D01*
X0138000Y0134175D02*
X0144000Y0134175D01*
X0144000Y0136675D02*
X0138000Y0136675D01*
X0163000Y0136675D02*
X0169000Y0136675D01*
X0169000Y0134175D02*
X0163000Y0134175D01*
X0190500Y0134075D02*
X0196500Y0134075D01*
X0196500Y0136575D02*
X0190500Y0136575D01*
X0294800Y0138375D02*
X0294800Y0132375D01*
X0297300Y0132375D02*
X0297300Y0138375D01*
X0297200Y0149875D02*
X0297200Y0155875D01*
X0294700Y0155875D02*
X0294700Y0149875D01*
D13*
X0304042Y0150875D02*
X0304042Y0153878D01*
X0304793Y0154628D01*
X0306294Y0154628D01*
X0307045Y0153878D01*
X0308646Y0153878D02*
X0309397Y0154628D01*
X0310898Y0154628D01*
X0311649Y0153878D01*
X0311649Y0153127D01*
X0310898Y0152376D01*
X0311649Y0151626D01*
X0311649Y0150875D01*
X0310898Y0150125D01*
X0309397Y0150125D01*
X0308646Y0150875D01*
X0307045Y0150875D02*
X0306294Y0150125D01*
X0304793Y0150125D01*
X0304042Y0150875D01*
X0310147Y0152376D02*
X0310898Y0152376D01*
X0309002Y0138128D02*
X0307501Y0138128D01*
X0306750Y0137378D01*
X0306750Y0134375D01*
X0307501Y0133625D01*
X0309002Y0133625D01*
X0309753Y0134375D01*
X0311354Y0133625D02*
X0314356Y0133625D01*
X0312855Y0133625D02*
X0312855Y0138128D01*
X0311354Y0136627D01*
X0309753Y0137378D02*
X0309002Y0138128D01*
X0313750Y0119023D02*
X0313750Y0116021D01*
X0313750Y0117522D02*
X0309246Y0117522D01*
X0310747Y0116021D01*
X0309997Y0114419D02*
X0312999Y0114419D01*
X0313750Y0113669D01*
X0313750Y0112167D01*
X0312999Y0111417D01*
X0309997Y0111417D01*
X0309246Y0112167D01*
X0309246Y0113669D01*
X0309997Y0114419D01*
X0312249Y0112918D02*
X0313750Y0114419D01*
X0228250Y0094773D02*
X0228250Y0093271D01*
X0227499Y0092521D01*
X0226749Y0092521D01*
X0225998Y0093271D01*
X0225998Y0094773D01*
X0226749Y0095523D01*
X0227499Y0095523D01*
X0228250Y0094773D01*
X0225998Y0094773D02*
X0225247Y0095523D01*
X0224497Y0095523D01*
X0223746Y0094773D01*
X0223746Y0093271D01*
X0224497Y0092521D01*
X0225247Y0092521D01*
X0225998Y0093271D01*
X0225998Y0090919D02*
X0226749Y0090169D01*
X0226749Y0087917D01*
X0226749Y0089418D02*
X0228250Y0090919D01*
X0225998Y0090919D02*
X0224497Y0090919D01*
X0223746Y0090169D01*
X0223746Y0087917D01*
X0228250Y0087917D01*
X0188250Y0089231D02*
X0188250Y0086228D01*
X0185247Y0089231D01*
X0184497Y0089231D01*
X0183746Y0088480D01*
X0183746Y0086979D01*
X0184497Y0086228D01*
X0184497Y0084627D02*
X0183746Y0083876D01*
X0183746Y0081625D01*
X0188250Y0081625D01*
X0188250Y0083876D01*
X0187499Y0084627D01*
X0184497Y0084627D01*
X0163649Y0088125D02*
X0160646Y0088125D01*
X0163649Y0091127D01*
X0163649Y0091878D01*
X0162898Y0092628D01*
X0161397Y0092628D01*
X0160646Y0091878D01*
X0157543Y0092628D02*
X0157543Y0088125D01*
X0156042Y0088125D02*
X0159045Y0088125D01*
X0156042Y0091127D02*
X0157543Y0092628D01*
X0154441Y0091878D02*
X0154441Y0090376D01*
X0153690Y0089626D01*
X0151438Y0089626D01*
X0152939Y0089626D02*
X0154441Y0088125D01*
X0151438Y0088125D02*
X0151438Y0092628D01*
X0153690Y0092628D01*
X0154441Y0091878D01*
X0154750Y0103125D02*
X0154750Y0107628D01*
X0157002Y0107628D01*
X0157753Y0106878D01*
X0157753Y0105376D01*
X0157002Y0104626D01*
X0154750Y0104626D01*
X0156251Y0104626D02*
X0157753Y0103125D01*
X0159354Y0103125D02*
X0162356Y0103125D01*
X0160855Y0103125D02*
X0160855Y0107628D01*
X0159354Y0106127D01*
X0159499Y0128625D02*
X0156497Y0128625D01*
X0155746Y0129375D01*
X0155746Y0130876D01*
X0156497Y0131627D01*
X0155746Y0133228D02*
X0157998Y0133228D01*
X0157247Y0134730D01*
X0157247Y0135480D01*
X0157998Y0136231D01*
X0159499Y0136231D01*
X0160250Y0135480D01*
X0160250Y0133979D01*
X0159499Y0133228D01*
X0159499Y0131627D02*
X0160250Y0130876D01*
X0160250Y0129375D01*
X0159499Y0128625D01*
X0155746Y0133228D02*
X0155746Y0136231D01*
X0135250Y0135480D02*
X0130746Y0135480D01*
X0132998Y0133228D01*
X0132998Y0136231D01*
X0131497Y0131627D02*
X0130746Y0130876D01*
X0130746Y0129375D01*
X0131497Y0128625D01*
X0134499Y0128625D01*
X0135250Y0129375D01*
X0135250Y0130876D01*
X0134499Y0131627D01*
X0099106Y0107628D02*
X0096854Y0105376D01*
X0099856Y0105376D01*
X0099106Y0103125D02*
X0099106Y0107628D01*
X0095253Y0106878D02*
X0095253Y0105376D01*
X0094502Y0104626D01*
X0092250Y0104626D01*
X0093751Y0104626D02*
X0095253Y0103125D01*
X0092250Y0103125D02*
X0092250Y0107628D01*
X0094502Y0107628D01*
X0095253Y0106878D01*
X0095646Y0092628D02*
X0095646Y0090376D01*
X0097147Y0091127D01*
X0097898Y0091127D01*
X0098649Y0090376D01*
X0098649Y0088875D01*
X0097898Y0088125D01*
X0096397Y0088125D01*
X0095646Y0088875D01*
X0094045Y0088125D02*
X0092543Y0089626D01*
X0093294Y0089626D02*
X0091042Y0089626D01*
X0091042Y0088125D02*
X0091042Y0092628D01*
X0093294Y0092628D01*
X0094045Y0091878D01*
X0094045Y0090376D01*
X0093294Y0089626D01*
X0095646Y0092628D02*
X0098649Y0092628D01*
X0099106Y0077628D02*
X0097605Y0077628D01*
X0096854Y0076878D01*
X0095253Y0076878D02*
X0095253Y0075376D01*
X0094502Y0074626D01*
X0092250Y0074626D01*
X0093751Y0074626D02*
X0095253Y0073125D01*
X0096854Y0073875D02*
X0097605Y0073125D01*
X0099106Y0073125D01*
X0099856Y0073875D01*
X0099856Y0074626D01*
X0099106Y0075376D01*
X0098355Y0075376D01*
X0099106Y0075376D02*
X0099856Y0076127D01*
X0099856Y0076878D01*
X0099106Y0077628D01*
X0095253Y0076878D02*
X0094502Y0077628D01*
X0092250Y0077628D01*
X0092250Y0073125D01*
X0092250Y0062628D02*
X0094502Y0062628D01*
X0095253Y0061878D01*
X0095253Y0060376D01*
X0094502Y0059626D01*
X0092250Y0059626D01*
X0093751Y0059626D02*
X0095253Y0058125D01*
X0096854Y0058125D02*
X0099856Y0061127D01*
X0099856Y0061878D01*
X0099106Y0062628D01*
X0097605Y0062628D01*
X0096854Y0061878D01*
X0092250Y0062628D02*
X0092250Y0058125D01*
X0096854Y0058125D02*
X0099856Y0058125D01*
X0099749Y0048523D02*
X0098998Y0047773D01*
X0098998Y0045521D01*
X0100499Y0045521D01*
X0101250Y0046271D01*
X0101250Y0047773D01*
X0100499Y0048523D01*
X0099749Y0048523D01*
X0097497Y0047022D02*
X0098998Y0045521D01*
X0097497Y0047022D02*
X0096746Y0048523D01*
X0097497Y0043919D02*
X0096746Y0043169D01*
X0096746Y0041667D01*
X0097497Y0040917D01*
X0100499Y0040917D01*
X0101250Y0041667D01*
X0101250Y0043169D01*
X0100499Y0043919D01*
X0119246Y0042418D02*
X0120747Y0040917D01*
X0119997Y0039315D02*
X0119246Y0038565D01*
X0119246Y0037063D01*
X0119997Y0036313D01*
X0122999Y0036313D01*
X0123750Y0037063D01*
X0123750Y0038565D01*
X0122999Y0039315D01*
X0123750Y0040917D02*
X0123750Y0043919D01*
X0123750Y0042418D02*
X0119246Y0042418D01*
X0119997Y0045521D02*
X0119246Y0046271D01*
X0119246Y0047772D01*
X0119997Y0048523D01*
X0122999Y0045521D01*
X0123750Y0046271D01*
X0123750Y0047772D01*
X0122999Y0048523D01*
X0119997Y0048523D01*
X0119997Y0045521D02*
X0122999Y0045521D01*
X0141746Y0046271D02*
X0142497Y0045521D01*
X0143247Y0045521D01*
X0143998Y0046271D01*
X0143998Y0048523D01*
X0142497Y0048523D02*
X0141746Y0047773D01*
X0141746Y0046271D01*
X0142497Y0048523D02*
X0145499Y0048523D01*
X0146250Y0047773D01*
X0146250Y0046271D01*
X0145499Y0045521D01*
X0145499Y0043919D02*
X0146250Y0043169D01*
X0146250Y0041667D01*
X0145499Y0040917D01*
X0142497Y0040917D01*
X0141746Y0041667D01*
X0141746Y0043169D01*
X0142497Y0043919D01*
X0151438Y0058125D02*
X0151438Y0062628D01*
X0153690Y0062628D01*
X0154441Y0061878D01*
X0154441Y0060376D01*
X0153690Y0059626D01*
X0151438Y0059626D01*
X0152939Y0059626D02*
X0154441Y0058125D01*
X0156042Y0058125D02*
X0159045Y0058125D01*
X0157543Y0058125D02*
X0157543Y0062628D01*
X0156042Y0061127D01*
X0160646Y0061878D02*
X0161397Y0062628D01*
X0162898Y0062628D01*
X0163649Y0061878D01*
X0160646Y0058875D01*
X0161397Y0058125D01*
X0162898Y0058125D01*
X0163649Y0058875D01*
X0163649Y0061878D01*
X0160646Y0061878D02*
X0160646Y0058875D01*
X0186746Y0047772D02*
X0186746Y0046271D01*
X0187497Y0045521D01*
X0188998Y0047022D02*
X0188998Y0047772D01*
X0189749Y0048523D01*
X0190499Y0048523D01*
X0191250Y0047772D01*
X0191250Y0046271D01*
X0190499Y0045521D01*
X0191250Y0043919D02*
X0191250Y0040917D01*
X0191250Y0042418D02*
X0186746Y0042418D01*
X0188247Y0040917D01*
X0187497Y0039315D02*
X0186746Y0038565D01*
X0186746Y0037063D01*
X0187497Y0036313D01*
X0190499Y0036313D01*
X0191250Y0037063D01*
X0191250Y0038565D01*
X0190499Y0039315D01*
X0188998Y0047772D02*
X0188247Y0048523D01*
X0187497Y0048523D01*
X0186746Y0047772D01*
X0209246Y0047772D02*
X0209246Y0046271D01*
X0209997Y0045521D01*
X0210747Y0048523D02*
X0213750Y0045521D01*
X0213750Y0048523D01*
X0210747Y0048523D02*
X0209997Y0048523D01*
X0209246Y0047772D01*
X0213750Y0043919D02*
X0213750Y0040917D01*
X0213750Y0042418D02*
X0209246Y0042418D01*
X0210747Y0040917D01*
X0209997Y0039315D02*
X0209246Y0038565D01*
X0209246Y0037063D01*
X0209997Y0036313D01*
X0212999Y0036313D01*
X0213750Y0037063D01*
X0213750Y0038565D01*
X0212999Y0039315D01*
X0230246Y0030772D02*
X0232498Y0028521D01*
X0232498Y0031523D01*
X0234750Y0030772D02*
X0230246Y0030772D01*
X0230246Y0025418D02*
X0234750Y0025418D01*
X0234750Y0023917D02*
X0234750Y0026919D01*
X0231747Y0023917D02*
X0230246Y0025418D01*
X0230997Y0022315D02*
X0230246Y0021565D01*
X0230246Y0020063D01*
X0230997Y0019313D01*
X0233999Y0019313D01*
X0234750Y0020063D01*
X0234750Y0021565D01*
X0233999Y0022315D01*
X0214502Y0015128D02*
X0212250Y0012876D01*
X0215253Y0012876D01*
X0214502Y0010625D02*
X0214502Y0015128D01*
X0180960Y0019625D02*
X0177958Y0019625D01*
X0179459Y0019625D02*
X0179459Y0024128D01*
X0177958Y0022627D01*
X0176356Y0021126D02*
X0176356Y0024128D01*
X0173354Y0024128D02*
X0173354Y0021126D01*
X0174855Y0019625D01*
X0176356Y0021126D01*
X0171753Y0021126D02*
X0171753Y0020375D01*
X0171002Y0019625D01*
X0169501Y0019625D01*
X0168750Y0020375D01*
X0167250Y0020063D02*
X0167250Y0021565D01*
X0166499Y0022315D01*
X0167250Y0023917D02*
X0167250Y0026919D01*
X0167250Y0025418D02*
X0162746Y0025418D01*
X0164247Y0023917D01*
X0163497Y0022315D02*
X0162746Y0021565D01*
X0162746Y0020063D01*
X0163497Y0019313D01*
X0166499Y0019313D01*
X0167250Y0020063D01*
X0169501Y0021876D02*
X0171002Y0021876D01*
X0171753Y0021126D01*
X0171753Y0023378D02*
X0171002Y0024128D01*
X0169501Y0024128D01*
X0168750Y0023378D01*
X0168750Y0022627D01*
X0169501Y0021876D01*
X0168251Y0015128D02*
X0168251Y0010625D01*
X0166750Y0010625D02*
X0169753Y0010625D01*
X0166750Y0013627D02*
X0168251Y0015128D01*
X0167250Y0028521D02*
X0167250Y0031523D01*
X0167250Y0030022D02*
X0162746Y0030022D01*
X0164247Y0028521D01*
X0078750Y0041667D02*
X0078750Y0043169D01*
X0077999Y0043919D01*
X0077999Y0045521D02*
X0078750Y0045521D01*
X0077999Y0045521D02*
X0074997Y0048523D01*
X0074246Y0048523D01*
X0074246Y0045521D01*
X0074997Y0043919D02*
X0074246Y0043169D01*
X0074246Y0041667D01*
X0074997Y0040917D01*
X0077999Y0040917D01*
X0078750Y0041667D01*
X0054750Y0030773D02*
X0054750Y0029271D01*
X0053999Y0028521D01*
X0053249Y0028521D01*
X0052498Y0029271D01*
X0052498Y0030773D01*
X0053249Y0031523D01*
X0053999Y0031523D01*
X0054750Y0030773D01*
X0052498Y0030773D02*
X0051747Y0031523D01*
X0050997Y0031523D01*
X0050246Y0030773D01*
X0050246Y0029271D01*
X0050997Y0028521D01*
X0051747Y0028521D01*
X0052498Y0029271D01*
X0050997Y0026919D02*
X0050246Y0026169D01*
X0050246Y0024667D01*
X0050997Y0023917D01*
X0053999Y0023917D01*
X0054750Y0024667D01*
X0054750Y0026169D01*
X0053999Y0026919D01*
X0019649Y0038125D02*
X0016646Y0038125D01*
X0019649Y0041127D01*
X0019649Y0041878D01*
X0018898Y0042628D01*
X0017397Y0042628D01*
X0016646Y0041878D01*
X0015045Y0041878D02*
X0015045Y0040376D01*
X0014294Y0039626D01*
X0012042Y0039626D01*
X0012042Y0038125D02*
X0012042Y0042628D01*
X0014294Y0042628D01*
X0015045Y0041878D01*
X0010441Y0042628D02*
X0008939Y0042628D01*
X0009690Y0042628D02*
X0009690Y0038875D01*
X0008939Y0038125D01*
X0008189Y0038125D01*
X0007438Y0038875D01*
X0151438Y0073125D02*
X0151438Y0077628D01*
X0153690Y0077628D01*
X0154441Y0076878D01*
X0154441Y0075376D01*
X0153690Y0074626D01*
X0151438Y0074626D01*
X0152939Y0074626D02*
X0154441Y0073125D01*
X0156042Y0073125D02*
X0159045Y0073125D01*
X0157543Y0073125D02*
X0157543Y0077628D01*
X0156042Y0076127D01*
X0160646Y0076127D02*
X0162147Y0077628D01*
X0162147Y0073125D01*
X0160646Y0073125D02*
X0163649Y0073125D01*
X0199997Y0133417D02*
X0202999Y0133417D01*
X0203750Y0134167D01*
X0203750Y0135669D01*
X0202999Y0136419D01*
X0203750Y0138021D02*
X0200747Y0141023D01*
X0199997Y0141023D01*
X0199246Y0140273D01*
X0199246Y0138771D01*
X0199997Y0138021D01*
X0199997Y0136419D02*
X0199246Y0135669D01*
X0199246Y0134167D01*
X0199997Y0133417D01*
X0203750Y0138021D02*
X0203750Y0141023D01*
X0223746Y0141979D02*
X0224497Y0141228D01*
X0225247Y0141228D01*
X0225998Y0141979D01*
X0225998Y0144231D01*
X0224497Y0144231D02*
X0223746Y0143480D01*
X0223746Y0141979D01*
X0224497Y0144231D02*
X0227499Y0144231D01*
X0228250Y0143480D01*
X0228250Y0141979D01*
X0227499Y0141228D01*
X0228250Y0139627D02*
X0226749Y0138126D01*
X0226749Y0138876D02*
X0226749Y0136625D01*
X0228250Y0136625D02*
X0223746Y0136625D01*
X0223746Y0138876D01*
X0224497Y0139627D01*
X0225998Y0139627D01*
X0226749Y0138876D01*
X0303938Y0075878D02*
X0304689Y0076628D01*
X0306190Y0076628D01*
X0306941Y0075878D01*
X0306941Y0072875D01*
X0306190Y0072125D01*
X0304689Y0072125D01*
X0303938Y0072875D01*
X0303938Y0075878D01*
X0308542Y0076628D02*
X0308542Y0072125D01*
X0308542Y0073626D02*
X0311545Y0076628D01*
X0313146Y0075127D02*
X0314647Y0076628D01*
X0314647Y0072125D01*
X0313146Y0072125D02*
X0316149Y0072125D01*
X0311545Y0072125D02*
X0309293Y0074376D01*
X0382746Y0045522D02*
X0387250Y0045522D01*
X0387250Y0044021D02*
X0387250Y0047023D01*
X0384247Y0044021D02*
X0382746Y0045522D01*
X0383497Y0042419D02*
X0382746Y0041669D01*
X0382746Y0040167D01*
X0383497Y0039417D01*
X0384247Y0039417D01*
X0384998Y0040167D01*
X0384998Y0041669D01*
X0385749Y0042419D01*
X0386499Y0042419D01*
X0387250Y0041669D01*
X0387250Y0040167D01*
X0386499Y0039417D01*
X0386749Y0024231D02*
X0385998Y0023480D01*
X0385998Y0021228D01*
X0387499Y0021228D01*
X0388250Y0021979D01*
X0388250Y0023480D01*
X0387499Y0024231D01*
X0386749Y0024231D01*
X0384497Y0022730D02*
X0385998Y0021228D01*
X0385998Y0019627D02*
X0384497Y0019627D01*
X0383746Y0018876D01*
X0383746Y0016625D01*
X0388250Y0016625D01*
X0386749Y0016625D02*
X0386749Y0018876D01*
X0385998Y0019627D01*
X0386749Y0018126D02*
X0388250Y0019627D01*
X0384497Y0022730D02*
X0383746Y0024231D01*
X0383746Y0010523D02*
X0384497Y0010523D01*
X0387499Y0007521D01*
X0388250Y0007521D01*
X0388250Y0005919D02*
X0386749Y0004418D01*
X0386749Y0005169D02*
X0386749Y0002917D01*
X0388250Y0002917D02*
X0383746Y0002917D01*
X0383746Y0005169D01*
X0384497Y0005919D01*
X0385998Y0005919D01*
X0386749Y0005169D01*
X0383746Y0007521D02*
X0383746Y0010523D01*
X0330750Y0011376D02*
X0330750Y0009125D01*
X0326246Y0009125D01*
X0326246Y0011376D01*
X0326997Y0012127D01*
X0329999Y0012127D01*
X0330750Y0011376D01*
X0330750Y0013728D02*
X0330750Y0016731D01*
X0330750Y0015230D02*
X0326246Y0015230D01*
X0327747Y0013728D01*
D14*
X0299500Y0017875D03*
D15*
X0295750Y0017875D03*
X0316250Y0017875D03*
D16*
X0193500Y0083875D03*
D17*
X0193500Y0080125D03*
X0193500Y0100625D03*
D18*
X0254162Y0014530D02*
X0256264Y0014530D01*
X0255213Y0014530D02*
X0255213Y0008225D01*
X0254162Y0008225D02*
X0256264Y0008225D01*
X0258459Y0009275D02*
X0259510Y0008225D01*
X0261612Y0008225D01*
X0262663Y0009275D01*
X0264904Y0008225D02*
X0269108Y0008225D01*
X0267006Y0008225D02*
X0267006Y0014530D01*
X0264904Y0012428D01*
X0262663Y0013479D02*
X0261612Y0014530D01*
X0259510Y0014530D01*
X0258459Y0013479D01*
X0258459Y0009275D01*
D19*
X0287500Y0088375D02*
X0287500Y0112375D01*
X0287503Y0112582D01*
X0287510Y0112789D01*
X0287523Y0112995D01*
X0287540Y0113202D01*
X0287563Y0113407D01*
X0287591Y0113613D01*
X0287623Y0113817D01*
X0287661Y0114021D01*
X0287703Y0114223D01*
X0287751Y0114425D01*
X0287803Y0114625D01*
X0287860Y0114824D01*
X0287922Y0115021D01*
X0287989Y0115217D01*
X0288061Y0115411D01*
X0288137Y0115604D01*
X0288218Y0115794D01*
X0288304Y0115983D01*
X0288394Y0116169D01*
X0288488Y0116353D01*
X0288588Y0116535D01*
X0288691Y0116714D01*
X0288799Y0116891D01*
X0288911Y0117065D01*
X0289027Y0117236D01*
X0289148Y0117405D01*
X0289272Y0117570D01*
X0289401Y0117732D01*
X0289533Y0117891D01*
X0289669Y0118047D01*
X0289809Y0118200D01*
X0289953Y0118349D01*
X0290100Y0118494D01*
X0290251Y0118636D01*
X0290405Y0118774D01*
X0290563Y0118909D01*
X0290723Y0119039D01*
X0290887Y0119165D01*
X0291054Y0119288D01*
X0291224Y0119406D01*
X0291397Y0119521D01*
X0291572Y0119631D01*
X0291750Y0119736D01*
X0291931Y0119838D01*
X0292113Y0119934D01*
X0292299Y0120027D01*
X0292486Y0120115D01*
X0292676Y0120198D01*
X0292867Y0120277D01*
X0293060Y0120351D01*
X0293256Y0120420D01*
X0293452Y0120484D01*
X0293650Y0120544D01*
X0293850Y0120599D01*
X0294051Y0120649D01*
X0294253Y0120694D01*
X0294456Y0120734D01*
X0294660Y0120769D01*
X0294865Y0120799D01*
X0295070Y0120824D01*
X0295276Y0120844D01*
X0295483Y0120859D01*
X0295690Y0120869D01*
X0295897Y0120874D01*
X0296103Y0120874D01*
X0296310Y0120869D01*
X0296517Y0120859D01*
X0296724Y0120844D01*
X0296930Y0120824D01*
X0297135Y0120799D01*
X0297340Y0120769D01*
X0297544Y0120734D01*
X0297747Y0120694D01*
X0297949Y0120649D01*
X0298150Y0120599D01*
X0298350Y0120544D01*
X0298548Y0120484D01*
X0298744Y0120420D01*
X0298940Y0120351D01*
X0299133Y0120277D01*
X0299324Y0120198D01*
X0299514Y0120115D01*
X0299701Y0120027D01*
X0299887Y0119934D01*
X0300069Y0119838D01*
X0300250Y0119736D01*
X0300428Y0119631D01*
X0300603Y0119521D01*
X0300776Y0119406D01*
X0300946Y0119288D01*
X0301113Y0119165D01*
X0301277Y0119039D01*
X0301437Y0118909D01*
X0301595Y0118774D01*
X0301749Y0118636D01*
X0301900Y0118494D01*
X0302047Y0118349D01*
X0302191Y0118200D01*
X0302331Y0118047D01*
X0302467Y0117891D01*
X0302599Y0117732D01*
X0302728Y0117570D01*
X0302852Y0117405D01*
X0302973Y0117236D01*
X0303089Y0117065D01*
X0303201Y0116891D01*
X0303309Y0116714D01*
X0303412Y0116535D01*
X0303512Y0116353D01*
X0303606Y0116169D01*
X0303696Y0115983D01*
X0303782Y0115794D01*
X0303863Y0115604D01*
X0303939Y0115411D01*
X0304011Y0115217D01*
X0304078Y0115021D01*
X0304140Y0114824D01*
X0304197Y0114625D01*
X0304249Y0114425D01*
X0304297Y0114223D01*
X0304339Y0114021D01*
X0304377Y0113817D01*
X0304409Y0113613D01*
X0304437Y0113407D01*
X0304460Y0113202D01*
X0304477Y0112995D01*
X0304490Y0112789D01*
X0304497Y0112582D01*
X0304500Y0112375D01*
X0304500Y0088375D01*
X0304497Y0088168D01*
X0304490Y0087961D01*
X0304477Y0087755D01*
X0304460Y0087548D01*
X0304437Y0087343D01*
X0304409Y0087137D01*
X0304377Y0086933D01*
X0304339Y0086729D01*
X0304297Y0086527D01*
X0304249Y0086325D01*
X0304197Y0086125D01*
X0304140Y0085926D01*
X0304078Y0085729D01*
X0304011Y0085533D01*
X0303939Y0085339D01*
X0303863Y0085146D01*
X0303782Y0084956D01*
X0303696Y0084767D01*
X0303606Y0084581D01*
X0303512Y0084397D01*
X0303412Y0084215D01*
X0303309Y0084036D01*
X0303201Y0083859D01*
X0303089Y0083685D01*
X0302973Y0083514D01*
X0302852Y0083345D01*
X0302728Y0083180D01*
X0302599Y0083018D01*
X0302467Y0082859D01*
X0302331Y0082703D01*
X0302191Y0082550D01*
X0302047Y0082401D01*
X0301900Y0082256D01*
X0301749Y0082114D01*
X0301595Y0081976D01*
X0301437Y0081841D01*
X0301277Y0081711D01*
X0301113Y0081585D01*
X0300946Y0081462D01*
X0300776Y0081344D01*
X0300603Y0081229D01*
X0300428Y0081119D01*
X0300250Y0081014D01*
X0300069Y0080912D01*
X0299887Y0080816D01*
X0299701Y0080723D01*
X0299514Y0080635D01*
X0299324Y0080552D01*
X0299133Y0080473D01*
X0298940Y0080399D01*
X0298744Y0080330D01*
X0298548Y0080266D01*
X0298350Y0080206D01*
X0298150Y0080151D01*
X0297949Y0080101D01*
X0297747Y0080056D01*
X0297544Y0080016D01*
X0297340Y0079981D01*
X0297135Y0079951D01*
X0296930Y0079926D01*
X0296724Y0079906D01*
X0296517Y0079891D01*
X0296310Y0079881D01*
X0296103Y0079876D01*
X0295897Y0079876D01*
X0295690Y0079881D01*
X0295483Y0079891D01*
X0295276Y0079906D01*
X0295070Y0079926D01*
X0294865Y0079951D01*
X0294660Y0079981D01*
X0294456Y0080016D01*
X0294253Y0080056D01*
X0294051Y0080101D01*
X0293850Y0080151D01*
X0293650Y0080206D01*
X0293452Y0080266D01*
X0293256Y0080330D01*
X0293060Y0080399D01*
X0292867Y0080473D01*
X0292676Y0080552D01*
X0292486Y0080635D01*
X0292299Y0080723D01*
X0292113Y0080816D01*
X0291931Y0080912D01*
X0291750Y0081014D01*
X0291572Y0081119D01*
X0291397Y0081229D01*
X0291224Y0081344D01*
X0291054Y0081462D01*
X0290887Y0081585D01*
X0290723Y0081711D01*
X0290563Y0081841D01*
X0290405Y0081976D01*
X0290251Y0082114D01*
X0290100Y0082256D01*
X0289953Y0082401D01*
X0289809Y0082550D01*
X0289669Y0082703D01*
X0289533Y0082859D01*
X0289401Y0083018D01*
X0289272Y0083180D01*
X0289148Y0083345D01*
X0289027Y0083514D01*
X0288911Y0083685D01*
X0288799Y0083859D01*
X0288691Y0084036D01*
X0288588Y0084215D01*
X0288488Y0084397D01*
X0288394Y0084581D01*
X0288304Y0084767D01*
X0288218Y0084956D01*
X0288137Y0085146D01*
X0288061Y0085339D01*
X0287989Y0085533D01*
X0287922Y0085729D01*
X0287860Y0085926D01*
X0287803Y0086125D01*
X0287751Y0086325D01*
X0287703Y0086527D01*
X0287661Y0086729D01*
X0287623Y0086933D01*
X0287591Y0087137D01*
X0287563Y0087343D01*
X0287540Y0087548D01*
X0287523Y0087755D01*
X0287510Y0087961D01*
X0287503Y0088168D01*
X0287500Y0088375D01*
D20*
X0357250Y0042875D03*
M02*
