G75*
%MOIN*%
%OFA0B0*%
%FSLAX25Y25*%
%IPPOS*%
%LPD*%
%AMOC8*
5,1,8,0,0,1.08239X$1,22.5*
%
%ADD10C,0.00000*%
%ADD11OC8,0.05200*%
%ADD12C,0.05200*%
%ADD13OC8,0.06000*%
%ADD14C,0.05200*%
%ADD15C,0.06000*%
%ADD16C,0.07800*%
%ADD17OC8,0.07800*%
%ADD18C,0.00600*%
D10*
X0001000Y0002875D02*
X0001000Y0167835D01*
X0392201Y0167835D01*
X0392201Y0002875D01*
X0001000Y0002875D01*
X0355500Y0087875D02*
X0355502Y0088023D01*
X0355508Y0088171D01*
X0355518Y0088319D01*
X0355532Y0088467D01*
X0355550Y0088614D01*
X0355572Y0088761D01*
X0355598Y0088907D01*
X0355627Y0089052D01*
X0355661Y0089197D01*
X0355699Y0089340D01*
X0355740Y0089483D01*
X0355785Y0089624D01*
X0355835Y0089764D01*
X0355887Y0089902D01*
X0355944Y0090040D01*
X0356004Y0090175D01*
X0356068Y0090309D01*
X0356135Y0090441D01*
X0356206Y0090571D01*
X0356281Y0090700D01*
X0356359Y0090826D01*
X0356440Y0090950D01*
X0356524Y0091072D01*
X0356612Y0091191D01*
X0356703Y0091308D01*
X0356797Y0091423D01*
X0356895Y0091535D01*
X0356995Y0091644D01*
X0357098Y0091751D01*
X0357204Y0091855D01*
X0357312Y0091956D01*
X0357424Y0092054D01*
X0357538Y0092149D01*
X0357654Y0092240D01*
X0357773Y0092329D01*
X0357894Y0092414D01*
X0358018Y0092496D01*
X0358144Y0092575D01*
X0358271Y0092650D01*
X0358401Y0092722D01*
X0358533Y0092791D01*
X0358666Y0092855D01*
X0358801Y0092916D01*
X0358938Y0092974D01*
X0359076Y0093028D01*
X0359216Y0093078D01*
X0359357Y0093124D01*
X0359499Y0093166D01*
X0359642Y0093205D01*
X0359786Y0093239D01*
X0359932Y0093270D01*
X0360077Y0093297D01*
X0360224Y0093320D01*
X0360371Y0093339D01*
X0360519Y0093354D01*
X0360666Y0093365D01*
X0360815Y0093372D01*
X0360963Y0093375D01*
X0361111Y0093374D01*
X0361259Y0093369D01*
X0361407Y0093360D01*
X0361555Y0093347D01*
X0361703Y0093330D01*
X0361849Y0093309D01*
X0361996Y0093284D01*
X0362141Y0093255D01*
X0362286Y0093223D01*
X0362429Y0093186D01*
X0362572Y0093146D01*
X0362714Y0093101D01*
X0362854Y0093053D01*
X0362993Y0093001D01*
X0363130Y0092946D01*
X0363266Y0092886D01*
X0363401Y0092823D01*
X0363533Y0092757D01*
X0363664Y0092687D01*
X0363793Y0092613D01*
X0363919Y0092536D01*
X0364044Y0092456D01*
X0364166Y0092372D01*
X0364287Y0092285D01*
X0364404Y0092195D01*
X0364520Y0092101D01*
X0364632Y0092005D01*
X0364742Y0091906D01*
X0364850Y0091803D01*
X0364954Y0091698D01*
X0365056Y0091590D01*
X0365154Y0091479D01*
X0365250Y0091366D01*
X0365343Y0091250D01*
X0365432Y0091132D01*
X0365518Y0091011D01*
X0365601Y0090888D01*
X0365681Y0090763D01*
X0365757Y0090636D01*
X0365830Y0090506D01*
X0365899Y0090375D01*
X0365964Y0090242D01*
X0366027Y0090108D01*
X0366085Y0089971D01*
X0366140Y0089833D01*
X0366190Y0089694D01*
X0366238Y0089553D01*
X0366281Y0089412D01*
X0366321Y0089269D01*
X0366356Y0089125D01*
X0366388Y0088980D01*
X0366416Y0088834D01*
X0366440Y0088688D01*
X0366460Y0088541D01*
X0366476Y0088393D01*
X0366488Y0088246D01*
X0366496Y0088097D01*
X0366500Y0087949D01*
X0366500Y0087801D01*
X0366496Y0087653D01*
X0366488Y0087504D01*
X0366476Y0087357D01*
X0366460Y0087209D01*
X0366440Y0087062D01*
X0366416Y0086916D01*
X0366388Y0086770D01*
X0366356Y0086625D01*
X0366321Y0086481D01*
X0366281Y0086338D01*
X0366238Y0086197D01*
X0366190Y0086056D01*
X0366140Y0085917D01*
X0366085Y0085779D01*
X0366027Y0085642D01*
X0365964Y0085508D01*
X0365899Y0085375D01*
X0365830Y0085244D01*
X0365757Y0085114D01*
X0365681Y0084987D01*
X0365601Y0084862D01*
X0365518Y0084739D01*
X0365432Y0084618D01*
X0365343Y0084500D01*
X0365250Y0084384D01*
X0365154Y0084271D01*
X0365056Y0084160D01*
X0364954Y0084052D01*
X0364850Y0083947D01*
X0364742Y0083844D01*
X0364632Y0083745D01*
X0364520Y0083649D01*
X0364404Y0083555D01*
X0364287Y0083465D01*
X0364166Y0083378D01*
X0364044Y0083294D01*
X0363919Y0083214D01*
X0363793Y0083137D01*
X0363664Y0083063D01*
X0363533Y0082993D01*
X0363401Y0082927D01*
X0363266Y0082864D01*
X0363130Y0082804D01*
X0362993Y0082749D01*
X0362854Y0082697D01*
X0362714Y0082649D01*
X0362572Y0082604D01*
X0362429Y0082564D01*
X0362286Y0082527D01*
X0362141Y0082495D01*
X0361996Y0082466D01*
X0361849Y0082441D01*
X0361703Y0082420D01*
X0361555Y0082403D01*
X0361407Y0082390D01*
X0361259Y0082381D01*
X0361111Y0082376D01*
X0360963Y0082375D01*
X0360815Y0082378D01*
X0360666Y0082385D01*
X0360519Y0082396D01*
X0360371Y0082411D01*
X0360224Y0082430D01*
X0360077Y0082453D01*
X0359932Y0082480D01*
X0359786Y0082511D01*
X0359642Y0082545D01*
X0359499Y0082584D01*
X0359357Y0082626D01*
X0359216Y0082672D01*
X0359076Y0082722D01*
X0358938Y0082776D01*
X0358801Y0082834D01*
X0358666Y0082895D01*
X0358533Y0082959D01*
X0358401Y0083028D01*
X0358271Y0083100D01*
X0358144Y0083175D01*
X0358018Y0083254D01*
X0357894Y0083336D01*
X0357773Y0083421D01*
X0357654Y0083510D01*
X0357538Y0083601D01*
X0357424Y0083696D01*
X0357312Y0083794D01*
X0357204Y0083895D01*
X0357098Y0083999D01*
X0356995Y0084106D01*
X0356895Y0084215D01*
X0356797Y0084327D01*
X0356703Y0084442D01*
X0356612Y0084559D01*
X0356524Y0084678D01*
X0356440Y0084800D01*
X0356359Y0084924D01*
X0356281Y0085050D01*
X0356206Y0085179D01*
X0356135Y0085309D01*
X0356068Y0085441D01*
X0356004Y0085575D01*
X0355944Y0085710D01*
X0355887Y0085848D01*
X0355835Y0085986D01*
X0355785Y0086126D01*
X0355740Y0086267D01*
X0355699Y0086410D01*
X0355661Y0086553D01*
X0355627Y0086698D01*
X0355598Y0086843D01*
X0355572Y0086989D01*
X0355550Y0087136D01*
X0355532Y0087283D01*
X0355518Y0087431D01*
X0355508Y0087579D01*
X0355502Y0087727D01*
X0355500Y0087875D01*
X0369701Y0065375D02*
X0369703Y0065533D01*
X0369709Y0065691D01*
X0369719Y0065849D01*
X0369733Y0066007D01*
X0369751Y0066164D01*
X0369772Y0066321D01*
X0369798Y0066477D01*
X0369828Y0066633D01*
X0369861Y0066788D01*
X0369899Y0066941D01*
X0369940Y0067094D01*
X0369985Y0067246D01*
X0370034Y0067397D01*
X0370087Y0067546D01*
X0370143Y0067694D01*
X0370203Y0067840D01*
X0370267Y0067985D01*
X0370335Y0068128D01*
X0370406Y0068270D01*
X0370480Y0068410D01*
X0370558Y0068547D01*
X0370640Y0068683D01*
X0370724Y0068817D01*
X0370813Y0068948D01*
X0370904Y0069077D01*
X0370999Y0069204D01*
X0371096Y0069329D01*
X0371197Y0069451D01*
X0371301Y0069570D01*
X0371408Y0069687D01*
X0371518Y0069801D01*
X0371631Y0069912D01*
X0371746Y0070021D01*
X0371864Y0070126D01*
X0371985Y0070228D01*
X0372108Y0070328D01*
X0372234Y0070424D01*
X0372362Y0070517D01*
X0372492Y0070607D01*
X0372625Y0070693D01*
X0372760Y0070777D01*
X0372896Y0070856D01*
X0373035Y0070933D01*
X0373176Y0071005D01*
X0373318Y0071075D01*
X0373462Y0071140D01*
X0373608Y0071202D01*
X0373755Y0071260D01*
X0373904Y0071315D01*
X0374054Y0071366D01*
X0374205Y0071413D01*
X0374357Y0071456D01*
X0374510Y0071495D01*
X0374665Y0071531D01*
X0374820Y0071562D01*
X0374976Y0071590D01*
X0375132Y0071614D01*
X0375289Y0071634D01*
X0375447Y0071650D01*
X0375604Y0071662D01*
X0375763Y0071670D01*
X0375921Y0071674D01*
X0376079Y0071674D01*
X0376237Y0071670D01*
X0376396Y0071662D01*
X0376553Y0071650D01*
X0376711Y0071634D01*
X0376868Y0071614D01*
X0377024Y0071590D01*
X0377180Y0071562D01*
X0377335Y0071531D01*
X0377490Y0071495D01*
X0377643Y0071456D01*
X0377795Y0071413D01*
X0377946Y0071366D01*
X0378096Y0071315D01*
X0378245Y0071260D01*
X0378392Y0071202D01*
X0378538Y0071140D01*
X0378682Y0071075D01*
X0378824Y0071005D01*
X0378965Y0070933D01*
X0379104Y0070856D01*
X0379240Y0070777D01*
X0379375Y0070693D01*
X0379508Y0070607D01*
X0379638Y0070517D01*
X0379766Y0070424D01*
X0379892Y0070328D01*
X0380015Y0070228D01*
X0380136Y0070126D01*
X0380254Y0070021D01*
X0380369Y0069912D01*
X0380482Y0069801D01*
X0380592Y0069687D01*
X0380699Y0069570D01*
X0380803Y0069451D01*
X0380904Y0069329D01*
X0381001Y0069204D01*
X0381096Y0069077D01*
X0381187Y0068948D01*
X0381276Y0068817D01*
X0381360Y0068683D01*
X0381442Y0068547D01*
X0381520Y0068410D01*
X0381594Y0068270D01*
X0381665Y0068128D01*
X0381733Y0067985D01*
X0381797Y0067840D01*
X0381857Y0067694D01*
X0381913Y0067546D01*
X0381966Y0067397D01*
X0382015Y0067246D01*
X0382060Y0067094D01*
X0382101Y0066941D01*
X0382139Y0066788D01*
X0382172Y0066633D01*
X0382202Y0066477D01*
X0382228Y0066321D01*
X0382249Y0066164D01*
X0382267Y0066007D01*
X0382281Y0065849D01*
X0382291Y0065691D01*
X0382297Y0065533D01*
X0382299Y0065375D01*
X0382297Y0065217D01*
X0382291Y0065059D01*
X0382281Y0064901D01*
X0382267Y0064743D01*
X0382249Y0064586D01*
X0382228Y0064429D01*
X0382202Y0064273D01*
X0382172Y0064117D01*
X0382139Y0063962D01*
X0382101Y0063809D01*
X0382060Y0063656D01*
X0382015Y0063504D01*
X0381966Y0063353D01*
X0381913Y0063204D01*
X0381857Y0063056D01*
X0381797Y0062910D01*
X0381733Y0062765D01*
X0381665Y0062622D01*
X0381594Y0062480D01*
X0381520Y0062340D01*
X0381442Y0062203D01*
X0381360Y0062067D01*
X0381276Y0061933D01*
X0381187Y0061802D01*
X0381096Y0061673D01*
X0381001Y0061546D01*
X0380904Y0061421D01*
X0380803Y0061299D01*
X0380699Y0061180D01*
X0380592Y0061063D01*
X0380482Y0060949D01*
X0380369Y0060838D01*
X0380254Y0060729D01*
X0380136Y0060624D01*
X0380015Y0060522D01*
X0379892Y0060422D01*
X0379766Y0060326D01*
X0379638Y0060233D01*
X0379508Y0060143D01*
X0379375Y0060057D01*
X0379240Y0059973D01*
X0379104Y0059894D01*
X0378965Y0059817D01*
X0378824Y0059745D01*
X0378682Y0059675D01*
X0378538Y0059610D01*
X0378392Y0059548D01*
X0378245Y0059490D01*
X0378096Y0059435D01*
X0377946Y0059384D01*
X0377795Y0059337D01*
X0377643Y0059294D01*
X0377490Y0059255D01*
X0377335Y0059219D01*
X0377180Y0059188D01*
X0377024Y0059160D01*
X0376868Y0059136D01*
X0376711Y0059116D01*
X0376553Y0059100D01*
X0376396Y0059088D01*
X0376237Y0059080D01*
X0376079Y0059076D01*
X0375921Y0059076D01*
X0375763Y0059080D01*
X0375604Y0059088D01*
X0375447Y0059100D01*
X0375289Y0059116D01*
X0375132Y0059136D01*
X0374976Y0059160D01*
X0374820Y0059188D01*
X0374665Y0059219D01*
X0374510Y0059255D01*
X0374357Y0059294D01*
X0374205Y0059337D01*
X0374054Y0059384D01*
X0373904Y0059435D01*
X0373755Y0059490D01*
X0373608Y0059548D01*
X0373462Y0059610D01*
X0373318Y0059675D01*
X0373176Y0059745D01*
X0373035Y0059817D01*
X0372896Y0059894D01*
X0372760Y0059973D01*
X0372625Y0060057D01*
X0372492Y0060143D01*
X0372362Y0060233D01*
X0372234Y0060326D01*
X0372108Y0060422D01*
X0371985Y0060522D01*
X0371864Y0060624D01*
X0371746Y0060729D01*
X0371631Y0060838D01*
X0371518Y0060949D01*
X0371408Y0061063D01*
X0371301Y0061180D01*
X0371197Y0061299D01*
X0371096Y0061421D01*
X0370999Y0061546D01*
X0370904Y0061673D01*
X0370813Y0061802D01*
X0370724Y0061933D01*
X0370640Y0062067D01*
X0370558Y0062203D01*
X0370480Y0062340D01*
X0370406Y0062480D01*
X0370335Y0062622D01*
X0370267Y0062765D01*
X0370203Y0062910D01*
X0370143Y0063056D01*
X0370087Y0063204D01*
X0370034Y0063353D01*
X0369985Y0063504D01*
X0369940Y0063656D01*
X0369899Y0063809D01*
X0369861Y0063962D01*
X0369828Y0064117D01*
X0369798Y0064273D01*
X0369772Y0064429D01*
X0369751Y0064586D01*
X0369733Y0064743D01*
X0369719Y0064901D01*
X0369709Y0065059D01*
X0369703Y0065217D01*
X0369701Y0065375D01*
X0355500Y0147875D02*
X0355502Y0148023D01*
X0355508Y0148171D01*
X0355518Y0148319D01*
X0355532Y0148467D01*
X0355550Y0148614D01*
X0355572Y0148761D01*
X0355598Y0148907D01*
X0355627Y0149052D01*
X0355661Y0149197D01*
X0355699Y0149340D01*
X0355740Y0149483D01*
X0355785Y0149624D01*
X0355835Y0149764D01*
X0355887Y0149902D01*
X0355944Y0150040D01*
X0356004Y0150175D01*
X0356068Y0150309D01*
X0356135Y0150441D01*
X0356206Y0150571D01*
X0356281Y0150700D01*
X0356359Y0150826D01*
X0356440Y0150950D01*
X0356524Y0151072D01*
X0356612Y0151191D01*
X0356703Y0151308D01*
X0356797Y0151423D01*
X0356895Y0151535D01*
X0356995Y0151644D01*
X0357098Y0151751D01*
X0357204Y0151855D01*
X0357312Y0151956D01*
X0357424Y0152054D01*
X0357538Y0152149D01*
X0357654Y0152240D01*
X0357773Y0152329D01*
X0357894Y0152414D01*
X0358018Y0152496D01*
X0358144Y0152575D01*
X0358271Y0152650D01*
X0358401Y0152722D01*
X0358533Y0152791D01*
X0358666Y0152855D01*
X0358801Y0152916D01*
X0358938Y0152974D01*
X0359076Y0153028D01*
X0359216Y0153078D01*
X0359357Y0153124D01*
X0359499Y0153166D01*
X0359642Y0153205D01*
X0359786Y0153239D01*
X0359932Y0153270D01*
X0360077Y0153297D01*
X0360224Y0153320D01*
X0360371Y0153339D01*
X0360519Y0153354D01*
X0360666Y0153365D01*
X0360815Y0153372D01*
X0360963Y0153375D01*
X0361111Y0153374D01*
X0361259Y0153369D01*
X0361407Y0153360D01*
X0361555Y0153347D01*
X0361703Y0153330D01*
X0361849Y0153309D01*
X0361996Y0153284D01*
X0362141Y0153255D01*
X0362286Y0153223D01*
X0362429Y0153186D01*
X0362572Y0153146D01*
X0362714Y0153101D01*
X0362854Y0153053D01*
X0362993Y0153001D01*
X0363130Y0152946D01*
X0363266Y0152886D01*
X0363401Y0152823D01*
X0363533Y0152757D01*
X0363664Y0152687D01*
X0363793Y0152613D01*
X0363919Y0152536D01*
X0364044Y0152456D01*
X0364166Y0152372D01*
X0364287Y0152285D01*
X0364404Y0152195D01*
X0364520Y0152101D01*
X0364632Y0152005D01*
X0364742Y0151906D01*
X0364850Y0151803D01*
X0364954Y0151698D01*
X0365056Y0151590D01*
X0365154Y0151479D01*
X0365250Y0151366D01*
X0365343Y0151250D01*
X0365432Y0151132D01*
X0365518Y0151011D01*
X0365601Y0150888D01*
X0365681Y0150763D01*
X0365757Y0150636D01*
X0365830Y0150506D01*
X0365899Y0150375D01*
X0365964Y0150242D01*
X0366027Y0150108D01*
X0366085Y0149971D01*
X0366140Y0149833D01*
X0366190Y0149694D01*
X0366238Y0149553D01*
X0366281Y0149412D01*
X0366321Y0149269D01*
X0366356Y0149125D01*
X0366388Y0148980D01*
X0366416Y0148834D01*
X0366440Y0148688D01*
X0366460Y0148541D01*
X0366476Y0148393D01*
X0366488Y0148246D01*
X0366496Y0148097D01*
X0366500Y0147949D01*
X0366500Y0147801D01*
X0366496Y0147653D01*
X0366488Y0147504D01*
X0366476Y0147357D01*
X0366460Y0147209D01*
X0366440Y0147062D01*
X0366416Y0146916D01*
X0366388Y0146770D01*
X0366356Y0146625D01*
X0366321Y0146481D01*
X0366281Y0146338D01*
X0366238Y0146197D01*
X0366190Y0146056D01*
X0366140Y0145917D01*
X0366085Y0145779D01*
X0366027Y0145642D01*
X0365964Y0145508D01*
X0365899Y0145375D01*
X0365830Y0145244D01*
X0365757Y0145114D01*
X0365681Y0144987D01*
X0365601Y0144862D01*
X0365518Y0144739D01*
X0365432Y0144618D01*
X0365343Y0144500D01*
X0365250Y0144384D01*
X0365154Y0144271D01*
X0365056Y0144160D01*
X0364954Y0144052D01*
X0364850Y0143947D01*
X0364742Y0143844D01*
X0364632Y0143745D01*
X0364520Y0143649D01*
X0364404Y0143555D01*
X0364287Y0143465D01*
X0364166Y0143378D01*
X0364044Y0143294D01*
X0363919Y0143214D01*
X0363793Y0143137D01*
X0363664Y0143063D01*
X0363533Y0142993D01*
X0363401Y0142927D01*
X0363266Y0142864D01*
X0363130Y0142804D01*
X0362993Y0142749D01*
X0362854Y0142697D01*
X0362714Y0142649D01*
X0362572Y0142604D01*
X0362429Y0142564D01*
X0362286Y0142527D01*
X0362141Y0142495D01*
X0361996Y0142466D01*
X0361849Y0142441D01*
X0361703Y0142420D01*
X0361555Y0142403D01*
X0361407Y0142390D01*
X0361259Y0142381D01*
X0361111Y0142376D01*
X0360963Y0142375D01*
X0360815Y0142378D01*
X0360666Y0142385D01*
X0360519Y0142396D01*
X0360371Y0142411D01*
X0360224Y0142430D01*
X0360077Y0142453D01*
X0359932Y0142480D01*
X0359786Y0142511D01*
X0359642Y0142545D01*
X0359499Y0142584D01*
X0359357Y0142626D01*
X0359216Y0142672D01*
X0359076Y0142722D01*
X0358938Y0142776D01*
X0358801Y0142834D01*
X0358666Y0142895D01*
X0358533Y0142959D01*
X0358401Y0143028D01*
X0358271Y0143100D01*
X0358144Y0143175D01*
X0358018Y0143254D01*
X0357894Y0143336D01*
X0357773Y0143421D01*
X0357654Y0143510D01*
X0357538Y0143601D01*
X0357424Y0143696D01*
X0357312Y0143794D01*
X0357204Y0143895D01*
X0357098Y0143999D01*
X0356995Y0144106D01*
X0356895Y0144215D01*
X0356797Y0144327D01*
X0356703Y0144442D01*
X0356612Y0144559D01*
X0356524Y0144678D01*
X0356440Y0144800D01*
X0356359Y0144924D01*
X0356281Y0145050D01*
X0356206Y0145179D01*
X0356135Y0145309D01*
X0356068Y0145441D01*
X0356004Y0145575D01*
X0355944Y0145710D01*
X0355887Y0145848D01*
X0355835Y0145986D01*
X0355785Y0146126D01*
X0355740Y0146267D01*
X0355699Y0146410D01*
X0355661Y0146553D01*
X0355627Y0146698D01*
X0355598Y0146843D01*
X0355572Y0146989D01*
X0355550Y0147136D01*
X0355532Y0147283D01*
X0355518Y0147431D01*
X0355508Y0147579D01*
X0355502Y0147727D01*
X0355500Y0147875D01*
D11*
X0301000Y0152875D03*
X0291000Y0152875D03*
X0291000Y0135375D03*
X0301000Y0135375D03*
X0216000Y0147875D03*
X0193500Y0140375D03*
X0193500Y0130375D03*
X0166000Y0130375D03*
X0166000Y0140375D03*
X0141000Y0140375D03*
X0141000Y0130375D03*
X0151000Y0107875D03*
X0151000Y0092875D03*
X0151000Y0077875D03*
X0151000Y0062875D03*
X0136000Y0047875D03*
X0136000Y0037875D03*
X0113500Y0037875D03*
X0091000Y0037875D03*
X0091000Y0047875D03*
X0113500Y0047875D03*
X0111000Y0062875D03*
X0088500Y0062875D03*
X0088500Y0077875D03*
X0111000Y0077875D03*
X0111000Y0092875D03*
X0088500Y0092875D03*
X0088500Y0107875D03*
X0111000Y0107875D03*
X0048500Y0107875D03*
X0048500Y0092875D03*
X0048500Y0077875D03*
X0048500Y0062875D03*
X0068500Y0047875D03*
X0068500Y0037875D03*
X0046000Y0038875D03*
X0158500Y0038875D03*
X0181000Y0037875D03*
X0203500Y0037875D03*
X0203500Y0047875D03*
X0181000Y0047875D03*
X0216000Y0060375D03*
X0226000Y0038875D03*
X0341000Y0025375D03*
X0341000Y0012875D03*
X0381000Y0012875D03*
X0381000Y0025375D03*
X0216000Y0100375D03*
X0216000Y0107875D03*
D12*
X0193500Y0107975D02*
X0193500Y0102775D01*
X0243400Y0100375D02*
X0248600Y0100375D01*
X0248600Y0110375D02*
X0243400Y0110375D01*
X0243400Y0120375D02*
X0248600Y0120375D01*
X0248600Y0130375D02*
X0243400Y0130375D01*
X0243400Y0140375D02*
X0248600Y0140375D01*
X0248600Y0150375D02*
X0243400Y0150375D01*
X0273400Y0150375D02*
X0278600Y0150375D01*
X0278600Y0140375D02*
X0273400Y0140375D01*
X0273400Y0130375D02*
X0278600Y0130375D01*
X0278600Y0120375D02*
X0273400Y0120375D01*
X0273400Y0110375D02*
X0278600Y0110375D01*
X0278600Y0100375D02*
X0273400Y0100375D01*
X0273400Y0090375D02*
X0278600Y0090375D01*
X0278600Y0080375D02*
X0273400Y0080375D01*
X0273400Y0070375D02*
X0278600Y0070375D01*
X0288300Y0065375D02*
X0293500Y0065375D01*
X0278600Y0060375D02*
X0273400Y0060375D01*
X0288300Y0055375D02*
X0293500Y0055375D01*
X0278600Y0050375D02*
X0273400Y0050375D01*
X0288300Y0045375D02*
X0293500Y0045375D01*
X0278600Y0040375D02*
X0273400Y0040375D01*
X0288300Y0035375D02*
X0293500Y0035375D01*
X0278600Y0030375D02*
X0273400Y0030375D01*
X0273400Y0020375D02*
X0278600Y0020375D01*
X0288400Y0017875D02*
X0293600Y0017875D01*
X0318400Y0017875D02*
X0323600Y0017875D01*
X0323500Y0035375D02*
X0328700Y0035375D01*
X0343400Y0042875D02*
X0348600Y0042875D01*
X0328700Y0045375D02*
X0323500Y0045375D01*
X0323500Y0055375D02*
X0328700Y0055375D01*
X0328700Y0065375D02*
X0323500Y0065375D01*
X0373400Y0042875D02*
X0378600Y0042875D01*
X0248600Y0040375D02*
X0243400Y0040375D01*
X0243400Y0050375D02*
X0248600Y0050375D01*
X0248600Y0060375D02*
X0243400Y0060375D01*
X0243400Y0070375D02*
X0248600Y0070375D01*
X0248600Y0080375D02*
X0243400Y0080375D01*
X0243400Y0090375D02*
X0248600Y0090375D01*
X0193500Y0077975D02*
X0193500Y0072775D01*
X0243400Y0030375D02*
X0248600Y0030375D01*
X0248600Y0020375D02*
X0243400Y0020375D01*
D13*
X0021000Y0050375D03*
X0011000Y0050375D03*
X0011000Y0060375D03*
X0021000Y0060375D03*
X0021000Y0070375D03*
X0011000Y0070375D03*
X0011000Y0080375D03*
X0021000Y0080375D03*
X0021000Y0090375D03*
X0011000Y0090375D03*
X0011000Y0100375D03*
X0021000Y0100375D03*
X0021000Y0110375D03*
X0011000Y0110375D03*
X0011000Y0120375D03*
X0021000Y0120375D03*
X0041000Y0142875D03*
X0051000Y0142875D03*
X0061000Y0142875D03*
X0071000Y0142875D03*
X0081000Y0142875D03*
X0091000Y0142875D03*
X0101000Y0142875D03*
X0111000Y0142875D03*
X0111000Y0152875D03*
X0101000Y0152875D03*
X0091000Y0152875D03*
X0081000Y0152875D03*
X0071000Y0152875D03*
X0061000Y0152875D03*
X0051000Y0152875D03*
X0041000Y0152875D03*
D14*
X0046000Y0046875D03*
X0158500Y0046875D03*
X0226000Y0046875D03*
X0296000Y0090875D03*
X0296000Y0109875D03*
D15*
X0206000Y0015875D02*
X0206000Y0009875D01*
X0196000Y0009875D02*
X0196000Y0015875D01*
X0186000Y0015875D02*
X0186000Y0009875D01*
X0176000Y0009875D02*
X0176000Y0015875D01*
D16*
X0337100Y0117875D02*
X0344900Y0117875D01*
D17*
X0381000Y0127875D03*
X0381000Y0107875D03*
X0341000Y0087875D03*
X0331000Y0097875D03*
X0331000Y0137875D03*
X0341000Y0147875D03*
D18*
X0301000Y0152875D02*
X0300213Y0152481D01*
X0296276Y0148544D01*
X0291354Y0148544D01*
X0291354Y0135749D01*
X0291000Y0135375D01*
X0300213Y0134764D02*
X0301000Y0135375D01*
X0300213Y0134764D02*
X0300213Y0091457D01*
X0296276Y0091457D01*
X0296000Y0090875D01*
X0295291Y0091457D01*
X0285449Y0091457D01*
X0276591Y0100315D01*
X0276000Y0100375D01*
X0275606Y0090473D02*
X0263795Y0102284D01*
X0253953Y0102284D01*
X0246079Y0110158D01*
X0246000Y0110375D01*
X0261827Y0116063D02*
X0275606Y0129843D01*
X0276000Y0130375D01*
X0275606Y0139686D02*
X0261827Y0125906D01*
X0154543Y0125906D01*
X0117142Y0088504D01*
X0098441Y0088504D01*
X0088598Y0078662D01*
X0088500Y0077875D01*
X0099425Y0073741D02*
X0072850Y0073741D01*
X0050213Y0096378D01*
X0018717Y0096378D01*
X0016748Y0098347D01*
X0016748Y0120001D01*
X0020685Y0120001D01*
X0021000Y0120375D01*
X0011000Y0120375D02*
X0010843Y0120001D01*
X0005921Y0115079D01*
X0005921Y0055040D01*
X0016748Y0055040D01*
X0020685Y0051103D01*
X0021000Y0050375D01*
X0021669Y0050119D01*
X0037417Y0034371D01*
X0110252Y0034371D01*
X0113205Y0037323D01*
X0113500Y0037875D01*
X0114189Y0038308D01*
X0135843Y0038308D01*
X0136000Y0037875D01*
X0136827Y0038308D01*
X0158480Y0038308D01*
X0158500Y0038875D01*
X0159465Y0046182D02*
X0167339Y0038308D01*
X0180134Y0038308D01*
X0181000Y0037875D01*
X0181118Y0038308D01*
X0202772Y0038308D01*
X0203500Y0037875D01*
X0203756Y0038308D01*
X0225409Y0038308D01*
X0226000Y0038875D01*
X0226000Y0046875D02*
X0225409Y0047166D01*
X0203756Y0047166D01*
X0203500Y0047875D01*
X0202772Y0048150D01*
X0181118Y0048150D01*
X0181000Y0047875D01*
X0161433Y0052087D02*
X0244110Y0052087D01*
X0245094Y0051103D01*
X0246000Y0050375D01*
X0252969Y0056024D02*
X0252969Y0043229D01*
X0275606Y0020591D01*
X0276000Y0020375D01*
X0280528Y0025512D02*
X0340567Y0025512D01*
X0341000Y0025375D01*
X0335646Y0033386D02*
X0377969Y0033386D01*
X0384858Y0026497D01*
X0384858Y0013701D01*
X0381906Y0013701D01*
X0381000Y0012875D01*
X0380921Y0012717D01*
X0376984Y0008780D01*
X0300213Y0008780D01*
X0291354Y0017638D01*
X0291000Y0017875D01*
X0280528Y0025512D02*
X0276591Y0029449D01*
X0276000Y0030375D01*
X0288402Y0041260D02*
X0293323Y0036339D01*
X0293500Y0035375D01*
X0294307Y0035355D01*
X0298244Y0031418D01*
X0375016Y0031418D01*
X0380921Y0025512D01*
X0381000Y0025375D01*
X0346000Y0042875D02*
X0345488Y0043229D01*
X0345488Y0060945D01*
X0298244Y0060945D01*
X0294307Y0064882D01*
X0293500Y0065375D01*
X0282496Y0079646D02*
X0276591Y0079646D01*
X0276000Y0080375D01*
X0275606Y0080630D01*
X0255921Y0100315D01*
X0246079Y0100315D01*
X0246000Y0100375D01*
X0245094Y0101300D01*
X0222457Y0101300D01*
X0216551Y0107205D01*
X0216000Y0107875D01*
X0215567Y0107205D01*
X0194898Y0107205D01*
X0193913Y0106221D01*
X0193500Y0105375D01*
X0157496Y0114095D02*
X0269701Y0114095D01*
X0275606Y0120001D01*
X0276000Y0120375D01*
X0261827Y0116063D02*
X0146669Y0116063D01*
X0146669Y0093426D01*
X0112220Y0058977D01*
X0091551Y0058977D01*
X0088598Y0061930D01*
X0088500Y0062875D01*
X0099425Y0073741D02*
X0110252Y0062914D01*
X0111000Y0062875D01*
X0114189Y0048150D02*
X0113500Y0047875D01*
X0113205Y0047166D01*
X0104346Y0038308D01*
X0091551Y0038308D01*
X0091000Y0037875D01*
X0090567Y0038308D01*
X0068913Y0038308D01*
X0068500Y0037875D01*
X0067929Y0038308D01*
X0046276Y0038308D01*
X0046000Y0038875D01*
X0045291Y0039292D01*
X0042339Y0039292D01*
X0021669Y0059961D01*
X0021000Y0060375D01*
X0015764Y0064882D02*
X0011827Y0060945D01*
X0011000Y0060375D01*
X0015764Y0064882D02*
X0046276Y0064882D01*
X0048244Y0062914D01*
X0048500Y0062875D01*
X0045291Y0074725D02*
X0015764Y0074725D01*
X0011827Y0070788D01*
X0011000Y0070375D01*
X0045291Y0074725D02*
X0048244Y0077678D01*
X0048500Y0077875D01*
X0046276Y0090473D02*
X0021669Y0090473D01*
X0021000Y0090375D01*
X0021669Y0100315D02*
X0021000Y0100375D01*
X0021669Y0100315D02*
X0103362Y0100315D01*
X0110252Y0093426D01*
X0111000Y0092875D01*
X0088500Y0107875D02*
X0088598Y0108189D01*
X0117142Y0136733D01*
X0262811Y0136733D01*
X0275606Y0149528D01*
X0276000Y0150375D01*
X0276000Y0140375D02*
X0275606Y0139686D01*
X0276000Y0110375D02*
X0276591Y0110158D01*
X0295291Y0110158D01*
X0296000Y0109875D01*
X0276000Y0090375D02*
X0275606Y0090473D01*
X0282496Y0079646D02*
X0282496Y0046182D01*
X0287417Y0041260D01*
X0288402Y0041260D01*
X0323500Y0045375D02*
X0323835Y0045197D01*
X0335646Y0033386D01*
X0252969Y0056024D02*
X0220488Y0056024D01*
X0216551Y0059961D01*
X0216000Y0060375D01*
X0242142Y0063898D02*
X0245094Y0060945D01*
X0246000Y0060375D01*
X0242142Y0063898D02*
X0165370Y0063898D01*
X0151591Y0077678D01*
X0151000Y0077875D01*
X0162417Y0081615D02*
X0244110Y0081615D01*
X0245094Y0080630D01*
X0246000Y0080375D01*
X0162417Y0081615D02*
X0151591Y0092441D01*
X0151000Y0092875D01*
X0151000Y0107875D02*
X0151591Y0108189D01*
X0157496Y0114095D01*
X0166000Y0130375D02*
X0166354Y0130827D01*
X0192929Y0130827D01*
X0193500Y0130375D01*
X0193500Y0140375D02*
X0192929Y0140670D01*
X0166354Y0140670D01*
X0166000Y0140375D01*
X0165370Y0140670D01*
X0161433Y0144607D01*
X0139780Y0144607D01*
X0133874Y0138701D01*
X0064976Y0138701D01*
X0061039Y0142638D01*
X0061000Y0142875D01*
X0061039Y0143623D01*
X0061039Y0152481D01*
X0061000Y0152875D01*
X0071000Y0152875D02*
X0071866Y0152481D01*
X0071866Y0143623D01*
X0071000Y0142875D01*
X0081000Y0142875D02*
X0081709Y0143623D01*
X0090567Y0143623D01*
X0091000Y0142875D01*
X0091551Y0143623D01*
X0100409Y0143623D01*
X0101000Y0142875D01*
X0101394Y0143623D01*
X0101394Y0152481D01*
X0101000Y0152875D01*
X0091551Y0152481D02*
X0091000Y0152875D01*
X0091551Y0152481D02*
X0091551Y0143623D01*
X0081709Y0143623D02*
X0081709Y0152481D01*
X0081000Y0152875D01*
X0111000Y0152875D02*
X0111236Y0152481D01*
X0111236Y0143623D01*
X0111000Y0142875D01*
X0141000Y0130375D02*
X0141748Y0130827D01*
X0165370Y0130827D01*
X0166000Y0130375D01*
X0048500Y0092875D02*
X0048244Y0092441D01*
X0046276Y0090473D01*
X0068913Y0048150D02*
X0068500Y0047875D01*
X0067929Y0047166D01*
X0046276Y0047166D01*
X0046000Y0046875D01*
X0068913Y0048150D02*
X0090567Y0048150D01*
X0091000Y0047875D01*
X0114189Y0048150D02*
X0135843Y0048150D01*
X0136000Y0047875D01*
X0136827Y0047166D01*
X0158480Y0047166D01*
X0158500Y0046875D01*
X0159465Y0046182D01*
X0161433Y0052087D02*
X0151591Y0061930D01*
X0151000Y0062875D01*
X0194898Y0022560D02*
X0186039Y0013701D01*
X0186000Y0012875D01*
X0196000Y0012875D02*
X0196866Y0013701D01*
X0203756Y0020591D01*
X0245094Y0020591D01*
X0246000Y0020375D01*
X0238205Y0022560D02*
X0194898Y0022560D01*
X0238205Y0022560D02*
X0245094Y0029449D01*
X0246000Y0030375D01*
X0381000Y0107875D02*
X0381906Y0108189D01*
X0381906Y0127875D01*
X0381000Y0127875D01*
M02*
